<svg version="1.1" preserveAspectRatio="none" xmlns="http://www.w3.org/2000/svg" width="500" height="500" viewBox="0 0 500 500"><rect width="100%" height="100%" fill="#F7F0E8" fill-opacity="1"/><svg viewBox="46.6029 374.2694 602.9035 120" width="333" height="66.27926359691061" x="83.5px" y="216.8604px" xmlns="http://www.w3.org/2000/svg" xmlns:xlink="http://www.w3.org/1999/xlink" preserveAspectRatio="none"><defs></defs><style>.companyName {fill:#883F39;fill-opacity:1;}.icon1 {fill:#F3C1BC;fill-opacity:1;}.icon2 {fill:#C4AFAD;fill-opacity:1;}.icon3 {fill:#B28A87;fill-opacity:1;}.icon3-str {stroke:#B28A87;stroke-opacity:1;}.text {fill:#883F39;fill-opacity:1;}</style><g opacity="1" transform="rotate(0 77.0778 374.2694)">
<svg width="157.5" height="70" x="77.0778" y="374.2694" version="1.1" preserveAspectRatio="none" viewBox="5 30 90 40">
  <g transform="matrix(1 0 0 1 0 0)" class="icon1"><g><polygon points="44.4,30 5,70 69.3,70  "></polygon></g><polyline points="83.8,70 64.8,39.5 59.3,45.1 83.8,70 "></polyline><polygon points="94.9,69.9 95,69.9 83.1,50.9 79.6,54.4 "></polygon></g>
</svg>
</g><g opacity="1" transform="rotate(0 46.6029 466.2694)">
<svg width="602.9035" height="28" x="46.6029" y="466.2694" version="1.1" preserveAspectRatio="none" viewBox="2.08 -29.68 810.48 37.64">
  <g transform="matrix(1 0 0 1 0 0)" class="text"><path id="id-6izo4zJp30" d="M16.72 0.24Q12.56 0.24 9.22-1.60Q5.88-3.44 3.98-6.70Q2.08-9.96 2.08-14L2.08-14Q2.08-18.04 3.98-21.30Q5.88-24.56 9.24-26.40Q12.60-28.24 16.76-28.24L16.76-28.24Q19.88-28.24 22.52-27.20Q25.16-26.16 27-24.16L27-24.16L25.12-22.28Q21.84-25.60 16.84-25.60L16.84-25.60Q13.52-25.60 10.80-24.08Q8.08-22.56 6.54-19.92Q5-17.28 5-14L5-14Q5-10.72 6.54-8.08Q8.08-5.44 10.80-3.92Q13.52-2.40 16.84-2.40L16.84-2.40Q21.88-2.40 25.12-5.76L25.12-5.76L27-3.88Q25.16-1.88 22.50-0.82Q19.84 0.24 16.72 0.24L16.72 0.24Z M44.40 0.20Q41.36 0.20 38.92-1.18Q36.48-2.56 35.08-5Q33.68-7.44 33.68-10.52L33.68-10.52Q33.68-13.60 35.08-16.04Q36.48-18.48 38.92-19.84Q41.36-21.20 44.40-21.20L44.40-21.20Q47.44-21.20 49.88-19.84Q52.32-18.48 53.70-16.04Q55.08-13.60 55.08-10.52L55.08-10.52Q55.08-7.44 53.70-5Q52.32-2.56 49.88-1.18Q47.44 0.20 44.40 0.20L44.40 0.20ZM44.40-2.32Q46.64-2.32 48.42-3.34Q50.20-4.36 51.20-6.24Q52.20-8.12 52.20-10.52L52.20-10.52Q52.20-12.92 51.20-14.80Q50.20-16.68 48.42-17.70Q46.64-18.72 44.40-18.72L44.40-18.72Q42.16-18.72 40.38-17.70Q38.60-16.68 37.58-14.80Q36.56-12.92 36.56-10.52L36.56-10.52Q36.56-8.12 37.58-6.24Q38.60-4.36 40.38-3.34Q42.16-2.32 44.40-2.32L44.40-2.32Z M91.12-21.20Q95.08-21.20 97.34-18.92Q99.60-16.64 99.60-12.20L99.60-12.20L99.60 0L96.76 0L96.76-11.92Q96.76-15.20 95.18-16.92Q93.60-18.64 90.72-18.64L90.72-18.64Q87.44-18.64 85.56-16.62Q83.68-14.60 83.68-11.04L83.68-11.04L83.68 0L80.84 0L80.84-11.92Q80.84-15.20 79.26-16.92Q77.68-18.64 74.76-18.64L74.76-18.64Q71.52-18.64 69.62-16.62Q67.72-14.60 67.72-11.04L67.72-11.04L67.72 0L64.88 0L64.88-21.04L67.60-21.04L67.60-17.20Q68.72-19.12 70.72-20.16Q72.72-21.20 75.32-21.20L75.32-21.20Q77.96-21.20 79.90-20.08Q81.84-18.96 82.80-16.76L82.80-16.76Q83.96-18.84 86.14-20.02Q88.32-21.20 91.12-21.20L91.12-21.20Z M137.56-21.20Q141.52-21.20 143.78-18.92Q146.04-16.64 146.04-12.20L146.04-12.20L146.04 0L143.20 0L143.20-11.92Q143.20-15.20 141.62-16.92Q140.04-18.64 137.16-18.64L137.16-18.64Q133.88-18.64 132-16.62Q130.12-14.60 130.12-11.04L130.12-11.04L130.12 0L127.28 0L127.28-11.92Q127.28-15.20 125.70-16.92Q124.12-18.64 121.20-18.64L121.20-18.64Q117.96-18.64 116.06-16.62Q114.16-14.60 114.16-11.04L114.16-11.04L114.16 0L111.32 0L111.32-21.04L114.04-21.04L114.04-17.20Q115.16-19.12 117.16-20.16Q119.16-21.20 121.76-21.20L121.76-21.20Q124.40-21.20 126.34-20.08Q128.28-18.96 129.24-16.76L129.24-16.76Q130.40-18.84 132.58-20.02Q134.76-21.20 137.56-21.20L137.56-21.20Z M173.88-21.04L176.72-21.04L176.72 0L174 0L174-3.84Q172.88-1.92 170.92-0.86Q168.96 0.20 166.44 0.20L166.44 0.20Q162.32 0.20 159.94-2.10Q157.56-4.40 157.56-8.84L157.56-8.84L157.56-21.04L160.40-21.04L160.40-9.12Q160.40-5.80 162.04-4.08Q163.68-2.36 166.72-2.36L166.72-2.36Q170.04-2.36 171.96-4.38Q173.88-6.40 173.88-10L173.88-10L173.88-21.04Z M199.40-21.20Q203.36-21.20 205.70-18.90Q208.04-16.60 208.04-12.20L208.04-12.20L208.04 0L205.20 0L205.20-11.92Q205.20-15.20 203.56-16.92Q201.92-18.64 198.88-18.64L198.88-18.64Q195.48-18.64 193.50-16.62Q191.52-14.60 191.52-11.04L191.52-11.04L191.52 0L188.68 0L188.68-21.04L191.40-21.04L191.40-17.16Q192.56-19.08 194.62-20.14Q196.68-21.20 199.40-21.20L199.40-21.20Z M219.76 0L219.76-21.04L222.60-21.04L222.60 0L219.76 0ZM221.20-25.64Q220.32-25.64 219.72-26.24Q219.12-26.84 219.12-27.68L219.12-27.68Q219.12-28.48 219.72-29.08Q220.32-29.68 221.20-29.68L221.20-29.68Q222.08-29.68 222.68-29.10Q223.28-28.52 223.28-27.72L223.28-27.72Q223.28-26.84 222.68-26.24Q222.08-25.64 221.20-25.64L221.20-25.64Z M244.60-3.32L245.60-1.28Q244.80-0.56 243.62-0.18Q242.44 0.20 241.16 0.20L241.16 0.20Q238.20 0.20 236.60-1.40Q235.00-3 235.00-5.92L235.00-5.92L235.00-18.64L231.24-18.64L231.24-21.04L235.00-21.04L235.00-25.64L237.84-25.64L237.84-21.04L244.24-21.04L244.24-18.64L237.84-18.64L237.84-6.08Q237.84-4.20 238.78-3.22Q239.72-2.24 241.48-2.24L241.48-2.24Q242.36-2.24 243.18-2.52Q244.00-2.80 244.60-3.32L244.60-3.32Z M269.24-21.04L272.04-21.04L261.52 2.52Q260.24 5.48 258.56 6.72Q256.88 7.96 254.52 7.96L254.52 7.96Q253.00 7.96 251.68 7.48Q250.36 7 249.40 6.04L249.40 6.04L250.72 3.92Q252.32 5.52 254.56 5.52L254.56 5.52Q256.00 5.52 257.02 4.72Q258.04 3.92 258.92 2L258.92 2L259.84-0.04L250.44-21.04L253.40-21.04L261.32-3.16L269.24-21.04Z M295.12 7.76L295.12-29.68L297.76-29.68L297.76 7.76L295.12 7.76Z M330.64-4.56L330.64-14L333.48-14L333.48-3.32Q331.52-1.60 328.84-0.68Q326.16 0.24 323.20 0.24L323.20 0.24Q319.00 0.24 315.64-1.60Q312.28-3.44 310.36-6.70Q308.44-9.96 308.44-14L308.44-14Q308.44-18.04 310.36-21.30Q312.28-24.56 315.64-26.40Q319.00-28.24 323.24-28.24L323.24-28.24Q326.44-28.24 329.12-27.22Q331.80-26.20 333.64-24.20L333.64-24.20L331.80-22.32Q328.48-25.60 323.36-25.60L323.36-25.60Q319.96-25.60 317.22-24.10Q314.48-22.60 312.92-19.94Q311.36-17.28 311.36-14L311.36-14Q311.36-10.72 312.92-8.08Q314.48-5.44 317.20-3.92Q319.92-2.40 323.32-2.40L323.32-2.40Q327.64-2.40 330.64-4.56L330.64-4.56Z M352.60-21.20Q356.72-21.20 358.92-19.14Q361.12-17.08 361.12-13.04L361.12-13.04L361.12 0L358.40 0L358.40-3.28Q357.44-1.64 355.58-0.72Q353.72 0.20 351.16 0.20L351.16 0.20Q347.64 0.20 345.56-1.48Q343.48-3.16 343.48-5.92L343.48-5.92Q343.48-8.60 345.42-10.24Q347.36-11.88 351.60-11.88L351.60-11.88L358.28-11.88L358.28-13.16Q358.28-15.88 356.76-17.30Q355.24-18.72 352.32-18.72L352.32-18.72Q350.32-18.72 348.48-18.06Q346.64-17.40 345.32-16.24L345.32-16.24L344.04-18.36Q345.64-19.72 347.88-20.46Q350.12-21.20 352.60-21.20L352.60-21.20ZM351.60-2.04Q354.00-2.04 355.72-3.14Q357.44-4.24 358.28-6.32L358.28-6.32L358.28-9.76L351.68-9.76Q346.28-9.76 346.28-6L346.28-6Q346.28-4.16 347.68-3.10Q349.08-2.04 351.60-2.04L351.60-2.04Z M399.08-21.20Q403.04-21.20 405.30-18.92Q407.56-16.64 407.56-12.20L407.56-12.20L407.56 0L404.72 0L404.72-11.92Q404.72-15.20 403.14-16.92Q401.56-18.64 398.68-18.64L398.68-18.64Q395.40-18.64 393.52-16.62Q391.64-14.60 391.64-11.04L391.64-11.04L391.64 0L388.80 0L388.80-11.92Q388.80-15.20 387.22-16.92Q385.64-18.64 382.72-18.64L382.72-18.64Q379.48-18.64 377.58-16.62Q375.68-14.60 375.68-11.04L375.68-11.04L375.68 0L372.84 0L372.84-21.04L375.56-21.04L375.56-17.20Q376.68-19.12 378.68-20.16Q380.68-21.20 383.28-21.20L383.28-21.20Q385.92-21.20 387.86-20.08Q389.80-18.96 390.76-16.76L390.76-16.76Q391.92-18.84 394.10-20.02Q396.28-21.20 399.08-21.20L399.08-21.20Z M419.28 0L419.28-21.04L422.12-21.04L422.12 0L419.28 0ZM420.72-25.64Q419.84-25.64 419.24-26.24Q418.64-26.84 418.64-27.68L418.64-27.68Q418.64-28.48 419.24-29.08Q419.84-29.68 420.72-29.68L420.72-29.68Q421.60-29.68 422.20-29.10Q422.80-28.52 422.80-27.72L422.80-27.72Q422.80-26.84 422.20-26.24Q421.60-25.64 420.72-25.64L420.72-25.64Z M444.76-21.20Q448.72-21.20 451.06-18.90Q453.40-16.60 453.40-12.20L453.40-12.20L453.40 0L450.56 0L450.56-11.92Q450.56-15.20 448.92-16.92Q447.28-18.64 444.24-18.64L444.24-18.64Q440.84-18.64 438.86-16.62Q436.88-14.60 436.88-11.04L436.88-11.04L436.88 0L434.04 0L434.04-21.04L436.76-21.04L436.76-17.16Q437.92-19.08 439.98-20.14Q442.04-21.20 444.76-21.20L444.76-21.20Z M481.96-21.04L484.68-21.04L484.68-2.56Q484.68 2.80 482.06 5.38Q479.44 7.96 474.16 7.96L474.16 7.96Q471.24 7.96 468.62 7.10Q466.00 6.24 464.36 4.72L464.36 4.72L465.80 2.56Q467.32 3.92 469.50 4.68Q471.68 5.44 474.08 5.44L474.08 5.44Q478.08 5.44 479.96 3.58Q481.84 1.72 481.84-2.20L481.84-2.20L481.84-4.88Q480.52-2.88 478.38-1.84Q476.24-0.80 473.64-0.80L473.64-0.80Q470.68-0.80 468.26-2.10Q465.84-3.40 464.46-5.74Q463.08-8.08 463.08-11.04L463.08-11.04Q463.08-14 464.46-16.32Q465.84-18.64 468.24-19.92Q470.64-21.20 473.64-21.20L473.64-21.20Q476.32-21.20 478.48-20.12Q480.64-19.04 481.96-17L481.96-17L481.96-21.04ZM473.92-3.32Q476.20-3.32 478.04-4.30Q479.88-5.28 480.90-7.04Q481.92-8.80 481.92-11.04L481.92-11.04Q481.92-13.28 480.90-15.02Q479.88-16.76 478.06-17.74Q476.24-18.72 473.92-18.72L473.92-18.72Q471.64-18.72 469.82-17.76Q468.00-16.80 466.98-15.04Q465.96-13.28 465.96-11.04L465.96-11.04Q465.96-8.80 466.98-7.04Q468.00-5.28 469.82-4.30Q471.64-3.32 473.92-3.32L473.92-3.32Z M518.48-21.20Q522.60-21.20 524.80-19.14Q527.00-17.08 527.00-13.04L527.00-13.04L527.00 0L524.28 0L524.28-3.28Q523.32-1.64 521.46-0.72Q519.60 0.20 517.04 0.20L517.04 0.20Q513.52 0.20 511.44-1.48Q509.36-3.16 509.36-5.92L509.36-5.92Q509.36-8.60 511.30-10.24Q513.24-11.88 517.48-11.88L517.48-11.88L524.16-11.88L524.16-13.16Q524.16-15.88 522.64-17.30Q521.12-18.72 518.20-18.72L518.20-18.72Q516.20-18.72 514.36-18.06Q512.52-17.40 511.20-16.24L511.20-16.24L509.92-18.36Q511.52-19.72 513.76-20.46Q516.00-21.20 518.48-21.20L518.48-21.20ZM517.48-2.04Q519.88-2.04 521.60-3.14Q523.32-4.24 524.16-6.32L524.16-6.32L524.16-9.76L517.56-9.76Q512.16-9.76 512.16-6L512.16-6Q512.16-4.16 513.56-3.10Q514.96-2.04 517.48-2.04L517.48-2.04Z M549.44-21.20Q553.40-21.20 555.74-18.90Q558.08-16.60 558.08-12.20L558.08-12.20L558.08 0L555.24 0L555.24-11.92Q555.24-15.20 553.60-16.92Q551.96-18.64 548.92-18.64L548.92-18.64Q545.52-18.64 543.54-16.62Q541.56-14.60 541.56-11.04L541.56-11.04L541.56 0L538.72 0L538.72-21.04L541.44-21.04L541.44-17.16Q542.60-19.08 544.66-20.14Q546.72-21.20 549.44-21.20L549.44-21.20Z M586.24-29.68L589.08-29.68L589.08 0L586.36 0L586.36-4.16Q585.08-2.04 582.98-0.92Q580.88 0.20 578.24 0.20L578.24 0.20Q575.28 0.20 572.88-1.16Q570.48-2.52 569.12-4.96Q567.76-7.40 567.76-10.52L567.76-10.52Q567.76-13.64 569.12-16.08Q570.48-18.52 572.88-19.86Q575.28-21.20 578.24-21.20L578.24-21.20Q580.80-21.20 582.86-20.14Q584.92-19.08 586.24-17.04L586.24-17.04L586.24-29.68ZM578.48-2.32Q580.68-2.32 582.46-3.34Q584.24-4.36 585.26-6.24Q586.28-8.12 586.28-10.52L586.28-10.52Q586.28-12.92 585.26-14.80Q584.24-16.68 582.46-17.70Q580.68-18.72 578.48-18.72L578.48-18.72Q576.24-18.72 574.46-17.70Q572.68-16.68 571.66-14.80Q570.64-12.92 570.64-10.52L570.64-10.52Q570.64-8.12 571.66-6.24Q572.68-4.36 574.46-3.34Q576.24-2.32 578.48-2.32L578.48-2.32Z M624.20 0.20Q621.08 0.20 618.62-1.16Q616.16-2.52 614.76-4.98Q613.36-7.44 613.36-10.52L613.36-10.52Q613.36-13.60 614.76-16.04Q616.16-18.48 618.62-19.84Q621.08-21.20 624.20-21.20L624.20-21.20Q626.92-21.20 629.06-20.14Q631.20-19.08 632.44-17.04L632.44-17.04L630.32-15.60Q629.28-17.16 627.68-17.94Q626.08-18.72 624.20-18.72L624.20-18.72Q621.92-18.72 620.10-17.70Q618.28-16.68 617.26-14.80Q616.24-12.92 616.24-10.52L616.24-10.52Q616.24-8.08 617.26-6.22Q618.28-4.36 620.10-3.34Q621.92-2.32 624.20-2.32L624.20-2.32Q626.08-2.32 627.68-3.08Q629.28-3.84 630.32-5.40L630.32-5.40L632.44-3.96Q631.20-1.92 629.04-0.86Q626.88 0.20 624.20 0.20L624.20 0.20Z M650.24 0.20Q647.20 0.20 644.76-1.18Q642.32-2.56 640.92-5Q639.52-7.44 639.52-10.52L639.52-10.52Q639.52-13.60 640.92-16.04Q642.32-18.48 644.76-19.84Q647.20-21.20 650.24-21.20L650.24-21.20Q653.28-21.20 655.72-19.84Q658.16-18.48 659.54-16.04Q660.92-13.60 660.92-10.52L660.92-10.52Q660.92-7.44 659.54-5Q658.16-2.56 655.72-1.18Q653.28 0.20 650.24 0.20L650.24 0.20ZM650.24-2.32Q652.48-2.32 654.26-3.34Q656.04-4.36 657.04-6.24Q658.04-8.12 658.04-10.52L658.04-10.52Q658.04-12.92 657.04-14.80Q656.04-16.68 654.26-17.70Q652.48-18.72 650.24-18.72L650.24-18.72Q648.00-18.72 646.22-17.70Q644.44-16.68 643.42-14.80Q642.40-12.92 642.40-10.52L642.40-10.52Q642.40-8.12 643.42-6.24Q644.44-4.36 646.22-3.34Q648.00-2.32 650.24-2.32L650.24-2.32Z M687.08-29.68L689.92-29.68L689.92 0L687.20 0L687.20-4.16Q685.92-2.04 683.82-0.92Q681.72 0.20 679.08 0.20L679.08 0.20Q676.12 0.20 673.72-1.16Q671.32-2.52 669.96-4.96Q668.60-7.40 668.60-10.52L668.60-10.52Q668.60-13.64 669.96-16.08Q671.32-18.52 673.72-19.86Q676.12-21.20 679.08-21.20L679.08-21.20Q681.64-21.20 683.70-20.14Q685.76-19.08 687.08-17.04L687.08-17.04L687.08-29.68ZM679.32-2.32Q681.52-2.32 683.30-3.34Q685.08-4.36 686.10-6.24Q687.12-8.12 687.12-10.52L687.12-10.52Q687.12-12.92 686.10-14.80Q685.08-16.68 683.30-17.70Q681.52-18.72 679.32-18.72L679.32-18.72Q677.08-18.72 675.30-17.70Q673.52-16.68 672.50-14.80Q671.48-12.92 671.48-10.52L671.48-10.52Q671.48-8.12 672.50-6.24Q673.52-4.36 675.30-3.34Q677.08-2.32 679.32-2.32L679.32-2.32Z M720.20-10.52L720.16-9.64L702.56-9.64Q702.80-6.36 705.08-4.34Q707.36-2.32 710.84-2.32L710.84-2.32Q712.80-2.32 714.44-3.02Q716.08-3.72 717.28-5.08L717.28-5.08L718.88-3.24Q717.48-1.56 715.38-0.68Q713.28 0.20 710.76 0.20L710.76 0.20Q707.52 0.20 705.02-1.18Q702.52-2.56 701.12-5Q699.72-7.44 699.72-10.52L699.72-10.52Q699.72-13.60 701.06-16.04Q702.40-18.48 704.74-19.84Q707.08-21.20 710.00-21.20L710.00-21.20Q712.92-21.20 715.24-19.84Q717.56-18.48 718.88-16.06Q720.20-13.64 720.20-10.52L720.20-10.52ZM710.00-18.76Q706.96-18.76 704.90-16.82Q702.84-14.88 702.56-11.76L702.56-11.76L717.48-11.76Q717.20-14.88 715.14-16.82Q713.08-18.76 710.00-18.76L710.00-18.76Z M730.60 7.76L730.60-29.68L733.24-29.68L733.24 7.76L730.60 7.76Z M780.08-25.44L763.84-25.44L763.84-14.44L778.32-14.44L778.32-11.88L763.84-11.88L763.84 0L760.88 0L760.88-28L780.08-28L780.08-25.44Z M812.56 0L809.32 0L802.92-9Q801.84-8.88 800.68-8.88L800.68-8.88L793.16-8.88L793.16 0L790.20 0L790.20-28L800.68-28Q806.04-28 809.08-25.44Q812.12-22.88 812.12-18.40L812.12-18.40Q812.12-15.12 810.46-12.86Q808.80-10.60 805.72-9.60L805.72-9.60L812.56 0ZM800.60-11.40Q804.76-11.40 806.96-13.24Q809.16-15.08 809.16-18.40L809.16-18.40Q809.16-21.80 806.96-23.62Q804.76-25.44 800.60-25.44L800.60-25.44L793.16-25.44L793.16-11.40L800.60-11.40Z"/></g>
</svg>
</g><g opacity="1" transform="rotate(0 258.5778 374.2694)">
<svg width="360.4536" height="70" x="258.5778" y="374.2694" version="1.1" preserveAspectRatio="none" viewBox="4 -31.24 164.16000000000003 31.88">
  <g transform="matrix(1 0 0 1 0 0)" class="companyName"><path id="id-D6z1nYkh7" d="M6.40-1.20Q6.40-0.68 6.08-0.34Q5.76 0 5.20 0L5.20 0Q4.68 0 4.34-0.34Q4-0.68 4-1.20L4-1.20L4-30.04Q4-30.60 4.34-30.92Q4.68-31.24 5.20-31.24L5.20-31.24L13.20-31.24Q16.08-31.24 18.36-29.96Q20.64-28.68 21.92-26.40Q23.20-24.12 23.20-21.24L23.20-21.24Q23.20-18.32 21.92-16.04Q20.64-13.76 18.36-12.48Q16.08-11.20 13.20-11.20L13.20-11.20L6.40-11.20L6.40-1.20ZM13.20-13.60Q15.40-13.60 17.12-14.58Q18.84-15.56 19.82-17.30Q20.80-19.04 20.80-21.24L20.80-21.24Q20.80-23.44 19.82-25.16Q18.84-26.88 17.12-27.86Q15.40-28.84 13.20-28.84L13.20-28.84L6.40-28.84L6.40-13.60L13.20-13.60Z M28.20-30.04Q28.20-30.56 28.54-30.90Q28.88-31.24 29.40-31.24L29.40-31.24Q29.92-31.24 30.26-30.90Q30.60-30.56 30.60-30.04L30.60-30.04L30.60-1.20Q30.60-0.68 30.26-0.34Q29.92 0 29.40 0L29.40 0Q28.88 0 28.54-0.34Q28.20-0.68 28.20-1.20L28.20-1.20L28.20-30.04Z M41-1.20Q41-0.68 40.66-0.34Q40.32 0 39.80 0L39.80 0Q39.32 0 38.96-0.34Q38.60-0.68 38.60-1.20L38.60-1.20L38.60-30.04Q38.60-30.56 38.96-30.90Q39.32-31.24 39.80-31.24L39.80-31.24Q40.32-31.24 40.66-30.90Q41-30.56 41-30.04L41-30.04L41-15.36L56.52-30.88Q56.96-31.24 57.44-31.24L57.44-31.24Q57.96-31.24 58.30-30.88Q58.64-30.52 58.64-30.04L58.64-30.04Q58.64-29.60 58.28-29.16L58.28-29.16L46.80-17.68L58.40-1.92Q58.64-1.56 58.64-1.20L58.64-1.20Q58.64-0.72 58.28-0.36Q57.92 0 57.48 0L57.48 0Q56.80 0 56.44-0.52L56.44-0.52L45.04-15.92L41-11.88L41-1.20Z M87.96-1.72Q88.08-1.48 88.08-1.20L88.08-1.20Q88.08-0.72 87.72-0.36Q87.36 0 86.88 0L86.88 0Q86.08 0 85.76-0.76L85.76-0.76L82.80-7.84L66.52-7.84L63.56-0.76Q63.28 0 62.44 0L62.44 0Q61.88 0 61.56-0.36Q61.24-0.72 61.24-1.20L61.24-1.20Q61.24-1.48 61.36-1.72L61.36-1.72L73.48-30.40Q73.80-31.24 74.64-31.24L74.64-31.24Q75.44-31.24 75.80-30.40L75.80-30.40L87.96-1.72ZM67.44-10L81.88-10L74.64-27.28L67.44-10Z M109.44-31.24Q109.92-31.24 110.22-30.92Q110.52-30.60 110.52-30.12L110.52-30.12Q110.52-29.68 110.32-29.36L110.32-29.36L99.28-11.68L99.28-1.20Q99.28-0.68 98.94-0.34Q98.60 0 98.08 0L98.08 0Q97.56 0 97.22-0.34Q96.88-0.68 96.88-1.20L96.88-1.20L96.88-11.68L85.84-29.36Q85.60-29.80 85.60-30.12L85.60-30.12Q85.60-30.60 85.92-30.92Q86.24-31.24 86.76-31.24L86.76-31.24Q87.28-31.24 87.72-30.76L87.72-30.76L98.08-13.88L108.28-30.48Q108.56-30.92 108.82-31.08Q109.08-31.24 109.44-31.24L109.44-31.24Z M114.72-30.04Q114.72-30.60 115.06-30.92Q115.40-31.24 115.92-31.24L115.92-31.24Q116.48-31.24 116.80-30.92Q117.12-30.60 117.12-30.04L117.12-30.04L117.12-10.20Q117.12-7.76 118.34-5.84Q119.56-3.92 121.74-2.84Q123.92-1.76 126.72-1.76L126.72-1.76Q129.52-1.76 131.70-2.84Q133.88-3.92 135.12-5.84Q136.36-7.76 136.36-10.20L136.36-10.20L136.36-30.04Q136.36-30.60 136.70-30.92Q137.04-31.24 137.56-31.24L137.56-31.24Q138.12-31.24 138.44-30.92Q138.76-30.60 138.76-30.04L138.76-30.04L138.76-10.20Q138.76-7.04 137.22-4.58Q135.68-2.12 132.94-0.74Q130.20 0.64 126.72 0.64L126.72 0.64Q123.24 0.64 120.50-0.74Q117.76-2.12 116.24-4.58Q114.72-7.04 114.72-10.20L114.72-10.20L114.72-30.04Z M167.08-31.24Q167.56-31.24 167.86-30.94Q168.16-30.64 168.16-30.16L168.16-30.16Q168.16-29.68 167.86-29.38Q167.56-29.08 167.08-29.08L167.08-29.08L156.96-29.08L156.96-1.20Q156.96-0.68 156.62-0.34Q156.28 0 155.76 0L155.76 0Q155.24 0 154.90-0.34Q154.56-0.68 154.56-1.20L154.56-1.20L154.56-29.08L144.44-29.08Q143.96-29.08 143.66-29.38Q143.36-29.68 143.36-30.16L143.36-30.16Q143.36-30.64 143.66-30.94Q143.96-31.24 144.44-31.24L144.44-31.24L167.08-31.24Z"/></g>
</svg>
</g></svg></svg>