<svg version="1.1" preserveAspectRatio="none" xmlns="http://www.w3.org/2000/svg" width="500" height="500" viewBox="0 0 500 500"><rect width="100%" height="100%" fill="#FFFFFF" fill-opacity="1"/><svg viewBox="76.6282 298.0005 407.881 145.2" width="333" height="118.54339868736224" x="83.5px" y="190.7283px" xmlns="http://www.w3.org/2000/svg" xmlns:xlink="http://www.w3.org/1999/xlink" preserveAspectRatio="none"><defs></defs><style>.companyName {fill:#1e1e1e;fill-opacity:1;}.icon1 {fill:#1E1E1E;fill-opacity:1;}.icon3-str {stroke:#848383;stroke-opacity:1;}.shapeStroke-str {stroke:#949393;stroke-opacity:1;}</style><g opacity="1" transform="rotate(0 78.2239 402.0005)">
<svg width="404.6896" height="1" x="78.2239" y="402.0005" version="1.1" preserveAspectRatio="none" viewBox="0 0 404.6896 1">
  <defs><rect x="0" y="0" width="404.6896" height="1" rx="0%" ry="0%" id="id-Fn9MWtLe1676915606651"></rect></defs><use class="icon1 shapeStroke-str" style="stroke-width:0;" xlink:href="#id-Fn9MWtLe1676915606651"></use>
</svg>
</g><g opacity="1" transform="rotate(0 78.2239 298.0005)">
<svg width="404.6896" height="4" x="78.2239" y="298.0005" version="1.1" preserveAspectRatio="none" viewBox="0 0 404.6896 4">
  <defs><rect x="0" y="0" width="404.6896" height="4" rx="0%" ry="0%" id="id-7UcwTXs11676915606651"></rect></defs><use class="icon1 shapeStroke-str" style="stroke-width:0;" xlink:href="#id-7UcwTXs11676915606651"></use>
</svg>
</g><g opacity="1" transform="rotate(0 76.6282 418.0005)">
<svg width="407.881" height="25.2" x="76.6282" y="418.0005" version="1.1" preserveAspectRatio="none" viewBox="2.72 -30.4 642.84 39.72">
  <g transform="matrix(1 0 0 1 0 0)" class="companyName"><path id="id-6izo4zJp30" d="M24.92-1.88Q23.36-0.92 21.40-0.30Q19.44 0.32 17.20 0.32L17.20 0.32Q12.92 0.32 9.64-1.60Q6.36-3.52 4.54-6.80Q2.72-10.08 2.72-14L2.72-14Q2.72-18.12 4.60-21.48Q6.48-24.84 9.76-26.78Q13.04-28.72 17.04-28.72L17.04-28.72Q21.24-28.72 24.80-26.56L24.80-26.56L23.96-24.76Q20.60-26.84 17.08-26.84L17.08-26.84Q13.76-26.84 10.92-25.14Q8.08-23.44 6.42-20.50Q4.76-17.56 4.76-14.08L4.76-14.08Q4.76-10.64 6.28-7.78Q7.80-4.92 10.60-3.24Q13.40-1.56 17.08-1.56L17.08-1.56Q20.76-1.56 24-3.60L24-3.60L24.92-1.88Z M31.68-7.92Q31.68-10.16 32.78-12.06Q33.88-13.96 35.80-15.06Q37.72-16.16 40.04-16.16L40.04-16.16Q42.36-16.16 44.28-15.06Q46.20-13.96 47.28-12.06Q48.36-10.16 48.36-7.92L48.36-7.92Q48.36-5.64 47.26-3.76Q46.16-1.88 44.26-0.78Q42.36 0.32 40 0.32L40 0.32Q37.64 0.32 35.74-0.74Q33.84-1.80 32.76-3.68Q31.68-5.56 31.68-7.92L31.68-7.92ZM33.56-7.88Q33.56-6.08 34.42-4.56Q35.28-3.04 36.76-2.16Q38.24-1.28 40-1.28L40-1.28Q41.76-1.28 43.24-2.16Q44.72-3.04 45.58-4.56Q46.44-6.08 46.44-7.88L46.44-7.88Q46.44-9.68 45.58-11.22Q44.72-12.76 43.24-13.64Q41.76-14.52 40-14.52L40-14.52Q38.20-14.52 36.72-13.58Q35.24-12.64 34.40-11.12Q33.56-9.60 33.56-7.88L33.56-7.88Z M75.40-16.08Q77.60-16.08 78.92-14.80Q80.24-13.52 80.32-11.40L80.32-11.40L80.32 0L78.44 0L78.44-11Q78.36-12.44 77.50-13.40Q76.64-14.36 75-14.44L75-14.44Q73.44-14.44 72.12-13.64Q70.80-12.84 69.98-11.50Q69.16-10.16 69.08-8.56L69.08-8.56L69.08 0L67.20 0L67.20-11Q67.12-12.44 66.24-13.40Q65.36-14.36 63.72-14.44L63.72-14.44Q62.16-14.44 60.80-13.64Q59.44-12.84 58.64-11.44Q57.84-10.04 57.84-8.40L57.84-8.40L57.84 0L55.96 0L55.96-15.64L57.60-15.64L57.76-12.20Q58.64-14 60.40-15.04Q62.16-16.08 64.24-16.08L64.24-16.08Q66.12-16.08 67.48-15.06Q68.84-14.04 69.08-12.44L69.08-12.44Q70-14.16 71.70-15.12Q73.40-16.08 75.40-16.08L75.40-16.08Z M108.88-16.08Q111.08-16.08 112.40-14.80Q113.72-13.52 113.80-11.40L113.80-11.40L113.80 0L111.92 0L111.92-11Q111.84-12.44 110.98-13.40Q110.12-14.36 108.48-14.44L108.48-14.44Q106.92-14.44 105.60-13.64Q104.28-12.84 103.46-11.50Q102.64-10.16 102.56-8.56L102.56-8.56L102.56 0L100.68 0L100.68-11Q100.60-12.44 99.72-13.40Q98.84-14.36 97.20-14.44L97.20-14.44Q95.64-14.44 94.28-13.64Q92.92-12.84 92.12-11.44Q91.32-10.04 91.32-8.40L91.32-8.40L91.32 0L89.44 0L89.44-15.64L91.08-15.64L91.24-12.20Q92.12-14 93.88-15.04Q95.64-16.08 97.72-16.08L97.72-16.08Q99.60-16.08 100.96-15.06Q102.32-14.04 102.56-12.44L102.56-12.44Q103.48-14.16 105.18-15.12Q106.88-16.08 108.88-16.08L108.88-16.08Z M134.28-15.64L136.16-15.64L136.16 0L134.48 0L134.36-3.32Q133.60-1.68 131.76-0.62Q129.92 0.44 127.84 0.44L127.84 0.44Q125.68 0.44 124.34-0.86Q123.00-2.16 122.92-4.24L122.92-4.24L122.92-15.64L124.80-15.64L124.80-4.80Q124.88-3.20 125.80-2.24Q126.72-1.28 128.48-1.20L128.48-1.20Q130-1.20 131.34-2Q132.68-2.80 133.48-4.20Q134.28-5.60 134.28-7.32L134.28-7.32L134.28-15.64Z M153.68-16.08Q155.84-16.08 157.20-14.78Q158.56-13.48 158.64-11.40L158.64-11.40L158.64 0L156.72 0L156.72-10.88Q156.64-12.44 155.72-13.42Q154.80-14.40 153.08-14.44L153.08-14.44Q151.48-14.44 150.14-13.68Q148.80-12.92 147.98-11.54Q147.16-10.16 147.16-8.40L147.16-8.40L147.16 0L145.28 0L145.28-15.64L146.92-15.64L147.08-12.16Q147.84-13.96 149.66-15.02Q151.48-16.08 153.68-16.08L153.68-16.08Z M167.76-15.64L169.64-15.64L169.64 0L167.76 0L167.76-15.64ZM167.36-21.40Q167.36-21.96 167.78-22.34Q168.20-22.72 168.76-22.72L168.76-22.72Q169.32-22.72 169.72-22.34Q170.12-21.96 170.12-21.40L170.12-21.40Q170.12-20.80 169.72-20.42Q169.32-20.04 168.76-20.04L168.76-20.04Q168.20-20.04 167.78-20.44Q167.36-20.84 167.36-21.40L167.36-21.40Z M180.32-22.52L182.24-22.52L182.24-15.44L187.08-15.44L187.08-13.92L182.24-13.92L182.24 0L180.32 0L180.32-13.92L177.00-13.92L177.00-15.44L180.32-15.44L180.32-22.52Z M205.40-15.64L207.24-15.64L197.16 7.52L195.20 7.52L198.56-0.16L191.32-15.64L193.44-15.64L199.52-2.32L205.40-15.64Z M228.48-28.16L230.24-28.16L230.24 9.32L228.48 9.32L228.48-28.16Z M262.28-2Q260.84-1.04 258.34-0.36Q255.84 0.32 253.68 0.32L253.68 0.32Q249.32 0.32 246.00-1.56Q242.68-3.44 240.86-6.68Q239.04-9.92 239.04-13.92L239.04-13.92Q239.04-18.16 241.00-21.54Q242.96-24.92 246.28-26.82Q249.60-28.72 253.56-28.72L253.56-28.72Q257.84-28.72 261.36-26.64L261.36-26.64L260.64-24.88Q259.20-25.72 257.36-26.24Q255.52-26.76 253.76-26.76L253.76-26.76Q250.20-26.76 247.28-25.10Q244.36-23.44 242.70-20.54Q241.04-17.64 241.04-14.04L241.04-14.04Q241.04-10.52 242.62-7.68Q244.20-4.84 247.06-3.22Q249.92-1.60 253.64-1.60L253.64-1.60Q255.36-1.60 257.20-2.02Q259.04-2.44 260.32-3.16L260.32-3.16L260.32-11.04L253.92-11.04L253.92-12.92L262.28-12.92L262.28-2Z M285.08-15.64L286.76-15.64L286.76 0L284.88 0L284.88-3.32Q283.96-1.80 282.08-0.74Q280.20 0.32 278.00 0.32L278.00 0.32Q275.76 0.32 273.94-0.70Q272.12-1.72 271.06-3.58Q270.00-5.44 270.00-7.84L270.00-7.84Q270.00-10.40 271.10-12.26Q272.20-14.12 274.14-15.12Q276.08-16.12 278.52-16.12L278.52-16.12Q280.44-16.12 282.20-15.04Q283.96-13.96 284.88-12.24L284.88-12.24L285.08-15.64ZM278.40-1.28Q281.04-1.28 282.88-2.92Q284.72-4.56 284.88-7.12L284.88-7.12L284.88-9.36Q284.40-11.56 282.56-13.04Q280.72-14.52 278.36-14.52L278.36-14.52Q276.56-14.52 275.08-13.70Q273.60-12.88 272.74-11.38Q271.88-9.88 271.88-7.92L271.88-7.92Q271.88-6.12 272.76-4.60Q273.64-3.08 275.14-2.18Q276.64-1.28 278.40-1.28L278.40-1.28Z M315.32-16.08Q317.52-16.08 318.84-14.80Q320.16-13.52 320.24-11.40L320.24-11.40L320.24 0L318.36 0L318.36-11Q318.28-12.44 317.42-13.40Q316.56-14.36 314.92-14.44L314.92-14.44Q313.36-14.44 312.04-13.64Q310.72-12.84 309.90-11.50Q309.08-10.16 309.00-8.56L309.00-8.56L309.00 0L307.12 0L307.12-11Q307.04-12.44 306.16-13.40Q305.28-14.36 303.64-14.44L303.64-14.44Q302.08-14.44 300.72-13.64Q299.36-12.84 298.56-11.44Q297.76-10.04 297.76-8.40L297.76-8.40L297.76 0L295.88 0L295.88-15.64L297.52-15.64L297.68-12.20Q298.56-14 300.32-15.04Q302.08-16.08 304.16-16.08L304.16-16.08Q306.04-16.08 307.40-15.06Q308.76-14.04 309.00-12.44L309.00-12.44Q309.92-14.16 311.62-15.12Q313.32-16.08 315.32-16.08L315.32-16.08Z M329.36-15.64L331.24-15.64L331.24 0L329.36 0L329.36-15.64ZM328.96-21.40Q328.96-21.96 329.38-22.34Q329.80-22.72 330.36-22.72L330.36-22.72Q330.92-22.72 331.32-22.34Q331.72-21.96 331.72-21.40L331.72-21.40Q331.72-20.80 331.32-20.42Q330.92-20.04 330.36-20.04L330.36-20.04Q329.80-20.04 329.38-20.44Q328.96-20.84 328.96-21.40L328.96-21.40Z M348.76-16.08Q350.92-16.08 352.28-14.78Q353.64-13.48 353.72-11.40L353.72-11.40L353.72 0L351.80 0L351.80-10.88Q351.72-12.44 350.80-13.42Q349.88-14.40 348.16-14.44L348.16-14.44Q346.56-14.44 345.22-13.68Q343.88-12.92 343.06-11.54Q342.24-10.16 342.24-8.40L342.24-8.40L342.24 0L340.36 0L340.36-15.64L342.00-15.64L342.16-12.16Q342.92-13.96 344.74-15.02Q346.56-16.08 348.76-16.08L348.76-16.08Z M376.60-15.64L378.28-15.64L378.28 0.24Q378.28 3.44 376.18 5.54Q374.08 7.64 369.80 7.64L369.80 7.64Q367.76 7.64 366.04 6.90Q364.32 6.16 362.52 4.44L362.52 4.44L363.64 3.16Q365.24 4.72 366.72 5.34Q368.20 5.96 369.72 5.96L369.72 5.96Q373.16 5.96 374.72 4.40Q376.28 2.84 376.36 0.20L376.36 0.20L376.40-3.48Q375.36-1.76 373.46-0.72Q371.56 0.32 369.32 0.32L369.32 0.32Q367.12 0.32 365.30-0.76Q363.48-1.84 362.40-3.72Q361.32-5.60 361.32-7.88L361.32-7.88Q361.32-10.24 362.44-12.12Q363.56-14 365.48-15.06Q367.40-16.12 369.72-16.12L369.72-16.12Q371.76-16.12 373.64-15.10Q375.52-14.08 376.44-12.40L376.44-12.40L376.60-15.64ZM369.80-1.28Q371.52-1.28 372.98-2.06Q374.44-2.84 375.36-4.16Q376.28-5.48 376.40-7L376.40-7L376.40-9.32Q375.92-11.60 374.06-13.06Q372.20-14.52 369.80-14.52L369.80-14.52Q367.96-14.52 366.44-13.68Q364.92-12.84 364.06-11.34Q363.20-9.84 363.20-7.92L363.20-7.92Q363.20-6.12 364.08-4.60Q364.96-3.08 366.48-2.18Q368.00-1.28 369.80-1.28L369.80-1.28Z M415.24-15.64L416.92-15.64L416.92 0L415.04 0L415.04-3.32Q414.12-1.80 412.24-0.74Q410.36 0.32 408.16 0.32L408.16 0.32Q405.92 0.32 404.10-0.70Q402.28-1.72 401.22-3.58Q400.16-5.44 400.16-7.84L400.16-7.84Q400.16-10.40 401.26-12.26Q402.36-14.12 404.30-15.12Q406.24-16.12 408.68-16.12L408.68-16.12Q410.60-16.12 412.36-15.04Q414.12-13.96 415.04-12.24L415.04-12.24L415.24-15.64ZM408.56-1.28Q411.20-1.28 413.04-2.92Q414.88-4.56 415.04-7.12L415.04-7.12L415.04-9.36Q414.56-11.56 412.72-13.04Q410.88-14.52 408.52-14.52L408.52-14.52Q406.72-14.52 405.24-13.70Q403.76-12.88 402.90-11.38Q402.04-9.88 402.04-7.92L402.04-7.92Q402.04-6.12 402.92-4.60Q403.80-3.08 405.30-2.18Q406.80-1.28 408.56-1.28L408.56-1.28Z M434.44-16.08Q436.60-16.08 437.96-14.78Q439.32-13.48 439.40-11.40L439.40-11.40L439.40 0L437.48 0L437.48-10.88Q437.40-12.44 436.48-13.42Q435.56-14.40 433.84-14.44L433.84-14.44Q432.24-14.44 430.90-13.68Q429.56-12.92 428.74-11.54Q427.92-10.16 427.92-8.40L427.92-8.40L427.92 0L426.04 0L426.04-15.64L427.68-15.64L427.84-12.16Q428.60-13.96 430.42-15.02Q432.24-16.08 434.44-16.08L434.44-16.08Z M462.00-30.40L463.88-30.40L463.88 0L461.96 0L461.96-3.24Q460.88-1.64 459.00-0.66Q457.12 0.32 454.92 0.32L454.92 0.32Q452.72 0.32 450.90-0.74Q449.08-1.80 448.04-3.70Q447.00-5.60 447.00-7.92L447.00-7.92Q447.00-10.36 448.08-12.24Q449.16-14.12 451.00-15.12Q452.84-16.12 455.12-16.12L455.12-16.12Q457.16-16.12 459.06-15.12Q460.96-14.12 462.00-12.48L462.00-12.48L462.00-30.40ZM455.40-1.32Q458.08-1.32 459.92-3Q461.76-4.68 461.96-7.24L461.96-7.24L461.96-9.24Q461.52-11.52 459.66-13.04Q457.80-14.56 455.40-14.56L455.40-14.56Q453.60-14.56 452.12-13.72Q450.64-12.88 449.76-11.38Q448.88-9.88 448.88-7.96L448.88-7.96Q448.88-6.16 449.76-4.64Q450.64-3.12 452.14-2.22Q453.64-1.32 455.40-1.32L455.40-1.32Z M499.36-1.52Q498.28-0.64 496.90-0.16Q495.52 0.32 494.08 0.32L494.08 0.32Q491.72 0.32 489.82-0.74Q487.92-1.80 486.84-3.66Q485.76-5.52 485.76-7.84L485.76-7.84Q485.76-10.16 486.86-12.02Q487.96-13.88 489.84-14.94Q491.72-16 493.92-16L493.92-16Q497.16-16 499.40-14.16L499.40-14.16L498.40-12.88Q496.40-14.44 494.04-14.44L494.04-14.44Q492.28-14.44 490.82-13.56Q489.36-12.68 488.50-11.16Q487.64-9.64 487.64-7.84L487.64-7.84Q487.64-6.04 488.50-4.54Q489.36-3.04 490.86-2.16Q492.36-1.28 494.20-1.28L494.20-1.28Q496.44-1.28 498.32-2.68L498.32-2.68L499.36-1.52Z M505.08-7.92Q505.08-10.16 506.18-12.06Q507.28-13.96 509.20-15.06Q511.12-16.16 513.44-16.16L513.44-16.16Q515.76-16.16 517.68-15.06Q519.60-13.96 520.68-12.06Q521.76-10.16 521.76-7.92L521.76-7.92Q521.76-5.64 520.66-3.76Q519.56-1.88 517.66-0.78Q515.76 0.32 513.40 0.32L513.40 0.32Q511.04 0.32 509.14-0.74Q507.24-1.80 506.16-3.68Q505.08-5.56 505.08-7.92L505.08-7.92ZM506.96-7.88Q506.96-6.08 507.82-4.56Q508.68-3.04 510.16-2.16Q511.64-1.28 513.40-1.28L513.40-1.28Q515.16-1.28 516.64-2.16Q518.12-3.04 518.98-4.56Q519.84-6.08 519.84-7.88L519.84-7.88Q519.84-9.68 518.98-11.22Q518.12-12.76 516.64-13.64Q515.16-14.52 513.40-14.52L513.40-14.52Q511.60-14.52 510.12-13.58Q508.64-12.64 507.80-11.12Q506.96-9.60 506.96-7.88L506.96-7.88Z M542.84-30.40L544.72-30.40L544.72 0L542.80 0L542.80-3.24Q541.72-1.64 539.84-0.66Q537.96 0.32 535.76 0.32L535.76 0.32Q533.56 0.32 531.74-0.74Q529.92-1.80 528.88-3.70Q527.84-5.60 527.84-7.92L527.84-7.92Q527.84-10.36 528.92-12.24Q530.00-14.12 531.84-15.12Q533.68-16.12 535.96-16.12L535.96-16.12Q538.00-16.12 539.90-15.12Q541.80-14.12 542.84-12.48L542.84-12.48L542.84-30.40ZM536.24-1.32Q538.92-1.32 540.76-3Q542.60-4.68 542.80-7.24L542.80-7.24L542.80-9.24Q542.36-11.52 540.50-13.04Q538.64-14.56 536.24-14.56L536.24-14.56Q534.44-14.56 532.96-13.72Q531.48-12.88 530.60-11.38Q529.72-9.88 529.72-7.96L529.72-7.96Q529.72-6.16 530.60-4.64Q531.48-3.12 532.98-2.22Q534.48-1.32 536.24-1.32L536.24-1.32Z M560.68-1.32Q563.20-1.32 565.24-3.04L565.24-3.04L566.20-1.68Q565.04-0.76 563.58-0.22Q562.12 0.32 560.64 0.32L560.64 0.32Q558.24 0.32 556.34-0.76Q554.44-1.84 553.38-3.70Q552.32-5.56 552.32-7.88L552.32-7.88Q552.32-10.12 553.44-12.02Q554.56-13.92 556.48-15.04Q558.40-16.16 560.68-16.16L560.68-16.16Q563.40-16.16 565.32-14.56Q567.24-12.96 568.12-10.24L568.12-10.24L554.76-5.08Q555.52-3.40 557.10-2.36Q558.68-1.32 560.68-1.32L560.68-1.32ZM560.56-14.56Q558.80-14.56 557.32-13.68Q555.84-12.80 555.00-11.30Q554.16-9.80 554.16-7.96L554.16-7.96Q554.16-7.12 554.32-6.48L554.32-6.48L565.84-11Q565.08-12.60 563.72-13.58Q562.36-14.56 560.56-14.56L560.56-14.56Z M575.60-28.16L577.36-28.16L577.36 9.32L575.60 9.32L575.60-28.16Z M602.24-28.40L618.16-28.40L618.16-26.52L604.20-26.52L604.20-14.80L616.56-14.80L616.56-12.96L604.20-12.96L604.20 0L602.24 0L602.24-28.40Z M645.56 0L643.28 0L635.84-12.08Q635.00-11.92 633.72-11.92L633.72-11.92L629.32-11.92L629.32 0L627.36 0L627.36-28.40L633.84-28.40Q636.08-28.40 638.14-27.52Q640.20-26.64 641.50-24.84Q642.80-23.04 642.80-20.36L642.80-20.36Q642.80-17.76 641.60-15.66Q640.40-13.56 637.88-12.60L637.88-12.60L645.56 0ZM633.60-13.80Q637.48-13.80 639.14-15.72Q640.80-17.64 640.80-20.28L640.80-20.28Q640.80-21.96 639.98-23.40Q639.16-24.84 637.64-25.68Q636.12-26.52 634.12-26.52L634.12-26.52L629.32-26.52L629.32-13.80L633.60-13.80Z"/></g>
</svg>
</g><g opacity="1" transform="rotate(0 98.2239 322.0005)">
<svg width="364.6896" height="60" x="98.2239" y="322.0005" version="1.1" preserveAspectRatio="none" viewBox="1.48 -26.16 162.24 26.68">
  <g transform="matrix(1 0 0 1 0 0)" class="companyName"><path id="id-D6z1nYkh7" d="M8-3.40Q8-2.12 8.32-1.54Q8.64-0.96 9.54-0.72Q10.44-0.48 12.44-0.48L12.44-0.48Q12.56-0.48 12.56-0.24Q12.56 0 12.44 0L12.44 0Q10.80 0 9.88-0.04L9.88-0.04L6.40-0.08L3.64-0.04Q2.88 0 1.56 0L1.56 0Q1.48 0 1.48-0.24Q1.48-0.48 1.56-0.48L1.56-0.48Q3-0.48 3.66-0.68Q4.32-0.88 4.56-1.46Q4.80-2.04 4.80-3.24L4.80-3.24L4.80-21.76Q4.80-22.96 4.56-23.52Q4.32-24.08 3.66-24.30Q3-24.52 1.56-24.52L1.56-24.52Q1.48-24.52 1.48-24.76Q1.48-25 1.56-25L1.56-25L3.64-24.96Q5.32-24.88 6.36-24.88L6.36-24.88Q7.32-24.88 8.64-25L8.64-25Q9.12-25 10.14-25.06Q11.16-25.12 11.92-25.12L11.92-25.12Q15.68-25.12 17.96-23.46Q20.24-21.80 20.24-18.44L20.24-18.44Q20.24-15.84 18.94-14.04Q17.64-12.24 15.62-11.36Q13.60-10.48 11.44-10.48L11.44-10.48Q10.28-10.48 9.52-10.68L9.52-10.68Q9.40-10.68 9.40-10.88L9.40-10.88Q9.40-11 9.46-11.12Q9.52-11.24 9.60-11.20L9.60-11.20Q10.24-11.04 11.04-11.04L11.04-11.04Q13.40-11.04 15.04-12.76Q16.68-14.48 16.68-17.72L16.68-17.72Q16.68-20.88 15.08-22.66Q13.48-24.44 10.84-24.44L10.84-24.44Q9.64-24.44 9.06-24.26Q8.48-24.08 8.24-23.50Q8-22.92 8-21.68L8-21.68L8-3.40Z M30.16-3.24Q30.16-2.04 30.40-1.46Q30.64-0.88 31.30-0.68Q31.96-0.48 33.40-0.48L33.40-0.48Q33.48-0.48 33.48-0.24Q33.48 0 33.40 0L33.40 0Q32.12 0 31.40-0.04L31.40-0.04L28.52-0.08L25.72-0.04Q24.96 0 23.64 0L23.64 0Q23.56 0 23.56-0.24Q23.56-0.48 23.64-0.48L23.64-0.48Q25.08-0.48 25.76-0.68Q26.44-0.88 26.68-1.46Q26.92-2.04 26.92-3.24L26.92-3.24L26.92-21.76Q26.92-22.96 26.68-23.52Q26.44-24.08 25.76-24.30Q25.08-24.52 23.64-24.52L23.64-24.52Q23.56-24.52 23.56-24.76Q23.56-25 23.64-25L23.64-25L25.72-24.96Q27.48-24.88 28.52-24.88L28.52-24.88Q29.68-24.88 31.44-24.96L31.44-24.96L33.40-25Q33.48-25 33.48-24.76Q33.48-24.52 33.40-24.52L33.40-24.52Q32-24.52 31.32-24.28Q30.64-24.04 30.40-23.46Q30.16-22.88 30.16-21.68L30.16-21.68L30.16-3.24Z M61.16-0.48Q61.28-0.48 61.28-0.24Q61.28 0 61.16 0L61.16 0L56.68 0L55.44 0.04Q54.88 0.04 54.58-0.12Q54.28-0.28 53.90-0.72Q53.52-1.16 52.64-2.36L52.64-2.36Q52.28-2.80 51.68-3.62Q51.08-4.44 50.04-5.80L50.04-5.80L44.24-13.32L43.04-12.16L43.04-3.24Q43.04-2.04 43.28-1.46Q43.52-0.88 44.18-0.68Q44.84-0.48 46.28-0.48L46.28-0.48Q46.40-0.48 46.40-0.24Q46.40 0 46.28 0L46.28 0Q45 0 44.28-0.04L44.28-0.04L41.44-0.08L38.64-0.04Q37.88 0 36.56 0L36.56 0Q36.48 0 36.48-0.24Q36.48-0.48 36.56-0.48L36.56-0.48Q38-0.48 38.68-0.68Q39.36-0.88 39.60-1.46Q39.84-2.04 39.84-3.24L39.84-3.24L39.84-21.76Q39.84-22.96 39.60-23.52Q39.36-24.08 38.70-24.30Q38.04-24.52 36.64-24.52L36.64-24.52Q36.52-24.52 36.52-24.76Q36.52-25 36.64-25L36.64-25L38.64-24.96Q40.40-24.88 41.44-24.88L41.44-24.88Q42.56-24.88 44.32-24.96L44.32-24.96L46.28-25Q46.36-25 46.36-24.76Q46.36-24.52 46.28-24.52L46.28-24.52Q44.88-24.52 44.20-24.28Q43.52-24.04 43.28-23.46Q43.04-22.88 43.04-21.68L43.04-21.68L43.04-13.20L51.24-21.48Q52.52-22.76 52.52-23.48L52.52-23.48Q52.52-24.52 50.16-24.52L50.16-24.52Q50.04-24.52 50.04-24.76Q50.04-25 50.16-25L50.16-25L51.92-24.96Q53.52-24.88 54.96-24.88L54.96-24.88Q56.40-24.88 57.92-24.96L57.92-24.96L59.52-25Q59.64-25 59.64-24.76Q59.64-24.52 59.52-24.52L59.52-24.52Q57.80-24.52 55.84-23.70Q53.88-22.88 52.24-21.24L52.24-21.24L46.48-15.52L52.28-7.96Q55.12-4.20 56.58-2.66Q58.04-1.12 58.86-0.80Q59.68-0.48 61.16-0.48L61.16-0.48Z M89.52-0.48Q89.68-0.48 89.68-0.24Q89.68 0 89.52 0L89.52 0Q88.76 0 87.08-0.08L87.08-0.08Q85.48-0.16 84.72-0.16L84.72-0.16Q83.80-0.16 82.44-0.08L82.44-0.08Q81.08 0 80.40 0L80.40 0Q80.24 0 80.24-0.24Q80.24-0.48 80.40-0.48L80.40-0.48Q81.76-0.48 82.36-0.74Q82.96-1 82.96-1.68L82.96-1.68Q82.96-2.36 82.36-3.56L82.36-3.56L77.88-12.84L70.52-12.84L67.24-5.28Q66.68-3.96 66.68-3.08L66.68-3.08Q66.68-0.48 70.56-0.48L70.56-0.48Q70.76-0.48 70.76-0.24Q70.76 0 70.56 0L70.56 0Q69.84 0 68.48-0.08L68.48-0.08Q66.96-0.16 65.84-0.16L65.84-0.16Q64.80-0.16 63.36-0.08L63.36-0.08Q62.08 0 61.28 0L61.28 0Q61.12 0 61.12-0.24Q61.12-0.48 61.28-0.48L61.28-0.48Q62.40-0.48 63.18-0.92Q63.96-1.36 64.68-2.44Q65.40-3.52 66.32-5.64L66.32-5.64L74.84-25.28Q74.88-25.40 75.12-25.42Q75.36-25.44 75.40-25.28L75.40-25.28L85.04-5.48Q86.40-2.56 87.36-1.52Q88.32-0.48 89.52-0.48L89.52-0.48ZM74-20.96L70.88-13.76L77.44-13.76L74-20.96Z M111.88-25Q111.96-25 111.96-24.76Q111.96-24.52 111.88-24.52L111.88-24.52Q110.52-24.52 108.94-23.30Q107.36-22.08 106.12-20.08L106.12-20.08L101.16-12.28L101.16-3.24Q101.16-2 101.38-1.44Q101.60-0.88 102.26-0.68Q102.92-0.48 104.36-0.48L104.36-0.48Q104.48-0.48 104.48-0.24Q104.48 0 104.36 0L104.36 0Q103.12 0 102.40-0.04L102.40-0.04L99.52-0.08L96.72-0.04Q96 0 94.68 0L94.68 0Q94.56 0 94.56-0.24Q94.56-0.48 94.68-0.48L94.68-0.48Q96.12-0.48 96.80-0.68Q97.48-0.88 97.72-1.46Q97.96-2.04 97.96-3.24L97.96-3.24L97.96-11.60L91.60-21.08Q90.32-23 89.34-23.76Q88.36-24.52 87.24-24.52L87.24-24.52Q87.12-24.52 87.12-24.76Q87.12-25 87.24-25L87.24-25Q87.68-25 88.64-24.92L88.64-24.92L89.96-24.88Q91.28-24.88 93.60-24.96L93.60-24.96L95.92-25Q96-25 96-24.76Q96-24.52 95.92-24.52L95.92-24.52Q94.04-24.52 94.04-23.56L94.04-23.56Q94.04-23.12 94.48-22.44L94.48-22.44L100.64-13.24L105.12-20.32Q106.08-21.88 106.08-22.88L106.08-22.88Q106.08-23.68 105.52-24.10Q104.96-24.52 103.88-24.52L103.88-24.52Q103.76-24.52 103.76-24.76Q103.76-25 103.88-25L103.88-25L105.84-24.96Q107.44-24.88 108.76-24.88L108.76-24.88Q109.44-24.88 110.40-24.96L110.40-24.96L111.88-25Z M134.56-20.36Q134.56-22.40 133.66-23.46Q132.76-24.52 131-24.52L131-24.52Q130.88-24.52 130.88-24.76Q130.88-25 131-25L131-25L132.80-24.96Q134.24-24.88 135.08-24.88L135.08-24.88Q135.80-24.88 137.16-24.96L137.16-24.96L138.88-25Q138.96-25 138.96-24.76Q138.96-24.52 138.88-24.52L138.88-24.52Q135.64-24.52 135.64-20.36L135.64-20.36L135.64-9.08Q135.64-4.60 133.02-2.04Q130.40 0.52 126.04 0.52L126.04 0.52Q123.08 0.52 120.84-0.62Q118.60-1.76 117.36-3.90Q116.12-6.04 116.12-8.92L116.12-8.92L116.12-21.76Q116.12-22.96 115.88-23.52Q115.64-24.08 114.98-24.30Q114.32-24.52 112.88-24.52L112.88-24.52Q112.76-24.52 112.76-24.76Q112.76-25 112.88-25L112.88-25L114.88-24.96Q116.64-24.88 117.68-24.88L117.68-24.88Q118.80-24.88 120.56-24.96L120.56-24.96L122.48-25Q122.60-25 122.60-24.76Q122.60-24.52 122.48-24.52L122.48-24.52Q121.08-24.52 120.42-24.28Q119.76-24.04 119.52-23.46Q119.28-22.88 119.28-21.68L119.28-21.68L119.28-10.32Q119.28-5.60 121.34-3.18Q123.40-0.76 127.12-0.76L127.12-0.76Q130.60-0.76 132.58-2.94Q134.56-5.12 134.56-9.04L134.56-9.04L134.56-20.36Z M147.64-24.20Q145.16-24.20 143.76-22.82Q142.36-21.44 141.68-18.40L141.68-18.40Q141.64-18.32 141.42-18.32Q141.20-18.32 141.20-18.40L141.20-18.40Q141.36-19.56 141.56-22.08Q141.76-24.60 141.76-25.88L141.76-25.88Q141.76-26.08 142-26.08Q142.24-26.08 142.24-25.88L142.24-25.88Q142.24-25 144.44-25L144.44-25Q147.84-24.88 152.48-24.88L152.48-24.88Q154.84-24.88 157.48-24.96L157.48-24.96L160.20-25Q161.68-25 162.36-25.20Q163.04-25.40 163.24-26L163.24-26Q163.28-26.16 163.50-26.16Q163.72-26.16 163.72-26L163.72-26Q163.60-24.88 163.46-22.40Q163.32-19.92 163.32-18.40L163.32-18.40Q163.32-18.32 163.10-18.32Q162.88-18.32 162.88-18.40L162.88-18.40Q162.60-21.48 161.28-22.84Q159.96-24.20 157.36-24.20L157.36-24.20Q155.88-24.20 155.24-24.02Q154.60-23.84 154.36-23.34Q154.12-22.84 154.12-21.68L154.12-21.68L154.12-3.24Q154.12-2 154.38-1.44Q154.64-0.88 155.40-0.68Q156.16-0.48 157.84-0.48L157.84-0.48Q157.92-0.48 157.92-0.24Q157.92 0 157.84 0L157.84 0Q156.44 0 155.64-0.04L155.64-0.04L152.48-0.08L149.40-0.04Q148.60 0 147.16 0L147.16 0Q147.04 0 147.04-0.24Q147.04-0.48 147.16-0.48L147.16-0.48Q148.80-0.48 149.56-0.68Q150.32-0.88 150.60-1.46Q150.88-2.04 150.88-3.24L150.88-3.24L150.88-21.76Q150.88-22.88 150.64-23.38Q150.40-23.88 149.76-24.04Q149.12-24.20 147.64-24.20L147.64-24.20Z"/></g>
</svg>
</g></svg></svg>