<svg version="1.1" preserveAspectRatio="none" xmlns="http://www.w3.org/2000/svg" width="500" height="500" viewBox="0 0 500 500"><rect width="100%" height="100%" fill="#FFFFFF" fill-opacity="1"/><svg viewBox="216.2691 337.2772 476.5635 213.8" width="333" height="149.39331274845853" x="83.5px" y="175.3033px" xmlns="http://www.w3.org/2000/svg" xmlns:xlink="http://www.w3.org/1999/xlink" preserveAspectRatio="none"><defs></defs><style>.aUPl23inifillColor {fill:#F7F7F7;fill-opacity:0;}.companyName {fill:#BC4823;fill-opacity:1;}.icon3-str {stroke:#4B689C;stroke-opacity:1;}.shapeStroke-str {stroke:#4B689C;stroke-opacity:1;}.text {fill:#9A7E5F;fill-opacity:1;}</style><g opacity="1" transform="rotate(0 216.2691 337.2772)">
<svg width="476.5635" height="213.8" x="216.2691" y="337.2772" version="1.1" preserveAspectRatio="none" viewBox="0 0 476.5635 213.8">
  <defs><rect x="4.8105" y="4.8105" width="466.9425" height="204.179" rx="0%" ry="0%" id="id-UPl23ini1676915627105"></rect></defs><use class="aUPl23inifillColor shapeStroke-str" style="stroke-width:9.621;" xlink:href="#id-UPl23ini1676915627105"></use>
</svg>
</g><g opacity="1" transform="rotate(0 246.2691 483.2772)">
<svg width="416.5635" height="37.8" x="246.2691" y="483.2772" version="1.1" preserveAspectRatio="none" viewBox="3.2031 -32.9102 494.8211 44.9024">
  <g transform="matrix(1 0 0 1 0 0)" class="text"><path id="id-6izo4zJp30" d="M22.62-11.39L22.62-11.39Q23.09-11.39 23.09-10.63Q23.09-9.88 22.75-8.05L22.75-8.05Q22.50-6.82 19.94-4.53L19.94-4.53Q16.86-1.80 13.16-0.63L13.16-0.63Q10.94 0.08 8.82 0.08Q6.70 0.08 4.95-1.71Q3.20-3.50 3.20-5.95Q3.20-8.40 4.19-11.03Q5.18-13.65 6.85-16.04Q8.52-18.44 10.79-20.64Q13.07-22.85 15.53-24.47Q17.99-26.09 20.68-27.05Q23.38-28.01 25.80-28.01L25.80-28.01Q27.71-28.01 29.06-26.62L29.06-26.62Q29.77-25.88 29.77-24.76Q29.77-23.63 28.67-21.92Q27.58-20.21 26.08-18.81Q24.59-17.40 23.00-16.43Q21.41-15.45 20.45-15.45Q19.49-15.45 18.81-16.04Q18.13-16.64 18.13-17.11Q18.13-17.58 18.33-18.14Q18.54-18.71 18.85-18.71L18.85-18.71Q18.77-18.61 18.77-18.52L18.77-18.52Q18.77-18.28 19.44-18.28Q20.12-18.28 21.70-19.47Q23.28-20.66 24.56-22.15Q25.84-23.63 25.84-24.38L25.84-24.38Q25.84-24.88 25.16-24.88L25.16-24.88Q23.32-24.88 20.09-23.17Q16.86-21.46 13.91-18.77Q10.96-16.07 8.78-12.37Q6.60-8.67 6.60-5.72L6.60-5.72Q6.60-4.49 7.26-3.75Q7.91-3.01 9.27-3.01Q10.63-3.01 12.48-3.79Q14.34-4.57 16.01-5.70Q17.68-6.84 19.16-8.03Q20.64-9.22 21.53-10.12Q22.42-11.02 22.44-11.20Q22.46-11.39 22.62-11.39Z M38.01-14.88Q38.59-14.88 39.21-14.36Q39.82-13.83 39.82-12.74Q39.82-11.66 39.06-9.93Q38.30-8.20 36.97-6.42Q35.64-4.63 34.05-3.06Q32.46-1.48 30.61-0.48Q28.77 0.53 27.26 0.53Q25.76 0.53 24.85-0.42Q23.94-1.37 23.94-3.06Q23.94-4.75 24.77-6.80Q25.60-8.85 26.91-10.42Q28.22-11.99 29.75-13.24L29.75-13.24Q32.93-15.80 35.33-15.80L35.33-15.80Q36.41-15.80 36.95-15.27L36.95-15.27Q37.15-15.10 37.15-14.96L37.15-14.96L37.15-14.84Q37.42-14.88 38.01-14.88ZM36.03-12.29L36.03-12.29L35.90-12.29Q35.21-12.29 35.21-13.28L35.21-13.28Q33.79-12.81 32.23-11.64Q30.66-10.47 29.43-8.87L29.43-8.87Q26.93-5.66 26.89-3.46L26.89-3.46Q26.89-2.36 27.69-2.36Q28.50-2.36 30.08-3.42Q31.66-4.47 33.21-6.43Q34.76-8.38 35.54-9.81Q36.31-11.25 36.31-11.77Q36.31-12.29 36.03-12.29Z M40.19 0.12L40.19 0.12L39.24 0.08L38.89 0.08Q38.69 0.02 38.47-0.16Q38.24-0.33 38.12-0.41Q38.01-0.49 38.01-0.69Q38.01-0.90 38.16-1.41L38.16-1.41Q41.97-9.79 45.53-14.80L45.53-14.80Q45.92-15.35 46.79-15.63Q47.65-15.92 48.47-15.92L48.47-15.92Q48.96-15.92 48.96-15.16L48.96-15.16Q48.96-14.94 48.81-14.58Q48.65-14.22 48.03-13.40Q47.40-12.58 46.54-11.52Q45.68-10.47 45.56-10.31L45.56-10.31Q48.24-13.09 50.40-14.44Q52.56-15.80 53.52-15.80Q54.49-15.80 55.01-15.24Q55.53-14.69 55.53-14.05Q55.53-13.42 55.44-13.00Q55.35-12.58 55.12-12.12Q54.88-11.66 54.72-11.34Q54.55-11.02 54.16-10.50Q53.77-9.98 53.62-9.79Q53.47-9.59 53.02-9.04Q52.56-8.50 52.52-8.44L52.52-8.44Q53.06-8.98 54.04-10.06Q55.02-11.13 55.69-11.86Q56.37-12.58 57.38-13.49Q58.40-14.39 59.28-14.96L59.28-14.96Q61.39-16.29 63.55-16.29L63.55-16.29Q64.30-16.29 64.80-15.82Q65.31-15.35 65.31-14.70Q65.31-14.04 63.73-11.57Q62.15-9.10 60.57-6.61Q59.00-4.12 59.00-3.48L59.00-3.48Q59.00-2.58 59.33-2.41Q59.67-2.25 60.14-2.29Q60.60-2.32 61.45-2.89Q62.30-3.46 62.97-4.06L62.97-4.06Q64.04-5.04 64.96-5.96L64.96-5.96Q65.15-6.13 65.39-6.13L65.39-6.13Q65.76-6.13 65.84-5.57Q65.92-5 65.92-4.39Q65.92-3.79 65.80-3.55L65.80-3.55Q65.23-2.46 63.30-0.88Q61.37 0.70 59.59 0.70L59.59 0.70Q59.37 0.70 59.28 0.68L59.28 0.68Q57.26 0.49 56.49-0.42Q55.72-1.33 55.72-2.58Q55.72-3.83 56.57-5.61Q57.42-7.38 58.44-8.83Q59.45-10.27 60.30-11.44Q61.15-12.60 61.15-12.70Q61.15-12.79 60.99-12.79L60.99-12.79Q60.39-12.79 58.30-10.84L58.30-10.84Q54.72-7.50 52.13-4.39L52.13-4.39Q51.44-3.57 48.89-0.23L48.89-0.23Q48.59 0.16 47.96 0.16Q47.32 0.16 46.64-0.09Q45.96-0.33 45.96-0.72L45.96-0.72Q45.96-0.92 49.06-6.20Q52.17-11.48 52.17-11.96Q52.17-12.44 51.59-12.44Q51.01-12.44 49.22-10.72L49.22-10.72Q44.28-6.00 41.56-1.33L41.56-1.33Q41.39-1.05 40.88-0.47Q40.37 0.12 40.19 0.12Z M65.33 0.12L65.33 0.12L64.37 0.08L64.02 0.08Q63.83 0.02 63.60-0.16Q63.38-0.33 63.26-0.41Q63.14-0.49 63.14-0.69Q63.14-0.90 63.30-1.41L63.30-1.41Q67.11-9.79 70.66-14.80L70.66-14.80Q71.05-15.35 71.92-15.63Q72.79-15.92 73.61-15.92L73.61-15.92Q74.10-15.92 74.10-15.16L74.10-15.16Q74.10-14.94 73.94-14.58Q73.79-14.22 73.16-13.40Q72.54-12.58 71.68-11.52Q70.82-10.47 70.70-10.31L70.70-10.31Q73.38-13.09 75.53-14.44Q77.69-15.80 78.66-15.80Q79.63-15.80 80.14-15.24Q80.66-14.69 80.66-14.05Q80.66-13.42 80.57-13.00Q80.49-12.58 80.25-12.12Q80.02-11.66 79.85-11.34Q79.69-11.02 79.29-10.50Q78.90-9.98 78.76-9.79Q78.61-9.59 78.15-9.04Q77.69-8.50 77.65-8.44L77.65-8.44Q78.20-8.98 79.18-10.06Q80.15-11.13 80.83-11.86Q81.50-12.58 82.52-13.49Q83.53-14.39 84.41-14.96L84.41-14.96Q86.52-16.29 88.69-16.29L88.69-16.29Q89.43-16.29 89.94-15.82Q90.45-15.35 90.45-14.70Q90.45-14.04 88.86-11.57Q87.28-9.10 85.71-6.61Q84.14-4.12 84.14-3.48L84.14-3.48Q84.14-2.58 84.47-2.41Q84.80-2.25 85.27-2.29Q85.74-2.32 86.59-2.89Q87.44-3.46 88.10-4.06L88.10-4.06Q89.18-5.04 90.10-5.96L90.10-5.96Q90.29-6.13 90.52-6.13L90.52-6.13Q90.90-6.13 90.97-5.57Q91.05-5 91.05-4.39Q91.05-3.79 90.94-3.55L90.94-3.55Q90.37-2.46 88.44-0.88Q86.50 0.70 84.72 0.70L84.72 0.70Q84.51 0.70 84.41 0.68L84.41 0.68Q82.40 0.49 81.63-0.42Q80.86-1.33 80.86-2.58Q80.86-3.83 81.71-5.61Q82.56-7.38 83.57-8.83Q84.59-10.27 85.44-11.44Q86.29-12.60 86.29-12.70Q86.29-12.79 86.13-12.79L86.13-12.79Q85.52-12.79 83.44-10.84L83.44-10.84Q79.86-7.50 77.26-4.39L77.26-4.39Q76.58-3.57 74.02-0.23L74.02-0.23Q73.73 0.16 73.09 0.16Q72.46 0.16 71.77-0.09Q71.09-0.33 71.09-0.72L71.09-0.72Q71.09-0.92 74.20-6.20Q77.30-11.48 77.30-11.96Q77.30-12.44 76.73-12.44Q76.15-12.44 74.35-10.72L74.35-10.72Q69.41-6.00 66.70-1.33L66.70-1.33Q66.52-1.05 66.01-0.47Q65.51 0.12 65.33 0.12Z M107.01-6.13L107.01-6.13Q107.38-6.13 107.46-5.57Q107.54-5 107.54-4.39Q107.54-3.79 107.42-3.55L107.42-3.55Q106.85-2.46 104.94-0.89Q103.02 0.68 101.31 0.68L101.31 0.68Q100.25 0.68 99.35 0.05Q98.45-0.59 98.45-2.17Q98.45-3.75 99.29-5.27L99.29-5.27Q94.45 0.80 91.70 0.80L91.70 0.80Q90.60 0.80 89.93 0.02Q89.25-0.76 89.25-1.59Q89.25-2.42 89.49-3.31Q89.72-4.20 89.99-4.90Q90.25-5.61 90.77-6.64Q91.29-7.68 91.54-8.14Q91.79-8.61 92.35-9.56Q92.91-10.51 93.82-12.11Q94.72-13.71 95.32-14.48Q95.91-15.25 96.48-15.26Q97.05-15.27 97.48-14.80Q97.91-14.34 97.91-14.04Q97.91-13.75 96.60-11.41L96.60-11.41Q92.73-4.41 92.73-3.26L92.73-3.26Q92.73-2.97 92.95-2.97L92.95-2.97Q93.88-2.97 97.61-7.03Q101.34-11.09 101.93-12.24Q102.52-13.38 103.07-14.16Q103.63-14.94 103.90-15.12L103.90-15.12Q104.74-15.66 106.07-15.70L106.07-15.70Q106.29-15.70 106.40-15.68Q106.52-15.66 106.68-15.35Q106.83-15.04 106.83-14.86L106.83-14.86Q106.66-14.32 105.28-11.95Q103.90-9.59 103.75-9.28L103.75-9.28Q101.44-4.51 101.44-3.07L101.44-3.07Q101.44-2.25 102.07-2.25L102.07-2.25Q103.20-2.40 104.80-4.06L104.80-4.06Q105.39-4.67 105.96-5.29Q106.54-5.92 106.68-6.03Q106.81-6.13 107.01-6.13Z M117.28-3.01L117.28-3.01Q117.28-2.15 118.45-2.15L118.45-2.15Q119.08-2.15 120.03-2.77Q120.97-3.40 121.73-4.14L121.73-4.14Q123.77-6.15 124.04-6.15L124.04-6.15Q124.55-6.15 124.55-4.69Q124.55-3.22 123.63-2.68L123.63-2.68Q120.84-0.16 119.31 0.39L119.31 0.39Q118.45 0.68 117.42 0.66Q116.38 0.64 115.37-0.23Q114.35-1.11 114.35-2.37Q114.35-3.63 115.02-5.23Q115.68-6.84 116.37-7.98Q117.07-9.12 118.08-10.63Q119.10-12.15 119.16-12.52L119.16-12.52L119.12-12.56Q118.47-12.50 115.92-10.02Q113.37-7.54 111.71-5.70Q110.05-3.87 107.75-0.80L107.75-0.80Q107.11 0.04 106.70 0.04Q106.29 0.04 105.59-0.22Q104.90-0.49 104.74-0.61Q104.59-0.72 104.59-0.96Q104.59-1.19 104.72-1.53Q104.86-1.88 104.99-2.10Q105.11-2.32 105.41-2.79Q105.70-3.26 106.57-4.78Q107.44-6.29 109.23-9.30Q111.03-12.30 111.38-12.93L111.38-12.93Q112.12-14.22 112.59-14.80L112.59-14.80Q113.47-15.92 115.56-15.92L115.56-15.92Q116.03-15.92 116.03-15.33L116.03-15.33Q116.03-14.41 114.33-11.88L114.33-11.88L113.51-10.64Q116.89-14.39 119.21-15.39L119.21-15.39Q120.35-15.88 121.26-15.88Q122.16-15.88 122.70-15.39Q123.24-14.90 123.24-14.31Q123.24-13.71 122.83-12.88Q122.42-12.05 122.00-11.40Q121.58-10.74 120.89-9.75Q120.21-8.75 120.15-8.66Q120.09-8.57 119.85-8.19Q119.61-7.81 119.49-7.64Q119.37-7.46 119.10-7.02Q118.82-6.58 118.66-6.29Q118.49-6.00 118.25-5.57Q118.00-5.14 117.86-4.82Q117.71-4.51 117.55-4.14L117.55-4.14Q117.28-3.46 117.28-3.01Z M136.23-21.45L136.23-21.45Q136.23-20.33 135.19-19.21Q134.16-18.09 133.03-18.09Q131.91-18.09 131.91-19.26Q131.91-20.43 132.90-21.49Q133.88-22.56 135.07-22.56L135.07-22.56Q135.60-22.56 135.91-22.27Q136.23-21.97 136.23-21.45ZM133.06-4.39L133.06-4.39Q133.06-3.81 132.94-3.55L132.94-3.55Q131.99-1.60 129.90-0.40Q127.81 0.80 126.26 0.80Q124.72 0.80 123.61-0.23Q122.50-1.27 122.50-2.34Q122.50-3.42 123.57-5.47Q124.64-7.52 125.72-9.26Q126.79-11.00 126.79-11.14Q126.79-11.29 126.39-11.72Q125.99-12.15 125.99-12.35Q125.99-12.56 126.80-13.43Q127.61-14.30 128.77-15.15Q129.94-16.00 130.55-16.00Q131.17-16.00 131.66-15.45Q132.14-14.90 132.14-14.45Q132.14-14.00 127.50-6.00L127.50-6.00Q127.44-5.88 127.17-5.48Q126.91-5.08 126.76-4.81Q126.62-4.55 126.42-4.18L126.42-4.18Q126.03-3.40 126.03-2.87L126.03-2.87Q126.03-2.21 126.93-2.21Q127.83-2.21 128.79-2.82Q129.76-3.44 130.46-4.18L130.46-4.18Q132.30-6.15 132.55-6.15L132.55-6.15Q133.06-6.15 133.06-4.39Z M144.94-25.04L145.85-25.16L146.65-24.96Q146.83-24.96 146.97-24.79Q147.10-24.61 147.10-24.45Q147.10-24.30 146.69-23.61Q146.28-22.93 145.73-22.06Q145.17-21.19 145.13-21.11L145.13-21.11Q146.65-21.23 147.29-21.23Q147.92-21.23 148.16-21.14Q148.39-21.05 148.70-20.65Q149.00-20.25 149.25-20.05Q149.51-19.84 149.51-19.43Q149.51-19.02 149.01-18.74Q148.51-18.46 147.94-18.40L147.94-18.40Q143.41-17.95 142.94-17.93L142.94-17.93Q141.36-15.51 138.52-10.38Q135.68-5.25 135.50-3.96L135.50-3.96Q135.42-3.38 135.42-3.01L135.42-3.01Q135.42-2.25 136.22-2.25Q137.03-2.25 138.00-2.86Q138.98-3.48 139.80-4.20L139.80-4.20Q141.99-6.15 142.14-6.15L142.14-6.15Q142.65-6.15 142.65-4.39L142.65-4.39Q142.65-3.44 141.77-2.68L141.77-2.68Q139.80-0.98 138.45-0.12Q137.10 0.74 135.76 0.74L135.76 0.74Q135.46 0.74 135.21 0.68L135.21 0.68Q133.65 0.39 132.91-0.46Q132.18-1.31 132.19-2.75Q132.20-4.20 133.05-6.26Q133.90-8.32 135.19-10.64L135.19-10.64Q137.30-14.43 139.41-17.75L139.41-17.75L138.67-17.66Q136.40-17.40 136.03-17.40L136.03-17.40L135.85-17.40Q135.29-17.40 134.76-17.63Q134.23-17.85 134.23-18.18Q134.23-18.52 134.52-18.83Q134.80-19.14 134.86-19.32L134.86-19.32Q134.99-19.75 135.88-20.27Q136.77-20.80 137.22-20.83Q137.67-20.86 138.09-20.88Q138.51-20.90 139.03-20.92Q139.55-20.94 139.82-20.96L139.82-20.96L141.58-21.04Q143.22-23.50 143.83-24.20Q144.45-24.90 144.55-24.97Q144.64-25.04 144.94-25.04L144.94-25.04Z M147.73 6.48L147.73 6.48Q147.63 6.58 147.13 7.47Q146.63 8.36 146.07 9.27Q145.50 10.18 144.67 11.00Q143.84 11.82 143.28 11.88Q142.73 11.95 142.57 11.95L142.57 11.95Q140.78 11.95 140.78 10.14L140.78 10.14Q140.78 8.01 142.98 5.16L142.98 5.16Q143.82 4.08 145.09 2.84Q146.36 1.60 146.48 1.44Q146.60 1.27 149.41-4.04L149.41-4.04Q147.53-1.99 145.93-0.71Q144.33 0.57 142.85 0.72L142.85 0.72L142.71 0.72Q141.95 0.72 141.20 0.22Q140.46-0.27 140.46-1.52L140.46-1.52Q140.46-3.38 141.46-5.12L141.46-5.12Q141.81-5.72 142.68-7.17Q143.55-8.61 144.29-9.96L144.29-9.96Q144.99-11.04 145.74-12.46Q146.48-13.89 146.87-14.50Q147.26-15.12 147.61-15.12Q147.96-15.12 148.52-14.68Q149.08-14.24 149.08-13.63Q149.08-13.03 146.52-8.38Q143.96-3.73 143.96-3.09L143.96-3.09Q143.96-2.93 144.11-2.93L144.11-2.93Q144.64-2.93 146.45-4.42Q148.26-5.92 150.44-8.26L150.44-8.26Q152.88-10.86 154.27-13.01L154.27-13.01Q154.45-13.28 154.55-13.43Q154.66-13.57 154.83-13.82Q154.99-14.06 155.10-14.20Q155.21-14.34 155.36-14.52Q155.50-14.71 155.62-14.80Q155.74-14.90 155.87-15L155.87-15Q156.09-15.20 156.35-15.20Q156.61-15.20 157.15-15.08Q157.69-14.96 157.80-14.82Q157.90-14.69 158.02-14.57L158.02-14.57Q158.22-14.36 158.22-14.17Q158.22-13.98 158.06-13.68Q157.90-13.38 156.24-10.59L156.24-10.59Q151.36-2.34 149.53 1.45L149.53 1.45Q152.49-1.05 157.88-5.96L157.88-5.96Q158.10-6.13 158.31-6.13L158.31-6.13Q158.92-6.13 158.92-4.28L158.92-4.28Q158.92-3.73 158.72-3.55L158.72-3.55Q152.88 0.94 147.73 6.48Z M186.98-32.91L188.06-32.85L188.90-32.87Q189.31-32.87 189.31-32.56L189.31-32.56Q189.31-32.48 188.04-30.22Q186.77-27.97 179.91-15.15Q173.06-2.32 170.01 3.77L170.01 3.77Q169.80 4.24 169.48 4.38L169.48 4.38Q168.61 4.79 168.21 4.79L168.21 4.79L167.73 4.94Q167.61 4.94 167.29 4.82Q166.96 4.71 166.94 4.60Q166.91 4.49 166.91 4.11Q166.91 3.73 166.93 3.67L166.93 3.67Q167.32 1.93 176.41-14.95Q185.50-31.84 186.50-32.71L186.50-32.71Q186.67-32.91 186.98-32.91L186.98-32.91Z M215.21-24.28L215.21-24.28Q215.21-23.28 213.94-21.88Q212.67-20.47 210.80-19.20Q208.94-17.93 207.10-17.19L207.10-17.19Q207.51-17.32 207.94-17.32L207.94-17.32Q209.39-17.32 209.85-16.80L209.85-16.80Q209.97-16.68 209.97-16.52Q209.97-16.37 209.44-15.76L209.44-15.76Q203.96-9.41 199.37-3.16L199.37-3.16Q201.24-4.63 202.69-5.96L202.69-5.96Q203.49-6.68 204.64-6.68L204.64-6.68Q205.48-6.68 205.68-6.46Q205.87-6.25 205.87-6.10Q205.87-5.96 205.62-5.76L205.62-5.76Q202.35-2.91 194.97 2.56L194.97 2.56Q193.70 3.98 188.57 9.36L188.57 9.36Q187.65 10.29 186.53 10.29L186.53 10.29Q184.37 10.29 184.37 9.08L184.37 9.08Q184.37 8.55 185.21 7.40L185.21 7.40Q186.42 5.63 191.12 2.03L191.12 2.03Q192.16 0.88 194.70-1.88L194.70-1.88Q199.50-7.11 200.50-8.59L200.50-8.59Q197.84-6.07 196.48-5.04Q195.11-4.00 193.95-3.24Q192.78-2.48 191.81-2.01L191.81-2.01Q187.08 0.25 185.07-1.99L185.07-1.99Q184.05-3.11 184.05-5.26Q184.05-7.42 185.25-10.02Q186.44-12.62 188.43-15.15Q190.42-17.68 193.16-20.08Q195.89-22.48 198.84-24.30Q201.79-26.11 205.05-27.22Q208.31-28.32 211.20-28.32L211.20-28.32Q212.20-28.32 213.08-27.99Q213.96-27.66 214.33-27.29L214.33-27.29Q215.21-26.41 215.21-24.28ZM203.92-20.20L203.92-20.20L203.82-19.80Q203.82-19.47 204.27-19.47L204.27-19.47Q205.46-19.47 207.53-20.63Q209.60-21.78 210.87-22.99Q212.14-24.20 212.14-25L212.14-25Q212.14-25.68 210.93-25.68L210.93-25.68Q208.78-25.68 206.09-24.63Q203.41-23.57 200.85-21.89Q198.29-20.21 195.81-18.04Q193.33-15.86 191.49-13.68Q189.64-11.50 188.51-9.41Q187.37-7.32 187.37-5.84L187.37-5.84Q187.37-5.25 187.72-4.80Q188.06-4.36 188.72-4.36L188.72-4.36Q190.77-4.36 195.33-7.50Q199.89-10.64 205.81-16.07L205.81-16.07Q205.89-16.15 206.09-16.37L206.09-16.37Q206.51-16.89 206.96-17.13L206.96-17.13Q205.36-16.48 204.35-16.48Q203.33-16.48 202.67-16.93Q202.00-17.38 202.00-18.15Q202.00-18.93 202.69-19.61Q203.37-20.29 203.64-20.29Q203.92-20.29 203.92-20.20Z M224.11-14.84L224.11-14.84Q225.60-14.84 225.60-13.83L225.60-13.83Q225.60-13.28 225.34-13.03Q225.09-12.77 224.26-11.34Q223.43-9.90 222.42-7.67Q221.42-5.43 221.12-3.85L221.12-3.85Q221.06-3.65 221.06-3.30L221.06-3.30Q221.06-2.23 221.65-2.23Q222.24-2.23 223.04-2.78Q223.84-3.34 224.46-3.97Q225.09-4.61 225.68-5.27Q226.28-5.94 226.40-6.04Q226.51-6.13 226.75-6.13L226.75-6.13Q227.12-6.13 227.20-5.57Q227.28-5 227.28-4.39Q227.28-3.79 227.16-3.55L227.16-3.55Q226.59-2.44 224.67-0.88Q222.74 0.68 221.17 0.68Q219.60 0.68 218.86-0.27Q218.12-1.23 218.12-2.39Q218.12-3.55 218.51-4.43L218.51-4.43Q216.89-2.32 214.79-0.86Q212.69 0.61 211.36 0.61Q210.03 0.61 209.19-0.20L209.19-0.20Q208.12-1.19 208.12-2.96Q208.12-4.73 208.91-6.51Q209.70-8.30 210.99-9.78Q212.28-11.25 213.82-12.46L213.82-12.46Q217.06-15 219.80-15L219.80-15Q220.85-15 221.51-14.65Q222.18-14.30 222.35-13.77L222.35-13.77Q222.82-14.47 223.14-14.66Q223.47-14.84 224.11-14.84ZM221.51-12.68L221.51-12.68Q218.17-12.68 214.60-8.96L214.60-8.96Q213.33-7.64 212.27-5.78Q211.20-3.93 211.20-3.24Q211.20-2.56 211.59-2.56L211.59-2.56Q212.14-2.56 214.64-4.72Q217.14-6.88 217.96-7.89L217.96-7.89Q218.86-9.02 221.51-12.68Z M226.30 0.12L226.30 0.12L225.34 0.08L224.99 0.08Q224.79 0.02 224.57-0.16Q224.35-0.33 224.23-0.41Q224.11-0.49 224.11-0.69Q224.11-0.90 224.27-1.41L224.27-1.41Q228.08-9.79 231.63-14.80L231.63-14.80Q232.02-15.35 232.89-15.63Q233.76-15.92 234.58-15.92L234.58-15.92Q235.07-15.92 235.07-15.16L235.07-15.16Q235.07-14.94 234.91-14.58Q234.76-14.22 234.13-13.40Q233.51-12.58 232.65-11.52Q231.79-10.47 231.67-10.31L231.67-10.31Q234.35-13.09 236.50-14.44Q238.66-15.80 239.63-15.80Q240.60-15.80 241.11-15.24Q241.63-14.69 241.63-14.05Q241.63-13.42 241.54-13.00Q241.45-12.58 241.22-12.12Q240.99-11.66 240.82-11.34Q240.65-11.02 240.26-10.50Q239.87-9.98 239.73-9.79Q239.58-9.59 239.12-9.04Q238.66-8.50 238.62-8.44L238.62-8.44Q239.17-8.98 240.15-10.06Q241.12-11.13 241.80-11.86Q242.47-12.58 243.49-13.49Q244.50-14.39 245.38-14.96L245.38-14.96Q247.49-16.29 249.66-16.29L249.66-16.29Q250.40-16.29 250.91-15.82Q251.42-15.35 251.42-14.70Q251.42-14.04 249.83-11.57Q248.25-9.10 246.68-6.61Q245.11-4.12 245.11-3.48L245.11-3.48Q245.11-2.58 245.44-2.41Q245.77-2.25 246.24-2.29Q246.71-2.32 247.56-2.89Q248.41-3.46 249.07-4.06L249.07-4.06Q250.15-5.04 251.06-5.96L251.06-5.96Q251.26-6.13 251.49-6.13L251.49-6.13Q251.86-6.13 251.94-5.57Q252.02-5 252.02-4.39Q252.02-3.79 251.90-3.55L251.90-3.55Q251.34-2.46 249.40-0.88Q247.47 0.70 245.69 0.70L245.69 0.70Q245.48 0.70 245.38 0.68L245.38 0.68Q243.37 0.49 242.60-0.42Q241.83-1.33 241.83-2.58Q241.83-3.83 242.68-5.61Q243.53-7.38 244.54-8.83Q245.56-10.27 246.41-11.44Q247.26-12.60 247.26-12.70Q247.26-12.79 247.10-12.79L247.10-12.79Q246.49-12.79 244.40-10.84L244.40-10.84Q240.83-7.50 238.23-4.39L238.23-4.39Q237.55-3.57 234.99-0.23L234.99-0.23Q234.70 0.16 234.06 0.16Q233.43 0.16 232.74-0.09Q232.06-0.33 232.06-0.72L232.06-0.72Q232.06-0.92 235.17-6.20Q238.27-11.48 238.27-11.96Q238.27-12.44 237.69-12.44Q237.12-12.44 235.32-10.72L235.32-10.72Q230.38-6.00 227.67-1.33L227.67-1.33Q227.49-1.05 226.98-0.47Q226.47 0.12 226.30 0.12Z M264.15-21.45L264.15-21.45Q264.15-20.33 263.11-19.21Q262.08-18.09 260.96-18.09Q259.83-18.09 259.83-19.26Q259.83-20.43 260.82-21.49Q261.81-22.56 263.00-22.56L263.00-22.56Q263.52-22.56 263.84-22.27Q264.15-21.97 264.15-21.45ZM260.99-4.39L260.99-4.39Q260.99-3.81 260.87-3.55L260.87-3.55Q259.91-1.60 257.82-0.40Q255.73 0.80 254.19 0.80Q252.65 0.80 251.53-0.23Q250.42-1.27 250.42-2.34Q250.42-3.42 251.49-5.47Q252.57-7.52 253.64-9.26Q254.72-11.00 254.72-11.14Q254.72-11.29 254.32-11.72Q253.91-12.15 253.91-12.35Q253.91-12.56 254.73-13.43Q255.54-14.30 256.70-15.15Q257.86-16.00 258.48-16.00Q259.09-16.00 259.58-15.45Q260.07-14.90 260.07-14.45Q260.07-14.00 255.42-6.00L255.42-6.00Q255.36-5.88 255.10-5.48Q254.83-5.08 254.69-4.81Q254.54-4.55 254.34-4.18L254.34-4.18Q253.95-3.40 253.95-2.87L253.95-2.87Q253.95-2.21 254.85-2.21Q255.75-2.21 256.72-2.82Q257.68-3.44 258.39-4.18L258.39-4.18Q260.22-6.15 260.48-6.15L260.48-6.15Q260.99-6.15 260.99-4.39Z M270.54-3.01L270.54-3.01Q270.54-2.15 271.71-2.15L271.71-2.15Q272.33-2.15 273.28-2.77Q274.23-3.40 274.99-4.14L274.99-4.14Q277.02-6.15 277.29-6.15L277.29-6.15Q277.80-6.15 277.80-4.69Q277.80-3.22 276.88-2.68L276.88-2.68Q274.09-0.16 272.57 0.39L272.57 0.39Q271.71 0.68 270.67 0.66Q269.64 0.64 268.62-0.23Q267.61-1.11 267.61-2.37Q267.61-3.63 268.27-5.23Q268.93-6.84 269.63-7.98Q270.32-9.12 271.34-10.63Q272.35-12.15 272.41-12.52L272.41-12.52L272.37-12.56Q271.73-12.50 269.18-10.02Q266.63-7.54 264.97-5.70Q263.31-3.87 261.00-0.80L261.00-0.80Q260.36 0.04 259.95 0.04Q259.54 0.04 258.85-0.22Q258.15-0.49 258.00-0.61Q257.84-0.72 257.84-0.96Q257.84-1.19 257.98-1.53Q258.11-1.88 258.24-2.10Q258.37-2.32 258.66-2.79Q258.95-3.26 259.82-4.78Q260.69-6.29 262.49-9.30Q264.29-12.30 264.64-12.93L264.64-12.93Q265.38-14.22 265.85-14.80L265.85-14.80Q266.73-15.92 268.82-15.92L268.82-15.92Q269.29-15.92 269.29-15.33L269.29-15.33Q269.29-14.41 267.59-11.88L267.59-11.88L266.77-10.64Q270.14-14.39 272.47-15.39L272.47-15.39Q273.60-15.88 274.51-15.88Q275.42-15.88 275.96-15.39Q276.49-14.90 276.49-14.31Q276.49-13.71 276.08-12.88Q275.67-12.05 275.25-11.40Q274.83-10.74 274.15-9.75Q273.46-8.75 273.41-8.66Q273.35-8.57 273.10-8.19Q272.86-7.81 272.74-7.64Q272.63-7.46 272.35-7.02Q272.08-6.58 271.91-6.29Q271.75-6.00 271.50-5.57Q271.26-5.14 271.11-4.82Q270.96-4.51 270.81-4.14L270.81-4.14Q270.54-3.46 270.54-3.01Z M282.85-12.98Q284.73-14.28 286.55-14.98Q288.37-15.68 289.69-15.68Q291.02-15.68 291.39-14.92L291.39-14.92Q292.16-15.80 293.29-15.86L293.29-15.86Q293.62-15.88 294.11-15.88Q294.60-15.88 294.71-15.75Q294.83-15.63 294.93-15.27Q295.03-14.92 295.05-14.88Q295.07-14.84 295.07-14.76Q295.07-14.67 294.97-14.54Q294.87-14.41 294.74-14.30Q294.62-14.18 294.60-14.16L294.60-14.16Q290.28-7.97 285.77-0.04L285.77-0.04Q290.42-4.16 294.09-5.96L294.09-5.96Q294.32-6.07 294.54-6.07L294.54-6.07Q294.85-6.07 294.95-5.67Q295.05-5.27 295.05-4.53Q295.05-3.79 294.96-3.61Q294.87-3.44 294.05-2.91Q293.23-2.38 291.92-1.54Q290.61-0.70 289.15 0.31L289.15 0.31Q285.63 2.75 283.37 5.45L283.37 5.45Q280.44 8.98 279.17 11.15L279.17 11.15Q278.70 11.99 277.59 11.99L277.59 11.99Q275.38 11.99 275.38 9.90L275.38 9.90Q275.38 7.77 277.47 5.55L277.47 5.55Q279.03 3.89 280.34 2.83Q281.65 1.78 281.76 1.64L281.76 1.64Q283.21-0.53 285.69-4.51L285.69-4.51Q283.58-2.30 281.60-1.00Q279.62 0.31 278.64 0.31L278.64 0.31Q275.65 0.31 275.65-2.25L275.65-2.25Q275.65-4.28 276.69-6.35Q277.72-8.42 279.34-10.05Q280.96-11.68 282.85-12.98ZM290.28-13.48L290.28-13.48Q288.01-12.99 286.02-11.87Q284.03-10.74 282.74-9.46Q281.45-8.18 280.51-6.84L280.51-6.84Q278.76-4.32 278.76-2.93L278.76-2.93Q278.76-2.60 278.92-2.60Q279.09-2.60 279.67-2.95Q280.24-3.30 281.30-4.15Q282.35-5 283.64-6.17L283.64-6.17Q286.63-8.93 290.28-13.48Z M318.31-14.84L318.31-14.84Q319.79-14.84 319.79-13.83L319.79-13.83Q319.79-13.28 319.54-13.03Q319.28-12.77 318.45-11.34Q317.62-9.90 316.62-7.67Q315.61-5.43 315.32-3.85L315.32-3.85Q315.26-3.65 315.26-3.30L315.26-3.30Q315.26-2.23 315.85-2.23Q316.43-2.23 317.23-2.78Q318.03-3.34 318.66-3.97Q319.28-4.61 319.88-5.27Q320.47-5.94 320.59-6.04Q320.71-6.13 320.94-6.13L320.94-6.13Q321.31-6.13 321.39-5.57Q321.47-5 321.47-4.39Q321.47-3.79 321.35-3.55L321.35-3.55Q320.79-2.44 318.86-0.88Q316.94 0.68 315.37 0.68Q313.79 0.68 313.05-0.27Q312.31-1.23 312.31-2.39Q312.31-3.55 312.70-4.43L312.70-4.43Q311.08-2.32 308.98-0.86Q306.88 0.61 305.55 0.61Q304.22 0.61 303.38-0.20L303.38-0.20Q302.31-1.19 302.31-2.96Q302.31-4.73 303.10-6.51Q303.89-8.30 305.18-9.78Q306.47-11.25 308.01-12.46L308.01-12.46Q311.26-15 313.99-15L313.99-15Q315.04-15 315.71-14.65Q316.37-14.30 316.55-13.77L316.55-13.77Q317.02-14.47 317.34-14.66Q317.66-14.84 318.31-14.84ZM315.71-12.68L315.71-12.68Q312.37-12.68 308.79-8.96L308.79-8.96Q307.53-7.64 306.46-5.78Q305.40-3.93 305.40-3.24Q305.40-2.56 305.79-2.56L305.79-2.56Q306.33-2.56 308.83-4.72Q311.33-6.88 312.15-7.89L312.15-7.89Q313.05-9.02 315.71-12.68Z M330.69-3.01L330.69-3.01Q330.69-2.15 331.86-2.15L331.86-2.15Q332.49-2.15 333.43-2.77Q334.38-3.40 335.14-4.14L335.14-4.14Q337.17-6.15 337.45-6.15L337.45-6.15Q337.95-6.15 337.95-4.69Q337.95-3.22 337.04-2.68L337.04-2.68Q334.24-0.16 332.72 0.39L332.72 0.39Q331.86 0.68 330.83 0.66Q329.79 0.64 328.77-0.23Q327.76-1.11 327.76-2.37Q327.76-3.63 328.42-5.23Q329.09-6.84 329.78-7.98Q330.47-9.12 331.49-10.63Q332.50-12.15 332.56-12.52L332.56-12.52L332.52-12.56Q331.88-12.50 329.33-10.02Q326.78-7.54 325.12-5.70Q323.46-3.87 321.16-0.80L321.16-0.80Q320.51 0.04 320.10 0.04Q319.69 0.04 319.00-0.22Q318.31-0.49 318.15-0.61Q317.99-0.72 317.99-0.96Q317.99-1.19 318.13-1.53Q318.27-1.88 318.39-2.10Q318.52-2.32 318.81-2.79Q319.11-3.26 319.98-4.78Q320.84-6.29 322.64-9.30Q324.44-12.30 324.79-12.93L324.79-12.93Q325.53-14.22 326.00-14.80L326.00-14.80Q326.88-15.92 328.97-15.92L328.97-15.92Q329.44-15.92 329.44-15.33L329.44-15.33Q329.44-14.41 327.74-11.88L327.74-11.88L326.92-10.64Q330.30-14.39 332.62-15.39L332.62-15.39Q333.75-15.88 334.66-15.88Q335.57-15.88 336.11-15.39Q336.65-14.90 336.65-14.31Q336.65-13.71 336.24-12.88Q335.83-12.05 335.41-11.40Q334.99-10.74 334.30-9.75Q333.62-8.75 333.56-8.66Q333.50-8.57 333.26-8.19Q333.01-7.81 332.90-7.64Q332.78-7.46 332.50-7.02Q332.23-6.58 332.07-6.29Q331.90-6.00 331.66-5.57Q331.41-5.14 331.26-4.82Q331.12-4.51 330.96-4.14L330.96-4.14Q330.69-3.46 330.69-3.01Z M361.45-29.28Q361.82-29.28 362.04-29.04Q362.25-28.81 362.25-28.56Q362.25-28.32 361.87-27.67Q361.49-27.01 360.12-24.81Q358.75-22.62 357.99-21.37L357.99-21.37Q353.56-14.16 351.04-9.18Q348.52-4.20 348.52-3.16L348.52-3.16L348.52-3.01Q348.52-2.21 349.11-2.21Q349.69-2.21 350.52-2.75Q351.35-3.30 351.98-3.93Q352.60-4.55 353.24-5.22Q353.87-5.90 354.01-6.02Q354.14-6.13 354.36-6.13L354.36-6.13Q354.69-6.13 354.79-5.71Q354.89-5.29 354.89-4.54Q354.89-3.79 354.77-3.55L354.77-3.55Q354.20-2.46 352.28-0.89Q350.36 0.68 348.64 0.68L348.64 0.68Q345.71 0.68 345.71-1.80L345.71-1.80Q345.71-3.34 346.88-5.84L346.88-5.84Q345.30-3.79 343.66-2.34L343.66-2.34Q340.61 0.31 338.36 0.31L338.36 0.31Q337.11 0.31 336.52-0.57Q335.92-1.45 335.92-3.10Q335.92-4.75 337.21-7.05Q338.50-9.36 340.42-11.20Q342.35-13.05 344.69-14.29Q347.04-15.53 349.01-15.53L349.01-15.53Q349.63-15.53 350.47-14.77L350.47-14.77Q351.04-15.66 352.56-18.36L352.56-18.36Q357.35-26.43 358.89-28.20L358.89-28.20Q359.71-29.28 361.45-29.28L361.45-29.28ZM349.28-12.93L349.28-12.93Q346.47-12.30 344.05-10.31Q341.63-8.32 340.41-6.14Q339.20-3.96 339.20-3.32Q339.20-2.68 339.48-2.68L339.48-2.68Q340.65-2.68 345.28-7.91L345.28-7.91Q347.58-10.49 349.28-12.93Z M384.69-11.39L384.69-11.39Q385.16-11.39 385.16-10.63Q385.16-9.88 384.83-8.05L384.83-8.05Q384.57-6.82 382.01-4.53L382.01-4.53Q378.93-1.80 375.24-0.63L375.24-0.63Q373.01 0.08 370.89 0.08Q368.77 0.08 367.02-1.71Q365.28-3.50 365.28-5.95Q365.28-8.40 366.26-11.03Q367.25-13.65 368.92-16.04Q370.59-18.44 372.86-20.64Q375.14-22.85 377.60-24.47Q380.06-26.09 382.76-27.05Q385.45-28.01 387.87-28.01L387.87-28.01Q389.79-28.01 391.14-26.62L391.14-26.62Q391.84-25.88 391.84-24.76Q391.84-23.63 390.74-21.92Q389.65-20.21 388.16-18.81Q386.66-17.40 385.07-16.43Q383.48-15.45 382.52-15.45Q381.56-15.45 380.88-16.04Q380.20-16.64 380.20-17.11Q380.20-17.58 380.40-18.14Q380.61-18.71 380.92-18.71L380.92-18.71Q380.84-18.61 380.84-18.52L380.84-18.52Q380.84-18.28 381.52-18.28Q382.19-18.28 383.77-19.47Q385.35-20.66 386.63-22.15Q387.91-23.63 387.91-24.38L387.91-24.38Q387.91-24.88 387.23-24.88L387.23-24.88Q385.39-24.88 382.16-23.17Q378.93-21.46 375.98-18.77Q373.03-16.07 370.85-12.37Q368.67-8.67 368.67-5.72L368.67-5.72Q368.67-4.49 369.33-3.75Q369.98-3.01 371.34-3.01Q372.70-3.01 374.55-3.79Q376.41-4.57 378.08-5.70Q379.75-6.84 381.23-8.03Q382.72-9.22 383.61-10.12Q384.49-11.02 384.51-11.20Q384.53-11.39 384.69-11.39Z M400.08-14.88Q400.67-14.88 401.28-14.36Q401.90-13.83 401.90-12.74Q401.90-11.66 401.13-9.93Q400.37-8.20 399.04-6.42Q397.72-4.63 396.12-3.06Q394.53-1.48 392.69-0.48Q390.84 0.53 389.34 0.53Q387.83 0.53 386.93-0.42Q386.02-1.37 386.02-3.06Q386.02-4.75 386.85-6.80Q387.68-8.85 388.99-10.42Q390.29-11.99 391.82-13.24L391.82-13.24Q395.00-15.80 397.40-15.80L397.40-15.80Q398.48-15.80 399.03-15.27L399.03-15.27Q399.22-15.10 399.22-14.96L399.22-14.96L399.22-14.84Q399.49-14.88 400.08-14.88ZM398.11-12.29L398.11-12.29L397.97-12.29Q397.29-12.29 397.29-13.28L397.29-13.28Q395.86-12.81 394.30-11.64Q392.74-10.47 391.51-8.87L391.51-8.87Q389.01-5.66 388.97-3.46L388.97-3.46Q388.97-2.36 389.77-2.36Q390.57-2.36 392.15-3.42Q393.73-4.47 395.28-6.43Q396.84-8.38 397.61-9.81Q398.38-11.25 398.38-11.77Q398.38-12.29 398.11-12.29Z M426.80-29.28Q427.17-29.28 427.38-29.04Q427.60-28.81 427.60-28.56Q427.60-28.32 427.22-27.67Q426.84-27.01 425.47-24.81Q424.10-22.62 423.34-21.37L423.34-21.37Q418.91-14.16 416.39-9.18Q413.87-4.20 413.87-3.16L413.87-3.16L413.87-3.01Q413.87-2.21 414.45-2.21Q415.04-2.21 415.87-2.75Q416.70-3.30 417.33-3.93Q417.95-4.55 418.58-5.22Q419.22-5.90 419.36-6.02Q419.49-6.13 419.71-6.13L419.71-6.13Q420.04-6.13 420.14-5.71Q420.24-5.29 420.24-4.54Q420.24-3.79 420.12-3.55L420.12-3.55Q419.55-2.46 417.63-0.89Q415.70 0.68 413.99 0.68L413.99 0.68Q411.06 0.68 411.06-1.80L411.06-1.80Q411.06-3.34 412.23-5.84L412.23-5.84Q410.65-3.79 409.00-2.34L409.00-2.34Q405.96 0.31 403.71 0.31L403.71 0.31Q402.46 0.31 401.87-0.57Q401.27-1.45 401.27-3.10Q401.27-4.75 402.56-7.05Q403.85-9.36 405.77-11.20Q407.70-13.05 410.04-14.29Q412.38-15.53 414.36-15.53L414.36-15.53Q414.98-15.53 415.82-14.77L415.82-14.77Q416.39-15.66 417.91-18.36L417.91-18.36Q422.70-26.43 424.24-28.20L424.24-28.20Q425.06-29.28 426.80-29.28L426.80-29.28ZM414.63-12.93L414.63-12.93Q411.82-12.30 409.40-10.31Q406.97-8.32 405.76-6.14Q404.55-3.96 404.55-3.32Q404.55-2.68 404.83-2.68L404.83-2.68Q406.00-2.68 410.63-7.91L410.63-7.91Q412.93-10.49 414.63-12.93Z M432.97-14.61L432.97-14.61Q432.97-13.32 431.92-12.34Q430.88-11.37 429.55-11.37L429.55-11.37Q429.12-11.37 428.98-11.57Q428.85-11.78 428.85-12.11Q428.85-12.44 428.93-12.75L428.93-12.75Q428.22-12.52 427.36-12.03Q426.50-11.54 425.25-10.59Q424.00-9.63 424.00-9.16L424.00-9.16Q424.00-9.00 424.46-9.00Q424.92-9.00 425.88-9.33Q426.84-9.65 427.22-9.65Q427.60-9.65 427.71-9.61L427.71-9.61Q427.97-9.47 428.26-9.01Q428.55-8.55 428.55-8.29Q428.55-8.03 428.05-7.60Q427.54-7.17 426.89-6.94Q426.25-6.72 426.04-6.60L426.04-6.60Q421.91-4.30 421.91-3.44L421.91-3.44Q421.91-1.91 424.51-1.91L424.51-1.91Q426.17-1.91 427.85-2.97L427.85-2.97Q429.28-3.87 430.42-4.79Q431.56-5.72 431.87-5.94Q432.17-6.15 432.32-6.15L432.32-6.15Q432.83-6.15 432.83-5.02Q432.83-3.89 432.70-3.53Q432.56-3.16 431.91-2.64L431.91-2.64Q427.73 0.76 424.00 0.76L424.00 0.76Q422.01 0.76 420.82 0.21L420.82 0.21Q418.63-0.78 418.63-2.83L418.63-2.83Q418.63-5.53 422.36-6.91L422.36-6.91Q421.62-7.25 421.41-7.76Q421.19-8.28 421.19-9.42Q421.19-10.57 422.26-11.85Q423.32-13.13 424.86-13.95L424.86-13.95Q428.30-15.80 431.00-15.80L431.00-15.80Q431.64-15.80 432.30-15.49Q432.97-15.18 432.97-14.61Z M452.69-32.91L453.77-32.85L454.61-32.87Q455.02-32.87 455.02-32.56L455.02-32.56Q455.02-32.48 453.75-30.22Q452.48-27.97 445.62-15.15Q438.77-2.32 435.72 3.77L435.72 3.77Q435.51 4.24 435.19 4.38L435.19 4.38Q434.32 4.79 433.93 4.79L433.93 4.79L433.44 4.94Q433.32 4.94 433.00 4.82Q432.68 4.71 432.65 4.60Q432.62 4.49 432.62 4.11Q432.62 3.73 432.64 3.67L432.64 3.67Q433.03 1.93 442.12-14.95Q451.21-31.84 452.21-32.71L452.21-32.71Q452.38-32.91 452.69-32.91L452.69-32.91Z M465.21-10.92L464.29-10.68Q463.75-10.68 463.75-11.37L463.75-11.37Q463.75-11.88 464.21-12.48Q464.67-13.09 464.76-13.28Q464.86-13.48 465.28-13.89Q465.70-14.30 466.02-14.38Q466.35-14.45 467.34-14.55L467.34-14.55Q470.39-14.84 473.98-14.88L473.98-14.88Q477.89-20.80 480.35-23.67L480.35-23.67Q476.70-23.01 471.38-23.01L471.38-23.01Q464.18-23.01 464.18-26.23L464.18-26.23Q464.18-27.15 465.11-27.83Q466.03-28.52 467.45-28.52Q468.86-28.52 468.86-28.18L468.86-28.18Q468.86-28.01 468.43-28.01Q467.99-28.01 467.61-27.69Q467.22-27.36 467.22-27.07L467.22-27.07Q467.22-26.62 469.14-26.41Q471.05-26.19 475.05-26.19Q479.04-26.19 483.71-26.91L483.71-26.91Q485.25-28.18 486.61-28.83Q487.97-29.47 489.37-29.47Q490.78-29.47 491.21-28.85Q491.64-28.22 491.65-27.91Q491.66-27.60 491.19-27.09Q490.72-26.58 489.88-26.05L489.88-26.05Q487.91-24.84 484.70-24.61L484.70-24.61Q481.29-20.29 477.65-14.84L477.65-14.84Q479.16-14.79 480.47-14.62Q481.78-14.45 481.78-13.59L481.78-13.59Q481.78-13.24 480.66-12.25L480.66-12.25Q480.54-12.11 480.37-11.84L480.37-11.84Q480.06-11.37 479.75-11.37Q479.45-11.37 479.06-11.45L479.06-11.45Q477.54-11.50 476.78-11.50L476.78-11.50L475.51-11.48Q468.63-0.78 468.41-0.36Q468.18 0.06 467.92 0.27Q467.65 0.49 467.26 0.49Q466.87 0.49 466.17 0.36Q465.47 0.23 465.11 0.05Q464.76-0.14 464.76-0.42Q464.76-0.70 464.94-1.23L464.94-1.23Q465.41-2.54 471.50-11.33L471.50-11.33Q467.54-11.13 465.21-10.92L465.21-10.92ZM488.34-28.01L489.10-28.32Q488.79-28.22 488.34-28.01L488.34-28.01Z M489.16-11.88L488.34-10.64Q492.95-15.88 496.19-15.88L496.19-15.88Q496.99-15.88 497.51-15.40Q498.02-14.92 498.02-14.16Q498.02-13.40 496.94-11.61Q495.86-9.82 494.94-8.59L494.94-8.59Q494.45-7.97 493.83-7.97Q493.22-7.97 492.88-8.42Q492.54-8.87 492.54-9.47L492.54-9.47Q492.54-10.82 493.98-12.52L493.98-12.52L493.94-12.56Q493.30-12.50 490.75-10.02Q488.20-7.54 486.41-5.58Q484.63-3.61 482.54-0.80L482.54-0.80Q481.93 0.04 481.51 0.04Q481.09 0.04 480.40-0.22Q479.70-0.49 479.56-0.61Q479.41-0.72 479.41-1.00Q479.41-1.27 479.57-1.63Q479.72-1.99 480.14-2.66Q480.56-3.32 481.41-4.80Q482.26-6.29 484.06-9.30Q485.86-12.30 486.21-12.93L486.21-12.93Q486.95-14.22 487.42-14.80L487.42-14.80Q488.30-15.92 490.39-15.92L490.39-15.92Q490.86-15.92 490.86-15.33L490.86-15.33Q490.86-14.41 489.16-11.88L489.16-11.88Z"/></g>
</svg>
</g><g opacity="1" transform="rotate(0 266.0005 367.2772)">
<svg width="377.1007" height="90" x="266.0005" y="367.2772" version="1.1" preserveAspectRatio="none" viewBox="4.16 -31 132.56 31.64">
  <g transform="matrix(1 0 0 1 0 0)" class="companyName"><path id="id-D6z1nYkh7" d="M11.92-28.92Q16.64-28.92 19.30-26.56Q21.96-24.20 21.96-19.96L21.96-19.96Q21.96-17.52 20.98-15.40Q20-13.28 17.82-11.96Q15.64-10.64 12.32-10.64L12.32-10.64L8.04-10.64L8.04 0L4.16 0L4.16-28.92L11.92-28.92ZM12.32-14.40Q14.40-14.40 15.70-15.28Q17-16.16 17.56-17.42Q18.12-18.68 18.12-19.88L18.12-19.88Q18.12-21.96 16.76-23.58Q15.40-25.20 12.52-25.20L12.52-25.20L8.04-25.20L8.04-14.40L12.32-14.40Z M27.04-16.56L30.76-16.56L30.76 0L27.04 0L27.04-16.56ZM26.76-22.52Q26.76-23.40 27.44-24Q28.12-24.60 29-24.60L29-24.60Q29.88-24.60 30.54-24Q31.20-23.40 31.20-22.52L31.20-22.52Q31.20-21.64 30.54-21.04Q29.88-20.44 29-20.44L29-20.44Q28.12-20.44 27.44-21.04Q26.76-21.64 26.76-22.52L26.76-22.52Z M48.24 0L43.12-7.96L40.96-6.20L40.96 0L37.24 0L37.24-31L40.96-31L40.96-10.08L49.52-16.96L51.80-14.96L45.68-10.04L52.60 0L48.24 0Z M70.48-16.56L73.92-16.56L73.92 0L70.20 0L70.20-2.72Q69.32-1.56 67.64-0.58Q65.96 0.40 63.84 0.40L63.84 0.40Q61.48 0.40 59.58-0.62Q57.68-1.64 56.58-3.60Q55.48-5.56 55.48-8.28L55.48-8.28Q55.48-11 56.62-13.02Q57.76-15.04 59.70-16.14Q61.64-17.24 64-17.24L64-17.24Q66.12-17.24 67.68-16.32Q69.24-15.40 70.20-13.92L70.20-13.92L70.48-16.56ZM64.84-2.68Q66.88-2.68 68.34-3.82Q69.80-4.96 70.20-6.92L70.20-6.92L70.20-10.20Q69.72-11.96 68.20-13.06Q66.68-14.16 64.72-14.16L64.72-14.16Q63.24-14.16 61.98-13.44Q60.72-12.72 59.98-11.42Q59.24-10.12 59.24-8.48L59.24-8.48Q59.24-6.88 60-5.56Q60.76-4.24 62.04-3.46Q63.32-2.68 64.84-2.68L64.84-2.68Z M98.96-28.92L103.72-28.92L92.88-9.64L92.88 0L89 0L89-9.64L78.28-28.92L83.08-28.92L91.04-14.04L98.96-28.92Z M116.64-16.56L120.36-16.56L120.36 0L117 0L116.76-3.16Q115.92-1.48 114.16-0.42Q112.40 0.64 110.24 0.64L110.24 0.64Q107.96 0.64 106.50-0.74Q105.04-2.12 104.96-4.32L104.96-4.32L104.96-16.56L108.68-16.56L108.68-5.64Q108.76-4.24 109.50-3.42Q110.24-2.60 111.72-2.56L111.72-2.56Q113.08-2.56 114.20-3.38Q115.32-4.20 115.98-5.64Q116.64-7.08 116.64-8.84L116.64-8.84L116.64-16.56Z M128.44-23.84L132.20-23.84L132.20-16.52L136.72-16.52L136.72-13.56L132.20-13.56L132.20 0L128.44 0L128.44-13.56L125.40-13.56L125.40-16.52L128.44-16.52L128.44-23.84Z"/></g>
</svg>
</g></svg></svg>