<svg version="1.1" preserveAspectRatio="none" xmlns="http://www.w3.org/2000/svg" width="500" height="500" viewBox="0 0 500 500"><rect width="100%" height="100%" fill="#070707" fill-opacity="1"/><svg viewBox="90.8049 528.0307 529.1269 308.2823" width="333" height="194.0139613011548" x="83.5px" y="152.993px" xmlns="http://www.w3.org/2000/svg" xmlns:xlink="http://www.w3.org/1999/xlink" preserveAspectRatio="none"><defs></defs><style>.companyName {fill:#F7DC5F;fill-opacity:1;}.icon1 {fill:#F7DC5F;fill-opacity:1;}.icon2 {fill:#8C7848;fill-opacity:1;}.icon3 {fill:#534538;fill-opacity:1;}.icon3-str {stroke:#534538;stroke-opacity:1;}.text {fill:#F7DC5F;fill-opacity:1;}</style><g opacity="1" transform="rotate(0 90.8049 808.313)">
<svg width="529.1269" height="28" x="90.8049" y="808.313" version="1.1" preserveAspectRatio="none" viewBox="1.56 -29.92 721.0400000000001 38.16">
  <g transform="matrix(1 0 0 1 0 0)" class="text"><path id="id-6izo4zJp30" d="M15.04-2.60L15.04-2.60Q17.88-2.60 20.02-4.04Q22.16-5.48 23.20-7.92L23.20-7.92L26.36-7.92Q25.04-4.16 22-2L22-2Q18.76 0.32 14.36 0.32L14.36 0.32Q8.56 0.32 4.96-3.64L4.96-3.64Q1.56-7.44 1.56-13.24Q1.56-19.04 4.96-22.84L4.96-22.84Q8.56-26.80 14.36-26.80L14.36-26.80Q18.76-26.80 22-24.48L22-24.48Q25.04-22.32 26.36-18.56L26.36-18.56L23.20-18.56Q22.16-21 20.02-22.44Q17.88-23.88 15.04-23.88Q12.20-23.88 10.32-23.06Q8.44-22.24 7.16-20.80L7.16-20.80Q4.56-17.88 4.56-13.24L4.56-13.24Q4.56-8.60 7.16-5.68L7.16-5.68Q9.88-2.60 15.04-2.60Z M42.88-20.32L42.88-20.32Q47.36-20.32 50.16-17.32L50.16-17.32Q52.80-14.44 52.80-10L52.80-10Q52.80-5.56 50.16-2.68L50.16-2.68Q47.36 0.32 42.88 0.32L42.88 0.32Q38.40 0.32 35.60-2.68L35.60-2.68Q32.96-5.56 32.96-10L32.96-10Q32.96-14.44 35.60-17.32L35.60-17.32Q38.40-20.32 42.88-20.32ZM42.88-2.40L42.88-2.40Q46.12-2.40 48-4.64L48-4.64Q49.80-6.76 49.80-10L49.80-10Q49.80-13.24 48-15.36L48-15.36Q46.12-17.60 42.88-17.60L42.88-17.60Q39.64-17.60 37.76-15.36L37.76-15.36Q35.96-13.24 35.96-10L35.96-10Q35.96-6.76 37.76-4.64L37.76-4.64Q39.64-2.40 42.88-2.40Z M63.76-20L63.76-16.96Q65.76-20.32 69.84-20.32L69.84-20.32Q71.84-20.32 73.54-19.26Q75.24-18.20 76.20-16.28L76.20-16.28Q77.56-18.80 80.44-19.88L80.44-19.88Q81.60-20.32 83.06-20.32Q84.52-20.32 85.86-19.74Q87.20-19.16 88.24-18.08L88.24-18.08Q90.48-15.68 90.48-12.08L90.48-12.08L90.48 0L87.48 0L87.48-12Q87.48-14.48 86.08-16.08L86.08-16.08Q84.68-17.60 82.52-17.60L82.52-17.60Q80.24-17.60 78.72-16.12L78.72-16.12Q77.12-14.60 77.12-11.96L77.12-11.96L77.12 0L74.12 0L74.12-12Q74.12-14.48 72.72-16.08L72.72-16.08Q71.32-17.60 69.16-17.60L69.16-17.60Q66.88-17.60 65.36-16.12L65.36-16.12Q63.76-14.60 63.76-11.96L63.76-11.96L63.76 0L60.76 0L60.76-20L63.76-20Z M102.48-20L102.48-16.96Q104.48-20.32 108.56-20.32L108.56-20.32Q110.56-20.32 112.26-19.26Q113.96-18.20 114.92-16.28L114.92-16.28Q116.28-18.80 119.16-19.88L119.16-19.88Q120.32-20.32 121.78-20.32Q123.24-20.32 124.58-19.74Q125.92-19.16 126.96-18.08L126.96-18.08Q129.20-15.68 129.20-12.08L129.20-12.08L129.20 0L126.20 0L126.20-12Q126.20-14.48 124.80-16.08L124.80-16.08Q123.40-17.60 121.24-17.60L121.24-17.60Q118.96-17.60 117.44-16.12L117.44-16.12Q115.84-14.60 115.84-11.96L115.84-11.96L115.84 0L112.84 0L112.84-12Q112.84-14.48 111.44-16.08L111.44-16.08Q110.04-17.60 107.88-17.60L107.88-17.60Q105.60-17.60 104.08-16.12L104.08-16.12Q102.48-14.60 102.48-11.96L102.48-11.96L102.48 0L99.48 0L99.48-20L102.48-20Z M155.44 0L152.44 0L152.44-3.12Q151.36-1.68 149.80-0.68Q148.24 0.32 146.24 0.32Q144.24 0.32 142.80-0.24Q141.36-0.80 140.28-1.92L140.28-1.92Q137.80-4.36 137.80-8.36L137.80-8.36L137.80-20L140.80-20L140.80-8.44Q140.80-5.68 142.36-4.04Q143.92-2.40 146.40-2.40L146.40-2.40Q148.92-2.40 150.68-4.08L150.68-4.08Q152.44-5.80 152.44-8.48L152.44-8.48L152.44-20L155.44-20L155.44 0Z M164.64-20L167.64-20L167.64-16.88Q168.72-18.32 170.28-19.32Q171.84-20.32 173.84-20.32Q175.84-20.32 177.28-19.76Q178.72-19.20 179.80-18.08L179.80-18.08Q182.28-15.64 182.28-11.64L182.28-11.64L182.28 0L179.28 0L179.28-11.56Q179.28-14.32 177.72-15.96Q176.16-17.60 173.68-17.60L173.68-17.60Q171.16-17.60 169.40-15.92L169.40-15.92Q167.64-14.20 167.64-11.52L167.64-11.52L167.64 0L164.64 0L164.64-20Z M191.28 0L191.28-20L194.28-20L194.28 0L191.28 0ZM191.16-27.28L194.40-27.28L194.40-23.36L191.16-23.36L191.16-27.28Z M208.64 0L205.64 0L205.64-17.36L201.56-17.36L201.56-20L205.64-20L205.64-27.16L208.64-27.16L208.64-20L213.24-20L213.24-17.36L208.64-17.36L208.64 0Z M237.68-20L225.84 7.92L222.60 7.92L226.24-0.28L218.08-20L221.40-20L227.84-3.60L234.40-20L237.68-20Z M259.36 7.16L256.92 7.16L256.92-29.92L259.36-29.92L259.36 7.16Z M271.08-22.84Q272.76-24.68 275.16-25.74Q277.56-26.80 280.12-26.80Q282.68-26.80 284.56-26.24Q286.44-25.68 287.96-24.72L287.96-24.72Q291.12-22.68 292.60-19.28L292.60-19.28L289.32-19.28Q288.12-21.44 285.98-22.66Q283.84-23.88 281.12-23.88Q278.40-23.88 276.48-23.06Q274.56-22.24 273.24-20.80L273.24-20.80Q270.52-17.84 270.52-13.24L270.52-13.24Q270.52-8.60 273.20-5.68L273.20-5.68Q276.04-2.60 280.72-2.60L280.72-2.60Q284.48-2.60 287.20-4.92L287.20-4.92Q290.08-7.36 290.08-11.36L290.08-11.36L280.40-11.36L280.40-14.08L292.84-14.08L292.84 0L290.08 0L290.08-4.68Q287.80-1.24 283.76-0.08L283.76-0.08Q282.28 0.32 279.86 0.32Q277.44 0.32 275.04-0.74Q272.64-1.80 270.96-3.64L270.96-3.64Q267.52-7.40 267.52-13.24L267.52-13.24Q267.52-19 271.08-22.84L271.08-22.84Z M317.08 0L317.08-3.20Q314.68 0.32 309.92 0.32L309.92 0.32Q305.60 0.32 302.88-2.68L302.88-2.68Q300.24-5.64 300.24-10L300.24-10Q300.24-14.36 302.88-17.32L302.88-17.32Q305.60-20.32 310.12-20.32Q314.64-20.32 317.08-16.76L317.08-16.76L317.08-20L320.08-20L320.08 0L317.08 0ZM310.32-2.40L310.32-2.40Q313.56-2.40 315.44-4.64L315.44-4.64Q317.24-6.76 317.24-10L317.24-10Q317.24-13.24 315.44-15.36L315.44-15.36Q313.56-17.60 310.32-17.60L310.32-17.60Q307.12-17.60 305.12-15.36L305.12-15.36Q303.24-13.24 303.24-10L303.24-10Q303.24-6.76 305.12-4.64L305.12-4.64Q307.12-2.40 310.32-2.40Z M332.28-20L332.28-16.96Q334.28-20.32 338.36-20.32L338.36-20.32Q340.36-20.32 342.06-19.26Q343.76-18.20 344.72-16.28L344.72-16.28Q346.08-18.80 348.96-19.88L348.96-19.88Q350.12-20.32 351.58-20.32Q353.04-20.32 354.38-19.74Q355.72-19.16 356.76-18.08L356.76-18.08Q359-15.68 359-12.08L359-12.08L359 0L356 0L356-12Q356-14.48 354.60-16.08L354.60-16.08Q353.20-17.60 351.04-17.60L351.04-17.60Q348.76-17.60 347.24-16.12L347.24-16.12Q345.64-14.60 345.64-11.96L345.64-11.96L345.64 0L342.64 0L342.64-12Q342.64-14.48 341.24-16.08L341.24-16.08Q339.84-17.60 337.68-17.60L337.68-17.60Q335.40-17.60 333.88-16.12L333.88-16.12Q332.28-14.60 332.28-11.96L332.28-11.96L332.28 0L329.28 0L329.28-20L332.28-20Z M368 0L368-20L371-20L371 0L368 0ZM367.88-27.28L371.12-27.28L371.12-23.36L367.88-23.36L367.88-27.28Z M380.20-20L383.20-20L383.20-16.88Q384.28-18.32 385.84-19.32Q387.40-20.32 389.40-20.32Q391.40-20.32 392.84-19.76Q394.28-19.20 395.36-18.08L395.36-18.08Q397.84-15.64 397.84-11.64L397.84-11.64L397.84 0L394.84 0L394.84-11.56Q394.84-14.32 393.28-15.96Q391.72-17.60 389.24-17.60L389.24-17.60Q386.72-17.60 384.96-15.92L384.96-15.92Q383.20-14.20 383.20-11.52L383.20-11.52L383.20 0L380.20 0L380.20-20Z M422.44-16.80L422.44-16.80L422.44-20L425.44-20L425.44-0.60Q425.44 3.72 422.98 5.98Q420.52 8.24 416.36 8.24Q412.20 8.24 409.86 6.64Q407.52 5.04 406.68 2.40L406.68 2.40L410.00 2.40Q411.28 5.52 415.84 5.52L415.84 5.52Q419.32 5.52 420.88 3.92Q422.44 2.32 422.44-0.80L422.44-0.80L422.44-3.56Q420.00 0 415.28 0L415.28 0Q410.96 0 408.24-2.96L408.24-2.96Q405.60-5.84 405.60-10.16L405.60-10.16Q405.60-14.48 408.24-17.36L408.24-17.36Q410.96-20.32 415.50-20.32Q420.04-20.32 422.44-16.80ZM415.68-2.72L415.68-2.72Q417.32-2.72 418.60-3.30Q419.88-3.88 420.80-4.88L420.80-4.88Q422.60-6.96 422.60-10.16L422.60-10.16Q422.60-13.36 420.80-15.44L420.80-15.44Q418.84-17.60 415.68-17.60L415.68-17.60Q412.44-17.60 410.48-15.44L410.48-15.44Q408.60-13.32 408.60-10.16L408.60-10.16Q408.60-7 410.48-4.88L410.48-4.88Q412.44-2.72 415.68-2.72Z M462.76 0L462.76-3.20Q460.36 0.32 455.60 0.32L455.60 0.32Q451.28 0.32 448.56-2.68L448.56-2.68Q445.92-5.64 445.92-10L445.92-10Q445.92-14.36 448.56-17.32L448.56-17.32Q451.28-20.32 455.80-20.32Q460.32-20.32 462.76-16.76L462.76-16.76L462.76-20L465.76-20L465.76 0L462.76 0ZM456.00-2.40L456.00-2.40Q459.24-2.40 461.12-4.64L461.12-4.64Q462.92-6.76 462.92-10L462.92-10Q462.92-13.24 461.12-15.36L461.12-15.36Q459.24-17.60 456.00-17.60L456.00-17.60Q452.80-17.60 450.80-15.36L450.80-15.36Q448.92-13.24 448.92-10L448.92-10Q448.92-6.76 450.80-4.64L450.80-4.64Q452.80-2.40 456.00-2.40Z M474.96-20L477.96-20L477.96-16.88Q479.04-18.32 480.60-19.32Q482.16-20.32 484.16-20.32Q486.16-20.32 487.60-19.76Q489.04-19.20 490.12-18.08L490.12-18.08Q492.60-15.64 492.60-11.64L492.60-11.64L492.60 0L489.60 0L489.60-11.56Q489.60-14.32 488.04-15.96Q486.48-17.60 484.00-17.60L484.00-17.60Q481.48-17.60 479.72-15.92L479.72-15.92Q477.96-14.20 477.96-11.52L477.96-11.52L477.96 0L474.96 0L474.96-20Z M517.20 0L517.20-3.20Q514.80 0.32 510.04 0.32L510.04 0.32Q505.72 0.32 503.00-2.68L503.00-2.68Q500.36-5.64 500.36-10L500.36-10Q500.36-14.36 503.00-17.32L503.00-17.32Q505.72-20.32 510.24-20.32Q514.76-20.32 517.20-16.76L517.20-16.76L517.20-28L520.20-28L520.20 0L517.20 0ZM510.44-2.40L510.44-2.40Q513.68-2.40 515.56-4.64L515.56-4.64Q517.36-6.76 517.36-10L517.36-10Q517.36-13.24 515.56-15.36L515.56-15.36Q513.68-17.60 510.44-17.60L510.44-17.60Q507.24-17.60 505.24-15.36L505.24-15.36Q503.36-13.24 503.36-10L503.36-10Q503.36-6.76 505.24-4.64L505.24-4.64Q507.24-2.40 510.44-2.40Z M551.16-2.40L551.16-2.40Q553.08-2.40 554.56-3.48Q556.04-4.56 556.72-6.28L556.72-6.28L559.96-6.28Q559.04-3.32 556.60-1.52L556.60-1.52Q554.04 0.32 550.52 0.32L550.52 0.32Q546.12 0.32 543.36-2.68L543.36-2.68Q540.68-5.60 540.68-10L540.68-10Q540.68-14.40 543.36-17.32L543.36-17.32Q546.12-20.32 550.52-20.32L550.52-20.32Q554.04-20.32 556.60-18.48L556.60-18.48Q559.04-16.68 559.96-13.72L559.96-13.72L556.72-13.72Q556.04-15.44 554.56-16.52Q553.08-17.60 551.16-17.60Q549.24-17.60 547.90-17Q546.56-16.40 545.64-15.36L545.64-15.36Q543.68-13.20 543.68-10L543.68-10Q543.68-6.80 545.64-4.64L545.64-4.64Q547.64-2.40 551.16-2.40Z M576.36-20.32L576.36-20.32Q580.84-20.32 583.64-17.32L583.64-17.32Q586.28-14.44 586.28-10L586.28-10Q586.28-5.56 583.64-2.68L583.64-2.68Q580.84 0.32 576.36 0.32L576.36 0.32Q571.88 0.32 569.08-2.68L569.08-2.68Q566.44-5.56 566.44-10L566.44-10Q566.44-14.44 569.08-17.32L569.08-17.32Q571.88-20.32 576.36-20.32ZM576.36-2.40L576.36-2.40Q579.60-2.40 581.48-4.64L581.48-4.64Q583.28-6.76 583.28-10L583.28-10Q583.28-13.24 581.48-15.36L581.48-15.36Q579.60-17.60 576.36-17.60L576.36-17.60Q573.12-17.60 571.24-15.36L571.24-15.36Q569.44-13.24 569.44-10L569.44-10Q569.44-6.76 571.24-4.64L571.24-4.64Q573.12-2.40 576.36-2.40Z M609.84 0L609.84-3.20Q607.44 0.32 602.68 0.32L602.68 0.32Q598.36 0.32 595.64-2.68L595.64-2.68Q593.00-5.64 593.00-10L593.00-10Q593.00-14.36 595.64-17.32L595.64-17.32Q598.36-20.32 602.88-20.32Q607.40-20.32 609.84-16.76L609.84-16.76L609.84-28L612.84-28L612.84 0L609.84 0ZM603.08-2.40L603.08-2.40Q606.32-2.40 608.20-4.64L608.20-4.64Q610.00-6.76 610.00-10L610.00-10Q610.00-13.24 608.20-15.36L608.20-15.36Q606.32-17.60 603.08-17.60L603.08-17.60Q599.88-17.60 597.88-15.36L597.88-15.36Q596.00-13.24 596.00-10L596.00-10Q596.00-6.76 597.88-4.64L597.88-4.64Q599.88-2.40 603.08-2.40Z M630.96-2.40L630.96-2.40Q635.00-2.40 636.76-5.76L636.76-5.76L640.04-5.76Q639.00-3.04 636.74-1.36Q634.48 0.32 630.92 0.32L630.92 0.32Q626.40 0.32 623.56-2.68L623.56-2.68Q620.80-5.60 620.80-10L620.80-10Q620.80-14.44 623.44-17.32L623.44-17.32Q626.24-20.32 630.72-20.32L630.72-20.32Q635.20-20.32 638.00-17.32L638.00-17.32Q640.64-14.44 640.64-10L640.64-10L640.64-8.80L623.88-8.80Q624.20-6.04 626.08-4.24L626.08-4.24Q628.00-2.40 630.96-2.40ZM630.72-17.60L630.72-17.60Q627.96-17.60 626.08-15.88L626.08-15.88Q624.32-14.24 623.92-11.60L623.92-11.60L637.52-11.60Q637.12-14.24 635.36-15.88L635.36-15.88Q633.48-17.60 630.72-17.60Z M650.76 7.16L648.32 7.16L648.32-29.92L650.76-29.92L650.76 7.16Z M692.24-23.60L676.12-23.60L676.12-14.40L690.48-14.40L690.48-11.48L676.12-11.48L676.12 0L673.12 0L673.12-26.48L692.24-26.48L692.24-23.60Z M703.44-10.16L703.44 0L700.44 0L700.44-26.48L713.12-26.48Q717.16-26.48 719.60-24.24L719.60-24.24Q722.04-22.04 722.04-18.20L722.04-18.20Q722.04-13.24 717.92-11.44L717.92-11.44Q716.76-10.92 715.64-10.68L715.64-10.68L722.60 0L719.04 0L712.64-10.16L703.44-10.16ZM703.44-23.64L703.44-13L712.60-13Q716.84-13 718.44-15.64L718.44-15.64Q719.04-16.64 719.04-18.20L719.04-18.20Q719.04-20.72 717.32-22.18Q715.60-23.64 712.76-23.64L712.76-23.64L703.44-23.64Z"/></g>
</svg>
</g><g opacity="1" transform="rotate(0 177.0395 716.313)">
<svg width="356.6577" height="70" x="177.0395" y="716.313" version="1.1" preserveAspectRatio="none" viewBox="1.4 -33.2 171.39999999999998 33.64">
  <g transform="matrix(1 0 0 1 0 0)" class="companyName"><path id="id-D6z1nYkh7" d="M28-22.24L28-22.24Q28-17.92 24.64-15.66Q21.28-13.40 14.88-13.40L14.88-13.40L11.48-13.40L11.48-6.36Q11.48-4.84 11.68-3.90Q11.88-2.96 12.52-2.44Q13.16-1.92 14.28-1.76Q15.40-1.60 17.28-1.60L17.28-1.60L17.28 0L1.40 0L1.40-1.60Q2.72-1.64 3.56-1.84Q4.40-2.04 4.84-2.52Q5.28-3 5.44-3.88Q5.60-4.76 5.60-6.16L5.60-6.16L5.60-24.64Q5.60-26.04 5.46-26.90Q5.32-27.76 4.92-28.26Q4.52-28.76 3.78-28.94Q3.04-29.12 1.84-29.20L1.84-29.20L1.84-30.80L15.68-30.80Q21.76-30.80 24.88-28.64Q28-26.48 28-22.24ZM11.48-27.88L11.48-15.80L14.08-15.80Q17.96-15.80 19.76-17.36Q21.56-18.92 21.56-22.28L21.56-22.28Q21.56-25.28 20.04-26.92Q18.52-28.56 15.28-28.56L15.28-28.56L12.20-28.56Q11.48-28.56 11.48-27.88L11.48-27.88Z M40.96-21.60L40.96-6.56Q40.96-4.96 41.08-4Q41.20-3.04 41.56-2.52Q41.92-2 42.60-1.82Q43.28-1.64 44.44-1.60L44.44-1.60L44.44 0L31.84 0L31.84-1.60Q32.96-1.64 33.66-1.86Q34.36-2.08 34.74-2.58Q35.12-3.08 35.26-3.98Q35.40-4.88 35.40-6.28L35.40-6.28L35.40-11.20Q35.40-13.52 35.32-15.02Q35.24-16.52 35.12-17.08L35.12-17.08Q34.92-18.08 34.22-18.40Q33.52-18.72 31.68-18.72L31.68-18.72L31.68-20.08L40.96-21.60ZM35.08-30.08L35.08-30.08Q35.08-31.40 35.98-32.30Q36.88-33.20 38.16-33.20L38.16-33.20Q39.48-33.20 40.38-32.30Q41.28-31.40 41.28-30.08L41.28-30.08Q41.28-28.80 40.38-27.90Q39.48-27 38.16-27L38.16-27Q36.88-27 35.98-27.90Q35.08-28.80 35.08-30.08Z M61.44 0L61.44-1.60Q62.72-1.60 63.24-1.70Q63.76-1.80 63.76-2.12L63.76-2.12Q63.76-2.36 63.22-3.30Q62.68-4.24 61.84-5.48L61.84-5.48L58.80-10.04L56.80-8.12L56.80-6.56Q56.80-5 56.92-4.04Q57.04-3.08 57.34-2.54Q57.64-2 58.18-1.80Q58.72-1.60 59.56-1.60L59.56-1.60L59.56 0L47.76 0L47.76-1.60Q48.88-1.64 49.56-1.84Q50.24-2.04 50.64-2.54Q51.04-3.04 51.18-3.94Q51.32-4.84 51.32-6.28L51.32-6.28L51.32-23.24Q51.32-25.68 51.24-27.08Q51.16-28.48 50.82-29.18Q50.48-29.88 49.78-30.04Q49.08-30.20 47.88-30.20L47.88-30.20L47.88-31.68L56.80-33.20L56.80-10.96L60.64-14.60Q62.72-16.56 63.60-17.54Q64.48-18.52 64.48-18.96L64.48-18.96Q64.48-19.32 63.74-19.46Q63-19.60 61-19.60L61-19.60L61-21.20L71.92-21.20L71.92-19.60Q70.40-19.60 69.24-19.08Q68.08-18.56 66.72-17.28L66.72-17.28L62.84-13.64L69.76-3.84Q70.68-2.56 71.56-2.08Q72.44-1.60 73.88-1.60L73.88-1.60L73.88 0L61.44 0Z M89.44-7.60L89.44-11.40Q86.08-9.88 84.38-8.58Q82.68-7.28 82.68-5.88L82.68-5.88Q82.68-4.72 83.32-4.04Q83.96-3.36 84.92-3.36L84.92-3.36Q85.88-3.36 86.72-3.70Q87.56-4.04 88.16-4.60Q88.76-5.16 89.10-5.94Q89.44-6.72 89.44-7.60L89.44-7.60ZM83.80-11.08L89.44-13.52L89.44-15.20Q89.44-17.52 88.62-18.58Q87.80-19.64 86.08-19.64L86.08-19.64Q84.92-19.64 84.32-19.02Q83.72-18.40 83.20-16.96L83.20-16.96Q82.84-15.96 82.18-15.40Q81.52-14.84 80.36-14.84L80.36-14.84Q79.24-14.84 78.64-15.52Q78.04-16.20 78.04-17.44L78.04-17.44Q78.04-19.36 80.14-20.48Q82.24-21.60 86.48-21.60L86.48-21.60Q90.96-21.60 92.88-19.98Q94.80-18.36 94.80-14.56L94.80-14.56L94.80-5.80Q94.80-2.40 96.16-2.40L96.16-2.40Q96.92-2.40 97.56-2.92L97.56-2.92L98.16-1.76Q97.60-0.76 96.42-0.18Q95.24 0.40 93.76 0.40L93.76 0.40Q91.92 0.40 90.96-0.72Q90-1.84 90-3.88L90-3.88L89.80-3.88Q88.64-1.80 86.80-0.72Q84.96 0.36 82.60 0.36L82.60 0.36Q80.08 0.36 78.56-1.06Q77.04-2.48 77.04-4.76L77.04-4.76Q77.04-6.52 78.60-8.06Q80.16-9.60 83.80-11.08L83.80-11.08Z M109.56-11.04L101.28-25.76Q100.68-26.80 100.18-27.48Q99.68-28.16 99.16-28.54Q98.64-28.92 98.04-29.06Q97.44-29.20 96.68-29.20L96.68-29.20L96.68-30.80L110.12-30.80L110.12-29.20Q108.44-29.20 107.76-28.88Q107.08-28.56 107.08-27.92L107.08-27.92Q107.08-27.52 107.32-26.96Q107.56-26.40 108.08-25.44L108.08-25.44L113.80-14.52L113.96-14.52L119.00-22.92Q120.32-25.16 120.84-26.26Q121.36-27.36 121.36-28L121.36-28Q121.36-28.68 120.74-28.94Q120.12-29.20 118.44-29.20L118.44-29.20L118.44-30.80L128.48-30.80L128.48-29.20Q127.60-29.20 126.88-28.92Q126.16-28.64 125.38-27.82Q124.60-27 123.62-25.54Q122.64-24.08 121.28-21.72L121.28-21.72L115.44-11.72L115.44-7.64Q115.44-5.64 115.62-4.44Q115.80-3.24 116.26-2.62Q116.72-2 117.52-1.80Q118.32-1.60 119.60-1.60L119.60-1.60L119.60 0L105.36 0L105.36-1.60Q106.60-1.60 107.42-1.80Q108.24-2 108.72-2.60Q109.20-3.20 109.38-4.34Q109.56-5.48 109.56-7.36L109.56-7.36L109.56-11.04Z M146.00-10.48L146.00-14.64Q146.00-16.24 145.92-17.18Q145.84-18.12 145.48-18.62Q145.12-19.12 144.42-19.30Q143.72-19.48 142.52-19.60L142.52-19.60L142.52-21.20L151.56-21.20L151.56-9.08Q151.56-6.64 151.62-5.26Q151.68-3.88 151.84-3.20L151.84-3.20Q151.96-2.68 152.12-2.38Q152.28-2.08 152.64-1.90Q153.00-1.72 153.62-1.66Q154.24-1.60 155.24-1.60L155.24-1.60L155.24-0.04L147.28 0.44L146.84-3.12L146.68-3.12Q145.64-1.44 143.76-0.52Q141.88 0.40 139.56 0.40L139.56 0.40Q135.28 0.40 133.04-2.64L133.04-2.64Q131.32-4.96 131.32-9.24L131.32-9.24L131.32-14.64Q131.32-16.28 131.24-17.22Q131.16-18.16 130.82-18.64Q130.48-19.12 129.80-19.30Q129.12-19.48 127.92-19.60L127.92-19.60L127.92-21.20L136.88-21.20L136.88-9.88Q136.88-5.84 137.88-4.02Q138.88-2.20 141.08-2.20L141.08-2.20Q143.44-2.20 144.72-4.36L144.72-4.36Q146.00-6.44 146.00-10.48L146.00-10.48Z M161.68-19L158.76-19L158.76-20.80Q161.16-21.48 162.78-22.86Q164.40-24.24 165.20-26.04L165.20-26.04L167.24-26.04L167.24-21.20L171.84-21.20L171.84-19L167.24-19L167.24-6.72Q167.24-4.24 167.78-3.20Q168.32-2.16 169.60-2.16L169.60-2.16Q171.16-2.16 171.96-3.60L171.96-3.60L172.80-2.44Q171.68 0.40 167.52 0.40L167.52 0.40Q164.76 0.40 163.22-0.88Q161.68-2.16 161.68-4.48L161.68-4.48L161.68-19Z"/></g>
</svg>
</g><g opacity="1" transform="rotate(0 266.2039 528.0307)">
<svg width="178.3289" height="158.2823" x="266.2039" y="528.0307" version="1.1" preserveAspectRatio="none" viewBox="0.8788690567016602 1.0613179206848145 3.2422266006469727 2.8777589797973633">
  <g transform="matrix(1 0 0 1 0 0)" class="icon1"><title>icon</title><g><path d="M3.42617,1.90124c-.19767.256-.38938.51666-.581.77729q-.09333-.34261-.18477-.68574c-.03523-.13317-.25495-.171-.29019-.01444-.06958.30921-.14338.6174-.21177.92686-.16142-.18972-.31226-.38688-.471-.58059-.08359-.102-.28237-.01313-.2388.12032a13.22251,13.22251,0,0,0,.62746,1.46271c.03116.067.12811.01588.10124-.05078-.10266-.25466-.19985-.51368-.28252-.77693.07675.0906.15552.17894.23415.26527a.159.159,0,0,0,.2685-.05681c.048-.20715.09205-.41508.13525-.6232l.10289.38207a.15176.15176,0,0,0,.27207.05069c.14566-.19581.29227-.391.43757-.58717-.04352.32185-.10236.6422-.16925.959a1.18009,1.18009,0,0,0-.5583.17182.156.156,0,0,0,.1398.27871,1.52839,1.52839,0,0,1,.53563-.15376.15584.15584,0,0,0,.1525-.106c.11473-.554.18659-1.11052.25052-1.67208C3.714,1.83172,3.50777,1.79556,3.42617,1.90124Z"></path><path d="M1.22127,1.69153a.18178.18178,0,0,0-.0354-.07019A.10092.10092,0,0,0,1.169,1.59922l-.00985-.00887A.16054.16054,0,0,0,.889,1.65153a.1682.1682,0,0,0,.0095.13635.21325.21325,0,0,0,.069.07769.12543.12543,0,0,0,.0616.023.12485.12485,0,0,0,.0637.00037.16652.16652,0,0,0,.12845-.19739Z"></path><path d="M2.68756,1.25792a.42118.42118,0,0,0-.0361-.10073.18.18,0,0,0-.0983-.08737.16062.16062,0,0,0-.08036-.0059.16839.16839,0,0,0-.12268.15337.37466.37466,0,0,0,.01288.10931.17113.17113,0,0,0,.07181.10469.16879.16879,0,0,0,.1248.02325.16689.16689,0,0,0,.10469-.07181A.1636.1636,0,0,0,2.68756,1.25792Z"></path><path d="M4.11781,1.34144a.18172.18172,0,0,0-.03911-.07657l-.01651-.01428a.11455.11455,0,0,0-.052-.03063L3.97158,1.213l-.001.00008-.004-.00042a.19352.19352,0,0,0-.08321.01832.17258.17258,0,0,0-.07392.06863l-.00283.00328-.01811.03814-.00721.04017a.119.119,0,0,0,.00989.05913.07863.07863,0,0,0,.01807.03591.07834.07834,0,0,0,.02743.03067.07929.07929,0,0,0,.03507.02282.11716.11716,0,0,0,.05924.01627.16224.16224,0,0,0,.02745-.00054.17812.17812,0,0,0,.06751-.017.14865.14865,0,0,0,.05257-.0421.142.142,0,0,0,.0344-.05935A.171.171,0,0,0,4.11781,1.34144Z"></path></g></g>
</svg>
</g></svg></svg>