<svg version="1.1" preserveAspectRatio="none" xmlns="http://www.w3.org/2000/svg" width="500" height="500" viewBox="0 0 500 500"><rect width="100%" height="100%" fill="#F9F9F9" fill-opacity="1"/><svg viewBox="71.4577 241.8036 436.6252 339.1474" width="333" height="258.6568164182919" x="83.5px" y="120.6716px" xmlns="http://www.w3.org/2000/svg" xmlns:xlink="http://www.w3.org/1999/xlink" preserveAspectRatio="none"><defs></defs><style>.companyName {fill:#F3A7DC;fill-opacity:1;}.icon1 {fill:#DBDBDB;fill-opacity:1;}.icon2 {fill:#F3A7DC;fill-opacity:1;}.icon3 {fill:#E7E7E7;fill-opacity:1;}.icon3-str {stroke:#E7E7E7;stroke-opacity:1;}.text {fill:#A0A0A0;fill-opacity:1;}</style><g opacity="1" transform="rotate(0 71.4577 556.951)">
<svg width="436.6252" height="24" x="71.4577" y="556.951" version="1.1" preserveAspectRatio="none" viewBox="2.36 -31 734.9200000000001 40.4">
  <g transform="matrix(1 0 0 1 0 0)" class="text"><path id="id-6izo4zJp30" d="M25.40-2.16Q24-1.24 21.86-0.46Q19.72 0.32 17.20 0.32L17.20 0.32Q12.76 0.32 9.38-1.64Q6-3.60 4.18-6.92Q2.36-10.24 2.36-14.24L2.36-14.24Q2.36-18.52 4.20-21.94Q6.04-25.36 9.30-27.30Q12.56-29.24 16.68-29.24L16.68-29.24Q19.12-29.24 21.24-28.60Q23.36-27.96 25.04-26.92L25.04-26.92L23.48-23.28Q20.16-25.52 16.80-25.52L16.80-25.52Q14-25.52 11.62-24.04Q9.24-22.56 7.82-20.02Q6.40-17.48 6.40-14.44L6.40-14.44Q6.40-11.32 7.70-8.80Q9-6.28 11.42-4.86Q13.84-3.44 17-3.44L17-3.44Q20.88-3.44 23.76-5.64L23.76-5.64L25.40-2.16Z M33.56-8.44Q33.56-10.88 34.74-12.90Q35.92-14.92 38.02-16.08Q40.12-17.24 42.76-17.24L42.76-17.24Q45.40-17.24 47.46-16.08Q49.52-14.92 50.66-12.92Q51.80-10.92 51.80-8.44L51.80-8.44Q51.80-5.96 50.66-3.94Q49.52-1.92 47.44-0.76Q45.36 0.40 42.68 0.40L42.68 0.40Q40.08 0.40 38-0.70Q35.92-1.80 34.74-3.80Q33.56-5.80 33.56-8.44L33.56-8.44ZM37.32-8.40Q37.32-6.84 38.02-5.52Q38.72-4.20 39.94-3.44Q41.16-2.68 42.64-2.68L42.64-2.68Q44.96-2.68 46.48-4.32Q48-5.96 48-8.40L48-8.40Q48-10.84 46.48-12.50Q44.96-14.16 42.64-14.16L42.64-14.16Q41.12-14.16 39.92-13.38Q38.72-12.60 38.02-11.28Q37.32-9.96 37.32-8.40L37.32-8.40Z M82.04-17.24Q84.44-17.24 85.86-15.88Q87.28-14.52 87.36-12.28L87.36-12.28L87.36 0L83.64 0L83.64-10.92Q83.52-13.84 81-14L81-14Q79.56-14 78.42-13.14Q77.28-12.28 76.64-10.88Q76-9.48 75.96-7.88L75.96-7.88L75.96 0L72.20 0L72.20-10.92Q72.08-13.84 69.48-14L69.48-14Q68.08-14 66.94-13.14Q65.80-12.28 65.16-10.86Q64.52-9.44 64.52-7.84L64.52-7.84L64.52 0L60.80 0L60.80-16.56L64.16-16.56L64.44-13.44Q65.40-15.24 67.06-16.24Q68.72-17.24 70.84-17.24L70.84-17.24Q72.84-17.24 74.20-16.30Q75.56-15.36 75.96-13.72L75.96-13.72Q77-15.36 78.60-16.30Q80.20-17.24 82.04-17.24L82.04-17.24Z M119.04-17.24Q121.44-17.24 122.86-15.88Q124.28-14.52 124.36-12.28L124.36-12.28L124.36 0L120.64 0L120.64-10.92Q120.52-13.84 118-14L118-14Q116.56-14 115.42-13.14Q114.28-12.28 113.64-10.88Q113-9.48 112.96-7.88L112.96-7.88L112.96 0L109.20 0L109.20-10.92Q109.08-13.84 106.48-14L106.48-14Q105.08-14 103.94-13.14Q102.80-12.28 102.16-10.86Q101.52-9.44 101.52-7.84L101.52-7.84L101.52 0L97.80 0L97.80-16.56L101.16-16.56L101.44-13.44Q102.40-15.24 104.06-16.24Q105.72-17.24 107.84-17.24L107.84-17.24Q109.84-17.24 111.20-16.30Q112.56-15.36 112.96-13.72L112.96-13.72Q114-15.36 115.60-16.30Q117.20-17.24 119.04-17.24L119.04-17.24Z M146.48-16.56L150.20-16.56L150.20 0L146.84 0L146.60-3.16Q145.76-1.48 144-0.42Q142.24 0.64 140.08 0.64L140.08 0.64Q137.80 0.64 136.34-0.74Q134.88-2.12 134.80-4.32L134.80-4.32L134.80-16.56L138.52-16.56L138.52-5.64Q138.60-4.24 139.34-3.42Q140.08-2.60 141.56-2.56L141.56-2.56Q142.92-2.56 144.04-3.38Q145.16-4.20 145.82-5.64Q146.48-7.08 146.48-8.84L146.48-8.84L146.48-16.56Z M170.96-17.20Q173.28-17.20 174.80-15.82Q176.32-14.44 176.36-12.24L176.36-12.24L176.36 0L172.60 0L172.60-10.96Q172.52-12.36 171.76-13.16Q171-13.96 169.48-14L169.48-14Q167.28-14 165.84-12.24Q164.40-10.48 164.40-7.76L164.40-7.76L164.40 0L160.68 0L160.68-16.56L164.04-16.56L164.28-13.36Q165.16-15.16 166.92-16.18Q168.68-17.20 170.96-17.20L170.96-17.20Z M186.80-16.56L190.52-16.56L190.52 0L186.80 0L186.80-16.56ZM186.52-22.52Q186.52-23.40 187.20-24Q187.88-24.60 188.76-24.60L188.76-24.60Q189.64-24.60 190.30-24Q190.96-23.40 190.96-22.52L190.96-22.52Q190.96-21.64 190.30-21.04Q189.64-20.44 188.76-20.44L188.76-20.44Q187.88-20.44 187.20-21.04Q186.52-21.64 186.52-22.52L186.52-22.52Z M202.60-23.84L206.36-23.84L206.36-16.52L210.88-16.52L210.88-13.56L206.36-13.56L206.36 0L202.60 0L202.60-13.56L199.56-13.56L199.56-16.52L202.60-16.52L202.60-23.84Z M231.72-16.56L235.16-16.56L224.48 7.96L220.80 7.96L224.60-0.56L216.92-16.56L221.12-16.56L226.48-4.76L231.72-16.56Z M260.24-28.36L263.64-28.36L263.64 9.40L260.24 9.40L260.24-28.36Z M298.36-2.48Q297.04-1.44 294.22-0.56Q291.40 0.32 289 0.32L289 0.32Q284.48 0.32 281.04-1.54Q277.60-3.40 275.74-6.64Q273.88-9.88 273.88-13.92L273.88-13.92Q273.88-18.64 275.88-22.10Q277.88-25.56 281.28-27.40Q284.68-29.24 288.72-29.24L288.72-29.24Q291.16-29.24 293.32-28.66Q295.48-28.08 297.20-27.12L297.20-27.12L295.92-23.56Q294.64-24.28 292.70-24.82Q290.76-25.36 289.20-25.36L289.20-25.36Q285.84-25.36 283.26-24Q280.68-22.64 279.28-20.12Q277.88-17.60 277.88-14.24L277.88-14.24Q277.88-11.12 279.28-8.68Q280.68-6.24 283.24-4.90Q285.80-3.56 289.08-3.56L289.08-3.56Q290.60-3.56 292.04-3.86Q293.48-4.16 294.44-4.72L294.44-4.72L294.44-10.44L288.68-10.44L288.68-14.16L298.36-14.16L298.36-2.48Z M322.40-16.56L325.84-16.56L325.84 0L322.12 0L322.12-2.72Q321.24-1.56 319.56-0.58Q317.88 0.40 315.76 0.40L315.76 0.40Q313.40 0.40 311.50-0.62Q309.60-1.64 308.50-3.60Q307.40-5.56 307.40-8.28L307.40-8.28Q307.40-11 308.54-13.02Q309.68-15.04 311.62-16.14Q313.56-17.24 315.92-17.24L315.92-17.24Q318.04-17.24 319.60-16.32Q321.16-15.40 322.12-13.92L322.12-13.92L322.40-16.56ZM316.76-2.68Q318.80-2.68 320.26-3.82Q321.72-4.96 322.12-6.92L322.12-6.92L322.12-10.20Q321.64-11.96 320.12-13.06Q318.60-14.16 316.64-14.16L316.64-14.16Q315.16-14.16 313.90-13.44Q312.64-12.72 311.90-11.42Q311.16-10.12 311.16-8.48L311.16-8.48Q311.16-6.88 311.92-5.56Q312.68-4.24 313.96-3.46Q315.24-2.68 316.76-2.68L316.76-2.68Z M357.56-17.24Q359.96-17.24 361.38-15.88Q362.80-14.52 362.88-12.28L362.88-12.28L362.88 0L359.16 0L359.16-10.92Q359.04-13.84 356.52-14L356.52-14Q355.08-14 353.94-13.14Q352.80-12.28 352.16-10.88Q351.52-9.48 351.48-7.88L351.48-7.88L351.48 0L347.72 0L347.72-10.92Q347.60-13.84 345-14L345-14Q343.60-14 342.46-13.14Q341.32-12.28 340.68-10.86Q340.04-9.44 340.04-7.84L340.04-7.84L340.04 0L336.32 0L336.32-16.56L339.68-16.56L339.96-13.44Q340.92-15.24 342.58-16.24Q344.24-17.24 346.36-17.24L346.36-17.24Q348.36-17.24 349.72-16.30Q351.08-15.36 351.48-13.72L351.48-13.72Q352.52-15.36 354.12-16.30Q355.72-17.24 357.56-17.24L357.56-17.24Z M373.32-16.56L377.04-16.56L377.04 0L373.32 0L373.32-16.56ZM373.04-22.52Q373.04-23.40 373.72-24Q374.40-24.60 375.28-24.60L375.28-24.60Q376.16-24.60 376.82-24Q377.48-23.40 377.48-22.52L377.48-22.52Q377.48-21.64 376.82-21.04Q376.16-20.44 375.28-20.44L375.28-20.44Q374.40-20.44 373.72-21.04Q373.04-21.64 373.04-22.52L373.04-22.52Z M397.80-17.20Q400.12-17.20 401.64-15.82Q403.16-14.44 403.20-12.24L403.20-12.24L403.20 0L399.44 0L399.44-10.96Q399.36-12.36 398.60-13.16Q397.84-13.96 396.32-14L396.32-14Q394.12-14 392.68-12.24Q391.24-10.48 391.24-7.76L391.24-7.76L391.24 0L387.52 0L387.52-16.56L390.88-16.56L391.12-13.36Q392-15.16 393.76-16.18Q395.52-17.20 397.80-17.20L397.80-17.20Z M427.72-16.56L431.12-16.56L431.12 0.12Q431.12 2.40 429.96 4.24Q428.80 6.08 426.66 7.16Q424.52 8.24 421.64 8.24L421.64 8.24Q419.12 8.24 417.30 7.40Q415.48 6.56 413.64 4.92L413.64 4.92L415.84 2.36Q417.20 3.64 418.56 4.30Q419.92 4.96 421.56 4.96L421.56 4.96Q424.32 4.96 425.82 3.64Q427.32 2.32 427.36 0.08L427.36 0.08L427.40-3.04Q426.48-1.48 424.70-0.54Q422.92 0.40 420.60 0.40L420.60 0.40Q418.32 0.40 416.40-0.76Q414.48-1.92 413.34-3.92Q412.20-5.92 412.20-8.36L412.20-8.36Q412.20-10.88 413.38-12.90Q414.56-14.92 416.56-16.08Q418.56-17.24 420.84-17.24L420.84-17.24Q422.96-17.24 424.76-16.40Q426.56-15.56 427.44-14.24L427.44-14.24L427.72-16.56ZM421.68-2.68Q423.80-2.68 425.36-3.84Q426.92-5 427.40-6.88L427.40-6.88L427.40-10.16Q426.84-11.96 425.28-13.06Q423.72-14.16 421.68-14.16L421.68-14.16Q419.24-14.16 417.60-12.56Q415.96-10.96 415.96-8.48L415.96-8.48Q415.96-6.88 416.72-5.56Q417.48-4.24 418.80-3.46Q420.12-2.68 421.68-2.68L421.68-2.68Z M471.80-16.56L475.24-16.56L475.24 0L471.52 0L471.52-2.72Q470.64-1.56 468.96-0.58Q467.28 0.40 465.16 0.40L465.16 0.40Q462.80 0.40 460.90-0.62Q459.00-1.64 457.90-3.60Q456.80-5.56 456.80-8.28L456.80-8.28Q456.80-11 457.94-13.02Q459.08-15.04 461.02-16.14Q462.96-17.24 465.32-17.24L465.32-17.24Q467.44-17.24 469.00-16.32Q470.56-15.40 471.52-13.92L471.52-13.92L471.80-16.56ZM466.16-2.68Q468.20-2.68 469.66-3.82Q471.12-4.96 471.52-6.92L471.52-6.92L471.52-10.20Q471.04-11.96 469.52-13.06Q468.00-14.16 466.04-14.16L466.04-14.16Q464.56-14.16 463.30-13.44Q462.04-12.72 461.30-11.42Q460.56-10.12 460.56-8.48L460.56-8.48Q460.56-6.88 461.32-5.56Q462.08-4.24 463.36-3.46Q464.64-2.68 466.16-2.68L466.16-2.68Z M496.00-17.20Q498.32-17.20 499.84-15.82Q501.36-14.44 501.40-12.24L501.40-12.24L501.40 0L497.64 0L497.64-10.96Q497.56-12.36 496.80-13.16Q496.04-13.96 494.52-14L494.52-14Q492.32-14 490.88-12.24Q489.44-10.48 489.44-7.76L489.44-7.76L489.44 0L485.72 0L485.72-16.56L489.08-16.56L489.32-13.36Q490.20-15.16 491.96-16.18Q493.72-17.20 496.00-17.20L496.00-17.20Z M525.40-31L529.12-31L529.12 0L525.36 0L525.36-2.60Q524.16-1.20 522.42-0.40Q520.68 0.40 518.60 0.40L518.60 0.40Q516.28 0.40 514.40-0.72Q512.52-1.84 511.46-3.86Q510.40-5.88 510.40-8.52L510.40-8.52Q510.40-11.20 511.52-13.18Q512.64-15.16 514.60-16.20Q516.56-17.24 519.04-17.24L519.04-17.24Q520.92-17.24 522.66-16.46Q524.40-15.68 525.40-14.32L525.40-14.32L525.40-31ZM519.76-2.80Q521.92-2.80 523.42-3.96Q524.92-5.12 525.36-7.08L525.36-7.08L525.36-10.20Q524.88-12 523.32-13.14Q521.76-14.28 519.76-14.28L519.76-14.28Q518.24-14.28 516.96-13.54Q515.68-12.80 514.92-11.50Q514.16-10.20 514.16-8.56L514.16-8.56Q514.16-6.96 514.92-5.64Q515.68-4.32 516.96-3.56Q518.24-2.80 519.76-2.80L519.76-2.80Z M569.64-1.56Q568.52-0.64 566.98-0.12Q565.44 0.40 563.84 0.40L563.84 0.40Q561.16 0.40 559.10-0.68Q557.04-1.76 555.90-3.74Q554.76-5.72 554.76-8.32L554.76-8.32Q554.76-10.88 555.96-12.86Q557.16-14.84 559.16-15.92Q561.16-17 563.48-17L563.48-17Q567.28-17 569.76-14.92L569.76-14.92L567.88-12.48Q567.08-13.08 566.04-13.50Q565.00-13.92 563.80-13.92L563.80-13.92Q562.32-13.92 561.10-13.18Q559.88-12.44 559.18-11.16Q558.48-9.88 558.48-8.32L558.48-8.32Q558.48-6.76 559.22-5.48Q559.96-4.20 561.24-3.44Q562.52-2.68 564.16-2.68L564.16-2.68Q566.20-2.68 567.72-3.88L567.72-3.88L569.64-1.56Z M577.00-8.44Q577.00-10.88 578.18-12.90Q579.36-14.92 581.46-16.08Q583.56-17.24 586.20-17.24L586.20-17.24Q588.84-17.24 590.90-16.08Q592.96-14.92 594.10-12.92Q595.24-10.92 595.24-8.44L595.24-8.44Q595.24-5.96 594.10-3.94Q592.96-1.92 590.88-0.76Q588.80 0.40 586.12 0.40L586.12 0.40Q583.52 0.40 581.44-0.70Q579.36-1.80 578.18-3.80Q577.00-5.80 577.00-8.44L577.00-8.44ZM580.76-8.40Q580.76-6.84 581.46-5.52Q582.16-4.20 583.38-3.44Q584.60-2.68 586.08-2.68L586.08-2.68Q588.40-2.68 589.92-4.32Q591.44-5.96 591.44-8.40L591.44-8.40Q591.44-10.84 589.92-12.50Q588.40-14.16 586.08-14.16L586.08-14.16Q584.56-14.16 583.36-13.38Q582.16-12.60 581.46-11.28Q580.76-9.96 580.76-8.40L580.76-8.40Z M617.80-31L621.52-31L621.52 0L617.76 0L617.76-2.60Q616.56-1.20 614.82-0.40Q613.08 0.40 611.00 0.40L611.00 0.40Q608.68 0.40 606.80-0.72Q604.92-1.84 603.86-3.86Q602.80-5.88 602.80-8.52L602.80-8.52Q602.80-11.20 603.92-13.18Q605.04-15.16 607.00-16.20Q608.96-17.24 611.44-17.24L611.44-17.24Q613.32-17.24 615.06-16.46Q616.80-15.68 617.80-14.32L617.80-14.32L617.80-31ZM612.16-2.80Q614.32-2.80 615.82-3.96Q617.32-5.12 617.76-7.08L617.76-7.08L617.76-10.20Q617.28-12 615.72-13.14Q614.16-14.28 612.16-14.28L612.16-14.28Q610.64-14.28 609.36-13.54Q608.08-12.80 607.32-11.50Q606.56-10.20 606.56-8.56L606.56-8.56Q606.56-6.96 607.32-5.64Q608.08-4.32 609.36-3.56Q610.64-2.80 612.16-2.80L612.16-2.80Z M639.72-2.80Q641.80-2.80 643.76-4.24L643.76-4.24L645.48-1.48Q644.16-0.60 642.62-0.10Q641.08 0.40 639.64 0.40L639.64 0.40Q636.88 0.40 634.82-0.74Q632.76-1.88 631.64-3.88Q630.52-5.88 630.52-8.40L630.52-8.40Q630.52-10.84 631.74-12.86Q632.96-14.88 635.08-16.06Q637.20-17.24 639.72-17.24L639.72-17.24Q642.96-17.24 645.14-15.34Q647.32-13.44 648.12-10.04L648.12-10.04L635.00-5.44Q635.72-4.20 636.94-3.50Q638.16-2.80 639.72-2.80L639.72-2.80ZM639.44-14.28Q637.16-14.28 635.68-12.68Q634.20-11.08 634.20-8.60L634.20-8.60Q634.20-8 634.24-7.68L634.24-7.68L643.88-11.24Q643.28-12.60 642.18-13.44Q641.08-14.28 639.44-14.28L639.44-14.28Z M657.20-28.36L660.60-28.36L660.60 9.40L657.20 9.40L657.20-28.36Z M689.28-28.92L706.44-28.92L706.44-25.20L693.16-25.20L693.16-16L704.80-16L704.80-12.28L693.16-12.28L693.16 0L689.28 0L689.28-28.92Z M737.28 0L732.76 0L725.96-10.68Q725.64-10.64 725.00-10.64L725.00-10.64L720.72-10.64L720.72 0L716.84 0L716.84-28.92L724.56-28.92Q727.52-28.92 729.84-27.88Q732.16-26.84 733.48-24.82Q734.80-22.80 734.80-19.96L734.80-19.96Q734.80-17.28 733.62-15.04Q732.44-12.80 730.00-11.64L730.00-11.64L737.28 0ZM724.92-14.40Q728.04-14.40 729.42-16.04Q730.80-17.68 730.80-19.80L730.80-19.80Q730.80-21.08 730.22-22.32Q729.64-23.56 728.38-24.38Q727.12-25.20 725.20-25.20L725.20-25.20L720.72-25.20L720.72-14.40L724.92-14.40Z"/></g>
</svg>
</g><g opacity="1" transform="rotate(0 113.0846 478.951)">
<svg width="353.3714" height="60" x="113.0846" y="478.951" version="1.1" preserveAspectRatio="none" viewBox="1.04 -29.2 174.8 29.68">
  <g transform="matrix(1 0 0 1 0 0)" class="companyName"><path id="id-D6z1nYkh7" d="M27.68-19.56Q27.68-16.32 26.14-14.50Q24.60-12.68 21.36-11.90Q18.12-11.12 12.68-11.12L12.68-11.12L11.64-11.12L11.64-2.04Q11.64-1.60 11.82-1.44Q12-1.28 12.60-1.16L12.60-1.16L14.32-0.80L14.32 0L1.04 0L1.04-0.80L2.52-1.12Q3.12-1.24 3.30-1.40Q3.48-1.56 3.48-2L3.48-2L3.48-26Q3.48-26.44 3.30-26.60Q3.12-26.76 2.52-26.88L2.52-26.88L1.04-27.20L1.04-28L12.68-28Q18.12-28 21.36-27.22Q24.60-26.44 26.14-24.62Q27.68-22.80 27.68-19.56L27.68-19.56ZM11.64-26.80L11.64-12.32L13.04-12.32Q15.40-12.32 16.74-13.04Q18.08-13.76 18.68-15.32Q19.28-16.88 19.28-19.56L19.28-19.56Q19.28-22.24 18.68-23.80Q18.08-25.36 16.74-26.08Q15.40-26.80 13.04-26.80L13.04-26.80L11.64-26.80Z M37-22.48Q35.12-22.48 34-23.34Q32.88-24.20 32.88-25.84L32.88-25.84Q32.88-27.48 34-28.34Q35.12-29.20 37-29.20L37-29.20Q38.88-29.20 40-28.34Q41.12-27.48 41.12-25.84L41.12-25.84Q41.12-24.20 40-23.34Q38.88-22.48 37-22.48L37-22.48ZM30.64 0L30.64-0.72L32.04-1.04Q32.64-1.16 32.82-1.32Q33-1.48 33-1.92L33-1.92L33-17.04Q33-17.48 32.82-17.64Q32.64-17.80 32.04-17.92L32.04-17.92L30.64-18.24L30.64-18.96L40.24-20.16L41-20.16L41-1.92Q41-1.48 41.18-1.32Q41.36-1.16 41.96-1.04L41.96-1.04L43.36-0.72L43.36 0L30.64 0Z M63.68-16.32Q63.68-18.28 62.40-18.44L62.40-18.44L61.96-18.48L61.96-19.20Q64.36-19.92 66.64-19.92L66.64-19.92Q69-19.92 69.92-19.08Q70.84-18.24 70.84-16.64L70.84-16.64Q70.84-14.44 69.16-12.64Q67.48-10.84 63.28-10.24L63.28-10.24Q64.36-9.96 65.08-9.40Q65.80-8.84 66.72-7.68L66.72-7.68L71.16-1.84Q71.52-1.40 71.76-1.22Q72-1.04 72.44-0.96L72.44-0.96L73.68-0.72L73.68 0L66 0Q64.92 0 64.32-0.34Q63.72-0.68 63.28-1.36L63.28-1.36L57.08-10L55.72-10L55.72-1.92Q55.72-1.48 55.90-1.30Q56.08-1.12 56.64-1L56.64-1L58.00-0.72L58.00 0L45.36 0L45.36-0.72L46.76-1.04Q47.36-1.16 47.54-1.32Q47.72-1.48 47.72-1.92L47.72-1.92L47.72-26.08Q47.72-26.52 47.54-26.68Q47.36-26.84 46.76-26.96L46.76-26.96L45.36-27.28L45.36-28L54.96-29.20L55.72-29.20L55.72-11.04L58.04-11.04Q61.20-11.04 62.44-12.42Q63.68-13.80 63.68-16.32L63.68-16.32Z M91.04 0Q89.92 0 89.46-0.46Q89-0.92 89-2L89-2L89-2.20Q86.32 0.40 81.36 0.40L81.36 0.40Q78.76 0.40 77.30-0.78Q75.84-1.96 75.84-4.44L75.84-4.44Q75.84-6.92 77.30-8.32Q78.76-9.72 81.56-10.32Q84.36-10.92 89-11.04L89-11.04L89-13.96Q89-16.20 88.12-17.18Q87.24-18.16 85.04-18.16L85.04-18.16Q83.20-18.16 81.62-17.66Q80.04-17.16 78.40-16.16L78.40-16.16L77.88-16.92Q79.80-18.28 82.50-19.10Q85.20-19.92 88.56-19.92L88.56-19.92Q93.08-19.92 95-18.14Q96.92-16.36 96.92-13L96.92-13L96.92-1.92Q96.92-1.48 97.10-1.32Q97.28-1.16 97.88-1.04L97.88-1.04L99.28-0.72L99.28 0L91.04 0ZM85.84-2.12Q87.56-2.12 89-3.48L89-3.48L89-9.96Q86.76-9.80 85.60-9.26Q84.44-8.72 84.02-7.72Q83.60-6.72 83.60-5L83.60-5Q83.60-3.48 84.14-2.80Q84.68-2.12 85.84-2.12L85.84-2.12Z M124.76-26.12Q124.84-26.36 124.84-26.40L124.84-26.40Q124.84-26.68 124.60-26.86Q124.36-27.04 124.04-27.08L124.04-27.08L122.16-27.24L122.16-28L128.80-28L128.80-27.20L127.56-27.08Q126.92-27.04 126.68-26.82Q126.44-26.60 126.12-26.08L126.12-26.08L118.48-12.96L118.48-2Q118.48-1.56 118.66-1.40Q118.84-1.24 119.44-1.12L119.44-1.12L120.92-0.80L120.92 0L107.88 0L107.88-0.80L109.36-1.12Q109.96-1.24 110.14-1.40Q110.32-1.56 110.32-2L110.32-2L110.32-12.72L102.96-26.08Q102.68-26.56 102.44-26.78Q102.20-27 101.80-27.04L101.80-27.04L100.24-27.20L100.24-28L113.24-28L113.24-27.20L111.64-27.04Q111.08-27 111.08-26.56L111.08-26.56Q111.08-26.32 111.24-26.04L111.24-26.04L117.64-13.96L124.76-26.12Z M147.40-17.04Q147.40-17.48 147.22-17.64Q147.04-17.80 146.44-17.92L146.44-17.92L145.04-18.24L145.04-18.96L154.72-20.16L155.40-20.16L155.40-1.92Q155.40-1.48 155.58-1.32Q155.76-1.16 156.36-1.04L156.36-1.04L157.76-0.72L157.76 0L149.64 0Q148.48 0 147.98-0.50Q147.48-1 147.48-2.08L147.48-2.08L147.48-2.52Q146.04-1.28 143.84-0.40Q141.64 0.48 138.96 0.48L138.96 0.48Q135.24 0.48 133.64-1.08Q132.04-2.64 132.04-5.76L132.04-5.76L132.04-17.04Q132.04-17.48 131.86-17.64Q131.68-17.80 131.08-17.92L131.08-17.92L129.68-18.24L129.68-18.96L139.36-20.16L140.04-20.16L140.04-5.04Q140.04-3.24 140.62-2.48Q141.20-1.72 142.56-1.72L142.56-1.72Q144.96-1.72 147.40-3.72L147.40-3.72L147.40-17.04Z M162.20-18.40L159.60-18.40L159.60-19.44Q160.84-19.44 161.44-19.64Q162.04-19.84 162.64-20.36L162.64-20.36L169.76-26.76L170.12-26.76L170.12-19.44L175.28-19.44L175.28-18.40L170.12-18.40L170.12-4.96Q170.12-3.04 170.58-2.26Q171.04-1.48 172.16-1.48L172.16-1.48Q173.04-1.48 173.72-1.84Q174.40-2.20 175.20-3.08L175.20-3.08L175.84-2.32Q173.32 0.48 168.40 0.48L168.40 0.48Q165.08 0.48 163.64-0.92Q162.20-2.32 162.20-5.28L162.20-5.28L162.20-18.40Z"/></g>
</svg>
</g><g opacity="1" transform="rotate(0 201.4275 241.8036)">
<svg width="176.6857" height="207.1474" x="201.4275" y="241.8036" version="1.1" preserveAspectRatio="none" viewBox="25.52400016784668 21.29599952697754 48.96599578857422 57.40800476074219">
  <g transform="matrix(1 0 0 1 0 0)" class="icon1"><g><polygon points="50.001,30.124 65.662,30.124 65.662,56.845 50.001,67.896  "></polygon><g><path d="M50.001,78.704L25.524,61.42V21.296H74.49V61.42L50.001,78.704z M31.136,58.513l18.865,13.322    l18.877-13.323V26.907H31.136V58.513z"></path></g></g></g>
</svg>
</g></svg></svg>