<svg version="1.1" preserveAspectRatio="none" xmlns="http://www.w3.org/2000/svg" width="500" height="500" viewBox="0 0 500 500"><rect width="100%" height="100%" fill="#121212" fill-opacity="1"/><svg viewBox="153.8962 282.8719 406.2591 283.1239" width="333" height="232.0692846018711" x="83.5px" y="133.9654px" xmlns="http://www.w3.org/2000/svg" xmlns:xlink="http://www.w3.org/1999/xlink" preserveAspectRatio="none"><defs></defs><style>.companyName {fill:#E3E3E3;fill-opacity:1;}.icon1 {fill:#F1EC40;fill-opacity:1;}.icon2 {fill:#555555;fill-opacity:1;}.icon3 {fill:#AAAAAA;fill-opacity:1;}.icon3-str {stroke:#AAAAAA;stroke-opacity:1;}.text {fill:#E3E3E3;fill-opacity:1;}</style><g opacity="1" transform="rotate(0 153.8962 544.4958)">
<svg width="406.2591" height="21.5" x="153.8962" y="544.4958" version="1.1" preserveAspectRatio="none" viewBox="1.56 -29.92 721.0400000000001 38.16">
  <g transform="matrix(1 0 0 1 0 0)" class="text"><path id="id-6izo4zJp30" d="M15.04-2.60L15.04-2.60Q17.88-2.60 20.02-4.04Q22.16-5.48 23.20-7.92L23.20-7.92L26.36-7.92Q25.04-4.16 22-2L22-2Q18.76 0.32 14.36 0.32L14.36 0.32Q8.56 0.32 4.96-3.64L4.96-3.64Q1.56-7.44 1.56-13.24Q1.56-19.04 4.96-22.84L4.96-22.84Q8.56-26.80 14.36-26.80L14.36-26.80Q18.76-26.80 22-24.48L22-24.48Q25.04-22.32 26.36-18.56L26.36-18.56L23.20-18.56Q22.16-21 20.02-22.44Q17.88-23.88 15.04-23.88Q12.20-23.88 10.32-23.06Q8.44-22.24 7.16-20.80L7.16-20.80Q4.56-17.88 4.56-13.24L4.56-13.24Q4.56-8.60 7.16-5.68L7.16-5.68Q9.88-2.60 15.04-2.60Z M42.88-20.32L42.88-20.32Q47.36-20.32 50.16-17.32L50.16-17.32Q52.80-14.44 52.80-10L52.80-10Q52.80-5.56 50.16-2.68L50.16-2.68Q47.36 0.32 42.88 0.32L42.88 0.32Q38.40 0.32 35.60-2.68L35.60-2.68Q32.96-5.56 32.96-10L32.96-10Q32.96-14.44 35.60-17.32L35.60-17.32Q38.40-20.32 42.88-20.32ZM42.88-2.40L42.88-2.40Q46.12-2.40 48-4.64L48-4.64Q49.80-6.76 49.80-10L49.80-10Q49.80-13.24 48-15.36L48-15.36Q46.12-17.60 42.88-17.60L42.88-17.60Q39.64-17.60 37.76-15.36L37.76-15.36Q35.96-13.24 35.96-10L35.96-10Q35.96-6.76 37.76-4.64L37.76-4.64Q39.64-2.40 42.88-2.40Z M63.76-20L63.76-16.96Q65.76-20.32 69.84-20.32L69.84-20.32Q71.84-20.32 73.54-19.26Q75.24-18.20 76.20-16.28L76.20-16.28Q77.56-18.80 80.44-19.88L80.44-19.88Q81.60-20.32 83.06-20.32Q84.52-20.32 85.86-19.74Q87.20-19.16 88.24-18.08L88.24-18.08Q90.48-15.68 90.48-12.08L90.48-12.08L90.48 0L87.48 0L87.48-12Q87.48-14.48 86.08-16.08L86.08-16.08Q84.68-17.60 82.52-17.60L82.52-17.60Q80.24-17.60 78.72-16.12L78.72-16.12Q77.12-14.60 77.12-11.96L77.12-11.96L77.12 0L74.12 0L74.12-12Q74.12-14.48 72.72-16.08L72.72-16.08Q71.32-17.60 69.16-17.60L69.16-17.60Q66.88-17.60 65.36-16.12L65.36-16.12Q63.76-14.60 63.76-11.96L63.76-11.96L63.76 0L60.76 0L60.76-20L63.76-20Z M102.48-20L102.48-16.96Q104.48-20.32 108.56-20.32L108.56-20.32Q110.56-20.32 112.26-19.26Q113.96-18.20 114.92-16.28L114.92-16.28Q116.28-18.80 119.16-19.88L119.16-19.88Q120.32-20.32 121.78-20.32Q123.24-20.32 124.58-19.74Q125.92-19.16 126.96-18.08L126.96-18.08Q129.20-15.68 129.20-12.08L129.20-12.08L129.20 0L126.20 0L126.20-12Q126.20-14.48 124.80-16.08L124.80-16.08Q123.40-17.60 121.24-17.60L121.24-17.60Q118.96-17.60 117.44-16.12L117.44-16.12Q115.84-14.60 115.84-11.96L115.84-11.96L115.84 0L112.84 0L112.84-12Q112.84-14.48 111.44-16.08L111.44-16.08Q110.04-17.60 107.88-17.60L107.88-17.60Q105.60-17.60 104.08-16.12L104.08-16.12Q102.48-14.60 102.48-11.96L102.48-11.96L102.48 0L99.48 0L99.48-20L102.48-20Z M155.44 0L152.44 0L152.44-3.12Q151.36-1.68 149.80-0.68Q148.24 0.32 146.24 0.32Q144.24 0.32 142.80-0.24Q141.36-0.80 140.28-1.92L140.28-1.92Q137.80-4.36 137.80-8.36L137.80-8.36L137.80-20L140.80-20L140.80-8.44Q140.80-5.68 142.36-4.04Q143.92-2.40 146.40-2.40L146.40-2.40Q148.92-2.40 150.68-4.08L150.68-4.08Q152.44-5.80 152.44-8.48L152.44-8.48L152.44-20L155.44-20L155.44 0Z M164.64-20L167.64-20L167.64-16.88Q168.72-18.32 170.28-19.32Q171.84-20.32 173.84-20.32Q175.84-20.32 177.28-19.76Q178.72-19.20 179.80-18.08L179.80-18.08Q182.28-15.64 182.28-11.64L182.28-11.64L182.28 0L179.28 0L179.28-11.56Q179.28-14.32 177.72-15.96Q176.16-17.60 173.68-17.60L173.68-17.60Q171.16-17.60 169.40-15.92L169.40-15.92Q167.64-14.20 167.64-11.52L167.64-11.52L167.64 0L164.64 0L164.64-20Z M191.28 0L191.28-20L194.28-20L194.28 0L191.28 0ZM191.16-27.28L194.40-27.28L194.40-23.36L191.16-23.36L191.16-27.28Z M208.64 0L205.64 0L205.64-17.36L201.56-17.36L201.56-20L205.64-20L205.64-27.16L208.64-27.16L208.64-20L213.24-20L213.24-17.36L208.64-17.36L208.64 0Z M237.68-20L225.84 7.92L222.60 7.92L226.24-0.28L218.08-20L221.40-20L227.84-3.60L234.40-20L237.68-20Z M259.36 7.16L256.92 7.16L256.92-29.92L259.36-29.92L259.36 7.16Z M271.08-22.84Q272.76-24.68 275.16-25.74Q277.56-26.80 280.12-26.80Q282.68-26.80 284.56-26.24Q286.44-25.68 287.96-24.72L287.96-24.72Q291.12-22.68 292.60-19.28L292.60-19.28L289.32-19.28Q288.12-21.44 285.98-22.66Q283.84-23.88 281.12-23.88Q278.40-23.88 276.48-23.06Q274.56-22.24 273.24-20.80L273.24-20.80Q270.52-17.84 270.52-13.24L270.52-13.24Q270.52-8.60 273.20-5.68L273.20-5.68Q276.04-2.60 280.72-2.60L280.72-2.60Q284.48-2.60 287.20-4.92L287.20-4.92Q290.08-7.36 290.08-11.36L290.08-11.36L280.40-11.36L280.40-14.08L292.84-14.08L292.84 0L290.08 0L290.08-4.68Q287.80-1.24 283.76-0.08L283.76-0.08Q282.28 0.32 279.86 0.32Q277.44 0.32 275.04-0.74Q272.64-1.80 270.96-3.64L270.96-3.64Q267.52-7.40 267.52-13.24L267.52-13.24Q267.52-19 271.08-22.84L271.08-22.84Z M317.08 0L317.08-3.20Q314.68 0.32 309.92 0.32L309.92 0.32Q305.60 0.32 302.88-2.68L302.88-2.68Q300.24-5.64 300.24-10L300.24-10Q300.24-14.36 302.88-17.32L302.88-17.32Q305.60-20.32 310.12-20.32Q314.64-20.32 317.08-16.76L317.08-16.76L317.08-20L320.08-20L320.08 0L317.08 0ZM310.32-2.40L310.32-2.40Q313.56-2.40 315.44-4.64L315.44-4.64Q317.24-6.76 317.24-10L317.24-10Q317.24-13.24 315.44-15.36L315.44-15.36Q313.56-17.60 310.32-17.60L310.32-17.60Q307.12-17.60 305.12-15.36L305.12-15.36Q303.24-13.24 303.24-10L303.24-10Q303.24-6.76 305.12-4.64L305.12-4.64Q307.12-2.40 310.32-2.40Z M332.28-20L332.28-16.96Q334.28-20.32 338.36-20.32L338.36-20.32Q340.36-20.32 342.06-19.26Q343.76-18.20 344.72-16.28L344.72-16.28Q346.08-18.80 348.96-19.88L348.96-19.88Q350.12-20.32 351.58-20.32Q353.04-20.32 354.38-19.74Q355.72-19.16 356.76-18.08L356.76-18.08Q359-15.68 359-12.08L359-12.08L359 0L356 0L356-12Q356-14.48 354.60-16.08L354.60-16.08Q353.20-17.60 351.04-17.60L351.04-17.60Q348.76-17.60 347.24-16.12L347.24-16.12Q345.64-14.60 345.64-11.96L345.64-11.96L345.64 0L342.64 0L342.64-12Q342.64-14.48 341.24-16.08L341.24-16.08Q339.84-17.60 337.68-17.60L337.68-17.60Q335.40-17.60 333.88-16.12L333.88-16.12Q332.28-14.60 332.28-11.96L332.28-11.96L332.28 0L329.28 0L329.28-20L332.28-20Z M368 0L368-20L371-20L371 0L368 0ZM367.88-27.28L371.12-27.28L371.12-23.36L367.88-23.36L367.88-27.28Z M380.20-20L383.20-20L383.20-16.88Q384.28-18.32 385.84-19.32Q387.40-20.32 389.40-20.32Q391.40-20.32 392.84-19.76Q394.28-19.20 395.36-18.08L395.36-18.08Q397.84-15.64 397.84-11.64L397.84-11.64L397.84 0L394.84 0L394.84-11.56Q394.84-14.32 393.28-15.96Q391.72-17.60 389.24-17.60L389.24-17.60Q386.72-17.60 384.96-15.92L384.96-15.92Q383.20-14.20 383.20-11.52L383.20-11.52L383.20 0L380.20 0L380.20-20Z M422.44-16.80L422.44-16.80L422.44-20L425.44-20L425.44-0.60Q425.44 3.72 422.98 5.98Q420.52 8.24 416.36 8.24Q412.20 8.24 409.86 6.64Q407.52 5.04 406.68 2.40L406.68 2.40L410.00 2.40Q411.28 5.52 415.84 5.52L415.84 5.52Q419.32 5.52 420.88 3.92Q422.44 2.32 422.44-0.80L422.44-0.80L422.44-3.56Q420.00 0 415.28 0L415.28 0Q410.96 0 408.24-2.96L408.24-2.96Q405.60-5.84 405.60-10.16L405.60-10.16Q405.60-14.48 408.24-17.36L408.24-17.36Q410.96-20.32 415.50-20.32Q420.04-20.32 422.44-16.80ZM415.68-2.72L415.68-2.72Q417.32-2.72 418.60-3.30Q419.88-3.88 420.80-4.88L420.80-4.88Q422.60-6.96 422.60-10.16L422.60-10.16Q422.60-13.36 420.80-15.44L420.80-15.44Q418.84-17.60 415.68-17.60L415.68-17.60Q412.44-17.60 410.48-15.44L410.48-15.44Q408.60-13.32 408.60-10.16L408.60-10.16Q408.60-7 410.48-4.88L410.48-4.88Q412.44-2.72 415.68-2.72Z M462.76 0L462.76-3.20Q460.36 0.32 455.60 0.32L455.60 0.32Q451.28 0.32 448.56-2.68L448.56-2.68Q445.92-5.64 445.92-10L445.92-10Q445.92-14.36 448.56-17.32L448.56-17.32Q451.28-20.32 455.80-20.32Q460.32-20.32 462.76-16.76L462.76-16.76L462.76-20L465.76-20L465.76 0L462.76 0ZM456.00-2.40L456.00-2.40Q459.24-2.40 461.12-4.64L461.12-4.64Q462.92-6.76 462.92-10L462.92-10Q462.92-13.24 461.12-15.36L461.12-15.36Q459.24-17.60 456.00-17.60L456.00-17.60Q452.80-17.60 450.80-15.36L450.80-15.36Q448.92-13.24 448.92-10L448.92-10Q448.92-6.76 450.80-4.64L450.80-4.64Q452.80-2.40 456.00-2.40Z M474.96-20L477.96-20L477.96-16.88Q479.04-18.32 480.60-19.32Q482.16-20.32 484.16-20.32Q486.16-20.32 487.60-19.76Q489.04-19.20 490.12-18.08L490.12-18.08Q492.60-15.64 492.60-11.64L492.60-11.64L492.60 0L489.60 0L489.60-11.56Q489.60-14.32 488.04-15.96Q486.48-17.60 484.00-17.60L484.00-17.60Q481.48-17.60 479.72-15.92L479.72-15.92Q477.96-14.20 477.96-11.52L477.96-11.52L477.96 0L474.96 0L474.96-20Z M517.20 0L517.20-3.20Q514.80 0.32 510.04 0.32L510.04 0.32Q505.72 0.32 503.00-2.68L503.00-2.68Q500.36-5.64 500.36-10L500.36-10Q500.36-14.36 503.00-17.32L503.00-17.32Q505.72-20.32 510.24-20.32Q514.76-20.32 517.20-16.76L517.20-16.76L517.20-28L520.20-28L520.20 0L517.20 0ZM510.44-2.40L510.44-2.40Q513.68-2.40 515.56-4.64L515.56-4.64Q517.36-6.76 517.36-10L517.36-10Q517.36-13.24 515.56-15.36L515.56-15.36Q513.68-17.60 510.44-17.60L510.44-17.60Q507.24-17.60 505.24-15.36L505.24-15.36Q503.36-13.24 503.36-10L503.36-10Q503.36-6.76 505.24-4.64L505.24-4.64Q507.24-2.40 510.44-2.40Z M551.16-2.40L551.16-2.40Q553.08-2.40 554.56-3.48Q556.04-4.56 556.72-6.28L556.72-6.28L559.96-6.28Q559.04-3.32 556.60-1.52L556.60-1.52Q554.04 0.32 550.52 0.32L550.52 0.32Q546.12 0.32 543.36-2.68L543.36-2.68Q540.68-5.60 540.68-10L540.68-10Q540.68-14.40 543.36-17.32L543.36-17.32Q546.12-20.32 550.52-20.32L550.52-20.32Q554.04-20.32 556.60-18.48L556.60-18.48Q559.04-16.68 559.96-13.72L559.96-13.72L556.72-13.72Q556.04-15.44 554.56-16.52Q553.08-17.60 551.16-17.60Q549.24-17.60 547.90-17Q546.56-16.40 545.64-15.36L545.64-15.36Q543.68-13.20 543.68-10L543.68-10Q543.68-6.80 545.64-4.64L545.64-4.64Q547.64-2.40 551.16-2.40Z M576.36-20.32L576.36-20.32Q580.84-20.32 583.64-17.32L583.64-17.32Q586.28-14.44 586.28-10L586.28-10Q586.28-5.56 583.64-2.68L583.64-2.68Q580.84 0.32 576.36 0.32L576.36 0.32Q571.88 0.32 569.08-2.68L569.08-2.68Q566.44-5.56 566.44-10L566.44-10Q566.44-14.44 569.08-17.32L569.08-17.32Q571.88-20.32 576.36-20.32ZM576.36-2.40L576.36-2.40Q579.60-2.40 581.48-4.64L581.48-4.64Q583.28-6.76 583.28-10L583.28-10Q583.28-13.24 581.48-15.36L581.48-15.36Q579.60-17.60 576.36-17.60L576.36-17.60Q573.12-17.60 571.24-15.36L571.24-15.36Q569.44-13.24 569.44-10L569.44-10Q569.44-6.76 571.24-4.64L571.24-4.64Q573.12-2.40 576.36-2.40Z M609.84 0L609.84-3.20Q607.44 0.32 602.68 0.32L602.68 0.32Q598.36 0.32 595.64-2.68L595.64-2.68Q593.00-5.64 593.00-10L593.00-10Q593.00-14.36 595.64-17.32L595.64-17.32Q598.36-20.32 602.88-20.32Q607.40-20.32 609.84-16.76L609.84-16.76L609.84-28L612.84-28L612.84 0L609.84 0ZM603.08-2.40L603.08-2.40Q606.32-2.40 608.20-4.64L608.20-4.64Q610.00-6.76 610.00-10L610.00-10Q610.00-13.24 608.20-15.36L608.20-15.36Q606.32-17.60 603.08-17.60L603.08-17.60Q599.88-17.60 597.88-15.36L597.88-15.36Q596.00-13.24 596.00-10L596.00-10Q596.00-6.76 597.88-4.64L597.88-4.64Q599.88-2.40 603.08-2.40Z M630.96-2.40L630.96-2.40Q635.00-2.40 636.76-5.76L636.76-5.76L640.04-5.76Q639.00-3.04 636.74-1.36Q634.48 0.32 630.92 0.32L630.92 0.32Q626.40 0.32 623.56-2.68L623.56-2.68Q620.80-5.60 620.80-10L620.80-10Q620.80-14.44 623.44-17.32L623.44-17.32Q626.24-20.32 630.72-20.32L630.72-20.32Q635.20-20.32 638.00-17.32L638.00-17.32Q640.64-14.44 640.64-10L640.64-10L640.64-8.80L623.88-8.80Q624.20-6.04 626.08-4.24L626.08-4.24Q628.00-2.40 630.96-2.40ZM630.72-17.60L630.72-17.60Q627.96-17.60 626.08-15.88L626.08-15.88Q624.32-14.24 623.92-11.60L623.92-11.60L637.52-11.60Q637.12-14.24 635.36-15.88L635.36-15.88Q633.48-17.60 630.72-17.60Z M650.76 7.16L648.32 7.16L648.32-29.92L650.76-29.92L650.76 7.16Z M692.24-23.60L676.12-23.60L676.12-14.40L690.48-14.40L690.48-11.48L676.12-11.48L676.12 0L673.12 0L673.12-26.48L692.24-26.48L692.24-23.60Z M703.44-10.16L703.44 0L700.44 0L700.44-26.48L713.12-26.48Q717.16-26.48 719.60-24.24L719.60-24.24Q722.04-22.04 722.04-18.20L722.04-18.20Q722.04-13.24 717.92-11.44L717.92-11.44Q716.76-10.92 715.64-10.68L715.64-10.68L722.60 0L719.04 0L712.64-10.16L703.44-10.16ZM703.44-23.64L703.44-13L712.60-13Q716.84-13 718.44-15.64L718.44-15.64Q719.04-16.64 719.04-18.20L719.04-18.20Q719.04-20.72 717.32-22.18Q715.60-23.64 712.76-23.64L712.76-23.64L703.44-23.64Z"/></g>
</svg>
</g><g opacity="1" transform="rotate(0 179.2186 468.4958)">
<svg width="355.6142" height="50" x="179.2186" y="468.4958" version="1.1" preserveAspectRatio="none" viewBox="2.8711 -28.0078 199.1992 28.0078">
  <g transform="matrix(1 0 0 1 0 0)" class="companyName"><path id="id-D6z1nYkh7" d="M30.86-18.59L30.86-16.29Q30.86-14.55 30.43-13.18Q30-11.82 29.27-10.77Q28.54-9.73 27.58-8.98Q26.62-8.24 25.58-7.77Q24.53-7.30 23.47-7.09Q22.40-6.88 21.46-6.88L21.46-6.88L9.98-6.88L9.98-11.95L21.46-11.95Q22.44-12.03 23.23-12.35Q24.02-12.68 24.59-13.22Q25.16-13.77 25.47-14.54Q25.78-15.31 25.78-16.29L25.78-16.29L25.78-18.59Q25.68-19.55 25.37-20.35Q25.06-21.15 24.52-21.72Q23.98-22.29 23.22-22.61Q22.46-22.93 21.46-22.93L21.46-22.93L10.02-22.93Q9.00-22.93 8.48-22.40Q7.95-21.88 7.95-20.88L7.95-20.88L7.95 0L2.87 0L2.87-20.88Q2.87-22.83 3.58-24.20Q4.30-25.57 5.36-26.41Q6.43-27.25 7.68-27.63Q8.93-28.01 9.98-28.01L9.98-28.01L21.46-28.01Q23.18-28.01 24.55-27.57Q25.92-27.13 26.96-26.40Q28.01-25.66 28.74-24.71Q29.47-23.75 29.95-22.71Q30.43-21.66 30.64-20.60Q30.86-19.53 30.86-18.59L30.86-18.59Z M40.31-28.01L40.31 0L35.23 0L35.23-28.01L40.31-28.01Z M61.21-14.00L75.61 0L68.40 0L56.97-11.45L53.40-11.45L53.40-16.56L56.97-16.56L68.40-28.01L75.61-28.01L61.21-14.00ZM51.37-28.01L51.37 0L46.29 0L46.29-28.01L51.37-28.01Z M106.27-25.45L106.27 0L101.19 0L101.19-6.88L83.34-6.88L83.34 0L78.26 0L78.26-14.00Q78.26-17.07 79.32-19.65Q80.37-22.23 82.25-24.08Q84.12-25.94 86.68-26.97Q89.24-28.01 92.27-28.01L92.27-28.01L103.71-28.01Q104.24-28.01 104.71-27.81Q105.18-27.62 105.53-27.27Q105.88-26.91 106.07-26.45Q106.27-25.98 106.27-25.45L106.27-25.45ZM83.34-14.00L83.34-11.95L101.19-11.95L101.19-22.93L92.27-22.93Q92.03-22.93 91.28-22.86Q90.53-22.79 89.54-22.52Q88.55-22.25 87.46-21.68Q86.37-21.11 85.45-20.12Q84.53-19.12 83.94-17.63Q83.34-16.13 83.34-14.00L83.34-14.00Z M138.85-28.01L138.85-18.63Q138.85-16.89 138.41-15.53Q137.97-14.16 137.25-13.12Q136.52-12.07 135.56-11.33Q134.59-10.59 133.55-10.11Q132.52-9.63 131.46-9.41Q130.39-9.20 129.45-9.20L129.45-9.20L127.40-9.20L127.40 0L122.29 0L122.29-9.20L120.25-9.20Q119.32-9.20 118.25-9.41Q117.19-9.63 116.14-10.11Q115.10-10.59 114.14-11.33Q113.18-12.07 112.45-13.12Q111.72-14.16 111.28-15.54Q110.84-16.91 110.84-18.63L110.84-18.63L110.84-28.01L115.92-28.01L115.92-18.63Q115.92-17.64 116.23-16.85Q116.54-16.05 117.11-15.49Q117.68-14.92 118.49-14.62Q119.30-14.32 120.29-14.32L120.29-14.32L129.45-14.32Q130.18-14.43 130.94-14.62Q131.70-14.80 132.32-15.25Q132.95-15.70 133.36-16.50Q133.77-17.30 133.77-18.63L133.77-18.63L133.77-28.01L138.85-28.01Z M170.86-28.01L170.86-2.56Q170.86-2.01 170.66-1.54Q170.47-1.07 170.12-0.73Q169.77-0.39 169.30-0.20Q168.83 0 168.30 0L168.30 0L156.86 0Q155.23 0 153.57-0.35Q151.91-0.70 150.36-1.44Q148.81-2.17 147.44-3.30Q146.07-4.43 145.05-5.99Q144.02-7.54 143.44-9.54Q142.85-11.54 142.85-14.00L142.85-14.00L142.85-28.01L147.93-28.01L147.93-14.00Q147.93-11.86 148.53-10.37Q149.12-8.89 150.04-7.89Q150.96-6.89 152.05-6.33Q153.14-5.76 154.13-5.49Q155.12-5.21 155.87-5.15Q156.62-5.08 156.86-5.08L156.86-5.08L165.78-5.08L165.78-28.01L170.86-28.01Z M202.07-28.01L202.07-22.93L190.88-22.93L190.88 0L185.80 0L185.80-22.93L174.59-22.93L174.59-28.01L202.07-28.01Z"/></g>
</svg>
</g><g opacity="1" transform="rotate(0 268.1222 282.8719)">
<svg width="177.8071" height="155.6239" x="268.1222" y="282.8719" version="1.1" preserveAspectRatio="none" viewBox="501.82196044921875 4182.99072265625 58995.57421875 51635.2890625">
  <g transform="matrix(1 0 0 1 0 0)" class="icon1"><defs></defs><g><path class="fil0" d="M7534 54968l10613 -142 5299 -9195 -10871 19 -5040 9317zm17510 -30808l4958 138c835,-1432 1753,-3190 2650,-4514 34,-51 79,-92 130,-122 7,-4 14,-8 21,-12 38,-19 80,-33 124,-39 20,-3 40,-4 60,-4l5172 -60c3,-5 6,-10 9,-16l2534 -4257 -10860 19 -4797 8866zm4371 919l-4973 -139c-83,13 -171,0 -251,-43 -68,-37 -122,-91 -158,-154l-2775 -4409 -5344 62 5275 9388 10882 -19 -2658 -4687zm-19321 28277l1894 -25c138,-2 250,109 252,246 2,138 -109,250 -246,252l-2303 31c-46,4 -93,-6 -137,-29 -121,-65 -167,-217 -102,-338l1114 -2059c65,-121 217,-167 338,-102 121,65 167,217 102,338l-912 1687zm21511 -46908c-138,1 -250,-110 -251,-247 -1,-138 110,-250 247,-251l3053 -35c94,-1 175,50 219,126l0 0 1256 2216c68,120 26,272 -94,340 -120,68 -272,26 -340,-94l-1184 -2088 -2907 34zm-22422 49295l-2294 31c-73,6 -149,-9 -219,-47 -74,-40 -130,-99 -166,-169l-5950 -10478c-73,-128 -67,-279 3,-398l5459 -9650c78,-138 226,-211 374,-201l5719 139 -2994 -4906c-83,-136 -75,-303 8,-428 1813,-3089 3824,-6962 5783,-9852 34,-51 79,-92 130,-122 7,-4 14,-8 21,-12 38,-19 80,-33 124,-39 20,-3 40,-4 60,-4l5520 -64 -2997 -4762c-86,-136 -79,-303 3,-430 1813,-3090 3825,-6964 5785,-9856 34,-51 79,-92 130,-122 7,-4 14,-8 21,-12 38,-19 80,-33 124,-39 20,-3 40,-4 60,-4l11675 -135c150,-1 281,80 350,202l0 0 5836 10293c78,138 65,303 -19,425l-2639 4434 5571 -65c150,-1 281,80 350,202l0 0 5830 10281c76,124 81,284 1,417l-2725 4455 4799 -33c145,-1 271,76 342,191l0 0 6181 10082c83,137 75,304 -8,429l-5737 9955c-66,125 -197,211 -348,213l-11494 153c-73,6 -149,-9 -219,-47 -69,-37 -122,-91 -158,-154l-2777 -4561 -2533 4396c-66,125 -197,211 -348,213l-11494 153c-73,6 -149,-9 -219,-47 -69,-37 -122,-91 -158,-154l-2740 -4499 -2474 4293c-66,125 -197,211 -348,213l-9200 123zm15283 -10287l-2806 4870 2612 4289 5038 -9313 -5511 -9249 -2310 3932 2991 5043c81,137 71,304 -13,427zm-11904 -603l10874 -19 -2706 -4563 -5231 -146c-73,3 -148,-13 -217,-52 -68,-39 -120,-94 -154,-158l-2524 -4135 -5529 -134 5487 9208zm-685 408l-5504 -9238 -5012 8860 5491 9669 5026 -9291zm13089 9747l10613 -142 5299 -9195 -10871 19 -5040 9317zm16934 -9515l-2749 4770 2649 4351 5038 -9313 -5511 -9249 -2398 4083c-7,12 -14,23 -22,33l3001 4896c83,137 75,304 -8,429zm-11906 -599l10862 -19 -5692 -9285 -10670 73 5500 9230zm-9132 -5417c821,-1398 1717,-3115 2603,-4429 37,-55 85,-97 139,-127 6,-3 13,-7 19,-10 34,-16 70,-28 108,-34 4,-1 8,-1 12,-2 19,-3 39,-4 58,-3l5713 -39c2,-4 5,-9 7,-13l2534 -4257 -10867 19 -5030 8765 4703 131zm9582 -4651l4818 -33 2884 -4673 -5174 -9311 -2574 4387 2705 4770c78,138 65,303 -19,425l-2640 4436zm5460 444l2532 4131c807,-1373 1687,-3062 2558,-4353 37,-55 85,-97 139,-127 6,-3 13,-7 19,-10 34,-16 70,-28 108,-34 4,-1 8,-1 12,-2 19,-3 39,-4 58,-3l5846 -40 2614 -4272 -10960 -30 -2926 4741zm6591 19738l10613 -142 5299 -9195 -10871 19 -5040 9317zm5028 -10114l10862 -19 -5692 -9285 -5176 36c-80,27 -169,29 -252,2l-5242 36 5500 9230zm-27027 -14713l-5268 -9374 -5309 9045 5548 9090 5028 -8761zm18347 -448l10972 30 -5382 -9491 -10778 125 5188 9336zm-9007 -15236l10882 -19 -5384 -9494 -10774 125 5275 9388zm-11268 65l5786 9195 4792 -8856 -5271 -9380 -5307 9042z"></path></g></g>
</svg>
</g></svg></svg>