<svg version="1.1" preserveAspectRatio="none" xmlns="http://www.w3.org/2000/svg" width="500" height="500" viewBox="0 0 500 500"><rect width="100%" height="100%" fill="#F7F7F7" fill-opacity="1"/><svg viewBox="90.9679 306.2235 436.9986 135.2" width="333" height="103.0245863487892" x="83.5px" y="198.4877px" xmlns="http://www.w3.org/2000/svg" xmlns:xlink="http://www.w3.org/1999/xlink" preserveAspectRatio="none"><defs></defs><style>.companyName {fill:#26374D;fill-opacity:1;}.icon1 {fill:#CCBFA3;fill-opacity:1;}.icon3-str {stroke:#868686;stroke-opacity:1;}.shapeStroke-str {stroke:#26374D;stroke-opacity:1;}.text {fill:#26374D;fill-opacity:1;}</style><g opacity="1" transform="rotate(0 90.9679 306.2235)">
<svg width="4" height="135.2" x="90.9679" y="306.2235" version="1.1" preserveAspectRatio="none" viewBox="0 0 4 135.2">
  <defs><rect x="0" y="0" width="4" height="135.2" rx="0%" ry="0%" id="id-EiCqXr4G1676915546997"></rect></defs><use class="icon1 shapeStroke-str" style="stroke-width:0;" xlink:href="#id-EiCqXr4G1676915546997"></use>
</svg>
</g><g opacity="1" transform="rotate(0 112.9679 401.2235)">
<svg width="414.9986" height="25.2" x="112.9679" y="401.2235" version="1.1" preserveAspectRatio="none" viewBox="2.36 -31 665.32 40.4">
  <g transform="matrix(1 0 0 1 0 0)" class="text"><path id="id-6izo4zJp30" d="M25.40-2.16Q24-1.24 21.86-0.46Q19.72 0.32 17.20 0.32L17.20 0.32Q12.76 0.32 9.38-1.64Q6-3.60 4.18-6.92Q2.36-10.24 2.36-14.24L2.36-14.24Q2.36-18.52 4.20-21.94Q6.04-25.36 9.30-27.30Q12.56-29.24 16.68-29.24L16.68-29.24Q19.12-29.24 21.24-28.60Q23.36-27.96 25.04-26.92L25.04-26.92L23.48-23.28Q20.16-25.52 16.80-25.52L16.80-25.52Q14-25.52 11.62-24.04Q9.24-22.56 7.82-20.02Q6.40-17.48 6.40-14.44L6.40-14.44Q6.40-11.32 7.70-8.80Q9-6.28 11.42-4.86Q13.84-3.44 17-3.44L17-3.44Q20.88-3.44 23.76-5.64L23.76-5.64L25.40-2.16Z M31.16-8.44Q31.16-10.88 32.34-12.90Q33.52-14.92 35.62-16.08Q37.72-17.24 40.36-17.24L40.36-17.24Q43-17.24 45.06-16.08Q47.12-14.92 48.26-12.92Q49.40-10.92 49.40-8.44L49.40-8.44Q49.40-5.96 48.26-3.94Q47.12-1.92 45.04-0.76Q42.96 0.40 40.28 0.40L40.28 0.40Q37.68 0.40 35.60-0.70Q33.52-1.80 32.34-3.80Q31.16-5.80 31.16-8.44L31.16-8.44ZM34.92-8.40Q34.92-6.84 35.62-5.52Q36.32-4.20 37.54-3.44Q38.76-2.68 40.24-2.68L40.24-2.68Q42.56-2.68 44.08-4.32Q45.60-5.96 45.60-8.40L45.60-8.40Q45.60-10.84 44.08-12.50Q42.56-14.16 40.24-14.16L40.24-14.16Q38.72-14.16 37.52-13.38Q36.32-12.60 35.62-11.28Q34.92-9.96 34.92-8.40L34.92-8.40Z M77.24-17.24Q79.64-17.24 81.06-15.88Q82.48-14.52 82.56-12.28L82.56-12.28L82.56 0L78.84 0L78.84-10.92Q78.72-13.84 76.20-14L76.20-14Q74.76-14 73.62-13.14Q72.48-12.28 71.84-10.88Q71.20-9.48 71.16-7.88L71.16-7.88L71.16 0L67.40 0L67.40-10.92Q67.28-13.84 64.68-14L64.68-14Q63.28-14 62.14-13.14Q61.00-12.28 60.36-10.86Q59.72-9.44 59.72-7.84L59.72-7.84L59.72 0L56.00 0L56.00-16.56L59.36-16.56L59.64-13.44Q60.60-15.24 62.26-16.24Q63.92-17.24 66.04-17.24L66.04-17.24Q68.04-17.24 69.40-16.30Q70.76-15.36 71.16-13.72L71.16-13.72Q72.20-15.36 73.80-16.30Q75.40-17.24 77.24-17.24L77.24-17.24Z M111.84-17.24Q114.24-17.24 115.66-15.88Q117.08-14.52 117.16-12.28L117.16-12.28L117.16 0L113.44 0L113.44-10.92Q113.32-13.84 110.80-14L110.80-14Q109.36-14 108.22-13.14Q107.08-12.28 106.44-10.88Q105.80-9.48 105.76-7.88L105.76-7.88L105.76 0L102 0L102-10.92Q101.88-13.84 99.28-14L99.28-14Q97.88-14 96.74-13.14Q95.60-12.28 94.96-10.86Q94.32-9.44 94.32-7.84L94.32-7.84L94.32 0L90.60 0L90.60-16.56L93.96-16.56L94.24-13.44Q95.20-15.24 96.86-16.24Q98.52-17.24 100.64-17.24L100.64-17.24Q102.64-17.24 104-16.30Q105.36-15.36 105.76-13.72L105.76-13.72Q106.80-15.36 108.40-16.30Q110-17.24 111.84-17.24L111.84-17.24Z M136.88-16.56L140.60-16.56L140.60 0L137.24 0L137-3.16Q136.16-1.48 134.40-0.42Q132.64 0.64 130.48 0.64L130.48 0.64Q128.20 0.64 126.74-0.74Q125.28-2.12 125.20-4.32L125.20-4.32L125.20-16.56L128.92-16.56L128.92-5.64Q129-4.24 129.74-3.42Q130.48-2.60 131.96-2.56L131.96-2.56Q133.32-2.56 134.44-3.38Q135.56-4.20 136.22-5.64Q136.88-7.08 136.88-8.84L136.88-8.84L136.88-16.56Z M158.96-17.20Q161.28-17.20 162.80-15.82Q164.32-14.44 164.36-12.24L164.36-12.24L164.36 0L160.60 0L160.60-10.96Q160.52-12.36 159.76-13.16Q159-13.96 157.48-14L157.48-14Q155.28-14 153.84-12.24Q152.40-10.48 152.40-7.76L152.40-7.76L152.40 0L148.68 0L148.68-16.56L152.04-16.56L152.28-13.36Q153.16-15.16 154.92-16.18Q156.68-17.20 158.96-17.20L158.96-17.20Z M172.40-16.56L176.12-16.56L176.12 0L172.40 0L172.40-16.56ZM172.12-22.52Q172.12-23.40 172.80-24Q173.48-24.60 174.36-24.60L174.36-24.60Q175.24-24.60 175.90-24Q176.56-23.40 176.56-22.52L176.56-22.52Q176.56-21.64 175.90-21.04Q175.24-20.44 174.36-20.44L174.36-20.44Q173.48-20.44 172.80-21.04Q172.12-21.64 172.12-22.52L172.12-22.52Z M185.80-23.84L189.56-23.84L189.56-16.52L194.08-16.52L194.08-13.56L189.56-13.56L189.56 0L185.80 0L185.80-13.56L182.76-13.56L182.76-16.52L185.80-16.52L185.80-23.84Z M212.52-16.56L215.96-16.56L205.28 7.96L201.60 7.96L205.40-0.56L197.72-16.56L201.92-16.56L207.28-4.76L212.52-16.56Z M236.24-28.36L239.64-28.36L239.64 9.40L236.24 9.40L236.24-28.36Z M271.96-2.48Q270.64-1.44 267.82-0.56Q265 0.32 262.60 0.32L262.60 0.32Q258.08 0.32 254.64-1.54Q251.20-3.40 249.34-6.64Q247.48-9.88 247.48-13.92L247.48-13.92Q247.48-18.64 249.48-22.10Q251.48-25.56 254.88-27.40Q258.28-29.24 262.32-29.24L262.32-29.24Q264.76-29.24 266.92-28.66Q269.08-28.08 270.80-27.12L270.80-27.12L269.52-23.56Q268.24-24.28 266.30-24.82Q264.36-25.36 262.80-25.36L262.80-25.36Q259.44-25.36 256.86-24Q254.28-22.64 252.88-20.12Q251.48-17.60 251.48-14.24L251.48-14.24Q251.48-11.12 252.88-8.68Q254.28-6.24 256.84-4.90Q259.40-3.56 262.68-3.56L262.68-3.56Q264.20-3.56 265.64-3.86Q267.08-4.16 268.04-4.72L268.04-4.72L268.04-10.44L262.28-10.44L262.28-14.16L271.96-14.16L271.96-2.48Z M293.60-16.56L297.04-16.56L297.04 0L293.32 0L293.32-2.72Q292.44-1.56 290.76-0.58Q289.08 0.40 286.96 0.40L286.96 0.40Q284.60 0.40 282.70-0.62Q280.80-1.64 279.70-3.60Q278.60-5.56 278.60-8.28L278.60-8.28Q278.60-11 279.74-13.02Q280.88-15.04 282.82-16.14Q284.76-17.24 287.12-17.24L287.12-17.24Q289.24-17.24 290.80-16.32Q292.36-15.40 293.32-13.92L293.32-13.92L293.60-16.56ZM287.96-2.68Q290-2.68 291.46-3.82Q292.92-4.96 293.32-6.92L293.32-6.92L293.32-10.20Q292.84-11.96 291.32-13.06Q289.80-14.16 287.84-14.16L287.84-14.16Q286.36-14.16 285.10-13.44Q283.84-12.72 283.10-11.42Q282.36-10.12 282.36-8.48L282.36-8.48Q282.36-6.88 283.12-5.56Q283.88-4.24 285.16-3.46Q286.44-2.68 287.96-2.68L287.96-2.68Z M326.36-17.24Q328.76-17.24 330.18-15.88Q331.60-14.52 331.68-12.28L331.68-12.28L331.68 0L327.96 0L327.96-10.92Q327.84-13.84 325.32-14L325.32-14Q323.88-14 322.74-13.14Q321.60-12.28 320.96-10.88Q320.32-9.48 320.28-7.88L320.28-7.88L320.28 0L316.52 0L316.52-10.92Q316.40-13.84 313.80-14L313.80-14Q312.40-14 311.26-13.14Q310.12-12.28 309.48-10.86Q308.84-9.44 308.84-7.84L308.84-7.84L308.84 0L305.12 0L305.12-16.56L308.48-16.56L308.76-13.44Q309.72-15.24 311.38-16.24Q313.04-17.24 315.16-17.24L315.16-17.24Q317.16-17.24 318.52-16.30Q319.88-15.36 320.28-13.72L320.28-13.72Q321.32-15.36 322.92-16.30Q324.52-17.24 326.36-17.24L326.36-17.24Z M339.72-16.56L343.44-16.56L343.44 0L339.72 0L339.72-16.56ZM339.44-22.52Q339.44-23.40 340.12-24Q340.80-24.60 341.68-24.60L341.68-24.60Q342.56-24.60 343.22-24Q343.88-23.40 343.88-22.52L343.88-22.52Q343.88-21.64 343.22-21.04Q342.56-20.44 341.68-20.44L341.68-20.44Q340.80-20.44 340.12-21.04Q339.44-21.64 339.44-22.52L339.44-22.52Z M361.80-17.20Q364.12-17.20 365.64-15.82Q367.16-14.44 367.20-12.24L367.20-12.24L367.20 0L363.44 0L363.44-10.96Q363.36-12.36 362.60-13.16Q361.84-13.96 360.32-14L360.32-14Q358.12-14 356.68-12.24Q355.24-10.48 355.24-7.76L355.24-7.76L355.24 0L351.52 0L351.52-16.56L354.88-16.56L355.12-13.36Q356.00-15.16 357.76-16.18Q359.52-17.20 361.80-17.20L361.80-17.20Z M389.32-16.56L392.72-16.56L392.72 0.12Q392.72 2.40 391.56 4.24Q390.40 6.08 388.26 7.16Q386.12 8.24 383.24 8.24L383.24 8.24Q380.72 8.24 378.90 7.40Q377.08 6.56 375.24 4.92L375.24 4.92L377.44 2.36Q378.80 3.64 380.16 4.30Q381.52 4.96 383.16 4.96L383.16 4.96Q385.92 4.96 387.42 3.64Q388.92 2.32 388.96 0.08L388.96 0.08L389.00-3.04Q388.08-1.48 386.30-0.54Q384.52 0.40 382.20 0.40L382.20 0.40Q379.92 0.40 378.00-0.76Q376.08-1.92 374.94-3.92Q373.80-5.92 373.80-8.36L373.80-8.36Q373.80-10.88 374.98-12.90Q376.16-14.92 378.16-16.08Q380.16-17.24 382.44-17.24L382.44-17.24Q384.56-17.24 386.36-16.40Q388.16-15.56 389.04-14.24L389.04-14.24L389.32-16.56ZM383.28-2.68Q385.40-2.68 386.96-3.84Q388.52-5 389.00-6.88L389.00-6.88L389.00-10.16Q388.44-11.96 386.88-13.06Q385.32-14.16 383.28-14.16L383.28-14.16Q380.84-14.16 379.20-12.56Q377.56-10.96 377.56-8.48L377.56-8.48Q377.56-6.88 378.32-5.56Q379.08-4.24 380.40-3.46Q381.72-2.68 383.28-2.68L383.28-2.68Z M428.60-16.56L432.04-16.56L432.04 0L428.32 0L428.32-2.72Q427.44-1.56 425.76-0.58Q424.08 0.40 421.96 0.40L421.96 0.40Q419.60 0.40 417.70-0.62Q415.80-1.64 414.70-3.60Q413.60-5.56 413.60-8.28L413.60-8.28Q413.60-11 414.74-13.02Q415.88-15.04 417.82-16.14Q419.76-17.24 422.12-17.24L422.12-17.24Q424.24-17.24 425.80-16.32Q427.36-15.40 428.32-13.92L428.32-13.92L428.60-16.56ZM422.96-2.68Q425.00-2.68 426.46-3.82Q427.92-4.96 428.32-6.92L428.32-6.92L428.32-10.20Q427.84-11.96 426.32-13.06Q424.80-14.16 422.84-14.16L422.84-14.16Q421.36-14.16 420.10-13.44Q418.84-12.72 418.10-11.42Q417.36-10.12 417.36-8.48L417.36-8.48Q417.36-6.88 418.12-5.56Q418.88-4.24 420.16-3.46Q421.44-2.68 422.96-2.68L422.96-2.68Z M450.40-17.20Q452.72-17.20 454.24-15.82Q455.76-14.44 455.80-12.24L455.80-12.24L455.80 0L452.04 0L452.04-10.96Q451.96-12.36 451.20-13.16Q450.44-13.96 448.92-14L448.92-14Q446.72-14 445.28-12.24Q443.84-10.48 443.84-7.76L443.84-7.76L443.84 0L440.12 0L440.12-16.56L443.48-16.56L443.72-13.36Q444.60-15.16 446.36-16.18Q448.12-17.20 450.40-17.20L450.40-17.20Z M477.40-31L481.12-31L481.12 0L477.36 0L477.36-2.60Q476.16-1.20 474.42-0.40Q472.68 0.40 470.60 0.40L470.60 0.40Q468.28 0.40 466.40-0.72Q464.52-1.84 463.46-3.86Q462.40-5.88 462.40-8.52L462.40-8.52Q462.40-11.20 463.52-13.18Q464.64-15.16 466.60-16.20Q468.56-17.24 471.04-17.24L471.04-17.24Q472.92-17.24 474.66-16.46Q476.40-15.68 477.40-14.32L477.40-14.32L477.40-31ZM471.76-2.80Q473.92-2.80 475.42-3.96Q476.92-5.12 477.36-7.08L477.36-7.08L477.36-10.20Q476.88-12 475.32-13.14Q473.76-14.28 471.76-14.28L471.76-14.28Q470.24-14.28 468.96-13.54Q467.68-12.80 466.92-11.50Q466.16-10.20 466.16-8.56L466.16-8.56Q466.16-6.96 466.92-5.64Q467.68-4.32 468.96-3.56Q470.24-2.80 471.76-2.80L471.76-2.80Z M516.84-1.56Q515.72-0.64 514.18-0.12Q512.64 0.40 511.04 0.40L511.04 0.40Q508.36 0.40 506.30-0.68Q504.24-1.76 503.10-3.74Q501.96-5.72 501.96-8.32L501.96-8.32Q501.96-10.88 503.16-12.86Q504.36-14.84 506.36-15.92Q508.36-17 510.68-17L510.68-17Q514.48-17 516.96-14.92L516.96-14.92L515.08-12.48Q514.28-13.08 513.24-13.50Q512.20-13.92 511.00-13.92L511.00-13.92Q509.52-13.92 508.30-13.18Q507.08-12.44 506.38-11.16Q505.68-9.88 505.68-8.32L505.68-8.32Q505.68-6.76 506.42-5.48Q507.16-4.20 508.44-3.44Q509.72-2.68 511.36-2.68L511.36-2.68Q513.40-2.68 514.92-3.88L514.92-3.88L516.84-1.56Z M521.80-8.44Q521.80-10.88 522.98-12.90Q524.16-14.92 526.26-16.08Q528.36-17.24 531.00-17.24L531.00-17.24Q533.64-17.24 535.70-16.08Q537.76-14.92 538.90-12.92Q540.04-10.92 540.04-8.44L540.04-8.44Q540.04-5.96 538.90-3.94Q537.76-1.92 535.68-0.76Q533.60 0.40 530.92 0.40L530.92 0.40Q528.32 0.40 526.24-0.70Q524.16-1.80 522.98-3.80Q521.80-5.80 521.80-8.44L521.80-8.44ZM525.56-8.40Q525.56-6.84 526.26-5.52Q526.96-4.20 528.18-3.44Q529.40-2.68 530.88-2.68L530.88-2.68Q533.20-2.68 534.72-4.32Q536.24-5.96 536.24-8.40L536.24-8.40Q536.24-10.84 534.72-12.50Q533.20-14.16 530.88-14.16L530.88-14.16Q529.36-14.16 528.16-13.38Q526.96-12.60 526.26-11.28Q525.56-9.96 525.56-8.40L525.56-8.40Z M560.20-31L563.92-31L563.92 0L560.16 0L560.16-2.60Q558.96-1.20 557.22-0.40Q555.48 0.40 553.40 0.40L553.40 0.40Q551.08 0.40 549.20-0.72Q547.32-1.84 546.26-3.86Q545.20-5.88 545.20-8.52L545.20-8.52Q545.20-11.20 546.32-13.18Q547.44-15.16 549.40-16.20Q551.36-17.24 553.84-17.24L553.84-17.24Q555.72-17.24 557.46-16.46Q559.20-15.68 560.20-14.32L560.20-14.32L560.20-31ZM554.56-2.80Q556.72-2.80 558.22-3.96Q559.72-5.12 560.16-7.08L560.16-7.08L560.16-10.20Q559.68-12 558.12-13.14Q556.56-14.28 554.56-14.28L554.56-14.28Q553.04-14.28 551.76-13.54Q550.48-12.80 549.72-11.50Q548.96-10.20 548.96-8.56L548.96-8.56Q548.96-6.96 549.72-5.64Q550.48-4.32 551.76-3.56Q553.04-2.80 554.56-2.80L554.56-2.80Z M579.72-2.80Q581.80-2.80 583.76-4.24L583.76-4.24L585.48-1.48Q584.16-0.60 582.62-0.10Q581.08 0.40 579.64 0.40L579.64 0.40Q576.88 0.40 574.82-0.74Q572.76-1.88 571.64-3.88Q570.52-5.88 570.52-8.40L570.52-8.40Q570.52-10.84 571.74-12.86Q572.96-14.88 575.08-16.06Q577.20-17.24 579.72-17.24L579.72-17.24Q582.96-17.24 585.14-15.34Q587.32-13.44 588.12-10.04L588.12-10.04L575.00-5.44Q575.72-4.20 576.94-3.50Q578.16-2.80 579.72-2.80L579.72-2.80ZM579.44-14.28Q577.16-14.28 575.68-12.68Q574.20-11.08 574.20-8.60L574.20-8.60Q574.20-8 574.24-7.68L574.24-7.68L583.88-11.24Q583.28-12.60 582.18-13.44Q581.08-14.28 579.44-14.28L579.44-14.28Z M594.80-28.36L598.20-28.36L598.20 9.40L594.80 9.40L594.80-28.36Z M622.08-28.92L639.24-28.92L639.24-25.20L625.96-25.20L625.96-16L637.60-16L637.60-12.28L625.96-12.28L625.96 0L622.08 0L622.08-28.92Z M667.68 0L663.16 0L656.36-10.68Q656.04-10.64 655.40-10.64L655.40-10.64L651.12-10.64L651.12 0L647.24 0L647.24-28.92L654.96-28.92Q657.92-28.92 660.24-27.88Q662.56-26.84 663.88-24.82Q665.20-22.80 665.20-19.96L665.20-19.96Q665.20-17.28 664.02-15.04Q662.84-12.80 660.40-11.64L660.40-11.64L667.68 0ZM655.32-14.40Q658.44-14.40 659.82-16.04Q661.20-17.68 661.20-19.80L661.20-19.80Q661.20-21.08 660.62-22.32Q660.04-23.56 658.78-24.38Q657.52-25.20 655.60-25.20L655.60-25.20L651.12-25.20L651.12-14.40L655.32-14.40Z"/></g>
</svg>
</g><g opacity="1" transform="rotate(0 112.9679 321.2235)">
<svg width="396.1816" height="60" x="112.9679" y="321.2235" version="1.1" preserveAspectRatio="none" viewBox="2.08 -26.4 176.96 26.8">
  <g transform="matrix(1 0 0 1 0 0)" class="companyName"><path id="id-D6z1nYkh7" d="M14.36 0L2.08 0L2.08-0.64L5.44-2.28L5.44-24.12L2.08-25.76L2.08-26.40L14.52-26.40Q19.24-26.40 22.10-24.70Q24.96-23 24.96-19.28L24.96-19.28Q24.96-17.04 23.46-15.34Q21.96-13.64 19.38-12.68Q16.80-11.72 13.56-11.72L13.56-11.72L10.44-11.72L10.44-2.28L14.36-0.64L14.36 0ZM12.72-24.20L10.44-24.20L10.44-13.76L13-13.76Q16.16-13.76 17.96-15.22Q19.76-16.68 19.76-18.92L19.76-18.92Q19.76-21.72 17.94-22.96Q16.12-24.20 12.72-24.20L12.72-24.20Z M39.12 0L28.84 0L28.84-0.64L31.48-1.96L31.48-20.44L28.84-21.76L28.84-22.40L39.12-22.40L39.12-21.76L36.32-20.44L36.32-1.96L39.12-0.64L39.12 0Z M54.16 0L43.48 0L43.48-0.64L46.44-1.96L46.44-20.44L43.48-21.76L43.48-22.40L54.16-22.40L54.16-21.76L51.24-20.44L51.24-1.96L54.16-0.64L54.16 0ZM68.48 0L61.20 0L51.24-11.36L60.48-20.60L58-21.76L58-22.40L66.16-22.40L66.16-21.76L63.80-20.80L55.76-13.08L65.80-1.68L68.48-0.64L68.48 0Z M77.88 0L70.44 0L70.44-0.64L72.44-1.72L81.36-22.60L84.08-22.60L92.84-1.88L95.28-0.64L95.28 0L85.08 0L85.08-0.64L87.88-1.84L85.52-7.52L77.36-7.52L75-1.80L77.88-0.64L77.88 0ZM81.44-17.36L78.20-9.56L84.68-9.56L81.44-17.36Z M117.28 0L105.08 0L105.08-0.64L108.68-2.28L108.68-12.32L99.88-24.32L97.28-25.76L97.28-26.40L108.56-26.40L108.56-25.76L105.56-24.32L105.56-24.16L112.60-14.60L118.96-24.08L118.96-24.24L115.92-25.76L115.92-26.40L124.76-26.40L124.76-25.76L122.20-24.44L113.72-12.36L113.72-2.28L117.28-0.64L117.28 0Z M140.84 0.40L140.84 0.40Q137.96 0.40 135.70-0.52Q133.44-1.44 132.14-3.52Q130.84-5.60 130.84-9.12L130.84-9.12L130.84-20.44L127.88-21.76L127.88-22.40L138.64-22.40L138.64-21.76L135.68-20.44L135.68-9.20Q135.68-6.48 136.48-4.92Q137.28-3.36 138.70-2.68Q140.12-2 142.04-2L142.04-2Q143.72-2 145.12-2.64Q146.52-3.28 147.36-4.66Q148.20-6.04 148.20-8.20L148.20-8.20L148.20-20.52L144.88-21.76L144.88-22.40L153.52-22.40L153.52-21.76L150.60-20.48L150.60-8.88Q150.60-4 147.96-1.80Q145.32 0.40 140.84 0.40Z M174.20 0L162.08 0L162.08-0.64L165.72-1.96L165.72-20.36L160.24-20.36L157.88-15.20L157.24-15.20L157.24-22.40L179.04-22.40L179.04-15.20L178.40-15.20L175.96-20.36L170.52-20.36L170.52-1.96L174.20-0.64L174.20 0Z"/></g>
</svg>
</g></svg></svg>