<svg version="1.1" preserveAspectRatio="none" xmlns="http://www.w3.org/2000/svg" width="500" height="500" viewBox="0 0 500 500"><rect width="100%" height="100%" fill="#E7879A" fill-opacity="1"/><svg viewBox="155.0178 263.6821 335.6108 158.8" width="333" height="157.56465524947353" x="83.5px" y="171.2177px" xmlns="http://www.w3.org/2000/svg" xmlns:xlink="http://www.w3.org/1999/xlink" preserveAspectRatio="none"><defs></defs><style>.companyName {fill:#EFEFEF;fill-opacity:1;}.icon3-str {stroke:#5F6984;stroke-opacity:1;}.text {fill:#EFEFEF;fill-opacity:1;}</style><g opacity="1" transform="rotate(0 155.0178 405.6821)">
<svg width="335.6108" height="16.8" x="155.0178" y="405.6821" version="1.1" preserveAspectRatio="none" viewBox="2.48 -31.64 822.48 41.16">
  <g transform="matrix(1 0 0 1 0 0)" class="text"><path id="id-6izo4zJp30" d="M18.04-31.64Q20.92-31.64 23.28-30.80Q25.64-29.96 27.84-28.12L27.84-28.12Q28.28-27.80 28.28-27.20L28.28-27.20Q28.28-26.88 28.12-26.62Q27.96-26.36 27.68-26.24L27.68-26.24Q27.60-25.96 27.32-25.80Q27.04-25.64 26.72-25.64L26.72-25.64Q26.12-25.64 25.72-26L25.72-26Q24.16-27.40 22.32-28.04Q20.48-28.68 18.04-28.68L18.04-28.68Q14.68-28.68 11.80-26.90Q8.92-25.12 7.22-22.12Q5.52-19.12 5.52-15.64L5.52-15.64Q5.52-12.08 7.20-9.08Q8.88-6.08 11.76-4.32Q14.64-2.56 18.04-2.56L18.04-2.56Q22.40-2.56 25.92-5.36L25.92-5.36Q26.36-5.68 26.80-5.68L26.80-5.68Q27.40-5.68 27.84-5.26Q28.28-4.84 28.28-4.16L28.28-4.16Q28.28-3.52 27.84-3.04L27.84-3.04Q24.08 0.40 18.04 0.40L18.04 0.40Q13.80 0.40 10.24-1.76Q6.68-3.92 4.58-7.60Q2.48-11.28 2.48-15.64L2.48-15.64Q2.48-19.96 4.56-23.64Q6.64-27.32 10.20-29.48Q13.76-31.64 18.04-31.64L18.04-31.64Z M46.80-22.08Q49.96-22.08 52.48-20.64Q55-19.20 56.46-16.64Q57.92-14.08 57.92-10.92L57.92-10.92Q57.92-7.76 56.48-5.22Q55.04-2.68 52.50-1.24Q49.96 0.20 46.80 0.20L46.80 0.20Q43.64 0.20 41.10-1.24Q38.56-2.68 37.12-5.22Q35.68-7.76 35.68-10.92L35.68-10.92Q35.68-14.08 37.12-16.64Q38.56-19.20 41.10-20.64Q43.64-22.08 46.80-22.08L46.80-22.08ZM46.80-19.28Q44.52-19.28 42.66-18.20Q40.80-17.12 39.74-15.22Q38.68-13.32 38.68-10.92L38.68-10.92Q38.68-8.56 39.74-6.66Q40.80-4.76 42.66-3.68Q44.52-2.60 46.80-2.60L46.80-2.60Q49.12-2.60 50.96-3.68Q52.80-4.76 53.84-6.66Q54.88-8.56 54.88-10.92L54.88-10.92Q54.88-13.32 53.84-15.22Q52.80-17.12 50.96-18.20Q49.12-19.28 46.80-19.28L46.80-19.28Z M90.96-22.12Q93.32-22.12 95.14-21Q96.96-19.88 97.98-17.82Q99-15.76 99-13.04L99-13.04L99-1.52Q99-0.84 98.58-0.42Q98.16 0 97.48 0L97.48 0Q96.80 0 96.36-0.42Q95.92-0.84 95.92-1.52L95.92-1.52L95.92-13.04Q95.92-15.88 94.46-17.54Q93-19.20 90.64-19.20L90.64-19.20Q88.12-19.20 86.56-17.52Q85-15.84 85.04-13.12L85.04-13.12L85.04-13.04L85.04-1.52Q85.04-0.84 84.62-0.42Q84.20 0 83.52 0L83.52 0Q82.84 0 82.40-0.42Q81.96-0.84 81.96-1.52L81.96-1.52L81.96-13.04Q81.96-15.88 80.50-17.54Q79.04-19.20 76.68-19.20L76.68-19.20Q74.20-19.20 72.60-17.56Q71-15.92 71-13.36L71-13.36L71-1.52Q71-0.84 70.58-0.42Q70.16 0 69.48 0L69.48 0Q68.80 0 68.36-0.42Q67.92-0.84 67.92-1.52L67.92-1.52L67.92-20.32Q67.92-21 68.36-21.44Q68.80-21.88 69.48-21.88L69.48-21.88Q70.16-21.88 70.58-21.44Q71-21 71-20.32L71-20.32L71-19.44Q72.12-20.72 73.66-21.42Q75.20-22.12 77-22.12L77-22.12Q79.20-22.12 80.96-21.12Q82.72-20.12 83.76-18.32L83.76-18.32Q84.92-20.12 86.78-21.12Q88.64-22.12 90.96-22.12L90.96-22.12Z M132.84-22.12Q135.20-22.12 137.02-21Q138.84-19.88 139.86-17.82Q140.88-15.76 140.88-13.04L140.88-13.04L140.88-1.52Q140.88-0.84 140.46-0.42Q140.04 0 139.36 0L139.36 0Q138.68 0 138.24-0.42Q137.80-0.84 137.80-1.52L137.80-1.52L137.80-13.04Q137.80-15.88 136.34-17.54Q134.88-19.20 132.52-19.20L132.52-19.20Q130-19.20 128.44-17.52Q126.88-15.84 126.92-13.12L126.92-13.12L126.92-13.04L126.92-1.52Q126.92-0.84 126.50-0.42Q126.08 0 125.40 0L125.40 0Q124.72 0 124.28-0.42Q123.84-0.84 123.84-1.52L123.84-1.52L123.84-13.04Q123.84-15.88 122.38-17.54Q120.92-19.20 118.56-19.20L118.56-19.20Q116.08-19.20 114.48-17.56Q112.88-15.92 112.88-13.36L112.88-13.36L112.88-1.52Q112.88-0.84 112.46-0.42Q112.04 0 111.36 0L111.36 0Q110.68 0 110.24-0.42Q109.80-0.84 109.80-1.52L109.80-1.52L109.80-20.32Q109.80-21 110.24-21.44Q110.68-21.88 111.36-21.88L111.36-21.88Q112.04-21.88 112.46-21.44Q112.88-21 112.88-20.32L112.88-20.32L112.88-19.44Q114.00-20.72 115.54-21.42Q117.08-22.12 118.88-22.12L118.88-22.12Q121.08-22.12 122.84-21.12Q124.60-20.12 125.64-18.32L125.64-18.32Q126.80-20.12 128.66-21.12Q130.52-22.12 132.84-22.12L132.84-22.12Z M170-21.88Q170.68-21.88 171.12-21.46Q171.56-21.04 171.56-20.36L171.56-20.36L171.56-1.56Q171.56-0.88 171.12-0.44Q170.68 0 170 0L170 0Q169.32 0 168.90-0.44Q168.48-0.88 168.48-1.56L168.48-1.56L168.48-2.92Q167.16-1.44 165.28-0.60Q163.40 0.24 161.20 0.24L161.20 0.24Q158.36 0.24 156.10-0.96Q153.84-2.16 152.56-4.46Q151.28-6.76 151.28-9.96L151.28-9.96L151.28-20.36Q151.28-21 151.72-21.44Q152.16-21.88 152.80-21.88L152.80-21.88Q153.48-21.88 153.92-21.44Q154.36-21 154.36-20.36L154.36-20.36L154.36-9.96Q154.36-6.40 156.34-4.54Q158.32-2.68 161.52-2.68L161.52-2.68Q163.48-2.68 165.06-3.44Q166.64-4.20 167.56-5.54Q168.48-6.88 168.48-8.52L168.48-8.52L168.48-20.36Q168.48-21.04 168.90-21.46Q169.32-21.88 170-21.88L170-21.88Z M193.12-22.12Q195.96-22.12 198.22-20.92Q200.48-19.72 201.76-17.42Q203.04-15.12 203.04-11.92L203.04-11.92L203.04-1.52Q203.04-0.88 202.60-0.44Q202.16 0 201.52 0L201.52 0Q200.84 0 200.40-0.44Q199.96-0.88 199.96-1.52L199.96-1.52L199.96-11.92Q199.96-15.48 197.98-17.34Q196-19.20 192.80-19.20L192.80-19.20Q190.84-19.20 189.26-18.44Q187.68-17.68 186.76-16.34Q185.84-15 185.84-13.36L185.84-13.36L185.84-1.52Q185.84-0.84 185.42-0.42Q185 0 184.32 0L184.32 0Q183.64 0 183.20-0.42Q182.76-0.84 182.76-1.52L182.76-1.52L182.76-20.32Q182.76-21 183.20-21.44Q183.64-21.88 184.32-21.88L184.32-21.88Q185-21.88 185.42-21.44Q185.84-21 185.84-20.32L185.84-20.32L185.84-18.96Q187.16-20.44 189.04-21.28Q190.92-22.12 193.12-22.12L193.12-22.12Z M214.48-20.32Q214.48-21 214.92-21.44Q215.36-21.88 216.04-21.88L216.04-21.88Q216.72-21.88 217.14-21.44Q217.56-21 217.56-20.32L217.56-20.32L217.56-1.56Q217.56-0.88 217.14-0.44Q216.72 0 216.04 0L216.04 0Q215.36 0 214.92-0.44Q214.48-0.88 214.48-1.56L214.48-1.56L214.48-20.32ZM216.04-30.40Q216.92-30.40 217.56-29.80Q218.20-29.20 218.20-28.24L218.20-28.24Q218.20-27.32 217.56-26.68Q216.92-26.04 216-26.04L216-26.04Q215.08-26.04 214.46-26.68Q213.84-27.32 213.84-28.24L213.84-28.24Q213.84-29.20 214.48-29.80Q215.12-30.40 216.04-30.40L216.04-30.40Z M239.04-3.08Q239.68-3.08 240.08-2.64Q240.48-2.20 240.48-1.52L240.48-1.52Q240.48-0.88 240-0.44Q239.52 0 238.80 0L238.80 0L237.96 0Q235.84 0 234.16-1.02Q232.48-2.04 231.54-3.78Q230.60-5.52 230.60-7.72L230.60-7.72L230.60-18.40L228-18.40Q227.36-18.40 226.98-18.78Q226.60-19.16 226.60-19.72L226.60-19.72Q226.60-20.32 226.98-20.70Q227.36-21.08 228-21.08L228-21.08L230.60-21.08L230.60-27.28Q230.60-27.96 231.02-28.40Q231.44-28.84 232.12-28.84L232.12-28.84Q232.80-28.84 233.24-28.40Q233.68-27.96 233.68-27.28L233.68-27.28L233.68-21.08L238.20-21.08Q238.84-21.08 239.22-20.70Q239.60-20.32 239.60-19.72L239.60-19.72Q239.60-19.16 239.22-18.78Q238.84-18.40 238.20-18.40L238.20-18.40L233.68-18.40L233.68-7.72Q233.68-5.68 234.88-4.38Q236.08-3.08 237.96-3.08L237.96-3.08L239.04-3.08Z M266.60-21.76Q267.52-21.40 267.52-20.60L267.52-20.60Q267.52-20.24 267.36-19.88L267.36-19.88L254.40 8.60Q254.04 9.52 253.24 9.52L253.24 9.52Q252.84 9.52 252.52 9.36L252.52 9.36Q251.60 9 251.60 8.16L251.60 8.16Q251.60 7.80 251.76 7.44L251.76 7.44L255.72-1.32L255.72-1.36L246.80-19.84Q246.64-20.16 246.64-20.56L246.64-20.56Q246.64-21.40 247.52-21.76L247.52-21.76Q247.84-21.92 248.24-21.92L248.24-21.92Q249.08-21.92 249.44-21.08L249.44-21.08L257.24-4.64L264.68-21.04Q265.08-21.92 265.88-21.92L265.88-21.92Q266.24-21.92 266.60-21.76L266.60-21.76Z M293.76-29.72Q293.76-30.40 294.22-30.84Q294.68-31.28 295.32-31.28L295.32-31.28Q296.00-31.28 296.44-30.84Q296.88-30.40 296.88-29.72L296.88-29.72L296.88 7.80Q296.88 8.48 296.44 8.92Q296.00 9.36 295.32 9.36L295.32 9.36Q294.68 9.36 294.22 8.92Q293.76 8.48 293.76 7.80L293.76 7.80L293.76-29.72Z M333.88-15.60Q334.56-15.60 335-15.18Q335.44-14.76 335.44-14.08L335.44-14.08L335.44-4.16Q335.44-3.48 335-3.04L335-3.04Q331.28 0.40 325.20 0.40L325.20 0.40Q320.96 0.40 317.40-1.76Q313.84-3.92 311.74-7.60Q309.64-11.28 309.64-15.64L309.64-15.64Q309.64-19.96 311.72-23.64Q313.80-27.32 317.36-29.48Q320.92-31.64 325.20-31.64L325.20-31.64Q328.08-31.64 330.44-30.80Q332.80-29.96 335-28.12L335-28.12Q335.44-27.80 335.44-27.20L335.44-27.20Q335.44-26.88 335.28-26.62Q335.12-26.36 334.84-26.24L334.84-26.24Q334.76-25.96 334.48-25.78Q334.20-25.60 333.88-25.60L333.88-25.60Q333.32-25.60 332.88-26L332.88-26Q331.32-27.40 329.48-28.04Q327.64-28.68 325.20-28.68L325.20-28.68Q321.84-28.68 318.96-26.90Q316.08-25.12 314.38-22.12Q312.68-19.12 312.68-15.64L312.68-15.64Q312.68-12.08 314.36-9.08Q316.04-6.08 318.92-4.32Q321.80-2.56 325.20-2.56L325.20-2.56Q329.08-2.56 332.40-4.84L332.40-4.84L332.40-12.84L326.16-12.84Q325.48-12.84 325.04-13.24Q324.60-13.64 324.60-14.24L324.60-14.24Q324.60-14.84 325.04-15.22Q325.48-15.60 326.16-15.60L326.16-15.60L333.88-15.60Z M353.96-22.08Q357.08-22.08 359.62-20.62Q362.16-19.16 363.62-16.60Q365.08-14.04 365.08-10.92L365.08-10.92L365.08-1.52Q365.08-0.88 364.64-0.44Q364.20 0 363.52 0L363.52 0Q362.84 0 362.40-0.42Q361.96-0.84 361.96-1.52L361.96-1.52L361.96-3.92Q360.56-2 358.40-0.90Q356.24 0.20 353.64 0.20L353.64 0.20Q350.60 0.20 348.14-1.26Q345.68-2.72 344.26-5.26Q342.84-7.80 342.84-10.92L342.84-10.92Q342.84-14.04 344.30-16.60Q345.76-19.16 348.30-20.62Q350.84-22.08 353.96-22.08L353.96-22.08ZM353.96-2.60Q356.24-2.60 358.08-3.68Q359.92-4.76 360.98-6.66Q362.04-8.56 362.04-10.92L362.04-10.92Q362.04-13.28 360.98-15.18Q359.92-17.08 358.08-18.18Q356.24-19.28 353.96-19.28L353.96-19.28Q351.68-19.28 349.82-18.18Q347.96-17.08 346.90-15.18Q345.84-13.28 345.84-10.92L345.84-10.92Q345.84-8.56 346.90-6.66Q347.96-4.76 349.82-3.68Q351.68-2.60 353.96-2.60L353.96-2.60Z M398.12-22.12Q400.48-22.12 402.30-21Q404.12-19.88 405.14-17.82Q406.16-15.76 406.16-13.04L406.16-13.04L406.16-1.52Q406.16-0.84 405.74-0.42Q405.32 0 404.64 0L404.64 0Q403.96 0 403.52-0.42Q403.08-0.84 403.08-1.52L403.08-1.52L403.08-13.04Q403.08-15.88 401.62-17.54Q400.16-19.20 397.80-19.20L397.80-19.20Q395.28-19.20 393.72-17.52Q392.16-15.84 392.20-13.12L392.20-13.12L392.20-13.04L392.20-1.52Q392.20-0.84 391.78-0.42Q391.36 0 390.68 0L390.68 0Q390.00 0 389.56-0.42Q389.12-0.84 389.12-1.52L389.12-1.52L389.12-13.04Q389.12-15.88 387.66-17.54Q386.20-19.20 383.84-19.20L383.84-19.20Q381.36-19.20 379.76-17.56Q378.16-15.92 378.16-13.36L378.16-13.36L378.16-1.52Q378.16-0.84 377.74-0.42Q377.32 0 376.64 0L376.64 0Q375.96 0 375.52-0.42Q375.08-0.84 375.08-1.52L375.08-1.52L375.08-20.32Q375.08-21 375.52-21.44Q375.96-21.88 376.64-21.88L376.64-21.88Q377.32-21.88 377.74-21.44Q378.16-21 378.16-20.32L378.16-20.32L378.16-19.44Q379.28-20.72 380.82-21.42Q382.36-22.12 384.16-22.12L384.16-22.12Q386.36-22.12 388.12-21.12Q389.88-20.12 390.92-18.32L390.92-18.32Q392.08-20.12 393.94-21.12Q395.80-22.12 398.12-22.12L398.12-22.12Z M417.60-20.32Q417.60-21 418.04-21.44Q418.48-21.88 419.16-21.88L419.16-21.88Q419.84-21.88 420.26-21.44Q420.68-21 420.68-20.32L420.68-20.32L420.68-1.56Q420.68-0.88 420.26-0.44Q419.84 0 419.16 0L419.16 0Q418.48 0 418.04-0.44Q417.60-0.88 417.60-1.56L417.60-1.56L417.60-20.32ZM419.16-30.40Q420.04-30.40 420.68-29.80Q421.32-29.20 421.32-28.24L421.32-28.24Q421.32-27.32 420.68-26.68Q420.04-26.04 419.12-26.04L419.12-26.04Q418.20-26.04 417.58-26.68Q416.96-27.32 416.96-28.24L416.96-28.24Q416.96-29.20 417.60-29.80Q418.24-30.40 419.16-30.40L419.16-30.40Z M442.88-22.12Q445.72-22.12 447.98-20.92Q450.24-19.72 451.52-17.42Q452.80-15.12 452.80-11.92L452.80-11.92L452.80-1.52Q452.80-0.88 452.36-0.44Q451.92 0 451.28 0L451.28 0Q450.60 0 450.16-0.44Q449.72-0.88 449.72-1.52L449.72-1.52L449.72-11.92Q449.72-15.48 447.74-17.34Q445.76-19.20 442.56-19.20L442.56-19.20Q440.60-19.20 439.02-18.44Q437.44-17.68 436.52-16.34Q435.60-15 435.60-13.36L435.60-13.36L435.60-1.52Q435.60-0.84 435.18-0.42Q434.76 0 434.08 0L434.08 0Q433.40 0 432.96-0.42Q432.52-0.84 432.52-1.52L432.52-1.52L432.52-20.32Q432.52-21 432.96-21.44Q433.40-21.88 434.08-21.88L434.08-21.88Q434.76-21.88 435.18-21.44Q435.60-21 435.60-20.32L435.60-20.32L435.60-18.96Q436.92-20.44 438.80-21.28Q440.68-22.12 442.88-22.12L442.88-22.12Z M473.56-22.08Q476.76-22.08 479.28-20.66Q481.80-19.24 483.24-16.70Q484.68-14.16 484.68-10.92L484.68-10.92L484.68-2.76Q484.68 0.44 483.26 3.04Q481.84 5.64 479.32 7.14Q476.80 8.64 473.64 8.64L473.64 8.64Q470.56 8.64 468.16 7.48Q465.76 6.32 464.12 4.24L464.12 4.24Q463.76 3.84 463.76 3.32L463.76 3.32Q463.76 2.72 464.32 2.28L464.32 2.28Q464.72 2 465.20 2L465.20 2Q465.56 2 465.92 2.18Q466.28 2.36 466.48 2.64L466.48 2.64Q467.68 4.16 469.52 5Q471.36 5.84 473.68 5.84L473.68 5.84Q475.92 5.84 477.74 4.74Q479.56 3.64 480.60 1.66Q481.64-0.32 481.64-2.88L481.64-2.88L481.64-4.68Q480.44-2.40 478.24-1.10Q476.04 0.20 473.24 0.20L473.24 0.20Q470.12 0.20 467.66-1.22Q465.20-2.64 463.82-5.18Q462.44-7.72 462.44-10.92L462.44-10.92Q462.44-14.16 463.88-16.70Q465.32-19.24 467.86-20.66Q470.40-22.08 473.56-22.08L473.56-22.08ZM473.56-2.60Q475.88-2.60 477.72-3.66Q479.56-4.72 480.60-6.62Q481.64-8.52 481.64-10.92L481.64-10.92Q481.64-13.32 480.60-15.22Q479.56-17.12 477.72-18.20Q475.88-19.28 473.56-19.28L473.56-19.28Q471.20-19.28 469.36-18.20Q467.52-17.12 466.48-15.22Q465.44-13.32 465.44-10.92L465.44-10.92Q465.44-8.52 466.48-6.62Q467.52-4.72 469.36-3.66Q471.20-2.60 473.56-2.60L473.56-2.60Z M520.36-22.08Q523.48-22.08 526.02-20.62Q528.56-19.16 530.02-16.60Q531.48-14.04 531.48-10.92L531.48-10.92L531.48-1.52Q531.48-0.88 531.04-0.44Q530.60 0 529.92 0L529.92 0Q529.24 0 528.80-0.42Q528.36-0.84 528.36-1.52L528.36-1.52L528.36-3.92Q526.96-2 524.80-0.90Q522.64 0.20 520.04 0.20L520.04 0.20Q517 0.20 514.54-1.26Q512.08-2.72 510.66-5.26Q509.24-7.80 509.24-10.92L509.24-10.92Q509.24-14.04 510.70-16.60Q512.16-19.16 514.70-20.62Q517.24-22.08 520.36-22.08L520.36-22.08ZM520.36-2.60Q522.64-2.60 524.48-3.68Q526.32-4.76 527.38-6.66Q528.44-8.56 528.44-10.92L528.44-10.92Q528.44-13.28 527.38-15.18Q526.32-17.08 524.48-18.18Q522.64-19.28 520.36-19.28L520.36-19.28Q518.08-19.28 516.22-18.18Q514.36-17.08 513.30-15.18Q512.24-13.28 512.24-10.92L512.24-10.92Q512.24-8.56 513.30-6.66Q514.36-4.76 516.22-3.68Q518.08-2.60 520.36-2.60L520.36-2.60Z M551.84-22.12Q554.68-22.12 556.94-20.92Q559.20-19.72 560.48-17.42Q561.76-15.12 561.76-11.92L561.76-11.92L561.76-1.52Q561.76-0.88 561.32-0.44Q560.88 0 560.24 0L560.24 0Q559.56 0 559.12-0.44Q558.68-0.88 558.68-1.52L558.68-1.52L558.68-11.92Q558.68-15.48 556.70-17.34Q554.72-19.20 551.52-19.20L551.52-19.20Q549.56-19.20 547.98-18.44Q546.40-17.68 545.48-16.34Q544.56-15 544.56-13.36L544.56-13.36L544.56-1.52Q544.56-0.84 544.14-0.42Q543.72 0 543.04 0L543.04 0Q542.36 0 541.92-0.42Q541.48-0.84 541.48-1.52L541.48-1.52L541.48-20.32Q541.48-21 541.92-21.44Q542.36-21.88 543.04-21.88L543.04-21.88Q543.72-21.88 544.14-21.44Q544.56-21 544.56-20.32L544.56-20.32L544.56-18.96Q545.88-20.44 547.76-21.28Q549.64-22.12 551.84-22.12L551.84-22.12Z M593.60-20.72Q593.64-20.60 593.64-20.36L593.64-20.36L593.64-10.96Q593.64-7.84 592.18-5.28Q590.72-2.72 588.18-1.26Q585.64 0.20 582.52 0.20L582.52 0.20Q579.40 0.20 576.86-1.26Q574.32-2.72 572.86-5.28Q571.40-7.84 571.40-10.96L571.40-10.96Q571.40-14.08 572.82-16.62Q574.24-19.16 576.70-20.62Q579.16-22.08 582.20-22.08L582.20-22.08Q584.80-22.08 586.96-20.98Q589.12-19.88 590.52-17.96L590.52-17.96L590.52-29.68Q590.52-30.36 590.96-30.80Q591.40-31.24 592.08-31.24L592.08-31.24Q592.76-31.24 593.18-30.80Q593.60-30.36 593.60-29.68L593.60-29.68L593.60-20.72ZM582.52-2.60Q584.80-2.60 586.64-3.70Q588.48-4.80 589.54-6.70Q590.60-8.60 590.60-10.96L590.60-10.96Q590.60-11.64 590.56-11.96L590.56-11.96Q590.52-12.04 590.52-12.16L590.52-12.16Q590.12-15.28 587.90-17.28Q585.68-19.28 582.52-19.28L582.52-19.28Q580.24-19.28 578.38-18.20Q576.52-17.12 575.46-15.22Q574.40-13.32 574.40-10.96L574.40-10.96Q574.40-8.60 575.46-6.70Q576.52-4.80 578.38-3.70Q580.24-2.60 582.52-2.60L582.52-2.60Z M629.92-22.08Q634.92-22.08 638.04-18.24L638.04-18.24Q638.36-17.88 638.36-17.40L638.36-17.40Q638.36-16.76 637.68-16.28L637.68-16.28Q637.32-16.04 636.92-16.04L636.92-16.04Q636.32-16.04 635.76-16.64L635.76-16.64Q634.56-17.96 633.12-18.62Q631.68-19.28 629.92-19.28L629.92-19.28Q627.72-19.28 626-18.22Q624.28-17.16 623.34-15.24Q622.40-13.32 622.40-10.92L622.40-10.92Q622.40-8.56 623.40-6.66Q624.40-4.76 626.20-3.68Q628-2.60 630.32-2.60L630.32-2.60Q633.52-2.60 635.48-4.32L635.48-4.32Q636-4.76 636.56-4.76L636.56-4.76Q637.04-4.76 637.44-4.44L637.44-4.44Q638-3.96 638-3.36L638-3.36Q638-2.84 637.60-2.48L637.60-2.48Q634.72 0.20 630.32 0.20L630.32 0.20Q627.20 0.20 624.72-1.26Q622.24-2.72 620.82-5.26Q619.40-7.80 619.40-10.92L619.40-10.92Q619.40-14.12 620.76-16.66Q622.12-19.20 624.52-20.64Q626.92-22.08 629.92-22.08L629.92-22.08Z M658.36-22.08Q661.52-22.08 664.04-20.64Q666.56-19.20 668.02-16.64Q669.48-14.08 669.48-10.92L669.48-10.92Q669.48-7.76 668.04-5.22Q666.60-2.68 664.06-1.24Q661.52 0.20 658.36 0.20L658.36 0.20Q655.20 0.20 652.66-1.24Q650.12-2.68 648.68-5.22Q647.24-7.76 647.24-10.92L647.24-10.92Q647.24-14.08 648.68-16.64Q650.12-19.20 652.66-20.64Q655.20-22.08 658.36-22.08L658.36-22.08ZM658.36-19.28Q656.08-19.28 654.22-18.20Q652.36-17.12 651.30-15.22Q650.24-13.32 650.24-10.92L650.24-10.92Q650.24-8.56 651.30-6.66Q652.36-4.76 654.22-3.68Q656.08-2.60 658.36-2.60L658.36-2.60Q660.68-2.60 662.52-3.68Q664.36-4.76 665.40-6.66Q666.44-8.56 666.44-10.92L666.44-10.92Q666.44-13.32 665.40-15.22Q664.36-17.12 662.52-18.20Q660.68-19.28 658.36-19.28L658.36-19.28Z M700.52-20.72Q700.56-20.60 700.56-20.36L700.56-20.36L700.56-10.96Q700.56-7.84 699.10-5.28Q697.64-2.72 695.10-1.26Q692.56 0.20 689.44 0.20L689.44 0.20Q686.32 0.20 683.78-1.26Q681.24-2.72 679.78-5.28Q678.32-7.84 678.32-10.96L678.32-10.96Q678.32-14.08 679.74-16.62Q681.16-19.16 683.62-20.62Q686.08-22.08 689.12-22.08L689.12-22.08Q691.72-22.08 693.88-20.98Q696.04-19.88 697.44-17.96L697.44-17.96L697.44-29.68Q697.44-30.36 697.88-30.80Q698.32-31.24 699.00-31.24L699.00-31.24Q699.68-31.24 700.10-30.80Q700.52-30.36 700.52-29.68L700.52-29.68L700.52-20.72ZM689.44-2.60Q691.72-2.60 693.56-3.70Q695.40-4.80 696.46-6.70Q697.52-8.60 697.52-10.96L697.52-10.96Q697.52-11.64 697.48-11.96L697.48-11.96Q697.44-12.04 697.44-12.16L697.44-12.16Q697.04-15.28 694.82-17.28Q692.60-19.28 689.44-19.28L689.44-19.28Q687.16-19.28 685.30-18.20Q683.44-17.12 682.38-15.22Q681.32-13.32 681.32-10.96L681.32-10.96Q681.32-8.60 682.38-6.70Q683.44-4.80 685.30-3.70Q687.16-2.60 689.44-2.60L689.44-2.60Z M721.08-22.08Q724.04-22.08 726.32-20.70Q728.60-19.32 729.86-16.88Q731.12-14.44 731.12-11.32L731.12-11.32Q731.12-10.68 730.72-10.30Q730.32-9.92 729.68-9.92L729.68-9.92L713.52-9.92Q713.84-6.64 716.08-4.60Q718.32-2.56 721.68-2.56L721.68-2.56Q723.12-2.56 724.58-3.06Q726.04-3.56 726.92-4.32L726.92-4.32Q727.44-4.72 728.00-4.72L728.00-4.72Q728.44-4.72 728.88-4.40L728.88-4.40Q729.40-3.92 729.40-3.32L729.40-3.32Q729.40-2.80 728.96-2.40L728.96-2.40Q727.64-1.28 725.60-0.54Q723.56 0.20 721.68 0.20L721.68 0.20Q718.48 0.20 715.96-1.22Q713.44-2.64 712.02-5.18Q710.60-7.72 710.60-10.92L710.60-10.92Q710.60-14.16 711.94-16.70Q713.28-19.24 715.66-20.66Q718.04-22.08 721.08-22.08L721.08-22.08ZM721.08-19.32Q718.04-19.32 716.04-17.44Q714.04-15.56 713.60-12.48L713.60-12.48L728.24-12.48Q727.92-15.56 726.00-17.44Q724.08-19.32 721.08-19.32L721.08-19.32Z M742.96-29.72Q742.96-30.40 743.42-30.84Q743.88-31.28 744.52-31.28L744.52-31.28Q745.20-31.28 745.64-30.84Q746.08-30.40 746.08-29.72L746.08-29.72L746.08 7.80Q746.08 8.48 745.64 8.92Q745.20 9.36 744.52 9.36L744.52 9.36Q743.88 9.36 743.42 8.92Q742.96 8.48 742.96 7.80L742.96 7.80L742.96-29.72Z M789.24-17.20Q789.92-17.20 790.36-16.78Q790.80-16.36 790.80-15.68L790.80-15.68Q790.80-15.04 790.36-14.60Q789.92-14.16 789.24-14.16L789.24-14.16L776.72-14.16L776.72-1.56Q776.72-0.92 776.28-0.46Q775.84 0 775.16 0L775.16 0Q774.52 0 774.06-0.46Q773.60-0.92 773.60-1.56L773.60-1.56L773.60-29.68Q773.60-30.36 774.06-30.80Q774.52-31.24 775.16-31.24L775.16-31.24L793.92-31.24Q794.60-31.24 795.04-30.80Q795.48-30.36 795.48-29.72L795.48-29.72Q795.48-29.08 795.04-28.66Q794.60-28.24 793.92-28.24L793.92-28.24L776.72-28.24L776.72-17.20L789.24-17.20Z M824.60-2.40Q824.96-1.80 824.96-1.32L824.96-1.32Q824.96-0.72 824.52-0.36Q824.08 0 823.36 0L823.36 0Q822.88 0 822.56-0.20Q822.24-0.40 822-0.80L822-0.80L814.80-12.24L814.12-12.24L808.20-12.24L808.20-1.56Q808.20-0.88 807.76-0.44Q807.32 0 806.64 0L806.64 0Q805.96 0 805.52-0.44Q805.08-0.88 805.08-1.56L805.08-1.56L805.08-29.68Q805.08-30.36 805.52-30.80Q805.96-31.24 806.64-31.24L806.64-31.24L814.12-31.24Q817.04-31.24 819.32-30.02Q821.60-28.80 822.90-26.60Q824.20-24.40 824.20-21.60L824.20-21.60Q824.20-18.52 822.54-16.20Q820.88-13.88 818.04-12.88L818.04-12.88L824.60-2.40ZM808.20-15.24L814.12-15.24Q816.12-15.24 817.74-16.06Q819.36-16.88 820.26-18.32Q821.16-19.76 821.16-21.60L821.16-21.60Q821.16-23.52 820.26-25.04Q819.36-26.56 817.76-27.40Q816.16-28.24 814.12-28.24L814.12-28.24L808.20-28.24L808.20-15.24Z"/></g>
</svg>
</g><g opacity="1" transform="rotate(0 179.8771 263.6821)">
<svg width="285.8922" height="120" x="179.8771" y="263.6821" version="1.1" preserveAspectRatio="none" viewBox="1.9531 -29.5703 114.37499999999999 48.0078">
  <g transform="matrix(1 0 0 1 0 0)" class="companyName"><path id="id-D6z1nYkh7" d="M36.78-19.28L36.78-19.28Q36.78-16.91 35.88-15.05Q34.98-13.18 33.34-11.88Q31.70-10.59 29.41-9.89Q27.13-9.20 24.38-9.20L24.38-9.20Q24.04-9.20 23.80-9.38Q23.55-9.57 23.55-9.94L23.55-9.94Q23.55-10.23 23.77-10.45Q23.98-10.66 24.30-10.66L24.30-10.66Q26.76-10.66 28.79-11.23Q30.82-11.80 32.27-12.90Q33.71-14.00 34.51-15.61Q35.31-17.21 35.31-19.28L35.31-19.28Q35.31-21.39 34.38-23.03Q33.46-24.67 31.79-25.80Q30.12-26.93 27.80-27.52Q25.49-28.11 22.71-28.11L22.71-28.11Q20.10-28.11 17.65-27.68Q15.20-27.25 13.05-26.46Q10.90-25.68 9.13-24.59Q7.36-23.50 6.10-22.19Q4.84-20.88 4.14-19.38Q3.44-17.89 3.44-16.29L3.44-16.29Q3.44-14.88 3.93-13.83Q4.41-12.77 5.22-12.06Q6.04-11.35 7.09-11.00Q8.14-10.64 9.30-10.64L9.30-10.64Q10.66-10.64 11.73-10.94Q12.79-11.23 13.53-11.58Q14.26-11.93 14.65-12.24Q15.04-12.54 15.08-12.58L15.08-12.58Q15.29-12.79 15.59-12.79L15.59-12.79Q15.88-12.79 16.10-12.57Q16.33-12.34 16.33-12.05L16.33-12.05Q16.33-11.72 16.09-11.52L16.09-11.52Q16.05-11.48 15.60-11.11Q15.14-10.74 14.27-10.30Q13.40-9.86 12.15-9.51Q10.90-9.16 9.30-9.16L9.30-9.16Q7.83-9.16 6.49-9.65Q5.16-10.14 4.15-11.06Q3.14-11.99 2.55-13.31Q1.95-14.63 1.95-16.29L1.95-16.29Q1.95-18.11 2.71-19.79Q3.46-21.48 4.81-22.96Q6.17-24.43 8.07-25.65Q9.96-26.88 12.27-27.74Q14.57-28.61 17.21-29.09Q19.84-29.57 22.68-29.57L22.68-29.57Q25.78-29.57 28.38-28.87Q30.98-28.16 32.84-26.84Q34.71-25.51 35.74-23.60Q36.78-21.70 36.78-19.28ZM25.18-23.93L25.18-23.93Q25.47-23.93 25.69-23.72Q25.92-23.52 25.92-23.18L25.92-23.18Q25.92-22.99 25.81-22.83Q25.70-22.68 25.55-22.54L25.55-22.54Q24.45-21.68 23.80-20.68Q23.14-19.69 22.80-18.54Q22.46-17.40 22.35-16.11Q22.25-14.82 22.25-13.42L22.25-13.42L22.25-10.96Q22.25-8.54 21.82-6.36Q21.39-4.18 20.36-2.54Q19.34-0.90 17.62 0.07Q15.90 1.04 13.30 1.04L13.30 1.04Q12.13 1.04 11.01 0.75Q9.88 0.47 8.89-0.07Q7.89-0.61 7.05-1.39Q6.21-2.17 5.61-3.14L5.61-3.14Q5.57-3.22 5.53-3.33Q5.49-3.44 5.49-3.54L5.49-3.54Q5.49-3.81 5.69-4.03Q5.90-4.26 6.23-4.26L6.23-4.26Q6.43-4.26 6.59-4.15Q6.76-4.04 6.88-3.89L6.88-3.89Q8.13-2.15 9.71-1.28Q11.29-0.41 13.30-0.41L13.30-0.41Q15.61-0.41 17.06-1.26Q18.52-2.11 19.35-3.58Q20.18-5.06 20.48-7.03Q20.78-9.00 20.78-11.23L20.78-11.23L20.78-13.71Q20.78-15.02 20.90-16.42Q21.02-17.81 21.44-19.15Q21.86-20.49 22.65-21.69Q23.44-22.89 24.79-23.81L24.79-23.81Q24.86-23.85 24.98-23.89Q25.10-23.93 25.18-23.93Z M41.29-15.33L41.29-15.33Q41.29-14.59 40.77-14.07Q40.25-13.55 39.51-13.55L39.51-13.55Q38.77-13.55 38.25-14.07Q37.73-14.59 37.73-15.33L37.73-15.33Q37.73-15.70 37.87-16.03Q38.01-16.35 38.25-16.59Q38.50-16.84 38.82-16.97Q39.14-17.11 39.51-17.11L39.51-17.11Q39.88-17.11 40.21-16.97Q40.53-16.84 40.77-16.59Q41.02-16.35 41.15-16.03Q41.29-15.70 41.29-15.33ZM38.13-3.89L38.13-3.89Q38.13-6.70 38.48-9.49L38.48-9.49Q38.52-9.77 38.72-9.97Q38.93-10.18 39.26-10.18L39.26-10.18Q39.55-10.18 39.75-9.95Q39.94-9.73 39.94-9.43L39.94-9.43Q39.94-9.32 39.89-8.73Q39.84-8.14 39.78-7.33Q39.71-6.52 39.66-5.62Q39.61-4.71 39.61-3.95L39.61-3.95Q39.61-2.91 39.81-2.28Q40.02-1.64 40.34-1.29Q40.66-0.94 41.03-0.82Q41.39-0.70 41.72-0.70L41.72-0.70Q42.27-0.70 42.85-1.09Q43.44-1.48 44.05-2.19Q44.67-2.89 45.29-3.88Q45.92-4.86 46.52-6.07L46.52-6.07Q46.62-6.27 46.80-6.38Q46.97-6.48 47.19-6.48L47.19-6.48Q47.50-6.48 47.71-6.25Q47.91-6.02 47.91-5.74L47.91-5.74Q47.91-5.55 47.83-5.41L47.83-5.41Q47.60-4.96 47.25-4.32Q46.89-3.67 46.45-2.99Q46.00-2.30 45.46-1.63Q44.92-0.96 44.32-0.42Q43.71 0.12 43.05 0.45Q42.38 0.78 41.70 0.78L41.70 0.78Q40.82 0.78 40.16 0.41Q39.49 0.04 39.03-0.59Q38.57-1.21 38.35-2.06Q38.13-2.91 38.13-3.89ZM40.20-15.33L40.20-15.33Q40.20-15.61 39.99-15.81Q39.79-16.02 39.51-16.02L39.51-16.02Q39.24-16.02 39.04-15.81Q38.85-15.61 38.85-15.33L38.85-15.33Q38.85-15.06 39.04-14.86Q39.24-14.67 39.51-14.67L39.51-14.67Q39.79-14.67 39.99-14.86Q40.20-15.06 40.20-15.33Z M51.43-2.40L51.43-2.40Q51.76-1.66 52.52-1.22Q53.28-0.78 54.24-0.78L54.24-0.78Q54.53-0.78 55.20-0.87Q55.86-0.96 56.73-1.46Q57.60-1.95 58.57-3.03Q59.55-4.10 60.47-6.05L60.47-6.05Q60.57-6.27 60.74-6.38Q60.92-6.48 61.13-6.48L61.13-6.48Q61.46-6.48 61.67-6.25Q61.88-6.02 61.88-5.74L61.88-5.74Q61.88-5.63 61.80-5.43L61.80-5.43Q61.11-4.00 60.27-2.88Q59.43-1.76 58.46-0.97Q57.48-0.18 56.42 0.24Q55.35 0.66 54.24 0.66L54.24 0.66Q53.36 0.66 52.59 0.39Q51.82 0.12 51.26-0.34Q50.70-0.80 50.38-1.38Q50.06-1.95 50.06-2.56L50.06-2.56Q50.06-2.64 50.08-2.77Q50.10-2.91 50.19-3.08Q50.27-3.24 50.44-3.39Q50.61-3.54 50.90-3.63L50.90-3.63Q51.70-3.87 52.37-4.21Q53.05-4.55 53.54-4.98Q54.02-5.41 54.30-5.93Q54.57-6.45 54.57-7.05L54.57-7.05Q54.57-7.58 54.22-7.91Q53.87-8.24 53.36-8.24L53.36-8.24Q52.83-8.24 52.32-7.88Q51.82-7.52 51.34-6.92Q50.86-6.33 50.43-5.56Q50-4.79 49.64-3.95Q49.28-3.11 49.00-2.28Q48.73-1.45 48.55-0.74L48.55-0.74Q48.50-0.53 48.43-0.27Q48.36-0.02 48.22 0.21Q48.09 0.43 47.89 0.58Q47.70 0.72 47.38 0.72L47.38 0.72Q47.09 0.72 46.82 0.48Q46.54 0.23 46.54-0.35L46.54-0.35Q46.54-0.47 46.55-1.25Q46.56-2.03 46.58-3.29Q46.60-4.55 46.63-6.18Q46.66-7.81 46.68-9.64Q46.70-11.46 46.74-13.40Q46.78-15.33 46.80-17.17Q46.82-19.00 46.85-20.65Q46.88-22.30 46.89-23.58Q46.91-24.86 46.92-25.67Q46.93-26.48 46.93-26.64L46.93-26.64Q46.93-26.95 47.17-27.16Q47.40-27.36 47.68-27.36L47.68-27.36Q47.99-27.36 48.20-27.16Q48.42-26.95 48.42-26.62L48.42-26.62Q48.42-26.58 48.41-25.85Q48.40-25.12 48.38-23.89Q48.36-22.66 48.33-21.02Q48.30-19.38 48.27-17.53Q48.24-15.68 48.21-13.73Q48.18-11.78 48.15-9.92Q48.13-8.07 48.11-6.39Q48.09-4.71 48.07-3.42L48.07-3.42Q48.38-4.41 48.87-5.52Q49.36-6.62 50.02-7.56Q50.68-8.50 51.51-9.10Q52.34-9.71 53.36-9.71L53.36-9.71Q53.93-9.71 54.41-9.50Q54.90-9.30 55.26-8.94Q55.63-8.57 55.83-8.09Q56.04-7.60 56.04-7.03L56.04-7.03Q56.04-6.15 55.64-5.42Q55.25-4.69 54.61-4.11Q53.96-3.54 53.13-3.11Q52.30-2.68 51.43-2.40Z M75.57-5.45L75.57-5.45Q75.49-5.29 75.24-4.79Q75-4.30 74.62-3.65Q74.24-3.01 73.73-2.30Q73.22-1.60 72.60-1.02Q71.97-0.43 71.25-0.05Q70.53 0.33 69.73 0.33L69.73 0.33Q68.59 0.33 67.82-0.39Q67.05-1.11 66.70-2.21L66.70-2.21Q66.04-1.09 65.12-0.44Q64.20 0.21 63.28 0.21L63.28 0.21Q62.56 0.21 61.97-0.05Q61.39-0.31 60.98-0.79Q60.57-1.27 60.34-1.91Q60.12-2.56 60.12-3.32L60.12-3.32Q60.12-4.84 60.63-6.01Q61.15-7.17 61.95-7.95Q62.75-8.73 63.72-9.12Q64.69-9.51 65.59-9.51L65.59-9.51Q66.19-9.51 66.70-9.35Q67.21-9.18 67.57-8.98Q67.93-8.79 68.13-8.62Q68.32-8.46 68.34-8.44L68.34-8.44Q68.55-8.18 68.55-7.91L68.55-7.91Q68.55-7.62 68.34-7.39Q68.13-7.17 67.83-7.17L67.83-7.17Q67.52-7.17 67.30-7.38L67.30-7.38Q67.27-7.42 67.13-7.53Q66.99-7.64 66.76-7.75Q66.52-7.87 66.20-7.96Q65.88-8.05 65.47-8.05L65.47-8.05Q64.86-8.05 64.18-7.77Q63.50-7.50 62.93-6.92Q62.36-6.35 61.98-5.48Q61.60-4.61 61.60-3.42L61.60-3.42Q61.60-3.05 61.68-2.67Q61.76-2.29 61.95-1.97Q62.15-1.66 62.48-1.46Q62.81-1.27 63.30-1.27L63.30-1.27Q63.65-1.27 64.11-1.50Q64.57-1.74 64.99-2.23Q65.41-2.71 65.75-3.46Q66.09-4.20 66.23-5.21L66.23-5.21Q66.27-5.49 66.48-5.67Q66.70-5.86 66.99-5.86L66.99-5.86Q67.27-5.86 67.47-5.64Q67.68-5.43 67.70-5.16L67.70-5.16Q67.71-4.79 67.77-4.11Q67.83-3.44 68.04-2.77Q68.24-2.11 68.65-1.62Q69.06-1.13 69.79-1.13L69.79-1.13Q70.25-1.13 70.71-1.39Q71.17-1.64 71.61-2.06Q72.05-2.48 72.45-3.02Q72.85-3.55 73.18-4.10Q73.52-4.65 73.77-5.16Q74.02-5.66 74.20-6.04L74.20-6.04Q74.30-6.25 74.48-6.37Q74.67-6.48 74.88-6.48L74.88-6.48Q75.21-6.48 75.42-6.24Q75.63-6.00 75.63-5.72L75.63-5.72Q75.63-5.59 75.57-5.45Z M81.48 0.27L81.48 0.27Q82.17-0.41 82.87-1.12Q83.57-1.84 84.24-2.62Q84.90-3.40 85.48-4.25Q86.05-5.10 86.50-6.05L86.50-6.05Q86.60-6.27 86.78-6.38Q86.95-6.48 87.17-6.48L87.17-6.48Q87.50-6.48 87.71-6.25Q87.91-6.02 87.91-5.72L87.91-5.72Q87.91-5.57 87.85-5.43L87.85-5.43Q87.25-4.16 86.46-3.11Q85.68-2.05 84.82-1.10Q83.96-0.16 83.09 0.73Q82.21 1.62 81.41 2.52L81.41 2.52Q81.33 3.87 81.41 5.22Q81.48 6.58 81.48 8.11L81.48 8.11Q81.48 9.36 81.41 10.61Q81.33 11.86 81.15 13.00Q80.98 14.14 80.67 15.14Q80.37 16.13 79.90 16.87Q79.43 17.60 78.81 18.02Q78.18 18.44 77.34 18.44L77.34 18.44Q75.96 18.44 75.21 17.48Q74.47 16.52 74.47 14.80L74.47 14.80Q74.47 13.87 74.68 12.79Q74.88 11.72 75.25 10.58Q75.63 9.43 76.14 8.26Q76.66 7.09 77.27 5.98Q77.87 4.86 78.55 3.86Q79.24 2.85 79.94 2.03L79.94 2.03Q79.98 1.09 80.03 0.09Q80.08-0.92 80.14-1.78L80.14-1.78Q79.63-0.88 78.88-0.33Q78.13 0.21 77.23 0.21L77.23 0.21Q75.74 0.21 74.90-0.78Q74.06-1.78 74.06-3.52L74.06-3.52Q74.06-4.79 74.31-5.83Q74.55-6.88 74.83-7.63Q75.12-8.38 75.35-8.78Q75.59-9.18 75.59-9.16L75.59-9.16Q75.80-9.49 76.19-9.49L76.19-9.49Q76.52-9.49 76.73-9.27Q76.93-9.04 76.93-8.75L76.93-8.75Q76.93-8.54 76.82-8.36L76.82-8.36Q76.84-8.38 76.63-8.04Q76.43-7.70 76.18-7.05Q75.94-6.41 75.73-5.51Q75.53-4.61 75.53-3.54L75.53-3.54Q75.53-2.46 75.92-1.86Q76.31-1.25 77.19-1.25L77.19-1.25Q78.30-1.25 79.20-2.90Q80.10-4.55 80.72-7.70L80.72-7.70Q80.76-7.95 80.96-8.12Q81.15-8.28 81.43-8.28L81.43-8.28Q81.74-8.28 81.95-8.07Q82.17-7.85 82.17-7.54L82.17-7.54Q82.17-7.48 82.09-6.85Q82.01-6.21 81.90-5.16Q81.80-4.10 81.68-2.71Q81.56-1.31 81.48 0.27ZM79.92 4.41L79.92 4.41Q79.04 5.68 78.31 7.09Q77.58 8.50 77.05 9.88Q76.52 11.27 76.23 12.54Q75.94 13.81 75.94 14.80L75.94 14.80Q75.94 15.82 76.27 16.40Q76.60 16.97 77.32 16.97L77.32 16.97Q77.97 16.97 78.47 16.34Q78.96 15.70 79.31 14.53Q79.65 13.36 79.82 11.69Q80 10.02 80 7.95L80 7.95Q80 7.11 79.97 6.25Q79.94 5.39 79.92 4.41Z M92.99-2.19L92.99-2.19Q92.30-1.07 91.40-0.43Q90.49 0.21 89.57 0.21L89.57 0.21Q88.83 0.21 88.24-0.06Q87.66-0.33 87.23-0.83Q86.80-1.33 86.57-2.03Q86.35-2.73 86.35-3.61L86.35-3.61Q86.35-4.98 86.61-6.04Q86.88-7.09 87.19-7.80Q87.50-8.52 87.77-8.89Q88.05-9.26 88.05-9.26L88.05-9.26Q88.14-9.38 88.29-9.43Q88.44-9.49 88.59-9.49L88.59-9.49Q88.91-9.49 89.11-9.27Q89.32-9.04 89.32-8.75L89.32-8.75Q89.32-8.63 89.27-8.52Q89.22-8.40 89.16-8.28L89.16-8.28Q89.06-8.11 88.85-7.74Q88.63-7.38 88.40-6.80Q88.16-6.21 87.99-5.42Q87.81-4.63 87.81-3.61L87.81-3.61Q87.81-2.46 88.27-1.87Q88.73-1.27 89.57-1.27L89.57-1.27Q89.92-1.27 90.38-1.49Q90.84-1.72 91.28-2.19Q91.72-2.66 92.05-3.38Q92.38-4.10 92.48-5.08L92.48-5.08L92.77-8.44Q92.81-8.73 93.03-8.93Q93.24-9.12 93.54-9.12L93.54-9.12Q93.87-9.12 94.06-8.88Q94.26-8.63 94.26-8.32L94.26-8.32L94.00-5.08Q93.96-4.67 94.03-4.00Q94.10-3.34 94.32-2.70Q94.53-2.05 94.96-1.59Q95.39-1.13 96.09-1.13L96.09-1.13Q96.60-1.13 97.09-1.40Q97.58-1.66 98.03-2.09Q98.48-2.52 98.86-3.06Q99.24-3.59 99.56-4.14Q99.88-4.69 100.12-5.19Q100.35-5.68 100.51-6.04L100.51-6.04Q100.61-6.25 100.78-6.37Q100.96-6.48 101.17-6.48L101.17-6.48Q101.52-6.48 101.72-6.25Q101.91-6.02 101.91-5.74L101.91-5.74Q101.91-5.59 101.86-5.45L101.86-5.45Q101.78-5.29 101.55-4.79Q101.33-4.30 100.97-3.66Q100.61-3.03 100.10-2.32Q99.59-1.62 98.96-1.03Q98.34-0.43 97.61-0.05Q96.88 0.33 96.04 0.33L96.04 0.33Q94.88 0.33 94.12-0.32Q93.36-0.98 92.99-2.19Z M116.33-19.55L116.33-19.55Q116.33-19.24 116.11-19.05Q115.90-18.87 115.59-18.87L115.59-18.87L105.68-18.87L105.68-18.65Q105.68-17.46 105.51-16.11Q105.33-14.77 105.03-13.43Q104.73-12.09 104.35-10.82Q103.96-9.55 103.56-8.48Q103.16-7.40 102.77-6.61Q102.38-5.82 102.07-5.43L102.07-5.43Q102.32-4.53 102.68-3.76Q103.03-2.99 103.47-2.41Q103.91-1.84 104.41-1.50Q104.92-1.17 105.51-1.17L105.51-1.17Q106.19-1.17 106.87-1.75Q107.54-2.32 108.12-3.12Q108.69-3.91 109.13-4.72Q109.57-5.53 109.77-6.02L109.77-6.02Q109.96-6.48 110.45-6.48L110.45-6.48Q110.78-6.48 110.99-6.25Q111.19-6.02 111.19-5.74L111.19-5.74Q111.19-5.61 111.13-5.47L111.13-5.47Q111.07-5.33 110.85-4.84Q110.63-4.36 110.26-3.71Q109.90-3.07 109.42-2.35Q108.95-1.64 108.35-1.05Q107.75-0.47 107.07-0.08Q106.39 0.31 105.63 0.31L105.63 0.31Q104.28 0.31 103.20-0.57Q102.13-1.45 101.38-3.03Q100.63-4.61 100.23-6.78Q99.84-8.95 99.84-11.52L99.84-11.52Q99.84-12.17 99.86-13.04Q99.88-13.91 99.94-14.87Q100-15.84 100.12-16.87Q100.23-17.89 100.43-18.87L100.43-18.87L93.42-18.87Q93.11-18.87 92.89-19.05Q92.68-19.24 92.68-19.55L92.68-19.55Q92.68-19.86 92.89-20.05Q93.11-20.23 93.42-20.23L93.42-20.23L100.76-20.23Q100.96-20.94 101.22-21.52Q101.48-22.11 101.83-22.54Q102.17-22.97 102.59-23.21Q103.01-23.46 103.52-23.46L103.52-23.46Q104.00-23.46 104.37-23.21Q104.73-22.97 104.98-22.54Q105.23-22.11 105.38-21.52Q105.53-20.94 105.61-20.23L105.61-20.23L115.59-20.23Q115.90-20.23 116.11-20.05Q116.33-19.86 116.33-19.55ZM101.62-7.38L101.62-7.38Q102.21-8.67 102.69-10.17Q103.16-11.66 103.51-13.18Q103.85-14.71 104.03-16.17Q104.22-17.64 104.22-18.87L104.22-18.87L101.91-18.87Q101.64-17.66 101.47-15.87Q101.31-14.08 101.31-11.52L101.31-11.52Q101.31-10.10 101.39-9.13Q101.46-8.16 101.62-7.38ZM103.44-21.99L103.44-21.99Q103.26-21.99 102.93-21.61Q102.60-21.23 102.27-20.23L102.27-20.23L104.14-20.23Q104.04-21.05 103.86-21.52Q103.67-21.99 103.44-21.99ZM101.93-5.96L101.93-5.98L101.93-5.96Z"/></g>
</svg>
</g></svg></svg>