<svg version="1.1" preserveAspectRatio="none" xmlns="http://www.w3.org/2000/svg" width="500" height="500" viewBox="0 0 500 500"><rect width="100%" height="100%" fill="#012B28" fill-opacity="1"/><svg viewBox="727.8525 514.0191 375.0589 244.2851" width="333" height="216.89110243751048" x="83.5px" y="141.5544px" xmlns="http://www.w3.org/2000/svg" xmlns:xlink="http://www.w3.org/1999/xlink" preserveAspectRatio="none"><defs></defs><style>.companyName {fill:#EBB42C;fill-opacity:1;}.icon2 {fill:#E7240E;fill-opacity:1;}.icon3 {fill:#B47049;fill-opacity:1;}.icon3-str {stroke:#B47049;stroke-opacity:1;}.text {fill:#EBB42C;fill-opacity:1;}</style><g opacity="1" transform="rotate(0 737.6416 746.3042)">
<svg width="355.4808" height="12" x="737.6416" y="746.3042" version="1.1" preserveAspectRatio="none" viewBox="2.72 -29.2 1063.96 35.92">
  <g transform="matrix(1 0 0 1 0 0)" class="text"><path id="id-6izo4zJp30" d="M25.60-6.76Q24.36-3.40 21.52-1.50Q18.68 0.40 14.96 0.40L14.96 0.40Q11.24 0.40 8.48-1.26Q5.72-2.92 4.22-5.98Q2.72-9.04 2.72-13.20L2.72-13.20Q2.72-17.32 4.22-20.40Q5.72-23.48 8.48-25.14Q11.24-26.80 14.88-26.80L14.88-26.80Q18.68-26.80 21.26-25.24Q23.84-23.68 25.12-20.64L25.12-20.64L21.96-19.16Q21.08-21.48 19.40-22.64Q17.72-23.80 15.12-23.80L15.12-23.80Q12.40-23.80 10.36-22.54Q8.32-21.28 7.20-18.88Q6.08-16.48 6.08-13.20L6.08-13.20Q6.08-8.24 8.46-5.42Q10.84-2.60 14.96-2.60L14.96-2.60Q17.64-2.60 19.60-3.96Q21.56-5.32 22.40-7.96L22.40-7.96L25.60-6.76Z M54.40-26.80Q58.12-26.80 60.88-25.14Q63.64-23.48 65.14-20.42Q66.64-17.36 66.64-13.20L66.64-13.20Q66.64-9.04 65.14-5.98Q63.64-2.92 60.88-1.26Q58.12 0.40 54.40 0.40L54.40 0.40Q50.68 0.40 47.92-1.26Q45.16-2.92 43.66-5.98Q42.16-9.04 42.16-13.20L42.16-13.20Q42.16-17.36 43.66-20.42Q45.16-23.48 47.92-25.14Q50.68-26.80 54.40-26.80L54.40-26.80ZM54.40-23.80Q50.28-23.80 47.90-20.98Q45.52-18.16 45.52-13.20L45.52-13.20Q45.52-8.24 47.90-5.42Q50.28-2.60 54.40-2.60L54.40-2.60Q58.52-2.60 60.90-5.42Q63.28-8.24 63.28-13.20L63.28-13.20Q63.28-18.16 60.90-20.98Q58.52-23.80 54.40-23.80L54.40-23.80Z M111.20-26.40L111.20 0L108.16 0L108.16-16.60L108.52-23.56L108.48-23.56L99.80 0L97.08 0L88.40-23.56L88.36-23.56L88.72-16.60L88.72 0L85.68 0L85.68-26.40L90.60-26.40L96.40-10.36L98.40-3.76L98.48-3.76L100.52-10.32L106.28-26.40L111.20-26.40Z M157.36-26.40L157.36 0L154.32 0L154.32-16.60L154.68-23.56L154.64-23.56L145.96 0L143.24 0L134.56-23.56L134.52-23.56L134.88-16.60L134.88 0L131.84 0L131.84-26.40L136.76-26.40L142.56-10.36L144.56-3.76L144.64-3.76L146.68-10.32L152.44-26.40L157.36-26.40Z M198.44-26.40L198.44-9.84Q198.44-4.76 195.78-2.18Q193.12 0.40 188.08 0.40L188.08 0.40Q183.04 0.40 180.38-2.20Q177.72-4.80 177.72-9.84L177.72-9.84L177.72-26.40L180.92-26.40L180.92-10.64Q180.92-6.48 182.66-4.54Q184.40-2.60 188.08-2.60L188.08-2.60Q191.76-2.60 193.50-4.54Q195.24-6.48 195.24-10.64L195.24-10.64L195.24-26.40L198.44-26.40Z M239.52-26.40L239.52 0L235.56 0L224.52-17.68L221.72-22.88L221.68-22.88L221.84-18.64L221.84 0L218.80 0L218.80-26.40L222.76-26.40L233.76-8.80L236.60-3.52L236.64-3.52L236.48-7.76L236.48-26.40L239.52-26.40Z M263.36-26.40L263.36 0L260.16 0L260.16-26.40L263.36-26.40Z M302.56-26.40L302.56-23.40L293.36-23.40L293.36 0L290.16 0L290.16-23.40L280.96-23.40L280.96-26.40L302.56-26.40Z M338.32-26.40L328.88-10.32L328.88 0L325.68 0L325.68-10.32L316.24-26.40L320.04-26.40L327.28-13.60L334.52-26.40L338.32-26.40Z M380.92-29.20L380.92 6.72L378.16 6.72L378.16-29.20L380.92-29.20Z M410.88-13.32L422.20-13.32L422.20 0L419.80 0L419.68-3.56Q418.52-1.64 416.42-0.62Q414.32 0.40 411.36 0.40L411.36 0.40Q407.64 0.40 404.88-1.26Q402.12-2.92 400.62-5.98Q399.12-9.04 399.12-13.20L399.12-13.20Q399.12-17.32 400.66-20.40Q402.20-23.48 404.98-25.14Q407.76-26.80 411.44-26.80L411.44-26.80Q415.36-26.80 417.90-25.32Q420.44-23.84 422.00-20.76L422.00-20.76L419.08-19.16Q418.20-21.40 416.22-22.60Q414.24-23.80 411.44-23.80L411.44-23.80Q408.76-23.80 406.74-22.52Q404.72-21.24 403.60-18.86Q402.48-16.48 402.48-13.20L402.48-13.20Q402.48-8.16 404.80-5.38Q407.12-2.60 411.48-2.60L411.48-2.60Q414.92-2.60 417.10-4.36Q419.28-6.12 419.28-9.40L419.28-9.40L419.28-10.32L410.88-10.32L410.88-13.32Z M459.32 0L456.52-7.32L444.56-7.32L441.76 0L438.40 0L448.68-26.40L452.48-26.40L462.72 0L459.32 0ZM445.72-10.32L455.36-10.32L451.80-19.68L450.56-23.36L450.48-23.36L449.32-19.80L445.72-10.32Z M505.60-26.40L505.60 0L502.56 0L502.56-16.60L502.92-23.56L502.88-23.56L494.20 0L491.48 0L482.80-23.56L482.76-23.56L483.12-16.60L483.12 0L480.08 0L480.08-26.40L485-26.40L490.80-10.36L492.80-3.76L492.88-3.76L494.92-10.32L500.68-26.40L505.60-26.40Z M529.44-26.40L529.44 0L526.24 0L526.24-26.40L529.44-26.40Z M570.80-26.40L570.80 0L566.84 0L555.80-17.68L553.00-22.88L552.96-22.88L553.12-18.64L553.12 0L550.08 0L550.08-26.40L554.04-26.40L565.04-8.80L567.88-3.52L567.92-3.52L567.76-7.76L567.76-26.40L570.80-26.40Z M601.60-13.32L612.92-13.32L612.92 0L610.52 0L610.40-3.56Q609.24-1.64 607.14-0.62Q605.04 0.40 602.08 0.40L602.08 0.40Q598.36 0.40 595.60-1.26Q592.84-2.92 591.34-5.98Q589.84-9.04 589.84-13.20L589.84-13.20Q589.84-17.32 591.38-20.40Q592.92-23.48 595.70-25.14Q598.48-26.80 602.16-26.80L602.16-26.80Q606.08-26.80 608.62-25.32Q611.16-23.84 612.72-20.76L612.72-20.76L609.80-19.16Q608.92-21.40 606.94-22.60Q604.96-23.80 602.16-23.80L602.16-23.80Q599.48-23.80 597.46-22.52Q595.44-21.24 594.32-18.86Q593.20-16.48 593.20-13.20L593.20-13.20Q593.20-8.16 595.52-5.38Q597.84-2.60 602.20-2.60L602.20-2.60Q605.64-2.60 607.82-4.36Q610.00-6.12 610.00-9.40L610.00-9.40L610.00-10.32L601.60-10.32L601.60-13.32Z M674.08 0L671.28-7.32L659.32-7.32L656.52 0L653.16 0L663.44-26.40L667.24-26.40L677.48 0L674.08 0ZM660.48-10.32L670.12-10.32L666.56-19.68L665.32-23.36L665.24-23.36L664.08-19.80L660.48-10.32Z M715.56-26.40L715.56 0L711.60 0L700.56-17.68L697.76-22.88L697.72-22.88L697.88-18.64L697.88 0L694.84 0L694.84-26.40L698.80-26.40L709.80-8.80L712.64-3.52L712.68-3.52L712.52-7.76L712.52-26.40L715.56-26.40Z M744.72-26.40Q750.96-26.40 754.48-22.96Q758.00-19.52 758.00-13.20L758.00-13.20Q758.00-6.88 754.48-3.44Q750.96 0 744.72 0L744.72 0L736.20 0L736.20-26.40L744.72-26.40ZM745.04-3Q749.56-3 752.10-5.70Q754.64-8.40 754.64-13.20L754.64-13.20Q754.64-18 752.10-20.70Q749.56-23.40 745.04-23.40L745.04-23.40L739.40-23.40L739.40-3L745.04-3Z M823.96-6.76Q822.72-3.40 819.88-1.50Q817.04 0.40 813.32 0.40L813.32 0.40Q809.60 0.40 806.84-1.26Q804.08-2.92 802.58-5.98Q801.08-9.04 801.08-13.20L801.08-13.20Q801.08-17.32 802.58-20.40Q804.08-23.48 806.84-25.14Q809.60-26.80 813.24-26.80L813.24-26.80Q817.04-26.80 819.62-25.24Q822.20-23.68 823.48-20.64L823.48-20.64L820.32-19.16Q819.44-21.48 817.76-22.64Q816.08-23.80 813.48-23.80L813.48-23.80Q810.76-23.80 808.72-22.54Q806.68-21.28 805.56-18.88Q804.44-16.48 804.44-13.20L804.44-13.20Q804.44-8.24 806.82-5.42Q809.20-2.60 813.32-2.60L813.32-2.60Q816.00-2.60 817.96-3.96Q819.92-5.32 820.76-7.96L820.76-7.96L823.96-6.76Z M852.76-26.80Q856.48-26.80 859.24-25.14Q862.00-23.48 863.50-20.42Q865.00-17.36 865.00-13.20L865.00-13.20Q865.00-9.04 863.50-5.98Q862.00-2.92 859.24-1.26Q856.48 0.40 852.76 0.40L852.76 0.40Q849.04 0.40 846.28-1.26Q843.52-2.92 842.02-5.98Q840.52-9.04 840.52-13.20L840.52-13.20Q840.52-17.36 842.02-20.42Q843.52-23.48 846.28-25.14Q849.04-26.80 852.76-26.80L852.76-26.80ZM852.76-23.80Q848.64-23.80 846.26-20.98Q843.88-18.16 843.88-13.20L843.88-13.20Q843.88-8.24 846.26-5.42Q848.64-2.60 852.76-2.60L852.76-2.60Q856.88-2.60 859.26-5.42Q861.64-8.24 861.64-13.20L861.64-13.20Q861.64-18.16 859.26-20.98Q856.88-23.80 852.76-23.80L852.76-23.80Z M892.56-26.40Q898.80-26.40 902.32-22.96Q905.84-19.52 905.84-13.20L905.84-13.20Q905.84-6.88 902.32-3.44Q898.80 0 892.56 0L892.56 0L884.04 0L884.04-26.40L892.56-26.40ZM892.88-3Q897.40-3 899.94-5.70Q902.48-8.40 902.48-13.20L902.48-13.20Q902.48-18 899.94-20.70Q897.40-23.40 892.88-23.40L892.88-23.40L887.24-23.40L887.24-3L892.88-3Z M928.08-3L944.00-3L944.00 0L924.88 0L924.88-26.40L943.40-26.40L943.40-23.40L928.08-23.40L928.08-14.88L940.00-14.88L940.00-11.88L928.08-11.88L928.08-3Z M964.32-29.20L964.32 6.72L961.56 6.72L961.56-29.20L964.32-29.20Z M1028.24-23.40L1012.96-23.40L1012.96-14.88L1024.88-14.88L1024.88-11.88L1012.96-11.88L1012.96 0L1009.76 0L1009.76-26.40L1028.24-26.40L1028.24-23.40Z M1062.88 0L1055.68-10.96L1049.36-10.96L1049.36 0L1046.16 0L1046.16-26.40L1056.16-26.40Q1060.20-26.40 1062.64-24.32Q1065.08-22.24 1065.08-18.68L1065.08-18.68Q1065.08-15.88 1063.52-13.96Q1061.96-12.04 1059.24-11.32L1059.24-11.32L1066.68 0L1062.88 0ZM1049.36-23.40L1049.36-13.96L1056.12-13.96Q1061.72-13.96 1061.72-18.68L1061.72-18.68Q1061.72-23.40 1056.12-23.40L1056.12-23.40L1049.36-23.40Z"/></g>
</svg>
</g><g opacity="1" transform="rotate(0 727.8525 672.3042)">
<svg width="375.0589" height="40" x="727.8525" y="672.3042" version="1.1" preserveAspectRatio="none" viewBox="4.8 -28 267.03999999999996 28.48">
  <g transform="matrix(1 0 0 1 0 0)" class="companyName"><path id="id-D6z1nYkh7" d="M8.44 0L8.44-11.68Q9.48-11.40 10.68-11.22Q11.88-11.04 13.32-11.04L13.32-11.04Q15.76-11.04 17.64-11.72Q19.52-12.40 20.78-13.58Q22.04-14.76 22.68-16.30Q23.32-17.84 23.32-19.60L23.32-19.60Q23.32-21.28 22.76-22.82Q22.20-24.36 21.06-25.50Q19.92-26.64 18.20-27.32Q16.48-28 14.16-28L14.16-28L4.80-28L4.80 0L8.44 0ZM8.44-13.32L8.44-26.24L12.64-26.24Q14.32-26.24 15.60-25.64Q16.88-25.04 17.72-24.06Q18.56-23.08 18.98-21.86Q19.40-20.64 19.40-19.44L19.40-19.44Q19.40-18.28 19.02-17.10Q18.64-15.92 17.80-14.96Q16.96-14 15.68-13.40Q14.40-12.80 12.60-12.80L12.60-12.80Q11.36-12.80 10.32-12.90Q9.28-13 8.44-13.32L8.44-13.32Z M50.56-28L46.92-28L46.92 0L50.56 0L50.56-28Z M77.76-28L77.76 0L81.40 0L81.40-9.84L85.92-14.68L96.56 0L100.72 0L88.24-17.16L98.40-28L96.40-28L81.40-12.24L81.40-28L77.76-28Z M124.48-8.24L138.28-8.24L142.12 0L146 0L132.96-28L130.96-28L119.12 0L120.96 0L124.48-8.24ZM131.16-23.52L137.44-10.04L125.24-10.04L131-23.52L131.16-23.52Z M164.92-28L160.80-28L170.48-10.60L170.48 0L174.12 0L174.12-10.96L183.96-28L181.80-28L173.24-13.24L173.08-13.24L164.92-28Z M208-28L204.36-28L204.36-10.80Q204.36-9.16 204.68-7.18Q205-5.20 206.20-3.50Q207.40-1.80 209.76-0.66Q212.12 0.48 216.20 0.48L216.20 0.48Q218.76 0.48 220.74-0.32Q222.72-1.12 224.06-2.52Q225.40-3.92 226.08-5.78Q226.76-7.64 226.76-9.76L226.76-9.76L226.76-28L225-28L225-11.08Q225-10.20 224.96-9.30Q224.92-8.40 224.72-7.50Q224.52-6.60 224.10-5.72Q223.68-4.84 222.88-3.96L222.88-3.96Q221.44-2.40 219.64-1.84Q217.84-1.28 215.88-1.28L215.88-1.28Q214.20-1.28 212.90-1.80Q211.60-2.32 210.44-3.36L210.44-3.36Q209.52-4.16 209.04-4.96Q208.56-5.76 208.32-6.54Q208.08-7.32 208.04-8.12Q208-8.92 208-9.72L208-9.72L208-28Z M257.48 0L261.12 0L261.12-25.80L271.84-25.80L271.84-28L246.76-28L246.76-25.80L257.48-25.80L257.48 0Z"/></g>
</svg>
</g><g opacity="1" transform="rotate(0 865.382 514.0191)">
<svg width="100" height="98.2851" x="865.382" y="514.0191" version="1.1" preserveAspectRatio="none" viewBox="3.878999948501587 5.0980000495910645 40.00199890136719 39.316001892089844">
  <g transform="matrix(1 0 0 1 0 0)" class="companyName"><g><path d="M23.881,44.414L3.879,29.408l5.022-7.53V5.098L19.837,18.77h8.094L38.86,5.098v16.78l5.021,7.53L23.881,44.414z    M7.037,28.869l16.844,12.638l16.85-12.638l-4.189-6.287V11.726l-7.5,9.36H18.72l-7.493-9.36v10.857L7.037,28.869z"></path></g></g>
</svg>
</g></svg></svg>