<svg version="1.1" preserveAspectRatio="none" xmlns="http://www.w3.org/2000/svg" width="500" height="500" viewBox="0 0 500 500"><rect width="100%" height="100%" fill="#414141" fill-opacity="1"/><svg viewBox="-3.3192 171.0309 485.8922 291.5207" width="333" height="199.78998037013147" x="83.5px" y="150.105px" xmlns="http://www.w3.org/2000/svg" xmlns:xlink="http://www.w3.org/1999/xlink" preserveAspectRatio="none"><defs></defs><style>.companyName {fill:#E9E9E9;fill-opacity:1;}.icon3-str {stroke:#888888;stroke-opacity:1;}.shape {fill:#282828;fill-opacity:1;}.shapeStroke-str {stroke:#E9E9E9;stroke-opacity:1;}.text {fill:#E9E9E9;fill-opacity:1;}</style><g opacity="1" transform="rotate(0 93.8593 171.0309)">
<svg width="291.5353" height="291.5207" x="93.8593" y="171.0309" version="1.1" preserveAspectRatio="none" viewBox="0 0 291.5353 291.5207">
  <defs><rect x="0" y="0" width="291.5353" height="291.5207" rx="0%" ry="0%" id="id-aPBVVfuK1676915560790"></rect></defs><use class="shape shapeStroke-str" style="stroke-width:0;" xlink:href="#id-aPBVVfuK1676915560790"></use>
</svg>
</g><g opacity="1" transform="rotate(0 -3.3192 361.7912)">
<svg width="485.8922" height="22" x="-3.3192" y="361.7912" version="1.1" preserveAspectRatio="none" viewBox="2.72 -29.2 834.8399999999999 37.8">
  <g transform="matrix(1 0 0 1 0 0)" class="text"><path id="id-6izo4zJp30" d="M25.60-6.76Q24.36-3.40 21.52-1.50Q18.68 0.40 14.96 0.40L14.96 0.40Q11.24 0.40 8.48-1.26Q5.72-2.92 4.22-5.98Q2.72-9.04 2.72-13.20L2.72-13.20Q2.72-17.32 4.22-20.40Q5.72-23.48 8.48-25.14Q11.24-26.80 14.88-26.80L14.88-26.80Q18.68-26.80 21.26-25.24Q23.84-23.68 25.12-20.64L25.12-20.64L21.96-19.16Q21.08-21.48 19.40-22.64Q17.72-23.80 15.12-23.80L15.12-23.80Q12.40-23.80 10.36-22.54Q8.32-21.28 7.20-18.88Q6.08-16.48 6.08-13.20L6.08-13.20Q6.08-8.24 8.46-5.42Q10.84-2.60 14.96-2.60L14.96-2.60Q17.64-2.60 19.60-3.96Q21.56-5.32 22.40-7.96L22.40-7.96L25.60-6.76Z M45.60-20.40Q50.12-20.40 52.70-17.64Q55.28-14.88 55.28-10L55.28-10Q55.28-5.12 52.70-2.36Q50.12 0.40 45.60 0.40L45.60 0.40Q41.08 0.40 38.50-2.36Q35.92-5.12 35.92-10L35.92-10Q35.92-14.88 38.50-17.64Q41.08-20.40 45.60-20.40L45.60-20.40ZM45.60-17.64Q42.56-17.64 40.84-15.60Q39.12-13.56 39.12-10L39.12-10Q39.12-6.44 40.84-4.40Q42.56-2.36 45.60-2.36L45.60-2.36Q48.64-2.36 50.36-4.40Q52.08-6.44 52.08-10L52.08-10Q52.08-13.56 50.36-15.60Q48.64-17.64 45.60-17.64L45.60-17.64Z M90.72-20.40Q92.72-20.40 94.46-19.58Q96.20-18.76 97.28-17.04Q98.36-15.32 98.36-12.80L98.36-12.80L98.36 0L95.16 0L95.16-12.48Q95.16-15.08 93.86-16.34Q92.56-17.60 90.44-17.60L90.44-17.60Q88.84-17.60 87.50-16.82Q86.16-16.04 85.34-14.54Q84.52-13.04 84.52-10.96L84.52-10.96L84.52 0L81.32 0L81.32-12.48Q81.32-15.08 80.02-16.34Q78.72-17.60 76.60-17.60L76.60-17.60Q75.16-17.60 73.80-16.86Q72.44-16.12 71.56-14.56Q70.68-13 70.68-10.68L70.68-10.68L70.68 0L67.48 0L67.48-20L70.28-20L70.48-16.88Q71.52-18.64 73.22-19.52Q74.92-20.40 76.88-20.40L76.88-20.40Q79.08-20.40 80.94-19.40Q82.80-18.40 83.76-16.48L83.76-16.48Q84.64-18.40 86.64-19.40Q88.64-20.40 90.72-20.40L90.72-20.40Z M134.84-20.40Q136.84-20.40 138.58-19.58Q140.32-18.76 141.40-17.04Q142.48-15.32 142.48-12.80L142.48-12.80L142.48 0L139.28 0L139.28-12.48Q139.28-15.08 137.98-16.34Q136.68-17.60 134.56-17.60L134.56-17.60Q132.96-17.60 131.62-16.82Q130.28-16.04 129.46-14.54Q128.64-13.04 128.64-10.96L128.64-10.96L128.64 0L125.44 0L125.44-12.48Q125.44-15.08 124.14-16.34Q122.84-17.60 120.72-17.60L120.72-17.60Q119.28-17.60 117.92-16.86Q116.56-16.12 115.68-14.56Q114.80-13 114.80-10.68L114.80-10.68L114.80 0L111.60 0L111.60-20L114.40-20L114.60-16.88Q115.64-18.64 117.34-19.52Q119.04-20.40 121-20.40L121-20.40Q123.20-20.40 125.06-19.40Q126.92-18.40 127.88-16.48L127.88-16.48Q128.76-18.40 130.76-19.40Q132.76-20.40 134.84-20.40L134.84-20.40Z M169.84-20L173.04-20L173.04 0L170.24 0L170.04-3.04Q168.04 0.40 162.88 0.40L162.88 0.40Q159.64 0.40 157.58-1.40Q155.52-3.20 155.52-6.92L155.52-6.92L155.52-20L158.72-20L158.72-7.76Q158.72-4.84 159.92-3.62Q161.12-2.40 163.44-2.40L163.44-2.40Q166.20-2.40 168.02-4.08Q169.84-5.76 169.84-9.12L169.84-9.12L169.84-20Z M196.20-20.40Q199.60-20.40 201.80-18.44Q204-16.48 204-12.80L204-12.80L204 0L200.80 0L200.80-11.68Q200.80-14.80 199.46-16.20Q198.12-17.60 195.88-17.60L195.88-17.60Q194.28-17.60 192.88-16.90Q191.48-16.20 190.58-14.62Q189.68-13.04 189.68-10.64L189.68-10.64L189.68 0L186.48 0L186.48-20L189.28-20L189.48-16.88Q190.48-18.68 192.24-19.54Q194-20.40 196.20-20.40L196.20-20.40Z M218.84-23.84Q217.76-23.84 217.10-24.50Q216.44-25.16 216.44-26.24L216.44-26.24Q216.44-27.32 217.10-27.98Q217.76-28.64 218.84-28.64L218.84-28.64Q219.92-28.64 220.58-27.98Q221.24-27.32 221.24-26.24L221.24-26.24Q221.24-25.16 220.58-24.50Q219.92-23.84 218.84-23.84L218.84-23.84ZM220.44-20L220.44 0L217.24 0L217.24-20L220.44-20Z M245.00-4.08L246.12-1.40Q244.12 0.40 240.96 0.40L240.96 0.40Q238.52 0.40 236.98-0.92Q235.44-2.24 235.40-4.96L235.40-4.96L235.40-17.24L231.40-17.24L231.40-20L235.40-20L235.40-24.80L238.60-25.68L238.60-20L246.00-20L246.00-17.24L238.60-17.24L238.60-5.52Q238.60-4.08 239.42-3.34Q240.24-2.60 241.60-2.60L241.60-2.60Q243.52-2.60 245.00-4.08L245.00-4.08Z M273.64-20L264.24 3.36Q263.08 6.24 261.64 7.42Q260.20 8.60 257.92 8.60L257.92 8.60Q256.40 8.60 255.38 8.20Q254.36 7.80 253.52 6.92L253.52 6.92L254.64 4.20Q255.80 5.80 257.88 5.80L257.88 5.80Q259.04 5.80 259.94 5.10Q260.84 4.40 261.52 2.56L261.52 2.56L262.56-0.04L254.20-20L257.84-20L262.84-6.96L264.08-3.40L265.52-7.36L270.20-20L273.64-20Z M305.20-29.20L305.20 6.72L302.44 6.72L302.44-29.20L305.20-29.20Z M329.16-13.32L340.48-13.32L340.48 0L338.08 0L337.96-3.56Q336.80-1.64 334.70-0.62Q332.60 0.40 329.64 0.40L329.64 0.40Q325.92 0.40 323.16-1.26Q320.40-2.92 318.90-5.98Q317.40-9.04 317.40-13.20L317.40-13.20Q317.40-17.32 318.94-20.40Q320.48-23.48 323.26-25.14Q326.04-26.80 329.72-26.80L329.72-26.80Q333.64-26.80 336.18-25.32Q338.72-23.84 340.28-20.76L340.28-20.76L337.36-19.16Q336.48-21.40 334.50-22.60Q332.52-23.80 329.72-23.80L329.72-23.80Q327.04-23.80 325.02-22.52Q323.00-21.24 321.88-18.86Q320.76-16.48 320.76-13.20L320.76-13.20Q320.76-8.16 323.08-5.38Q325.40-2.60 329.76-2.60L329.76-2.60Q333.20-2.60 335.38-4.36Q337.56-6.12 337.56-9.40L337.56-9.40L337.56-10.32L329.16-10.32L329.16-13.32Z M369.76-2.32Q370.56-2.32 371.36-2.52L371.36-2.52L371.16 0Q370.04 0.40 368.76 0.40L368.76 0.40Q367.20 0.40 366.30-0.28Q365.40-0.96 365.16-2.56L365.16-2.56Q364.24-1.16 362.46-0.38Q360.68 0.40 358.72 0.40L358.72 0.40Q355.76 0.40 353.84-0.98Q351.92-2.36 351.92-4.96L351.92-4.96Q351.92-7.24 353.92-8.90Q355.92-10.56 359.72-11.20L359.72-11.20L365.04-12.08L365.04-13.20Q365.04-15.20 363.80-16.40Q362.56-17.60 360.36-17.60L360.36-17.60Q358.36-17.60 356.90-16.64Q355.44-15.68 354.64-13.80L354.64-13.80L352.28-15.52Q353.08-17.76 355.26-19.08Q357.44-20.40 360.36-20.40L360.36-20.40Q363.92-20.40 366.08-18.68Q368.24-16.96 368.24-13.60L368.24-13.60L368.24-3.76Q368.24-3.04 368.60-2.68Q368.96-2.32 369.76-2.32L369.76-2.32ZM358.88-2.40Q361.40-2.40 363.22-3.60Q365.04-4.80 365.04-6.72L365.04-6.72L365.04-9.48L360.56-8.64Q357.88-8.16 356.56-7.26Q355.24-6.36 355.24-4.96L355.24-4.96Q355.24-3.72 356.20-3.06Q357.16-2.40 358.88-2.40L358.88-2.40Z M405.24-20.40Q407.24-20.40 408.98-19.58Q410.72-18.76 411.80-17.04Q412.88-15.32 412.88-12.80L412.88-12.80L412.88 0L409.68 0L409.68-12.48Q409.68-15.08 408.38-16.34Q407.08-17.60 404.96-17.60L404.96-17.60Q403.36-17.60 402.02-16.82Q400.68-16.04 399.86-14.54Q399.04-13.04 399.04-10.96L399.04-10.96L399.04 0L395.84 0L395.84-12.48Q395.84-15.08 394.54-16.34Q393.24-17.60 391.12-17.60L391.12-17.60Q389.68-17.60 388.32-16.86Q386.96-16.12 386.08-14.56Q385.20-13 385.20-10.68L385.20-10.68L385.20 0L382.00 0L382.00-20L384.80-20L385.00-16.88Q386.04-18.64 387.74-19.52Q389.44-20.40 391.40-20.40L391.40-20.40Q393.60-20.40 395.46-19.40Q397.32-18.40 398.28-16.48L398.28-16.48Q399.16-18.40 401.16-19.40Q403.16-20.40 405.24-20.40L405.24-20.40Z M427.72-23.84Q426.64-23.84 425.98-24.50Q425.32-25.16 425.32-26.24L425.32-26.24Q425.32-27.32 425.98-27.98Q426.64-28.64 427.72-28.64L427.72-28.64Q428.80-28.64 429.46-27.98Q430.12-27.32 430.12-26.24L430.12-26.24Q430.12-25.16 429.46-24.50Q428.80-23.84 427.72-23.84L427.72-23.84ZM429.32-20L429.32 0L426.12 0L426.12-20L429.32-20Z M452.48-20.40Q455.88-20.40 458.08-18.44Q460.28-16.48 460.28-12.80L460.28-12.80L460.28 0L457.08 0L457.08-11.68Q457.08-14.80 455.74-16.20Q454.40-17.60 452.16-17.60L452.16-17.60Q450.56-17.60 449.16-16.90Q447.76-16.20 446.86-14.62Q445.96-13.04 445.96-10.64L445.96-10.64L445.96 0L442.76 0L442.76-20L445.56-20L445.76-16.88Q446.76-18.68 448.52-19.54Q450.28-20.40 452.48-20.40L452.48-20.40Z M484.68-2.56Q487.52-2.56 489.12-1.28Q490.72 0 490.72 2.20L490.72 2.20Q490.72 4.12 489.40 5.58Q488.08 7.04 485.82 7.82Q483.56 8.60 480.84 8.60L480.84 8.60Q476.28 8.60 473.96 7.14Q471.64 5.68 471.64 3.32L471.64 3.32Q471.64 1.96 472.58 0.92Q473.52-0.12 475.16-0.56L475.16-0.56Q473.92-1.16 473.18-2.08Q472.44-3 472.44-4.24L472.44-4.24Q472.44-5.72 473.24-6.70Q474.04-7.68 475.44-8.16L475.44-8.16Q474.00-9.04 473.26-10.46Q472.52-11.88 472.52-13.64L472.52-13.64Q472.52-15.60 473.56-17.14Q474.60-18.68 476.48-19.54Q478.36-20.40 480.72-20.40L480.72-20.40Q482.96-20.40 484.80-19.60L484.80-19.60Q485.92-23.68 490.44-23.68L490.44-23.68L491.16-20.88Q487.24-20.88 486.40-18.68L486.40-18.68Q487.60-17.76 488.26-16.48Q488.92-15.20 488.92-13.64L488.92-13.64Q488.92-11.68 487.88-10.14Q486.84-8.60 484.96-7.74Q483.08-6.88 480.72-6.88L480.72-6.88Q478.96-6.88 477.64-7.24L477.64-7.24Q476.44-6.96 475.92-6.36Q475.40-5.76 475.40-4.72L475.40-4.72Q475.40-3.68 476.12-3.12Q476.84-2.56 478.04-2.56L478.04-2.56L484.68-2.56ZM480.72-17.80Q478.64-17.80 477.24-16.64Q475.84-15.48 475.84-13.64L475.84-13.64Q475.84-11.80 477.24-10.64Q478.64-9.48 480.72-9.48L480.72-9.48Q482.80-9.48 484.20-10.64Q485.60-11.80 485.60-13.64L485.60-13.64Q485.60-15.48 484.20-16.64Q482.80-17.80 480.72-17.80L480.72-17.80ZM481.20 5.92Q484.24 5.92 486.00 4.94Q487.76 3.96 487.76 2.56L487.76 2.56Q487.76 1.40 486.86 0.80Q485.96 0.20 483.80 0.20L483.80 0.20L478.44 0.20Q476.60 0.20 475.60 0.86Q474.60 1.52 474.60 2.68L474.60 2.68Q474.60 4.20 476.28 5.06Q477.96 5.92 481.20 5.92L481.20 5.92Z M537.52-2.32Q538.32-2.32 539.12-2.52L539.12-2.52L538.92 0Q537.80 0.40 536.52 0.40L536.52 0.40Q534.96 0.40 534.06-0.28Q533.16-0.96 532.92-2.56L532.92-2.56Q532.00-1.16 530.22-0.38Q528.44 0.40 526.48 0.40L526.48 0.40Q523.52 0.40 521.60-0.98Q519.68-2.36 519.68-4.96L519.68-4.96Q519.68-7.24 521.68-8.90Q523.68-10.56 527.48-11.20L527.48-11.20L532.80-12.08L532.80-13.20Q532.80-15.20 531.56-16.40Q530.32-17.60 528.12-17.60L528.12-17.60Q526.12-17.60 524.66-16.64Q523.20-15.68 522.40-13.80L522.40-13.80L520.04-15.52Q520.84-17.76 523.02-19.08Q525.20-20.40 528.12-20.40L528.12-20.40Q531.68-20.40 533.84-18.68Q536.00-16.96 536.00-13.60L536.00-13.60L536.00-3.76Q536.00-3.04 536.36-2.68Q536.72-2.32 537.52-2.32L537.52-2.32ZM526.64-2.40Q529.16-2.40 530.98-3.60Q532.80-4.80 532.80-6.72L532.80-6.72L532.80-9.48L528.32-8.64Q525.64-8.16 524.32-7.26Q523.00-6.36 523.00-4.96L523.00-4.96Q523.00-3.72 523.96-3.06Q524.92-2.40 526.64-2.40L526.64-2.40Z M559.48-20.40Q562.88-20.40 565.08-18.44Q567.28-16.48 567.28-12.80L567.28-12.80L567.28 0L564.08 0L564.08-11.68Q564.08-14.80 562.74-16.20Q561.40-17.60 559.16-17.60L559.16-17.60Q557.56-17.60 556.16-16.90Q554.76-16.20 553.86-14.62Q552.96-13.04 552.96-10.64L552.96-10.64L552.96 0L549.76 0L549.76-20L552.56-20L552.76-16.88Q553.76-18.68 555.52-19.54Q557.28-20.40 559.48-20.40L559.48-20.40Z M595.08-29.20L598.28-29.20L598.28 0L595.48 0L595.28-3.48Q594.40-1.72 592.58-0.66Q590.76 0.40 588.44 0.40L588.44 0.40Q584.24 0.40 581.78-2.38Q579.32-5.16 579.32-10L579.32-10Q579.32-14.84 581.78-17.62Q584.24-20.40 588.44-20.40L588.44-20.40Q590.64-20.40 592.38-19.44Q594.12-18.48 595.08-16.88L595.08-16.88L595.08-29.20ZM588.80-2.40Q591.68-2.40 593.38-4.40Q595.08-6.40 595.08-9.76L595.08-9.76L595.08-10.24Q595.08-13.60 593.38-15.60Q591.68-17.60 588.80-17.60L588.80-17.60Q585.88-17.60 584.20-15.54Q582.52-13.48 582.52-10L582.52-10Q582.52-6.52 584.20-4.46Q585.88-2.40 588.80-2.40L588.80-2.40Z M639.80-20.40Q642.80-20.40 644.86-19.02Q646.92-17.64 648.08-15.08L648.08-15.08L645.04-13.64Q643.76-17.60 639.72-17.60L639.72-17.60Q636.72-17.60 635.02-15.58Q633.32-13.56 633.32-10L633.32-10Q633.32-6.44 635.02-4.42Q636.72-2.40 639.72-2.40L639.72-2.40Q642.04-2.40 643.46-3.46Q644.88-4.52 645.32-6.52L645.32-6.52L648.28-5.48Q647.24-2.68 645.08-1.14Q642.92 0.40 639.80 0.40L639.80 0.40Q635.28 0.40 632.70-2.36Q630.12-5.12 630.12-10L630.12-10Q630.12-14.88 632.70-17.64Q635.28-20.40 639.80-20.40L639.80-20.40Z M668.36-20.40Q672.88-20.40 675.46-17.64Q678.04-14.88 678.04-10L678.04-10Q678.04-5.12 675.46-2.36Q672.88 0.40 668.36 0.40L668.36 0.40Q663.84 0.40 661.26-2.36Q658.68-5.12 658.68-10L658.68-10Q658.68-14.88 661.26-17.64Q663.84-20.40 668.36-20.40L668.36-20.40ZM668.36-17.64Q665.32-17.64 663.60-15.60Q661.88-13.56 661.88-10L661.88-10Q661.88-6.44 663.60-4.40Q665.32-2.36 668.36-2.36L668.36-2.36Q671.40-2.36 673.12-4.40Q674.84-6.44 674.84-10L674.84-10Q674.84-13.56 673.12-15.60Q671.40-17.64 668.36-17.64L668.36-17.64Z M704.80-29.20L708.00-29.20L708.00 0L705.20 0L705.00-3.48Q704.12-1.72 702.30-0.66Q700.48 0.40 698.16 0.40L698.16 0.40Q693.96 0.40 691.50-2.38Q689.04-5.16 689.04-10L689.04-10Q689.04-14.84 691.50-17.62Q693.96-20.40 698.16-20.40L698.16-20.40Q700.36-20.40 702.10-19.44Q703.84-18.48 704.80-16.88L704.80-16.88L704.80-29.20ZM698.52-2.40Q701.40-2.40 703.10-4.40Q704.80-6.40 704.80-9.76L704.80-9.76L704.80-10.24Q704.80-13.60 703.10-15.60Q701.40-17.60 698.52-17.60L698.52-17.60Q695.60-17.60 693.92-15.54Q692.24-13.48 692.24-10L692.24-10Q692.24-6.52 693.92-4.46Q695.60-2.40 698.52-2.40L698.52-2.40Z M738.60-11.04Q738.60-9.92 738.44-8.80L738.44-8.80L723.36-8.80Q723.64-5.76 725.38-4.08Q727.12-2.40 729.88-2.40L729.88-2.40Q732.08-2.40 733.54-3.16Q735.00-3.92 735.52-5.36L735.52-5.36L738.20-3.96Q737.00-1.84 735.00-0.72Q733.00 0.40 729.88 0.40L729.88 0.40Q725.36 0.40 722.78-2.36Q720.20-5.12 720.20-10L720.20-10Q720.20-14.88 722.66-17.64Q725.12-20.40 729.64-20.40L729.64-20.40Q732.44-20.40 734.48-19.16Q736.52-17.92 737.56-15.80Q738.60-13.68 738.60-11.04L738.60-11.04ZM729.64-17.60Q727.00-17.60 725.38-16.04Q723.76-14.48 723.40-11.64L723.40-11.64L735.52-11.64Q735.20-14.44 733.68-16.02Q732.16-17.60 729.64-17.60L729.64-17.60Z M753.20-29.20L753.20 6.72L750.44 6.72L750.44-29.20L753.20-29.20Z M805.12-23.40L789.84-23.40L789.84-14.88L801.76-14.88L801.76-11.88L789.84-11.88L789.84 0L786.64 0L786.64-26.40L805.12-26.40L805.12-23.40Z M833.76 0L826.56-10.96L820.24-10.96L820.24 0L817.04 0L817.04-26.40L827.04-26.40Q831.08-26.40 833.52-24.32Q835.96-22.24 835.96-18.68L835.96-18.68Q835.96-15.88 834.40-13.96Q832.84-12.04 830.12-11.32L830.12-11.32L837.56 0L833.76 0ZM820.24-23.40L820.24-13.96L827.00-13.96Q832.60-13.96 832.60-18.68L832.60-18.68Q832.60-23.40 827.00-23.40L827.00-23.40L820.24-23.40Z"/></g>
</svg>
</g><g opacity="1" transform="rotate(0 66.2683 291.7912)">
<svg width="346.7172" height="50" x="66.2683" y="291.7912" version="1.1" preserveAspectRatio="none" viewBox="2.4 -26.4 185.84 26.8">
  <g transform="matrix(1 0 0 1 0 0)" class="companyName"><path id="id-D6z1nYkh7" d="M13.52 0L2.40 0L2.40-0.64L5.64-2.24L5.64-24.16L2.40-25.76L2.40-26.40L13.60-26.40Q18.32-26.40 21.18-24.68Q24.04-22.96 24.04-19.24L24.04-19.24Q24.04-17.04 22.54-15.34Q21.04-13.64 18.48-12.66Q15.92-11.68 12.64-11.68L12.64-11.68L9.84-11.68L9.84-2.24L13.52-0.64L13.52 0ZM12.60-24.20L9.84-24.20L9.84-13.80L12.88-13.80Q16.04-13.80 17.84-15.24Q19.64-16.68 19.64-18.92L19.64-18.92Q19.64-21.72 17.82-22.96Q16-24.20 12.60-24.20L12.60-24.20Z M39.92 0L30.52 0L30.52-0.64L33.16-1.96L33.16-20.44L30.52-21.76L30.52-22.40L39.92-22.40L39.92-21.76L37.16-20.44L37.16-1.96L39.92-0.64L39.92 0Z M56.64 0L46.88 0L46.88-0.64L49.80-1.96L49.80-20.44L46.88-21.76L46.88-22.40L56.64-22.40L56.64-21.76L53.76-20.44L53.76-1.96L56.64-0.64L56.64 0ZM70.80 0L64.48 0L53.76-11.40L63.04-20.64L60.52-21.76L60.52-22.40L68.56-22.40L68.56-21.76L66.28-20.88L57.68-12.64L68-1.72L70.80-0.64L70.80 0Z M82.64 0L75.20 0L75.20-0.64L77.24-1.72L86.12-22.60L88.20-22.60L97-1.80L99.36-0.64L99.36 0L90.08 0L90.08-0.64L92.88-1.80L90.40-7.72L82.16-7.72L79.72-1.76L82.64-0.64L82.64 0ZM86.24-17.68L83-9.72L89.56-9.72L86.24-17.68Z M122.92 0L111.56 0L111.56-0.64L115.16-2.24L115.16-12.32L106.32-24.36L103.80-25.76L103.80-26.40L114.12-26.40L114.12-25.76L111.20-24.32L111.20-24.16L118.28-14.52L124.68-24.12L124.68-24.28L121.72-25.76L121.72-26.40L130.36-26.40L130.36-25.76L127.76-24.44L119.32-12.36L119.32-2.24L122.92-0.64L122.92 0Z M148.56 0.40L148.56 0.40Q145.80 0.40 143.62-0.50Q141.44-1.40 140.20-3.42Q138.96-5.44 138.96-8.76L138.96-8.76L138.96-20.44L136.04-21.76L136.04-22.40L145.84-22.40L145.84-21.76L142.92-20.44L142.92-8.96Q142.92-4.96 144.68-3.40Q146.44-1.84 149.40-1.84L149.40-1.84Q151.12-1.84 152.54-2.50Q153.96-3.16 154.80-4.54Q155.64-5.92 155.64-8.08L155.64-8.08L155.64-20.52L152.28-21.76L152.28-22.40L160.84-22.40L160.84-21.76L158-20.48L158-8.68Q158-5.44 156.80-3.44Q155.60-1.44 153.48-0.52Q151.36 0.40 148.56 0.40Z M183.20 0L172 0L172-0.64L175.60-1.96L175.60-20.40L169.72-20.40L167.60-15.52L166.96-15.52L166.96-22.40L188.24-22.40L188.24-15.52L187.60-15.52L185.44-20.40L179.56-20.40L179.56-1.96L183.20-0.64L183.20 0Z"/></g>
</svg>
</g></svg></svg>