<svg version="1.1" preserveAspectRatio="none" xmlns="http://www.w3.org/2000/svg" width="500" height="500" viewBox="0 0 500 500"><rect width="100%" height="100%" fill="#000000" fill-opacity="1"/><svg viewBox="-190.5678 154.1659 489.2197 162" width="333" height="110.2694760656613" x="83.5px" y="194.8653px" xmlns="http://www.w3.org/2000/svg" xmlns:xlink="http://www.w3.org/1999/xlink" preserveAspectRatio="none"><defs></defs><style>.aRWrrEA-PR0filter-floo {flood-color:#E9B0D6;flood-opacity:0.5;}.atUk6sjh6M0filter-floo {flood-color:#FFFFFF;flood-opacity:0.89;}.companyName {fill:#FFFFFF;fill-opacity:1;}.icon3 {fill:#F55139;fill-opacity:1;}.icon3-str {stroke:#F55139;stroke-opacity:1;}.shape-floo {flood-color:#2525CE;flood-opacity:1;}.text {fill:#F3F3F3;fill-opacity:1;}</style><defs>
      <filter
        x="-190.5678"
        y="154.1659"
        width="489.2197"
        height="162"
        id="ikYEXSHZT"
        filterUnits="userSpaceOnUse"
        primitiveUnits="userSpaceOnUse"
        color-interpolation-filters="sRGB">
        
    <feGaussianBlur in="SourceGraphic" stdDeviation="7"/>
    <feOffset dx="3.860375059564381" dy="3.860375059564381" result="-cAav4e0MED"/>
    <feFlood flood-color="#2525CE" flood-opacity="1" in="-cAav4e0MED" />
    <feComposite  in2="-cAav4e0MED" operator="in" result="HjZmPEAzt21"/><feMerge result="H54nCYdqr4A"><feMergeNode in="HjZmPEAzt21" /><feMergeNode in="SourceGraphic" /></feMerge><feGaussianBlur  result="Wp7HUqwVCNK" stdDeviation="10" />
      </filter>
      <filter
        x="-149.5281"
        y="189.3055"
        width="399.4194"
        height="84"
        id="tUk6sjh6M"
        filterUnits="userSpaceOnUse"
        primitiveUnits="userSpaceOnUse"
        color-interpolation-filters="sRGB">
        
    <feGaussianBlur in="SourceGraphic" stdDeviation="4"/>
    <feOffset dx="0" dy="0" result="a5KlqH-NuZV2"/>
    <feFlood flood-color="#FFFFFF" flood-opacity="0.89" in="a5KlqH-NuZV2" />
    <feComposite  in2="a5KlqH-NuZV2" operator="in" result="a9lPHeDpJxYK"/><feMerge result="lYVmnXq6uDn"><feMergeNode in="a9lPHeDpJxYK" /><feMergeNode in="SourceGraphic" /></feMerge>
      </filter></defs><g opacity="1" transform="rotate(0 -148.2386 289.3055)">
<svg width="396.8405" height="21" x="-148.2386" y="289.3055" version="1.1" preserveAspectRatio="none" viewBox="1.56 -29.92 721.0400000000001 38.16">
  <g transform="matrix(1 0 0 1 0 0)" class="text"><path id="id-6izo4zJp30" d="M15.04-2.60L15.04-2.60Q17.88-2.60 20.02-4.04Q22.16-5.48 23.20-7.92L23.20-7.92L26.36-7.92Q25.04-4.16 22-2L22-2Q18.76 0.32 14.36 0.32L14.36 0.32Q8.56 0.32 4.96-3.64L4.96-3.64Q1.56-7.44 1.56-13.24Q1.56-19.04 4.96-22.84L4.96-22.84Q8.56-26.80 14.36-26.80L14.36-26.80Q18.76-26.80 22-24.48L22-24.48Q25.04-22.32 26.36-18.56L26.36-18.56L23.20-18.56Q22.16-21 20.02-22.44Q17.88-23.88 15.04-23.88Q12.20-23.88 10.32-23.06Q8.44-22.24 7.16-20.80L7.16-20.80Q4.56-17.88 4.56-13.24L4.56-13.24Q4.56-8.60 7.16-5.68L7.16-5.68Q9.88-2.60 15.04-2.60Z M42.88-20.32L42.88-20.32Q47.36-20.32 50.16-17.32L50.16-17.32Q52.80-14.44 52.80-10L52.80-10Q52.80-5.56 50.16-2.68L50.16-2.68Q47.36 0.32 42.88 0.32L42.88 0.32Q38.40 0.32 35.60-2.68L35.60-2.68Q32.96-5.56 32.96-10L32.96-10Q32.96-14.44 35.60-17.32L35.60-17.32Q38.40-20.32 42.88-20.32ZM42.88-2.40L42.88-2.40Q46.12-2.40 48-4.64L48-4.64Q49.80-6.76 49.80-10L49.80-10Q49.80-13.24 48-15.36L48-15.36Q46.12-17.60 42.88-17.60L42.88-17.60Q39.64-17.60 37.76-15.36L37.76-15.36Q35.96-13.24 35.96-10L35.96-10Q35.96-6.76 37.76-4.64L37.76-4.64Q39.64-2.40 42.88-2.40Z M63.76-20L63.76-16.96Q65.76-20.32 69.84-20.32L69.84-20.32Q71.84-20.32 73.54-19.26Q75.24-18.20 76.20-16.28L76.20-16.28Q77.56-18.80 80.44-19.88L80.44-19.88Q81.60-20.32 83.06-20.32Q84.52-20.32 85.86-19.74Q87.20-19.16 88.24-18.08L88.24-18.08Q90.48-15.68 90.48-12.08L90.48-12.08L90.48 0L87.48 0L87.48-12Q87.48-14.48 86.08-16.08L86.08-16.08Q84.68-17.60 82.52-17.60L82.52-17.60Q80.24-17.60 78.72-16.12L78.72-16.12Q77.12-14.60 77.12-11.96L77.12-11.96L77.12 0L74.12 0L74.12-12Q74.12-14.48 72.72-16.08L72.72-16.08Q71.32-17.60 69.16-17.60L69.16-17.60Q66.88-17.60 65.36-16.12L65.36-16.12Q63.76-14.60 63.76-11.96L63.76-11.96L63.76 0L60.76 0L60.76-20L63.76-20Z M102.48-20L102.48-16.96Q104.48-20.32 108.56-20.32L108.56-20.32Q110.56-20.32 112.26-19.26Q113.96-18.20 114.92-16.28L114.92-16.28Q116.28-18.80 119.16-19.88L119.16-19.88Q120.32-20.32 121.78-20.32Q123.24-20.32 124.58-19.74Q125.92-19.16 126.96-18.08L126.96-18.08Q129.20-15.68 129.20-12.08L129.20-12.08L129.20 0L126.20 0L126.20-12Q126.20-14.48 124.80-16.08L124.80-16.08Q123.40-17.60 121.24-17.60L121.24-17.60Q118.96-17.60 117.44-16.12L117.44-16.12Q115.84-14.60 115.84-11.96L115.84-11.96L115.84 0L112.84 0L112.84-12Q112.84-14.48 111.44-16.08L111.44-16.08Q110.04-17.60 107.88-17.60L107.88-17.60Q105.60-17.60 104.08-16.12L104.08-16.12Q102.48-14.60 102.48-11.96L102.48-11.96L102.48 0L99.48 0L99.48-20L102.48-20Z M155.44 0L152.44 0L152.44-3.12Q151.36-1.68 149.80-0.68Q148.24 0.32 146.24 0.32Q144.24 0.32 142.80-0.24Q141.36-0.80 140.28-1.92L140.28-1.92Q137.80-4.36 137.80-8.36L137.80-8.36L137.80-20L140.80-20L140.80-8.44Q140.80-5.68 142.36-4.04Q143.92-2.40 146.40-2.40L146.40-2.40Q148.92-2.40 150.68-4.08L150.68-4.08Q152.44-5.80 152.44-8.48L152.44-8.48L152.44-20L155.44-20L155.44 0Z M164.64-20L167.64-20L167.64-16.88Q168.72-18.32 170.28-19.32Q171.84-20.32 173.84-20.32Q175.84-20.32 177.28-19.76Q178.72-19.20 179.80-18.08L179.80-18.08Q182.28-15.64 182.28-11.64L182.28-11.64L182.28 0L179.28 0L179.28-11.56Q179.28-14.32 177.72-15.96Q176.16-17.60 173.68-17.60L173.68-17.60Q171.16-17.60 169.40-15.92L169.40-15.92Q167.64-14.20 167.64-11.52L167.64-11.52L167.64 0L164.64 0L164.64-20Z M191.28 0L191.28-20L194.28-20L194.28 0L191.28 0ZM191.16-27.28L194.40-27.28L194.40-23.36L191.16-23.36L191.16-27.28Z M208.64 0L205.64 0L205.64-17.36L201.56-17.36L201.56-20L205.64-20L205.64-27.16L208.64-27.16L208.64-20L213.24-20L213.24-17.36L208.64-17.36L208.64 0Z M237.68-20L225.84 7.92L222.60 7.92L226.24-0.28L218.08-20L221.40-20L227.84-3.60L234.40-20L237.68-20Z M259.36 7.16L256.92 7.16L256.92-29.92L259.36-29.92L259.36 7.16Z M271.08-22.84Q272.76-24.68 275.16-25.74Q277.56-26.80 280.12-26.80Q282.68-26.80 284.56-26.24Q286.44-25.68 287.96-24.72L287.96-24.72Q291.12-22.68 292.60-19.28L292.60-19.28L289.32-19.28Q288.12-21.44 285.98-22.66Q283.84-23.88 281.12-23.88Q278.40-23.88 276.48-23.06Q274.56-22.24 273.24-20.80L273.24-20.80Q270.52-17.84 270.52-13.24L270.52-13.24Q270.52-8.60 273.20-5.68L273.20-5.68Q276.04-2.60 280.72-2.60L280.72-2.60Q284.48-2.60 287.20-4.92L287.20-4.92Q290.08-7.36 290.08-11.36L290.08-11.36L280.40-11.36L280.40-14.08L292.84-14.08L292.84 0L290.08 0L290.08-4.68Q287.80-1.24 283.76-0.08L283.76-0.08Q282.28 0.32 279.86 0.32Q277.44 0.32 275.04-0.74Q272.64-1.80 270.96-3.64L270.96-3.64Q267.52-7.40 267.52-13.24L267.52-13.24Q267.52-19 271.08-22.84L271.08-22.84Z M317.08 0L317.08-3.20Q314.68 0.32 309.92 0.32L309.92 0.32Q305.60 0.32 302.88-2.68L302.88-2.68Q300.24-5.64 300.24-10L300.24-10Q300.24-14.36 302.88-17.32L302.88-17.32Q305.60-20.32 310.12-20.32Q314.64-20.32 317.08-16.76L317.08-16.76L317.08-20L320.08-20L320.08 0L317.08 0ZM310.32-2.40L310.32-2.40Q313.56-2.40 315.44-4.64L315.44-4.64Q317.24-6.76 317.24-10L317.24-10Q317.24-13.24 315.44-15.36L315.44-15.36Q313.56-17.60 310.32-17.60L310.32-17.60Q307.12-17.60 305.12-15.36L305.12-15.36Q303.24-13.24 303.24-10L303.24-10Q303.24-6.76 305.12-4.64L305.12-4.64Q307.12-2.40 310.32-2.40Z M332.28-20L332.28-16.96Q334.28-20.32 338.36-20.32L338.36-20.32Q340.36-20.32 342.06-19.26Q343.76-18.20 344.72-16.28L344.72-16.28Q346.08-18.80 348.96-19.88L348.96-19.88Q350.12-20.32 351.58-20.32Q353.04-20.32 354.38-19.74Q355.72-19.16 356.76-18.08L356.76-18.08Q359-15.68 359-12.08L359-12.08L359 0L356 0L356-12Q356-14.48 354.60-16.08L354.60-16.08Q353.20-17.60 351.04-17.60L351.04-17.60Q348.76-17.60 347.24-16.12L347.24-16.12Q345.64-14.60 345.64-11.96L345.64-11.96L345.64 0L342.64 0L342.64-12Q342.64-14.48 341.24-16.08L341.24-16.08Q339.84-17.60 337.68-17.60L337.68-17.60Q335.40-17.60 333.88-16.12L333.88-16.12Q332.28-14.60 332.28-11.96L332.28-11.96L332.28 0L329.28 0L329.28-20L332.28-20Z M368 0L368-20L371-20L371 0L368 0ZM367.88-27.28L371.12-27.28L371.12-23.36L367.88-23.36L367.88-27.28Z M380.20-20L383.20-20L383.20-16.88Q384.28-18.32 385.84-19.32Q387.40-20.32 389.40-20.32Q391.40-20.32 392.84-19.76Q394.28-19.20 395.36-18.08L395.36-18.08Q397.84-15.64 397.84-11.64L397.84-11.64L397.84 0L394.84 0L394.84-11.56Q394.84-14.32 393.28-15.96Q391.72-17.60 389.24-17.60L389.24-17.60Q386.72-17.60 384.96-15.92L384.96-15.92Q383.20-14.20 383.20-11.52L383.20-11.52L383.20 0L380.20 0L380.20-20Z M422.44-16.80L422.44-16.80L422.44-20L425.44-20L425.44-0.60Q425.44 3.72 422.98 5.98Q420.52 8.24 416.36 8.24Q412.20 8.24 409.86 6.64Q407.52 5.04 406.68 2.40L406.68 2.40L410.00 2.40Q411.28 5.52 415.84 5.52L415.84 5.52Q419.32 5.52 420.88 3.92Q422.44 2.32 422.44-0.80L422.44-0.80L422.44-3.56Q420.00 0 415.28 0L415.28 0Q410.96 0 408.24-2.96L408.24-2.96Q405.60-5.84 405.60-10.16L405.60-10.16Q405.60-14.48 408.24-17.36L408.24-17.36Q410.96-20.32 415.50-20.32Q420.04-20.32 422.44-16.80ZM415.68-2.72L415.68-2.72Q417.32-2.72 418.60-3.30Q419.88-3.88 420.80-4.88L420.80-4.88Q422.60-6.96 422.60-10.16L422.60-10.16Q422.60-13.36 420.80-15.44L420.80-15.44Q418.84-17.60 415.68-17.60L415.68-17.60Q412.44-17.60 410.48-15.44L410.48-15.44Q408.60-13.32 408.60-10.16L408.60-10.16Q408.60-7 410.48-4.88L410.48-4.88Q412.44-2.72 415.68-2.72Z M462.76 0L462.76-3.20Q460.36 0.32 455.60 0.32L455.60 0.32Q451.28 0.32 448.56-2.68L448.56-2.68Q445.92-5.64 445.92-10L445.92-10Q445.92-14.36 448.56-17.32L448.56-17.32Q451.28-20.32 455.80-20.32Q460.32-20.32 462.76-16.76L462.76-16.76L462.76-20L465.76-20L465.76 0L462.76 0ZM456.00-2.40L456.00-2.40Q459.24-2.40 461.12-4.64L461.12-4.64Q462.92-6.76 462.92-10L462.92-10Q462.92-13.24 461.12-15.36L461.12-15.36Q459.24-17.60 456.00-17.60L456.00-17.60Q452.80-17.60 450.80-15.36L450.80-15.36Q448.92-13.24 448.92-10L448.92-10Q448.92-6.76 450.80-4.64L450.80-4.64Q452.80-2.40 456.00-2.40Z M474.96-20L477.96-20L477.96-16.88Q479.04-18.32 480.60-19.32Q482.16-20.32 484.16-20.32Q486.16-20.32 487.60-19.76Q489.04-19.20 490.12-18.08L490.12-18.08Q492.60-15.64 492.60-11.64L492.60-11.64L492.60 0L489.60 0L489.60-11.56Q489.60-14.32 488.04-15.96Q486.48-17.60 484.00-17.60L484.00-17.60Q481.48-17.60 479.72-15.92L479.72-15.92Q477.96-14.20 477.96-11.52L477.96-11.52L477.96 0L474.96 0L474.96-20Z M517.20 0L517.20-3.20Q514.80 0.32 510.04 0.32L510.04 0.32Q505.72 0.32 503.00-2.68L503.00-2.68Q500.36-5.64 500.36-10L500.36-10Q500.36-14.36 503.00-17.32L503.00-17.32Q505.72-20.32 510.24-20.32Q514.76-20.32 517.20-16.76L517.20-16.76L517.20-28L520.20-28L520.20 0L517.20 0ZM510.44-2.40L510.44-2.40Q513.68-2.40 515.56-4.64L515.56-4.64Q517.36-6.76 517.36-10L517.36-10Q517.36-13.24 515.56-15.36L515.56-15.36Q513.68-17.60 510.44-17.60L510.44-17.60Q507.24-17.60 505.24-15.36L505.24-15.36Q503.36-13.24 503.36-10L503.36-10Q503.36-6.76 505.24-4.64L505.24-4.64Q507.24-2.40 510.44-2.40Z M551.16-2.40L551.16-2.40Q553.08-2.40 554.56-3.48Q556.04-4.56 556.72-6.28L556.72-6.28L559.96-6.28Q559.04-3.32 556.60-1.52L556.60-1.52Q554.04 0.32 550.52 0.32L550.52 0.32Q546.12 0.32 543.36-2.68L543.36-2.68Q540.68-5.60 540.68-10L540.68-10Q540.68-14.40 543.36-17.32L543.36-17.32Q546.12-20.32 550.52-20.32L550.52-20.32Q554.04-20.32 556.60-18.48L556.60-18.48Q559.04-16.68 559.96-13.72L559.96-13.72L556.72-13.72Q556.04-15.44 554.56-16.52Q553.08-17.60 551.16-17.60Q549.24-17.60 547.90-17Q546.56-16.40 545.64-15.36L545.64-15.36Q543.68-13.20 543.68-10L543.68-10Q543.68-6.80 545.64-4.64L545.64-4.64Q547.64-2.40 551.16-2.40Z M576.36-20.32L576.36-20.32Q580.84-20.32 583.64-17.32L583.64-17.32Q586.28-14.44 586.28-10L586.28-10Q586.28-5.56 583.64-2.68L583.64-2.68Q580.84 0.32 576.36 0.32L576.36 0.32Q571.88 0.32 569.08-2.68L569.08-2.68Q566.44-5.56 566.44-10L566.44-10Q566.44-14.44 569.08-17.32L569.08-17.32Q571.88-20.32 576.36-20.32ZM576.36-2.40L576.36-2.40Q579.60-2.40 581.48-4.64L581.48-4.64Q583.28-6.76 583.28-10L583.28-10Q583.28-13.24 581.48-15.36L581.48-15.36Q579.60-17.60 576.36-17.60L576.36-17.60Q573.12-17.60 571.24-15.36L571.24-15.36Q569.44-13.24 569.44-10L569.44-10Q569.44-6.76 571.24-4.64L571.24-4.64Q573.12-2.40 576.36-2.40Z M609.84 0L609.84-3.20Q607.44 0.32 602.68 0.32L602.68 0.32Q598.36 0.32 595.64-2.68L595.64-2.68Q593.00-5.64 593.00-10L593.00-10Q593.00-14.36 595.64-17.32L595.64-17.32Q598.36-20.32 602.88-20.32Q607.40-20.32 609.84-16.76L609.84-16.76L609.84-28L612.84-28L612.84 0L609.84 0ZM603.08-2.40L603.08-2.40Q606.32-2.40 608.20-4.64L608.20-4.64Q610.00-6.76 610.00-10L610.00-10Q610.00-13.24 608.20-15.36L608.20-15.36Q606.32-17.60 603.08-17.60L603.08-17.60Q599.88-17.60 597.88-15.36L597.88-15.36Q596.00-13.24 596.00-10L596.00-10Q596.00-6.76 597.88-4.64L597.88-4.64Q599.88-2.40 603.08-2.40Z M630.96-2.40L630.96-2.40Q635.00-2.40 636.76-5.76L636.76-5.76L640.04-5.76Q639.00-3.04 636.74-1.36Q634.48 0.32 630.92 0.32L630.92 0.32Q626.40 0.32 623.56-2.68L623.56-2.68Q620.80-5.60 620.80-10L620.80-10Q620.80-14.44 623.44-17.32L623.44-17.32Q626.24-20.32 630.72-20.32L630.72-20.32Q635.20-20.32 638.00-17.32L638.00-17.32Q640.64-14.44 640.64-10L640.64-10L640.64-8.80L623.88-8.80Q624.20-6.04 626.08-4.24L626.08-4.24Q628.00-2.40 630.96-2.40ZM630.72-17.60L630.72-17.60Q627.96-17.60 626.08-15.88L626.08-15.88Q624.32-14.24 623.92-11.60L623.92-11.60L637.52-11.60Q637.12-14.24 635.36-15.88L635.36-15.88Q633.48-17.60 630.72-17.60Z M650.76 7.16L648.32 7.16L648.32-29.92L650.76-29.92L650.76 7.16Z M692.24-23.60L676.12-23.60L676.12-14.40L690.48-14.40L690.48-11.48L676.12-11.48L676.12 0L673.12 0L673.12-26.48L692.24-26.48L692.24-23.60Z M703.44-10.16L703.44 0L700.44 0L700.44-26.48L713.12-26.48Q717.16-26.48 719.60-24.24L719.60-24.24Q722.04-22.04 722.04-18.20L722.04-18.20Q722.04-13.24 717.92-11.44L717.92-11.44Q716.76-10.92 715.64-10.68L715.64-10.68L722.60 0L719.04 0L712.64-10.16L703.44-10.16ZM703.44-23.64L703.44-13L712.60-13Q716.84-13 718.44-15.64L718.44-15.64Q719.04-16.64 719.04-18.20L719.04-18.20Q719.04-20.72 717.32-22.18Q715.60-23.64 712.76-23.64L712.76-23.64L703.44-23.64Z"/></g>
</svg>
</g><g filter="url(#ikYEXSHZT)"><g opacity="1" transform="rotate(0 -143.4282 201.3055)">
<svg width="387.2197" height="60" x="-143.4282" y="201.3055" version="1.1" preserveAspectRatio="none" viewBox="1.16 -28 183.79999999999998 28.48">
  <g transform="matrix(1 0 0 1 0 0)" class="icon3"><path id="id-BEGfasMba7" d="M18.08-28Q23.32-28 26.18-25.70Q29.04-23.40 29.04-19.28L29.04-19.28Q29.04-15.76 27.38-13.14Q25.72-10.52 22.66-9.12Q19.60-7.72 15.44-7.72L15.44-7.72L9.20-7.72L7.68 0L1.16 0L6.76-28L18.08-28ZM15.72-13Q18.96-13 20.72-14.48Q22.48-15.96 22.48-18.72L22.48-18.72Q22.48-20.72 21.14-21.72Q19.80-22.72 17.28-22.72L17.28-22.72L12.20-22.72L10.24-13L15.72-13Z M30.04 0L35.64-28L42.16-28L36.56 0L30.04 0Z M75-28L60.28-15.04L70 0L62.72 0L55.52-10.96L51-6.96L49.60 0L43.16 0L48.76-28L55.20-28L52.64-15.16L67.16-28L75-28Z M92.76 0L91.44-6L78.40-6L74.76 0L67.84 0L85.96-28L92.36-28L99.24 0L92.76 0ZM81.40-10.92L90.36-10.92L88-21.72L81.40-10.92Z M130.36-28L115.80-9.72L113.88 0L107.40 0L109.36-10L102.16-28L108.64-28L113.64-15.52L123.68-28L130.36-28Z M140.28 0.48Q135 0.48 132-2.14Q129-4.76 129-9.32L129-9.32Q129-10.64 129.32-12.32L129.32-12.32L132.44-28L138.96-28L135.84-12.44Q135.60-11.12 135.60-10.08L135.60-10.08Q135.60-7.56 136.98-6.30Q138.36-5.04 141-5.04L141-5.04Q143.96-5.04 145.72-6.80Q147.48-8.56 148.28-12.44L148.28-12.44L151.40-28L157.76-28L154.60-12.04Q152.04 0.48 140.28 0.48L140.28 0.48Z M163.92 0L168.44-22.72L159.48-22.72L160.56-28L184.96-28L183.88-22.72L174.96-22.72L170.40 0L163.92 0Z"/></g>
</svg>
</g></g><g filter="url(#tUk6sjh6M)"><g opacity="1" transform="rotate(0 -137.5281 201.3055)">
<svg width="375.4194" height="60" x="-137.5281" y="201.3055" version="1.1" preserveAspectRatio="none" viewBox="3.32 -28 178.20000000000002 28.48">
  <g transform="matrix(1 0 0 1 0 0)" class="companyName"><path id="id-D6z1nYkh7" d="M15.44-28Q19.16-28 21.90-26.76Q24.64-25.52 26.12-23.24Q27.60-20.96 27.60-17.84L27.60-17.84Q27.60-14.76 26.12-12.46Q24.64-10.16 21.90-8.94Q19.16-7.72 15.44-7.72L15.44-7.72L9.80-7.72L9.80 0L3.32 0L3.32-28L15.44-28ZM15.08-13Q18-13 19.52-14.26Q21.04-15.52 21.04-17.84L21.04-17.84Q21.04-20.20 19.52-21.46Q18-22.72 15.08-22.72L15.08-22.72L9.80-22.72L9.80-13L15.08-13Z M32.20 0L32.20-28L38.68-28L38.68 0L32.20 0Z M64.48 0L55.52-11L51.76-7.08L51.76 0L45.32 0L45.32-28L51.76-28L51.76-14.92L64.16-28L71.36-28L59.76-15.52L72.04 0L64.48 0Z M94.60 0L92.12-6L79.12-6L76.64 0L70 0L82.48-28L88.88-28L101.40 0L94.60 0ZM81.20-10.92L90.08-10.92L85.64-21.64L81.20-10.92Z M126.92-28L116.04-9.92L116.04 0L109.56 0L109.56-10L98.72-28L105.60-28L113.08-15.56L120.56-28L126.92-28Z M141.68 0.48Q135.68 0.48 132.34-2.84Q129-6.16 129-12.32L129-12.32L129-28L135.48-28L135.48-12.56Q135.48-5.04 141.72-5.04L141.72-5.04Q144.76-5.04 146.36-6.86Q147.96-8.68 147.96-12.56L147.96-12.56L147.96-28L154.36-28L154.36-12.32Q154.36-6.16 151.02-2.84Q147.68 0.48 141.68 0.48L141.68 0.48Z M166.08 0L166.08-22.72L157.12-22.72L157.12-28L181.52-28L181.52-22.72L172.56-22.72L172.56 0L166.08 0Z"/></g>
</svg>
</g></g></svg></svg>