<svg version="1.1" preserveAspectRatio="none" xmlns="http://www.w3.org/2000/svg" width="500" height="500" viewBox="0 0 500 500"><rect width="100%" height="100%" fill="#FFFFFF" fill-opacity="1"/><svg viewBox="-0.3901 240.3297 515.363 305.3869" width="333" height="197.3246773633342" x="83.5px" y="151.3377px" xmlns="http://www.w3.org/2000/svg" xmlns:xlink="http://www.w3.org/1999/xlink" preserveAspectRatio="none"><defs></defs><style>.companyName {fill:#1C1C1C;fill-opacity:1;}.icon1 {fill:#1C1C1C;fill-opacity:1;}.icon2 {fill:#BAAE57;fill-opacity:1;}.icon3 {fill:#E192BB;fill-opacity:1;}.icon3-str {stroke:#E192BB;stroke-opacity:1;}.text {fill:#1C1C1C;fill-opacity:1;}</style><g opacity="1" transform="rotate(0 -0.3901 517.7166)">
<svg width="515.363" height="28" x="-0.3901" y="517.7166" version="1.1" preserveAspectRatio="none" viewBox="2.72 -29.2 695.64 37.8">
  <g transform="matrix(1 0 0 1 0 0)" class="text"><path id="id-6izo4zJp30" d="M25.60-6.76Q24.36-3.40 21.52-1.50Q18.68 0.40 14.96 0.40L14.96 0.40Q11.24 0.40 8.48-1.26Q5.72-2.92 4.22-5.98Q2.72-9.04 2.72-13.20L2.72-13.20Q2.72-17.32 4.22-20.40Q5.72-23.48 8.48-25.14Q11.24-26.80 14.88-26.80L14.88-26.80Q18.68-26.80 21.26-25.24Q23.84-23.68 25.12-20.64L25.12-20.64L21.96-19.16Q21.08-21.48 19.40-22.64Q17.72-23.80 15.12-23.80L15.12-23.80Q12.40-23.80 10.36-22.54Q8.32-21.28 7.20-18.88Q6.08-16.48 6.08-13.20L6.08-13.20Q6.08-8.24 8.46-5.42Q10.84-2.60 14.96-2.60L14.96-2.60Q17.64-2.60 19.60-3.96Q21.56-5.32 22.40-7.96L22.40-7.96L25.60-6.76Z M40.80-20.40Q45.32-20.40 47.90-17.64Q50.48-14.88 50.48-10L50.48-10Q50.48-5.12 47.90-2.36Q45.32 0.40 40.80 0.40L40.80 0.40Q36.28 0.40 33.70-2.36Q31.12-5.12 31.12-10L31.12-10Q31.12-14.88 33.70-17.64Q36.28-20.40 40.80-20.40L40.80-20.40ZM40.80-17.64Q37.76-17.64 36.04-15.60Q34.32-13.56 34.32-10L34.32-10Q34.32-6.44 36.04-4.40Q37.76-2.36 40.80-2.36L40.80-2.36Q43.84-2.36 45.56-4.40Q47.28-6.44 47.28-10L47.28-10Q47.28-13.56 45.56-15.60Q43.84-17.64 40.80-17.64L40.80-17.64Z M81.12-20.40Q83.12-20.40 84.86-19.58Q86.60-18.76 87.68-17.04Q88.76-15.32 88.76-12.80L88.76-12.80L88.76 0L85.56 0L85.56-12.48Q85.56-15.08 84.26-16.34Q82.96-17.60 80.84-17.60L80.84-17.60Q79.24-17.60 77.90-16.82Q76.56-16.04 75.74-14.54Q74.92-13.04 74.92-10.96L74.92-10.96L74.92 0L71.72 0L71.72-12.48Q71.72-15.08 70.42-16.34Q69.12-17.60 67-17.60L67-17.60Q65.56-17.60 64.20-16.86Q62.84-16.12 61.96-14.56Q61.08-13 61.08-10.68L61.08-10.68L61.08 0L57.88 0L57.88-20L60.68-20L60.88-16.88Q61.92-18.64 63.62-19.52Q65.32-20.40 67.28-20.40L67.28-20.40Q69.48-20.40 71.34-19.40Q73.20-18.40 74.16-16.48L74.16-16.48Q75.04-18.40 77.04-19.40Q79.04-20.40 81.12-20.40L81.12-20.40Z M120.44-20.40Q122.44-20.40 124.18-19.58Q125.92-18.76 127-17.04Q128.08-15.32 128.08-12.80L128.08-12.80L128.08 0L124.88 0L124.88-12.48Q124.88-15.08 123.58-16.34Q122.28-17.60 120.16-17.60L120.16-17.60Q118.56-17.60 117.22-16.82Q115.88-16.04 115.06-14.54Q114.24-13.04 114.24-10.96L114.24-10.96L114.24 0L111.04 0L111.04-12.48Q111.04-15.08 109.74-16.34Q108.44-17.60 106.32-17.60L106.32-17.60Q104.88-17.60 103.52-16.86Q102.16-16.12 101.28-14.56Q100.40-13 100.40-10.68L100.40-10.68L100.40 0L97.20 0L97.20-20L100-20L100.20-16.88Q101.24-18.64 102.94-19.52Q104.64-20.40 106.60-20.40L106.60-20.40Q108.80-20.40 110.66-19.40Q112.52-18.40 113.48-16.48L113.48-16.48Q114.36-18.40 116.36-19.40Q118.36-20.40 120.44-20.40L120.44-20.40Z M150.64-20L153.84-20L153.84 0L151.04 0L150.84-3.04Q148.84 0.40 143.68 0.40L143.68 0.40Q140.44 0.40 138.38-1.40Q136.32-3.20 136.32-6.92L136.32-6.92L136.32-20L139.52-20L139.52-7.76Q139.52-4.84 140.72-3.62Q141.92-2.40 144.24-2.40L144.24-2.40Q147.00-2.40 148.82-4.08Q150.64-5.76 150.64-9.12L150.64-9.12L150.64-20Z M172.20-20.40Q175.60-20.40 177.80-18.44Q180.00-16.48 180.00-12.80L180.00-12.80L180.00 0L176.80 0L176.80-11.68Q176.80-14.80 175.46-16.20Q174.12-17.60 171.88-17.60L171.88-17.60Q170.28-17.60 168.88-16.90Q167.48-16.20 166.58-14.62Q165.68-13.04 165.68-10.64L165.68-10.64L165.68 0L162.48 0L162.48-20L165.28-20L165.48-16.88Q166.48-18.68 168.24-19.54Q170.00-20.40 172.20-20.40L172.20-20.40Z M190.04-23.84Q188.96-23.84 188.30-24.50Q187.64-25.16 187.64-26.24L187.64-26.24Q187.64-27.32 188.30-27.98Q188.96-28.64 190.04-28.64L190.04-28.64Q191.12-28.64 191.78-27.98Q192.44-27.32 192.44-26.24L192.44-26.24Q192.44-25.16 191.78-24.50Q191.12-23.84 190.04-23.84L190.04-23.84ZM191.64-20L191.64 0L188.44 0L188.44-20L191.64-20Z M211.40-4.08L212.52-1.40Q210.52 0.40 207.36 0.40L207.36 0.40Q204.92 0.40 203.38-0.92Q201.84-2.24 201.80-4.96L201.80-4.96L201.80-17.24L197.80-17.24L197.80-20L201.80-20L201.80-24.80L205.00-25.68L205.00-20L212.40-20L212.40-17.24L205.00-17.24L205.00-5.52Q205.00-4.08 205.82-3.34Q206.64-2.60 208.00-2.60L208.00-2.60Q209.92-2.60 211.40-4.08L211.40-4.08Z M235.24-20L225.84 3.36Q224.68 6.24 223.24 7.42Q221.80 8.60 219.52 8.60L219.52 8.60Q218.00 8.60 216.98 8.20Q215.96 7.80 215.12 6.92L215.12 6.92L216.24 4.20Q217.40 5.80 219.48 5.80L219.48 5.80Q220.64 5.80 221.54 5.10Q222.44 4.40 223.12 2.56L223.12 2.56L224.16-0.04L215.80-20L219.44-20L224.44-6.96L225.68-3.40L227.12-7.36L231.80-20L235.24-20Z M257.20-29.20L257.20 6.72L254.44 6.72L254.44-29.20L257.20-29.20Z M276.36-13.32L287.68-13.32L287.68 0L285.28 0L285.16-3.56Q284.00-1.64 281.90-0.62Q279.80 0.40 276.84 0.40L276.84 0.40Q273.12 0.40 270.36-1.26Q267.60-2.92 266.10-5.98Q264.60-9.04 264.60-13.20L264.60-13.20Q264.60-17.32 266.14-20.40Q267.68-23.48 270.46-25.14Q273.24-26.80 276.92-26.80L276.92-26.80Q280.84-26.80 283.38-25.32Q285.92-23.84 287.48-20.76L287.48-20.76L284.56-19.16Q283.68-21.40 281.70-22.60Q279.72-23.80 276.92-23.80L276.92-23.80Q274.24-23.80 272.22-22.52Q270.20-21.24 269.08-18.86Q267.96-16.48 267.96-13.20L267.96-13.20Q267.96-8.16 270.28-5.38Q272.60-2.60 276.96-2.60L276.96-2.60Q280.40-2.60 282.58-4.36Q284.76-6.12 284.76-9.40L284.76-9.40L284.76-10.32L276.36-10.32L276.36-13.32Z M312.16-2.32Q312.96-2.32 313.76-2.52L313.76-2.52L313.56 0Q312.44 0.40 311.16 0.40L311.16 0.40Q309.60 0.40 308.70-0.28Q307.80-0.96 307.56-2.56L307.56-2.56Q306.64-1.16 304.86-0.38Q303.08 0.40 301.12 0.40L301.12 0.40Q298.16 0.40 296.24-0.98Q294.32-2.36 294.32-4.96L294.32-4.96Q294.32-7.24 296.32-8.90Q298.32-10.56 302.12-11.20L302.12-11.20L307.44-12.08L307.44-13.20Q307.44-15.20 306.20-16.40Q304.96-17.60 302.76-17.60L302.76-17.60Q300.76-17.60 299.30-16.64Q297.84-15.68 297.04-13.80L297.04-13.80L294.68-15.52Q295.48-17.76 297.66-19.08Q299.84-20.40 302.76-20.40L302.76-20.40Q306.32-20.40 308.48-18.68Q310.64-16.96 310.64-13.60L310.64-13.60L310.64-3.76Q310.64-3.04 311.00-2.68Q311.36-2.32 312.16-2.32L312.16-2.32ZM301.28-2.40Q303.80-2.40 305.62-3.60Q307.44-4.80 307.44-6.72L307.44-6.72L307.44-9.48L302.96-8.64Q300.28-8.16 298.96-7.26Q297.64-6.36 297.64-4.96L297.64-4.96Q297.64-3.72 298.60-3.06Q299.56-2.40 301.28-2.40L301.28-2.40Z M342.84-20.40Q344.84-20.40 346.58-19.58Q348.32-18.76 349.40-17.04Q350.48-15.32 350.48-12.80L350.48-12.80L350.48 0L347.28 0L347.28-12.48Q347.28-15.08 345.98-16.34Q344.68-17.60 342.56-17.60L342.56-17.60Q340.96-17.60 339.62-16.82Q338.28-16.04 337.46-14.54Q336.64-13.04 336.64-10.96L336.64-10.96L336.64 0L333.44 0L333.44-12.48Q333.44-15.08 332.14-16.34Q330.84-17.60 328.72-17.60L328.72-17.60Q327.28-17.60 325.92-16.86Q324.56-16.12 323.68-14.56Q322.80-13 322.80-10.68L322.80-10.68L322.80 0L319.60 0L319.60-20L322.40-20L322.60-16.88Q323.64-18.64 325.34-19.52Q327.04-20.40 329.00-20.40L329.00-20.40Q331.20-20.40 333.06-19.40Q334.92-18.40 335.88-16.48L335.88-16.48Q336.76-18.40 338.76-19.40Q340.76-20.40 342.84-20.40L342.84-20.40Z M360.52-23.84Q359.44-23.84 358.78-24.50Q358.12-25.16 358.12-26.24L358.12-26.24Q358.12-27.32 358.78-27.98Q359.44-28.64 360.52-28.64L360.52-28.64Q361.60-28.64 362.26-27.98Q362.92-27.32 362.92-26.24L362.92-26.24Q362.92-25.16 362.26-24.50Q361.60-23.84 360.52-23.84L360.52-23.84ZM362.12-20L362.12 0L358.92 0L358.92-20L362.12-20Z M380.48-20.40Q383.88-20.40 386.08-18.44Q388.28-16.48 388.28-12.80L388.28-12.80L388.28 0L385.08 0L385.08-11.68Q385.08-14.80 383.74-16.20Q382.40-17.60 380.16-17.60L380.16-17.60Q378.56-17.60 377.16-16.90Q375.76-16.20 374.86-14.62Q373.96-13.04 373.96-10.64L373.96-10.64L373.96 0L370.76 0L370.76-20L373.56-20L373.76-16.88Q374.76-18.68 376.52-19.54Q378.28-20.40 380.48-20.40L380.48-20.40Z M407.88-2.56Q410.72-2.56 412.32-1.28Q413.92 0 413.92 2.20L413.92 2.20Q413.92 4.12 412.60 5.58Q411.28 7.04 409.02 7.82Q406.76 8.60 404.04 8.60L404.04 8.60Q399.48 8.60 397.16 7.14Q394.84 5.68 394.84 3.32L394.84 3.32Q394.84 1.96 395.78 0.92Q396.72-0.12 398.36-0.56L398.36-0.56Q397.12-1.16 396.38-2.08Q395.64-3 395.64-4.24L395.64-4.24Q395.64-5.72 396.44-6.70Q397.24-7.68 398.64-8.16L398.64-8.16Q397.20-9.04 396.46-10.46Q395.72-11.88 395.72-13.64L395.72-13.64Q395.72-15.60 396.76-17.14Q397.80-18.68 399.68-19.54Q401.56-20.40 403.92-20.40L403.92-20.40Q406.16-20.40 408.00-19.60L408.00-19.60Q409.12-23.68 413.64-23.68L413.64-23.68L414.36-20.88Q410.44-20.88 409.60-18.68L409.60-18.68Q410.80-17.76 411.46-16.48Q412.12-15.20 412.12-13.64L412.12-13.64Q412.12-11.68 411.08-10.14Q410.04-8.60 408.16-7.74Q406.28-6.88 403.92-6.88L403.92-6.88Q402.16-6.88 400.84-7.24L400.84-7.24Q399.64-6.96 399.12-6.36Q398.60-5.76 398.60-4.72L398.60-4.72Q398.60-3.68 399.32-3.12Q400.04-2.56 401.24-2.56L401.24-2.56L407.88-2.56ZM403.92-17.80Q401.84-17.80 400.44-16.64Q399.04-15.48 399.04-13.64L399.04-13.64Q399.04-11.80 400.44-10.64Q401.84-9.48 403.92-9.48L403.92-9.48Q406.00-9.48 407.40-10.64Q408.80-11.80 408.80-13.64L408.80-13.64Q408.80-15.48 407.40-16.64Q406.00-17.80 403.92-17.80L403.92-17.80ZM404.40 5.92Q407.44 5.92 409.20 4.94Q410.96 3.96 410.96 2.56L410.96 2.56Q410.96 1.40 410.06 0.80Q409.16 0.20 407.00 0.20L407.00 0.20L401.64 0.20Q399.80 0.20 398.80 0.86Q397.80 1.52 397.80 2.68L397.80 2.68Q397.80 4.20 399.48 5.06Q401.16 5.92 404.40 5.92L404.40 5.92Z M451.12-2.32Q451.92-2.32 452.72-2.52L452.72-2.52L452.52 0Q451.40 0.40 450.12 0.40L450.12 0.40Q448.56 0.40 447.66-0.28Q446.76-0.96 446.52-2.56L446.52-2.56Q445.60-1.16 443.82-0.38Q442.04 0.40 440.08 0.40L440.08 0.40Q437.12 0.40 435.20-0.98Q433.28-2.36 433.28-4.96L433.28-4.96Q433.28-7.24 435.28-8.90Q437.28-10.56 441.08-11.20L441.08-11.20L446.40-12.08L446.40-13.20Q446.40-15.20 445.16-16.40Q443.92-17.60 441.72-17.60L441.72-17.60Q439.72-17.60 438.26-16.64Q436.80-15.68 436.00-13.80L436.00-13.80L433.64-15.52Q434.44-17.76 436.62-19.08Q438.80-20.40 441.72-20.40L441.72-20.40Q445.28-20.40 447.44-18.68Q449.60-16.96 449.60-13.60L449.60-13.60L449.60-3.76Q449.60-3.04 449.96-2.68Q450.32-2.32 451.12-2.32L451.12-2.32ZM440.24-2.40Q442.76-2.40 444.58-3.60Q446.40-4.80 446.40-6.72L446.40-6.72L446.40-9.48L441.92-8.64Q439.24-8.16 437.92-7.26Q436.60-6.36 436.60-4.96L436.60-4.96Q436.60-3.72 437.56-3.06Q438.52-2.40 440.24-2.40L440.24-2.40Z M468.28-20.40Q471.68-20.40 473.88-18.44Q476.08-16.48 476.08-12.80L476.08-12.80L476.08 0L472.88 0L472.88-11.68Q472.88-14.80 471.54-16.20Q470.20-17.60 467.96-17.60L467.96-17.60Q466.36-17.60 464.96-16.90Q463.56-16.20 462.66-14.62Q461.76-13.04 461.76-10.64L461.76-10.64L461.76 0L458.56 0L458.56-20L461.36-20L461.56-16.88Q462.56-18.68 464.32-19.54Q466.08-20.40 468.28-20.40L468.28-20.40Z M499.08-29.20L502.28-29.20L502.28 0L499.48 0L499.28-3.48Q498.40-1.72 496.58-0.66Q494.76 0.40 492.44 0.40L492.44 0.40Q488.24 0.40 485.78-2.38Q483.32-5.16 483.32-10L483.32-10Q483.32-14.84 485.78-17.62Q488.24-20.40 492.44-20.40L492.44-20.40Q494.64-20.40 496.38-19.44Q498.12-18.48 499.08-16.88L499.08-16.88L499.08-29.20ZM492.80-2.40Q495.68-2.40 497.38-4.40Q499.08-6.40 499.08-9.76L499.08-9.76L499.08-10.24Q499.08-13.60 497.38-15.60Q495.68-17.60 492.80-17.60L492.80-17.60Q489.88-17.60 488.20-15.54Q486.52-13.48 486.52-10L486.52-10Q486.52-6.52 488.20-4.46Q489.88-2.40 492.80-2.40L492.80-2.40Z M534.20-20.40Q537.20-20.40 539.26-19.02Q541.32-17.64 542.48-15.08L542.48-15.08L539.44-13.64Q538.16-17.60 534.12-17.60L534.12-17.60Q531.12-17.60 529.42-15.58Q527.72-13.56 527.72-10L527.72-10Q527.72-6.44 529.42-4.42Q531.12-2.40 534.12-2.40L534.12-2.40Q536.44-2.40 537.86-3.46Q539.28-4.52 539.72-6.52L539.72-6.52L542.68-5.48Q541.64-2.68 539.48-1.14Q537.32 0.40 534.20 0.40L534.20 0.40Q529.68 0.40 527.10-2.36Q524.52-5.12 524.52-10L524.52-10Q524.52-14.88 527.10-17.64Q529.68-20.40 534.20-20.40L534.20-20.40Z M557.96-20.40Q562.48-20.40 565.06-17.64Q567.64-14.88 567.64-10L567.64-10Q567.64-5.12 565.06-2.36Q562.48 0.40 557.96 0.40L557.96 0.40Q553.44 0.40 550.86-2.36Q548.28-5.12 548.28-10L548.28-10Q548.28-14.88 550.86-17.64Q553.44-20.40 557.96-20.40L557.96-20.40ZM557.96-17.64Q554.92-17.64 553.20-15.60Q551.48-13.56 551.48-10L551.48-10Q551.48-6.44 553.20-4.40Q554.92-2.36 557.96-2.36L557.96-2.36Q561.00-2.36 562.72-4.40Q564.44-6.44 564.44-10L564.44-10Q564.44-13.56 562.72-15.60Q561.00-17.64 557.96-17.64L557.96-17.64Z M589.60-29.20L592.80-29.20L592.80 0L590.00 0L589.80-3.48Q588.92-1.72 587.10-0.66Q585.28 0.40 582.96 0.40L582.96 0.40Q578.76 0.40 576.30-2.38Q573.84-5.16 573.84-10L573.84-10Q573.84-14.84 576.30-17.62Q578.76-20.40 582.96-20.40L582.96-20.40Q585.16-20.40 586.90-19.44Q588.64-18.48 589.60-16.88L589.60-16.88L589.60-29.20ZM583.32-2.40Q586.20-2.40 587.90-4.40Q589.60-6.40 589.60-9.76L589.60-9.76L589.60-10.24Q589.60-13.60 587.90-15.60Q586.20-17.60 583.32-17.60L583.32-17.60Q580.40-17.60 578.72-15.54Q577.04-13.48 577.04-10L577.04-10Q577.04-6.52 578.72-4.46Q580.40-2.40 583.32-2.40L583.32-2.40Z M618.60-11.04Q618.60-9.92 618.44-8.80L618.44-8.80L603.36-8.80Q603.64-5.76 605.38-4.08Q607.12-2.40 609.88-2.40L609.88-2.40Q612.08-2.40 613.54-3.16Q615.00-3.92 615.52-5.36L615.52-5.36L618.20-3.96Q617.00-1.84 615.00-0.72Q613.00 0.40 609.88 0.40L609.88 0.40Q605.36 0.40 602.78-2.36Q600.20-5.12 600.20-10L600.20-10Q600.20-14.88 602.66-17.64Q605.12-20.40 609.64-20.40L609.64-20.40Q612.44-20.40 614.48-19.16Q616.52-17.92 617.56-15.80Q618.60-13.68 618.60-11.04L618.60-11.04ZM609.64-17.60Q607.00-17.60 605.38-16.04Q603.76-14.48 603.40-11.64L603.40-11.64L615.52-11.64Q615.20-14.44 613.68-16.02Q612.16-17.60 609.64-17.60L609.64-17.60Z M628.40-29.20L628.40 6.72L625.64 6.72L625.64-29.20L628.40-29.20Z M670.72-23.40L655.44-23.40L655.44-14.88L667.36-14.88L667.36-11.88L655.44-11.88L655.44 0L652.24 0L652.24-26.40L670.72-26.40L670.72-23.40Z M694.56 0L687.36-10.96L681.04-10.96L681.04 0L677.84 0L677.84-26.40L687.84-26.40Q691.88-26.40 694.32-24.32Q696.76-22.24 696.76-18.68L696.76-18.68Q696.76-15.88 695.20-13.96Q693.64-12.04 690.92-11.32L690.92-11.32L698.36 0L694.56 0ZM681.04-23.40L681.04-13.96L687.80-13.96Q693.40-13.96 693.40-18.68L693.40-18.68Q693.40-23.40 687.80-23.40L687.80-23.40L681.04-23.40Z"/></g>
</svg>
</g><g opacity="1" transform="rotate(0 75.8189 425.7166)">
<svg width="362.945" height="70" x="75.8189" y="425.7166" version="1.1" preserveAspectRatio="none" viewBox="1.6 -27.24 143.52 27.68">
  <g transform="matrix(1 0 0 1 0 0)" class="companyName"><path id="id-D6z1nYkh7" d="M9.60-21.60L9.60-21.60L9.60-8.56Q12.88-8.56 14.08-9.98Q15.28-11.40 15.28-14.96Q15.28-18.52 14.08-20.06Q12.88-21.60 9.60-21.60ZM9.60-0.80L11.60-0.80L11.60 0L1.60 0L1.60-0.80L3.60-0.80L3.60-21.60L1.60-21.60L1.60-22.40L9.56-22.40Q21.32-22.96 21.32-14.84L21.32-14.84Q21.32-11.24 18.36-9.36Q15.40-7.48 9.60-7.76L9.60-7.76L9.60-0.80Z M32.12-18.40L32.12-0.80L34.12-0.80L34.12 0L24.12 0L24.12-0.80L26.12-0.80L26.12-17.60L24.52-17.60L24.52-18.40L32.12-18.40ZM32.48-23.70Q32.48-22.24 31.46-21.22Q30.44-20.20 28.98-20.20Q27.52-20.20 26.48-21.22Q25.44-22.24 25.44-23.70Q25.44-25.16 26.48-26.20Q27.52-27.24 28.98-27.24Q30.44-27.24 31.46-26.20Q32.48-25.16 32.48-23.70Z M59.64-0.80L59.64-0.80L59.64 0Q54.20 0 52.10-0.78Q50-1.56 47.96-4.68L47.96-4.68L45.44-8.56L44.92-8.08L44.92-0.80L46.92-0.80L46.92 0L36.92 0L36.92-0.80L38.92-0.80L38.92-26L36.92-26L36.92-26.80L44.92-26.80L44.92-9.28L53.28-17.60L50.04-17.60L50.04-18.40L57.64-18.40L57.64-17.60L54.48-17.60L49.68-12.84L54.48-5.64Q57.72-0.80 59.64-0.80Z M81.04-0.80Q80.64-0.40 79.52-0.10Q78.40 0.20 76.92 0.20L76.92 0.20Q73.64 0.20 72.80-1.76L72.80-1.76Q70.80 0.32 66.68 0.32L66.68 0.32Q64.48 0.32 63.06-0.70Q61.64-1.72 61.64-3.72L61.64-3.72Q61.64-6.40 63.72-7.86Q65.80-9.32 71-9.92L71-9.92L72.60-10.12L72.60-12.08Q72.60-15.56 72.08-16.76Q71.56-17.96 70.02-17.96Q68.48-17.96 68.04-17.54Q67.60-17.12 67.72-16.58Q67.84-16.04 68.12-15.16Q68.40-14.28 68.40-13.76L68.40-13.76Q68.40-12.52 67.54-11.66Q66.68-10.80 65.46-10.80Q64.24-10.80 63.36-11.66Q62.48-12.52 62.48-13.76L62.48-13.76Q62.48-15.80 64.58-17.26Q66.68-18.72 70.86-18.72Q75.04-18.72 76.82-17.08Q78.60-15.44 78.60-11.28L78.60-11.28L78.60-4.08Q78.60-1.96 79.12-1.42Q79.64-0.88 81.04-1.20L81.04-1.20L81.04-0.80ZM67.20-4.52Q67.40-3 68.32-2.18Q69.24-1.36 70.46-1.36Q71.68-1.36 72.60-2.56L72.60-2.56L72.60-9.36L71.16-9.16Q69.32-8.92 68.18-7.76Q67.04-6.60 67.20-4.52L67.20-4.52Z M99.08-0.80L99.08 0L89.88 0L89.88-0.80L91.48-0.80L91.48-9.24L84.32-21.60L82.24-21.60L82.24-22.40L93.44-22.40L93.44-21.60L91.48-21.60L97.08-11.52L102.28-21.60L99.08-21.60L99.08-22.40L106.08-22.40L106.08-21.60L103.28-21.60L97.48-10.32L97.48-0.80L99.08-0.80Z M129.88 0L121.88 0L121.88-2.12Q121.12-1.04 119.50-0.30Q117.88 0.44 116 0.44L116 0.44Q108.88 0.44 108.88-7.28L108.88-7.28L108.88-17.60L106.88-17.60L106.88-18.40L114.88-18.40L114.88-6.40Q114.88-3.56 115.72-2.36Q116.56-1.16 118.24-1.16L118.24-1.16Q120.48-1.16 121.88-3.56L121.88-3.56L121.88-17.60L119.88-17.60L119.88-18.40L127.88-18.40L127.88-0.80L129.88-0.80L129.88 0Z M144.68-17.60L140.04-17.60L140.04-7.84Q140.04-4.40 140.32-3.66Q140.60-2.92 140.92-2.40L140.92-2.40Q141.52-1.36 143.02-1.36Q144.52-1.36 145.12-1.76L145.12-1.76L145.12-0.96Q143.20 0.40 140.92 0.40L140.92 0.40Q137.56 0.40 135.80-1.20Q134.04-2.80 134.04-6.92L134.04-6.92L134.04-17.60L131.08-17.60L131.08-18.40L134.04-18.40Q135.96-18.72 137.44-20.26Q138.92-21.80 139.48-24.52L139.48-24.52L140.04-24.52L140.04-18.40L144.68-18.40L144.68-17.60Z"/></g>
</svg>
</g><g opacity="1" transform="rotate(0 184.7024 240.3297)">
<svg width="145.178" height="145.3869" x="184.7024" y="240.3297" version="1.1" preserveAspectRatio="none" viewBox="20.200002670288086 19.970077514648438 159.8000030517578 160.02992248535156">
  <g transform="matrix(1 0 0 1 0 0)" ><g><path d="M81.6 164.8l21.3-21.3-1.4-1.8-19.9 23.1z" data-color="1" class="icon1"></path><path d="M105 137.6l1.6 2.1 1.4-1.4-1.7-2.3-1.3 1.6z" data-color="1" class="icon1"></path><path d="M102.5 140.5l1.4 1.9 1.6-1.6-1.6-2-1.4 1.7z" data-color="1" class="icon1"></path><path d="M122.3 117.5h6.5l1.9-1.9h-6.8l-1.6 1.9z" data-color="1" class="icon1"></path><path d="M172.5 36.6l-49.1 50c0 .8-.1 1.6-.1 2.4 0 .2-.1.4-.1.7.3 3.6-.3 7.6-1.6 11.8h14.7l-7.6 8.8h7.5l15.6-15.6h-22.2c0-.1 42.9-58.1 42.9-58.1z" data-color="1" class="icon1"></path><path d="M125.2 114.2h7l2.5-2.5h-7.3c-.1 0-2.2 2.5-2.2 2.5z" data-color="1" class="icon1"></path><path d="M107.3 134.9l1.8 2.4 18.2-18.3H121l-13.7 15.9z" data-color="1" class="icon1"></path><path d="M59.6 138.4c9.9 2.2 20.1.7 27.9-4.3 1.1-1.3 2.1-2.6 3.1-4-2.5.5-5 .8-7.6.8-4.8 0-9.6-.9-14.2-2.7-1.4.4-2.8.7-4.2.9-1.9.3-3.9.4-5.8.4-7.6 0-15-2.3-21.2-6.4-.4.1-.8.1-1.2.2 5.2 7.4 13.7 12.9 23.2 15.1z" data-color="1" class="icon1"></path><path d="M55.2 138.7l-1.2 8.1c1.7.2 3.5.4 5.2.4H61l.4-6.9c-.7-.1-1.3-.2-2-.4-1.5-.4-2.9-.8-4.2-1.2z" data-color="1" class="icon1"></path><path d="M84.1 137.6c-4.1 1.9-8.7 2.9-13.4 3.2l.3 4.4c4.9-1.6 9.3-4.2 13.1-7.6z" data-color="1" class="icon1"></path><path d="M44.8 144.3c2.5 1 5 1.8 7.6 2.2l1.2-8.4c-1.9-.7-3.7-1.5-5.4-2.5l-3.4 8.7z" data-color="1" class="icon1"></path><path d="M68.5 140.9c-1.9 0-3.8-.1-5.7-.4l-.3 6.6c2.4-.2 4.8-.7 7.2-1.3l-.4-4.8 1.1-.1c-.7-.1-1.3 0-1.9 0z" data-color="1" class="icon1"></path><path d="M43.3 132.5l-7.6 6.4c.5.4.9.8 1.4 1.1 2 1.5 4.1 2.7 6.3 3.7L47 135c-1.2-.8-2.5-1.6-3.7-2.5z" data-color="1" class="icon1"></path><path d="M34.7 123.4c-3.5.3-7.1.1-10.5-.6.8 2.3 1.9 4.4 3.2 6.5l10.8-1.5c-1.3-1.4-2.5-2.8-3.5-4.4z" data-color="1" class="icon1"></path><path d="M39.4 129.1l-11.2 1.5c1.8 2.7 3.9 5.1 6.4 7.2l7.5-6.3c-.9-.7-1.8-1.5-2.7-2.4z" data-color="1" class="icon1"></path><path d="M92.1 123.1c-1.1.2-2.2.4-3.3.5-1.4.2-2.8.2-4.2.2-1 0-2-.1-3.1-.1-.5 0-1 0-1.5-.1-.6.3-1.3.7-1.9 1-2.2 1.1-4.5 2-6.9 2.7 7.9 2.6 16.3 2.5 24-.1l-3.1-4.1z" data-color="1" class="icon1"></path><path d="M110.9 116.9c2.8-3.1 7.1-9.4 9.3-16.5-4.8 11.1-14.6 19.5-26.5 22.4l3 4c5.5-2.2 10.3-5.5 14.2-9.9z" data-color="1" class="icon1"></path><path d="M75.9 69.7l6.5 2.6c0-.1-.1-.3-.1-.4-.1-.9-.2-1.7-.2-2.6l-6.2.4z" data-color="1" class="icon1"></path><path d="M82.5 65.1v-.7l-6.8 3.8 6.5-.4c0-1 .1-1.8.3-2.7z" data-color="1" class="icon1"></path><path d="M100 53.9c-5-.2-9.8 1.7-12.8 5.1-.4.5-.9 1-1.2 1.6 2.4-1.3 4.9-2.2 7.6-2.7 9.8-1.9 18.2 2.5 24 7.3-.9-1.7-1.9-3.3-3.2-4.8-3.7-4.1-8.5-6.3-14.4-6.5z" data-color="1" class="icon1"></path><path d="M86.4 85.8l-.2-.1.2.1z" data-color="1" class="icon1"></path><path d="M82.5 122.3c2.1.1 4.1.1 6.2-.1 10.8-1.2 20.3-7 26.4-15.5-8.5-.5-15.2-7.3-15.6-15.8-1.1-.2-2.3-.4-3.4-.7-3.9-1.1-6.9-2.7-8.8-3.8 3.5 2.5 6.1 6.5 7.1 11.1 1.3 6.2.3 11.8-3.1 16.7-2.1 3-5.1 5.7-8.8 8.1z" data-color="1" class="icon1"></path><path d="M121.8 87.2c-6.2 3.1-11.9 4.2-16.7 4.2-1.4 0-2.8-.1-4.2-.3.5 7.9 7 14.1 15 14.1v.1c3.2-5 5.2-10.6 5.8-16.5.1-.5.1-1 .1-1.6z" data-color="1" class="icon1"></path><path d="M93.8 59.3c-4.2.8-7.5 2.6-9.2 3.7-1 2.5-1.2 5.4-.8 8.6.3 1.9.7 4.1 1.2 6.3s.9 4.4 1.1 5.9c.7.5 4.5 3.3 10.3 4.9 5.8 1.6 15 2.3 25.4-3.2 0-4.7-.6-11.1-2.9-17-8-7.7-16.5-10.8-25.1-9.2z" data-color="1" class="icon1"></path><path d="M30.9 88.5c-3.1-1.7-5.9-3.8-8.5-6.3-.5 2.4-.8 4.8-.9 7.2l9.9 4.7c-.3-1.8-.5-3.7-.5-5.6z" data-color="1" class="icon1"></path><path d="M31.8 95.9L21.6 91c0 3.2.5 6.4 1.4 9.5l9.8-1.2c-.5-1-.8-2.2-1-3.4z" data-color="1" class="icon1"></path><path d="M69.3 126.4c2.8-.8 5.5-1.8 8.1-3-5.7-1.1-11.1-4.4-15.5-9.6-4.9-5.9-7.8-13.3-8-20.6-7.4.8-14.8-.5-21.5-3.8.3 9.1 4.3 18.3 11.2 25.4 7.1 7.3 16.4 11.5 25.7 11.6z" data-color="1" class="icon1"></path><path d="M92.1 109.6c1.5-3.6 1.8-7.6.8-11.8-1.1-4.9-4.1-9.1-8.1-11.2-3.9-2-8.4-2-13.1-.1-.5.2-1 .4-1.5.7 0 12.2 9.7 22.1 21.9 22.4z" data-color="1" class="icon1"></path><path d="M79.7 122.2c4-2.2 7.8-5.1 10.4-8.9.5-.7.9-1.5 1.3-2.3-12.4-.6-22.3-10.7-22.7-23.2-.9.4-1.9.9-2.8 1.4-2.6 1.3-5.1 2.5-6.6 2.9-1.3.3-2.6.6-3.9.8.2 7 2.9 14.2 7.7 19.8 4.6 5.7 10.5 8.9 16.6 9.5z" data-color="1" class="icon1"></path><path d="M28 111.6c1.5 2.2 3.2 4.2 5.2 6.1l5.6-6.3c-1.2-1.6-2.2-3.3-3.2-5l-7.6 5.2z" data-color="1" class="icon1"></path><path d="M34.9 105c-.7-1.3-1.2-2.7-1.7-4.1l-9.8 1.2c.2.6.4 1.1.6 1.7.9 2.3 2 4.5 3.3 6.6-.1-.1 7.6-5.4 7.6-5.4z" data-color="1" class="icon1"></path><path d="M58.8 128c1.9 0 3.7-.1 5.6-.4h.1c-4.5-.7-8.9-2.3-13-4.7l-2.1 3.9c3.1.7 6.2 1.2 9.4 1.2z" data-color="1" class="icon1"></path><path d="M44 117.2c-.5-.5-1-.9-1.5-1.4-1-1-1.9-2.1-2.8-3.3l-5.4 6.1c1.8 1.5 3.7 2.9 5.7 4.1-.1.1 4-5.5 4-5.5z" data-color="1" class="icon1"></path><path d="M41.2 123.5c2.1 1.2 4.4 2.1 6.7 2.8l2.3-4.2.8.4c-2.1-1.3-4.1-2.7-5.9-4.3l-3.9 5.3z" data-color="1" class="icon1"></path><path d="M103.5 36.4l-2.9-9.7-3.2 9.7c.9 0 1.7-.1 2.6-.1 1.2 0 2.4 0 3.5.1z" data-color="1" class="icon1"></path><path d="M114.2 38.4l-3.1-5.6-2.5 4.2c2.2.3 4.1.8 5.6 1.4z" data-color="1" class="icon1"></path><path d="M90 32.9L87 38c1.5-.5 3.2-.9 5.2-1.1l-2.2-4z" data-color="1" class="icon1"></path><path d="M115.4 44.5c-1.3-.7-3.1-1.2-5.2-1.7-2.6-.4-6-.7-10.2-.7-4.2 0-7.7.3-10.2.7-2.1.4-3.9 1-5.2 1.7 1 .8 6.4 2.1 15.4 2.1s14.4-1.3 15.4-2.1z" data-color="1" class="icon1"></path><path d="M84.2 43c3.6-1.7 9.4-2.7 15.9-2.7s12.3 1 15.9 2.7c.7-.5.9-.9.9-1.1 0-.5-1.2-1.6-4.3-2.6-3.3-1-7.7-1.6-12.5-1.6s-9.2.6-12.5 1.6c-3.1 1-4.3 2.1-4.3 2.6-.1.2.2.6.9 1.1z" data-color="1" class="icon1"></path><path d="M107.4 30.7c.8 0 1.4-.7 1.3-1.4 0-.7-.6-1.3-1.3-1.3-.8 0-1.4.7-1.3 1.4 0 .7.6 1.3 1.3 1.3z" data-color="1" class="icon1"></path><path d="M100.7 24.3c.8 0 1.4-.7 1.3-1.4 0-.7-.6-1.3-1.3-1.3-.8 0-1.4.7-1.3 1.4 0 .6.5 1.2 1.3 1.3z" data-color="1" class="icon1"></path><path d="M94.1 30.7c.8 0 1.4-.7 1.3-1.4 0-.7-.6-1.3-1.3-1.3-.8 0-1.4.7-1.3 1.4 0 .7.6 1.3 1.3 1.3z" data-color="1" class="icon1"></path><path d="M132.5 93.1L180 29l-1.1-1-55.5 56.4c0-3.2-.4-6.5-1-9.6-1.3-6.3-3.7-11.6-6.9-15.4-3.9-4.5-9.1-6.9-15.4-7.1-5.5-.2-10.7 1.9-14 5.6-1.1 1.2-2 2.6-2.6 4.1-.3.2-.6.4-.8.6l-11.9 6.6 1.5.6v.1h.2l10.2 4c.3 1.4.6 2.8.9 4.3.6 2.8 1.1 5.3 1.2 6.7-4.1-1.9-8.8-1.8-13.6.2-1.8.8-3.9 1.8-5.9 2.8-2.6 1.3-5 2.5-6.3 2.8C45.9 94 32 90 22.7 80.2l-.9-1-.3 1.3c-.8 3.1-1.3 6.4-1.3 9.6v.1c0 4.7.8 9.5 2.5 13.9 2.7 7.2 7.4 13.2 13.3 17.6-4.2.5-8.5.2-12.6-.7l-1.3-.3.4 1.3c1 3.1 2.4 6 4.2 8.7v.1h.1c2.6 4 5.9 7.5 9.7 10.3 6.8 5 14.9 7.5 22.9 7.5 9.3 0 18.6-3.3 25.9-9.9 1.2-1.1 2.4-2.3 3.5-3.6h.1c1.5-1.7 2.9-3.6 4.2-5.5 1.2-.3 2.3-.7 3.4-1.1l6.9 9-1.5 1.7-1.8-2.5-1.2.9 2 2.7L67.4 179l1.1 1 35.3-35.3 1.7 2.3 1.2-.9-1.8-2.4 1.6-1.6 3.5 4.5 1.2-.9-3.6-4.7 1.4-1.4 1.7 2.3 1.2-.9-1.8-2.4 19.4-19.4h3.9v-1.5H131l1.9-1.9h7.4v-1.5h-5.9l2.5-2.5h4.6v-1.5h-3.1l17.1-17.1-23-.1zm-30 47.4l1.5-1.7 1.6 2-1.6 1.6-1.5-1.9zm.4 3l-21.3 21.3 19.9-23.1 1.4 1.8zm2.1-5.9l1.3-1.5 1.7 2.3-1.4 1.4-1.6-2.2zm-33.7-10.2c2.3-.7 4.6-1.6 6.9-2.7.7-.3 1.3-.6 1.9-1 .5 0 1 .1 1.5.1 1 .1 2 .1 3.1.1 1.4 0 2.8-.1 4.2-.2 1.1-.1 2.2-.3 3.3-.5l3.2 4.1c-7.8 2.6-16.3 2.7-24.1.1zm16.2 6.6c-7.8 5-18 6.6-27.9 4.3-9.6-2.2-18-7.7-23.3-15.1.4 0 .8-.1 1.2-.2 6.2 4.1 13.6 6.4 21.2 6.4 1.9 0 3.9-.1 5.8-.4 1.4-.2 2.8-.5 4.2-.9 4.5 1.8 9.3 2.7 14.2 2.7 2.6 0 5.1-.3 7.6-.8-.8 1.4-1.9 2.8-3 4zm-63.3-11.2c3.5.7 7 .9 10.5.6 1 1.6 2.2 3 3.5 4.4l-10.8 1.5c-1.3-2.1-2.4-4.2-3.2-6.5zm15.2 6.3c.9.8 1.8 1.7 2.7 2.4l-7.5 6.3c-2.4-2.1-4.6-4.5-6.4-7.2l11.2-1.5zm3.9 3.4c1.2.9 2.4 1.7 3.7 2.5l-3.6 8.7c-2.2-1-4.3-2.2-6.3-3.7-.5-.4-.9-.7-1.4-1.1l7.6-6.4zm1.5 11.8l3.5-8.6c1.7.9 3.5 1.8 5.4 2.5l-1.2 8.4c-2.6-.5-5.2-1.3-7.7-2.3zm9.2 2.5l1.2-8.1c1.4.5 2.7.9 4.2 1.2.7.2 1.3.3 2 .4l-.4 6.9h-1.8c-1.8-.1-3.5-.2-5.2-.4zm14.5-5.9c.6 0 1.2 0 1.8-.1l-1.1.1.4 4.8c-2.3.7-4.7 1.1-7.2 1.3l.3-6.6c2 .3 3.9.5 5.8.5zm2.6 4.3l-.3-4.4c4.7-.3 9.3-1.3 13.4-3.2-3.9 3.4-8.3 6-13.1 7.6zm46.4-80c-5.9-4.8-14.2-9.2-24-7.3-2.6.5-5.2 1.4-7.6 2.7.4-.6.8-1.1 1.2-1.6 3-3.3 7.8-5.2 12.8-5.1 5.9.2 10.7 2.4 14.3 6.6 1.4 1.4 2.4 3 3.3 4.7zm-23.7-5.9c8.6-1.6 17.1 1.5 25.2 9.2 2.3 5.9 2.9 12.4 2.9 17-10.5 5.6-19.6 4.8-25.4 3.2-5.9-1.6-9.7-4.4-10.3-4.9-.2-1.6-.6-3.7-1.1-5.9-.5-2.2-.9-4.4-1.2-6.3-.5-3.2-.2-6 .8-8.6 1.7-1.1 4.9-2.9 9.1-3.7zM51 122.5l-.8-.4-2.3 4.2c-2.3-.7-4.6-1.7-6.7-2.8l3.9-5.3c1.8 1.6 3.8 3.1 5.9 4.3zm13.5 5c-1.9.3-3.8.4-5.7.4-3.2 0-6.4-.4-9.4-1.2l2.1-3.9c4.1 2.4 8.5 4 13 4.7zm51.4-22.2c-8-.1-14.5-6.3-15-14.2 1.3.2 2.7.3 4.2.3 4.9 0 10.6-1.1 16.7-4.2 0 .5-.1 1.1-.1 1.6-.5 5.9-2.5 11.6-5.8 16.5zm-21.6-7.8c-1-4.6-3.6-8.6-7.1-11.1 1.9 1.1 4.9 2.7 8.8 3.8 1.1.3 2.3.6 3.4.7.4 8.5 7.1 15.3 15.6 15.8-6 8.5-15.5 14.3-26.4 15.5-2.1.2-4.2.3-6.2.1 3.7-2.4 6.8-5.1 8.8-8.1 3.5-5 4.5-10.6 3.1-16.7zM82.5 64.4v.7c-.2.9-.3 1.8-.3 2.7l-6.5.4 6.8-3.8zm-.3 4.8c0 .8.1 1.7.2 2.6 0 .1 0 .3.1.4L76 69.6l6.2-.4zm4.2 16.6c-.1 0-.1-.1-.2-.1l.2.1zm-1.6.8c4 2.1 7 6.3 8.1 11.2.9 4.2.6 8.2-.8 11.8-12.1-.3-21.9-10.2-21.9-22.4.5-.2 1-.5 1.5-.7 4.7-1.9 9.3-1.9 13.1.1zm-18.9 2.7c.9-.5 1.9-.9 2.8-1.4.3 12.5 10.3 22.6 22.7 23.2-.4.8-.8 1.5-1.3 2.3-2.6 3.8-6.4 6.7-10.4 8.9-6.1-.5-12-3.8-16.7-9.4-4.8-5.7-7.5-12.9-7.7-19.8 1.3-.2 2.6-.4 3.9-.8 1.6-.5 4-1.7 6.7-3zm-12 3.8c.2 7.2 3.1 14.7 8 20.6 4.4 5.2 9.8 8.6 15.5 9.6-2.6 1.2-5.3 2.3-8.1 3-9.3-.1-18.6-4.3-25.7-11.7-6.8-7.1-10.9-16.3-11.2-25.4 6.7 3.4 14.1 4.7 21.5 3.9zm-23-4.6c0 1.9.2 3.7.5 5.6l-9.9-4.7c.1-2.4.4-4.8.9-7.2 2.6 2.5 5.4 4.6 8.5 6.3zm.9 7.4c.3 1.2.6 2.4.9 3.5l-9.8 1.2c-.9-3.1-1.3-6.3-1.4-9.5l10.3 4.8zm1.4 5c.5 1.4 1.1 2.8 1.7 4.1l-7.8 5.3c-1.3-2.1-2.4-4.3-3.3-6.6-.2-.6-.4-1.1-.6-1.7.2 0 10-1.1 10-1.1zm2.4 5.4c.9 1.7 2 3.4 3.2 5l-5.6 6.3c-1.9-1.8-3.7-3.9-5.2-6.1l7.6-5.2zm4.1 6.2c.9 1.1 1.8 2.2 2.8 3.3.5.5 1 1 1.5 1.4l-4.1 5.5c-2-1.2-3.9-2.6-5.7-4.1l5.5-6.1zm54 10.3c11.9-2.9 21.7-11.3 26.5-22.4-2.2 7.1-6.6 13.4-9.3 16.5-3.9 4.3-8.7 7.7-14.2 9.8l-3-3.9zm26-16.8c.5-1 .9-2.1 1.3-3.1h12l-6.3 7.3h-3.4v1.5h2.2l-2.1 2.5H115c1.7-2.6 3.4-5.4 4.7-8.2zm-12.4 28.9L121 119h6.3l-18.2 18.3-1.8-2.4zm15-17.4l1.6-1.9h6.8l-1.9 1.9h-6.5zm2.9-3.3l2.1-2.5h7.3l-2.5 2.5h-6.9zm3.4-4l7.6-8.8h-14.7c1.4-4.2 1.9-8.2 1.6-11.8 0-.2.1-.4.1-.7.1-.8.1-1.6.1-2.4l49.1-50-42.9 58h22.2l-15.6 15.6-7.5.1zM97.7 128c5.5-2.2 10.4-5.6 14.3-10.1.6-.7 1.3-1.5 1.8-2.3h8.1l-1.6 1.9h-3.2v1.5h1.9l-12.6 14.7-1.5-2-1.2.9 1.7 2.3-1.3 1.5-6.4-8.4z" data-color="2" class="icon2"></path><path d="M92.7 72.9h.2c2.7 0 4.8-2.2 4.8-4.8v-.2c0-2.7-2.2-4.8-4.8-4.8h-.2c-2.7 0-4.8 2.2-4.8 4.8v.2c0 2.7 2.2 4.8 4.8 4.8zm-3.3-5c0-1.8 1.5-3.3 3.3-3.3h.2c1.8 0 3.3 1.5 3.3 3.3v.2c0 1.8-1.5 3.3-3.3 3.3h-.2c-1.8 0-3.3-1.5-3.3-3.3v-.2z" data-color="2" class="icon2"></path><path d="M83 44v.3c0 .8.6 2 5.4 2.8 3.1.6 7.3.9 11.7.9 4.4 0 8.5-.3 11.7-.9 4.8-.9 5.4-2 5.4-2.8V44c.8-.6 1.2-1.3 1.2-2 0-.9-.6-1.7-1.7-2.4l-5.3-9.8-4.1 6.9c-.6-.1-1.3-.2-2-.2l-3.3-11c1.5-.6 2.1-2.3 1.5-3.8-.6-1.5-2.3-2.1-3.8-1.5-1 .5-1.7 1.5-1.7 2.6s.7 2.1 1.6 2.6l-3.6 11c-.7.1-1.4.1-2.1.2l-3.7-6.7-5.3 8.9c-1.9.9-3 2-3 3.1-.1.8.3 1.5 1.1 2.1zm16.3-21.1c0-.8.7-1.4 1.4-1.3.7 0 1.3.6 1.3 1.3 0 .8-.7 1.4-1.4 1.3-.7 0-1.3-.6-1.3-1.3zm4.2 13.5c-1.2-.1-2.3-.1-3.5-.1-.9 0-1.7 0-2.6.1l3.2-9.7 2.9 9.7zm13.3 5.6c0 .2-.2.6-.9 1.1-3.6-1.7-9.4-2.7-15.9-2.7s-12.3 1-15.9 2.7c-.7-.5-.9-.9-.9-1.1 0-.5 1.2-1.6 4.3-2.6 3.3-1 7.7-1.6 12.5-1.6s9.2.6 12.5 1.6c3.1.9 4.3 2.1 4.3 2.6zm-32.2 2.5c1.3-.7 3.1-1.2 5.2-1.7 2.6-.4 6-.7 10.2-.7 4.2 0 7.7.3 10.2.7 2.1.4 3.9 1 5.2 1.7-1 .8-6.4 2.1-15.4 2.1s-14.4-1.3-15.4-2.1zm24-7.5l2.5-4.2 3.1 5.6c-1.5-.6-3.4-1.1-5.6-1.4zM87 38l3-5.1 2.1 3.9c-1.9.3-3.6.7-5.1 1.2z" data-color="2" class="icon2"></path><path d="M107.4 32.2c1.6 0 2.9-1.3 2.9-2.9 0-1.6-1.3-2.9-2.9-2.9-1.6 0-2.9 1.3-2.9 2.9 0 1.6 1.3 2.9 2.9 2.9zm0-4.3c.8 0 1.4.7 1.3 1.4 0 .7-.6 1.3-1.3 1.3-.8 0-1.4-.7-1.3-1.4 0-.7.6-1.3 1.3-1.3z" data-color="2" class="icon2"></path><path d="M94.1 32.2c1.6 0 2.9-1.3 2.9-2.9 0-1.6-1.3-2.9-2.9-2.9-1.6 0-2.9 1.3-2.9 2.9.1 1.6 1.3 2.9 2.9 2.9zm0-4.3c.8 0 1.4.7 1.3 1.4 0 .7-.6 1.3-1.3 1.3-.8 0-1.4-.7-1.3-1.4 0-.7.6-1.3 1.3-1.3z" data-color="2" class="icon2"></path></g></g>
</svg>
</g></svg></svg>