<svg version="1.1" preserveAspectRatio="none" xmlns="http://www.w3.org/2000/svg" width="500" height="500" viewBox="0 0 500 500"><rect width="100%" height="100%" fill="#EFEFEF" fill-opacity="1"/><svg viewBox="744.0575 584.4242 453.1586 128" width="333" height="94.05978392553953" x="83.5px" y="202.9701px" xmlns="http://www.w3.org/2000/svg" xmlns:xlink="http://www.w3.org/1999/xlink" preserveAspectRatio="none"><defs></defs><style>.companyName {fill:#2D2D2D;fill-opacity:1;}.icon3-str {stroke:#BCBBBB;stroke-opacity:1;}.shape {fill:#FFCABD;fill-opacity:1;}.shapeStroke-str {stroke:#2D2D2D;stroke-opacity:1;}.text {fill:#2D2D2D;fill-opacity:1;}</style><g opacity="1" transform="rotate(0 781.7525 627.5282)">
<svg width="377.7687" height="42" x="781.7525" y="627.5282" version="1.1" preserveAspectRatio="none" viewBox="0 0 377.7687 42">
  <defs><rect x="0" y="0" width="377.7687" height="42" rx="0%" ry="0%" id="id-7UcwTXs11676915476749"></rect></defs><use class="shape shapeStroke-str" style="stroke-width:0;" xlink:href="#id-7UcwTXs11676915476749"></use>
</svg>
</g><g opacity="1" transform="rotate(0 744.0575 684.4242)">
<svg width="453.1586" height="28" x="744.0575" y="684.4242" version="1.1" preserveAspectRatio="none" viewBox="2.72 -30.4 642.84 39.72">
  <g transform="matrix(1 0 0 1 0 0)" class="text"><path id="id-6izo4zJp30" d="M24.92-1.88Q23.36-0.92 21.40-0.30Q19.44 0.32 17.20 0.32L17.20 0.32Q12.92 0.32 9.64-1.60Q6.36-3.52 4.54-6.80Q2.72-10.08 2.72-14L2.72-14Q2.72-18.12 4.60-21.48Q6.48-24.84 9.76-26.78Q13.04-28.72 17.04-28.72L17.04-28.72Q21.24-28.72 24.80-26.56L24.80-26.56L23.96-24.76Q20.60-26.84 17.08-26.84L17.08-26.84Q13.76-26.84 10.92-25.14Q8.08-23.44 6.42-20.50Q4.76-17.56 4.76-14.08L4.76-14.08Q4.76-10.64 6.28-7.78Q7.80-4.92 10.60-3.24Q13.40-1.56 17.08-1.56L17.08-1.56Q20.76-1.56 24-3.60L24-3.60L24.92-1.88Z M31.68-7.92Q31.68-10.16 32.78-12.06Q33.88-13.96 35.80-15.06Q37.72-16.16 40.04-16.16L40.04-16.16Q42.36-16.16 44.28-15.06Q46.20-13.96 47.28-12.06Q48.36-10.16 48.36-7.92L48.36-7.92Q48.36-5.64 47.26-3.76Q46.16-1.88 44.26-0.78Q42.36 0.32 40 0.32L40 0.32Q37.64 0.32 35.74-0.74Q33.84-1.80 32.76-3.68Q31.68-5.56 31.68-7.92L31.68-7.92ZM33.56-7.88Q33.56-6.08 34.42-4.56Q35.28-3.04 36.76-2.16Q38.24-1.28 40-1.28L40-1.28Q41.76-1.28 43.24-2.16Q44.72-3.04 45.58-4.56Q46.44-6.08 46.44-7.88L46.44-7.88Q46.44-9.68 45.58-11.22Q44.72-12.76 43.24-13.64Q41.76-14.52 40-14.52L40-14.52Q38.20-14.52 36.72-13.58Q35.24-12.64 34.40-11.12Q33.56-9.60 33.56-7.88L33.56-7.88Z M75.40-16.08Q77.60-16.08 78.92-14.80Q80.24-13.52 80.32-11.40L80.32-11.40L80.32 0L78.44 0L78.44-11Q78.36-12.44 77.50-13.40Q76.64-14.36 75-14.44L75-14.44Q73.44-14.44 72.12-13.64Q70.80-12.84 69.98-11.50Q69.16-10.16 69.08-8.56L69.08-8.56L69.08 0L67.20 0L67.20-11Q67.12-12.44 66.24-13.40Q65.36-14.36 63.72-14.44L63.72-14.44Q62.16-14.44 60.80-13.64Q59.44-12.84 58.64-11.44Q57.84-10.04 57.84-8.40L57.84-8.40L57.84 0L55.96 0L55.96-15.64L57.60-15.64L57.76-12.20Q58.64-14 60.40-15.04Q62.16-16.08 64.24-16.08L64.24-16.08Q66.12-16.08 67.48-15.06Q68.84-14.04 69.08-12.44L69.08-12.44Q70-14.16 71.70-15.12Q73.40-16.08 75.40-16.08L75.40-16.08Z M108.88-16.08Q111.08-16.08 112.40-14.80Q113.72-13.52 113.80-11.40L113.80-11.40L113.80 0L111.92 0L111.92-11Q111.84-12.44 110.98-13.40Q110.12-14.36 108.48-14.44L108.48-14.44Q106.92-14.44 105.60-13.64Q104.28-12.84 103.46-11.50Q102.64-10.16 102.56-8.56L102.56-8.56L102.56 0L100.68 0L100.68-11Q100.60-12.44 99.72-13.40Q98.84-14.36 97.20-14.44L97.20-14.44Q95.64-14.44 94.28-13.64Q92.92-12.84 92.12-11.44Q91.32-10.04 91.32-8.40L91.32-8.40L91.32 0L89.44 0L89.44-15.64L91.08-15.64L91.24-12.20Q92.12-14 93.88-15.04Q95.64-16.08 97.72-16.08L97.72-16.08Q99.60-16.08 100.96-15.06Q102.32-14.04 102.56-12.44L102.56-12.44Q103.48-14.16 105.18-15.12Q106.88-16.08 108.88-16.08L108.88-16.08Z M134.28-15.64L136.16-15.64L136.16 0L134.48 0L134.36-3.32Q133.60-1.68 131.76-0.62Q129.92 0.44 127.84 0.44L127.84 0.44Q125.68 0.44 124.34-0.86Q123.00-2.16 122.92-4.24L122.92-4.24L122.92-15.64L124.80-15.64L124.80-4.80Q124.88-3.20 125.80-2.24Q126.72-1.28 128.48-1.20L128.48-1.20Q130-1.20 131.34-2Q132.68-2.80 133.48-4.20Q134.28-5.60 134.28-7.32L134.28-7.32L134.28-15.64Z M153.68-16.08Q155.84-16.08 157.20-14.78Q158.56-13.48 158.64-11.40L158.64-11.40L158.64 0L156.72 0L156.72-10.88Q156.64-12.44 155.72-13.42Q154.80-14.40 153.08-14.44L153.08-14.44Q151.48-14.44 150.14-13.68Q148.80-12.92 147.98-11.54Q147.16-10.16 147.16-8.40L147.16-8.40L147.16 0L145.28 0L145.28-15.64L146.92-15.64L147.08-12.16Q147.84-13.96 149.66-15.02Q151.48-16.08 153.68-16.08L153.68-16.08Z M167.76-15.64L169.64-15.64L169.64 0L167.76 0L167.76-15.64ZM167.36-21.40Q167.36-21.96 167.78-22.34Q168.20-22.72 168.76-22.72L168.76-22.72Q169.32-22.72 169.72-22.34Q170.12-21.96 170.12-21.40L170.12-21.40Q170.12-20.80 169.72-20.42Q169.32-20.04 168.76-20.04L168.76-20.04Q168.20-20.04 167.78-20.44Q167.36-20.84 167.36-21.40L167.36-21.40Z M180.32-22.52L182.24-22.52L182.24-15.44L187.08-15.44L187.08-13.92L182.24-13.92L182.24 0L180.32 0L180.32-13.92L177.00-13.92L177.00-15.44L180.32-15.44L180.32-22.52Z M205.40-15.64L207.24-15.64L197.16 7.52L195.20 7.52L198.56-0.16L191.32-15.64L193.44-15.64L199.52-2.32L205.40-15.64Z M228.48-28.16L230.24-28.16L230.24 9.32L228.48 9.32L228.48-28.16Z M262.28-2Q260.84-1.04 258.34-0.36Q255.84 0.32 253.68 0.32L253.68 0.32Q249.32 0.32 246.00-1.56Q242.68-3.44 240.86-6.68Q239.04-9.92 239.04-13.92L239.04-13.92Q239.04-18.16 241.00-21.54Q242.96-24.92 246.28-26.82Q249.60-28.72 253.56-28.72L253.56-28.72Q257.84-28.72 261.36-26.64L261.36-26.64L260.64-24.88Q259.20-25.72 257.36-26.24Q255.52-26.76 253.76-26.76L253.76-26.76Q250.20-26.76 247.28-25.10Q244.36-23.44 242.70-20.54Q241.04-17.64 241.04-14.04L241.04-14.04Q241.04-10.52 242.62-7.68Q244.20-4.84 247.06-3.22Q249.92-1.60 253.64-1.60L253.64-1.60Q255.36-1.60 257.20-2.02Q259.04-2.44 260.32-3.16L260.32-3.16L260.32-11.04L253.92-11.04L253.92-12.92L262.28-12.92L262.28-2Z M285.08-15.64L286.76-15.64L286.76 0L284.88 0L284.88-3.32Q283.96-1.80 282.08-0.74Q280.20 0.32 278.00 0.32L278.00 0.32Q275.76 0.32 273.94-0.70Q272.12-1.72 271.06-3.58Q270.00-5.44 270.00-7.84L270.00-7.84Q270.00-10.40 271.10-12.26Q272.20-14.12 274.14-15.12Q276.08-16.12 278.52-16.12L278.52-16.12Q280.44-16.12 282.20-15.04Q283.96-13.96 284.88-12.24L284.88-12.24L285.08-15.64ZM278.40-1.28Q281.04-1.28 282.88-2.92Q284.72-4.56 284.88-7.12L284.88-7.12L284.88-9.36Q284.40-11.56 282.56-13.04Q280.72-14.52 278.36-14.52L278.36-14.52Q276.56-14.52 275.08-13.70Q273.60-12.88 272.74-11.38Q271.88-9.88 271.88-7.92L271.88-7.92Q271.88-6.12 272.76-4.60Q273.64-3.08 275.14-2.18Q276.64-1.28 278.40-1.28L278.40-1.28Z M315.32-16.08Q317.52-16.08 318.84-14.80Q320.16-13.52 320.24-11.40L320.24-11.40L320.24 0L318.36 0L318.36-11Q318.28-12.44 317.42-13.40Q316.56-14.36 314.92-14.44L314.92-14.44Q313.36-14.44 312.04-13.64Q310.72-12.84 309.90-11.50Q309.08-10.16 309.00-8.56L309.00-8.56L309.00 0L307.12 0L307.12-11Q307.04-12.44 306.16-13.40Q305.28-14.36 303.64-14.44L303.64-14.44Q302.08-14.44 300.72-13.64Q299.36-12.84 298.56-11.44Q297.76-10.04 297.76-8.40L297.76-8.40L297.76 0L295.88 0L295.88-15.64L297.52-15.64L297.68-12.20Q298.56-14 300.32-15.04Q302.08-16.08 304.16-16.08L304.16-16.08Q306.04-16.08 307.40-15.06Q308.76-14.04 309.00-12.44L309.00-12.44Q309.92-14.16 311.62-15.12Q313.32-16.08 315.32-16.08L315.32-16.08Z M329.36-15.64L331.24-15.64L331.24 0L329.36 0L329.36-15.64ZM328.96-21.40Q328.96-21.96 329.38-22.34Q329.80-22.72 330.36-22.72L330.36-22.72Q330.92-22.72 331.32-22.34Q331.72-21.96 331.72-21.40L331.72-21.40Q331.72-20.80 331.32-20.42Q330.92-20.04 330.36-20.04L330.36-20.04Q329.80-20.04 329.38-20.44Q328.96-20.84 328.96-21.40L328.96-21.40Z M348.76-16.08Q350.92-16.08 352.28-14.78Q353.64-13.48 353.72-11.40L353.72-11.40L353.72 0L351.80 0L351.80-10.88Q351.72-12.44 350.80-13.42Q349.88-14.40 348.16-14.44L348.16-14.44Q346.56-14.44 345.22-13.68Q343.88-12.92 343.06-11.54Q342.24-10.16 342.24-8.40L342.24-8.40L342.24 0L340.36 0L340.36-15.64L342.00-15.64L342.16-12.16Q342.92-13.96 344.74-15.02Q346.56-16.08 348.76-16.08L348.76-16.08Z M376.60-15.64L378.28-15.64L378.28 0.24Q378.28 3.44 376.18 5.54Q374.08 7.64 369.80 7.64L369.80 7.64Q367.76 7.64 366.04 6.90Q364.32 6.16 362.52 4.44L362.52 4.44L363.64 3.16Q365.24 4.72 366.72 5.34Q368.20 5.96 369.72 5.96L369.72 5.96Q373.16 5.96 374.72 4.40Q376.28 2.84 376.36 0.20L376.36 0.20L376.40-3.48Q375.36-1.76 373.46-0.72Q371.56 0.32 369.32 0.32L369.32 0.32Q367.12 0.32 365.30-0.76Q363.48-1.84 362.40-3.72Q361.32-5.60 361.32-7.88L361.32-7.88Q361.32-10.24 362.44-12.12Q363.56-14 365.48-15.06Q367.40-16.12 369.72-16.12L369.72-16.12Q371.76-16.12 373.64-15.10Q375.52-14.08 376.44-12.40L376.44-12.40L376.60-15.64ZM369.80-1.28Q371.52-1.28 372.98-2.06Q374.44-2.84 375.36-4.16Q376.28-5.48 376.40-7L376.40-7L376.40-9.32Q375.92-11.60 374.06-13.06Q372.20-14.52 369.80-14.52L369.80-14.52Q367.96-14.52 366.44-13.68Q364.92-12.84 364.06-11.34Q363.20-9.84 363.20-7.92L363.20-7.92Q363.20-6.12 364.08-4.60Q364.96-3.08 366.48-2.18Q368.00-1.28 369.80-1.28L369.80-1.28Z M415.24-15.64L416.92-15.64L416.92 0L415.04 0L415.04-3.32Q414.12-1.80 412.24-0.74Q410.36 0.32 408.16 0.32L408.16 0.32Q405.92 0.32 404.10-0.70Q402.28-1.72 401.22-3.58Q400.16-5.44 400.16-7.84L400.16-7.84Q400.16-10.40 401.26-12.26Q402.36-14.12 404.30-15.12Q406.24-16.12 408.68-16.12L408.68-16.12Q410.60-16.12 412.36-15.04Q414.12-13.96 415.04-12.24L415.04-12.24L415.24-15.64ZM408.56-1.28Q411.20-1.28 413.04-2.92Q414.88-4.56 415.04-7.12L415.04-7.12L415.04-9.36Q414.56-11.56 412.72-13.04Q410.88-14.52 408.52-14.52L408.52-14.52Q406.72-14.52 405.24-13.70Q403.76-12.88 402.90-11.38Q402.04-9.88 402.04-7.92L402.04-7.92Q402.04-6.12 402.92-4.60Q403.80-3.08 405.30-2.18Q406.80-1.28 408.56-1.28L408.56-1.28Z M434.44-16.08Q436.60-16.08 437.96-14.78Q439.32-13.48 439.40-11.40L439.40-11.40L439.40 0L437.48 0L437.48-10.88Q437.40-12.44 436.48-13.42Q435.56-14.40 433.84-14.44L433.84-14.44Q432.24-14.44 430.90-13.68Q429.56-12.92 428.74-11.54Q427.92-10.16 427.92-8.40L427.92-8.40L427.92 0L426.04 0L426.04-15.64L427.68-15.64L427.84-12.16Q428.60-13.96 430.42-15.02Q432.24-16.08 434.44-16.08L434.44-16.08Z M462.00-30.40L463.88-30.40L463.88 0L461.96 0L461.96-3.24Q460.88-1.64 459.00-0.66Q457.12 0.32 454.92 0.32L454.92 0.32Q452.72 0.32 450.90-0.74Q449.08-1.80 448.04-3.70Q447.00-5.60 447.00-7.92L447.00-7.92Q447.00-10.36 448.08-12.24Q449.16-14.12 451.00-15.12Q452.84-16.12 455.12-16.12L455.12-16.12Q457.16-16.12 459.06-15.12Q460.96-14.12 462.00-12.48L462.00-12.48L462.00-30.40ZM455.40-1.32Q458.08-1.32 459.92-3Q461.76-4.68 461.96-7.24L461.96-7.24L461.96-9.24Q461.52-11.52 459.66-13.04Q457.80-14.56 455.40-14.56L455.40-14.56Q453.60-14.56 452.12-13.72Q450.64-12.88 449.76-11.38Q448.88-9.88 448.88-7.96L448.88-7.96Q448.88-6.16 449.76-4.64Q450.64-3.12 452.14-2.22Q453.64-1.32 455.40-1.32L455.40-1.32Z M499.36-1.52Q498.28-0.64 496.90-0.16Q495.52 0.32 494.08 0.32L494.08 0.32Q491.72 0.32 489.82-0.74Q487.92-1.80 486.84-3.66Q485.76-5.52 485.76-7.84L485.76-7.84Q485.76-10.16 486.86-12.02Q487.96-13.88 489.84-14.94Q491.72-16 493.92-16L493.92-16Q497.16-16 499.40-14.16L499.40-14.16L498.40-12.88Q496.40-14.44 494.04-14.44L494.04-14.44Q492.28-14.44 490.82-13.56Q489.36-12.68 488.50-11.16Q487.64-9.64 487.64-7.84L487.64-7.84Q487.64-6.04 488.50-4.54Q489.36-3.04 490.86-2.16Q492.36-1.28 494.20-1.28L494.20-1.28Q496.44-1.28 498.32-2.68L498.32-2.68L499.36-1.52Z M505.08-7.92Q505.08-10.16 506.18-12.06Q507.28-13.96 509.20-15.06Q511.12-16.16 513.44-16.16L513.44-16.16Q515.76-16.16 517.68-15.06Q519.60-13.96 520.68-12.06Q521.76-10.16 521.76-7.92L521.76-7.92Q521.76-5.64 520.66-3.76Q519.56-1.88 517.66-0.78Q515.76 0.32 513.40 0.32L513.40 0.32Q511.04 0.32 509.14-0.74Q507.24-1.80 506.16-3.68Q505.08-5.56 505.08-7.92L505.08-7.92ZM506.96-7.88Q506.96-6.08 507.82-4.56Q508.68-3.04 510.16-2.16Q511.64-1.28 513.40-1.28L513.40-1.28Q515.16-1.28 516.64-2.16Q518.12-3.04 518.98-4.56Q519.84-6.08 519.84-7.88L519.84-7.88Q519.84-9.68 518.98-11.22Q518.12-12.76 516.64-13.64Q515.16-14.52 513.40-14.52L513.40-14.52Q511.60-14.52 510.12-13.58Q508.64-12.64 507.80-11.12Q506.96-9.60 506.96-7.88L506.96-7.88Z M542.84-30.40L544.72-30.40L544.72 0L542.80 0L542.80-3.24Q541.72-1.64 539.84-0.66Q537.96 0.32 535.76 0.32L535.76 0.32Q533.56 0.32 531.74-0.74Q529.92-1.80 528.88-3.70Q527.84-5.60 527.84-7.92L527.84-7.92Q527.84-10.36 528.92-12.24Q530.00-14.12 531.84-15.12Q533.68-16.12 535.96-16.12L535.96-16.12Q538.00-16.12 539.90-15.12Q541.80-14.12 542.84-12.48L542.84-12.48L542.84-30.40ZM536.24-1.32Q538.92-1.32 540.76-3Q542.60-4.68 542.80-7.24L542.80-7.24L542.80-9.24Q542.36-11.52 540.50-13.04Q538.64-14.56 536.24-14.56L536.24-14.56Q534.44-14.56 532.96-13.72Q531.48-12.88 530.60-11.38Q529.72-9.88 529.72-7.96L529.72-7.96Q529.72-6.16 530.60-4.64Q531.48-3.12 532.98-2.22Q534.48-1.32 536.24-1.32L536.24-1.32Z M560.68-1.32Q563.20-1.32 565.24-3.04L565.24-3.04L566.20-1.68Q565.04-0.76 563.58-0.22Q562.12 0.32 560.64 0.32L560.64 0.32Q558.24 0.32 556.34-0.76Q554.44-1.84 553.38-3.70Q552.32-5.56 552.32-7.88L552.32-7.88Q552.32-10.12 553.44-12.02Q554.56-13.92 556.48-15.04Q558.40-16.16 560.68-16.16L560.68-16.16Q563.40-16.16 565.32-14.56Q567.24-12.96 568.12-10.24L568.12-10.24L554.76-5.08Q555.52-3.40 557.10-2.36Q558.68-1.32 560.68-1.32L560.68-1.32ZM560.56-14.56Q558.80-14.56 557.32-13.68Q555.84-12.80 555.00-11.30Q554.16-9.80 554.16-7.96L554.16-7.96Q554.16-7.12 554.32-6.48L554.32-6.48L565.84-11Q565.08-12.60 563.72-13.58Q562.36-14.56 560.56-14.56L560.56-14.56Z M575.60-28.16L577.36-28.16L577.36 9.32L575.60 9.32L575.60-28.16Z M602.24-28.40L618.16-28.40L618.16-26.52L604.20-26.52L604.20-14.80L616.56-14.80L616.56-12.96L604.20-12.96L604.20 0L602.24 0L602.24-28.40Z M645.56 0L643.28 0L635.84-12.08Q635.00-11.92 633.72-11.92L633.72-11.92L629.32-11.92L629.32 0L627.36 0L627.36-28.40L633.84-28.40Q636.08-28.40 638.14-27.52Q640.20-26.64 641.50-24.84Q642.80-23.04 642.80-20.36L642.80-20.36Q642.80-17.76 641.60-15.66Q640.40-13.56 637.88-12.60L637.88-12.60L645.56 0ZM633.60-13.80Q637.48-13.80 639.14-15.72Q640.80-17.64 640.80-20.28L640.80-20.28Q640.80-21.96 639.98-23.40Q639.16-24.84 637.64-25.68Q636.12-26.52 634.12-26.52L634.12-26.52L629.32-26.52L629.32-13.80L633.60-13.80Z"/></g>
</svg>
</g><g opacity="1" transform="rotate(0 793.7524 584.4242)">
<svg width="353.7687" height="70" x="793.7524" y="584.4242" version="1.1" preserveAspectRatio="none" viewBox="1.12 -30.8 157.68 31.2">
  <g transform="matrix(1 0 0 1 0 0)" class="companyName"><path id="id-D6z1nYkh7" d="M15.72 0L1.12 0L1.12-0.40L2.80-0.40Q3.40-0.40 3.86-0.58Q4.32-0.76 4.58-1.32Q4.84-1.88 4.84-3L4.84-3L4.84-25.72Q4.84-26.80 4.56-27.32Q4.28-27.84 3.82-28Q3.36-28.16 2.80-28.16L2.80-28.16L1.12-28.16L1.12-28.56L13.40-28.56Q18.96-28.56 21.64-26.28Q24.32-24 24.32-20.08L24.32-20.08Q24.32-18.28 23.68-16.64Q23.04-15 21.66-13.70Q20.28-12.40 18.02-11.66Q15.76-10.92 12.52-10.92L12.52-10.92L11.16-10.92L11.16-2.80Q11.16-1.76 11.46-1.24Q11.76-0.72 12.24-0.56Q12.72-0.40 13.28-0.40L13.28-0.40L15.72-0.40L15.72 0ZM11.16-11.32L12.12-11.32Q13.60-11.32 14.64-11.78Q15.68-12.24 16.34-13.26Q17-14.28 17.30-15.88Q17.60-17.48 17.60-19.76L17.60-19.76Q17.60-22.80 17.12-24.64Q16.64-26.48 15.56-27.32Q14.48-28.16 12.72-28.16L12.72-28.16L11.16-28.16L11.16-11.32Z M38.92 0L26.20 0L26.20-0.40L26.68-0.40Q27.28-0.40 27.94-0.58Q28.60-0.76 29.06-1.32Q29.52-1.88 29.52-3L29.52-3L29.52-18.60Q29.52-19.68 29.04-20.20Q28.56-20.72 27.90-20.88Q27.24-21.04 26.68-21.04L26.68-21.04L26.20-21.04L26.20-21.44L35.60-21.44L35.60-3Q35.60-1.88 36.06-1.32Q36.52-0.76 37.20-0.58Q37.88-0.40 38.44-0.40L38.44-0.40L38.92-0.40L38.92 0ZM32.36-25.04L32.36-25.04Q31.20-25.04 30.38-25.74Q29.56-26.44 29.56-27.92L29.56-27.92Q29.56-29.44 30.38-30.12Q31.20-30.80 32.36-30.80L32.36-30.80Q33.52-30.80 34.36-30.12Q35.20-29.44 35.20-27.92L35.20-27.92Q35.20-26.44 34.36-25.74Q33.52-25.04 32.36-25.04Z M53 0L40.28 0L40.28-0.40L40.76-0.40Q41.36-0.40 42.02-0.58Q42.68-0.76 43.14-1.32Q43.60-1.88 43.60-3L43.60-3L43.60-27.56Q43.60-28.64 43.12-29.16Q42.64-29.68 41.98-29.84Q41.32-30 40.76-30L40.76-30L40.28-30L40.28-30.40L49.68-30.40L49.68-13.12Q49.68-12.52 49.68-11.92Q49.68-11.32 49.68-10.74Q49.68-10.16 49.64-9.52L49.64-9.52L57.36-17.64Q57.80-18.12 58.08-18.50Q58.36-18.88 58.48-19.20Q58.60-19.52 58.60-19.76L58.60-19.76Q58.60-20.48 57.50-20.76Q56.40-21.04 53.92-21.04L53.92-21.04L53.92-21.44L63.60-21.44L63.60-21.04Q62.72-21.04 61.98-20.82Q61.24-20.60 60.32-19.88Q59.40-19.16 57.96-17.64L57.96-17.64L54.72-14.24L62.16-3.16Q62.96-1.96 63.46-1.38Q63.96-0.80 64.30-0.60Q64.64-0.40 64.96-0.40L64.96-0.40L65.04-0.40L65.04 0L64.48 0Q62.28 0 60.78-0.10Q59.28-0.20 58.24-0.54Q57.20-0.88 56.42-1.60Q55.64-2.32 54.84-3.56L54.84-3.56L50.72-10.04L49.68-8.96L49.68-3Q49.68-1.88 50.14-1.32Q50.60-0.76 51.28-0.58Q51.96-0.40 52.52-0.40L52.52-0.40L53-0.40L53 0Z M73.24 0.40L73.24 0.40Q70.24 0.40 68.54-1.30Q66.84-3 66.84-5.84L66.84-5.84Q66.84-8.92 69.08-10.28Q71.32-11.64 75.80-11.80L75.80-11.80L79.08-11.92L79.08-17Q79.08-18.76 78.84-19.74Q78.60-20.72 78.08-21.14Q77.56-21.56 76.64-21.56L76.64-21.56Q75.04-21.56 74.48-20.20Q73.92-18.84 73.92-15.20L73.92-15.20Q71.24-15.20 69.88-15.82Q68.52-16.44 68.52-17.92L68.52-17.92Q68.52-19.36 69.64-20.26Q70.76-21.16 72.64-21.56Q74.52-21.96 76.76-21.96L76.76-21.96Q80.96-21.96 83.06-20.44Q85.16-18.92 85.16-15.16L85.16-15.16L85.16-3.24Q85.16-2.16 85.38-1.54Q85.60-0.92 86.14-0.66Q86.68-0.40 87.56-0.40L87.56-0.40L87.72-0.40L87.72 0L79.16 0L79.16-4.04L79.08-4.04Q78.56-2.32 77.68-1.36Q76.80-0.40 75.66 0Q74.52 0.40 73.24 0.40ZM75.28-0.72L75.28-0.72Q76.44-0.72 77.30-1.60Q78.16-2.48 78.62-3.88Q79.08-5.28 79.08-6.84L79.08-6.84L79.08-11.52L77.28-11.44Q74.88-11.32 73.96-10.06Q73.04-8.80 73.04-5.96L73.04-5.96Q73.04-4.04 73.28-2.88Q73.52-1.72 74.02-1.22Q74.52-0.72 75.28-0.72Z M110.32 0L95.56 0L95.56-0.40L97.44-0.40Q98.08-0.40 98.60-0.54Q99.12-0.68 99.44-1.20Q99.76-1.72 99.76-2.84L99.76-2.84L99.76-11L91.84-26.04Q91.44-26.84 91.08-27.30Q90.72-27.76 90.34-27.96Q89.96-28.16 89.48-28.16L89.48-28.16L89-28.16L89-28.56L102.40-28.56L102.40-28.16L101.20-28.16Q99.84-28.16 99.20-27.86Q98.56-27.56 98.56-26.76L98.56-26.76Q98.56-26.28 98.78-25.64Q99-25 99.40-24.16L99.40-24.16L103.48-16.16Q103.84-15.52 104.14-14.92Q104.44-14.32 104.72-13.76Q105-13.20 105.30-12.64Q105.60-12.08 105.88-11.44L105.88-11.44Q106.52-12.96 107.18-14.42Q107.84-15.88 108.48-17.24L108.48-17.24L111.48-23.76Q111.92-24.68 112.14-25.36Q112.36-26.04 112.36-26.56L112.36-26.56Q112.36-27.44 111.66-27.80Q110.96-28.16 109.48-28.16L109.48-28.16L106.64-28.16L106.64-28.56L116.72-28.56L116.72-28.16L115.56-28.16Q114.96-28.16 114.48-27.88Q114-27.60 113.54-26.90Q113.08-26.20 112.52-25L112.52-25L106.12-11.12L106.12-2.88Q106.12-1.72 106.42-1.20Q106.72-0.68 107.24-0.54Q107.76-0.40 108.36-0.40L108.36-0.40L110.32-0.40L110.32 0Z M127.52 0.40L127.52 0.40Q124 0.40 122.28-1.44Q120.56-3.28 120.56-7.32L120.56-7.32L120.56-18.20Q120.56-19.44 120.26-20.04Q119.96-20.64 119.38-20.84Q118.80-21.04 117.88-21.04L117.88-21.04L117.76-21.04L117.76-21.44L126.64-21.44L126.64-6Q126.64-4.28 126.94-3.12Q127.24-1.96 127.90-1.38Q128.56-0.80 129.64-0.80L129.64-0.80Q131.08-0.80 131.88-1.76Q132.68-2.72 133-4.44Q133.32-6.16 133.32-8.40L133.32-8.40L133.32-18.44Q133.32-19.60 132.86-20.14Q132.40-20.68 131.74-20.86Q131.08-21.04 130.48-21.04L130.48-21.04L130.32-21.04L130.32-21.44L139.40-21.44L139.40-2.84Q139.40-1.80 139.88-1.26Q140.36-0.72 141.02-0.56Q141.68-0.40 142.24-0.40L142.24-0.40L142.40-0.40L142.40 0L133.32 0L133.32-3.76L133.24-3.76Q132.88-2.44 132.28-1.60Q131.68-0.76 130.92-0.34Q130.16 0.08 129.28 0.24Q128.40 0.40 127.52 0.40Z M153.12 0.40L153.12 0.40Q150.44 0.40 148.84-1Q147.24-2.40 147.24-5.92L147.24-5.92L147.24-21.04L144.24-21.04L144.24-21.44Q146.20-21.44 147.68-21.84Q149.16-22.24 150.24-23.12L150.24-23.12Q151.24-23.92 151.90-25.14Q152.56-26.36 152.92-28L152.92-28L153.32-28L153.32-21.44L158.44-21.44L158.44-21.04L153.32-21.04L153.32-4.12Q153.32-2.24 154.04-1.36Q154.76-0.48 156.16-0.48L156.16-0.48Q156.72-0.48 157.38-0.60Q158.04-0.72 158.80-1L158.80-1L158.80-0.60Q158.16-0.32 156.70 0.04Q155.24 0.40 153.12 0.40Z"/></g>
</svg>
</g></svg></svg>