<svg version="1.1" preserveAspectRatio="none" xmlns="http://www.w3.org/2000/svg" width="500" height="500" viewBox="0 0 500 500"><rect width="100%" height="100%" fill="#F2F2F2" fill-opacity="1"/><svg viewBox="61.9222 246.9634 441.8121 285.3138" width="333" height="215.04502796550844" x="83.5px" y="142.4775px" xmlns="http://www.w3.org/2000/svg" xmlns:xlink="http://www.w3.org/1999/xlink" preserveAspectRatio="none"><defs></defs><style>.companyName {fill:#1E1E1E;fill-opacity:1;}.icon1 {fill:#F56E56;fill-opacity:1;}.icon2 {fill:#1E1E1E;fill-opacity:1;}.icon3 {fill:#D0D0D0;fill-opacity:1;}.icon3-str {stroke:#D0D0D0;stroke-opacity:1;}.text {fill:#1e1e1e;fill-opacity:1;}</style><g opacity="1" transform="rotate(0 61.9222 509.4772)">
<svg width="441.8121" height="22.8" x="61.9222" y="509.4772" version="1.1" preserveAspectRatio="none" viewBox="2.08 -29.68 729.28 37.64">
  <g transform="matrix(1 0 0 1 0 0)" class="text"><path id="id-6izo4zJp30" d="M16.72 0.24Q12.56 0.24 9.22-1.60Q5.88-3.44 3.98-6.70Q2.08-9.96 2.08-14L2.08-14Q2.08-18.04 3.98-21.30Q5.88-24.56 9.24-26.40Q12.60-28.24 16.76-28.24L16.76-28.24Q19.88-28.24 22.52-27.20Q25.16-26.16 27-24.16L27-24.16L25.12-22.28Q21.84-25.60 16.84-25.60L16.84-25.60Q13.52-25.60 10.80-24.08Q8.08-22.56 6.54-19.92Q5-17.28 5-14L5-14Q5-10.72 6.54-8.08Q8.08-5.44 10.80-3.92Q13.52-2.40 16.84-2.40L16.84-2.40Q21.88-2.40 25.12-5.76L25.12-5.76L27-3.88Q25.16-1.88 22.50-0.82Q19.84 0.24 16.72 0.24L16.72 0.24Z M41.60 0.20Q38.56 0.20 36.12-1.18Q33.68-2.56 32.28-5Q30.88-7.44 30.88-10.52L30.88-10.52Q30.88-13.60 32.28-16.04Q33.68-18.48 36.12-19.84Q38.56-21.20 41.60-21.20L41.60-21.20Q44.64-21.20 47.08-19.84Q49.52-18.48 50.90-16.04Q52.28-13.60 52.28-10.52L52.28-10.52Q52.28-7.44 50.90-5Q49.52-2.56 47.08-1.18Q44.64 0.20 41.60 0.20L41.60 0.20ZM41.60-2.32Q43.84-2.32 45.62-3.34Q47.40-4.36 48.40-6.24Q49.40-8.12 49.40-10.52L49.40-10.52Q49.40-12.92 48.40-14.80Q47.40-16.68 45.62-17.70Q43.84-18.72 41.60-18.72L41.60-18.72Q39.36-18.72 37.58-17.70Q35.80-16.68 34.78-14.80Q33.76-12.92 33.76-10.52L33.76-10.52Q33.76-8.12 34.78-6.24Q35.80-4.36 37.58-3.34Q39.36-2.32 41.60-2.32L41.60-2.32Z M85.52-21.20Q89.48-21.20 91.74-18.92Q94-16.64 94-12.20L94-12.20L94 0L91.16 0L91.16-11.92Q91.16-15.20 89.58-16.92Q88-18.64 85.12-18.64L85.12-18.64Q81.84-18.64 79.96-16.62Q78.08-14.60 78.08-11.04L78.08-11.04L78.08 0L75.24 0L75.24-11.92Q75.24-15.20 73.66-16.92Q72.08-18.64 69.16-18.64L69.16-18.64Q65.92-18.64 64.02-16.62Q62.12-14.60 62.12-11.04L62.12-11.04L62.12 0L59.28 0L59.28-21.04L62.00-21.04L62.00-17.20Q63.12-19.12 65.12-20.16Q67.12-21.20 69.72-21.20L69.72-21.20Q72.36-21.20 74.30-20.08Q76.24-18.96 77.20-16.76L77.20-16.76Q78.36-18.84 80.54-20.02Q82.72-21.20 85.52-21.20L85.52-21.20Z M129.16-21.20Q133.12-21.20 135.38-18.92Q137.64-16.64 137.64-12.20L137.64-12.20L137.64 0L134.80 0L134.80-11.92Q134.80-15.20 133.22-16.92Q131.64-18.64 128.76-18.64L128.76-18.64Q125.48-18.64 123.60-16.62Q121.72-14.60 121.72-11.04L121.72-11.04L121.72 0L118.88 0L118.88-11.92Q118.88-15.20 117.30-16.92Q115.72-18.64 112.80-18.64L112.80-18.64Q109.56-18.64 107.66-16.62Q105.76-14.60 105.76-11.04L105.76-11.04L105.76 0L102.92 0L102.92-21.04L105.64-21.04L105.64-17.20Q106.76-19.12 108.76-20.16Q110.76-21.20 113.36-21.20L113.36-21.20Q116-21.20 117.94-20.08Q119.88-18.96 120.84-16.76L120.84-16.76Q122-18.84 124.18-20.02Q126.36-21.20 129.16-21.20L129.16-21.20Z M162.68-21.04L165.52-21.04L165.52 0L162.80 0L162.80-3.84Q161.68-1.92 159.72-0.86Q157.76 0.20 155.24 0.20L155.24 0.20Q151.12 0.20 148.74-2.10Q146.36-4.40 146.36-8.84L146.36-8.84L146.36-21.04L149.20-21.04L149.20-9.12Q149.20-5.80 150.84-4.08Q152.48-2.36 155.52-2.36L155.52-2.36Q158.84-2.36 160.76-4.38Q162.68-6.40 162.68-10L162.68-10L162.68-21.04Z M185.40-21.20Q189.36-21.20 191.70-18.90Q194.04-16.60 194.04-12.20L194.04-12.20L194.04 0L191.20 0L191.20-11.92Q191.20-15.20 189.56-16.92Q187.92-18.64 184.88-18.64L184.88-18.64Q181.48-18.64 179.50-16.62Q177.52-14.60 177.52-11.04L177.52-11.04L177.52 0L174.68 0L174.68-21.04L177.40-21.04L177.40-17.16Q178.56-19.08 180.62-20.14Q182.68-21.20 185.40-21.20L185.40-21.20Z M202.96 0L202.96-21.04L205.80-21.04L205.80 0L202.96 0ZM204.40-25.64Q203.52-25.64 202.92-26.24Q202.32-26.84 202.32-27.68L202.32-27.68Q202.32-28.48 202.92-29.08Q203.52-29.68 204.40-29.68L204.40-29.68Q205.28-29.68 205.88-29.10Q206.48-28.52 206.48-27.72L206.48-27.72Q206.48-26.84 205.88-26.24Q205.28-25.64 204.40-25.64L204.40-25.64Z M225.00-3.32L226.00-1.28Q225.20-0.56 224.02-0.18Q222.84 0.20 221.56 0.20L221.56 0.20Q218.60 0.20 217.00-1.40Q215.40-3 215.40-5.92L215.40-5.92L215.40-18.64L211.64-18.64L211.64-21.04L215.40-21.04L215.40-25.64L218.24-25.64L218.24-21.04L224.64-21.04L224.64-18.64L218.24-18.64L218.24-6.08Q218.24-4.20 219.18-3.22Q220.12-2.24 221.88-2.24L221.88-2.24Q222.76-2.24 223.58-2.52Q224.40-2.80 225.00-3.32L225.00-3.32Z M246.84-21.04L249.64-21.04L239.12 2.52Q237.84 5.48 236.16 6.72Q234.48 7.96 232.12 7.96L232.12 7.96Q230.60 7.96 229.28 7.48Q227.96 7 227.00 6.04L227.00 6.04L228.32 3.92Q229.92 5.52 232.16 5.52L232.16 5.52Q233.60 5.52 234.62 4.72Q235.64 3.92 236.52 2L236.52 2L237.44-0.04L228.04-21.04L231.00-21.04L238.92-3.16L246.84-21.04Z M267.12 7.76L267.12-29.68L269.76-29.68L269.76 7.76L267.12 7.76Z M299.84-4.56L299.84-14L302.68-14L302.68-3.32Q300.72-1.60 298.04-0.68Q295.36 0.24 292.40 0.24L292.40 0.24Q288.20 0.24 284.84-1.60Q281.48-3.44 279.56-6.70Q277.64-9.96 277.64-14L277.64-14Q277.64-18.04 279.56-21.30Q281.48-24.56 284.84-26.40Q288.20-28.24 292.44-28.24L292.44-28.24Q295.64-28.24 298.32-27.22Q301.00-26.20 302.84-24.20L302.84-24.20L301.00-22.32Q297.68-25.60 292.56-25.60L292.56-25.60Q289.16-25.60 286.42-24.10Q283.68-22.60 282.12-19.94Q280.56-17.28 280.56-14L280.56-14Q280.56-10.72 282.12-8.08Q283.68-5.44 286.40-3.92Q289.12-2.40 292.52-2.40L292.52-2.40Q296.84-2.40 299.84-4.56L299.84-4.56Z M319.00-21.20Q323.12-21.20 325.32-19.14Q327.52-17.08 327.52-13.04L327.52-13.04L327.52 0L324.80 0L324.80-3.28Q323.84-1.64 321.98-0.72Q320.12 0.20 317.56 0.20L317.56 0.20Q314.04 0.20 311.96-1.48Q309.88-3.16 309.88-5.92L309.88-5.92Q309.88-8.60 311.82-10.24Q313.76-11.88 318.00-11.88L318.00-11.88L324.68-11.88L324.68-13.16Q324.68-15.88 323.16-17.30Q321.64-18.72 318.72-18.72L318.72-18.72Q316.72-18.72 314.88-18.06Q313.04-17.40 311.72-16.24L311.72-16.24L310.44-18.36Q312.04-19.72 314.28-20.46Q316.52-21.20 319.00-21.20L319.00-21.20ZM318.00-2.04Q320.40-2.04 322.12-3.14Q323.84-4.24 324.68-6.32L324.68-6.32L324.68-9.76L318.08-9.76Q312.68-9.76 312.68-6L312.68-6Q312.68-4.16 314.08-3.10Q315.48-2.04 318.00-2.04L318.00-2.04Z M362.68-21.20Q366.64-21.20 368.90-18.92Q371.16-16.64 371.16-12.20L371.16-12.20L371.16 0L368.32 0L368.32-11.92Q368.32-15.20 366.74-16.92Q365.16-18.64 362.28-18.64L362.28-18.64Q359.00-18.64 357.12-16.62Q355.24-14.60 355.24-11.04L355.24-11.04L355.24 0L352.40 0L352.40-11.92Q352.40-15.20 350.82-16.92Q349.24-18.64 346.32-18.64L346.32-18.64Q343.08-18.64 341.18-16.62Q339.28-14.60 339.28-11.04L339.28-11.04L339.28 0L336.44 0L336.44-21.04L339.16-21.04L339.16-17.20Q340.28-19.12 342.28-20.16Q344.28-21.20 346.88-21.20L346.88-21.20Q349.52-21.20 351.46-20.08Q353.40-18.96 354.36-16.76L354.36-16.76Q355.52-18.84 357.70-20.02Q359.88-21.20 362.68-21.20L362.68-21.20Z M380.08 0L380.08-21.04L382.92-21.04L382.92 0L380.08 0ZM381.52-25.64Q380.64-25.64 380.04-26.24Q379.44-26.84 379.44-27.68L379.44-27.68Q379.44-28.48 380.04-29.08Q380.64-29.68 381.52-29.68L381.52-29.68Q382.40-29.68 383.00-29.10Q383.60-28.52 383.60-27.72L383.60-27.72Q383.60-26.84 383.00-26.24Q382.40-25.64 381.52-25.64L381.52-25.64Z M402.76-21.20Q406.72-21.20 409.06-18.90Q411.40-16.60 411.40-12.20L411.40-12.20L411.40 0L408.56 0L408.56-11.92Q408.56-15.20 406.92-16.92Q405.28-18.64 402.24-18.64L402.24-18.64Q398.84-18.64 396.86-16.62Q394.88-14.60 394.88-11.04L394.88-11.04L394.88 0L392.04 0L392.04-21.04L394.76-21.04L394.76-17.16Q395.92-19.08 397.98-20.14Q400.04-21.20 402.76-21.20L402.76-21.20Z M437.16-21.04L439.88-21.04L439.88-2.56Q439.88 2.80 437.26 5.38Q434.64 7.96 429.36 7.96L429.36 7.96Q426.44 7.96 423.82 7.10Q421.20 6.24 419.56 4.72L419.56 4.72L421.00 2.56Q422.52 3.92 424.70 4.68Q426.88 5.44 429.28 5.44L429.28 5.44Q433.28 5.44 435.16 3.58Q437.04 1.72 437.04-2.20L437.04-2.20L437.04-4.88Q435.72-2.88 433.58-1.84Q431.44-0.80 428.84-0.80L428.84-0.80Q425.88-0.80 423.46-2.10Q421.04-3.40 419.66-5.74Q418.28-8.08 418.28-11.04L418.28-11.04Q418.28-14 419.66-16.32Q421.04-18.64 423.44-19.92Q425.84-21.20 428.84-21.20L428.84-21.20Q431.52-21.20 433.68-20.12Q435.84-19.04 437.16-17L437.16-17L437.16-21.04ZM429.12-3.32Q431.40-3.32 433.24-4.30Q435.08-5.28 436.10-7.04Q437.12-8.80 437.12-11.04L437.12-11.04Q437.12-13.28 436.10-15.02Q435.08-16.76 433.26-17.74Q431.44-18.72 429.12-18.72L429.12-18.72Q426.84-18.72 425.02-17.76Q423.20-16.80 422.18-15.04Q421.16-13.28 421.16-11.04L421.16-11.04Q421.16-8.80 422.18-7.04Q423.20-5.28 425.02-4.30Q426.84-3.32 429.12-3.32L429.12-3.32Z M468.08-21.20Q472.20-21.20 474.40-19.14Q476.60-17.08 476.60-13.04L476.60-13.04L476.60 0L473.88 0L473.88-3.28Q472.92-1.64 471.06-0.72Q469.20 0.20 466.64 0.20L466.64 0.20Q463.12 0.20 461.04-1.48Q458.96-3.16 458.96-5.92L458.96-5.92Q458.96-8.60 460.90-10.24Q462.84-11.88 467.08-11.88L467.08-11.88L473.76-11.88L473.76-13.16Q473.76-15.88 472.24-17.30Q470.72-18.72 467.80-18.72L467.80-18.72Q465.80-18.72 463.96-18.06Q462.12-17.40 460.80-16.24L460.80-16.24L459.52-18.36Q461.12-19.72 463.36-20.46Q465.60-21.20 468.08-21.20L468.08-21.20ZM467.08-2.04Q469.48-2.04 471.20-3.14Q472.92-4.24 473.76-6.32L473.76-6.32L473.76-9.76L467.16-9.76Q461.76-9.76 461.76-6L461.76-6Q461.76-4.16 463.16-3.10Q464.56-2.04 467.08-2.04L467.08-2.04Z M496.24-21.20Q500.20-21.20 502.54-18.90Q504.88-16.60 504.88-12.20L504.88-12.20L504.88 0L502.04 0L502.04-11.92Q502.04-15.20 500.40-16.92Q498.76-18.64 495.72-18.64L495.72-18.64Q492.32-18.64 490.34-16.62Q488.36-14.60 488.36-11.04L488.36-11.04L488.36 0L485.52 0L485.52-21.04L488.24-21.04L488.24-17.16Q489.40-19.08 491.46-20.14Q493.52-21.20 496.24-21.20L496.24-21.20Z M530.24-29.68L533.08-29.68L533.08 0L530.36 0L530.36-4.16Q529.08-2.04 526.98-0.92Q524.88 0.20 522.24 0.20L522.24 0.20Q519.28 0.20 516.88-1.16Q514.48-2.52 513.12-4.96Q511.76-7.40 511.76-10.52L511.76-10.52Q511.76-13.64 513.12-16.08Q514.48-18.52 516.88-19.86Q519.28-21.20 522.24-21.20L522.24-21.20Q524.80-21.20 526.86-20.14Q528.92-19.08 530.24-17.04L530.24-17.04L530.24-29.68ZM522.48-2.32Q524.68-2.32 526.46-3.34Q528.24-4.36 529.26-6.24Q530.28-8.12 530.28-10.52L530.28-10.52Q530.28-12.92 529.26-14.80Q528.24-16.68 526.46-17.70Q524.68-18.72 522.48-18.72L522.48-18.72Q520.24-18.72 518.46-17.70Q516.68-16.68 515.66-14.80Q514.64-12.92 514.64-10.52L514.64-10.52Q514.64-8.12 515.66-6.24Q516.68-4.36 518.46-3.34Q520.24-2.32 522.48-2.32L522.48-2.32Z M562.60 0.20Q559.48 0.20 557.02-1.16Q554.56-2.52 553.16-4.98Q551.76-7.44 551.76-10.52L551.76-10.52Q551.76-13.60 553.16-16.04Q554.56-18.48 557.02-19.84Q559.48-21.20 562.60-21.20L562.60-21.20Q565.32-21.20 567.46-20.14Q569.60-19.08 570.84-17.04L570.84-17.04L568.72-15.60Q567.68-17.16 566.08-17.94Q564.48-18.72 562.60-18.72L562.60-18.72Q560.32-18.72 558.50-17.70Q556.68-16.68 555.66-14.80Q554.64-12.92 554.64-10.52L554.64-10.52Q554.64-8.08 555.66-6.22Q556.68-4.36 558.50-3.34Q560.32-2.32 562.60-2.32L562.60-2.32Q564.48-2.32 566.08-3.08Q567.68-3.84 568.72-5.40L568.72-5.40L570.84-3.96Q569.60-1.92 567.44-0.86Q565.28 0.20 562.60 0.20L562.60 0.20Z M585.84 0.20Q582.80 0.20 580.36-1.18Q577.92-2.56 576.52-5Q575.12-7.44 575.12-10.52L575.12-10.52Q575.12-13.60 576.52-16.04Q577.92-18.48 580.36-19.84Q582.80-21.20 585.84-21.20L585.84-21.20Q588.88-21.20 591.32-19.84Q593.76-18.48 595.14-16.04Q596.52-13.60 596.52-10.52L596.52-10.52Q596.52-7.44 595.14-5Q593.76-2.56 591.32-1.18Q588.88 0.20 585.84 0.20L585.84 0.20ZM585.84-2.32Q588.08-2.32 589.86-3.34Q591.64-4.36 592.64-6.24Q593.64-8.12 593.64-10.52L593.64-10.52Q593.64-12.92 592.64-14.80Q591.64-16.68 589.86-17.70Q588.08-18.72 585.84-18.72L585.84-18.72Q583.60-18.72 581.82-17.70Q580.04-16.68 579.02-14.80Q578-12.92 578-10.52L578-10.52Q578-8.12 579.02-6.24Q580.04-4.36 581.82-3.34Q583.60-2.32 585.84-2.32L585.84-2.32Z M619.88-29.68L622.72-29.68L622.72 0L620.00 0L620.00-4.16Q618.72-2.04 616.62-0.92Q614.52 0.20 611.88 0.20L611.88 0.20Q608.92 0.20 606.52-1.16Q604.12-2.52 602.76-4.96Q601.40-7.40 601.40-10.52L601.40-10.52Q601.40-13.64 602.76-16.08Q604.12-18.52 606.52-19.86Q608.92-21.20 611.88-21.20L611.88-21.20Q614.44-21.20 616.50-20.14Q618.56-19.08 619.88-17.04L619.88-17.04L619.88-29.68ZM612.12-2.32Q614.32-2.32 616.10-3.34Q617.88-4.36 618.90-6.24Q619.92-8.12 619.92-10.52L619.92-10.52Q619.92-12.92 618.90-14.80Q617.88-16.68 616.10-17.70Q614.32-18.72 612.12-18.72L612.12-18.72Q609.88-18.72 608.10-17.70Q606.32-16.68 605.30-14.80Q604.28-12.92 604.28-10.52L604.28-10.52Q604.28-8.12 605.30-6.24Q606.32-4.36 608.10-3.34Q609.88-2.32 612.12-2.32L612.12-2.32Z M650.20-10.52L650.16-9.64L632.56-9.64Q632.80-6.36 635.08-4.34Q637.36-2.32 640.84-2.32L640.84-2.32Q642.80-2.32 644.44-3.02Q646.08-3.72 647.28-5.08L647.28-5.08L648.88-3.24Q647.48-1.56 645.38-0.68Q643.28 0.20 640.76 0.20L640.76 0.20Q637.52 0.20 635.02-1.18Q632.52-2.56 631.12-5Q629.72-7.44 629.72-10.52L629.72-10.52Q629.72-13.60 631.06-16.04Q632.40-18.48 634.74-19.84Q637.08-21.20 640.00-21.20L640.00-21.20Q642.92-21.20 645.24-19.84Q647.56-18.48 648.88-16.06Q650.20-13.64 650.20-10.52L650.20-10.52ZM640.00-18.76Q636.96-18.76 634.90-16.82Q632.84-14.88 632.56-11.76L632.56-11.76L647.48-11.76Q647.20-14.88 645.14-16.82Q643.08-18.76 640.00-18.76L640.00-18.76Z M657.80 7.76L657.80-29.68L660.44-29.68L660.44 7.76L657.80 7.76Z M701.68-25.44L685.44-25.44L685.44-14.44L699.92-14.44L699.92-11.88L685.44-11.88L685.44 0L682.48 0L682.48-28L701.68-28L701.68-25.44Z M731.36 0L728.12 0L721.72-9Q720.64-8.88 719.48-8.88L719.48-8.88L711.96-8.88L711.96 0L709.00 0L709.00-28L719.48-28Q724.84-28 727.88-25.44Q730.92-22.88 730.92-18.40L730.92-18.40Q730.92-15.12 729.26-12.86Q727.60-10.60 724.52-9.60L724.52-9.60L731.36 0ZM719.40-11.40Q723.56-11.40 725.76-13.24Q727.96-15.08 727.96-18.40L727.96-18.40Q727.96-21.80 725.76-23.62Q723.56-25.44 719.40-25.44L719.40-25.44L711.96-25.44L711.96-11.40L719.40-11.40Z"/></g>
</svg>
</g><g opacity="1" transform="rotate(0 108.067 425.4772)">
<svg width="349.5225" height="60" x="108.067" y="425.4772" version="1.1" preserveAspectRatio="none" viewBox="3.28 -26.8 156.12 26.8">
  <g transform="matrix(1 0 0 1 0 0)" class="companyName"><path id="id-D6z1nYkh7" d="M19.24-11.72L19.24-11.72L19.24-21.28Q19.24-22.08 19.02-22.30Q18.80-22.52 18-22.52L18-22.52L9.76-22.52L9.76-10.48L18-10.48Q18.80-10.48 19.02-10.72Q19.24-10.96 19.24-11.72ZM3.28 0L3.28-24.88L22.52-24.88Q25.68-24.88 25.68-21.72L25.68-21.72L25.68-11.28Q25.68-8.12 22.52-8.12L22.52-8.12L9.76-8.12L9.76 0L3.28 0Z M36.92-19.40L36.92 0L30.72 0L30.72-19.40L36.92-19.40ZM37.04-22.64L30.60-22.64L30.60-26.80L37.04-26.80L37.04-22.64Z M49.24 0L43.04 0L43.04-26.76L49.24-26.76L49.24 0ZM58.12-19.40L64.88-19.40L56.44-9.80L64.88 0L58.08 0L49.92-9.80L58.12-19.40Z M75.72-2.36L75.72-2.36L81.12-2.36Q82.56-2.36 82.56-3.64L82.56-3.64L82.56-15.76Q82.56-17.04 81.12-17.04L81.12-17.04L75.72-17.04Q74.92-17.04 74.70-16.80Q74.48-16.56 74.48-15.80L74.48-15.80L74.48-3.60Q74.48-2.80 74.70-2.58Q74.92-2.36 75.72-2.36ZM82.56-18.08L82.56-19.40L88.72-19.40L88.72 0L82.56 0L82.56-1.32Q82.08 0 80.28 0L80.28 0L71.48 0Q68.32 0 68.32-3.16L68.32-3.16L68.32-16.24Q68.32-19.40 71.48-19.40L71.48-19.40L80.28-19.40Q82.08-19.40 82.56-18.08L82.56-18.08Z M108.72-8.24L108.72 0L102.28 0L102.28-8.12L91.92-24.88L98.32-24.88L105.44-11.92L112.20-24.88L118.56-24.88L108.72-8.24Z M135.72-3.64L135.72-19.40L141.88-19.40L141.88 0L135.72 0L135.72-1.32Q135.24 0 133.44 0L133.44 0L124.64 0Q121.48 0 121.48-3.16L121.48-3.16L121.48-19.40L127.64-19.40L127.64-3.60Q127.64-2.80 127.86-2.58Q128.08-2.36 128.88-2.36L128.88-2.36L134.28-2.36Q135.72-2.36 135.72-3.64L135.72-3.64Z M159.40-19.40L159.40-17.04L155.12-17.04L155.12-3.72Q155.12-2.96 155.34-2.72Q155.56-2.48 156.36-2.48L156.36-2.48L159.36-2.48L159.36 0L152.08 0Q148.92 0 148.92-3.16L148.92-3.16L148.92-17.04L145.80-17.04L145.80-19.40L148.92-19.40L148.92-23.52L155.12-23.52L155.12-19.40L159.40-19.40Z"/></g>
</svg>
</g><g opacity="1" transform="rotate(0 233.8951 246.9634)">
<svg width="97.8663" height="138.5138" x="233.8951" y="246.9634" version="1.1" preserveAspectRatio="none" viewBox="64.4957046508789 49.749000549316406 71.00859832763672 100.5009994506836">
  <g transform="matrix(1 0 0 1 0 0)" ><g><path data-color="1" d="M130.383 60.265c0 5.808-4.708 10.516-10.516 10.516s-10.516-4.708-10.516-10.516 4.708-10.516 10.516-10.516 10.516 4.708 10.516 10.516z" class="icon1"></path><path data-color="2" d="M119.867 79.28c-11.223 0-28.714 70.97 0 70.97s11.223-70.97 0-70.97z" class="icon2"></path><path data-color="2" d="M80.133 149.44c-11.223 0-28.714-99.691 0-99.691s11.222 99.691 0 99.691z" class="icon2"></path></g></g>
</svg>
</g></svg></svg>