<svg version="1.1" preserveAspectRatio="none" xmlns="http://www.w3.org/2000/svg" width="500" height="500" viewBox="0 0 500 500"><rect width="100%" height="100%" fill="#87A3B5" fill-opacity="1"/><svg viewBox="811.6478 597.581 411.0357 323.858" width="333" height="262.3731077373571" x="83.5px" y="118.8134px" xmlns="http://www.w3.org/2000/svg" xmlns:xlink="http://www.w3.org/1999/xlink" preserveAspectRatio="none"><defs></defs><style>.companyName {fill:#FFE7D6;fill-opacity:1;}.icon1 {fill:#FFE7D6;fill-opacity:1;}.icon2 {fill:#364C63;fill-opacity:1;}.icon3 {fill:#F3B340;fill-opacity:1;}.icon3-str {stroke:#F3B340;stroke-opacity:1;}.text {fill:#FFE7D6;fill-opacity:1;}</style><g opacity="1" transform="rotate(0 961.5608 597.581)">
<svg width="111.2097" height="129.858" x="961.5608" y="597.581" version="1.1" preserveAspectRatio="none" viewBox="12.174369812011719 5.838470935821533 75.63947296142578 88.32301330566406">
  <g transform="matrix(1 0 0 1 0 0)" class="icon1"><title>crystal-01-01-01-01-01-01-01-01-01-01-01-01</title><g><path d="M52.43187,94.16148c-2.61911-1.509-5.37983-2.97585-8.01288-4.64436-4.41021-2.79464-8.71522-5.755-13.1189-8.56022a6.49276,6.49276,0,0,1-2.33174-2.65229c-2.43772-4.70443-4.92708-9.38209-7.36068-14.08858-0.81044-1.56727-1.48723-3.203-2.26559-4.78759-2.15622-4.38946-4.28857-8.79175-6.52694-13.13926A4.67368,4.67368,0,0,1,12.7,41.77384c1.41985-3.13259,2.44653-6.44081,3.76565-9.62254,0.91736-2.21272,2.1102-4.31,3.07028-6.50669,0.99059-2.26654,1.8485-4.59109,2.74873-6.85083,1.98693-.78812,4.04158-1.48143,5.9907-2.399,5.92148-2.78744,12.21443-4.47876,18.45227-6.31342,5.00389-1.47184,10.07678-2.70924,15.1195-4.04916,1.572-.41766,1.96641-0.23086,2.94345,1.265,1.0071,1.54172,1.73778,3.49893,3.1429,4.48857,1.92106,1.35314,1.63749,4.20874,3.98218,5.035,3.85484,6.2799,7.65909,12.59164,11.58688,18.82558A23.36038,23.36038,0,0,1,86.80537,45.012c0.23655,1.66175.90113,3.27883,1.00275,4.93869A15.345,15.345,0,0,1,87.2628,54.445c-0.87525,3.57936-1.89,7.12458-2.84857,10.68358a0.8978,0.8978,0,0,0-.058.23348c0.07245,4.12976-1.96992,7.32047-4.466,10.36286a32.386,32.386,0,0,0-2.06987,3.49447,3.31768,3.31768,0,0,1-1.09473,1.16205c-6.82857,3.73866-13.687,7.42282-20.5106,11.17051C55.034,92.20054,53.98129,93.0826,52.43187,94.16148ZM79.68354,66.85617c0.68621,0.50757,1.37238,1.01519,2.23,1.64948,0.24173-.75851.43566-1.26256,0.56228-1.783,0.47182-1.93947.88942-3.89266,1.38761-5.82515,0.63736-2.47236,1.43552-4.90762,1.9702-7.40056a10.30434,10.30434,0,0,0-.5495-5.67171,61.14422,61.14422,0,0,0-1.926,7.19921c-0.732,3.35569-1.39961,6.72594-2.17246,10.072-0.17932.77647-.22427,1.87-1.52042,1.78385a3.09326,3.09326,0,0,1-.00212-0.72119c1.47942-6.33395,2.75844-12.72568,4.54184-18.97333,0.97687-3.42218-.00039-6.29786-1.15223-9.27288A29.17713,29.17713,0,0,0,81.076,34.44757c-0.53825,1.88726-.97788,3.16667-1.2644,4.47948Q78.117,46.69142,76.50788,54.47447c-0.40851,1.96423-.758,3.94152-1.09584,5.91941a3.30846,3.30846,0,0,0,1.60341,3.39942c0.88785-4.23814,1.76031-8.149,2.51536-12.08246,0.68149-3.55024,1.22441-7.12687,1.85234-10.68771,0.1308-.74161.10782-1.62182,1.09663-1.92246a1.448,1.448,0,0,1,.50417,2.10211,9.83851,9.83851,0,0,0-.92283,2.39684c-1.11007,5.67634-2.16754,11.36294-3.229,17.0487-0.19131,1.02479-.33081,2.05955-0.48007,3.09176A2.96579,2.96579,0,0,0,79.68354,66.85617Zm-40.307-36.595c-0.51359.04351-.915,0.06838-1.31415,0.11267-2.63166.29194-2.88288,0.54762-3.3045,3.21759-0.16281,1.03131-.38006,2.05387-0.55743,3.08306-0.81662,4.73979-2.01191,9.43753-1.46542,14.32323a20.47363,20.47363,0,0,1-.02421,2.89286C32.47,61.59978,32.25778,69.31023,31.9529,77.017a4.05522,4.05522,0,0,0,2.1768,3.9414c2.25042,1.39983,4.41277,2.94038,6.64786,4.36575,2.91165,1.85669,5.86726,3.64434,8.78561,5.49071a4.02714,4.02714,0,0,0,4.923-.17715A37.50373,37.50373,0,0,1,58.14274,88.331C63.622,85.30136,69.103,82.27357,74.63128,79.3352a2.9253,2.9253,0,0,0,1.76025-2.60182c0.21374-2.72307.55459-5.43761,0.70251-8.16325a4.464,4.464,0,0,0-.69475-2.189c-0.99863-1.82574-2.11037-3.58917-3.14765-5.39433q-2.87356-5.00074-5.71254-10.0214c-1.94-3.41521-3.94944-6.794-5.78516-10.26458-1.57541-2.97836-2.96826-6.0545-4.40139-9.10644a2.54445,2.54445,0,0,0-2.70884-1.5188C49.51832,30.1879,44.40388,31.22256,39.37656,30.2612ZM24.72709,19.74974a2.22,2.22,0,0,0,.27543.55386c2.87752,2.672,5.7397,5.36165,8.669,7.97612a3.23716,3.23716,0,0,0,1.92508.76369c3.83677,0.08238,7.67727.12907,11.5137,0.04959,3.1882-.0661,6.37243-0.32272,9.43385-0.48821,1.29045-2.91918,4.78486-18.72741,4.5714-20.43368C54.402,8.56456,33.19343,15.29486,24.72709,19.74974ZM13.625,44.36327c1.08391,2.3043,2,4.41623,3.05751,6.4547,1.10248,2.1252,2.34128,4.17963,3.50234,6.23282,0.69726,0.1086,1.373.21385,2.46186,0.38346-0.68628.83966-1.13734,1.39163-1.72746,2.11366,2.99961,5.53734,6.03615,11.14284,9.07264,16.74835a5.54306,5.54306,0,0,0,.1352-2.50727,2.31,2.31,0,0,1-.16806-0.87832c1.1654-2.67276.80034-5.4998,0.85941-8.27581,0.121-5.69012-.0261-11.39512.34236-17.06767,0.26912-4.14192,1.19156-8.241,1.80974-12.361,0.12209-.8135.18489-1.63593,0.29159-2.604a36.89351,36.89351,0,0,0-10.02351,6.61919c-0.7429.78266-1.34283,1.90717-2.78483,1.31a1.296,1.296,0,0,0-.89187.264C17.64451,41.92957,15.74114,43.08738,13.625,44.36327ZM71.351,19.95082a10.947,10.947,0,0,0-.439,1.03661A190.33245,190.33245,0,0,0,65.43671,42.5918a4.16708,4.16708,0,0,0,1.4966,3.98709c0.23772-.72192.4731-1.28928,0.61048-1.87945,0.56262-2.417,1.09462-4.84114,1.63923-7.2624,1.105-4.91248,2.17567-9.8331,3.34158-14.73113A2.13562,2.13562,0,0,0,71.351,19.95082Zm2.308,3.43133c-0.225.69877-.43405,1.22173-0.56167,1.76388-1.1379,4.83439-2.288,9.66621-3.37812,14.51142-0.54515,2.42316-1.0288,4.86356-1.43045,7.31422-0.19572,1.19423-.42385,2.51932,1.05853,3.40444,0.42223-1.83171.77223-3.55627,1.22012-5.25511,1.51082-5.73111,3.00632-11.46719,4.61781-17.17024A3.77805,3.77805,0,0,0,73.659,23.38214ZM72.23823,55.256a8.00774,8.00774,0,0,0,.46886-1.11671q2.42754-11.02714,4.82134-22.06163a9.78081,9.78081,0,0,0,.24464-2.62368,7.55286,7.55286,0,0,0-.915-2.003,22.07237,22.07237,0,0,0-.93342,2.22884c-1.15452,4.25515-2.34876,8.5016-3.38838,12.78525-0.6971,2.87244-1.1176,5.81087-1.74726,8.70122A4.13949,4.13949,0,0,0,72.23823,55.256Zm-3.28508-38.7831a12.61424,12.61424,0,0,0-1.20561,2.29086,137.12451,137.12451,0,0,0-4.40279,20.46257,2.39439,2.39439,0,0,0,.87837,2.54007,4.13976,4.13976,0,0,0,.38915-0.79844,216.29855,216.29855,0,0,1,5.57706-21.68782C70.55345,18.07555,70.14867,17.29016,68.95315,16.47292Zm9.956,15.05608c-0.18457.54131-.34252,0.90659-0.43405,1.28777C77.31324,37.65741,76.081,42.48315,75.03566,47.349c-0.63976,2.97808-1.03428,6.0125-1.43777,9.03515a10.21793,10.21793,0,0,0,.26327,2.45613,46.05,46.05,0,0,0,2.452-8.13436C77.529,45.13623,78.6757,39.55147,79.856,33.974A1.86133,1.86133,0,0,0,78.90918,31.529ZM61.75271,37.46554l0.39373,0.00474c0.09872-.37131.21174-0.73949,0.29405-1.11436,1.54881-7.05051,2.83536-14.168,5.28808-20.98888,0.34281-.95328-0.014-1.50893-0.91474-2.10094a63.77048,63.77048,0,0,0-2.01778,6.15183c-1.1514,5.16827-2.14913,10.37168-3.14157,15.57374A10.74754,10.74754,0,0,0,61.75271,37.46554Zm3.67992-26.07231c-2.347,2.13156-6.09662,18.44056-4.94019,21.983C62.17517,25.88841,63.79325,18.688,65.43264,11.39322ZM81.31947,70.59488c-0.86-.6049-1.47235-1.03577-2.45083-1.72411-0.2201,1.93071-.39764,3.48777-0.57512,5.04483l0.54511,0.18618C79.59328,73.035,80.34788,71.96827,81.31947,70.59488ZM63.76408,9.16294l-0.601-.1564-1.29447,5.12314,0.39251,0.098Q63.01259,11.69531,63.76408,9.16294ZM59.41523,26.66081l-0.55754-.06108-0.32562,3.439,0.35413,0.03614Q59.15065,28.36783,59.41523,26.66081Zm1.45309-6.72053L60.483,19.85181q-0.28063,1.30877-.56118,2.61754l0.29495,0.064Z"></path><path d="M23.15274,61.00849c1.18988-.63976,2.37976-1.27957,3.91552-2.10535-0.36295,1.06829-.62181,1.83031-0.91235,2.68565-0.98273-.05812-1.9292-0.11406-2.87568-0.17006Z"></path><path d="M29.455,69.0149c0.2318,1.09819.39713,1.88146,0.61554,2.91651a3.09333,3.09333,0,0,1-1.14772-.2419C28.7231,70.89452,27.93246,69.99272,29.455,69.0149Z"></path><path d="M24.40609,50.36378l1.83059-.82371c-0.45313,1.215-.7502,1.73527-1.57123,1.438Z"></path><path d="M20.45169,52.02041a1.77729,1.77729,0,0,1,.27955.84161,1.15478,1.15478,0,0,1-.6682.75259,0.95736,0.95736,0,0,1-.76632-0.57779,2.37557,2.37557,0,0,1,.44677-1.00861Q20.09757,52.02428,20.45169,52.02041Z"></path><path d="M27.46,43.77684c0.32607,0.27587.591,0.5,0.85589,0.7242a2.171,2.171,0,0,1-.51616.51733,2.68365,2.68365,0,0,1-.77931-0.654A3.758,3.758,0,0,1,27.46,43.77684Z"></path><path d="M17.17119,46.21952l-2.044-.55961C16.5587,45.139,16.5587,45.139,17.17119,46.21952Z"></path><path d="M26.36062,66.77708q0.65359,0.099,1.30713.1979l-0.19695.79493q-0.635-.19293-1.27015-0.38581Z"></path><path d="M27.80122,47.91524l1.22592,0.14424q-0.09773.40929-.19539,0.81858-0.58574-.17787-1.17148-0.35563Z"></path><path d="M22.79187,53.38259a12.28734,12.28734,0,0,1-1.07075.748,1.71244,1.71244,0,0,1-.39468-0.44192c0.28468-.32417.60774-0.6146,0.922-0.91279Z"></path><path d="M29.95487,56.56292a2.31215,2.31215,0,0,1-.80586.594,1.12041,1.12041,0,0,1-.52921-0.59419,0.66281,0.66281,0,0,1,.39445-0.40215A3.39812,3.39812,0,0,1,29.95487,56.56292Z"></path><path d="M19.77568,49.962a2.53148,2.53148,0,0,1-1.00376.413,1.67884,1.67884,0,0,1-.54962-0.62548,1.76583,1.76583,0,0,1,.71478-0.40583A2.47655,2.47655,0,0,1,19.77568,49.962Z"></path><path d="M24.26855,57.52144q-0.50609-.30145-1.01224-0.60289a1.285,1.285,0,0,1,.24536-0.35329c0.36154,0.1038.70937,0.25523,1.06137,0.39217Z"></path><path d="M26.73756,56.34734c-0.64935-.74551-0.84172-0.96639-1.0341-1.18721a2.78348,2.78348,0,0,1,.84051-0.534,0.97211,0.97211,0,0,1,.48436.65036A3.274,3.274,0,0,1,26.73756,56.34734Z"></path><path d="M29.54882,65.827c-0.39925-.45938-0.62269-0.71651-0.84613-0.97364a1.4422,1.4422,0,0,1,.61605-0.46345,0.93408,0.93408,0,0,1,.62431.53317A2.20945,2.20945,0,0,1,29.54882,65.827Z"></path><path d="M31.24326,37.09484a1.71269,1.71269,0,0,1-.39707-0.649,1.13679,1.13679,0,0,1,.41609-0.42284,0.82536,0.82536,0,0,1,.283.33444A3.09772,3.09772,0,0,1,31.24326,37.09484Z"></path><path d="M30.56122,42.43981a3.97323,3.97323,0,0,1-1.023.3423,1.12365,1.12365,0,0,1-.44409-0.38363,1.56707,1.56707,0,0,1,.58-0.54432A2.44246,2.44246,0,0,1,30.56122,42.43981Z"></path><path d="M29.35086,50.65276a10.31178,10.31178,0,0,1,.26361-1.11057,3.421,3.421,0,0,1,.59184.09588q-0.12341.584-.24676,1.16808Q29.65518,50.72943,29.35086,50.65276Z"></path></g></g>
</svg>
</g><g opacity="1" transform="rotate(0 811.6478 903.439)">
<svg width="411.0357" height="18" x="811.6478" y="903.439" version="1.1" preserveAspectRatio="none" viewBox="2.2 -30.32 907.76 39.760000000000005">
  <g transform="matrix(1 0 0 1 0 0)" class="text"><path id="id-6izo4zJp30" d="M25.60-2.28Q24.32-1.36 22.06-0.52Q19.80 0.32 17.12 0.32L17.12 0.32Q12.60 0.32 9.22-1.66Q5.84-3.64 4.02-6.98Q2.20-10.32 2.20-14.32L2.20-14.32Q2.20-18.68 4.02-22.12Q5.84-25.56 9.10-27.50Q12.36-29.44 16.52-29.44L16.52-29.44Q19.08-29.44 21.26-28.76Q23.44-28.08 25.12-27.04L25.12-27.04L23.28-22.68Q20.04-24.96 16.68-24.96L16.68-24.96Q14.12-24.96 11.90-23.58Q9.68-22.20 8.36-19.82Q7.04-17.44 7.04-14.60L7.04-14.60Q7.04-11.60 8.26-9.22Q9.48-6.84 11.74-5.50Q14-4.16 16.96-4.16L16.96-4.16Q19.08-4.16 20.78-4.80Q22.48-5.44 23.64-6.44L23.64-6.44L25.60-2.28Z M34.80-14.52Q34.80-18.52 36.80-21.94Q38.80-25.36 42.22-27.40Q45.64-29.44 49.68-29.44L49.68-29.44Q53.68-29.44 57.10-27.40Q60.52-25.36 62.56-21.92Q64.60-18.48 64.60-14.52L64.60-14.52Q64.60-10.48 62.58-7.08Q60.56-3.68 57.12-1.68Q53.68 0.32 49.68 0.32L49.68 0.32Q45.64 0.32 42.22-1.66Q38.80-3.64 36.80-7.04Q34.80-10.44 34.80-14.52L34.80-14.52ZM39.60-14.52Q39.60-11.68 40.96-9.32Q42.32-6.96 44.66-5.56Q47-4.16 49.80-4.16L49.80-4.16Q52.56-4.16 54.84-5.54Q57.12-6.92 58.46-9.30Q59.80-11.68 59.80-14.52L59.80-14.52Q59.80-17.36 58.44-19.76Q57.08-22.16 54.76-23.56Q52.44-24.96 49.68-24.96L49.68-24.96Q46.88-24.96 44.58-23.56Q42.28-22.16 40.94-19.76Q39.60-17.36 39.60-14.52L39.60-14.52Z M104.92-30.16L105-30.16L105 0L100.36 0L100.36-16.84L90.16-2.36L90.08-2.36L80.12-16.16L80.12 0L75.60 0L75.60-30.16L75.64-30.16L90.16-9.60L104.92-30.16Z M147.12-30.16L147.20-30.16L147.20 0L142.56 0L142.56-16.84L132.36-2.36L132.28-2.36L122.32-16.16L122.32 0L117.80 0L117.80-30.16L117.84-30.16L132.36-9.60L147.12-30.16Z M164.20-10.48Q164.20-8.80 165.08-7.36Q165.96-5.92 167.48-5.06Q169-4.20 170.80-4.20L170.80-4.20Q172.68-4.20 174.22-5.04Q175.76-5.88 176.64-7.32Q177.52-8.76 177.52-10.48L177.52-10.48L177.52-29.12L182.12-29.12L182.12-10.36Q182.12-7.24 180.62-4.82Q179.12-2.40 176.52-1.04Q173.92 0.32 170.80 0.32L170.80 0.32Q167.68 0.32 165.10-1.04Q162.52-2.40 161.04-4.82Q159.56-7.24 159.56-10.36L159.56-10.36L159.56-29.12L164.20-29.12L164.20-10.48Z M215.52-29.12L220.16-29.12L220.16 1.04L220.04 1.04L199.04-19.32L199.16 0L194.44 0L194.44-30.12L194.68-30.12L215.60-9.52L215.52-29.12Z M233-29.12L237.68-29.12L237.68 0L233 0L233-29.12Z M248.40-29.12L267.88-29.12L267.88-24.64L260.36-24.64L260.36 0L255.72 0L255.72-24.64L248.40-24.64L248.40-29.12Z M296.12-29.12L301.84-29.12L290.92-9.44L290.92 0L286.28 0L286.28-9.44L275.52-29.12L281.24-29.12L288.76-14.76L296.12-29.12Z M328.76-28.44L332.84-28.44L332.84 9.44L328.76 9.44L328.76-28.44Z M368.60-2.68Q367.40-1.56 364.42-0.62Q361.44 0.32 358.96 0.32L358.96 0.32Q354.36 0.32 350.88-1.52Q347.40-3.36 345.52-6.58Q343.64-9.80 343.64-13.88L343.64-13.88Q343.64-18.80 345.66-22.32Q347.68-25.84 351.10-27.64Q354.52-29.44 358.60-29.44L358.60-29.44Q361.12-29.44 363.38-28.86Q365.64-28.28 367.36-27.32L367.36-27.32L365.84-23Q364.64-23.72 362.66-24.24Q360.68-24.76 359.20-24.76L359.20-24.76Q354.20-24.76 351.32-22Q348.44-19.24 348.44-14.28L348.44-14.28Q348.44-11.32 349.78-9.06Q351.12-6.80 353.54-5.56Q355.96-4.32 359.08-4.32L359.08-4.32Q360.48-4.32 361.76-4.58Q363.04-4.84 363.92-5.32L363.92-5.32L363.92-10.16L358.44-10.16L358.44-14.64L368.60-14.64L368.60-2.68Z M398.12 0L395.44-6.84L384.84-6.84L382.04 0L377.44 0L390.32-30.32L390.60-30.32L403.48 0L398.12 0ZM386.48-10.84L393.88-10.84L390.24-20.04L386.48-10.84Z M442.56-30.16L442.64-30.16L442.64 0L438.00 0L438.00-16.84L427.80-2.36L427.72-2.36L417.76-16.16L417.76 0L413.24 0L413.24-30.16L413.28-30.16L427.80-9.60L442.56-30.16Z M455.44-29.12L460.12-29.12L460.12 0L455.44 0L455.44-29.12Z M494.00-29.12L498.64-29.12L498.64 1.04L498.52 1.04L477.52-19.32L477.64 0L472.92 0L472.92-30.12L473.16-30.12L494.08-9.52L494.00-29.12Z M534.64-2.68Q533.44-1.56 530.46-0.62Q527.48 0.32 525.00 0.32L525.00 0.32Q520.40 0.32 516.92-1.52Q513.44-3.36 511.56-6.58Q509.68-9.80 509.68-13.88L509.68-13.88Q509.68-18.80 511.70-22.32Q513.72-25.84 517.14-27.64Q520.56-29.44 524.64-29.44L524.64-29.44Q527.16-29.44 529.42-28.86Q531.68-28.28 533.40-27.32L533.40-27.32L531.88-23Q530.68-23.72 528.70-24.24Q526.72-24.76 525.24-24.76L525.24-24.76Q520.24-24.76 517.36-22Q514.48-19.24 514.48-14.28L514.48-14.28Q514.48-11.32 515.82-9.06Q517.16-6.80 519.58-5.56Q522.00-4.32 525.12-4.32L525.12-4.32Q526.52-4.32 527.80-4.58Q529.08-4.84 529.96-5.32L529.96-5.32L529.96-10.16L524.48-10.16L524.48-14.64L534.64-14.64L534.64-2.68Z M581.76 0L579.08-6.84L568.48-6.84L565.68 0L561.08 0L573.96-30.32L574.24-30.32L587.12 0L581.76 0ZM570.12-10.84L577.52-10.84L573.88-20.04L570.12-10.84Z M617.96-29.12L622.60-29.12L622.60 1.04L622.48 1.04L601.48-19.32L601.60 0L596.88 0L596.88-30.12L597.12-30.12L618.04-9.52L617.96-29.12Z M635.44 0L635.44-29.12L643.72-29.12Q649.20-29.12 652.78-26.96Q656.36-24.80 658-21.40Q659.64-18 659.64-14.16L659.64-14.16Q659.64-9.92 657.66-6.70Q655.68-3.48 652.36-1.74Q649.04 0 645.12 0L645.12 0L635.44 0ZM640.12-4.48L644.28-4.48Q647.40-4.48 649.78-5.64Q652.16-6.80 653.50-9.06Q654.84-11.32 654.84-14.48L654.84-14.48Q654.84-17.92 653.38-20.22Q651.92-22.52 649.66-23.60Q647.40-24.68 645.00-24.68L645.00-24.68L640.12-24.68L640.12-4.48Z M709.88-2.28Q708.60-1.36 706.34-0.52Q704.08 0.32 701.40 0.32L701.40 0.32Q696.88 0.32 693.50-1.66Q690.12-3.64 688.30-6.98Q686.48-10.32 686.48-14.32L686.48-14.32Q686.48-18.68 688.30-22.12Q690.12-25.56 693.38-27.50Q696.64-29.44 700.80-29.44L700.80-29.44Q703.36-29.44 705.54-28.76Q707.72-28.08 709.40-27.04L709.40-27.04L707.56-22.68Q704.32-24.96 700.96-24.96L700.96-24.96Q698.40-24.96 696.18-23.58Q693.96-22.20 692.64-19.82Q691.32-17.44 691.32-14.60L691.32-14.60Q691.32-11.60 692.54-9.22Q693.76-6.84 696.02-5.50Q698.28-4.16 701.24-4.16L701.24-4.16Q703.36-4.16 705.06-4.80Q706.76-5.44 707.92-6.44L707.92-6.44L709.88-2.28Z M719.08-14.52Q719.08-18.52 721.08-21.94Q723.08-25.36 726.50-27.40Q729.92-29.44 733.96-29.44L733.96-29.44Q737.96-29.44 741.38-27.40Q744.80-25.36 746.84-21.92Q748.88-18.48 748.88-14.52L748.88-14.52Q748.88-10.48 746.86-7.08Q744.84-3.68 741.40-1.68Q737.96 0.32 733.96 0.32L733.96 0.32Q729.92 0.32 726.50-1.66Q723.08-3.64 721.08-7.04Q719.08-10.44 719.08-14.52L719.08-14.52ZM723.88-14.52Q723.88-11.68 725.24-9.32Q726.60-6.96 728.94-5.56Q731.28-4.16 734.08-4.16L734.08-4.16Q736.84-4.16 739.12-5.54Q741.40-6.92 742.74-9.30Q744.08-11.68 744.08-14.52L744.08-14.52Q744.08-17.36 742.72-19.76Q741.36-22.16 739.04-23.56Q736.72-24.96 733.96-24.96L733.96-24.96Q731.16-24.96 728.86-23.56Q726.56-22.16 725.22-19.76Q723.88-17.36 723.88-14.52L723.88-14.52Z M759.88 0L759.88-29.12L768.16-29.12Q773.64-29.12 777.22-26.96Q780.80-24.80 782.44-21.40Q784.08-18 784.08-14.16L784.08-14.16Q784.08-9.92 782.10-6.70Q780.12-3.48 776.80-1.74Q773.48 0 769.56 0L769.56 0L759.88 0ZM764.56-4.48L768.72-4.48Q771.84-4.48 774.22-5.64Q776.60-6.80 777.94-9.06Q779.28-11.32 779.28-14.48L779.28-14.48Q779.28-17.92 777.82-20.22Q776.36-22.52 774.10-23.60Q771.84-24.68 769.44-24.68L769.44-24.68L764.56-24.68L764.56-4.48Z M795.12-29.12L814.44-29.12L814.44-24.64L799.80-24.64L799.80-16.88L812.84-16.88L812.84-12.40L799.80-12.40L799.80-4.48L815.00-4.48L815.00 0L795.12 0L795.12-29.12Z M825.84-28.44L829.92-28.44L829.92 9.44L825.84 9.44L825.84-28.44Z M860.12-29.12L877.80-29.12L877.80-24.64L864.80-24.64L864.80-16.44L876.12-16.44L876.12-12L864.80-12L864.80 0L860.12 0L860.12-29.12Z M909.96 0L904.56 0L898.00-10.12L897.52-10.12L893.32-10.12L893.32 0L888.64 0L888.64-29.12L896.84-29.12Q901.72-29.12 904.66-26.64Q907.60-24.16 907.60-19.76L907.60-19.76Q907.60-17.08 906.46-14.78Q905.32-12.48 902.88-11.24L902.88-11.24L909.96 0ZM893.32-24.64L893.32-14.60L897.48-14.60Q900.28-14.60 901.54-16.14Q902.80-17.68 902.80-19.60L902.80-19.60Q902.80-20.72 902.32-21.86Q901.84-23 900.68-23.82Q899.52-24.64 897.64-24.64L897.64-24.64L893.32-24.64Z"/></g>
</svg>
</g><g opacity="1" transform="rotate(0 831.816 777.439)">
<svg width="370.6993" height="90" x="831.816" y="777.439" version="1.1" preserveAspectRatio="none" viewBox="1.8 -28 117.80000000000001 28.6">
  <g transform="matrix(1 0 0 1 0 0)" class="companyName"><path id="id-D6z1nYkh7" d="M9-10L7.60-10L7.60-1L10-0.40L10 0L1.80 0L1.80-0.40L4.20-1L4.20-27L1.80-27.60L1.80-28L9-28Q11.48-28 13.42-27.32Q15.36-26.64 16.68-25.44Q18-24.24 18.70-22.60Q19.40-20.96 19.40-19L19.40-19Q19.40-17.04 18.70-15.40Q18-13.76 16.68-12.56Q15.36-11.36 13.42-10.68Q11.48-10 9-10L9-10ZM7.60-27.20L7.60-10.80L9-10.80Q12.16-10.80 13.88-12.72Q15.60-14.64 15.60-19L15.60-19Q15.60-23.36 13.88-25.28Q12.16-27.20 9-27.20L9-27.20L7.60-27.20Z M21.60-0.40L24-1L24-17.40L21.60-18L21.60-18.40L27.20-18.40L27.20-1L29.60-0.40L29.60 0L21.60 0L21.60-0.40ZM27.40-23L27.40-23Q27.40-22.24 26.78-21.62Q26.16-21 25.40-21L25.40-21Q24.64-21 24.02-21.62Q23.40-22.24 23.40-23L23.40-23Q23.40-23.76 24.02-24.38Q24.64-25 25.40-25L25.40-25Q26.16-25 26.78-24.38Q27.40-23.76 27.40-23Z M38.96-8.72L37.40-6.52L37.40-1L39.60-0.40L39.60 0L31.80 0L31.80-0.40L34.20-1L34.20-27L31.80-27.60L31.80-28L37.40-28L37.40-7.60L44-17L41.40-18L41.40-18.40L47.40-18.40L47.40-18L44.80-17L40.92-11.48L47.20-1L49.60-0.40L49.60 0L41.40 0L41.40-0.40L43.60-1L38.96-8.72Z M61-3.80L61-9.80Q57.52-9.80 55.86-8.26Q54.20-6.72 54.20-4L54.20-4Q54.20-2.20 55.08-1.20Q55.96-0.20 57-0.20L57-0.20Q57.96-0.20 58.70-0.76Q59.44-1.32 59.96-2L59.96-2Q60.56-2.76 61-3.80L61-3.80ZM58-18.40L58-18.40Q56.80-18.40 56-17.58Q55.20-16.76 55.20-15.40L55.20-15.40Q55.20-15.08 55.22-14.84Q55.24-14.60 55.28-14.40L55.28-14.40Q55.32-14.20 55.40-14L55.40-14L52.20-13.20Q52.12-13.32 52.08-13.52L52.08-13.52Q52.04-13.72 52.02-13.96Q52-14.20 52-14.60L52-14.60Q52-15.44 52.40-16.22Q52.80-17 53.58-17.62Q54.36-18.24 55.46-18.62Q56.56-19 58-19L58-19Q60.88-19 62.54-17.36Q64.20-15.72 64.20-13L64.20-13L64.20-1L66.60-0.40L66.60 0L61 0L61-2.40Q60.56-1.56 59.88-0.88L59.88-0.88Q59.32-0.32 58.46 0.14Q57.60 0.60 56.40 0.60L56.40 0.60Q53.52 0.60 52.06-0.76Q50.60-2.12 50.60-4.40L50.60-4.40Q50.60-5.52 51.22-6.64Q51.84-7.76 53.10-8.64Q54.36-9.52 56.32-10.06Q58.28-10.60 61-10.60L61-10.60L61-13Q61-16 60.10-17.20Q59.20-18.40 58-18.40Z M85.40-26.60L79.40-11.20L79.40-1L81.80-0.40L81.80 0L73.60 0L73.60-0.40L76-1L76-11L69.80-27L67.40-27.60L67.40-28L75.80-28L75.80-27.60L73.40-27L79.08-12.40L84.60-26.60L82-27.60L82-28L88-28L88-27.60L85.40-26.60Z M104.40-18L102-17.40L102-1L104.40-0.40L104.40 0L98.80 0L98.80-2.40Q98.36-1.56 97.68-0.88L97.68-0.88Q97.12-0.32 96.26 0.14Q95.40 0.60 94.20 0.60L94.20 0.60Q93 0.60 91.98 0.16Q90.96-0.28 90.20-1.06Q89.44-1.84 89.02-2.94Q88.60-4.04 88.60-5.40L88.60-5.40L88.60-17.40L86.20-18L86.20-18.40L94-18.40L94-18L91.80-17.40L91.80-5.40Q91.80-2.56 92.70-1.38Q93.60-0.20 94.80-0.20L94.80-0.20Q95.76-0.20 96.50-0.76Q97.24-1.32 97.76-2L97.76-2Q98.36-2.76 98.80-3.80L98.80-3.80L98.80-17.40L96.60-18L96.60-18.40L104.40-18.40L104.40-18Z M112.80-18.40L117.40-18.40L117.40-17.60L112.80-17.60L112.80-4.84Q112.80-2.40 113.68-1.30Q114.56-0.20 115.60-0.20L115.60-0.20Q116.96-0.20 117.90-1.22Q118.84-2.24 119-4.20L119-4.20L119.60-4.20Q119.44-1.92 118.22-0.66Q117 0.60 115.20 0.60L115.20 0.60Q112.64 0.60 111.12-0.90Q109.60-2.40 109.60-4.80L109.60-4.80L109.60-17.60L106.20-17.60L106.20-18.40L109.60-18.40L109.60-23L112.80-25.20L112.80-18.40Z"/></g>
</svg>
</g></svg></svg>