<svg version="1.1" preserveAspectRatio="none" xmlns="http://www.w3.org/2000/svg" width="500" height="500" viewBox="0 0 500 500"><rect width="100%" height="100%" fill="#EFEFEF" fill-opacity="1"/><svg viewBox="69.4221 223.0218 398.5581 85" width="333" height="71.0185039521214" x="83.5px" y="214.4907px" xmlns="http://www.w3.org/2000/svg" xmlns:xlink="http://www.w3.org/1999/xlink" preserveAspectRatio="none"><defs></defs><style>.companyName {fill:#0C0C0C;fill-opacity:1;}.icon3-str {stroke:#929292;stroke-opacity:1;}.text {fill:#0C0C0C;fill-opacity:1;}</style><g opacity="1" transform="rotate(0 96.4235 289.0218)">
<svg width="344.5553" height="19" x="96.4235" y="289.0218" version="1.1" preserveAspectRatio="none" viewBox="1.92 -30.28 694.04 38.28">
  <g transform="matrix(1 0 0 1 0 0)" class="text"><path id="id-6izo4zJp30" d="M16.72 0.32Q12.52 0.32 9.14-1.54Q5.76-3.40 3.84-6.66Q1.92-9.92 1.92-14L1.92-14Q1.92-18.08 3.84-21.34Q5.76-24.60 9.16-26.46Q12.56-28.32 16.76-28.32L16.76-28.32Q20.04-28.32 22.76-27.22Q25.48-26.12 27.40-23.96L27.40-23.96L24.80-21.44Q21.64-24.76 16.92-24.76L16.92-24.76Q13.80-24.76 11.28-23.36Q8.76-21.96 7.34-19.50Q5.92-17.04 5.92-14L5.92-14Q5.92-10.96 7.34-8.50Q8.76-6.04 11.28-4.64Q13.80-3.24 16.92-3.24L16.92-3.24Q21.60-3.24 24.80-6.60L24.80-6.60L27.40-4.08Q25.48-1.92 22.74-0.80Q20 0.32 16.72 0.32L16.72 0.32Z M40.76 0.24Q37.60 0.24 35.08-1.16Q32.56-2.56 31.14-5.02Q29.72-7.48 29.72-10.60L29.72-10.60Q29.72-13.72 31.14-16.18Q32.56-18.64 35.08-20.02Q37.60-21.40 40.76-21.40L40.76-21.40Q43.92-21.40 46.42-20.02Q48.92-18.64 50.34-16.18Q51.76-13.72 51.76-10.60L51.76-10.60Q51.76-7.48 50.34-5.02Q48.92-2.56 46.42-1.16Q43.92 0.24 40.76 0.24L40.76 0.24ZM40.76-3.12Q42.80-3.12 44.42-4.06Q46.04-5 46.96-6.70Q47.88-8.40 47.88-10.60L47.88-10.60Q47.88-12.80 46.96-14.50Q46.04-16.20 44.42-17.12Q42.80-18.04 40.76-18.04L40.76-18.04Q38.72-18.04 37.10-17.12Q35.48-16.20 34.54-14.50Q33.60-12.80 33.60-10.60L33.60-10.60Q33.60-8.40 34.54-6.70Q35.48-5 37.10-4.06Q38.72-3.12 40.76-3.12L40.76-3.12Z M83.60-21.40Q87.60-21.40 89.94-19.08Q92.28-16.76 92.28-12.20L92.28-12.20L92.28 0L88.44 0L88.44-11.76Q88.44-14.84 87.02-16.40Q85.60-17.96 82.96-17.96L82.96-17.96Q80.04-17.96 78.32-16.14Q76.60-14.32 76.60-10.92L76.60-10.92L76.60 0L72.76 0L72.76-11.76Q72.76-14.84 71.34-16.40Q69.92-17.96 67.28-17.96L67.28-17.96Q64.36-17.96 62.64-16.14Q60.92-14.32 60.92-10.92L60.92-10.92L60.92 0L57.08 0L57.08-21.20L60.76-21.20L60.76-18.04Q61.92-19.68 63.80-20.54Q65.68-21.40 68.08-21.40L68.08-21.40Q70.56-21.40 72.48-20.40Q74.40-19.40 75.44-17.48L75.44-17.48Q76.64-19.32 78.78-20.36Q80.92-21.40 83.60-21.40L83.60-21.40Z M125.88-21.40Q129.88-21.40 132.22-19.08Q134.56-16.76 134.56-12.20L134.56-12.20L134.56 0L130.72 0L130.72-11.76Q130.72-14.84 129.30-16.40Q127.88-17.96 125.24-17.96L125.24-17.96Q122.32-17.96 120.60-16.14Q118.88-14.32 118.88-10.92L118.88-10.92L118.88 0L115.04 0L115.04-11.76Q115.04-14.84 113.62-16.40Q112.20-17.96 109.56-17.96L109.56-17.96Q106.64-17.96 104.92-16.14Q103.20-14.32 103.20-10.92L103.20-10.92L103.20 0L99.36 0L99.36-21.20L103.04-21.20L103.04-18.04Q104.20-19.68 106.08-20.54Q107.96-21.40 110.36-21.40L110.36-21.40Q112.84-21.40 114.76-20.40Q116.68-19.40 117.72-17.48L117.72-17.48Q118.92-19.32 121.06-20.36Q123.20-21.40 125.88-21.40L125.88-21.40Z M157.56-21.20L161.40-21.20L161.40 0L157.76 0L157.76-3.20Q156.60-1.56 154.70-0.66Q152.80 0.24 150.56 0.24L150.56 0.24Q146.32 0.24 143.88-2.10Q141.44-4.44 141.44-9L141.44-9L141.44-21.20L145.28-21.20L145.28-9.44Q145.28-6.36 146.76-4.78Q148.24-3.20 151-3.20L151-3.20Q154.04-3.20 155.80-5.04Q157.56-6.88 157.56-10.24L157.56-10.24L157.56-21.20Z M180.04-21.40Q184.08-21.40 186.46-19.06Q188.84-16.72 188.84-12.20L188.84-12.20L188.84 0L185 0L185-11.76Q185-14.84 183.52-16.40Q182.04-17.96 179.28-17.96L179.28-17.96Q176.16-17.96 174.36-16.14Q172.56-14.32 172.56-10.92L172.56-10.92L172.56 0L168.72 0L168.72-21.20L172.40-21.20L172.40-18Q173.56-19.64 175.54-20.52Q177.52-21.40 180.04-21.40L180.04-21.40Z M195.96 0L195.96-21.20L199.80-21.20L199.80 0L195.96 0ZM197.88-25.28Q196.76-25.28 196.02-26Q195.28-26.72 195.28-27.76L195.28-27.76Q195.28-28.80 196.02-29.54Q196.76-30.28 197.88-30.28L197.88-30.28Q199.00-30.28 199.74-29.58Q200.48-28.88 200.48-27.84L200.48-27.84Q200.48-26.76 199.74-26.02Q199.00-25.28 197.88-25.28L197.88-25.28Z M217.84-4L219.04-1.24Q218.20-0.52 216.96-0.14Q215.72 0.24 214.40 0.24L214.40 0.24Q211.20 0.24 209.44-1.48Q207.68-3.20 207.68-6.40L207.68-6.40L207.68-18.04L204.08-18.04L204.08-21.20L207.68-21.20L207.68-25.84L211.52-25.84L211.52-21.20L217.60-21.20L217.60-18.04L211.52-18.04L211.52-6.56Q211.52-4.84 212.38-3.92Q213.24-3 214.84-3L214.84-3Q216.60-3 217.84-4L217.84-4Z M238.28-21.20L242.04-21.20L231.76 2.12Q230.40 5.36 228.58 6.68Q226.76 8 224.20 8L224.20 8Q222.64 8 221.18 7.50Q219.72 7 218.76 6.04L218.76 6.04L220.40 3.16Q222.04 4.72 224.20 4.72L224.20 4.72Q225.60 4.72 226.54 3.98Q227.48 3.24 228.24 1.44L228.24 1.44L228.92-0.04L219.56-21.20L223.56-21.20L230.96-4.24L238.28-21.20Z M256.96 7.76L256.96-29.68L260.52-29.68L260.52 7.76L256.96 7.76Z M288.32-5.04L288.32-14.16L292.16-14.16L292.16-3.24Q290.08-1.52 287.32-0.60Q284.56 0.32 281.56 0.32L281.56 0.32Q277.32 0.32 273.92-1.54Q270.52-3.40 268.58-6.66Q266.64-9.92 266.64-14L266.64-14Q266.64-18.08 268.58-21.36Q270.52-24.64 273.94-26.48Q277.36-28.32 281.64-28.32L281.64-28.32Q285-28.32 287.74-27.22Q290.48-26.12 292.40-24L292.40-24L289.92-21.52Q286.56-24.76 281.80-24.76L281.80-24.76Q278.60-24.76 276.06-23.38Q273.52-22 272.08-19.54Q270.64-17.08 270.64-14L270.64-14Q270.64-10.96 272.08-8.50Q273.52-6.04 276.06-4.64Q278.60-3.24 281.76-3.24L281.76-3.24Q285.52-3.24 288.32-5.04L288.32-5.04Z M306.96-21.40Q311.36-21.40 313.70-19.24Q316.04-17.08 316.04-12.80L316.04-12.80L316.04 0L312.40 0L312.40-2.80Q311.44-1.32 309.66-0.54Q307.88 0.24 305.44 0.24L305.44 0.24Q301.88 0.24 299.74-1.48Q297.60-3.20 297.60-6L297.60-6Q297.60-8.80 299.64-10.50Q301.68-12.20 306.12-12.20L306.12-12.20L312.20-12.20L312.20-12.96Q312.20-15.44 310.76-16.76Q309.32-18.08 306.52-18.08L306.52-18.08Q304.64-18.08 302.84-17.46Q301.04-16.84 299.80-15.80L299.80-15.80L298.20-18.68Q299.84-20 302.12-20.70Q304.40-21.40 306.96-21.40L306.96-21.40ZM306.08-2.72Q308.28-2.72 309.88-3.70Q311.48-4.68 312.20-6.48L312.20-6.48L312.20-9.44L306.28-9.44Q301.40-9.44 301.40-6.16L301.40-6.16Q301.40-4.56 302.64-3.64Q303.88-2.72 306.08-2.72L306.08-2.72Z M349.68-21.40Q353.68-21.40 356.02-19.08Q358.36-16.76 358.36-12.20L358.36-12.20L358.36 0L354.52 0L354.52-11.76Q354.52-14.84 353.10-16.40Q351.68-17.96 349.04-17.96L349.04-17.96Q346.12-17.96 344.40-16.14Q342.68-14.32 342.68-10.92L342.68-10.92L342.68 0L338.84 0L338.84-11.76Q338.84-14.84 337.42-16.40Q336-17.96 333.36-17.96L333.36-17.96Q330.44-17.96 328.72-16.14Q327-14.32 327-10.92L327-10.92L327 0L323.16 0L323.16-21.20L326.84-21.20L326.84-18.04Q328-19.68 329.88-20.54Q331.76-21.40 334.16-21.40L334.16-21.40Q336.64-21.40 338.56-20.40Q340.48-19.40 341.52-17.48L341.52-17.48Q342.72-19.32 344.86-20.36Q347-21.40 349.68-21.40L349.68-21.40Z M365.44 0L365.44-21.20L369.28-21.20L369.28 0L365.44 0ZM367.36-25.28Q366.24-25.28 365.50-26Q364.76-26.72 364.76-27.76L364.76-27.76Q364.76-28.80 365.50-29.54Q366.24-30.28 367.36-30.28L367.36-30.28Q368.48-30.28 369.22-29.58Q369.96-28.88 369.96-27.84L369.96-27.84Q369.96-26.76 369.22-26.02Q368.48-25.28 367.36-25.28L367.36-25.28Z M387.92-21.40Q391.96-21.40 394.34-19.06Q396.72-16.72 396.72-12.20L396.72-12.20L396.72 0L392.88 0L392.88-11.76Q392.88-14.84 391.40-16.40Q389.92-17.96 387.16-17.96L387.16-17.96Q384.04-17.96 382.24-16.14Q380.44-14.32 380.44-10.92L380.44-10.92L380.44 0L376.60 0L376.60-21.20L380.28-21.20L380.28-18Q381.44-19.64 383.42-20.52Q385.40-21.40 387.92-21.40L387.92-21.40Z M420.60-21.20L424.24-21.20L424.24-2.88Q424.24 2.68 421.48 5.34Q418.72 8 413.24 8L413.24 8Q410.24 8 407.52 7.18Q404.80 6.36 403.12 4.84L403.12 4.84L404.96 1.88Q406.44 3.16 408.62 3.90Q410.80 4.64 413.12 4.64L413.12 4.64Q416.84 4.64 418.62 2.88Q420.40 1.12 420.40-2.48L420.40-2.48L420.40-4.16Q419.04-2.52 417.06-1.70Q415.08-0.88 412.76-0.88L412.76-0.88Q409.72-0.88 407.26-2.18Q404.80-3.48 403.40-5.82Q402-8.16 402-11.16L402-11.16Q402-14.16 403.40-16.50Q404.80-18.84 407.26-20.12Q409.72-21.40 412.76-21.40L412.76-21.40Q415.16-21.40 417.22-20.52Q419.28-19.64 420.60-17.92L420.60-17.92L420.60-21.20ZM413.20-4.24Q415.28-4.24 416.94-5.12Q418.60-6 419.54-7.58Q420.48-9.16 420.48-11.16L420.48-11.16Q420.48-14.24 418.44-16.14Q416.40-18.04 413.20-18.04L413.20-18.04Q409.96-18.04 407.92-16.14Q405.88-14.24 405.88-11.16L405.88-11.16Q405.88-9.16 406.82-7.58Q407.76-6 409.42-5.12Q411.08-4.24 413.20-4.24L413.20-4.24Z M450.04-21.40Q454.44-21.40 456.78-19.24Q459.12-17.08 459.12-12.80L459.12-12.80L459.12 0L455.48 0L455.48-2.80Q454.52-1.32 452.74-0.54Q450.96 0.24 448.52 0.24L448.52 0.24Q444.96 0.24 442.82-1.48Q440.68-3.20 440.68-6L440.68-6Q440.68-8.80 442.72-10.50Q444.76-12.20 449.20-12.20L449.20-12.20L455.28-12.20L455.28-12.96Q455.28-15.44 453.84-16.76Q452.40-18.08 449.60-18.08L449.60-18.08Q447.72-18.08 445.92-17.46Q444.12-16.84 442.88-15.80L442.88-15.80L441.28-18.68Q442.92-20 445.20-20.70Q447.48-21.40 450.04-21.40L450.04-21.40ZM449.16-2.72Q451.36-2.72 452.96-3.70Q454.56-4.68 455.28-6.48L455.28-6.48L455.28-9.44L449.36-9.44Q444.48-9.44 444.48-6.16L444.48-6.16Q444.48-4.56 445.72-3.64Q446.96-2.72 449.16-2.72L449.16-2.72Z M477.56-21.40Q481.60-21.40 483.98-19.06Q486.36-16.72 486.36-12.20L486.36-12.20L486.36 0L482.52 0L482.52-11.76Q482.52-14.84 481.04-16.40Q479.56-17.96 476.80-17.96L476.80-17.96Q473.68-17.96 471.88-16.14Q470.08-14.32 470.08-10.92L470.08-10.92L470.08 0L466.24 0L466.24-21.20L469.92-21.20L469.92-18Q471.08-19.64 473.06-20.52Q475.04-21.40 477.56-21.40L477.56-21.40Z M509.76-29.68L513.60-29.68L513.60 0L509.92 0L509.92-3.36Q508.64-1.60 506.68-0.68Q504.72 0.24 502.36 0.24L502.36 0.24Q499.28 0.24 496.84-1.12Q494.40-2.48 493.02-4.94Q491.64-7.40 491.64-10.60L491.64-10.60Q491.64-13.80 493.02-16.24Q494.40-18.68 496.84-20.04Q499.28-21.40 502.36-21.40L502.36-21.40Q504.64-21.40 506.56-20.54Q508.48-19.68 509.76-18L509.76-18L509.76-29.68ZM502.68-3.12Q504.68-3.12 506.32-4.06Q507.96-5 508.88-6.70Q509.80-8.40 509.80-10.60L509.80-10.60Q509.80-12.80 508.88-14.50Q507.96-16.20 506.32-17.12Q504.68-18.04 502.68-18.04L502.68-18.04Q500.64-18.04 499.02-17.12Q497.40-16.20 496.46-14.50Q495.52-12.80 495.52-10.60L495.52-10.60Q495.52-8.40 496.46-6.70Q497.40-5 499.02-4.06Q500.64-3.12 502.68-3.12L502.68-3.12Z M544.72 0.32Q540.52 0.32 537.14-1.54Q533.76-3.40 531.84-6.66Q529.92-9.92 529.92-14L529.92-14Q529.92-18.08 531.84-21.34Q533.76-24.60 537.16-26.46Q540.56-28.32 544.76-28.32L544.76-28.32Q548.04-28.32 550.76-27.22Q553.48-26.12 555.40-23.96L555.40-23.96L552.80-21.44Q549.64-24.76 544.92-24.76L544.92-24.76Q541.80-24.76 539.28-23.36Q536.76-21.96 535.34-19.50Q533.92-17.04 533.92-14L533.92-14Q533.92-10.96 535.34-8.50Q536.76-6.04 539.28-4.64Q541.80-3.24 544.92-3.24L544.92-3.24Q549.60-3.24 552.80-6.60L552.80-6.60L555.40-4.08Q553.48-1.92 550.74-0.80Q548 0.32 544.72 0.32L544.72 0.32Z M568.76 0.24Q565.60 0.24 563.08-1.16Q560.56-2.56 559.14-5.02Q557.72-7.48 557.72-10.60L557.72-10.60Q557.72-13.72 559.14-16.18Q560.56-18.64 563.08-20.02Q565.60-21.40 568.76-21.40L568.76-21.40Q571.92-21.40 574.42-20.02Q576.92-18.64 578.34-16.18Q579.76-13.72 579.76-10.60L579.76-10.60Q579.76-7.48 578.34-5.02Q576.92-2.56 574.42-1.16Q571.92 0.24 568.76 0.24L568.76 0.24ZM568.76-3.12Q570.80-3.12 572.42-4.06Q574.04-5 574.96-6.70Q575.88-8.40 575.88-10.60L575.88-10.60Q575.88-12.80 574.96-14.50Q574.04-16.20 572.42-17.12Q570.80-18.04 568.76-18.04L568.76-18.04Q566.72-18.04 565.10-17.12Q563.48-16.20 562.54-14.50Q561.60-12.80 561.60-10.60L561.60-10.60Q561.60-8.40 562.54-6.70Q563.48-5 565.10-4.06Q566.72-3.12 568.76-3.12L568.76-3.12Z M601.24-29.68L605.08-29.68L605.08 0L601.40 0L601.40-3.36Q600.12-1.60 598.16-0.68Q596.20 0.24 593.84 0.24L593.84 0.24Q590.76 0.24 588.32-1.12Q585.88-2.48 584.50-4.94Q583.12-7.40 583.12-10.60L583.12-10.60Q583.12-13.80 584.50-16.24Q585.88-18.68 588.32-20.04Q590.76-21.40 593.84-21.40L593.84-21.40Q596.12-21.40 598.04-20.54Q599.96-19.68 601.24-18L601.24-18L601.24-29.68ZM594.16-3.12Q596.16-3.12 597.80-4.06Q599.44-5 600.36-6.70Q601.28-8.40 601.28-10.60L601.28-10.60Q601.28-12.80 600.36-14.50Q599.44-16.20 597.80-17.12Q596.16-18.04 594.16-18.04L594.16-18.04Q592.12-18.04 590.50-17.12Q588.88-16.20 587.94-14.50Q587.00-12.80 587.00-10.60L587.00-10.60Q587.00-8.40 587.94-6.70Q588.88-5 590.50-4.06Q592.12-3.12 594.16-3.12L594.16-3.12Z M631.52-10.48Q631.52-10.04 631.44-9.32L631.44-9.32L614.24-9.32Q614.60-6.52 616.70-4.82Q618.80-3.12 621.92-3.12L621.92-3.12Q625.72-3.12 628.04-5.68L628.04-5.68L630.16-3.20Q628.72-1.52 626.58-0.64Q624.44 0.24 621.80 0.24L621.80 0.24Q618.44 0.24 615.84-1.14Q613.24-2.52 611.82-5Q610.40-7.48 610.40-10.60L610.40-10.60Q610.40-13.68 611.78-16.16Q613.16-18.64 615.58-20.02Q618.00-21.40 621.04-21.40L621.04-21.40Q624.08-21.40 626.46-20.02Q628.84-18.64 630.18-16.16Q631.52-13.68 631.52-10.48L631.52-10.48ZM621.04-18.16Q618.28-18.16 616.42-16.48Q614.56-14.80 614.24-12.08L614.24-12.08L627.84-12.08Q627.52-14.76 625.66-16.46Q623.80-18.16 621.04-18.16L621.04-18.16Z M637.40 7.76L637.40-29.68L640.96-29.68L640.96 7.76L637.40 7.76Z M679.88-24.52L664.12-24.52L664.12-14.76L678.16-14.76L678.16-11.32L664.12-11.32L664.12 0L660.12 0L660.12-28L679.88-28L679.88-24.52Z M688.24-17.64Q689.24-19.48 691.20-20.44Q693.16-21.40 695.96-21.40L695.96-21.40L695.96-17.68Q695.64-17.72 695.08-17.72L695.08-17.72Q691.96-17.72 690.18-15.86Q688.40-14 688.40-10.56L688.40-10.56L688.40 0L684.56 0L684.56-21.20L688.24-21.20L688.24-17.64Z"/></g>
</svg>
</g><g opacity="1" transform="rotate(0 69.4221 223.0218)">
<svg width="398.5581" height="50" x="69.4221" y="223.0218" version="1.1" preserveAspectRatio="none" viewBox="2.72 -29.88 242.96 30.479999999999997">
  <g transform="matrix(1 0 0 1 0 0)" class="companyName"><path id="id-D6z1nYkh7" d="M30.48-6.60L12.08-6.60L12.08-13.60L32.04-13.60Q33.24-13.60 34.06-13.98Q34.88-14.36 34.88-15.60L34.88-15.60Q34.88-16.88 34.06-17.24Q33.24-17.60 32.04-17.60L32.04-17.60L12.72-17.60L12.72 0L2.72 0L2.72-25.60L30.48-25.60Q33.48-25.60 36.10-25.18Q38.72-24.76 40.68-23.68Q42.64-22.60 43.76-20.64Q44.88-18.68 44.88-15.60L44.88-15.60Q44.88-12.52 43.76-10.72Q42.64-8.92 40.68-8.04Q38.72-7.16 36.10-6.88Q33.48-6.60 30.48-6.60L30.48-6.60Z M49.28-29.88L59.44-29.88L59.44-23.88L49.28-23.88L49.28-29.88ZM49.56 0L49.56-19.60L59.16-19.60L59.16 0L49.56 0Z M63.84 0L63.84-27.60L73.44-27.60L73.44 0L63.84 0ZM85.04-19.60L97.76-19.60L81.92-8.60L82.12-13.80L99.12 0L86.96 0L73.60-11.16L85.04-19.60Z M113.64 0.56L113.64 0.56Q109.32 0.56 105.96-0.66Q102.60-1.88 100.66-4.20Q98.72-6.52 98.72-9.80L98.72-9.80Q98.72-13.24 100.66-15.56Q102.60-17.88 105.96-19.04Q109.32-20.20 113.64-20.20L113.64-20.20Q118.44-20.20 121.94-18.90Q125.44-17.60 127.34-15.26Q129.24-12.92 129.24-9.80L129.24-9.80Q129.24-7.48 128.16-5.58Q127.08-3.68 125.04-2.30Q123-0.92 120.12-0.18Q117.24 0.56 113.64 0.56ZM117.24-5.52L117.24-5.52Q120.28-5.52 122.82-5.90Q125.36-6.28 126.90-7.20Q128.44-8.12 128.44-9.80L128.44-9.80Q128.44-11.52 126.90-12.44Q125.36-13.36 122.82-13.72Q120.28-14.08 117.24-14.08L117.24-14.08Q113.16-14.08 110.92-13.02Q108.68-11.96 108.68-9.80L108.68-9.80Q108.68-8.40 109.68-7.44Q110.68-6.48 112.60-6Q114.52-5.52 117.24-5.52ZM128.44-7.60L128.44-19.60L138.04-19.60L138.04 0L129 0Q129 0 128.86-0.92Q128.72-1.84 128.58-3.56Q128.44-5.28 128.44-7.60L128.44-7.60Z M170.64-25.60L182.44-25.60L166.24-6.52L166.24 0L156.24 0L156.24-6.52L140.04-25.60L151.84-25.60L165-9L157.60-9L170.64-25.60Z M219.56-19.60L219.56 0L209.96 0L209.96-19.60L219.56-19.60ZM210.36-10.12L210.36-10.12L210.44-8.20Q210.32-7.36 209.66-6.24Q209.00-5.12 207.84-3.92Q206.68-2.72 205.00-1.70Q203.32-0.68 201.16-0.04Q199.00 0.60 196.36 0.60L196.36 0.60Q193.72 0.60 191.36 0.06Q189.00-0.48 187.16-1.72Q185.32-2.96 184.28-5.06Q183.24-7.16 183.24-10.32L183.24-10.32L183.24-19.60L192.84-19.60L192.84-11.32Q192.84-9.12 193.58-7.92Q194.32-6.72 195.92-6.26Q197.52-5.80 200.04-5.80L200.04-5.80Q202.40-5.80 204.42-6.50Q206.44-7.20 207.98-8.20Q209.52-9.20 210.36-10.12Z M222.16-13.60L222.16-19.60L245.68-19.60L245.68-13.60L222.16-13.60ZM229.12 0L229.12-25.60L238.72-25.60L238.72 0L229.12 0Z"/></g>
</svg>
</g></svg></svg>