<svg version="1.1" preserveAspectRatio="none" xmlns="http://www.w3.org/2000/svg" width="500" height="500" viewBox="0 0 500 500"><rect width="100%" height="100%" fill="#0F222D" fill-opacity="1"/><svg viewBox="187.7084 326.4093 387.222 95.2" width="333" height="81.86931527650805" x="83.5px" y="209.0653px" xmlns="http://www.w3.org/2000/svg" xmlns:xlink="http://www.w3.org/1999/xlink" preserveAspectRatio="none"><defs></defs><style>.companyName {fill:#EBE7D9;fill-opacity:1;}.icon3 {fill:#F55139;fill-opacity:1;}.icon3-str {stroke:#F55139;stroke-opacity:1;}.text {fill:#EBE7D9;fill-opacity:1;}</style><g opacity="1" transform="rotate(0 187.7084 326.4093)">
<svg width="387.222" height="60" x="187.7084" y="326.4093" version="1.1" preserveAspectRatio="none" viewBox="1.16 -28 183.79999999999998 28.48">
  <g transform="matrix(1 0 0 1 0 0)" class="icon3"><path id="id-fAwcDUYEQ7" d="M18.08-28Q23.32-28 26.18-25.70Q29.04-23.40 29.04-19.28L29.04-19.28Q29.04-15.76 27.38-13.14Q25.72-10.52 22.66-9.12Q19.60-7.72 15.44-7.72L15.44-7.72L9.20-7.72L7.68 0L1.16 0L6.76-28L18.08-28ZM15.72-13Q18.96-13 20.72-14.48Q22.48-15.96 22.48-18.72L22.48-18.72Q22.48-20.72 21.14-21.72Q19.80-22.72 17.28-22.72L17.28-22.72L12.20-22.72L10.24-13L15.72-13Z M30.04 0L35.64-28L42.16-28L36.56 0L30.04 0Z M75-28L60.28-15.04L70 0L62.72 0L55.52-10.96L51-6.96L49.60 0L43.16 0L48.76-28L55.20-28L52.64-15.16L67.16-28L75-28Z M92.76 0L91.44-6L78.40-6L74.76 0L67.84 0L85.96-28L92.36-28L99.24 0L92.76 0ZM81.40-10.92L90.36-10.92L88-21.72L81.40-10.92Z M130.36-28L115.80-9.72L113.88 0L107.40 0L109.36-10L102.16-28L108.64-28L113.64-15.52L123.68-28L130.36-28Z M140.28 0.48Q135 0.48 132-2.14Q129-4.76 129-9.32L129-9.32Q129-10.64 129.32-12.32L129.32-12.32L132.44-28L138.96-28L135.84-12.44Q135.60-11.12 135.60-10.08L135.60-10.08Q135.60-7.56 136.98-6.30Q138.36-5.04 141-5.04L141-5.04Q143.96-5.04 145.72-6.80Q147.48-8.56 148.28-12.44L148.28-12.44L151.40-28L157.76-28L154.60-12.04Q152.04 0.48 140.28 0.48L140.28 0.48Z M163.92 0L168.44-22.72L159.48-22.72L160.56-28L184.96-28L183.88-22.72L174.96-22.72L170.40 0L163.92 0Z"/></g>
</svg>
</g><g opacity="1" transform="rotate(0 200.8049 402.4093)">
<svg width="361.029" height="19.2" x="200.8049" y="402.4093" version="1.1" preserveAspectRatio="none" viewBox="1.76 -30.88 731.8399999999999 38.92">
  <g transform="matrix(1 0 0 1 0 0)" class="text"><path id="id-6izo4zJp30" d="M16.72 0.40Q12.48 0.40 9.06-1.46Q5.64-3.32 3.70-6.60Q1.76-9.88 1.76-14L1.76-14Q1.76-18.12 3.72-21.40Q5.68-24.68 9.10-26.54Q12.52-28.40 16.76-28.40L16.76-28.40Q20.20-28.40 23.04-27.20Q25.88-26 27.84-23.72L27.84-23.72L24.48-20.56Q21.44-23.84 17-23.84L17-23.84Q14.12-23.84 11.84-22.58Q9.56-21.32 8.28-19.08Q7-16.84 7-14L7-14Q7-11.16 8.28-8.92Q9.56-6.68 11.84-5.42Q14.12-4.16 17-4.16L17-4.16Q21.44-4.16 24.48-7.48L24.48-7.48L27.84-4.28Q25.88-2 23.02-0.80Q20.16 0.40 16.72 0.40L16.72 0.40Z M41.96 0.28Q38.72 0.28 36.12-1.12Q33.52-2.52 32.06-5.02Q30.60-7.52 30.60-10.68L30.60-10.68Q30.60-13.84 32.06-16.32Q33.52-18.80 36.12-20.20Q38.72-21.60 41.96-21.60L41.96-21.60Q45.24-21.60 47.84-20.20Q50.44-18.80 51.90-16.32Q53.36-13.84 53.36-10.68L53.36-10.68Q53.36-7.52 51.90-5.02Q50.44-2.52 47.84-1.12Q45.24 0.28 41.96 0.28L41.96 0.28ZM41.96-4Q44.72-4 46.52-5.84Q48.32-7.68 48.32-10.68L48.32-10.68Q48.32-13.68 46.52-15.52Q44.72-17.36 41.96-17.36L41.96-17.36Q39.20-17.36 37.42-15.52Q35.64-13.68 35.64-10.68L35.64-10.68Q35.64-7.68 37.42-5.84Q39.20-4 41.96-4L41.96-4Z M85.92-21.60Q89.96-21.60 92.32-19.26Q94.68-16.92 94.68-12.24L94.68-12.24L94.68 0L89.68 0L89.68-11.60Q89.68-14.40 88.44-15.82Q87.20-17.24 84.88-17.24L84.88-17.24Q82.36-17.24 80.84-15.58Q79.32-13.92 79.32-10.84L79.32-10.84L79.32 0L74.32 0L74.32-11.60Q74.32-14.40 73.08-15.82Q71.84-17.24 69.52-17.24L69.52-17.24Q66.96-17.24 65.46-15.60Q63.96-13.96 63.96-10.84L63.96-10.84L63.96 0L58.96 0L58.96-21.36L63.72-21.36L63.72-18.64Q64.92-20.08 66.72-20.84Q68.52-21.60 70.72-21.60L70.72-21.60Q73.12-21.60 74.98-20.70Q76.84-19.80 77.92-18.04L77.92-18.04Q79.24-19.72 81.32-20.66Q83.40-21.60 85.92-21.60L85.92-21.60Z M128.84-21.60Q132.88-21.60 135.24-19.26Q137.60-16.92 137.60-12.24L137.60-12.24L137.60 0L132.60 0L132.60-11.60Q132.60-14.40 131.36-15.82Q130.12-17.24 127.80-17.24L127.80-17.24Q125.28-17.24 123.76-15.58Q122.24-13.92 122.24-10.84L122.24-10.84L122.24 0L117.24 0L117.24-11.60Q117.24-14.40 116-15.82Q114.76-17.24 112.44-17.24L112.44-17.24Q109.88-17.24 108.38-15.60Q106.88-13.96 106.88-10.84L106.88-10.84L106.88 0L101.88 0L101.88-21.36L106.64-21.36L106.64-18.64Q107.84-20.08 109.64-20.84Q111.44-21.60 113.64-21.60L113.64-21.60Q116.04-21.60 117.90-20.70Q119.76-19.80 120.84-18.04L120.84-18.04Q122.16-19.72 124.24-20.66Q126.32-21.60 128.84-21.60L128.84-21.60Z M160.48-21.36L165.48-21.36L165.48 0L160.72 0L160.72-2.72Q159.52-1.28 157.72-0.50Q155.92 0.28 153.84 0.28L153.84 0.28Q149.56 0.28 147.10-2.10Q144.64-4.48 144.64-9.16L144.64-9.16L144.64-21.36L149.64-21.36L149.64-9.84Q149.64-6.96 150.94-5.54Q152.24-4.12 154.64-4.12L154.64-4.12Q157.32-4.12 158.90-5.78Q160.48-7.44 160.48-10.56L160.48-10.56L160.48-21.36Z M184.96-21.60Q189.00-21.60 191.44-19.24Q193.88-16.88 193.88-12.24L193.88-12.24L193.88 0L188.88 0L188.88-11.60Q188.88-14.40 187.56-15.82Q186.24-17.24 183.80-17.24L183.80-17.24Q181.04-17.24 179.44-15.58Q177.84-13.92 177.84-10.80L177.84-10.80L177.84 0L172.84 0L172.84-21.36L177.60-21.36L177.60-18.60Q178.84-20.08 180.72-20.84Q182.60-21.60 184.96-21.60L184.96-21.60Z M201.04 0L201.04-21.36L206.04-21.36L206.04 0L201.04 0ZM203.56-24.88Q202.20-24.88 201.28-25.74Q200.36-26.60 200.36-27.88L200.36-27.88Q200.36-29.16 201.28-30.02Q202.20-30.88 203.56-30.88L203.56-30.88Q204.92-30.88 205.84-30.06Q206.76-29.24 206.76-28L206.76-28Q206.76-26.68 205.86-25.78Q204.96-24.88 203.56-24.88L203.56-24.88Z M224.84-4.72L226.24-1.16Q225.36-0.44 224.10-0.08Q222.84 0.28 221.44 0.28L221.44 0.28Q217.92 0.28 216.00-1.56Q214.08-3.40 214.08-6.92L214.08-6.92L214.08-17.20L210.56-17.20L210.56-21.20L214.08-21.20L214.08-26.08L219.08-26.08L219.08-21.20L224.80-21.20L224.80-17.20L219.08-17.20L219.08-7.04Q219.08-5.48 219.84-4.66Q220.60-3.84 222.04-3.84L222.04-3.84Q223.72-3.84 224.84-4.72L224.84-4.72Z M245.96-21.36L250.76-21.36L240.76 1.72Q239.36 5.20 237.36 6.62Q235.36 8.04 232.52 8.04L232.52 8.04Q230.92 8.04 229.36 7.52Q227.80 7 226.80 6.08L226.80 6.08L228.80 2.40Q229.52 3.08 230.50 3.48Q231.48 3.88 232.48 3.88L232.48 3.88Q233.80 3.88 234.66 3.20Q235.52 2.52 236.24 0.92L236.24 0.92L236.60 0.08L227.28-21.36L232.48-21.36L239.20-5.56L245.96-21.36Z M267.00 7.76L267.00-29.68L271.60-29.68L271.60 7.76L267.00 7.76Z M299.04-5.60L299.04-14.32L303.96-14.32L303.96-3.16Q301.80-1.44 298.92-0.52Q296.04 0.40 293.00 0.40L293.00 0.40Q288.72 0.40 285.28-1.46Q281.84-3.32 279.88-6.60Q277.92-9.88 277.92-14L277.92-14Q277.92-18.12 279.88-21.40Q281.84-24.68 285.30-26.54Q288.76-28.40 293.08-28.40L293.08-28.40Q296.60-28.40 299.48-27.24Q302.36-26.08 304.32-23.84L304.32-23.84L301.04-20.64Q297.84-23.84 293.32-23.84L293.32-23.84Q290.36-23.84 288.06-22.60Q285.76-21.36 284.46-19.12Q283.16-16.88 283.16-14L283.16-14Q283.16-11.20 284.46-8.96Q285.76-6.72 288.06-5.44Q290.36-4.16 293.28-4.16L293.28-4.16Q296.56-4.16 299.04-5.60L299.04-5.60Z M319.28-21.60Q324.00-21.60 326.50-19.34Q329.00-17.08 329.00-12.52L329.00-12.52L329.00 0L324.28 0L324.28-2.60Q323.36-1.20 321.66-0.46Q319.96 0.28 317.56 0.28L317.56 0.28Q315.16 0.28 313.36-0.54Q311.56-1.36 310.58-2.82Q309.60-4.28 309.60-6.12L309.60-6.12Q309.60-9 311.74-10.74Q313.88-12.48 318.48-12.48L318.48-12.48L324.00-12.48L324.00-12.80Q324.00-15.04 322.66-16.24Q321.32-17.44 318.68-17.44L318.68-17.44Q316.88-17.44 315.14-16.88Q313.40-16.32 312.20-15.32L312.20-15.32L310.24-18.96Q311.92-20.24 314.28-20.92Q316.64-21.60 319.28-21.60L319.28-21.60ZM318.60-3.36Q320.48-3.36 321.94-4.22Q323.40-5.08 324.00-6.68L324.00-6.68L324.00-9.16L318.84-9.16Q314.52-9.16 314.52-6.32L314.52-6.32Q314.52-4.96 315.60-4.16Q316.68-3.36 318.60-3.36L318.60-3.36Z M363.16-21.60Q367.20-21.60 369.56-19.26Q371.92-16.92 371.92-12.24L371.92-12.24L371.92 0L366.92 0L366.92-11.60Q366.92-14.40 365.68-15.82Q364.44-17.24 362.12-17.24L362.12-17.24Q359.60-17.24 358.08-15.58Q356.56-13.92 356.56-10.84L356.56-10.84L356.56 0L351.56 0L351.56-11.60Q351.56-14.40 350.32-15.82Q349.08-17.24 346.76-17.24L346.76-17.24Q344.20-17.24 342.70-15.60Q341.20-13.96 341.20-10.84L341.20-10.84L341.20 0L336.20 0L336.20-21.36L340.96-21.36L340.96-18.64Q342.16-20.08 343.96-20.84Q345.76-21.60 347.96-21.60L347.96-21.60Q350.36-21.60 352.22-20.70Q354.08-19.80 355.16-18.04L355.16-18.04Q356.48-19.72 358.56-20.66Q360.64-21.60 363.16-21.60L363.16-21.60Z M379.12 0L379.12-21.36L384.12-21.36L384.12 0L379.12 0ZM381.64-24.88Q380.28-24.88 379.36-25.74Q378.44-26.60 378.44-27.88L378.44-27.88Q378.44-29.16 379.36-30.02Q380.28-30.88 381.64-30.88L381.64-30.88Q383.00-30.88 383.92-30.06Q384.84-29.24 384.84-28L384.84-28Q384.84-26.68 383.94-25.78Q383.04-24.88 381.64-24.88L381.64-24.88Z M403.60-21.60Q407.64-21.60 410.08-19.24Q412.52-16.88 412.52-12.24L412.52-12.24L412.52 0L407.52 0L407.52-11.60Q407.52-14.40 406.20-15.82Q404.88-17.24 402.44-17.24L402.44-17.24Q399.68-17.24 398.08-15.58Q396.48-13.92 396.48-10.80L396.48-10.80L396.48 0L391.48 0L391.48-21.36L396.24-21.36L396.24-18.60Q397.48-20.08 399.36-20.84Q401.24-21.60 403.60-21.60L403.60-21.60Z M436.32-21.36L441.08-21.36L441.08-3.24Q441.08 8.04 429.56 8.04L429.56 8.04Q426.48 8.04 423.72 7.26Q420.96 6.48 419.16 5L419.16 5L421.40 1.24Q422.80 2.40 424.94 3.10Q427.08 3.80 429.28 3.80L429.28 3.80Q432.80 3.80 434.44 2.20Q436.08 0.60 436.08-2.68L436.08-2.68L436.08-3.80Q434.80-2.40 432.96-1.68Q431.12-0.96 428.92-0.96L428.92-0.96Q425.88-0.96 423.42-2.26Q420.96-3.56 419.54-5.92Q418.12-8.28 418.12-11.32L418.12-11.32Q418.12-14.36 419.54-16.70Q420.96-19.04 423.42-20.32Q425.88-21.60 428.92-21.60L428.92-21.60Q431.24-21.60 433.14-20.84Q435.04-20.08 436.32-18.52L436.32-18.52L436.32-21.36ZM429.68-5.20Q432.52-5.20 434.34-6.90Q436.16-8.60 436.16-11.32L436.16-11.32Q436.16-14 434.34-15.68Q432.52-17.36 429.68-17.36L429.68-17.36Q426.80-17.36 424.98-15.68Q423.16-14 423.16-11.32L423.16-11.32Q423.16-8.60 424.98-6.90Q426.80-5.20 429.68-5.20L429.68-5.20Z M468.44-21.60Q473.16-21.60 475.66-19.34Q478.16-17.08 478.16-12.52L478.16-12.52L478.16 0L473.44 0L473.44-2.60Q472.52-1.20 470.82-0.46Q469.12 0.28 466.72 0.28L466.72 0.28Q464.32 0.28 462.52-0.54Q460.72-1.36 459.74-2.82Q458.76-4.28 458.76-6.12L458.76-6.12Q458.76-9 460.90-10.74Q463.04-12.48 467.64-12.48L467.64-12.48L473.16-12.48L473.16-12.80Q473.16-15.04 471.82-16.24Q470.48-17.44 467.84-17.44L467.84-17.44Q466.04-17.44 464.30-16.88Q462.56-16.32 461.36-15.32L461.36-15.32L459.40-18.96Q461.08-20.24 463.44-20.92Q465.80-21.60 468.44-21.60L468.44-21.60ZM467.76-3.36Q469.64-3.36 471.10-4.22Q472.56-5.08 473.16-6.68L473.16-6.68L473.16-9.16L468.00-9.16Q463.68-9.16 463.68-6.32L463.68-6.32Q463.68-4.96 464.76-4.16Q465.84-3.36 467.76-3.36L467.76-3.36Z M497.48-21.60Q501.52-21.60 503.96-19.24Q506.40-16.88 506.40-12.24L506.40-12.24L506.40 0L501.40 0L501.40-11.60Q501.40-14.40 500.08-15.82Q498.76-17.24 496.32-17.24L496.32-17.24Q493.56-17.24 491.96-15.58Q490.36-13.92 490.36-10.80L490.36-10.80L490.36 0L485.36 0L485.36-21.36L490.12-21.36L490.12-18.60Q491.36-20.08 493.24-20.84Q495.12-21.60 497.48-21.60L497.48-21.60Z M529.68-29.68L534.68-29.68L534.68 0L529.88 0L529.88-2.76Q528.64-1.24 526.82-0.48Q525.00 0.28 522.80 0.28L522.80 0.28Q519.72 0.28 517.26-1.08Q514.80-2.44 513.40-4.94Q512.00-7.44 512.00-10.68L512.00-10.68Q512.00-13.92 513.40-16.40Q514.80-18.88 517.26-20.24Q519.72-21.60 522.80-21.60L522.80-21.60Q524.92-21.60 526.68-20.88Q528.44-20.16 529.68-18.72L529.68-18.72L529.68-29.68ZM523.40-4Q525.20-4 526.64-4.82Q528.08-5.64 528.92-7.16Q529.76-8.68 529.76-10.68L529.76-10.68Q529.76-12.68 528.92-14.20Q528.08-15.72 526.64-16.54Q525.20-17.36 523.40-17.36L523.40-17.36Q521.60-17.36 520.16-16.54Q518.72-15.72 517.88-14.20Q517.04-12.68 517.04-10.68L517.04-10.68Q517.04-8.68 517.88-7.16Q518.72-5.64 520.16-4.82Q521.60-4 523.40-4L523.40-4Z M563.68 0.28Q560.36 0.28 557.72-1.12Q555.08-2.52 553.60-5.02Q552.12-7.52 552.12-10.68L552.12-10.68Q552.12-13.84 553.60-16.32Q555.08-18.80 557.70-20.20Q560.32-21.60 563.68-21.60L563.68-21.60Q566.84-21.60 569.22-20.32Q571.60-19.04 572.80-16.64L572.80-16.64L568.96-14.40Q568.04-15.88 566.66-16.62Q565.28-17.36 563.64-17.36L563.64-17.36Q560.84-17.36 559-15.54Q557.16-13.72 557.16-10.68L557.16-10.68Q557.16-7.64 558.98-5.82Q560.80-4 563.64-4L563.64-4Q565.28-4 566.66-4.74Q568.04-5.48 568.96-6.96L568.96-6.96L572.80-4.72Q571.56-2.32 569.18-1.02Q566.80 0.28 563.68 0.28L563.68 0.28Z M587.20 0.28Q583.96 0.28 581.36-1.12Q578.76-2.52 577.30-5.02Q575.84-7.52 575.84-10.68L575.84-10.68Q575.84-13.84 577.30-16.32Q578.76-18.80 581.36-20.20Q583.96-21.60 587.20-21.60L587.20-21.60Q590.48-21.60 593.08-20.20Q595.68-18.80 597.14-16.32Q598.60-13.84 598.60-10.68L598.60-10.68Q598.60-7.52 597.14-5.02Q595.68-2.52 593.08-1.12Q590.48 0.28 587.20 0.28L587.20 0.28ZM587.20-4Q589.96-4 591.76-5.84Q593.56-7.68 593.56-10.68L593.56-10.68Q593.56-13.68 591.76-15.52Q589.96-17.36 587.20-17.36L587.20-17.36Q584.44-17.36 582.66-15.52Q580.88-13.68 580.88-10.68L580.88-10.68Q580.88-7.68 582.66-5.84Q584.44-4 587.20-4L587.20-4Z M620.12-29.68L625.12-29.68L625.12 0L620.32 0L620.32-2.76Q619.08-1.24 617.26-0.48Q615.44 0.28 613.24 0.28L613.24 0.28Q610.16 0.28 607.70-1.08Q605.24-2.44 603.84-4.94Q602.44-7.44 602.44-10.68L602.44-10.68Q602.44-13.92 603.84-16.40Q605.24-18.88 607.70-20.24Q610.16-21.60 613.24-21.60L613.24-21.60Q615.36-21.60 617.12-20.88Q618.88-20.16 620.12-18.72L620.12-18.72L620.12-29.68ZM613.84-4Q615.64-4 617.08-4.82Q618.52-5.64 619.36-7.16Q620.20-8.68 620.20-10.68L620.20-10.68Q620.20-12.68 619.36-14.20Q618.52-15.72 617.08-16.54Q615.64-17.36 613.84-17.36L613.84-17.36Q612.04-17.36 610.60-16.54Q609.16-15.72 608.32-14.20Q607.48-12.68 607.48-10.68L607.48-10.68Q607.48-8.68 608.32-7.16Q609.16-5.64 610.60-4.82Q612.04-4 613.84-4L613.84-4Z M652.56-10.56Q652.56-10.04 652.48-9.08L652.48-9.08L635.72-9.08Q636.16-6.72 638.02-5.34Q639.88-3.96 642.64-3.96L642.64-3.96Q646.16-3.96 648.44-6.28L648.44-6.28L651.12-3.20Q649.68-1.48 647.48-0.60Q645.28 0.28 642.52 0.28L642.52 0.28Q639.00 0.28 636.32-1.12Q633.64-2.52 632.18-5.02Q630.72-7.52 630.72-10.68L630.72-10.68Q630.72-13.80 632.14-16.30Q633.56-18.80 636.08-20.20Q638.60-21.60 641.76-21.60L641.76-21.60Q644.88-21.60 647.34-20.22Q649.80-18.84 651.18-16.34Q652.56-13.84 652.56-10.56L652.56-10.56ZM641.76-17.60Q639.36-17.60 637.70-16.18Q636.04-14.76 635.68-12.40L635.68-12.40L647.80-12.40Q647.48-14.72 645.84-16.16Q644.20-17.60 641.76-17.60L641.76-17.60Z M658.64 7.76L658.64-29.68L663.24-29.68L663.24 7.76L658.64 7.76Z M703.84-23.64L688.60-23.64L688.60-15.12L702.12-15.12L702.12-10.72L688.60-10.72L688.60 0L683.40 0L683.40-28L703.84-28L703.84-23.64Z M733.60 0L728.00 0L722.28-8.20Q721.92-8.16 721.20-8.16L721.20-8.16L714.88-8.16L714.88 0L709.68 0L709.68-28L721.20-28Q724.84-28 727.54-26.80Q730.24-25.60 731.68-23.36Q733.12-21.12 733.12-18.04L733.12-18.04Q733.12-14.88 731.58-12.60Q730.04-10.32 727.16-9.20L727.16-9.20L733.60 0ZM727.88-18.04Q727.88-20.72 726.12-22.16Q724.36-23.60 720.96-23.60L720.96-23.60L714.88-23.60L714.88-12.44L720.96-12.44Q724.36-12.44 726.12-13.90Q727.88-15.36 727.88-18.04L727.88-18.04Z"/></g>
</svg>
</g><g opacity="1" transform="rotate(0 193.6083 326.4093)">
<svg width="375.4222" height="60" x="193.6083" y="326.4093" version="1.1" preserveAspectRatio="none" viewBox="3.32 -28 178.20000000000002 28.48">
  <g transform="matrix(1 0 0 1 0 0)" class="companyName"><path id="id-D6z1nYkh7" d="M15.44-28Q19.16-28 21.90-26.76Q24.64-25.52 26.12-23.24Q27.60-20.96 27.60-17.84L27.60-17.84Q27.60-14.76 26.12-12.46Q24.64-10.16 21.90-8.94Q19.16-7.72 15.44-7.72L15.44-7.72L9.80-7.72L9.80 0L3.32 0L3.32-28L15.44-28ZM15.08-13Q18-13 19.52-14.26Q21.04-15.52 21.04-17.84L21.04-17.84Q21.04-20.20 19.52-21.46Q18-22.72 15.08-22.72L15.08-22.72L9.80-22.72L9.80-13L15.08-13Z M32.20 0L32.20-28L38.68-28L38.68 0L32.20 0Z M64.48 0L55.52-11L51.76-7.08L51.76 0L45.32 0L45.32-28L51.76-28L51.76-14.92L64.16-28L71.36-28L59.76-15.52L72.04 0L64.48 0Z M94.60 0L92.12-6L79.12-6L76.64 0L70 0L82.48-28L88.88-28L101.40 0L94.60 0ZM81.20-10.92L90.08-10.92L85.64-21.64L81.20-10.92Z M126.92-28L116.04-9.92L116.04 0L109.56 0L109.56-10L98.72-28L105.60-28L113.08-15.56L120.56-28L126.92-28Z M141.68 0.48Q135.68 0.48 132.34-2.84Q129-6.16 129-12.32L129-12.32L129-28L135.48-28L135.48-12.56Q135.48-5.04 141.72-5.04L141.72-5.04Q144.76-5.04 146.36-6.86Q147.96-8.68 147.96-12.56L147.96-12.56L147.96-28L154.36-28L154.36-12.32Q154.36-6.16 151.02-2.84Q147.68 0.48 141.68 0.48L141.68 0.48Z M166.08 0L166.08-22.72L157.12-22.72L157.12-28L181.52-28L181.52-22.72L172.56-22.72L172.56 0L166.08 0Z"/></g>
</svg>
</g></svg></svg>