<svg version="1.1" preserveAspectRatio="none" xmlns="http://www.w3.org/2000/svg" width="500" height="500" viewBox="0 0 500 500"><rect width="100%" height="100%" fill="#FFFFFF" fill-opacity="1"/><svg viewBox="210.5136 227.0724 446.9013 144" width="333" height="107.29885994961305" x="83.5px" y="196.3506px" xmlns="http://www.w3.org/2000/svg" xmlns:xlink="http://www.w3.org/1999/xlink" preserveAspectRatio="none"><defs></defs><style>.companyName {fill:#0C0C0C;fill-opacity:1;}.icon3 {fill:#0C0C0C;fill-opacity:1;}.icon3-str {stroke:#0C0C0C;stroke-opacity:1;}.text {fill:#0C0C0C;fill-opacity:1;}</style><g opacity="1" transform="rotate(0 241.8769 337.0724)">
<svg width="415.538" height="24" x="241.8769" y="337.0724" version="1.1" preserveAspectRatio="none" viewBox="2.4 -25.4 600.9200000000001 34.72">
  <g transform="matrix(1 0 0 1 0 0)" class="text"><path id="id-6izo4zJp30" d="M19.48-5.44L19.48-5.24Q19.40-4.80 18.92-4.14Q18.44-3.48 17.76-2.82Q17.08-2.16 16.30-1.60Q15.52-1.04 14.84-0.84L14.84-0.84Q12.72 0.12 9.96 0.12L9.96 0.12Q9.16 0.12 8.56 0.10Q7.96 0.08 7.38-0.12Q6.80-0.32 6.20-0.76Q5.60-1.20 4.84-2.04L4.84-2.04Q4-2.92 3.52-3.78Q3.04-4.64 2.78-5.42Q2.52-6.20 2.46-6.92Q2.40-7.64 2.40-8.24L2.40-8.24Q2.40-9.60 2.76-11.48Q3.12-13.36 4.52-16L4.52-16Q5.64-18.08 5.68-18.16L5.68-18.16L8.12-19.68Q9.40-20.48 10.58-20.94Q11.76-21.40 13.16-21.40L13.16-21.40Q13.88-21.40 14.76-21.32Q15.64-21.24 16.68-21.08L16.68-21.08Q17.72-20.88 17.72-19.72L17.72-19.72Q17.72-18.64 16.40-18.48L16.40-18.48Q16.32-18.48 15.84-18.52Q15.36-18.56 14.78-18.62Q14.20-18.68 13.62-18.72Q13.04-18.76 12.80-18.76L12.80-18.76Q11.76-18.76 10.52-18.10Q9.28-17.44 7.36-15.76L7.36-15.76Q7.36-15.76 6.44-13.84L6.44-13.84Q6-12.92 5.80-12.34Q5.60-11.76 5.60-11.44L5.60-11.44Q5.20-10.68 5.20-9.08L5.20-9.08Q5.20-5.76 6.42-4.16Q7.64-2.56 9.92-2.56L9.92-2.56Q11.48-2.56 14-3.28L14-3.28Q15.76-4.36 17-6.44L17-6.44Q17.48-6.92 18.04-6.92L18.04-6.92Q18.60-6.92 19.04-6.46Q19.48-6 19.48-5.44L19.48-5.44Z M36.08-0.92L36.08-0.92Q35.32-0.40 32.04 0.28L32.04 0.28L30.36-0.04Q30.04-0.16 29.22-0.64Q28.40-1.12 27.54-2.04Q26.68-2.96 26.02-4.36Q25.36-5.76 25.36-7.68L25.36-7.68Q25.36-9.24 26.24-10.46Q27.12-11.68 28.92-13.08L28.92-13.08Q29.88-13.32 30.80-13.32L30.80-13.32Q33.48-13.32 35.72-11.52L35.72-11.52Q37.64-8.88 37.64-5.72L37.64-5.72Q37.64-3.24 36.08-0.92ZM32.44-10.68L32.44-10.68Q31.84-10.96 31.16-10.96L31.16-10.96Q30.68-10.96 30.14-10.72Q29.60-10.48 29.14-10Q28.68-9.52 28.40-8.78Q28.12-8.04 28.12-7.04L28.12-7.04Q28.12-6.24 28.34-5.44Q28.56-4.64 29.02-3.96Q29.48-3.28 30.20-2.86Q30.92-2.44 31.92-2.44L31.92-2.44Q32.84-2.44 34-2.92L34-2.92Q35-4.16 35-5.88L35-5.88Q35-9.68 32.44-10.68Z M67.12-2.24L67.12-2Q67.12-1.16 65.84-1.16L65.84-1.16Q65.24-1.16 64.94-1.68Q64.64-2.20 64.52-3Q64.40-3.80 64.38-4.78Q64.36-5.76 64.32-6.68L64.32-6.68Q64.12-7.40 63.84-9.16L63.84-9.16Q63.32-9.88 62.54-10.34Q61.76-10.80 60.80-10.80L60.80-10.80Q60.44-10.80 60-10.70Q59.56-10.60 59.08-10.46Q58.60-10.32 58.16-10.12Q57.72-9.92 57.44-9.68L57.44-9.68Q56.64-9.04 56.08-6.60L56.08-6.60Q56.12-6.40 56.12-5.84L56.12-5.84Q56.12-5.36 56.06-4.70Q56-4.04 55.92-3.20L55.92-3.20L55.92-2.92Q55.92-2.80 55.94-2.24Q55.96-1.68 55.84-1.06Q55.72-0.44 55.40 0.06Q55.08 0.56 54.44 0.56L54.44 0.56Q53.12 0.56 53.12-0.44L53.12-0.44Q53.12-0.56 53.18-1.10Q53.24-1.64 53.34-2.32Q53.44-3 53.50-3.70Q53.56-4.40 53.56-4.84L53.56-4.84Q53.56-5.68 53.44-6.36L53.44-6.36L53.44-7.12Q53.44-7.84 53.34-8.64Q53.24-9.44 53-10.14Q52.76-10.84 52.34-11.36Q51.92-11.88 51.28-12.12L51.28-12.12Q51.20-12.16 49.96-12.28L49.96-12.28Q48.92-12.04 48.20-10.96L48.20-10.96L47.24-9.08Q47.12-8.32 47.06-7.72Q47-7.12 46.96-6.60L46.96-6.60L46.84-4.76Q47.08-3.36 47.08-2.44L47.08-2.44Q47.08-1.64 46.88-1.14Q46.68-0.64 45.80-0.64L45.80-0.64Q45.36-0.64 45.08-0.74Q44.80-0.84 44.62-1.32Q44.44-1.80 44.36-2.76Q44.28-3.72 44.28-5.44L44.28-5.44Q44.28-6.80 44.46-8.14Q44.64-9.48 44.96-11.52L44.96-11.52Q44.84-12.72 44.36-13.84L44.36-13.84Q44.36-14.36 44.74-14.76Q45.12-15.16 45.76-15.16L45.76-15.16Q46.28-15.16 46.62-14.80Q46.96-14.44 47.56-13.40L47.56-13.40Q48.36-14.20 48.94-14.56Q49.52-14.92 50.16-15L50.16-15Q50.80-15 51.18-14.98Q51.56-14.96 51.90-14.86Q52.24-14.76 52.64-14.50Q53.04-14.24 53.76-13.76L53.76-13.76Q54.48-13.24 55.24-10.84L55.24-10.84Q55.44-11.12 55.86-11.56Q56.28-12 56.92-12.40Q57.56-12.80 58.48-13.08Q59.40-13.36 60.60-13.36L60.60-13.36Q61.88-13.36 62.80-13.12Q63.72-12.88 64.40-12.40Q65.08-11.92 65.58-11.20Q66.08-10.48 66.52-9.52L66.52-9.52L66.52-9.20Q66.52-8.84 66.60-7.96Q66.68-7.08 66.76-6.22Q66.84-5.36 66.92-4.72Q67-4.08 67-4.16L67-4.16Q67-4.12 67.02-3.90Q67.04-3.68 67.06-3.38Q67.08-3.08 67.10-2.76Q67.12-2.44 67.12-2.24L67.12-2.24Z M97.48-2.24L97.48-2Q97.48-1.16 96.20-1.16L96.20-1.16Q95.60-1.16 95.30-1.68Q95-2.20 94.88-3Q94.76-3.80 94.74-4.78Q94.72-5.76 94.68-6.68L94.68-6.68Q94.48-7.40 94.20-9.16L94.20-9.16Q93.68-9.88 92.90-10.34Q92.12-10.80 91.16-10.80L91.16-10.80Q90.80-10.80 90.36-10.70Q89.92-10.60 89.44-10.46Q88.96-10.32 88.52-10.12Q88.08-9.92 87.80-9.68L87.80-9.68Q87-9.04 86.44-6.60L86.44-6.60Q86.48-6.40 86.48-5.84L86.48-5.84Q86.48-5.36 86.42-4.70Q86.36-4.04 86.28-3.20L86.28-3.20L86.28-2.92Q86.28-2.80 86.30-2.24Q86.32-1.68 86.20-1.06Q86.08-0.44 85.76 0.06Q85.44 0.56 84.80 0.56L84.80 0.56Q83.48 0.56 83.48-0.44L83.48-0.44Q83.48-0.56 83.54-1.10Q83.60-1.64 83.70-2.32Q83.80-3 83.86-3.70Q83.92-4.40 83.92-4.84L83.92-4.84Q83.92-5.68 83.80-6.36L83.80-6.36L83.80-7.12Q83.80-7.84 83.70-8.64Q83.60-9.44 83.36-10.14Q83.12-10.84 82.70-11.36Q82.28-11.88 81.64-12.12L81.64-12.12Q81.56-12.16 80.32-12.28L80.32-12.28Q79.28-12.04 78.56-10.96L78.56-10.96L77.60-9.08Q77.48-8.32 77.42-7.72Q77.36-7.12 77.32-6.60L77.32-6.60L77.20-4.76Q77.44-3.36 77.44-2.44L77.44-2.44Q77.44-1.64 77.24-1.14Q77.04-0.64 76.16-0.64L76.16-0.64Q75.72-0.64 75.44-0.74Q75.16-0.84 74.98-1.32Q74.80-1.80 74.72-2.76Q74.64-3.72 74.64-5.44L74.64-5.44Q74.64-6.80 74.82-8.14Q75-9.48 75.32-11.52L75.32-11.52Q75.20-12.72 74.72-13.84L74.72-13.84Q74.72-14.36 75.10-14.76Q75.48-15.16 76.12-15.16L76.12-15.16Q76.64-15.16 76.98-14.80Q77.32-14.44 77.92-13.40L77.92-13.40Q78.72-14.20 79.30-14.56Q79.88-14.92 80.52-15L80.52-15Q81.16-15 81.54-14.98Q81.92-14.96 82.26-14.86Q82.60-14.76 83-14.50Q83.40-14.24 84.12-13.76L84.12-13.76Q84.84-13.24 85.60-10.84L85.60-10.84Q85.80-11.12 86.22-11.56Q86.64-12 87.28-12.40Q87.92-12.80 88.84-13.08Q89.76-13.36 90.96-13.36L90.96-13.36Q92.24-13.36 93.16-13.12Q94.08-12.88 94.76-12.40Q95.44-11.92 95.94-11.20Q96.44-10.48 96.88-9.52L96.88-9.52L96.88-9.20Q96.88-8.84 96.96-7.96Q97.04-7.08 97.12-6.22Q97.20-5.36 97.28-4.72Q97.36-4.08 97.36-4.16L97.36-4.16Q97.36-4.12 97.38-3.90Q97.40-3.68 97.42-3.38Q97.44-3.08 97.46-2.76Q97.48-2.44 97.48-2.24L97.48-2.24Z M118.24-14.64L118.24-14.64Q118.28-14.20 118.30-13.80Q118.32-13.40 118.32-12.96L118.32-12.96Q118.32-12 118.24-11.34Q118.16-10.68 118.04-9.86Q117.92-9.04 117.74-7.86Q117.56-6.68 117.40-4.72L117.40-4.72Q117.40-4.60 117.38-4.50Q117.36-4.40 117.36-4.28L117.36-4.28Q117.36-3.64 117.48-2.88L117.48-2.88L117.64-1.40Q117.64-0.36 116.32-0.36L116.32-0.36Q115.76-0.36 115.48-0.66Q115.20-0.96 115.08-1.38Q114.96-1.80 114.96-2.26Q114.96-2.72 114.96-3.04L114.96-3.04Q114.96-3.44 115-3.64L115-3.64Q114.04-2.68 113.30-2.14Q112.56-1.60 111.94-1.36Q111.32-1.12 110.74-1.08Q110.16-1.04 109.52-1.04L109.52-1.04Q107.36-1.04 106.22-2.24Q105.08-3.44 105.08-5.80L105.08-5.80Q105.08-6.08 105.08-6.44Q105.08-6.80 105.12-7.28L105.12-7.28Q105.08-7.44 105.08-7.80L105.08-7.80Q105.08-8.32 105.12-8.78Q105.16-9.24 105.30-9.90Q105.44-10.56 105.70-11.54Q105.96-12.52 106.40-14.08L106.40-14.08Q106.84-14.52 107.40-14.52L107.40-14.52Q107.92-14.52 108.28-14.24Q108.64-13.96 108.64-13.40L108.64-13.40Q108.64-13.20 108.50-12.56Q108.36-11.92 108.20-11.16Q108.04-10.40 107.90-9.66Q107.76-8.92 107.76-8.52L107.76-8.52L107.76-8.32Q107.68-7.76 107.62-7.28Q107.56-6.80 107.56-6.48L107.56-6.48Q107.56-5.24 108.06-4.34Q108.56-3.44 109.96-3.44L109.96-3.44Q110.88-3.44 111.68-3.84Q112.48-4.24 113.12-4.82Q113.76-5.40 114.24-6.10Q114.72-6.80 114.96-7.40L114.96-7.40Q115.04-8.16 115.24-9.22Q115.44-10.28 115.76-11.68L115.76-11.68Q115.72-11.92 115.72-12.16Q115.72-12.40 115.72-12.60L115.72-12.60Q115.72-13.08 115.78-13.58Q115.84-14.08 115.98-14.46Q116.12-14.84 116.40-15.10Q116.68-15.36 117.16-15.36L117.16-15.36Q118.04-15.36 118.24-14.64Z M138.40-4.24L138.40-4.24L138.40-3.92Q138.40-3.72 138.42-3.14Q138.44-2.56 138.32-1.96Q138.20-1.36 137.90-0.88Q137.60-0.40 136.96-0.40L136.96-0.40Q135.80-0.40 135.56-1.32L135.56-1.32Q135.60-1.64 135.62-2.02Q135.64-2.40 135.64-2.84L135.64-2.84Q135.64-3.60 135.58-4.56Q135.52-5.52 135.44-6.68L135.44-6.68L135.12-8.60Q134.96-9.56 134.60-10.10Q134.24-10.64 133.80-10.90Q133.36-11.16 132.90-11.22Q132.44-11.28 132.12-11.28L132.12-11.28Q130.92-11.28 130.08-10.58Q129.24-9.88 128.68-7.84L128.68-7.84Q128.64-7.16 128.58-6.36Q128.52-5.56 128.36-4.60L128.36-4.60Q128.44-3.16 128.60-0.92L128.60-0.92Q128.60 0.32 127.20 0.32L127.20 0.32Q126.64 0.32 126.34 0Q126.04-0.32 125.90-0.82Q125.76-1.32 125.72-1.88Q125.68-2.44 125.68-2.92L125.68-2.92Q125.68-3.36 125.72-3.80Q125.76-4.24 125.84-4.72L125.84-4.72L126.20-8.84Q126.24-9.28 126.34-9.80Q126.44-10.32 126.60-10.96L126.60-10.96Q126.48-11.84 125.88-13.04L125.88-13.04L125.88-13.20Q125.88-13.64 126.30-14.04Q126.72-14.44 127.28-14.44L127.28-14.44Q127.84-14.44 128.20-14.06Q128.56-13.68 129.12-12.80L129.12-12.80Q129.44-13.08 130.18-13.34Q130.92-13.60 131.88-13.60L131.88-13.60Q134.04-13.60 135.60-12.68Q137.16-11.76 137.60-9.40L137.60-9.40Q137.72-8.48 137.80-7.90Q137.88-7.32 137.98-6.82Q138.08-6.32 138.18-5.74Q138.28-5.16 138.40-4.24Z M150.76-18.24L150.76-18.24Q150.76-17.56 150.54-17.14Q150.32-16.72 149.96-16.52Q149.60-16.32 149.18-16.26Q148.76-16.20 148.36-16.20L148.36-16.20Q147.80-16.60 147.42-17.10Q147.04-17.60 147.04-18.08L147.04-18.08Q147.04-18.44 147.36-18.90Q147.68-19.36 147.92-19.80L147.92-19.80L149.76-19.64Q150.76-19.40 150.76-18.24ZM149.40-12.44L149.40-12.44L149.40-12.28Q149.40-11.92 149.30-11.10Q149.20-10.28 149.00-8.96L149.00-8.96Q149.04-8.76 149.04-8.40L149.04-8.40Q149.04-8.16 148.88-7.32Q148.72-6.48 148.72-5.88L148.72-5.88Q148.72-5.76 148.74-5.64Q148.76-5.52 148.76-5.44L148.76-5.44Q148.64-4.88 148.64-3.84L148.64-3.84Q148.64-3.40 148.66-2.90Q148.68-2.40 148.72-1.84L148.72-1.84Q148.40-0.68 147.48-0.68L147.48-0.68Q146.68-0.68 146.38-1.54Q146.08-2.40 146.08-3.80L146.08-3.80Q146.08-5.20 146.18-6.36Q146.28-7.52 146.44-8.54Q146.60-9.56 146.78-10.50Q146.96-11.44 147.12-12.36L147.12-12.36Q147.52-12.96 148.24-12.96L148.24-12.96Q149.00-12.96 149.40-12.44Z M167.92-14.76L167.92-14.76Q168.24-14.52 168.24-13.84L168.24-13.84Q168.24-12.64 167.24-12.64L167.24-12.64L167.08-12.64Q167.08-12.64 166.50-12.58Q165.92-12.52 165.20-12.44Q164.48-12.36 163.82-12.26Q163.16-12.16 163.04-12.08L163.04-12.08L163.04-11.68Q163.04-11.24 162.96-10.50Q162.88-9.76 162.88-9.16L162.88-9.16Q162.88-8.96 162.90-8.76Q162.92-8.56 162.96-8.36L162.96-8.36Q162.80-7.88 162.80-6.76L162.80-6.76Q162.84-5.24 162.88-4.50Q162.92-3.76 163.12-3.40Q163.32-3.04 163.80-2.84Q164.28-2.64 165.20-2.24L165.20-2.24Q166.16-1.92 166.16-1.12L166.16-1.12Q166.16-0.60 165.78-0.24Q165.40 0.12 164.80 0.12L164.80 0.12Q164.52 0.12 163.96 0Q163.40-0.12 162.82-0.34Q162.24-0.56 161.76-0.86Q161.28-1.16 161.12-1.52L161.12-1.52Q160.64-2.56 160.36-3.54Q160.08-4.52 160.08-5.60L160.08-5.60Q160.08-6.72 160.12-7.28Q160.16-7.84 160.20-8.16Q160.24-8.48 160.28-8.74Q160.32-9 160.32-9.48L160.32-9.48Q160.32-9.80 160.30-10.14Q160.28-10.48 160.28-10.80L160.28-10.80Q160.28-11.24 160.30-11.54Q160.32-11.84 160.36-12.04L160.36-12.04Q159.28-11.96 157.16-11.40L157.16-11.40Q156.52-11.40 156.04-11.72Q155.56-12.04 155.56-12.64L155.56-12.64Q155.56-12.80 155.68-13.08Q155.80-13.36 156.10-13.62Q156.40-13.88 156.94-14.06Q157.48-14.24 158.28-14.24L158.28-14.24L158.52-14.24Q159.40-14.24 160.56-14.60L160.56-14.60Q160.56-14.64 160.58-14.94Q160.60-15.24 160.62-15.62Q160.64-16 160.66-16.36Q160.68-16.72 160.68-16.88L160.68-16.88L160.68-17.08Q160.72-17.52 160.84-18.34Q160.96-19.16 161.20-19.98Q161.44-20.80 161.82-21.40Q162.20-22 162.76-22L162.76-22Q163.84-22 164.08-21.04L164.08-21.04Q164.08-20.96 163.98-20.48Q163.88-20 163.76-19.40Q163.64-18.80 163.52-18.24Q163.40-17.68 163.40-17.52L163.40-17.52Q163.40-17.44 163.36-17.08Q163.32-16.72 163.30-16.28Q163.28-15.84 163.24-15.40Q163.20-14.96 163.20-14.76L163.20-14.76Q163.12-14.76 164.28-14.88L164.28-14.88Q164.48-14.88 164.66-14.90Q164.84-14.92 165.00-14.92L165.00-14.92Q165.12-14.92 165.20-14.90Q165.28-14.88 165.36-14.88L165.36-14.88Q165.72-14.92 166.04-14.94Q166.36-14.96 166.64-14.96L166.64-14.96Q167.52-14.96 167.92-14.76Z M187.16-12.20L187.16-12.20Q187.12-11.40 186.96-10.78Q186.80-10.16 186.50-9.52Q186.20-8.88 185.82-8.14Q185.44-7.40 185.00-6.32L185.00-6.32Q184.76-4.76 184.10-3.44Q183.44-2.12 182.66-0.92Q181.88 0.28 181.12 1.42Q180.36 2.56 179.96 3.76L179.96 3.76Q179.32 4.64 178.96 5.30Q178.60 5.96 178.28 6.56Q177.96 7.16 177.52 7.78Q177.08 8.40 176.24 9.24L176.24 9.24Q176.00 9.32 175.76 9.32L175.76 9.32Q175.24 9.32 174.78 9.02Q174.32 8.72 174.32 8.28L174.32 8.28Q174.32 8.04 174.48 7.84L174.48 7.84L177.08 3.96Q177.20 3.60 177.56 2.92Q177.92 2.24 178.36 1.44Q178.80 0.64 179.20-0.14Q179.60-0.92 179.72-1.40L179.72-1.40Q179.44-1.56 179.04-1.94Q178.64-2.32 178.20-2.74Q177.76-3.16 177.34-3.54Q176.92-3.92 176.56-4.08L176.56-4.08Q175.84-5.08 175.42-5.46Q175.00-5.84 174.56-6.24Q174.12-6.64 173.54-7.42Q172.96-8.20 171.88-10L171.88-10Q171.84-10.08 171.84-10.24L171.84-10.24Q171.84-10.76 172.22-11.24Q172.60-11.72 173.16-11.72L173.16-11.72Q173.56-11.72 174.16-11.12Q174.76-10.52 175.34-9.78Q175.92-9.04 176.40-8.38Q176.88-7.72 177.00-7.56L177.00-7.56Q177.24-7.32 177.74-6.76Q178.24-6.20 178.84-5.60Q179.44-5 180.02-4.48Q180.60-3.96 180.96-3.80L180.96-3.80Q181.28-4.20 181.82-5.58Q182.36-6.96 182.96-8.44L182.96-8.44Q183.40-9.56 183.94-10.70Q184.48-11.84 184.56-12.76L184.56-12.76Q185.24-13.20 185.88-13.20L185.88-13.20Q187.00-13.20 187.16-12.20Z M217.56-12.24L217.56-12.24Q217.56-11.96 217.60-10.86Q217.64-9.76 217.64-7.80L217.64-7.80Q217.64-6.52 217.48-6.24L217.48-6.24Q217.56-5.88 217.56-5.52Q217.56-5.16 217.56-4.72L217.56-4.72Q217.56-3.84 217.46-2.86Q217.36-1.88 217.32-0.96L217.32-0.96Q217.36-0.52 217.36-0.12Q217.36 0.28 217.36 0.68L217.36 0.68Q217.36 1.16 217.38 1.74Q217.40 2.32 217.30 2.82Q217.20 3.32 216.90 3.64Q216.60 3.96 216.00 3.96L216.00 3.96Q215.40 3.96 215.10 3.58Q214.80 3.20 214.68 2.60Q214.56 2 214.56 1.26Q214.56 0.52 214.56-0.20L214.56-0.20Q214.56-1.52 214.74-3.28Q214.92-5.04 214.92-6.68L214.92-6.68Q214.92-8.24 214.68-9.56L214.68-9.56Q214.72-9.68 214.76-10.40Q214.80-11.12 214.86-11.98Q214.92-12.84 214.96-13.60Q215.00-14.36 215.08-14.56L215.08-14.56Q214.92-15.08 214.92-17.28L214.92-17.28Q214.92-17.92 214.90-18.90Q214.88-19.88 214.92-20.94Q214.96-22 215.06-23.02Q215.16-24.04 215.36-24.80L215.36-24.80Q215.52-25.40 216.28-25.40L216.28-25.40Q217.20-25.40 217.44-24.92Q217.68-24.44 217.68-23.20L217.68-23.20Q217.68-22.64 217.64-21.96Q217.60-21.28 217.52-20.44L217.52-20.44Q217.52-20.28 217.56-18.52Q217.60-16.76 217.60-14.24L217.60-14.24Q217.60-13.68 217.58-13.18Q217.56-12.68 217.56-12.24Z M245.72 2.24L245.72 2.24Q245.36 2.84 244.56 2.84L244.56 2.84Q243.92 2.84 243.62 2.62Q243.32 2.40 243.20 2Q243.08 1.60 243.08 1.06Q243.08 0.52 243.04-0.12L243.04-0.12Q243.08-0.92 243.10-1.52Q243.12-2.12 243.12-2.52L243.12-2.52L243.12-3Q240.24-0.60 238.36-0.40L238.36-0.40Q237.52-0.32 236.88-0.28Q236.24-0.24 235.80-0.20L235.80-0.20Q235.32-0.16 234.96-0.12L234.96-0.12L235.00-0.12Q233.64-0.12 232.30-0.70Q230.96-1.28 229.88-2.28Q228.80-3.28 228.14-4.62Q227.48-5.96 227.48-7.48L227.48-7.48Q227.48-8.24 227.66-9.48Q227.84-10.72 228.14-12Q228.44-13.28 228.80-14.42Q229.16-15.56 229.48-16.16L229.48-16.16Q230.08-17.24 231.60-18.64L231.60-18.64Q233.60-19.80 236.80-21.24L236.80-21.24Q237.60-21.40 238.70-21.58Q239.80-21.76 241.24-22L241.24-22Q243.76-21.80 244.86-21.20Q245.96-20.60 245.96-19.56L245.96-19.56Q245.96-18.52 244.80-18.52L244.80-18.52Q244.24-18.52 243.50-18.78Q242.76-19.04 241.96-19.08L241.96-19.08Q240.84-19.12 240.28-19.14Q239.72-19.16 239.64-19.16L239.64-19.16Q237.04-18.68 235.48-17.72L235.48-17.72Q234.52-17.56 233.56-16.74Q232.60-15.92 231.84-14.60Q231.08-13.28 230.62-11.58Q230.16-9.88 230.16-8L230.16-8Q230.16-6.08 230.94-4.82Q231.72-3.56 234.00-2.80L234.00-2.80Q234.36-2.68 234.96-2.68L234.96-2.68Q236.32-2.68 237.24-2.82Q238.16-2.96 238.90-3.28Q239.64-3.60 240.30-4.12Q240.96-4.64 241.80-5.44L241.80-5.44Q242.52-6.08 242.72-6.08L242.72-6.08Q242.84-6.08 242.88-6.04L242.88-6.04Q242.84-6.24 242.84-6.76L242.84-6.76Q242.84-7 242.84-7.24Q242.84-7.48 242.88-7.80L242.88-7.80Q242.28-8.16 241.22-8.38Q240.16-8.60 239.16-8.70Q238.16-8.80 237.46-8.82Q236.76-8.84 236.84-8.84L236.84-8.84Q236.20-9.44 236.20-10.12L236.20-10.12Q236.20-11.08 237.08-11.24L237.08-11.24L237.04-11.24Q237.04-11.32 237.80-11.16Q238.56-11 239.88-11L239.88-11Q240.28-11 240.52-11.08L240.52-11.08Q241.04-11.04 241.74-10.88Q242.44-10.72 243.10-10.50Q243.76-10.28 244.32-10.02Q244.88-9.76 245.16-9.56L245.16-9.56Q245.76-9.12 245.76-7.40L245.76-7.40Q245.76-6.32 245.44-5.48L245.44-5.48Q245.64-4.76 245.64-3L245.64-3Q245.64-1.84 245.68-1.26Q245.72-0.68 245.68-0.64L245.68-0.64Q245.60-0.40 245.60-0.20L245.60-0.20Q245.60 0.08 245.70 0.74Q245.80 1.40 245.80 1.72L245.80 1.72Q245.80 2 245.72 2.24Z M268.44-4L268.44-4Q269.00-3.64 269.00-3.12L269.00-3.12Q269.00-2.56 268.44-2.04Q267.88-1.52 267.36-1.52L267.36-1.52Q266.12-1.96 265.22-3.16Q264.32-4.36 264.00-5.76L264.00-5.76Q263.72-5.16 263.34-4.26Q262.96-3.36 262.36-2.56Q261.76-1.76 260.88-1.18Q260.00-0.60 258.68-0.60L258.68-0.60Q258.00-0.60 256.88-0.84L256.88-0.84Q255.64-1.72 254.94-2.26Q254.24-2.80 253.88-3.28Q253.52-3.76 253.44-4.36Q253.36-4.96 253.36-5.96L253.36-5.96Q253.36-6.80 253.62-7.82Q253.88-8.84 254.36-9.88Q254.84-10.92 255.56-11.92Q256.28-12.92 257.24-13.76L257.24-13.76Q259.00-14.36 260.00-14.64Q261.00-14.92 261.36-14.92L261.36-14.92Q262.16-15.84 263.04-15.84L263.04-15.84Q263.52-15.84 263.88-15.28Q264.24-14.72 264.54-13.82Q264.84-12.92 265.02-11.84Q265.20-10.76 265.32-9.76L265.32-9.76Q265.44-9.56 265.52-9.30Q265.60-9.04 265.68-8.64L265.68-8.64L265.92-7.52Q266.16-6.36 266.84-5.52Q267.52-4.68 268.44-4ZM262.80-9.28L262.80-9.28Q262.72-9.64 262.52-10.48Q262.32-11.32 262.00-12.64L262.00-12.64Q261.52-12.52 260.96-12.54Q260.40-12.56 259.76-12.32Q259.12-12.08 258.38-11.44Q257.64-10.80 256.88-9.44L256.88-9.44Q255.92-7.68 255.92-5.72L255.92-5.72Q256.16-5.20 256.36-4.82Q256.56-4.44 256.86-4.14Q257.16-3.84 257.60-3.56Q258.04-3.28 258.72-2.96L258.72-2.96Q259.32-3.08 259.74-3.24Q260.16-3.40 260.48-3.74Q260.80-4.08 261.08-4.60Q261.36-5.12 261.76-5.96L261.76-5.96Q262.80-8.28 262.80-9.28Z M296.96-2.24L296.96-2Q296.96-1.16 295.68-1.16L295.68-1.16Q295.08-1.16 294.78-1.68Q294.48-2.20 294.36-3Q294.24-3.80 294.22-4.78Q294.20-5.76 294.16-6.68L294.16-6.68Q293.96-7.40 293.68-9.16L293.68-9.16Q293.16-9.88 292.38-10.34Q291.60-10.80 290.64-10.80L290.64-10.80Q290.28-10.80 289.84-10.70Q289.40-10.60 288.92-10.46Q288.44-10.32 288.00-10.12Q287.56-9.92 287.28-9.68L287.28-9.68Q286.48-9.04 285.92-6.60L285.92-6.60Q285.96-6.40 285.96-5.84L285.96-5.84Q285.96-5.36 285.90-4.70Q285.84-4.04 285.76-3.20L285.76-3.20L285.76-2.92Q285.76-2.80 285.78-2.24Q285.80-1.68 285.68-1.06Q285.56-0.44 285.24 0.06Q284.92 0.56 284.28 0.56L284.28 0.56Q282.96 0.56 282.96-0.44L282.96-0.44Q282.96-0.56 283.02-1.10Q283.08-1.64 283.18-2.32Q283.28-3 283.34-3.70Q283.40-4.40 283.40-4.84L283.40-4.84Q283.40-5.68 283.28-6.36L283.28-6.36L283.28-7.12Q283.28-7.84 283.18-8.64Q283.08-9.44 282.84-10.14Q282.60-10.84 282.18-11.36Q281.76-11.88 281.12-12.12L281.12-12.12Q281.04-12.16 279.80-12.28L279.80-12.28Q278.76-12.04 278.04-10.96L278.04-10.96L277.08-9.08Q276.96-8.32 276.90-7.72Q276.84-7.12 276.80-6.60L276.80-6.60L276.68-4.76Q276.92-3.36 276.92-2.44L276.92-2.44Q276.92-1.64 276.72-1.14Q276.52-0.64 275.64-0.64L275.64-0.64Q275.20-0.64 274.92-0.74Q274.64-0.84 274.46-1.32Q274.28-1.80 274.20-2.76Q274.12-3.72 274.12-5.44L274.12-5.44Q274.12-6.80 274.30-8.14Q274.48-9.48 274.80-11.52L274.80-11.52Q274.68-12.72 274.20-13.84L274.20-13.84Q274.20-14.36 274.58-14.76Q274.96-15.16 275.60-15.16L275.60-15.16Q276.12-15.16 276.46-14.80Q276.80-14.44 277.40-13.40L277.40-13.40Q278.20-14.20 278.78-14.56Q279.36-14.92 280.00-15L280.00-15Q280.64-15 281.02-14.98Q281.40-14.96 281.74-14.86Q282.08-14.76 282.48-14.50Q282.88-14.24 283.60-13.76L283.60-13.76Q284.32-13.24 285.08-10.84L285.08-10.84Q285.28-11.12 285.70-11.56Q286.12-12 286.76-12.40Q287.40-12.80 288.32-13.08Q289.24-13.36 290.44-13.36L290.44-13.36Q291.72-13.36 292.64-13.12Q293.56-12.88 294.24-12.40Q294.92-11.92 295.42-11.20Q295.92-10.48 296.36-9.52L296.36-9.52L296.36-9.20Q296.36-8.84 296.44-7.96Q296.52-7.08 296.60-6.22Q296.68-5.36 296.76-4.72Q296.84-4.08 296.84-4.16L296.84-4.16Q296.84-4.12 296.86-3.90Q296.88-3.68 296.90-3.38Q296.92-3.08 296.94-2.76Q296.96-2.44 296.96-2.24L296.96-2.24Z M309.32-18.24L309.32-18.24Q309.32-17.56 309.10-17.14Q308.88-16.72 308.52-16.52Q308.16-16.32 307.74-16.26Q307.32-16.20 306.92-16.20L306.92-16.20Q306.36-16.60 305.98-17.10Q305.60-17.60 305.60-18.08L305.60-18.08Q305.60-18.44 305.92-18.90Q306.24-19.36 306.48-19.80L306.48-19.80L308.32-19.64Q309.32-19.40 309.32-18.24ZM307.96-12.44L307.96-12.44L307.96-12.28Q307.96-11.92 307.86-11.10Q307.76-10.28 307.56-8.96L307.56-8.96Q307.60-8.76 307.60-8.40L307.60-8.40Q307.60-8.16 307.44-7.32Q307.28-6.48 307.28-5.88L307.28-5.88Q307.28-5.76 307.30-5.64Q307.32-5.52 307.32-5.44L307.32-5.44Q307.20-4.88 307.20-3.84L307.20-3.84Q307.20-3.40 307.22-2.90Q307.24-2.40 307.28-1.84L307.28-1.84Q306.96-0.68 306.04-0.68L306.04-0.68Q305.24-0.68 304.94-1.54Q304.64-2.40 304.64-3.80L304.64-3.80Q304.64-5.20 304.74-6.36Q304.84-7.52 305.00-8.54Q305.16-9.56 305.34-10.50Q305.52-11.44 305.68-12.36L305.68-12.36Q306.08-12.96 306.80-12.96L306.80-12.96Q307.56-12.96 307.96-12.44Z M329.48-4.24L329.48-4.24L329.48-3.92Q329.48-3.72 329.50-3.14Q329.52-2.56 329.40-1.96Q329.28-1.36 328.98-0.88Q328.68-0.40 328.04-0.40L328.04-0.40Q326.88-0.40 326.64-1.32L326.64-1.32Q326.68-1.64 326.70-2.02Q326.72-2.40 326.72-2.84L326.72-2.84Q326.72-3.60 326.66-4.56Q326.60-5.52 326.52-6.68L326.52-6.68L326.20-8.60Q326.04-9.56 325.68-10.10Q325.32-10.64 324.88-10.90Q324.44-11.16 323.98-11.22Q323.52-11.28 323.20-11.28L323.20-11.28Q322.00-11.28 321.16-10.58Q320.32-9.88 319.76-7.84L319.76-7.84Q319.72-7.16 319.66-6.36Q319.60-5.56 319.44-4.60L319.44-4.60Q319.52-3.16 319.68-0.92L319.68-0.92Q319.68 0.32 318.28 0.32L318.28 0.32Q317.72 0.32 317.42 0Q317.12-0.32 316.98-0.82Q316.84-1.32 316.80-1.88Q316.76-2.44 316.76-2.92L316.76-2.92Q316.76-3.36 316.80-3.80Q316.84-4.24 316.92-4.72L316.92-4.72L317.28-8.84Q317.32-9.28 317.42-9.80Q317.52-10.32 317.68-10.96L317.68-10.96Q317.56-11.84 316.96-13.04L316.96-13.04L316.96-13.20Q316.96-13.64 317.38-14.04Q317.80-14.44 318.36-14.44L318.36-14.44Q318.92-14.44 319.28-14.06Q319.64-13.68 320.20-12.80L320.20-12.80Q320.52-13.08 321.26-13.34Q322.00-13.60 322.96-13.60L322.96-13.60Q325.12-13.60 326.68-12.68Q328.24-11.76 328.68-9.40L328.68-9.40Q328.80-8.48 328.88-7.90Q328.96-7.32 329.06-6.82Q329.16-6.32 329.26-5.74Q329.36-5.16 329.48-4.24Z M350.84-13.64L350.84-13.64Q350.96-13.08 350.96-12.24L350.96-12.24Q350.96-10.84 350.60-8.56L350.60-8.56Q350.64-8.40 350.64-7.92L350.64-7.92Q350.64-7.48 350.58-6.88Q350.52-6.28 350.44-5.48L350.44-5.48Q350.48-5.28 350.48-5.06Q350.48-4.84 350.48-4.56L350.48-4.56Q350.48-3.60 350.36-2.16Q350.24-0.72 350.04 1.20L350.04 1.20Q349.48 5.72 346.32 7.88L346.32 7.88Q343.96 8.72 341.44 8.72L341.44 8.72Q340.36 8.72 338.96 8.28L338.96 8.28L336.84 7.44L334.88 5.88Q334.32 5.44 334.08 5.18Q333.84 4.92 333.84 4.64L333.84 4.64Q333.84 3.96 334.22 3.52Q334.60 3.08 335.16 3.08L335.16 3.08Q335.60 3.08 336.04 3.32L336.04 3.32L338.32 5.16Q339.88 6.16 342.00 6.24L342.00 6.24Q342.32 6.24 343.52 5.92L343.52 5.92L344.96 5.56Q345.80 5.08 346.52 3.90Q347.24 2.72 347.40 1.40L347.40 1.40L347.40 1.20Q347.36 0.92 347.44 0.42Q347.52-0.08 347.60-0.84L347.60-0.84L347.88-3.60Q347.80-3.56 347.30-3.22Q346.80-2.88 345.88-2.48Q344.96-2.08 343.64-1.76Q342.32-1.44 340.68-1.44L340.68-1.44Q340.24-1.44 339.60-1.90Q338.96-2.36 337.68-3.44L337.68-3.44L336.72-5.20Q336.36-5.84 336.22-6.54Q336.08-7.24 336.08-7.92L336.08-7.92Q336.08-8.96 336.96-10.04Q337.84-11.12 339.12-12Q340.40-12.88 341.90-13.44Q343.40-14 344.68-14L344.68-14Q345.24-14 346.28-13.92Q347.32-13.84 348.24-13.20L348.24-13.20Q348.24-13.32 348.30-13.52Q348.36-13.72 348.48-13.92Q348.60-14.12 348.86-14.26Q349.12-14.40 349.56-14.40L349.56-14.40Q350.68-14.40 350.84-13.64ZM347.96-10L347.96-10.52Q347.44-11 346.72-11.18Q346.00-11.36 345.36-11.52L345.36-11.52Q344.24-11.40 342.16-10.84L342.16-10.84Q339.00-9.04 339.00-7.36L339.00-7.36Q339.00-7.08 339.22-6.62Q339.44-6.16 339.78-5.66Q340.12-5.16 340.54-4.72Q340.96-4.28 341.40-4.04L341.40-4.04Q343.04-4.04 345.40-5L345.40-5Q346.52-5.20 347.76-7L347.76-7Q347.84-7.80 347.90-8.56Q347.96-9.32 347.96-10L347.96-10Z M390.52-4L390.52-4Q391.08-3.64 391.08-3.12L391.08-3.12Q391.08-2.56 390.52-2.04Q389.96-1.52 389.44-1.52L389.44-1.52Q388.20-1.96 387.30-3.16Q386.40-4.36 386.08-5.76L386.08-5.76Q385.80-5.16 385.42-4.26Q385.04-3.36 384.44-2.56Q383.84-1.76 382.96-1.18Q382.08-0.60 380.76-0.60L380.76-0.60Q380.08-0.60 378.96-0.84L378.96-0.84Q377.72-1.72 377.02-2.26Q376.32-2.80 375.96-3.28Q375.60-3.76 375.52-4.36Q375.44-4.96 375.44-5.96L375.44-5.96Q375.44-6.80 375.70-7.82Q375.96-8.84 376.44-9.88Q376.92-10.92 377.64-11.92Q378.36-12.92 379.32-13.76L379.32-13.76Q381.08-14.36 382.08-14.64Q383.08-14.92 383.44-14.92L383.44-14.92Q384.24-15.84 385.12-15.84L385.12-15.84Q385.60-15.84 385.96-15.28Q386.32-14.72 386.62-13.82Q386.92-12.92 387.10-11.84Q387.28-10.76 387.40-9.76L387.40-9.76Q387.52-9.56 387.60-9.30Q387.68-9.04 387.76-8.64L387.76-8.64L388.00-7.52Q388.24-6.36 388.92-5.52Q389.60-4.68 390.52-4ZM384.88-9.28L384.88-9.28Q384.80-9.64 384.60-10.48Q384.40-11.32 384.08-12.64L384.08-12.64Q383.60-12.52 383.04-12.54Q382.48-12.56 381.84-12.32Q381.20-12.08 380.46-11.44Q379.72-10.80 378.96-9.44L378.96-9.44Q378.00-7.68 378.00-5.72L378.00-5.72Q378.24-5.20 378.44-4.82Q378.64-4.44 378.94-4.14Q379.24-3.84 379.68-3.56Q380.12-3.28 380.80-2.96L380.80-2.96Q381.40-3.08 381.82-3.24Q382.24-3.40 382.56-3.74Q382.88-4.08 383.16-4.60Q383.44-5.12 383.84-5.96L383.84-5.96Q384.88-8.28 384.88-9.28Z M408.84-4.24L408.84-4.24L408.84-3.92Q408.84-3.72 408.86-3.14Q408.88-2.56 408.76-1.96Q408.64-1.36 408.34-0.88Q408.04-0.40 407.40-0.40L407.40-0.40Q406.24-0.40 406.00-1.32L406.00-1.32Q406.04-1.64 406.06-2.02Q406.08-2.40 406.08-2.84L406.08-2.84Q406.08-3.60 406.02-4.56Q405.96-5.52 405.88-6.68L405.88-6.68L405.56-8.60Q405.40-9.56 405.04-10.10Q404.68-10.64 404.24-10.90Q403.80-11.16 403.34-11.22Q402.88-11.28 402.56-11.28L402.56-11.28Q401.36-11.28 400.52-10.58Q399.68-9.88 399.12-7.84L399.12-7.84Q399.08-7.16 399.02-6.36Q398.96-5.56 398.80-4.60L398.80-4.60Q398.88-3.16 399.04-0.92L399.04-0.92Q399.04 0.32 397.64 0.32L397.64 0.32Q397.08 0.32 396.78 0Q396.48-0.32 396.34-0.82Q396.20-1.32 396.16-1.88Q396.12-2.44 396.12-2.92L396.12-2.92Q396.12-3.36 396.16-3.80Q396.20-4.24 396.28-4.72L396.28-4.72L396.64-8.84Q396.68-9.28 396.78-9.80Q396.88-10.32 397.04-10.96L397.04-10.96Q396.92-11.84 396.32-13.04L396.32-13.04L396.32-13.20Q396.32-13.64 396.74-14.04Q397.16-14.44 397.72-14.44L397.72-14.44Q398.28-14.44 398.64-14.06Q399.00-13.68 399.56-12.80L399.56-12.80Q399.88-13.08 400.62-13.34Q401.36-13.60 402.32-13.60L402.32-13.60Q404.48-13.60 406.04-12.68Q407.60-11.76 408.04-9.40L408.04-9.40Q408.16-8.48 408.24-7.90Q408.32-7.32 408.42-6.82Q408.52-6.32 408.62-5.74Q408.72-5.16 408.84-4.24Z M429.12-19.96L429.12-19.96Q429.04-19.76 429.00-19.32Q428.96-18.88 428.96-18.20L428.96-18.20Q428.96-16.48 429.00-15.44Q429.04-14.40 429.04-14.16L429.04-14.16L428.92-13.48Q429.04-13.16 429.04-12.72L429.04-12.72Q429.04-12.60 429.00-12.26Q428.96-11.92 428.92-11.50Q428.88-11.08 428.84-10.64Q428.80-10.20 428.80-9.92L428.80-9.92Q428.80-9.84 428.82-9.76Q428.84-9.68 428.84-9.60L428.84-9.60Q428.64-8.68 428.40-6.40Q428.16-4.12 427.88-1.24L427.88-1.24Q427.56-0.28 426.40-0.28L426.40-0.28Q425.68-0.28 425.52-0.50Q425.36-0.72 425.12-1.28L425.12-1.28Q423.88-0.48 421.36-0.48L421.36-0.48Q420.00-0.48 418.92-0.96Q417.84-1.44 417.06-2.24Q416.28-3.04 415.86-4.14Q415.44-5.24 415.44-6.52L415.44-6.52Q415.44-7.28 415.62-8.02Q415.80-8.76 416.08-9.38Q416.36-10 416.70-10.52Q417.04-11.04 417.36-11.36L417.36-11.36Q418.16-12.20 419.70-12.92Q421.24-13.64 422.96-13.64L422.96-13.64Q424.56-13.64 426.12-12.88L426.12-12.88L426.12-13.52Q426.12-14.36 426.18-15.28Q426.24-16.20 426.32-17.28L426.32-17.28L426.16-20Q426.16-20.28 426.14-20.52Q426.12-20.76 426.12-21L426.12-21Q426.12-22.04 426.38-22.58Q426.64-23.12 427.48-23.12L427.48-23.12Q428.00-23.12 428.30-22.96Q428.60-22.80 428.74-22.42Q428.88-22.04 428.94-21.44Q429.00-20.84 429.12-19.96ZM425.88-10.12L425.88-10.12Q424.88-11.08 422.84-11.08L422.84-11.08Q421.88-11.08 421.22-10.92Q420.56-10.76 420.08-10.38Q419.60-10 419.26-9.42Q418.92-8.84 418.56-8L418.56-8Q418.28-7.28 418.28-6.44L418.28-6.44Q418.28-4.84 419.46-3.90Q420.64-2.96 422.24-2.96L422.24-2.96Q423.76-2.96 425.12-4.08L425.12-4.08Q425.32-4.84 425.58-5.92Q425.84-7 425.84-8.12L425.84-8.12Q425.84-8.36 425.82-8.66Q425.80-8.96 425.80-9.20L425.80-9.20Q425.80-9.52 425.82-9.74Q425.84-9.96 425.88-10.12Z M467.08-3.92L467.08-3.72Q466.28-2.08 464.70-1.22Q463.12-0.36 460.76-0.36L460.76-0.36Q460.24-0.36 459.08-0.56Q457.92-0.76 456.72-1.42Q455.52-2.08 454.62-3.26Q453.72-4.44 453.72-6.44L453.72-6.44Q453.72-8.20 454.24-9.82Q454.76-11.44 456.04-12.92L456.04-12.92Q456.88-13.88 457.52-14.50Q458.16-15.12 458.78-15.44Q459.40-15.76 460.14-15.88Q460.88-16 461.96-16L461.96-16Q463.16-16 463.84-15.86Q464.52-15.72 464.88-15.50Q465.24-15.28 465.34-14.98Q465.44-14.68 465.44-14.32L465.44-14.32Q465.44-12.96 463.84-12.96L463.84-12.96Q463.88-12.96 463.64-13.02Q463.40-13.08 463.04-13.18Q462.68-13.28 462.28-13.34Q461.88-13.40 461.56-13.40L461.56-13.40Q460.40-13.40 459.02-12.30Q457.64-11.20 456.84-8.88L456.84-8.88Q456.60-8.20 456.50-7.66Q456.40-7.12 456.40-6.76L456.40-6.76Q456.40-5.48 457.10-4.70Q457.80-3.92 458.70-3.50Q459.60-3.08 460.40-2.94Q461.20-2.80 461.40-2.80L461.40-2.80Q462.08-2.80 462.74-3.16Q463.40-3.52 463.92-3.94Q464.44-4.36 464.78-4.72Q465.12-5.08 465.12-5.08L465.12-5.08Q465.44-5.36 465.84-5.36L465.84-5.36Q466.36-5.36 466.72-4.88Q467.08-4.40 467.08-3.92L467.08-3.92Z M482.80-0.92L482.80-0.92Q482.04-0.40 478.76 0.28L478.76 0.28L477.08-0.04Q476.76-0.16 475.94-0.64Q475.12-1.12 474.26-2.04Q473.40-2.96 472.74-4.36Q472.08-5.76 472.08-7.68L472.08-7.68Q472.08-9.24 472.96-10.46Q473.84-11.68 475.64-13.08L475.64-13.08Q476.60-13.32 477.52-13.32L477.52-13.32Q480.20-13.32 482.44-11.52L482.44-11.52Q484.36-8.88 484.36-5.72L484.36-5.72Q484.36-3.24 482.80-0.92ZM479.16-10.68L479.16-10.68Q478.56-10.96 477.88-10.96L477.88-10.96Q477.40-10.96 476.86-10.72Q476.32-10.48 475.86-10Q475.40-9.52 475.12-8.78Q474.84-8.04 474.84-7.04L474.84-7.04Q474.84-6.24 475.06-5.44Q475.28-4.64 475.74-3.96Q476.20-3.28 476.92-2.86Q477.64-2.44 478.64-2.44L478.64-2.44Q479.56-2.44 480.72-2.92L480.72-2.92Q481.72-4.16 481.72-5.88L481.72-5.88Q481.72-9.68 479.16-10.68Z M503.76-19.96L503.76-19.96Q503.68-19.76 503.64-19.32Q503.60-18.88 503.60-18.20L503.60-18.20Q503.60-16.48 503.64-15.44Q503.68-14.40 503.68-14.16L503.68-14.16L503.56-13.48Q503.68-13.16 503.68-12.72L503.68-12.72Q503.68-12.60 503.64-12.26Q503.60-11.92 503.56-11.50Q503.52-11.08 503.48-10.64Q503.44-10.20 503.44-9.92L503.44-9.92Q503.44-9.84 503.46-9.76Q503.48-9.68 503.48-9.60L503.48-9.60Q503.28-8.68 503.04-6.40Q502.80-4.12 502.52-1.24L502.52-1.24Q502.20-0.28 501.04-0.28L501.04-0.28Q500.32-0.28 500.16-0.50Q500.00-0.72 499.76-1.28L499.76-1.28Q498.52-0.48 496.00-0.48L496.00-0.48Q494.64-0.48 493.56-0.96Q492.48-1.44 491.70-2.24Q490.92-3.04 490.50-4.14Q490.08-5.24 490.08-6.52L490.08-6.52Q490.08-7.28 490.26-8.02Q490.44-8.76 490.72-9.38Q491.00-10 491.34-10.52Q491.68-11.04 492.00-11.36L492.00-11.36Q492.80-12.20 494.34-12.92Q495.88-13.64 497.60-13.64L497.60-13.64Q499.20-13.64 500.76-12.88L500.76-12.88L500.76-13.52Q500.76-14.36 500.82-15.28Q500.88-16.20 500.96-17.28L500.96-17.28L500.80-20Q500.80-20.28 500.78-20.52Q500.76-20.76 500.76-21L500.76-21Q500.76-22.04 501.02-22.58Q501.28-23.12 502.12-23.12L502.12-23.12Q502.64-23.12 502.94-22.96Q503.24-22.80 503.38-22.42Q503.52-22.04 503.58-21.44Q503.64-20.84 503.76-19.96ZM500.52-10.12L500.52-10.12Q499.52-11.08 497.48-11.08L497.48-11.08Q496.52-11.08 495.86-10.92Q495.20-10.76 494.72-10.38Q494.24-10 493.90-9.42Q493.56-8.84 493.20-8L493.20-8Q492.92-7.28 492.92-6.44L492.92-6.44Q492.92-4.84 494.10-3.90Q495.28-2.96 496.88-2.96L496.88-2.96Q498.40-2.96 499.76-4.08L499.76-4.08Q499.96-4.84 500.22-5.92Q500.48-7 500.48-8.12L500.48-8.12Q500.48-8.36 500.46-8.66Q500.44-8.96 500.44-9.20L500.44-9.20Q500.44-9.52 500.46-9.74Q500.48-9.96 500.52-10.12Z M524.84-1.60L524.84-1.60Q523.56-0.32 521.84 0.60Q520.12 1.52 518.32 1.52L518.32 1.52Q517.56 1.52 514.84 0.96L514.84 0.96Q514.12 0.48 513.32-0.24Q512.52-0.96 511.86-1.90Q511.20-2.84 510.78-3.90Q510.36-4.96 510.36-6.12L510.36-6.12L510.36-6.08Q510.40-6.44 510.44-6.92L510.44-6.92Q510.48-7.36 510.52-7.94Q510.56-8.52 510.64-9.32L510.64-9.32Q511.44-10.60 512.30-11.84Q513.16-13.08 514.84-14.04L514.84-14.04Q517.40-14.64 518.68-14.64L518.68-14.64Q519.28-14.64 519.74-14.58Q520.20-14.52 520.62-14.30Q521.04-14.08 521.46-13.72Q521.88-13.36 522.48-12.76L522.48-12.76Q522.92-12.28 523.16-12.06Q523.40-11.84 523.52-11.72Q523.64-11.60 523.64-11.52Q523.64-11.44 523.64-11.28L523.64-11.28Q523.64-9.84 523.34-8.96Q523.04-8.08 522.22-7.52Q521.40-6.96 519.96-6.54Q518.52-6.12 516.24-5.60L516.24-5.60L516.00-5.60Q515.28-5.60 513.44-5.28L513.44-5.28Q514.88-1.04 518.04-1.04L518.04-1.04Q520.28-1.04 523.12-3.32L523.12-3.32Q523.40-3.56 523.84-3.56L523.84-3.56Q525.08-3.56 525.08-2.36L525.08-2.36Q525.08-1.96 524.84-1.60ZM521.00-10.56L521.00-10.56Q519.92-12.36 518.56-12.36L518.56-12.36Q517.96-12.36 517.28-12.20Q516.60-12.04 515.98-11.76Q515.36-11.48 514.82-11.08Q514.28-10.68 513.92-10.16L513.92-10.16Q513.76-9.84 513.62-9.24Q513.48-8.64 513.28-7.80L513.28-7.80Q514.36-8 515.66-8.08Q516.96-8.16 518.14-8.40Q519.32-8.64 520.12-9.12Q520.92-9.60 521.00-10.56Z M537.68-12.24L537.68-12.24Q537.68-11.96 537.72-10.86Q537.76-9.76 537.76-7.80L537.76-7.80Q537.76-6.52 537.60-6.24L537.60-6.24Q537.68-5.88 537.68-5.52Q537.68-5.16 537.68-4.72L537.68-4.72Q537.68-3.84 537.58-2.86Q537.48-1.88 537.44-0.96L537.44-0.96Q537.48-0.52 537.48-0.12Q537.48 0.28 537.48 0.68L537.48 0.68Q537.48 1.16 537.50 1.74Q537.52 2.32 537.42 2.82Q537.32 3.32 537.02 3.64Q536.72 3.96 536.12 3.96L536.12 3.96Q535.52 3.96 535.22 3.58Q534.92 3.20 534.80 2.60Q534.68 2 534.68 1.26Q534.68 0.52 534.68-0.20L534.68-0.20Q534.68-1.52 534.86-3.28Q535.04-5.04 535.04-6.68L535.04-6.68Q535.04-8.24 534.80-9.56L534.80-9.56Q534.84-9.68 534.88-10.40Q534.92-11.12 534.98-11.98Q535.04-12.84 535.08-13.60Q535.12-14.36 535.20-14.56L535.20-14.56Q535.04-15.08 535.04-17.28L535.04-17.28Q535.04-17.92 535.02-18.90Q535.00-19.88 535.04-20.94Q535.08-22 535.18-23.02Q535.28-24.04 535.48-24.80L535.48-24.80Q535.64-25.40 536.40-25.40L536.40-25.40Q537.32-25.40 537.56-24.92Q537.80-24.44 537.80-23.20L537.80-23.20Q537.80-22.64 537.76-21.96Q537.72-21.28 537.64-20.44L537.64-20.44Q537.64-20.28 537.68-18.52Q537.72-16.76 537.72-14.24L537.72-14.24Q537.72-13.68 537.70-13.18Q537.68-12.68 537.68-12.24Z M581.84-19L581.84-19Q581.92-18.76 581.92-18.48L581.92-18.48Q581.92-16.88 580.88-16.88L580.88-16.88Q580.76-16.88 580.28-17.02Q579.80-17.16 579.24-17.30Q578.68-17.44 578.12-17.58Q577.56-17.72 577.20-17.72L577.20-17.72L576.84-17.72Q575.48-18.04 574.24-18.20Q573.00-18.36 571.84-18.36L571.84-18.36Q571.56-18.36 571.30-18.34Q571.04-18.32 570.80-18.32L570.80-18.32Q570.56-17.56 570.42-16.82Q570.28-16.08 570.28-15.28L570.28-15.28L570.28-15Q570.24-14.56 570.22-14.04Q570.20-13.52 570.20-12.96L570.20-12.96Q570.20-12.56 570.20-12.12Q570.20-11.68 570.24-11.24L570.24-11.24L573.96-11.32Q574.00-11.32 574.50-11.36Q575.00-11.40 575.64-11.46Q576.28-11.52 576.96-11.56Q577.64-11.60 578.08-11.60L578.08-11.60Q578.76-11.60 579.08-11.24Q579.40-10.88 579.40-10.32L579.40-10.32Q579.40-9.72 579.08-9.44Q578.76-9.16 578.12-9.04Q577.48-8.92 576.50-8.90Q575.52-8.88 574.20-8.76L574.20-8.76L573.44-8.76Q572.80-8.76 572.00-8.72Q571.20-8.68 570.28-8.60L570.28-8.60L570.28-4Q570.24-3.68 570.24-3.42Q570.24-3.16 570.24-2.92L570.24-2.92Q570.24-1.04 570.72 0.08L570.72 0.08Q570.64 1.40 569.52 1.40L569.52 1.40Q568.72 1.40 568.08 0.52L568.08 0.52L567.56-1.72Q567.40-2.56 567.32-3.40Q567.24-4.24 567.24-5.08L567.24-5.08Q567.24-5.72 567.26-6.44Q567.28-7.16 567.28-8L567.28-8Q567.28-9 567.28-10.14Q567.28-11.28 567.20-12.56L567.20-12.56Q567.32-18.40 568.52-20.76L568.52-20.76Q568.76-21 569.80-21L569.80-21Q569.96-21 570.42-20.96Q570.88-20.92 571.40-20.88Q571.92-20.84 572.40-20.80Q572.88-20.76 573.12-20.76L573.12-20.76Q573.24-20.76 573.30-20.78Q573.36-20.80 573.48-20.80L573.48-20.80Q574.12-20.80 576.76-20.20L576.76-20.20Q580.60-20.12 581.84-19Z M602.12-3.24L603.32-0.96Q603.32-0.48 602.88-0.10Q602.44 0.28 602.00 0.28L602.00 0.28Q601.88 0.28 601.78 0.34Q601.68 0.40 601.48 0.24Q601.28 0.08 600.84-0.42Q600.40-0.92 599.64-2.04L599.64-2.04L597.56-5.04Q597.48-5.28 597.12-5.84Q596.76-6.40 596.34-7.06Q595.92-7.72 595.54-8.30Q595.16-8.88 595.12-9.12L595.12-9.12Q594.96-9.12 594.48-9.06Q594.00-9 593.44-8.94Q592.88-8.88 592.34-8.82Q591.80-8.76 591.56-8.76L591.56-8.76Q591.36-8.76 591.20-8.76Q591.04-8.76 590.88-8.80L590.88-8.80Q590.72-6.60 590.64-5.52Q590.56-4.44 590.56-4.52L590.56-4.52Q590.60-4.20 590.60-3.86Q590.60-3.52 590.60-3.16L590.60-3.16Q590.60-2.12 590.50-1.04Q590.40 0.04 590.20 1.20L590.20 1.20Q589.88 1.68 589.24 1.68L589.24 1.68Q588.64 1.68 588.18 1.34Q587.72 1 587.72 0.20L587.72 0.20Q587.72-0.08 587.74-0.58Q587.76-1.08 587.80-1.56Q587.84-2.04 587.86-2.44Q587.88-2.84 587.88-3L587.88-3L587.88-3.24Q587.92-3.56 588.02-5.80Q588.12-8.04 588.28-12.64L588.28-12.64Q588.28-12.92 588.38-13.52Q588.48-14.12 588.60-14.82Q588.72-15.52 588.80-16.20Q588.88-16.88 588.88-17.36L588.88-17.36Q588.88-17.64 588.86-17.90Q588.84-18.16 588.80-18.44L588.80-18.44Q588.80-18.44 588.80-18.78Q588.80-19.12 588.86-19.62Q588.92-20.12 589.04-20.66Q589.16-21.20 589.36-21.52L589.36-21.52Q589.60-21.60 589.84-21.64Q590.08-21.68 590.40-21.68L590.40-21.68Q591.12-21.68 592.08-21.36L592.08-21.36Q592.92-21.44 593.58-21.44Q594.24-21.44 594.72-21.44L594.72-21.44Q595.12-21.44 595.44-21.42Q595.76-21.40 596.10-21.36Q596.44-21.32 596.84-21.22Q597.24-21.12 597.80-20.96L597.80-20.96L599.56-19.84Q600.96-18.80 601.48-17.66Q602.00-16.52 602.00-14.76L602.00-14.76Q601.92-14.08 601.86-13.64Q601.80-13.20 601.58-12.84Q601.36-12.48 600.94-12.08Q600.52-11.68 599.80-11.08L599.80-11.08Q599.16-10.52 598.66-10.22Q598.16-9.92 597.80-9.80L597.80-9.80Q597.84-9.60 598.22-9Q598.60-8.40 599.04-7.70Q599.48-7 599.84-6.38Q600.20-5.76 600.28-5.52L600.28-5.52Q600.96-5.24 602.12-3.24L602.12-3.24ZM599.20-14.32L599.20-14.32Q599.24-14.60 599.26-14.80Q599.28-15 599.28-15.20L599.28-15.20Q599.28-15.44 599.18-15.88Q599.08-16.32 598.72-16.82Q598.36-17.32 597.70-17.88Q597.04-18.44 595.92-18.92L595.92-18.92Q595.00-19.28 594.32-19.28L594.32-19.28Q594.08-19.28 593.76-19.22Q593.44-19.16 593.04-19.08L593.04-19.08L591.64-18.84Q591.64-18.04 591.62-17.70Q591.60-17.36 591.54-16.76Q591.48-16.16 591.36-15Q591.24-13.84 591.08-11.40L591.08-11.40Q591.56-11.24 592.28-11.24L592.28-11.24Q593.24-11.24 594.36-11.50Q595.48-11.76 596.48-12.18Q597.48-12.60 598.22-13.16Q598.96-13.72 599.20-14.32Z"/></g>
</svg>
</g><g opacity="1" transform="rotate(0 241.8769 237.0724)">
<svg width="370.6074" height="80" x="241.8769" y="237.0724" version="1.1" preserveAspectRatio="none" viewBox="3.56 -22.8 116 25.04">
  <g transform="matrix(1 0 0 1 0 0)" class="companyName"><path id="id-D6z1nYkh7" d="M17.44-13.60L17.44-13.60Q17.36-12.88 17.26-12.32Q17.16-11.76 16.88-11.26Q16.60-10.76 16.14-10.22Q15.68-9.68 14.96-9L14.96-9Q13.08-7.24 10.80-6.96L10.80-6.96Q10.28-6.76 9.44-6.50Q8.60-6.24 7.44-5.92L7.44-5.92L7.56-3.32Q7.64-2.76 7.68-2.20Q7.72-1.64 7.72-0.96L7.72-0.96Q7.72-0.48 7.72 0.08Q7.72 0.64 7.58 1.12Q7.44 1.60 7.06 1.92Q6.68 2.24 5.96 2.24L5.96 2.24Q5.20 2.24 4.84 1.96Q4.48 1.68 4.36 1.18Q4.24 0.68 4.22 0Q4.20-0.68 4.08-1.44L4.08-1.44L4.08-1.40Q4.04-1.92 4-2.64L4-2.64Q3.96-3.28 3.92-4.22Q3.88-5.16 3.80-6.44L3.80-6.44L3.80-6.68Q3.80-6.92 3.78-7.32Q3.76-7.72 3.72-8.16Q3.68-8.60 3.66-8.94Q3.64-9.28 3.64-9.40L3.64-9.40Q3.64-9.64 3.66-10.26Q3.68-10.88 3.70-11.60Q3.72-12.32 3.74-12.98Q3.76-13.64 3.76-14L3.76-14Q3.76-14.64 3.70-15.16Q3.64-15.68 3.56-16.12L3.56-16.12Q3.56-16.20 3.58-16.64Q3.60-17.08 3.64-17.62Q3.68-18.16 3.76-18.70Q3.84-19.24 3.96-19.60L3.96-19.60Q5.04-20.12 6.56-20.12L6.56-20.12L6.88-20.12Q8.60-20.64 10.08-20.64L10.08-20.64Q10.64-20.64 13.24-20.16L13.24-20.16L15-19.20Q15.72-18.76 16.18-18.30Q16.64-17.84 16.92-17.20Q17.20-16.56 17.32-15.70Q17.44-14.84 17.44-13.60ZM13.68-13.04L13.68-13.04Q13.80-13.80 13.80-14.40L13.80-14.40Q13.80-15.48 12.92-16.38Q12.04-17.28 10.04-17.28L10.04-17.28Q9.12-17.28 7.24-16.64L7.24-16.64Q7.32-15.88 7.36-14.82Q7.40-13.76 7.40-12.36L7.40-12.36Q7.36-12.28 7.36-11.56L7.36-11.56Q7.36-11.20 7.36-10.70Q7.36-10.20 7.40-9.56L7.40-9.56Q7.76-9.60 8.22-9.72Q8.68-9.84 9.08-9.98Q9.48-10.12 9.76-10.24Q10.04-10.36 10.04-10.36L10.04-10.36Q12.92-11.04 13.68-13.04Z M28.44-18.84L28.44-18.84Q28.52-18.52 28.52-18.24L28.52-18.24Q28.52-16.96 27.76-16.08L27.76-16.08Q26.56-15.60 25.36-15.60L25.36-15.60Q24.60-16.08 24.10-16.70Q23.60-17.32 23.60-17.92L23.60-17.92Q23.60-18.44 24.80-20.48L24.80-20.48Q25.32-20.40 25.90-20.36Q26.48-20.32 26.98-20.16Q27.48-20 27.86-19.70Q28.24-19.40 28.44-18.84ZM27.16-12.16L27.16-12.16L27.16-11.64Q27.16-11.44 27.16-11.20Q27.16-10.96 27.08-10.76L27.08-10.76L26.76-8.96L26.76-8.60Q26.76-8.36 26.72-7.96Q26.68-7.56 26.62-7.16Q26.56-6.76 26.52-6.40Q26.48-6.04 26.48-5.80L26.48-5.80Q26.48-5.60 26.50-5.48Q26.52-5.36 26.52-5.16L26.52-5.16Q26.52-4.80 26.44-4.38Q26.36-3.96 26.36-3.44L26.36-3.44Q26.36-2.96 26.48-2.44L26.48-2.44Q26.04-0.64 24.64-0.64L24.64-0.64Q22.68-0.64 22.68-4.32L22.68-4.32Q22.68-5.56 22.80-6.78Q22.92-8 23.08-9.04Q23.24-10.08 23.42-10.86Q23.60-11.64 23.72-12.08L23.72-12.08Q24.32-12.96 25.40-12.96L25.40-12.96Q26.44-12.96 27.16-12.16Z M47.04-3.48L47.04-3.48Q47.08-3.32 47.10-3.20Q47.12-3.08 47.12-2.92L47.12-2.92Q47.12-2.08 46.60-1.56Q46.08-1.04 45.40-1.04L45.40-1.04Q44.80-1.04 44.32-1.56Q43.84-2.08 43.30-2.88Q42.76-3.68 42.08-4.64Q41.40-5.60 40.40-6.48L40.40-6.48Q40.24-6.64 39.80-6.94Q39.36-7.24 38.68-7.72L38.68-7.72L38.44-7.60Q38.36-7.32 38.32-6.92L38.32-6.92Q38.20-6.24 38.20-5.12L38.20-5.12Q38.20-4.80 38.28-4.40L38.28-4.40Q38.28-4.32 38.26-4.24Q38.24-4.16 38.24-4.04L38.24-4.04Q38.24-3.68 38.26-3.10Q38.28-2.52 38.32-1.98Q38.36-1.44 38.38-1.04Q38.40-0.64 38.40-0.68L38.40-0.68Q38.40 0 37.80 0.36Q37.20 0.72 36.48 0.72L36.48 0.72Q35.44 0.72 35.10-0.28Q34.76-1.28 34.76-3.68L34.76-3.68Q34.76-5.28 34.88-6.58Q35-7.88 35-8.88L35-8.88L35-9.56Q35-9.76 35.06-10.24Q35.12-10.72 35.18-11.32Q35.24-11.92 35.30-12.54Q35.36-13.16 35.36-13.60L35.36-13.60L35.36-14.04Q35.40-14.16 35.48-15.12Q35.56-16.08 35.76-17.34Q35.96-18.60 36.26-19.94Q36.56-21.28 37-22.20L37-22.20Q37.28-22.80 38.24-22.80L38.24-22.80Q40.04-22.80 40.04-21.40L40.04-21.40Q40.04-21.08 39.88-20.20Q39.72-19.32 39.54-18.30Q39.36-17.28 39.22-16.32Q39.08-15.36 39.08-14.88L39.08-14.88Q39-14.76 38.72-11.88L38.72-11.88Q39.32-12.28 39.82-12.70Q40.32-13.12 40.88-13.56Q41.44-14 42.20-14.50Q42.96-15 44.08-15.64L44.08-15.64Q44.16-15.64 44.20-15.66Q44.24-15.68 44.32-15.68L44.32-15.68Q44.92-15.68 45.52-15.12Q46.12-14.56 46.12-13.84L46.12-13.84Q46.12-13.40 46.08-13.22Q46.04-13.04 45.74-12.80Q45.44-12.56 44.76-12.16Q44.08-11.76 42.84-10.92L42.84-10.92Q42.76-10.72 41.52-10L41.52-10Q42-9.60 42.14-9.48Q42.28-9.36 42.52-9.10Q42.76-8.84 43.34-8.22Q43.92-7.60 45.32-6.20L45.32-6.20Q46.08-5.16 47.04-3.48Z M65.84-4.72L65.84-4.72Q66.56-4.24 66.56-3.56L66.56-3.56Q66.56-3.20 66.36-2.82Q66.16-2.44 65.84-2.14Q65.52-1.84 65.16-1.64Q64.80-1.44 64.44-1.44L64.44-1.44Q64.12-1.56 63.68-1.86Q63.24-2.16 62.80-2.54Q62.36-2.92 61.98-3.40Q61.60-3.88 61.40-4.36L61.40-4.36L61.12-3.68Q60.36-2.24 58.72-0.96L58.72-0.96Q56.72-0.60 56.40-0.60L56.40-0.60Q55.64-0.60 54.56-0.84L54.56-0.84L52.36-2.40Q50.92-3.76 50.92-6.12L50.92-6.12Q50.92-6.96 51.18-7.98Q51.44-9 51.94-10.04Q52.44-11.08 53.16-12.08Q53.88-13.08 54.84-13.88L54.84-13.88Q56.00-14.32 57.08-14.62Q58.16-14.92 58.72-15L58.72-15Q59.48-15.84 60.52-15.84L60.52-15.84Q61.12-15.84 61.58-15.26Q62.04-14.68 62.38-13.80Q62.72-12.92 62.92-11.86Q63.12-10.80 63.20-9.84L63.20-9.84L63.72-7.72Q63.96-6.72 64.50-6Q65.04-5.28 65.84-4.72ZM59.76-9.16L59.76-9.16Q59.68-9.20 59.16-11.68L59.16-11.68Q58.96-11.68 58.56-11.68Q58.16-11.68 57.62-11.46Q57.08-11.24 56.46-10.70Q55.84-10.16 55.28-9.08L55.28-9.08Q54.44-7.52 54.44-5.96L54.44-5.96Q55.12-4.64 56.56-3.88L56.56-3.88Q57.00-4 57.30-4.16Q57.60-4.32 57.84-4.60Q58.08-4.88 58.30-5.30Q58.52-5.72 58.80-6.36L58.80-6.36Q59.32-7.28 59.54-7.98Q59.76-8.68 59.76-9.16Z M86.56-19.48L86.56-19.28Q86.24-18.48 86-18.06Q85.76-17.64 85.44-17.26Q85.12-16.88 84.58-16.34Q84.04-15.80 83.08-14.80L83.08-14.80Q82.28-13.96 81.78-13.42Q81.28-12.88 80.82-12.44Q80.36-12 79.84-11.50Q79.32-11 78.52-10.24L78.52-10.24Q78.52-9.68 78.48-8.88Q78.44-8.08 78.44-7.04L78.44-7.04Q78.44-6.68 78.48-6.18Q78.52-5.68 78.58-5.20Q78.64-4.72 78.68-4.30Q78.72-3.88 78.72-3.64L78.72-3.64L78.72-2.52Q78.72-1.04 78.88-0.12L78.88-0.12Q78.56 1.08 77 1.08L77 1.08Q76.32 1.08 75.94 0.68Q75.56 0.28 75.36-0.38Q75.16-1.04 75.10-1.90Q75.04-2.76 75.04-3.72L75.04-3.72Q75.04-4.04 75.06-4.28Q75.08-4.52 75.12-4.72L75.12-4.72Q75.04-6.44 74.98-7.60Q74.92-8.76 74.92-9.36L74.92-9.36L74.92-9.80Q74.32-10.44 73.40-11.48Q72.48-12.52 71.24-13.92L71.24-13.92Q71.04-14.32 70.60-14.92Q70.16-15.52 69.70-16.10Q69.24-16.68 68.90-17.18Q68.56-17.68 68.56-17.92L68.56-17.92Q68.56-18.60 69.14-19.24Q69.72-19.88 70.52-19.88L70.52-19.88Q70.88-19.88 71.10-19.78Q71.32-19.68 71.54-19.46Q71.76-19.24 72.02-18.86Q72.28-18.48 72.72-17.92L72.72-17.92Q73.16-17.36 73.46-16.92Q73.76-16.48 73.96-16.16L73.96-16.16Q74.08-16.04 74.46-15.64Q74.84-15.24 75.28-14.78Q75.72-14.32 76.10-13.92Q76.48-13.52 76.64-13.40L76.64-13.40Q77.08-13.80 77.76-14.36Q78.44-14.92 79.36-15.68L79.36-15.68Q79.52-16 80.16-16.92Q80.80-17.84 81.62-18.86Q82.44-19.88 83.24-20.74Q84.04-21.60 84.52-21.84L84.52-21.84Q84.80-21.72 85.16-21.46Q85.52-21.20 85.84-20.86Q86.16-20.52 86.36-20.16Q86.56-19.80 86.56-19.48L86.56-19.48Z M103.32-14.36L103.32-14.36Q103.40-13.88 103.40-13.40Q103.40-12.92 103.40-12.48L103.40-12.48Q103.40-10.64 103-9.16L103-9.16Q102.84-8.16 102.76-7.10Q102.68-6.04 102.60-4.88L102.60-4.88Q102.60-4.80 102.70-4.02Q102.80-3.24 102.80-1.72L102.80-1.72Q102.80-1.04 102.26-0.70Q101.72-0.36 101.00-0.36L101.00-0.36Q100.12-0.36 99.76-0.74Q99.40-1.12 99.32-2.56L99.32-2.56Q98.64-1.92 98.00-1.58Q97.36-1.24 96.78-1.08Q96.20-0.92 95.70-0.88Q95.20-0.84 94.76-0.84L94.76-0.84Q92.48-0.84 91.32-2.20Q90.16-3.56 90.16-5.96L90.16-5.96Q90.16-6.24 90.16-6.54Q90.16-6.84 90.20-7.24L90.20-7.24Q90.16-7.32 90.16-7.60L90.16-7.60Q90.16-8.04 90.18-8.50Q90.20-8.96 90.32-9.64Q90.44-10.32 90.70-11.34Q90.96-12.36 91.44-13.96L91.44-13.96Q91.96-14.60 92.84-14.60L92.84-14.60Q93.52-14.60 94.02-14.24Q94.52-13.88 94.52-13.12L94.52-13.12Q94.52-12.92 94.40-12.32Q94.28-11.72 94.12-11Q93.96-10.28 93.84-9.56Q93.72-8.84 93.72-8.44L93.72-8.44L93.72-8.24Q93.64-7.80 93.60-7.38Q93.56-6.96 93.56-6.60L93.56-6.60Q93.56-5.56 93.86-4.88Q94.16-4.20 95.16-4.20L95.16-4.20Q95.88-4.20 96.52-4.54Q97.16-4.88 97.70-5.38Q98.24-5.88 98.64-6.46Q99.04-7.04 99.24-7.56L99.24-7.56Q99.44-9.04 99.96-11.44L99.96-11.44L99.96-11.84Q99.96-12.52 100.02-13.16Q100.08-13.80 100.26-14.30Q100.44-14.80 100.80-15.10Q101.16-15.40 101.80-15.40L101.80-15.40Q103-15.40 103.32-14.36Z M119.12-15.08L119.12-15.08Q119.56-14.72 119.56-13.76L119.56-13.76Q119.56-12 118.24-12L118.24-12L118.08-12Q117.48-11.96 116.68-11.90Q115.88-11.84 114.88-11.72L114.88-11.72Q114.80-11.08 114.72-10.02Q114.64-8.96 114.64-7.48L114.64-7.48Q114.64-7.36 114.66-7.24Q114.68-7.12 114.68-6.96L114.68-6.96L114.68-5.12Q114.68-4.48 114.90-4.10Q115.12-3.72 115.44-3.56L115.44-3.56L116.56-3.20Q117.88-2.76 117.88-1.60L117.88-1.60Q117.88-0.92 117.34-0.40Q116.80 0.12 115.96 0.12L115.96 0.12Q115.72 0.12 115.14-0.02Q114.56-0.16 113.94-0.40Q113.32-0.64 112.78-1Q112.24-1.36 112.04-1.80L112.04-1.80Q111.60-2.72 111.32-3.74Q111.04-4.76 111.04-5.88L111.04-5.88Q111.04-7.12 111.08-7.64Q111.12-8.16 111.16-8.56Q111.20-8.96 111.24-9.52Q111.28-10.08 111.28-11.36L111.28-11.36Q110.52-11.28 109.04-10.88L109.04-10.88Q108.16-10.88 107.54-11.34Q106.92-11.80 106.92-12.56L106.92-12.56Q106.92-13.12 107.26-13.60Q107.60-14.08 108.68-14.44L108.68-14.44Q109.04-14.56 109.34-14.60Q109.64-14.64 109.94-14.68Q110.24-14.72 110.60-14.74Q110.96-14.76 111.48-14.84L111.48-14.84Q111.52-15.84 111.62-17.10Q111.72-18.36 111.98-19.44Q112.24-20.52 112.74-21.26Q113.24-22 114.08-22L114.08-22Q115.52-22 115.84-20.68L115.84-20.68Q115.84-20.64 115.74-20.14Q115.64-19.64 115.52-19.04Q115.40-18.44 115.30-17.88Q115.20-17.32 115.20-17.16L115.20-17.16L115.08-15.20Q115.36-15.24 115.60-15.26Q115.84-15.28 116.12-15.28L116.12-15.28L116.48-15.28Q116.76-15.28 117.00-15.30Q117.24-15.32 117.44-15.32L117.44-15.32Q118.64-15.32 119.12-15.08Z"/></g>
</svg>
</g><g opacity="1" transform="rotate(0 210.5136 227.0724)">
<svg width="11.3633" height="144" x="210.5136" y="227.0724" version="1.1" preserveAspectRatio="none" viewBox="6.48 -25.44 2.3200000000000003 29.4">
  <g transform="matrix(1 0 0 1 0 0)" class="icon3"><path id="id-lXek8z7fT1" d="M8.68-12.24L8.68-12.24Q8.68-12 8.74-11Q8.80-10 8.80-8.16L8.80-8.16Q8.80-6.80 8.60-6.32L8.60-6.32Q8.68-5.96 8.68-5.58Q8.68-5.20 8.68-4.76L8.68-4.76Q8.68-3.84 8.58-2.86Q8.48-1.88 8.44-0.96L8.44-0.96Q8.48-0.48 8.48-0.02Q8.48 0.44 8.48 0.88L8.48 0.88Q8.48 1.36 8.48 1.90Q8.48 2.44 8.42 2.90Q8.36 3.36 8.18 3.66Q8 3.96 7.64 3.96L7.64 3.96Q7 3.96 6.84 3.72L6.84 3.72Q6.48 2.24 6.48-0.04L6.48-0.04Q6.48-1.40 6.66-3.12Q6.84-4.84 6.84-6.56L6.84-6.56Q6.84-8.08 6.60-9.52L6.60-9.52Q6.60-9.60 6.64-10.30Q6.68-11 6.72-11.88Q6.76-12.76 6.84-13.54Q6.92-14.32 7.04-14.56L7.04-14.56Q6.84-15.36 6.84-17.48L6.84-17.48Q6.84-18.12 6.84-18.82Q6.84-19.52 6.86-20.40Q6.88-21.28 6.98-22.42Q7.08-23.56 7.28-25.16L7.28-25.16Q7.32-25.44 7.84-25.44L7.84-25.44Q8.60-25.44 8.70-25.04Q8.80-24.64 8.80-23.72L8.80-23.72Q8.80-23.12 8.76-22.32Q8.72-21.52 8.64-20.48L8.64-20.48Q8.68-19.20 8.68-17.14Q8.68-15.08 8.68-12.24Z"/></g>
</svg>
</g></svg></svg>