<svg version="1.1" preserveAspectRatio="none" xmlns="http://www.w3.org/2000/svg" width="500" height="500" viewBox="0 0 500 500"><rect width="100%" height="100%" fill="#F5E7E0" fill-opacity="1"/><svg viewBox="17.6319 233.5793 479.318 304.3792" width="333" height="211.4635244242862" x="83.5px" y="144.2682px" xmlns="http://www.w3.org/2000/svg" xmlns:xlink="http://www.w3.org/1999/xlink" preserveAspectRatio="none"><defs></defs><style>.companyName {fill:#C66358;fill-opacity:1;}.icon1 {fill:#C66358;fill-opacity:1;}.icon2 {fill:#E3BBA7;fill-opacity:1;}.icon3 {fill:#985A55;fill-opacity:1;}.icon3-str {stroke:#985A55;stroke-opacity:1;}.text {fill:#C66358;fill-opacity:1;}</style><g opacity="1" transform="rotate(0 184.7012 233.5793)">
<svg width="145.1792" height="145.1792" x="184.7012" y="233.5793" version="1.1" preserveAspectRatio="none" viewBox="20 20 160 160">
  <g transform="matrix(1 0 0 1 0 0)" ><g><path d="M120.8 113.7c0 18.6-15 33.6-33.6 33.6s-33.6-15.1-33.6-33.6 15-33.6 33.6-33.6 33.6 15.1 33.6 33.6z" data-color="1" class="icon1"></path><path d="M100 20c-44.2 0-80 35.8-80 80s35.8 80 80 80 80-35.8 80-80-35.8-80-80-80zm-.3 132.6c-29.2 0-52.9-23.7-52.9-52.9s23.7-52.9 52.9-52.9 52.9 23.7 52.9 52.9-23.7 52.9-52.9 52.9z" data-color="2" class="icon2"></path><path d="M99.6 152.5c-29.2 0-52.9-23.6-52.9-52.6v52.6h105.7V99.9c.1 29.1-23.6 52.6-52.8 52.6z" data-color="3" class="icon3"></path><path d="M99.6 46.8l-52.4.1-.4 53c0-29.1 23.6-53.1 52.8-53.1z" data-color="3" class="icon3"></path><path d="M99.6 46.8c29.2 0 52.9 24.1 52.9 53.1V46.8H99.6z" data-color="3" class="icon3"></path></g></g>
</svg>
</g><g opacity="1" transform="rotate(0 17.6319 512.7585)">
<svg width="479.318" height="25.2" x="17.6319" y="512.7585" version="1.1" preserveAspectRatio="none" viewBox="2.72 -29.2 718.8399999999999 37.8">
  <g transform="matrix(1 0 0 1 0 0)" class="text"><path id="id-6izo4zJp30" d="M25.60-6.76Q24.36-3.40 21.52-1.50Q18.68 0.40 14.96 0.40L14.96 0.40Q11.24 0.40 8.48-1.26Q5.72-2.92 4.22-5.98Q2.72-9.04 2.72-13.20L2.72-13.20Q2.72-17.32 4.22-20.40Q5.72-23.48 8.48-25.14Q11.24-26.80 14.88-26.80L14.88-26.80Q18.68-26.80 21.26-25.24Q23.84-23.68 25.12-20.64L25.12-20.64L21.96-19.16Q21.08-21.48 19.40-22.64Q17.72-23.80 15.12-23.80L15.12-23.80Q12.40-23.80 10.36-22.54Q8.32-21.28 7.20-18.88Q6.08-16.48 6.08-13.20L6.08-13.20Q6.08-8.24 8.46-5.42Q10.84-2.60 14.96-2.60L14.96-2.60Q17.64-2.60 19.60-3.96Q21.56-5.32 22.40-7.96L22.40-7.96L25.60-6.76Z M41.60-20.40Q46.12-20.40 48.70-17.64Q51.28-14.88 51.28-10L51.28-10Q51.28-5.12 48.70-2.36Q46.12 0.40 41.60 0.40L41.60 0.40Q37.08 0.40 34.50-2.36Q31.92-5.12 31.92-10L31.92-10Q31.92-14.88 34.50-17.64Q37.08-20.40 41.60-20.40L41.60-20.40ZM41.60-17.64Q38.56-17.64 36.84-15.60Q35.12-13.56 35.12-10L35.12-10Q35.12-6.44 36.84-4.40Q38.56-2.36 41.60-2.36L41.60-2.36Q44.64-2.36 46.36-4.40Q48.08-6.44 48.08-10L48.08-10Q48.08-13.56 46.36-15.60Q44.64-17.64 41.60-17.64L41.60-17.64Z M82.72-20.40Q84.72-20.40 86.46-19.58Q88.20-18.76 89.28-17.04Q90.36-15.32 90.36-12.80L90.36-12.80L90.36 0L87.16 0L87.16-12.48Q87.16-15.08 85.86-16.34Q84.56-17.60 82.44-17.60L82.44-17.60Q80.84-17.60 79.50-16.82Q78.16-16.04 77.34-14.54Q76.52-13.04 76.52-10.96L76.52-10.96L76.52 0L73.32 0L73.32-12.48Q73.32-15.08 72.02-16.34Q70.72-17.60 68.60-17.60L68.60-17.60Q67.16-17.60 65.80-16.86Q64.44-16.12 63.56-14.56Q62.68-13 62.68-10.68L62.68-10.68L62.68 0L59.48 0L59.48-20L62.28-20L62.48-16.88Q63.52-18.64 65.22-19.52Q66.92-20.40 68.88-20.40L68.88-20.40Q71.08-20.40 72.94-19.40Q74.80-18.40 75.76-16.48L75.76-16.48Q76.64-18.40 78.64-19.40Q80.64-20.40 82.72-20.40L82.72-20.40Z M122.84-20.40Q124.84-20.40 126.58-19.58Q128.32-18.76 129.40-17.04Q130.48-15.32 130.48-12.80L130.48-12.80L130.48 0L127.28 0L127.28-12.48Q127.28-15.08 125.98-16.34Q124.68-17.60 122.56-17.60L122.56-17.60Q120.96-17.60 119.62-16.82Q118.28-16.04 117.46-14.54Q116.64-13.04 116.64-10.96L116.64-10.96L116.64 0L113.44 0L113.44-12.48Q113.44-15.08 112.14-16.34Q110.84-17.60 108.72-17.60L108.72-17.60Q107.28-17.60 105.92-16.86Q104.56-16.12 103.68-14.56Q102.80-13 102.80-10.68L102.80-10.68L102.80 0L99.60 0L99.60-20L102.40-20L102.60-16.88Q103.64-18.64 105.34-19.52Q107.04-20.40 109-20.40L109-20.40Q111.20-20.40 113.06-19.40Q114.92-18.40 115.88-16.48L115.88-16.48Q116.76-18.40 118.76-19.40Q120.76-20.40 122.84-20.40L122.84-20.40Z M153.84-20L157.04-20L157.04 0L154.24 0L154.04-3.04Q152.04 0.40 146.88 0.40L146.88 0.40Q143.64 0.40 141.58-1.40Q139.52-3.20 139.52-6.92L139.52-6.92L139.52-20L142.72-20L142.72-7.76Q142.72-4.84 143.92-3.62Q145.12-2.40 147.44-2.40L147.44-2.40Q150.20-2.40 152.02-4.08Q153.84-5.76 153.84-9.12L153.84-9.12L153.84-20Z M176.20-20.40Q179.60-20.40 181.80-18.44Q184-16.48 184-12.80L184-12.80L184 0L180.80 0L180.80-11.68Q180.80-14.80 179.46-16.20Q178.12-17.60 175.88-17.60L175.88-17.60Q174.28-17.60 172.88-16.90Q171.48-16.20 170.58-14.62Q169.68-13.04 169.68-10.64L169.68-10.64L169.68 0L166.48 0L166.48-20L169.28-20L169.48-16.88Q170.48-18.68 172.24-19.54Q174-20.40 176.20-20.40L176.20-20.40Z M194.84-23.84Q193.76-23.84 193.10-24.50Q192.44-25.16 192.44-26.24L192.44-26.24Q192.44-27.32 193.10-27.98Q193.76-28.64 194.84-28.64L194.84-28.64Q195.92-28.64 196.58-27.98Q197.24-27.32 197.24-26.24L197.24-26.24Q197.24-25.16 196.58-24.50Q195.92-23.84 194.84-23.84L194.84-23.84ZM196.44-20L196.44 0L193.24 0L193.24-20L196.44-20Z M217.00-4.08L218.12-1.40Q216.12 0.40 212.96 0.40L212.96 0.40Q210.52 0.40 208.98-0.92Q207.44-2.24 207.40-4.96L207.40-4.96L207.40-17.24L203.40-17.24L203.40-20L207.40-20L207.40-24.80L210.60-25.68L210.60-20L218.00-20L218.00-17.24L210.60-17.24L210.60-5.52Q210.60-4.08 211.42-3.34Q212.24-2.60 213.60-2.60L213.60-2.60Q215.52-2.60 217.00-4.08L217.00-4.08Z M241.64-20L232.24 3.36Q231.08 6.24 229.64 7.42Q228.20 8.60 225.92 8.60L225.92 8.60Q224.40 8.60 223.38 8.20Q222.36 7.80 221.52 6.92L221.52 6.92L222.64 4.20Q223.80 5.80 225.88 5.80L225.88 5.80Q227.04 5.80 227.94 5.10Q228.84 4.40 229.52 2.56L229.52 2.56L230.56-0.04L222.20-20L225.84-20L230.84-6.96L232.08-3.40L233.52-7.36L238.20-20L241.64-20Z M265.20-29.20L265.20 6.72L262.44 6.72L262.44-29.20L265.20-29.20Z M285.16-13.32L296.48-13.32L296.48 0L294.08 0L293.96-3.56Q292.80-1.64 290.70-0.62Q288.60 0.40 285.64 0.40L285.64 0.40Q281.92 0.40 279.16-1.26Q276.40-2.92 274.90-5.98Q273.40-9.04 273.40-13.20L273.40-13.20Q273.40-17.32 274.94-20.40Q276.48-23.48 279.26-25.14Q282.04-26.80 285.72-26.80L285.72-26.80Q289.64-26.80 292.18-25.32Q294.72-23.84 296.28-20.76L296.28-20.76L293.36-19.16Q292.48-21.40 290.50-22.60Q288.52-23.80 285.72-23.80L285.72-23.80Q283.04-23.80 281.02-22.52Q279-21.24 277.88-18.86Q276.76-16.48 276.76-13.20L276.76-13.20Q276.76-8.16 279.08-5.38Q281.40-2.60 285.76-2.60L285.76-2.60Q289.20-2.60 291.38-4.36Q293.56-6.12 293.56-9.40L293.56-9.40L293.56-10.32L285.16-10.32L285.16-13.32Z M321.76-2.32Q322.56-2.32 323.36-2.52L323.36-2.52L323.16 0Q322.04 0.40 320.76 0.40L320.76 0.40Q319.20 0.40 318.30-0.28Q317.40-0.96 317.16-2.56L317.16-2.56Q316.24-1.16 314.46-0.38Q312.68 0.40 310.72 0.40L310.72 0.40Q307.76 0.40 305.84-0.98Q303.92-2.36 303.92-4.96L303.92-4.96Q303.92-7.24 305.92-8.90Q307.92-10.56 311.72-11.20L311.72-11.20L317.04-12.08L317.04-13.20Q317.04-15.20 315.80-16.40Q314.56-17.60 312.36-17.60L312.36-17.60Q310.36-17.60 308.90-16.64Q307.44-15.68 306.64-13.80L306.64-13.80L304.28-15.52Q305.08-17.76 307.26-19.08Q309.44-20.40 312.36-20.40L312.36-20.40Q315.92-20.40 318.08-18.68Q320.24-16.96 320.24-13.60L320.24-13.60L320.24-3.76Q320.24-3.04 320.60-2.68Q320.96-2.32 321.76-2.32L321.76-2.32ZM310.88-2.40Q313.40-2.40 315.22-3.60Q317.04-4.80 317.04-6.72L317.04-6.72L317.04-9.48L312.56-8.64Q309.88-8.16 308.56-7.26Q307.24-6.36 307.24-4.96L307.24-4.96Q307.24-3.72 308.20-3.06Q309.16-2.40 310.88-2.40L310.88-2.40Z M353.24-20.40Q355.24-20.40 356.98-19.58Q358.72-18.76 359.80-17.04Q360.88-15.32 360.88-12.80L360.88-12.80L360.88 0L357.68 0L357.68-12.48Q357.68-15.08 356.38-16.34Q355.08-17.60 352.96-17.60L352.96-17.60Q351.36-17.60 350.02-16.82Q348.68-16.04 347.86-14.54Q347.04-13.04 347.04-10.96L347.04-10.96L347.04 0L343.84 0L343.84-12.48Q343.84-15.08 342.54-16.34Q341.24-17.60 339.12-17.60L339.12-17.60Q337.68-17.60 336.32-16.86Q334.96-16.12 334.08-14.56Q333.20-13 333.20-10.68L333.20-10.68L333.20 0L330 0L330-20L332.80-20L333-16.88Q334.04-18.64 335.74-19.52Q337.44-20.40 339.40-20.40L339.40-20.40Q341.60-20.40 343.46-19.40Q345.32-18.40 346.28-16.48L346.28-16.48Q347.16-18.40 349.16-19.40Q351.16-20.40 353.24-20.40L353.24-20.40Z M371.72-23.84Q370.64-23.84 369.98-24.50Q369.32-25.16 369.32-26.24L369.32-26.24Q369.32-27.32 369.98-27.98Q370.64-28.64 371.72-28.64L371.72-28.64Q372.80-28.64 373.46-27.98Q374.12-27.32 374.12-26.24L374.12-26.24Q374.12-25.16 373.46-24.50Q372.80-23.84 371.72-23.84L371.72-23.84ZM373.32-20L373.32 0L370.12 0L370.12-20L373.32-20Z M392.48-20.40Q395.88-20.40 398.08-18.44Q400.28-16.48 400.28-12.80L400.28-12.80L400.28 0L397.08 0L397.08-11.68Q397.08-14.80 395.74-16.20Q394.40-17.60 392.16-17.60L392.16-17.60Q390.56-17.60 389.16-16.90Q387.76-16.20 386.86-14.62Q385.96-13.04 385.96-10.64L385.96-10.64L385.96 0L382.76 0L382.76-20L385.56-20L385.76-16.88Q386.76-18.68 388.52-19.54Q390.28-20.40 392.48-20.40L392.48-20.40Z M420.68-2.56Q423.52-2.56 425.12-1.28Q426.72 0 426.72 2.20L426.72 2.20Q426.72 4.12 425.40 5.58Q424.08 7.04 421.82 7.82Q419.56 8.60 416.84 8.60L416.84 8.60Q412.28 8.60 409.96 7.14Q407.64 5.68 407.64 3.32L407.64 3.32Q407.64 1.96 408.58 0.92Q409.52-0.12 411.16-0.56L411.16-0.56Q409.92-1.16 409.18-2.08Q408.44-3 408.44-4.24L408.44-4.24Q408.44-5.72 409.24-6.70Q410.04-7.68 411.44-8.16L411.44-8.16Q410.00-9.04 409.26-10.46Q408.52-11.88 408.52-13.64L408.52-13.64Q408.52-15.60 409.56-17.14Q410.60-18.68 412.48-19.54Q414.36-20.40 416.72-20.40L416.72-20.40Q418.96-20.40 420.80-19.60L420.80-19.60Q421.92-23.68 426.44-23.68L426.44-23.68L427.16-20.88Q423.24-20.88 422.40-18.68L422.40-18.68Q423.60-17.76 424.26-16.48Q424.92-15.20 424.92-13.64L424.92-13.64Q424.92-11.68 423.88-10.14Q422.84-8.60 420.96-7.74Q419.08-6.88 416.72-6.88L416.72-6.88Q414.96-6.88 413.64-7.24L413.64-7.24Q412.44-6.96 411.92-6.36Q411.40-5.76 411.40-4.72L411.40-4.72Q411.40-3.68 412.12-3.12Q412.84-2.56 414.04-2.56L414.04-2.56L420.68-2.56ZM416.72-17.80Q414.64-17.80 413.24-16.64Q411.84-15.48 411.84-13.64L411.84-13.64Q411.84-11.80 413.24-10.64Q414.64-9.48 416.72-9.48L416.72-9.48Q418.80-9.48 420.20-10.64Q421.60-11.80 421.60-13.64L421.60-13.64Q421.60-15.48 420.20-16.64Q418.80-17.80 416.72-17.80L416.72-17.80ZM417.20 5.92Q420.24 5.92 422.00 4.94Q423.76 3.96 423.76 2.56L423.76 2.56Q423.76 1.40 422.86 0.80Q421.96 0.20 419.80 0.20L419.80 0.20L414.44 0.20Q412.60 0.20 411.60 0.86Q410.60 1.52 410.60 2.68L410.60 2.68Q410.60 4.20 412.28 5.06Q413.96 5.92 417.20 5.92L417.20 5.92Z M465.52-2.32Q466.32-2.32 467.12-2.52L467.12-2.52L466.92 0Q465.80 0.40 464.52 0.40L464.52 0.40Q462.96 0.40 462.06-0.28Q461.16-0.96 460.92-2.56L460.92-2.56Q460.00-1.16 458.22-0.38Q456.44 0.40 454.48 0.40L454.48 0.40Q451.52 0.40 449.60-0.98Q447.68-2.36 447.68-4.96L447.68-4.96Q447.68-7.24 449.68-8.90Q451.68-10.56 455.48-11.20L455.48-11.20L460.80-12.08L460.80-13.20Q460.80-15.20 459.56-16.40Q458.32-17.60 456.12-17.60L456.12-17.60Q454.12-17.60 452.66-16.64Q451.20-15.68 450.40-13.80L450.40-13.80L448.04-15.52Q448.84-17.76 451.02-19.08Q453.20-20.40 456.12-20.40L456.12-20.40Q459.68-20.40 461.84-18.68Q464.00-16.96 464.00-13.60L464.00-13.60L464.00-3.76Q464.00-3.04 464.36-2.68Q464.72-2.32 465.52-2.32L465.52-2.32ZM454.64-2.40Q457.16-2.40 458.98-3.60Q460.80-4.80 460.80-6.72L460.80-6.72L460.80-9.48L456.32-8.64Q453.64-8.16 452.32-7.26Q451.00-6.36 451.00-4.96L451.00-4.96Q451.00-3.72 451.96-3.06Q452.92-2.40 454.64-2.40L454.64-2.40Z M483.48-20.40Q486.88-20.40 489.08-18.44Q491.28-16.48 491.28-12.80L491.28-12.80L491.28 0L488.08 0L488.08-11.68Q488.08-14.80 486.74-16.20Q485.40-17.60 483.16-17.60L483.16-17.60Q481.56-17.60 480.16-16.90Q478.76-16.20 477.86-14.62Q476.96-13.04 476.96-10.64L476.96-10.64L476.96 0L473.76 0L473.76-20L476.56-20L476.76-16.88Q477.76-18.68 479.52-19.54Q481.28-20.40 483.48-20.40L483.48-20.40Z M515.08-29.20L518.28-29.20L518.28 0L515.48 0L515.28-3.48Q514.40-1.72 512.58-0.66Q510.76 0.40 508.44 0.40L508.44 0.40Q504.24 0.40 501.78-2.38Q499.32-5.16 499.32-10L499.32-10Q499.32-14.84 501.78-17.62Q504.24-20.40 508.44-20.40L508.44-20.40Q510.64-20.40 512.38-19.44Q514.12-18.48 515.08-16.88L515.08-16.88L515.08-29.20ZM508.80-2.40Q511.68-2.40 513.38-4.40Q515.08-6.40 515.08-9.76L515.08-9.76L515.08-10.24Q515.08-13.60 513.38-15.60Q511.68-17.60 508.80-17.60L508.80-17.60Q505.88-17.60 504.20-15.54Q502.52-13.48 502.52-10L502.52-10Q502.52-6.52 504.20-4.46Q505.88-2.40 508.80-2.40L508.80-2.40Z M551.80-20.40Q554.80-20.40 556.86-19.02Q558.92-17.64 560.08-15.08L560.08-15.08L557.04-13.64Q555.76-17.60 551.72-17.60L551.72-17.60Q548.72-17.60 547.02-15.58Q545.32-13.56 545.32-10L545.32-10Q545.32-6.44 547.02-4.42Q548.72-2.40 551.72-2.40L551.72-2.40Q554.04-2.40 555.46-3.46Q556.88-4.52 557.32-6.52L557.32-6.52L560.28-5.48Q559.24-2.68 557.08-1.14Q554.92 0.40 551.80 0.40L551.80 0.40Q547.28 0.40 544.70-2.36Q542.12-5.12 542.12-10L542.12-10Q542.12-14.88 544.70-17.64Q547.28-20.40 551.80-20.40L551.80-20.40Z M576.36-20.40Q580.88-20.40 583.46-17.64Q586.04-14.88 586.04-10L586.04-10Q586.04-5.12 583.46-2.36Q580.88 0.40 576.36 0.40L576.36 0.40Q571.84 0.40 569.26-2.36Q566.68-5.12 566.68-10L566.68-10Q566.68-14.88 569.26-17.64Q571.84-20.40 576.36-20.40L576.36-20.40ZM576.36-17.64Q573.32-17.64 571.60-15.60Q569.88-13.56 569.88-10L569.88-10Q569.88-6.44 571.60-4.40Q573.32-2.36 576.36-2.36L576.36-2.36Q579.40-2.36 581.12-4.40Q582.84-6.44 582.84-10L582.84-10Q582.84-13.56 581.12-15.60Q579.40-17.64 576.36-17.64L576.36-17.64Z M608.80-29.20L612.00-29.20L612.00 0L609.20 0L609.00-3.48Q608.12-1.72 606.30-0.66Q604.48 0.40 602.16 0.40L602.16 0.40Q597.96 0.40 595.50-2.38Q593.04-5.16 593.04-10L593.04-10Q593.04-14.84 595.50-17.62Q597.96-20.40 602.16-20.40L602.16-20.40Q604.36-20.40 606.10-19.44Q607.84-18.48 608.80-16.88L608.80-16.88L608.80-29.20ZM602.52-2.40Q605.40-2.40 607.10-4.40Q608.80-6.40 608.80-9.76L608.80-9.76L608.80-10.24Q608.80-13.60 607.10-15.60Q605.40-17.60 602.52-17.60L602.52-17.60Q599.60-17.60 597.92-15.54Q596.24-13.48 596.24-10L596.24-10Q596.24-6.52 597.92-4.46Q599.60-2.40 602.52-2.40L602.52-2.40Z M638.60-11.04Q638.60-9.92 638.44-8.80L638.44-8.80L623.36-8.80Q623.64-5.76 625.38-4.08Q627.12-2.40 629.88-2.40L629.88-2.40Q632.08-2.40 633.54-3.16Q635.00-3.92 635.52-5.36L635.52-5.36L638.20-3.96Q637.00-1.84 635.00-0.72Q633.00 0.40 629.88 0.40L629.88 0.40Q625.36 0.40 622.78-2.36Q620.20-5.12 620.20-10L620.20-10Q620.20-14.88 622.66-17.64Q625.12-20.40 629.64-20.40L629.64-20.40Q632.44-20.40 634.48-19.16Q636.52-17.92 637.56-15.80Q638.60-13.68 638.60-11.04L638.60-11.04ZM629.64-17.60Q627.00-17.60 625.38-16.04Q623.76-14.48 623.40-11.64L623.40-11.64L635.52-11.64Q635.20-14.44 633.68-16.02Q632.16-17.60 629.64-17.60L629.64-17.60Z M649.20-29.20L649.20 6.72L646.44 6.72L646.44-29.20L649.20-29.20Z M693.12-23.40L677.84-23.40L677.84-14.88L689.76-14.88L689.76-11.88L677.84-11.88L677.84 0L674.64 0L674.64-26.40L693.12-26.40L693.12-23.40Z M717.76 0L710.56-10.96L704.24-10.96L704.24 0L701.04 0L701.04-26.40L711.04-26.40Q715.08-26.40 717.52-24.32Q719.96-22.24 719.96-18.68L719.96-18.68Q719.96-15.88 718.40-13.96Q716.84-12.04 714.12-11.32L714.12-11.32L721.56 0L717.76 0ZM704.24-23.40L704.24-13.96L711.00-13.96Q716.60-13.96 716.60-18.68L716.60-18.68Q716.60-23.40 711.00-23.40L711.00-23.40L704.24-23.40Z"/></g>
</svg>
</g><g opacity="1" transform="rotate(0 75.8169 418.7585)">
<svg width="362.9479" height="70" x="75.8169" y="418.7585" version="1.1" preserveAspectRatio="none" viewBox="1.6 -27.24 143.52 27.68">
  <g transform="matrix(1 0 0 1 0 0)" class="companyName"><path id="id-D6z1nYkh7" d="M9.60-21.60L9.60-21.60L9.60-8.56Q12.88-8.56 14.08-9.98Q15.28-11.40 15.28-14.96Q15.28-18.52 14.08-20.06Q12.88-21.60 9.60-21.60ZM9.60-0.80L11.60-0.80L11.60 0L1.60 0L1.60-0.80L3.60-0.80L3.60-21.60L1.60-21.60L1.60-22.40L9.56-22.40Q21.32-22.96 21.32-14.84L21.32-14.84Q21.32-11.24 18.36-9.36Q15.40-7.48 9.60-7.76L9.60-7.76L9.60-0.80Z M32.12-18.40L32.12-0.80L34.12-0.80L34.12 0L24.12 0L24.12-0.80L26.12-0.80L26.12-17.60L24.52-17.60L24.52-18.40L32.12-18.40ZM32.48-23.70Q32.48-22.24 31.46-21.22Q30.44-20.20 28.98-20.20Q27.52-20.20 26.48-21.22Q25.44-22.24 25.44-23.70Q25.44-25.16 26.48-26.20Q27.52-27.24 28.98-27.24Q30.44-27.24 31.46-26.20Q32.48-25.16 32.48-23.70Z M59.64-0.80L59.64-0.80L59.64 0Q54.20 0 52.10-0.78Q50-1.56 47.96-4.68L47.96-4.68L45.44-8.56L44.92-8.08L44.92-0.80L46.92-0.80L46.92 0L36.92 0L36.92-0.80L38.92-0.80L38.92-26L36.92-26L36.92-26.80L44.92-26.80L44.92-9.28L53.28-17.60L50.04-17.60L50.04-18.40L57.64-18.40L57.64-17.60L54.48-17.60L49.68-12.84L54.48-5.64Q57.72-0.80 59.64-0.80Z M81.04-0.80Q80.64-0.40 79.52-0.10Q78.40 0.20 76.92 0.20L76.92 0.20Q73.64 0.20 72.80-1.76L72.80-1.76Q70.80 0.32 66.68 0.32L66.68 0.32Q64.48 0.32 63.06-0.70Q61.64-1.72 61.64-3.72L61.64-3.72Q61.64-6.40 63.72-7.86Q65.80-9.32 71-9.92L71-9.92L72.60-10.12L72.60-12.08Q72.60-15.56 72.08-16.76Q71.56-17.96 70.02-17.96Q68.48-17.96 68.04-17.54Q67.60-17.12 67.72-16.58Q67.84-16.04 68.12-15.16Q68.40-14.28 68.40-13.76L68.40-13.76Q68.40-12.52 67.54-11.66Q66.68-10.80 65.46-10.80Q64.24-10.80 63.36-11.66Q62.48-12.52 62.48-13.76L62.48-13.76Q62.48-15.80 64.58-17.26Q66.68-18.72 70.86-18.72Q75.04-18.72 76.82-17.08Q78.60-15.44 78.60-11.28L78.60-11.28L78.60-4.08Q78.60-1.96 79.12-1.42Q79.64-0.88 81.04-1.20L81.04-1.20L81.04-0.80ZM67.20-4.52Q67.40-3 68.32-2.18Q69.24-1.36 70.46-1.36Q71.68-1.36 72.60-2.56L72.60-2.56L72.60-9.36L71.16-9.16Q69.32-8.92 68.18-7.76Q67.04-6.60 67.20-4.52L67.20-4.52Z M99.08-0.80L99.08 0L89.88 0L89.88-0.80L91.48-0.80L91.48-9.24L84.32-21.60L82.24-21.60L82.24-22.40L93.44-22.40L93.44-21.60L91.48-21.60L97.08-11.52L102.28-21.60L99.08-21.60L99.08-22.40L106.08-22.40L106.08-21.60L103.28-21.60L97.48-10.32L97.48-0.80L99.08-0.80Z M129.88 0L121.88 0L121.88-2.12Q121.12-1.04 119.50-0.30Q117.88 0.44 116 0.44L116 0.44Q108.88 0.44 108.88-7.28L108.88-7.28L108.88-17.60L106.88-17.60L106.88-18.40L114.88-18.40L114.88-6.40Q114.88-3.56 115.72-2.36Q116.56-1.16 118.24-1.16L118.24-1.16Q120.48-1.16 121.88-3.56L121.88-3.56L121.88-17.60L119.88-17.60L119.88-18.40L127.88-18.40L127.88-0.80L129.88-0.80L129.88 0Z M144.68-17.60L140.04-17.60L140.04-7.84Q140.04-4.40 140.32-3.66Q140.60-2.92 140.92-2.40L140.92-2.40Q141.52-1.36 143.02-1.36Q144.52-1.36 145.12-1.76L145.12-1.76L145.12-0.96Q143.20 0.40 140.92 0.40L140.92 0.40Q137.56 0.40 135.80-1.20Q134.04-2.80 134.04-6.92L134.04-6.92L134.04-17.60L131.08-17.60L131.08-18.40L134.04-18.40Q135.96-18.72 137.44-20.26Q138.92-21.80 139.48-24.52L139.48-24.52L140.04-24.52L140.04-18.40L144.68-18.40L144.68-17.60Z"/></g>
</svg>
</g></svg></svg>