<svg version="1.1" preserveAspectRatio="none" xmlns="http://www.w3.org/2000/svg" width="500" height="500" viewBox="0 0 500 500"><rect width="100%" height="100%" fill="#FCF2E8" fill-opacity="1"/><svg viewBox="681.5767 550.7313 455.9327 110.8" width="333" height="80.9251014458932" x="83.5px" y="209.5374px" xmlns="http://www.w3.org/2000/svg" xmlns:xlink="http://www.w3.org/1999/xlink" preserveAspectRatio="none"><defs></defs><style>.companyName {fill:#FE6232;fill-opacity:1;}.icon3-str {stroke:#ED4545;stroke-opacity:1;}.text {fill:#FE6232;fill-opacity:1;}</style><g opacity="1" transform="rotate(0 681.5767 638.7313)">
<svg width="455.9327" height="22.8" x="681.5767" y="638.7313" version="1.1" preserveAspectRatio="none" viewBox="2.08 -29.68 752.48 37.64">
  <g transform="matrix(1 0 0 1 0 0)" class="text"><path id="id-6izo4zJp30" d="M16.72 0.24Q12.56 0.24 9.22-1.60Q5.88-3.44 3.98-6.70Q2.08-9.96 2.08-14L2.08-14Q2.08-18.04 3.98-21.30Q5.88-24.56 9.24-26.40Q12.60-28.24 16.76-28.24L16.76-28.24Q19.88-28.24 22.52-27.20Q25.16-26.16 27-24.16L27-24.16L25.12-22.28Q21.84-25.60 16.84-25.60L16.84-25.60Q13.52-25.60 10.80-24.08Q8.08-22.56 6.54-19.92Q5-17.28 5-14L5-14Q5-10.72 6.54-8.08Q8.08-5.44 10.80-3.92Q13.52-2.40 16.84-2.40L16.84-2.40Q21.88-2.40 25.12-5.76L25.12-5.76L27-3.88Q25.16-1.88 22.50-0.82Q19.84 0.24 16.72 0.24L16.72 0.24Z M42.40 0.20Q39.36 0.20 36.92-1.18Q34.48-2.56 33.08-5Q31.68-7.44 31.68-10.52L31.68-10.52Q31.68-13.60 33.08-16.04Q34.48-18.48 36.92-19.84Q39.36-21.20 42.40-21.20L42.40-21.20Q45.44-21.20 47.88-19.84Q50.32-18.48 51.70-16.04Q53.08-13.60 53.08-10.52L53.08-10.52Q53.08-7.44 51.70-5Q50.32-2.56 47.88-1.18Q45.44 0.20 42.40 0.20L42.40 0.20ZM42.40-2.32Q44.64-2.32 46.42-3.34Q48.20-4.36 49.20-6.24Q50.20-8.12 50.20-10.52L50.20-10.52Q50.20-12.92 49.20-14.80Q48.20-16.68 46.42-17.70Q44.64-18.72 42.40-18.72L42.40-18.72Q40.16-18.72 38.38-17.70Q36.60-16.68 35.58-14.80Q34.56-12.92 34.56-10.52L34.56-10.52Q34.56-8.12 35.58-6.24Q36.60-4.36 38.38-3.34Q40.16-2.32 42.40-2.32L42.40-2.32Z M87.12-21.20Q91.08-21.20 93.34-18.92Q95.60-16.64 95.60-12.20L95.60-12.20L95.60 0L92.76 0L92.76-11.92Q92.76-15.20 91.18-16.92Q89.60-18.64 86.72-18.64L86.72-18.64Q83.44-18.64 81.56-16.62Q79.68-14.60 79.68-11.04L79.68-11.04L79.68 0L76.84 0L76.84-11.92Q76.84-15.20 75.26-16.92Q73.68-18.64 70.76-18.64L70.76-18.64Q67.52-18.64 65.62-16.62Q63.72-14.60 63.72-11.04L63.72-11.04L63.72 0L60.88 0L60.88-21.04L63.60-21.04L63.60-17.20Q64.72-19.12 66.72-20.16Q68.72-21.20 71.32-21.20L71.32-21.20Q73.96-21.20 75.90-20.08Q77.84-18.96 78.80-16.76L78.80-16.76Q79.96-18.84 82.14-20.02Q84.32-21.20 87.12-21.20L87.12-21.20Z M131.56-21.20Q135.52-21.20 137.78-18.92Q140.04-16.64 140.04-12.20L140.04-12.20L140.04 0L137.20 0L137.20-11.92Q137.20-15.20 135.62-16.92Q134.04-18.64 131.16-18.64L131.16-18.64Q127.88-18.64 126-16.62Q124.12-14.60 124.12-11.04L124.12-11.04L124.12 0L121.28 0L121.28-11.92Q121.28-15.20 119.70-16.92Q118.12-18.64 115.20-18.64L115.20-18.64Q111.96-18.64 110.06-16.62Q108.16-14.60 108.16-11.04L108.16-11.04L108.16 0L105.32 0L105.32-21.04L108.04-21.04L108.04-17.20Q109.16-19.12 111.16-20.16Q113.16-21.20 115.76-21.20L115.76-21.20Q118.40-21.20 120.34-20.08Q122.28-18.96 123.24-16.76L123.24-16.76Q124.40-18.84 126.58-20.02Q128.76-21.20 131.56-21.20L131.56-21.20Z M165.88-21.04L168.72-21.04L168.72 0L166 0L166-3.84Q164.88-1.92 162.92-0.86Q160.96 0.20 158.44 0.20L158.44 0.20Q154.32 0.20 151.94-2.10Q149.56-4.40 149.56-8.84L149.56-8.84L149.56-21.04L152.40-21.04L152.40-9.12Q152.40-5.80 154.04-4.08Q155.68-2.36 158.72-2.36L158.72-2.36Q162.04-2.36 163.96-4.38Q165.88-6.40 165.88-10L165.88-10L165.88-21.04Z M189.40-21.20Q193.36-21.20 195.70-18.90Q198.04-16.60 198.04-12.20L198.04-12.20L198.04 0L195.20 0L195.20-11.92Q195.20-15.20 193.56-16.92Q191.92-18.64 188.88-18.64L188.88-18.64Q185.48-18.64 183.50-16.62Q181.52-14.60 181.52-11.04L181.52-11.04L181.52 0L178.68 0L178.68-21.04L181.40-21.04L181.40-17.16Q182.56-19.08 184.62-20.14Q186.68-21.20 189.40-21.20L189.40-21.20Z M207.76 0L207.76-21.04L210.60-21.04L210.60 0L207.76 0ZM209.20-25.64Q208.32-25.64 207.72-26.24Q207.12-26.84 207.12-27.68L207.12-27.68Q207.12-28.48 207.72-29.08Q208.32-29.68 209.20-29.68L209.20-29.68Q210.08-29.68 210.68-29.10Q211.28-28.52 211.28-27.72L211.28-27.72Q211.28-26.84 210.68-26.24Q210.08-25.64 209.20-25.64L209.20-25.64Z M230.60-3.32L231.60-1.28Q230.80-0.56 229.62-0.18Q228.44 0.20 227.16 0.20L227.16 0.20Q224.20 0.20 222.60-1.40Q221.00-3 221.00-5.92L221.00-5.92L221.00-18.64L217.24-18.64L217.24-21.04L221.00-21.04L221.00-25.64L223.84-25.64L223.84-21.04L230.24-21.04L230.24-18.64L223.84-18.64L223.84-6.08Q223.84-4.20 224.78-3.22Q225.72-2.24 227.48-2.24L227.48-2.24Q228.36-2.24 229.18-2.52Q230.00-2.80 230.60-3.32L230.60-3.32Z M253.24-21.04L256.04-21.04L245.52 2.52Q244.24 5.48 242.56 6.72Q240.88 7.96 238.52 7.96L238.52 7.96Q237.00 7.96 235.68 7.48Q234.36 7 233.40 6.04L233.40 6.04L234.72 3.92Q236.32 5.52 238.56 5.52L238.56 5.52Q240.00 5.52 241.02 4.72Q242.04 3.92 242.92 2L242.92 2L243.84-0.04L234.44-21.04L237.40-21.04L245.32-3.16L253.24-21.04Z M275.12 7.76L275.12-29.68L277.76-29.68L277.76 7.76L275.12 7.76Z M308.64-4.56L308.64-14L311.48-14L311.48-3.32Q309.52-1.60 306.84-0.68Q304.16 0.24 301.20 0.24L301.20 0.24Q297.00 0.24 293.64-1.60Q290.28-3.44 288.36-6.70Q286.44-9.96 286.44-14L286.44-14Q286.44-18.04 288.36-21.30Q290.28-24.56 293.64-26.40Q297.00-28.24 301.24-28.24L301.24-28.24Q304.44-28.24 307.12-27.22Q309.80-26.20 311.64-24.20L311.64-24.20L309.80-22.32Q306.48-25.60 301.36-25.60L301.36-25.60Q297.96-25.60 295.22-24.10Q292.48-22.60 290.92-19.94Q289.36-17.28 289.36-14L289.36-14Q289.36-10.72 290.92-8.08Q292.48-5.44 295.20-3.92Q297.92-2.40 301.32-2.40L301.32-2.40Q305.64-2.40 308.64-4.56L308.64-4.56Z M328.60-21.20Q332.72-21.20 334.92-19.14Q337.12-17.08 337.12-13.04L337.12-13.04L337.12 0L334.40 0L334.40-3.28Q333.44-1.64 331.58-0.72Q329.72 0.20 327.16 0.20L327.16 0.20Q323.64 0.20 321.56-1.48Q319.48-3.16 319.48-5.92L319.48-5.92Q319.48-8.60 321.42-10.24Q323.36-11.88 327.60-11.88L327.60-11.88L334.28-11.88L334.28-13.16Q334.28-15.88 332.76-17.30Q331.24-18.72 328.32-18.72L328.32-18.72Q326.32-18.72 324.48-18.06Q322.64-17.40 321.32-16.24L321.32-16.24L320.04-18.36Q321.64-19.72 323.88-20.46Q326.12-21.20 328.60-21.20L328.60-21.20ZM327.60-2.04Q330.00-2.04 331.72-3.14Q333.44-4.24 334.28-6.32L334.28-6.32L334.28-9.76L327.68-9.76Q322.28-9.76 322.28-6L322.28-6Q322.28-4.16 323.68-3.10Q325.08-2.04 327.60-2.04L327.60-2.04Z M373.08-21.20Q377.04-21.20 379.30-18.92Q381.56-16.64 381.56-12.20L381.56-12.20L381.56 0L378.72 0L378.72-11.92Q378.72-15.20 377.14-16.92Q375.56-18.64 372.68-18.64L372.68-18.64Q369.40-18.64 367.52-16.62Q365.64-14.60 365.64-11.04L365.64-11.04L365.64 0L362.80 0L362.80-11.92Q362.80-15.20 361.22-16.92Q359.64-18.64 356.72-18.64L356.72-18.64Q353.48-18.64 351.58-16.62Q349.68-14.60 349.68-11.04L349.68-11.04L349.68 0L346.84 0L346.84-21.04L349.56-21.04L349.56-17.20Q350.68-19.12 352.68-20.16Q354.68-21.20 357.28-21.20L357.28-21.20Q359.92-21.20 361.86-20.08Q363.80-18.96 364.76-16.76L364.76-16.76Q365.92-18.84 368.10-20.02Q370.28-21.20 373.08-21.20L373.08-21.20Z M391.28 0L391.28-21.04L394.12-21.04L394.12 0L391.28 0ZM392.72-25.64Q391.84-25.64 391.24-26.24Q390.64-26.84 390.64-27.68L390.64-27.68Q390.64-28.48 391.24-29.08Q391.84-29.68 392.72-29.68L392.72-29.68Q393.60-29.68 394.20-29.10Q394.80-28.52 394.80-27.72L394.80-27.72Q394.80-26.84 394.20-26.24Q393.60-25.64 392.72-25.64L392.72-25.64Z M414.76-21.20Q418.72-21.20 421.06-18.90Q423.40-16.60 423.40-12.20L423.40-12.20L423.40 0L420.56 0L420.56-11.92Q420.56-15.20 418.92-16.92Q417.28-18.64 414.24-18.64L414.24-18.64Q410.84-18.64 408.86-16.62Q406.88-14.60 406.88-11.04L406.88-11.04L406.88 0L404.04 0L404.04-21.04L406.76-21.04L406.76-17.16Q407.92-19.08 409.98-20.14Q412.04-21.20 414.76-21.20L414.76-21.20Z M449.96-21.04L452.68-21.04L452.68-2.56Q452.68 2.80 450.06 5.38Q447.44 7.96 442.16 7.96L442.16 7.96Q439.24 7.96 436.62 7.10Q434.00 6.24 432.36 4.72L432.36 4.72L433.80 2.56Q435.32 3.92 437.50 4.68Q439.68 5.44 442.08 5.44L442.08 5.44Q446.08 5.44 447.96 3.58Q449.84 1.72 449.84-2.20L449.84-2.20L449.84-4.88Q448.52-2.88 446.38-1.84Q444.24-0.80 441.64-0.80L441.64-0.80Q438.68-0.80 436.26-2.10Q433.84-3.40 432.46-5.74Q431.08-8.08 431.08-11.04L431.08-11.04Q431.08-14 432.46-16.32Q433.84-18.64 436.24-19.92Q438.64-21.20 441.64-21.20L441.64-21.20Q444.32-21.20 446.48-20.12Q448.64-19.04 449.96-17L449.96-17L449.96-21.04ZM441.92-3.32Q444.20-3.32 446.04-4.30Q447.88-5.28 448.90-7.04Q449.92-8.80 449.92-11.04L449.92-11.04Q449.92-13.28 448.90-15.02Q447.88-16.76 446.06-17.74Q444.24-18.72 441.92-18.72L441.92-18.72Q439.64-18.72 437.82-17.76Q436.00-16.80 434.98-15.04Q433.96-13.28 433.96-11.04L433.96-11.04Q433.96-8.80 434.98-7.04Q436.00-5.28 437.82-4.30Q439.64-3.32 441.92-3.32L441.92-3.32Z M482.48-21.20Q486.60-21.20 488.80-19.14Q491.00-17.08 491.00-13.04L491.00-13.04L491.00 0L488.28 0L488.28-3.28Q487.32-1.64 485.46-0.72Q483.60 0.20 481.04 0.20L481.04 0.20Q477.52 0.20 475.44-1.48Q473.36-3.16 473.36-5.92L473.36-5.92Q473.36-8.60 475.30-10.24Q477.24-11.88 481.48-11.88L481.48-11.88L488.16-11.88L488.16-13.16Q488.16-15.88 486.64-17.30Q485.12-18.72 482.20-18.72L482.20-18.72Q480.20-18.72 478.36-18.06Q476.52-17.40 475.20-16.24L475.20-16.24L473.92-18.36Q475.52-19.72 477.76-20.46Q480.00-21.20 482.48-21.20L482.48-21.20ZM481.48-2.04Q483.88-2.04 485.60-3.14Q487.32-4.24 488.16-6.32L488.16-6.32L488.16-9.76L481.56-9.76Q476.16-9.76 476.16-6L476.16-6Q476.16-4.16 477.56-3.10Q478.96-2.04 481.48-2.04L481.48-2.04Z M511.44-21.20Q515.40-21.20 517.74-18.90Q520.08-16.60 520.08-12.20L520.08-12.20L520.08 0L517.24 0L517.24-11.92Q517.24-15.20 515.60-16.92Q513.96-18.64 510.92-18.64L510.92-18.64Q507.52-18.64 505.54-16.62Q503.56-14.60 503.56-11.04L503.56-11.04L503.56 0L500.72 0L500.72-21.04L503.44-21.04L503.44-17.16Q504.60-19.08 506.66-20.14Q508.72-21.20 511.44-21.20L511.44-21.20Z M546.24-29.68L549.08-29.68L549.08 0L546.36 0L546.36-4.16Q545.08-2.04 542.98-0.92Q540.88 0.20 538.24 0.20L538.24 0.20Q535.28 0.20 532.88-1.16Q530.48-2.52 529.12-4.96Q527.76-7.40 527.76-10.52L527.76-10.52Q527.76-13.64 529.12-16.08Q530.48-18.52 532.88-19.86Q535.28-21.20 538.24-21.20L538.24-21.20Q540.80-21.20 542.86-20.14Q544.92-19.08 546.24-17.04L546.24-17.04L546.24-29.68ZM538.48-2.32Q540.68-2.32 542.46-3.34Q544.24-4.36 545.26-6.24Q546.28-8.12 546.28-10.52L546.28-10.52Q546.28-12.92 545.26-14.80Q544.24-16.68 542.46-17.70Q540.68-18.72 538.48-18.72L538.48-18.72Q536.24-18.72 534.46-17.70Q532.68-16.68 531.66-14.80Q530.64-12.92 530.64-10.52L530.64-10.52Q530.64-8.12 531.66-6.24Q532.68-4.36 534.46-3.34Q536.24-2.32 538.48-2.32L538.48-2.32Z M580.20 0.20Q577.08 0.20 574.62-1.16Q572.16-2.52 570.76-4.98Q569.36-7.44 569.36-10.52L569.36-10.52Q569.36-13.60 570.76-16.04Q572.16-18.48 574.62-19.84Q577.08-21.20 580.20-21.20L580.20-21.20Q582.92-21.20 585.06-20.14Q587.20-19.08 588.44-17.04L588.44-17.04L586.32-15.60Q585.28-17.16 583.68-17.94Q582.08-18.72 580.20-18.72L580.20-18.72Q577.92-18.72 576.10-17.70Q574.28-16.68 573.26-14.80Q572.24-12.92 572.24-10.52L572.24-10.52Q572.24-8.08 573.26-6.22Q574.28-4.36 576.10-3.34Q577.92-2.32 580.20-2.32L580.20-2.32Q582.08-2.32 583.68-3.08Q585.28-3.84 586.32-5.40L586.32-5.40L588.44-3.96Q587.20-1.92 585.04-0.86Q582.88 0.20 580.20 0.20L580.20 0.20Z M604.24 0.20Q601.20 0.20 598.76-1.18Q596.32-2.56 594.92-5Q593.52-7.44 593.52-10.52L593.52-10.52Q593.52-13.60 594.92-16.04Q596.32-18.48 598.76-19.84Q601.20-21.20 604.24-21.20L604.24-21.20Q607.28-21.20 609.72-19.84Q612.16-18.48 613.54-16.04Q614.92-13.60 614.92-10.52L614.92-10.52Q614.92-7.44 613.54-5Q612.16-2.56 609.72-1.18Q607.28 0.20 604.24 0.20L604.24 0.20ZM604.24-2.32Q606.48-2.32 608.26-3.34Q610.04-4.36 611.04-6.24Q612.04-8.12 612.04-10.52L612.04-10.52Q612.04-12.92 611.04-14.80Q610.04-16.68 608.26-17.70Q606.48-18.72 604.24-18.72L604.24-18.72Q602.00-18.72 600.22-17.70Q598.44-16.68 597.42-14.80Q596.40-12.92 596.40-10.52L596.40-10.52Q596.40-8.12 597.42-6.24Q598.44-4.36 600.22-3.34Q602.00-2.32 604.24-2.32L604.24-2.32Z M639.08-29.68L641.92-29.68L641.92 0L639.20 0L639.20-4.16Q637.92-2.04 635.82-0.92Q633.72 0.20 631.08 0.20L631.08 0.20Q628.12 0.20 625.72-1.16Q623.32-2.52 621.96-4.96Q620.60-7.40 620.60-10.52L620.60-10.52Q620.60-13.64 621.96-16.08Q623.32-18.52 625.72-19.86Q628.12-21.20 631.08-21.20L631.08-21.20Q633.64-21.20 635.70-20.14Q637.76-19.08 639.08-17.04L639.08-17.04L639.08-29.68ZM631.32-2.32Q633.52-2.32 635.30-3.34Q637.08-4.36 638.10-6.24Q639.12-8.12 639.12-10.52L639.12-10.52Q639.12-12.92 638.10-14.80Q637.08-16.68 635.30-17.70Q633.52-18.72 631.32-18.72L631.32-18.72Q629.08-18.72 627.30-17.70Q625.52-16.68 624.50-14.80Q623.48-12.92 623.48-10.52L623.48-10.52Q623.48-8.12 624.50-6.24Q625.52-4.36 627.30-3.34Q629.08-2.32 631.32-2.32L631.32-2.32Z M670.20-10.52L670.16-9.64L652.56-9.64Q652.80-6.36 655.08-4.34Q657.36-2.32 660.84-2.32L660.84-2.32Q662.80-2.32 664.44-3.02Q666.08-3.72 667.28-5.08L667.28-5.08L668.88-3.24Q667.48-1.56 665.38-0.68Q663.28 0.20 660.76 0.20L660.76 0.20Q657.52 0.20 655.02-1.18Q652.52-2.56 651.12-5Q649.72-7.44 649.72-10.52L649.72-10.52Q649.72-13.60 651.06-16.04Q652.40-18.48 654.74-19.84Q657.08-21.20 660.00-21.20L660.00-21.20Q662.92-21.20 665.24-19.84Q667.56-18.48 668.88-16.06Q670.20-13.64 670.20-10.52L670.20-10.52ZM660.00-18.76Q656.96-18.76 654.90-16.82Q652.84-14.88 652.56-11.76L652.56-11.76L667.48-11.76Q667.20-14.88 665.14-16.82Q663.08-18.76 660.00-18.76L660.00-18.76Z M678.60 7.76L678.60-29.68L681.24-29.68L681.24 7.76L678.60 7.76Z M724.08-25.44L707.84-25.44L707.84-14.44L722.32-14.44L722.32-11.88L707.84-11.88L707.84 0L704.88 0L704.88-28L724.08-28L724.08-25.44Z M754.56 0L751.32 0L744.92-9Q743.84-8.88 742.68-8.88L742.68-8.88L735.16-8.88L735.16 0L732.20 0L732.20-28L742.68-28Q748.04-28 751.08-25.44Q754.12-22.88 754.12-18.40L754.12-18.40Q754.12-15.12 752.46-12.86Q750.80-10.60 747.72-9.60L747.72-9.60L754.56 0ZM742.60-11.40Q746.76-11.40 748.96-13.24Q751.16-15.08 751.16-18.40L751.16-18.40Q751.16-21.80 748.96-23.62Q746.76-25.44 742.60-25.44L742.60-25.44L735.16-25.44L735.16-11.40L742.60-11.40Z"/></g>
</svg>
</g><g opacity="1" transform="rotate(0 725.2215 550.7313)">
<svg width="368.643" height="60" x="725.2215" y="550.7313" version="1.1" preserveAspectRatio="none" viewBox="1.12 -28.36 177.68 28.919999999999998">
  <g transform="matrix(1 0 0 1 0 0)" class="companyName"><path id="id-D6z1nYkh7" d="M13.56-11.44L12.08-11.44L12.08-4.64Q12.08-2.96 12.42-2.20Q12.76-1.44 13.66-1.18Q14.56-0.92 16.52-0.92L16.52-0.92L16.52 0Q11.12-0.12 8.28-0.12L8.28-0.12Q6.40-0.12 3.04-0.04L3.04-0.04L1.12 0L1.12-0.80Q2.40-0.88 2.98-1.12Q3.56-1.36 3.76-2.04Q3.96-2.72 3.96-4.24L3.96-4.24L3.96-24.08Q3.96-25.60 3.74-26.28Q3.52-26.96 2.96-27.20Q2.40-27.44 1.12-27.52L1.12-27.52L1.12-28.32Q3.40-28.20 8-28.20L8-28.20L12.60-28.24Q13.40-28.28 14.44-28.28L14.44-28.28Q20.36-28.28 23.42-26.14Q26.48-24 26.48-20.40L26.48-20.40Q26.48-18.20 25.28-16.18Q24.08-14.16 21.20-12.80Q18.32-11.44 13.56-11.44L13.56-11.44ZM14.24-27.52Q13.32-27.52 12.86-27.24Q12.40-26.96 12.24-26.24Q12.08-25.52 12.08-24.08L12.08-24.08L12.08-12.24L13.16-12.24Q15.96-12.24 17.02-14.32Q18.08-16.40 18.08-19.96L18.08-19.96Q18.08-23.84 17.20-25.68Q16.32-27.52 14.24-27.52L14.24-27.52Z M41.72-28.32L41.72-27.52Q40.44-27.44 39.86-27.20Q39.28-26.96 39.08-26.28Q38.88-25.60 38.88-24.08L38.88-24.08L38.88-4.24Q38.88-2.72 39.10-2.04Q39.32-1.36 39.88-1.12Q40.44-0.88 41.72-0.80L41.72-0.80L41.72 0Q39.40-0.12 35.04-0.12L35.04-0.12Q30.20-0.12 27.92 0L27.92 0L27.92-0.80Q29.20-0.88 29.78-1.12Q30.36-1.36 30.56-2.04Q30.76-2.72 30.76-4.24L30.76-4.24L30.76-24.08Q30.76-25.60 30.54-26.28Q30.32-26.96 29.76-27.20Q29.20-27.44 27.92-27.52L27.92-27.52L27.92-28.32Q30.20-28.20 35.04-28.20L35.04-28.20Q39.36-28.20 41.72-28.32L41.72-28.32Z M71.20-3.24Q71.76-2.32 72.28-1.78Q72.80-1.24 73.64-0.80L73.64-0.80L73.64 0Q70.28-0.12 66.44-0.12L66.44-0.12Q63.48-0.12 60.72 0L60.72 0L60.72-0.80Q62-0.88 62.50-1.02Q63-1.16 63-1.56L63-1.56Q63-1.96 62.60-2.60L62.60-2.60L56.80-12.40Q56.24-13.36 55.86-13.72Q55.48-14.08 54.92-14.16L54.92-14.16L54.92-4.24Q54.92-2.72 55.14-2.04Q55.36-1.36 55.92-1.12Q56.48-0.88 57.76-0.80L57.76-0.80L57.76 0Q55.44-0.12 51.08-0.12L51.08-0.12Q46.24-0.12 43.96 0L43.96 0L43.96-0.80Q45.24-0.88 45.82-1.12Q46.40-1.36 46.60-2.04Q46.80-2.72 46.80-4.24L46.80-4.24L46.80-24.08Q46.80-25.60 46.58-26.28Q46.36-26.96 45.80-27.20Q45.24-27.44 43.96-27.52L43.96-27.52L43.96-28.32Q46.24-28.20 51.08-28.20L51.08-28.20Q55.40-28.20 57.76-28.32L57.76-28.32L57.76-27.52Q56.48-27.44 55.90-27.20Q55.32-26.96 55.12-26.28Q54.92-25.60 54.92-24.08L54.92-24.08L54.92-15.04Q56.52-15.16 58.04-16.24Q59.56-17.32 61.76-19.80L61.76-19.80L63.12-21.32Q64.88-23.32 64.88-24.92L64.88-24.92Q64.88-26.08 63.96-26.78Q63.04-27.48 61.60-27.56L61.60-27.56L61.60-28.32Q64.96-28.20 68.36-28.20L68.36-28.20Q70.80-28.20 72.40-28.32L72.40-28.32L72.40-27.56Q68.92-26.64 65.84-23.16L65.84-23.16L61.92-18.72L71.20-3.24Z M98.60-3.36Q99.12-2.08 99.74-1.46Q100.36-0.84 100.96-0.80L100.96-0.80L100.96 0Q98.08-0.12 93.68-0.12L93.68-0.12Q89.12-0.12 86.96 0L86.96 0L86.96-0.80Q88.48-0.88 89.12-1.18Q89.76-1.48 89.76-2.24L89.76-2.24Q89.76-2.96 89.28-4.16L89.28-4.16L86.92-10.72L78.84-10.72L78.16-8.92Q76.84-5.52 76.84-3.72L76.84-3.72Q76.84-2.08 77.76-1.48Q78.68-0.88 80.48-0.80L80.48-0.80L80.48 0Q77.48-0.12 75.24-0.12L75.24-0.12Q73.36-0.12 72.16 0L72.16 0L72.16-0.80Q73.16-0.96 74.04-2.04Q74.92-3.12 75.84-5.48L75.84-5.48L84.72-28.32Q86-28.24 86.84-28.24L86.84-28.24Q87.64-28.24 88.92-28.32L88.92-28.32L98.60-3.36ZM79.16-11.52L86.64-11.52L83-21.52L79.16-11.52Z M120.64-28.24Q122.52-28.24 123.72-28.36L123.72-28.36L123.72-27.56Q121.68-26.56 119.48-22.24L119.48-22.24L115.76-14.88L115.76-4.24Q115.76-2.72 115.98-2.04Q116.20-1.36 116.76-1.12Q117.32-0.88 118.60-0.80L118.60-0.80L118.60 0Q116.28-0.12 111.72-0.12L111.72-0.12Q106.96-0.12 104.80 0L104.80 0L104.80-0.80Q106.08-0.88 106.66-1.12Q107.24-1.36 107.44-2.04Q107.64-2.72 107.64-4.24L107.64-4.24L107.64-11.60L100.24-25.28Q99.60-26.44 99-26.98Q98.40-27.52 97.92-27.52L97.92-27.52L97.92-28.36Q100.40-28.12 103.44-28.12L103.44-28.12Q106.88-28.12 112.24-28.36L112.24-28.36L112.24-27.52Q110.64-27.52 109.84-27.36Q109.04-27.20 109.04-26.60L109.04-26.60Q109.04-26.32 109.20-26L109.20-26L114.92-15.04L116.72-18.64Q118.60-22.40 118.60-24.60L118.60-24.60Q118.60-27.44 115.40-27.56L115.40-27.56L115.40-28.36Q118.40-28.24 120.64-28.24L120.64-28.24Z M151.28-28.32L151.28-27.52Q150.04-27.24 149.44-26.66Q148.84-26.08 148.64-24.88Q148.44-23.68 148.44-21.28L148.44-21.28L148.44-11.64Q148.44-5.88 146.80-3.16L146.80-3.16Q145.72-1.36 143.62-0.40Q141.52 0.56 138.20 0.56L138.20 0.56Q133.36 0.56 130.68-1.36L130.68-1.36Q128.72-2.76 128.06-5.12Q127.40-7.48 127.40-11.52L127.40-11.52L127.40-24.08Q127.40-25.60 127.20-26.28Q127-26.96 126.42-27.20Q125.84-27.44 124.56-27.52L124.56-27.52L124.56-28.32Q126.84-28.20 131.60-28.20L131.60-28.20Q136.32-28.20 138.76-28.32L138.76-28.32L138.76-27.52Q137.32-27.44 136.66-27.20Q136-26.96 135.76-26.28Q135.52-25.60 135.52-24.08L135.52-24.08L135.52-7.76Q135.52-3.92 136.72-2.38Q137.92-0.84 140.52-0.84L140.52-0.84Q144.32-0.84 145.92-3.54Q147.52-6.24 147.52-11.20L147.52-11.20L147.52-20.48Q147.52-23.44 147.28-24.74Q147.04-26.04 146.22-26.64Q145.40-27.24 143.48-27.52L143.48-27.52L143.48-28.32Q145.12-28.20 147.96-28.20L147.96-28.20Q150.08-28.20 151.28-28.32L151.28-28.32Z M178.80-28.32Q178.52-23.88 178.52-20.40L178.52-20.40Q178.52-18.56 178.64-17.52L178.64-17.52L177.72-17.52Q176.40-22.76 174.32-25.08Q172.24-27.40 169.84-27.40L169.84-27.40L169.80-27.40L169.80-4.52Q169.80-2.84 170.14-2.08Q170.48-1.32 171.38-1.06Q172.28-0.80 174.24-0.80L174.24-0.80L174.24 0Q168.60-0.12 165.48-0.12L165.48-0.12Q162.64-0.12 157.24 0L157.24 0L157.24-0.80Q159.20-0.80 160.10-1.06Q161-1.32 161.34-2.08Q161.68-2.84 161.68-4.52L161.68-4.52L161.68-27.40L161.64-27.40Q159.20-27.40 157.14-25.10Q155.08-22.80 153.76-17.52L153.76-17.52L152.84-17.52Q152.96-18.56 152.96-20.40L152.96-20.40Q152.96-23.88 152.68-28.32L152.68-28.32Q156.48-28.20 165.76-28.20L165.76-28.20Q175-28.20 178.80-28.32L178.80-28.32Z"/></g>
</svg>
</g></svg></svg>