<svg version="1.1" preserveAspectRatio="none" xmlns="http://www.w3.org/2000/svg" width="500" height="500" viewBox="0 0 500 500"><rect width="100%" height="100%" fill="#FF2D2D" fill-opacity="1"/><svg viewBox="809.9917 607.8307 433.1892 151.8" width="333" height="116.69127485172761" x="83.5px" y="191.6544px" xmlns="http://www.w3.org/2000/svg" xmlns:xlink="http://www.w3.org/1999/xlink" preserveAspectRatio="none"><defs></defs><style>.companyName {fill:#FFFFFF;fill-opacity:1;}.icon3-str {stroke:#370F49;stroke-opacity:1;}.text {fill:#FFFFFF;fill-opacity:1;}</style><g opacity="1" transform="rotate(0 809.9917 721.8307)">
<svg width="433.1892" height="37.8" x="809.9917" y="721.8307" version="1.1" preserveAspectRatio="none" viewBox="0.7813 -29.3945 541.1913000000001 47.2265">
  <g transform="matrix(1 0 0 1 0 0)" class="text"><path id="id-6izo4zJp30" d="M12.50-13.46L12.50-13.46Q12.52-13.42 12.79-13.19Q13.07-12.97 13.56-12.70Q14.06-12.42 14.79-12.21Q15.51-11.99 16.43-11.99L16.43-11.99Q17.97-11.99 19.34-12.58Q20.70-13.16 21.87-14.12Q23.03-15.08 23.96-16.31Q24.88-17.54 25.53-18.83Q26.17-20.12 26.52-21.37Q26.88-22.62 26.88-23.61L26.88-23.61Q26.88-24.80 26.52-25.68Q26.17-26.56 25.58-27.13Q24.98-27.70 24.17-27.97Q23.36-28.24 22.42-28.24L22.42-28.24Q20.57-28.24 18.74-27.59Q16.91-26.93 15.20-25.80Q13.48-24.67 11.89-23.13Q10.31-21.60 8.95-19.84Q7.58-18.09 6.46-16.18Q5.35-14.28 4.56-12.40Q3.77-10.53 3.34-8.76Q2.91-6.99 2.91-5.51L2.91-5.51Q2.91-3.79 3.41-2.27Q3.91-0.74 4.90 0.39Q5.90 1.52 7.39 2.18Q8.89 2.83 10.88 2.83L10.88 2.83Q12.66 2.83 14.57 2.29Q16.48 1.74 18.39 0.53Q20.29-0.68 22.15-2.61Q24.00-4.53 25.70-7.29L25.70-7.29L26.41-6.74Q24.57-3.75 22.58-1.72Q20.59 0.31 18.59 1.55Q16.60 2.79 14.67 3.33Q12.73 3.87 11.00 3.87L11.00 3.87Q8.50 3.87 6.58 2.98Q4.67 2.09 3.38 0.64Q2.09-0.80 1.44-2.65Q0.78-4.49 0.78-6.41L0.78-6.41Q0.78-8.05 1.24-9.90Q1.70-11.76 2.54-13.67Q3.38-15.59 4.56-17.50Q5.74-19.41 7.20-21.16Q8.65-22.91 10.35-24.41Q12.05-25.92 13.92-27.02Q15.78-28.13 17.76-28.76Q19.75-29.39 21.80-29.39L21.80-29.39Q23.09-29.39 24.27-29.03Q25.45-28.67 26.35-27.89Q27.25-27.11 27.77-25.89Q28.30-24.67 28.30-22.95L28.30-22.95Q28.30-21.80 27.95-20.45Q27.60-19.10 26.92-17.74Q26.25-16.39 25.28-15.12Q24.32-13.85 23.10-12.88Q21.88-11.91 20.40-11.33Q18.93-10.74 17.27-10.74L17.27-10.74Q15.49-10.74 14.17-11.34Q12.85-11.93 11.91-12.81L11.91-12.81L12.50-13.46Z M36.72-5.31L36.72-5.31Q36.80-5.29 36.88-5.29Q36.95-5.29 37.05-5.29L37.05-5.29Q37.60-5.29 38.05-5.40Q38.50-5.51 38.88-5.74Q39.26-5.98 39.61-6.36Q39.96-6.74 40.29-7.29L40.29-7.29L41.00-6.74Q40.06-5.41 39.06-4.88Q38.07-4.36 36.95-4.36L36.95-4.36Q36.54-4.36 36.23-4.43L36.23-4.43Q35.39-3.03 34.43-2.04Q33.48-1.05 32.48-0.43Q31.48 0.20 30.51 0.48Q29.53 0.76 28.69 0.76L28.69 0.76Q27.83 0.76 27.10 0.46Q26.37 0.16 25.84-0.41Q25.31-0.98 25.02-1.76Q24.73-2.54 24.73-3.52L24.73-3.52Q24.73-4.49 25.04-5.51Q25.35-6.52 25.89-7.52Q26.43-8.52 27.15-9.44Q27.87-10.37 28.71-11.17Q29.55-11.97 30.45-12.62Q31.35-13.26 32.25-13.67L32.25-13.67L32.87-12.85Q31.84-12.11 30.77-10.98Q29.71-9.84 28.84-8.50Q27.97-7.15 27.41-5.69Q26.86-4.24 26.86-2.87L26.86-2.87Q26.86-1.64 27.40-0.97Q27.95-0.29 29.06-0.29L29.06-0.29Q29.92-0.29 30.76-0.64Q31.60-1.00 32.40-1.60Q33.20-2.21 33.95-3.04Q34.69-3.87 35.35-4.80L35.35-4.80Q34.79-5.14 34.36-5.69Q33.93-6.25 33.63-6.96Q33.34-7.68 33.19-8.50Q33.05-9.32 33.05-10.18L33.05-10.18Q33.05-11.04 33.26-11.80Q33.48-12.56 33.86-13.13Q34.24-13.71 34.75-14.04Q35.25-14.38 35.86-14.38L35.86-14.38Q36.41-14.38 36.84-14.09Q37.27-13.81 37.56-13.31Q37.85-12.81 38.01-12.13Q38.16-11.45 38.16-10.66L38.16-10.66Q38.16-10.08 38.07-9.38Q37.97-8.67 37.78-7.96Q37.60-7.25 37.33-6.55Q37.07-5.86 36.72-5.31ZM34.06-10.18L34.06-10.18Q34.06-9.61 34.16-8.95Q34.26-8.28 34.47-7.66Q34.69-7.03 35.02-6.49Q35.35-5.96 35.84-5.64L35.84-5.64Q36.19-6.33 36.44-7.04Q36.68-7.75 36.85-8.42Q37.01-9.08 37.08-9.66Q37.15-10.23 37.15-10.66L37.15-10.66Q37.15-11.25 37.05-11.74Q36.95-12.23 36.79-12.59Q36.62-12.95 36.38-13.15Q36.13-13.36 35.84-13.36L35.84-13.36Q35.45-13.36 35.12-13.10Q34.79-12.83 34.55-12.39Q34.32-11.95 34.19-11.38Q34.06-10.80 34.06-10.18Z M56.54-10.63L56.54-10.63Q57.11-11.29 57.71-11.86Q58.32-12.42 58.93-12.83Q59.53-13.24 60.13-13.47Q60.72-13.69 61.27-13.69L61.27-13.69Q61.70-13.69 62.12-13.54Q62.54-13.40 62.87-13.10Q63.20-12.79 63.40-12.32Q63.59-11.86 63.59-11.21L63.59-11.21Q63.59-10.27 63.34-9.37Q63.09-8.46 62.70-7.60Q62.30-6.74 61.87-5.94Q61.43-5.14 61.04-4.40Q60.64-3.67 60.39-3.02Q60.14-2.36 60.14-1.82L60.14-1.82Q60.14-1.39 60.36-1.20Q60.59-1.02 60.84-1.02L60.84-1.02Q61.35-1.02 62.04-1.60Q62.73-2.19 63.50-3.11Q64.26-4.02 65.03-5.13Q65.80-6.23 66.50-7.29L66.50-7.29L67.21-6.74Q66.95-6.33 66.55-5.65Q66.15-4.98 65.63-4.21Q65.10-3.44 64.47-2.65Q63.85-1.86 63.15-1.22Q62.46-0.59 61.72-0.19Q60.98 0.21 60.23 0.21L60.23 0.21Q59.82 0.21 59.44 0.10Q59.06-0.02 58.77-0.28Q58.48-0.55 58.30-0.98Q58.13-1.41 58.13-2.03L58.13-2.03Q58.13-2.89 58.42-3.71Q58.71-4.53 59.16-5.33Q59.61-6.13 60.13-6.92Q60.64-7.71 61.09-8.50Q61.54-9.28 61.84-10.07Q62.13-10.86 62.13-11.68L62.13-11.68Q62.13-12.09 61.97-12.33Q61.82-12.58 61.39-12.58L61.39-12.58Q60.70-12.58 59.94-12.02Q59.18-11.46 58.36-10.53Q57.54-9.59 56.68-8.35Q55.82-7.11 54.97-5.73Q54.12-4.36 53.29-2.94Q52.46-1.52 51.70-0.21L51.70-0.21L50.06-1.07Q51.09-3.20 52.00-4.88Q52.91-6.56 53.59-7.92Q54.28-9.28 54.67-10.40Q55.06-11.52 55.06-12.52L55.06-12.52Q55.06-12.71 55.02-12.92Q54.98-13.13 54.86-13.28Q54.75-13.44 54.56-13.54Q54.38-13.65 54.08-13.65L54.08-13.65Q53.42-13.65 52.73-13.04Q52.05-12.42 51.29-11.36Q50.53-10.29 49.66-8.88Q48.79-7.46 47.78-5.88Q46.78-4.30 45.61-2.63Q44.43-0.96 43.05 0.61L43.05 0.61L41.70-0.29Q42.32-1.23 43.02-2.28Q43.71-3.32 44.38-4.39Q45.06-5.47 45.67-6.53Q46.29-7.60 46.76-8.55Q47.23-9.51 47.50-10.31Q47.77-11.11 47.77-11.68L47.77-11.68Q47.77-12.34 47.44-12.64Q47.11-12.93 46.58-12.93L46.58-12.93Q45.96-12.93 45.36-12.48Q44.77-12.03 44.11-11.21Q43.46-10.39 42.71-9.25Q41.95-8.11 41.00-6.74L41.00-6.74L40.29-7.29Q41.33-8.93 42.16-10.18Q42.99-11.43 43.73-12.27Q44.47-13.11 45.21-13.54Q45.94-13.96 46.80-13.96L46.80-13.96Q47.05-13.96 47.45-13.87Q47.85-13.77 48.24-13.52Q48.63-13.26 48.94-12.81Q49.24-12.36 49.30-11.66L49.30-11.66Q50.39-13.07 51.58-13.91Q52.77-14.75 53.83-14.75L53.83-14.75Q54.59-14.75 55.12-14.44Q55.64-14.14 55.97-13.65Q56.29-13.16 56.44-12.55Q56.58-11.93 56.58-11.31L56.58-11.31Q56.58-11.15 56.57-10.98Q56.56-10.80 56.54-10.63Z M82.75-10.63L82.75-10.63Q83.32-11.29 83.93-11.86Q84.53-12.42 85.14-12.83Q85.74-13.24 86.34-13.47Q86.93-13.69 87.48-13.69L87.48-13.69Q87.91-13.69 88.33-13.54Q88.75-13.40 89.08-13.10Q89.41-12.79 89.61-12.32Q89.80-11.86 89.80-11.21L89.80-11.21Q89.80-10.27 89.55-9.37Q89.30-8.46 88.91-7.60Q88.52-6.74 88.08-5.94Q87.64-5.14 87.25-4.40Q86.86-3.67 86.60-3.02Q86.35-2.36 86.35-1.82L86.35-1.82Q86.35-1.39 86.57-1.20Q86.80-1.02 87.05-1.02L87.05-1.02Q87.56-1.02 88.25-1.60Q88.95-2.19 89.71-3.11Q90.47-4.02 91.24-5.13Q92.01-6.23 92.71-7.29L92.71-7.29L93.42-6.74Q93.16-6.33 92.76-5.65Q92.36-4.98 91.84-4.21Q91.31-3.44 90.68-2.65Q90.06-1.86 89.37-1.22Q88.67-0.59 87.93-0.19Q87.19 0.21 86.45 0.21L86.45 0.21Q86.04 0.21 85.65 0.10Q85.27-0.02 84.98-0.28Q84.69-0.55 84.51-0.98Q84.34-1.41 84.34-2.03L84.34-2.03Q84.34-2.89 84.63-3.71Q84.92-4.53 85.37-5.33Q85.82-6.13 86.34-6.92Q86.86-7.71 87.30-8.50Q87.75-9.28 88.05-10.07Q88.34-10.86 88.34-11.68L88.34-11.68Q88.34-12.09 88.18-12.33Q88.03-12.58 87.60-12.58L87.60-12.58Q86.91-12.58 86.15-12.02Q85.39-11.46 84.57-10.53Q83.75-9.59 82.89-8.35Q82.03-7.11 81.18-5.73Q80.33-4.36 79.50-2.94Q78.67-1.52 77.91-0.21L77.91-0.21L76.27-1.07Q77.30-3.20 78.21-4.88Q79.12-6.56 79.80-7.92Q80.49-9.28 80.88-10.40Q81.27-11.52 81.27-12.52L81.27-12.52Q81.27-12.71 81.23-12.92Q81.19-13.13 81.07-13.28Q80.96-13.44 80.77-13.54Q80.59-13.65 80.29-13.65L80.29-13.65Q79.63-13.65 78.95-13.04Q78.26-12.42 77.50-11.36Q76.74-10.29 75.87-8.88Q75-7.46 73.99-5.88Q72.99-4.30 71.82-2.63Q70.64-0.96 69.26 0.61L69.26 0.61L67.91-0.29Q68.54-1.23 69.23-2.28Q69.92-3.32 70.60-4.39Q71.27-5.47 71.88-6.53Q72.50-7.60 72.97-8.55Q73.44-9.51 73.71-10.31Q73.98-11.11 73.98-11.68L73.98-11.68Q73.98-12.34 73.65-12.64Q73.32-12.93 72.79-12.93L72.79-12.93Q72.17-12.93 71.57-12.48Q70.98-12.03 70.32-11.21Q69.67-10.39 68.92-9.25Q68.16-8.11 67.21-6.74L67.21-6.74L66.50-7.29Q67.54-8.93 68.37-10.18Q69.20-11.43 69.94-12.27Q70.68-13.11 71.42-13.54Q72.15-13.96 73.01-13.96L73.01-13.96Q73.26-13.96 73.66-13.87Q74.06-13.77 74.45-13.52Q74.84-13.26 75.15-12.81Q75.45-12.36 75.51-11.66L75.51-11.66Q76.60-13.07 77.79-13.91Q78.98-14.75 80.04-14.75L80.04-14.75Q80.80-14.75 81.33-14.44Q81.86-14.14 82.18-13.65Q82.50-13.16 82.65-12.55Q82.79-11.93 82.79-11.31L82.79-11.31Q82.79-11.15 82.78-10.98Q82.77-10.80 82.75-10.63Z M101.82-4.26L101.82-4.26Q100.92-3.20 100.04-2.31Q99.16-1.43 98.29-0.79Q97.42-0.16 96.56 0.21Q95.70 0.57 94.82 0.57L94.82 0.57Q94.08 0.57 93.49 0.30Q92.89 0.04 92.45-0.44Q92.01-0.92 91.78-1.61Q91.54-2.30 91.54-3.16L91.54-3.16Q91.54-4.51 92.14-5.94Q92.73-7.36 93.64-8.71Q94.55-10.06 95.65-11.27Q96.76-12.48 97.75-13.42L97.75-13.42L98.59-12.83Q97.89-11.80 97.02-10.49Q96.15-9.18 95.38-7.78Q94.61-6.39 94.08-4.99Q93.55-3.59 93.55-2.40L93.55-2.40Q93.55-1.60 93.86-1.04Q94.16-0.47 95.02-0.47L95.02-0.47Q95.96-0.47 97.08-1.21Q98.20-1.95 99.38-3.14Q100.57-4.34 101.75-5.83Q102.93-7.32 103.98-8.85Q105.04-10.37 105.91-11.76Q106.78-13.14 107.32-14.12L107.32-14.12L108.75-13.42Q107.62-11.19 106.57-9.27Q105.53-7.34 104.72-5.81Q103.91-4.28 103.43-3.14Q102.95-2.01 102.95-1.35L102.95-1.35Q102.95-1.07 103.07-0.90Q103.18-0.72 103.44-0.72L103.44-0.72Q104.16-0.70 105.03-1.35Q105.90-1.99 106.79-2.97Q107.68-3.95 108.53-5.11Q109.38-6.27 110.06-7.29L110.06-7.29L110.76-6.74Q110.64-6.54 110.27-5.94Q109.90-5.33 109.36-4.55Q108.81-3.77 108.11-2.91Q107.40-2.05 106.62-1.34Q105.84-0.63 105-0.17Q104.16 0.29 103.34 0.29L103.34 0.29Q102.83 0.29 102.43 0.12Q102.03-0.06 101.76-0.35Q101.48-0.64 101.33-1.04Q101.17-1.43 101.17-1.86L101.17-1.86Q101.17-2.36 101.34-2.97Q101.50-3.57 101.82-4.26Z M126.37-10.14L126.37-10.14Q126.37-9.30 126.07-8.43Q125.78-7.56 125.33-6.69Q124.88-5.82 124.38-4.98Q123.87-4.14 123.42-3.36Q122.97-2.58 122.68-1.87Q122.38-1.15 122.38-0.57L122.38-0.57Q122.38-0.12 122.58 0.04Q122.77 0.20 123.01 0.20L123.01 0.20Q123.75 0.20 124.67-0.54Q125.59-1.27 126.53-2.38Q127.48-3.50 128.42-4.80Q129.36-6.11 130.12-7.29L130.12-7.29L130.82-6.74Q130.66-6.50 130.25-5.81Q129.84-5.12 129.24-4.23Q128.63-3.34 127.88-2.37Q127.13-1.41 126.27-0.60Q125.41 0.21 124.50 0.74Q123.59 1.27 122.68 1.27L122.68 1.27Q122.15 1.27 121.72 1.09Q121.29 0.92 120.99 0.61Q120.68 0.29 120.51-0.13Q120.33-0.55 120.33-1.02L120.33-1.02Q120.33-1.78 120.67-2.67Q121.02-3.55 121.52-4.49Q122.03-5.43 122.64-6.38Q123.24-7.32 123.75-8.18Q124.26-9.04 124.60-9.78Q124.94-10.51 124.94-11.04L124.94-11.04Q124.94-11.64 124.62-12.05Q124.30-12.46 123.71-12.46L123.71-12.46Q123.09-12.46 122.27-11.94Q121.45-11.43 120.43-10.43Q119.41-9.43 118.21-7.98Q117.01-6.52 115.61-4.67L115.61-4.67Q114.80-3.59 114.04-2.60L114.04-2.60Q113.71-2.17 113.38-1.72Q113.05-1.27 112.71-0.83Q112.38-0.39 112.09 0.01Q111.80 0.41 111.56 0.70L111.56 0.70L109.84 0L112.13-3.14Q112.62-3.81 113.13-4.57Q113.63-5.33 114.13-6.14Q114.63-6.95 115.08-7.77Q115.53-8.59 115.92-9.38L115.92-9.38Q116.48-10.55 116.70-11.32Q116.91-12.09 116.91-12.56L116.91-12.56Q116.91-13.09 116.72-13.25Q116.52-13.42 116.17-13.42L116.17-13.42Q115.80-13.42 115.32-13.04Q114.84-12.66 114.34-12.06Q113.83-11.46 113.31-10.71Q112.79-9.96 112.32-9.22Q111.86-8.48 111.45-7.81Q111.04-7.15 110.76-6.74L110.76-6.74L110.06-7.29Q111.05-8.85 111.87-10.15Q112.68-11.45 113.43-12.38Q114.18-13.32 114.89-13.84Q115.61-14.36 116.41-14.36L116.41-14.36Q116.84-14.36 117.24-14.18Q117.64-14.00 117.94-13.66Q118.24-13.32 118.42-12.83Q118.59-12.34 118.59-11.70L118.59-11.70Q118.59-11.19 118.48-10.64L118.48-10.64Q119.34-11.48 120.08-12.03Q120.82-12.58 121.45-12.90Q122.07-13.22 122.60-13.36Q123.13-13.50 123.55-13.50L123.55-13.50Q123.93-13.50 124.41-13.36Q124.90-13.22 125.33-12.85Q125.76-12.48 126.06-11.83Q126.37-11.17 126.37-10.14Z M138.89-17.32L138.89-17.32Q138.89-16.93 138.69-16.51Q138.50-16.09 138.19-15.76Q137.89-15.43 137.52-15.21Q137.15-15 136.78-15L136.78-15Q136.45-15 136.27-15.24Q136.09-15.49 136.09-15.84L136.09-15.84Q136.09-16.15 136.21-16.58Q136.33-17.01 136.56-17.39Q136.80-17.77 137.13-18.05Q137.46-18.32 137.89-18.32L137.89-18.32Q138.30-18.32 138.59-18.01Q138.89-17.70 138.89-17.32ZM134.61-13.26L135.23-12.99Q134.98-12.48 134.52-11.65Q134.06-10.82 133.54-9.83Q133.01-8.85 132.46-7.76Q131.91-6.68 131.47-5.65Q131.04-4.63 130.76-3.73Q130.49-2.83 130.49-2.21L130.49-2.21Q130.49-1.64 130.72-1.44Q130.96-1.23 131.39-1.23L131.39-1.23Q132.19-1.23 132.95-1.76Q133.71-2.29 134.46-3.13Q135.21-3.98 135.94-5.08Q136.66-6.17 137.38-7.29L137.38-7.29L138.09-6.74Q137.52-5.72 136.81-4.57Q136.09-3.42 135.21-2.43Q134.34-1.45 133.28-0.80Q132.23-0.16 130.98-0.16L130.98-0.16Q129.80-0.16 129.18-0.86Q128.55-1.56 128.55-2.68L128.55-2.68Q128.55-3.98 129.16-5.41Q129.77-6.84 130.67-8.23Q131.58-9.63 132.65-10.92Q133.71-12.21 134.61-13.26L134.61-13.26Z M137.93-16.11L141.35-16.11Q141.54-16.45 142.04-17.27Q142.54-18.09 143.21-19.08Q143.89-20.08 144.68-21.08Q145.47-22.09 146.23-22.79L146.23-22.79L147.11-22.27Q146.27-20.88 145.39-19.33Q144.51-17.77 143.65-16.11L143.65-16.11L150.02-16.11L149.63-15.10L143.13-15.10Q142.25-13.34 141.47-11.60Q140.70-9.86 140.12-8.28Q139.53-6.70 139.20-5.32Q138.87-3.95 138.87-2.93L138.87-2.93Q138.87-1.66 139.45-1.10Q140.04-0.55 140.90-0.55L140.90-0.55Q141.66-0.55 142.46-1.01Q143.26-1.46 144.03-2.17Q144.80-2.87 145.50-3.71Q146.19-4.55 146.73-5.29Q147.27-6.04 147.62-6.59Q147.97-7.15 148.05-7.29L148.05-7.29L148.77-6.74Q148.09-5.61 147.23-4.34Q146.37-3.07 145.32-1.98Q144.28-0.90 143.05-0.19Q141.82 0.53 140.39 0.53L140.39 0.53Q139.51 0.53 138.86 0.21Q138.20-0.10 137.75-0.65Q137.30-1.21 137.08-1.97Q136.86-2.73 136.86-3.63L136.86-3.63Q136.86-4.22 137.04-5.29Q137.23-6.37 137.68-7.84Q138.13-9.32 138.88-11.15Q139.63-12.99 140.78-15.10L140.78-15.10L137.54-15.10L137.93-16.11Z M156.70-4.36L156.70-4.36Q155.94-3.52 155.16-2.80Q154.38-2.09 153.61-1.56Q152.85-1.04 152.12-0.73Q151.39-0.43 150.70-0.43L150.70-0.43Q149.94-0.43 149.33-0.71Q148.71-1.00 148.27-1.52Q147.83-2.05 147.60-2.77Q147.36-3.50 147.36-4.38L147.36-4.38Q147.36-5.55 147.85-6.82Q148.34-8.09 149.11-9.29Q149.88-10.49 150.83-11.56Q151.78-12.64 152.68-13.42L152.68-13.42L153.52-12.83Q153.28-12.50 152.87-11.91Q152.46-11.33 151.99-10.56Q151.52-9.79 151.04-8.89Q150.57-7.99 150.18-7.05Q149.79-6.11 149.54-5.18Q149.30-4.24 149.30-3.42L149.30-3.42Q149.30-3.03 149.37-2.67Q149.43-2.30 149.60-2.03Q149.77-1.76 150.04-1.60Q150.31-1.45 150.74-1.45L150.74-1.45Q151.43-1.45 152.24-1.87Q153.05-2.29 153.92-3.02Q154.79-3.75 155.69-4.73Q156.60-5.70 157.48-6.82Q158.36-7.93 159.18-9.11Q160-10.29 160.70-11.45L160.70-11.45Q161.33-12.48 161.95-13.53Q162.58-14.57 163.20-15.57L163.20-15.57L164.12-15.10Q164.10-15.06 163.76-14.37Q163.42-13.67 162.85-12.49Q162.29-11.31 161.53-9.76Q160.78-8.20 159.94-6.46Q159.10-4.71 158.23-2.87Q157.36-1.04 156.54 0.70L156.54 0.70Q159.30-0.82 161.53-2.91Q163.77-5 165.37-7.29L165.37-7.29L166.09-6.74Q164.39-4.14 161.88-1.94Q159.36 0.25 155.80 2.27L155.80 2.27Q154.18 5.74 152.63 8.61Q151.07 11.48 149.52 13.54Q147.97 15.59 146.42 16.71Q144.86 17.83 143.26 17.83L143.26 17.83Q142.21 17.83 141.50 17.13Q140.80 16.43 140.80 15.12L140.80 15.12Q140.80 14.02 141.29 12.87Q141.78 11.72 142.64 10.56Q143.50 9.39 144.68 8.25Q145.86 7.11 147.26 6.05Q148.65 5 150.19 4.04Q151.72 3.09 153.30 2.29L153.30 2.29Q153.71 1.43 154.18 0.48Q154.65-0.47 155.10-1.36Q155.55-2.25 155.97-3.04Q156.39-3.83 156.70-4.36ZM152.40 4.18L152.40 4.18Q150.16 5.57 148.23 7.14Q146.31 8.71 144.89 10.24Q143.48 11.78 142.68 13.13Q141.88 14.47 141.88 15.41L141.88 15.41Q141.88 16.04 142.24 16.41Q142.60 16.78 143.16 16.78L143.16 16.78Q143.93 16.78 144.74 16.26Q145.55 15.74 146.36 14.84Q147.17 13.95 147.97 12.72Q148.77 11.50 149.54 10.11Q150.31 8.71 151.04 7.20Q151.76 5.68 152.40 4.18Z M179.71 5.14L177.71 5.14L194.47-29.22L196.46-29.22L179.71 5.14Z M200.16-10.02L200.08-11.04Q201.43-11.19 202.70-11.39Q203.96-11.58 205.16-11.84L205.16-11.84Q205.25-14.24 205.96-16.45Q206.66-18.65 207.79-20.56Q208.93-22.46 210.39-24.01Q211.86-25.57 213.47-26.67Q215.08-27.77 216.75-28.38Q218.42-28.98 219.96-28.98L219.96-28.98Q222.03-28.98 223.12-28.12Q224.20-27.25 224.20-25.53L224.20-25.53Q224.20-23.52 223.03-21.45Q221.86-19.38 219.70-17.47Q217.54-15.57 214.48-13.97Q211.43-12.38 207.66-11.35L207.66-11.35Q207.66-10.12 207.96-8.99Q208.26-7.87 208.87-7.00Q209.47-6.13 210.36-5.63Q211.25-5.12 212.42-5.12L212.42-5.12Q213.79-5.12 215.27-5.76Q216.76-6.41 218.18-7.40Q219.61-8.40 220.86-9.62Q222.11-10.84 223.03-12.01L223.03-12.01Q224.75-14.22 225.80-15.31Q226.86-16.41 226.93-16.48L226.93-16.48L227.64-15.74Q225.84-14.00 224.46-12.03Q223.09-10.06 221.93-8.04Q220.78-6.02 219.77-4.00Q218.75-1.99 217.68-0.16Q216.60 1.68 215.38 3.25Q214.16 4.82 212.60 5.98Q211.04 7.13 209.05 7.78Q207.07 8.44 204.47 8.44L204.47 8.44Q202.05 8.44 200.11 7.86Q198.16 7.29 196.80 6.26Q195.43 5.23 194.70 3.84Q193.96 2.44 193.96 0.80L193.96 0.80Q193.96-0.94 194.56-2.20Q195.16-3.46 196.10-4.27Q197.05-5.08 198.25-5.46Q199.45-5.84 200.66-5.84L200.66-5.84Q202.15-5.84 203.20-5.37Q204.26-4.90 205.02-4.26L205.02-4.26L204.45-3.46Q204.22-3.65 203.90-3.89Q203.57-4.12 203.15-4.33Q202.73-4.53 202.24-4.67Q201.74-4.80 201.17-4.80L201.17-4.80Q200.06-4.80 199.14-4.39Q198.22-3.98 197.57-3.23Q196.91-2.48 196.56-1.46Q196.21-0.43 196.21 0.80L196.21 0.80Q196.21 2.42 196.90 3.66Q197.60 4.90 198.72 5.73Q199.84 6.56 201.26 6.99Q202.68 7.42 204.14 7.42L204.14 7.42Q206.35 7.42 207.98 6.79Q209.61 6.15 210.89 5.08Q212.17 4.00 213.19 2.56Q214.22 1.11 215.20-0.52Q216.17-2.15 217.21-3.86Q218.24-5.57 219.57-7.21L219.57-7.21Q217.44-5.45 215.40-4.52Q213.36-3.59 211.45-3.59L211.45-3.59Q210.25-3.59 209.14-4.03Q208.03-4.47 207.16-5.36Q206.29-6.25 205.74-7.59Q205.20-8.93 205.14-10.74L205.14-10.74Q203.95-10.49 202.70-10.31Q201.45-10.14 200.16-10.02L200.16-10.02ZM220.59-27.87L220.59-27.87Q219.08-27.87 217.58-27.29Q216.07-26.70 214.70-25.64Q213.32-24.59 212.11-23.14Q210.90-21.70 209.97-19.99Q209.04-18.28 208.45-16.37Q207.85-14.45 207.70-12.48L207.70-12.48Q211.66-13.59 214.57-15.22Q217.48-16.86 219.39-18.65Q221.31-20.45 222.25-22.25Q223.18-24.04 223.18-25.53L223.18-25.53Q223.18-26.68 222.53-27.28Q221.88-27.87 220.59-27.87Z M240.35-13.26L240.98-12.99Q240.72-12.48 240.26-11.66Q239.80-10.84 239.28-9.85Q238.75-8.87 238.21-7.79Q237.68-6.72 237.24-5.69Q236.80-4.67 236.51-3.76Q236.23-2.85 236.23-2.23L236.23-2.23Q236.23-1.60 236.47-1.42Q236.72-1.23 237.11-1.23L237.11-1.23Q237.68-1.23 238.27-1.56Q238.87-1.89 239.44-2.42Q240.02-2.95 240.57-3.61Q241.11-4.28 241.59-4.95Q242.07-5.63 242.46-6.24Q242.85-6.86 243.13-7.29L243.13-7.29L243.83-6.74Q243.50-6.11 243.05-5.39Q242.60-4.67 242.06-3.94Q241.52-3.20 240.90-2.52Q240.27-1.84 239.58-1.31Q238.89-0.78 238.13-0.47Q237.36-0.16 236.56-0.16L236.56-0.16Q235.39-0.16 234.84-0.86Q234.30-1.56 234.30-2.68L234.30-2.68Q234.30-2.75 234.31-3.02Q234.32-3.28 234.36-3.44L234.36-3.44Q233.38-2.21 232.49-1.41Q231.60-0.61 230.77-0.14Q229.94 0.33 229.17 0.52Q228.40 0.70 227.70 0.70L227.70 0.70Q226.95 0.70 226.30 0.46Q225.64 0.21 225.15-0.25Q224.65-0.72 224.37-1.41Q224.08-2.09 224.08-2.99L224.08-2.99Q224.08-4.10 224.58-5.54Q225.08-6.97 226.35-8.63L226.35-8.63Q227.42-10.06 228.58-11.04Q229.75-12.01 230.87-12.61Q231.99-13.20 233.01-13.46Q234.02-13.71 234.82-13.71L234.82-13.71Q236.62-13.71 237.54-13.12Q238.46-12.52 238.65-11.29L238.65-11.29Q239.04-11.78 239.47-12.27Q239.90-12.75 240.35-13.26L240.35-13.26ZM234.98-5.57L234.98-5.57Q235.23-5.98 235.61-6.61Q235.98-7.25 236.39-7.92Q236.80-8.59 237.19-9.22Q237.58-9.84 237.87-10.27L237.87-10.27Q237.87-10.45 237.82-10.84Q237.77-11.23 237.56-11.63Q237.34-12.03 236.88-12.32Q236.41-12.62 235.57-12.62L235.57-12.62Q234.96-12.62 234.21-12.43Q233.46-12.25 232.61-11.81Q231.76-11.37 230.86-10.64Q229.96-9.92 229.06-8.85L229.06-8.85Q227.71-7.23 226.98-5.60Q226.25-3.96 226.25-2.66L226.25-2.66Q226.25-1.54 226.76-0.94Q227.27-0.33 228.20-0.33L228.20-0.33Q229.28-0.33 230.21-0.81Q231.15-1.29 231.97-2.05Q232.79-2.81 233.54-3.74Q234.28-4.67 234.98-5.57Z M259.38-10.63L259.38-10.63Q259.94-11.29 260.55-11.86Q261.15-12.42 261.76-12.83Q262.36-13.24 262.96-13.47Q263.55-13.69 264.10-13.69L264.10-13.69Q264.53-13.69 264.95-13.54Q265.37-13.40 265.70-13.10Q266.04-12.79 266.23-12.32Q266.43-11.86 266.43-11.21L266.43-11.21Q266.43-10.27 266.17-9.37Q265.92-8.46 265.53-7.60Q265.14-6.74 264.70-5.94Q264.26-5.14 263.87-4.40Q263.48-3.67 263.22-3.02Q262.97-2.36 262.97-1.82L262.97-1.82Q262.97-1.39 263.19-1.20Q263.42-1.02 263.67-1.02L263.67-1.02Q264.18-1.02 264.87-1.60Q265.57-2.19 266.33-3.11Q267.09-4.02 267.86-5.13Q268.63-6.23 269.34-7.29L269.34-7.29L270.04-6.74Q269.79-6.33 269.38-5.65Q268.98-4.98 268.46-4.21Q267.93-3.44 267.30-2.65Q266.68-1.86 265.99-1.22Q265.29-0.59 264.55-0.19Q263.81 0.21 263.07 0.21L263.07 0.21Q262.66 0.21 262.28 0.10Q261.89-0.02 261.60-0.28Q261.31-0.55 261.13-0.98Q260.96-1.41 260.96-2.03L260.96-2.03Q260.96-2.89 261.25-3.71Q261.54-4.53 261.99-5.33Q262.44-6.13 262.96-6.92Q263.48-7.71 263.93-8.50Q264.38-9.28 264.67-10.07Q264.96-10.86 264.96-11.68L264.96-11.68Q264.96-12.09 264.80-12.33Q264.65-12.58 264.22-12.58L264.22-12.58Q263.54-12.58 262.77-12.02Q262.01-11.46 261.19-10.53Q260.37-9.59 259.51-8.35Q258.65-7.11 257.80-5.73Q256.95-4.36 256.12-2.94Q255.29-1.52 254.53-0.21L254.53-0.21L252.89-1.07Q253.93-3.20 254.83-4.88Q255.74-6.56 256.43-7.92Q257.11-9.28 257.50-10.40Q257.89-11.52 257.89-12.52L257.89-12.52Q257.89-12.71 257.85-12.92Q257.81-13.13 257.70-13.28Q257.58-13.44 257.39-13.54Q257.21-13.65 256.91-13.65L256.91-13.65Q256.25-13.65 255.57-13.04Q254.88-12.42 254.12-11.36Q253.36-10.29 252.49-8.88Q251.62-7.46 250.62-5.88Q249.61-4.30 248.44-2.63Q247.27-0.96 245.88 0.61L245.88 0.61L244.53-0.29Q245.16-1.23 245.85-2.28Q246.54-3.32 247.22-4.39Q247.89-5.47 248.51-6.53Q249.12-7.60 249.59-8.55Q250.06-9.51 250.33-10.31Q250.61-11.11 250.61-11.68L250.61-11.68Q250.61-12.34 250.27-12.64Q249.94-12.93 249.41-12.93L249.41-12.93Q248.79-12.93 248.19-12.48Q247.60-12.03 246.94-11.21Q246.29-10.39 245.54-9.25Q244.79-8.11 243.83-6.74L243.83-6.74L243.13-7.29Q244.16-8.93 244.99-10.18Q245.82-11.43 246.56-12.27Q247.30-13.11 248.04-13.54Q248.77-13.96 249.63-13.96L249.63-13.96Q249.88-13.96 250.28-13.87Q250.68-13.77 251.07-13.52Q251.46-13.26 251.77-12.81Q252.07-12.36 252.13-11.66L252.13-11.66Q253.22-13.07 254.41-13.91Q255.61-14.75 256.66-14.75L256.66-14.75Q257.42-14.75 257.95-14.44Q258.48-14.14 258.80-13.65Q259.12-13.16 259.27-12.55Q259.41-11.93 259.41-11.31L259.41-11.31Q259.41-11.15 259.40-10.98Q259.39-10.80 259.38-10.63Z M278.11-17.32L278.11-17.32Q278.11-16.93 277.91-16.51Q277.71-16.09 277.41-15.76Q277.11-15.43 276.74-15.21Q276.37-15 276.00-15L276.00-15Q275.66-15 275.49-15.24Q275.31-15.49 275.31-15.84L275.31-15.84Q275.31-16.15 275.43-16.58Q275.55-17.01 275.78-17.39Q276.02-17.77 276.35-18.05Q276.68-18.32 277.11-18.32L277.11-18.32Q277.52-18.32 277.81-18.01Q278.11-17.70 278.11-17.32ZM273.83-13.26L274.45-12.99Q274.20-12.48 273.74-11.65Q273.28-10.82 272.75-9.83Q272.23-8.85 271.68-7.76Q271.13-6.68 270.69-5.65Q270.25-4.63 269.98-3.73Q269.71-2.83 269.71-2.21L269.71-2.21Q269.71-1.64 269.94-1.44Q270.18-1.23 270.61-1.23L270.61-1.23Q271.41-1.23 272.17-1.76Q272.93-2.29 273.68-3.13Q274.43-3.98 275.16-5.08Q275.88-6.17 276.60-7.29L276.60-7.29L277.30-6.74Q276.74-5.72 276.03-4.57Q275.31-3.42 274.43-2.43Q273.55-1.45 272.50-0.80Q271.45-0.16 270.20-0.16L270.20-0.16Q269.02-0.16 268.40-0.86Q267.77-1.56 267.77-2.68L267.77-2.68Q267.77-3.98 268.38-5.41Q268.98-6.84 269.89-8.23Q270.80-9.63 271.87-10.92Q272.93-12.21 273.83-13.26L273.83-13.26Z M292.91-10.14L292.91-10.14Q292.91-9.30 292.62-8.43Q292.32-7.56 291.88-6.69Q291.43-5.82 290.92-4.98Q290.41-4.14 289.96-3.36Q289.51-2.58 289.22-1.87Q288.93-1.15 288.93-0.57L288.93-0.57Q288.93-0.12 289.12 0.04Q289.32 0.20 289.55 0.20L289.55 0.20Q290.29 0.20 291.21-0.54Q292.13-1.27 293.08-2.38Q294.02-3.50 294.96-4.80Q295.90-6.11 296.66-7.29L296.66-7.29L297.36-6.74Q297.21-6.50 296.80-5.81Q296.39-5.12 295.78-4.23Q295.18-3.34 294.42-2.37Q293.67-1.41 292.81-0.60Q291.95 0.21 291.04 0.74Q290.14 1.27 289.22 1.27L289.22 1.27Q288.69 1.27 288.26 1.09Q287.83 0.92 287.53 0.61Q287.23 0.29 287.05-0.13Q286.88-0.55 286.88-1.02L286.88-1.02Q286.88-1.78 287.22-2.67Q287.56-3.55 288.07-4.49Q288.57-5.43 289.18-6.38Q289.79-7.32 290.29-8.18Q290.80-9.04 291.14-9.78Q291.48-10.51 291.48-11.04L291.48-11.04Q291.48-11.64 291.16-12.05Q290.84-12.46 290.25-12.46L290.25-12.46Q289.63-12.46 288.81-11.94Q287.99-11.43 286.97-10.43Q285.96-9.43 284.76-7.98Q283.55-6.52 282.15-4.67L282.15-4.67Q281.35-3.59 280.59-2.60L280.59-2.60Q280.25-2.17 279.92-1.72Q279.59-1.27 279.26-0.83Q278.93-0.39 278.63 0.01Q278.34 0.41 278.11 0.70L278.11 0.70L276.39 0L278.67-3.14Q279.16-3.81 279.67-4.57Q280.18-5.33 280.67-6.14Q281.17-6.95 281.62-7.77Q282.07-8.59 282.46-9.38L282.46-9.38Q283.03-10.55 283.24-11.32Q283.46-12.09 283.46-12.56L283.46-12.56Q283.46-13.09 283.26-13.25Q283.07-13.42 282.71-13.42L282.71-13.42Q282.34-13.42 281.87-13.04Q281.39-12.66 280.88-12.06Q280.37-11.46 279.85-10.71Q279.34-9.96 278.87-9.22Q278.40-8.48 277.99-7.81Q277.58-7.15 277.30-6.74L277.30-6.74L276.60-7.29Q277.60-8.85 278.41-10.15Q279.22-11.45 279.97-12.38Q280.72-13.32 281.44-13.84Q282.15-14.36 282.95-14.36L282.95-14.36Q283.38-14.36 283.78-14.18Q284.18-14.00 284.48-13.66Q284.79-13.32 284.96-12.83Q285.14-12.34 285.14-11.70L285.14-11.70Q285.14-11.19 285.02-10.64L285.02-10.64Q285.88-11.48 286.62-12.03Q287.36-12.58 287.99-12.90Q288.61-13.22 289.14-13.36Q289.67-13.50 290.10-13.50L290.10-13.50Q290.47-13.50 290.96-13.36Q291.45-13.22 291.88-12.85Q292.30-12.48 292.61-11.83Q292.91-11.17 292.91-10.14Z M304.10-0.66L304.10-0.66Q303.09 0.02 302.00 0.44Q300.92 0.86 299.92 0.86L299.92 0.86Q299.18 0.86 298.44 0.64Q297.70 0.43 297.09-0.07Q296.48-0.57 296.10-1.39Q295.72-2.21 295.72-3.42L295.72-3.42Q295.72-4.88 296.25-6.23Q296.78-7.58 297.66-8.74Q298.54-9.90 299.67-10.86Q300.80-11.82 302.00-12.49Q303.20-13.16 304.39-13.54Q305.59-13.91 306.56-13.91L306.56-13.91Q307.52-13.91 308.19-13.70Q308.87-13.50 309.34-13.19Q309.80-12.89 310.08-12.54Q310.35-12.19 310.53-11.88L310.53-11.88L311.58-13.26L312.23-12.83Q312.23-12.81 311.91-12.22Q311.60-11.62 311.09-10.63Q310.59-9.63 309.91-8.29Q309.24-6.95 308.51-5.45Q307.77-3.95 307.02-2.34Q306.27-0.74 305.59 0.80L305.59 0.80Q307.36-0.21 308.71-1.15Q310.06-2.09 311.12-3.05Q312.19-4.00 313.05-5.04Q313.91-6.07 314.71-7.29L314.71-7.29L315.43-6.74Q314.65-5.47 313.74-4.38Q312.83-3.30 311.61-2.24Q310.39-1.17 308.76-0.05Q307.13 1.07 304.88 2.42L304.88 2.42Q303.03 6.97 301.31 9.95Q299.59 12.93 298.06 14.67Q296.52 16.41 295.21 17.11Q293.89 17.81 292.83 17.81L292.83 17.81Q292.40 17.81 291.90 17.71Q291.41 17.60 290.98 17.29Q290.55 16.97 290.26 16.43Q289.98 15.88 289.98 15.02L289.98 15.02Q289.98 13.38 290.85 11.78Q291.72 10.18 293.37 8.59Q295.02 7.01 297.41 5.45Q299.80 3.89 302.83 2.30L302.83 2.30Q303.20 1.46 303.52 0.71Q303.83-0.04 304.10-0.66ZM305.12-2.81L305.12-2.81Q305.64-3.81 306.16-4.78Q306.68-5.74 307.24-6.71Q307.79-7.68 308.43-8.69Q309.06-9.71 309.84-10.80L309.84-10.80Q309.80-11.09 309.65-11.41Q309.49-11.72 309.22-11.98Q308.95-12.25 308.52-12.42Q308.09-12.60 307.50-12.60L307.50-12.60Q306.84-12.60 305.99-12.42Q305.14-12.25 304.20-11.82Q303.26-11.39 302.29-10.66Q301.33-9.94 300.41-8.85L300.41-8.85Q299.06-7.25 298.34-5.65Q297.62-4.06 297.62-2.75L297.62-2.75Q297.62-1.48 298.26-0.83Q298.91-0.18 300.02-0.18L300.02-0.18Q301.19-0.18 302.51-0.90Q303.83-1.62 305.12-2.81ZM292.83 16.82L292.83 16.82Q293.57 16.82 294.38 16.27Q295.18 15.72 296.00 14.78Q296.82 13.83 297.62 12.58Q298.42 11.33 299.20 9.91Q299.98 8.50 300.69 7.01Q301.41 5.53 302.05 4.10L302.05 4.10Q299.14 5.63 297.08 7.28Q295.02 8.93 293.71 10.43Q292.40 11.93 291.81 13.14Q291.21 14.36 291.21 15L291.21 15Q291.21 15.80 291.56 16.31Q291.91 16.82 292.83 16.82Z M341.33-13.26L341.95-12.99Q341.70-12.48 341.24-11.66Q340.78-10.84 340.25-9.85Q339.73-8.87 339.19-7.79Q338.65-6.72 338.21-5.69Q337.77-4.67 337.49-3.76Q337.21-2.85 337.21-2.23L337.21-2.23Q337.21-1.60 337.45-1.42Q337.70-1.23 338.09-1.23L338.09-1.23Q338.65-1.23 339.25-1.56Q339.84-1.89 340.42-2.42Q341.00-2.95 341.54-3.61Q342.09-4.28 342.57-4.95Q343.05-5.63 343.44-6.24Q343.83-6.86 344.10-7.29L344.10-7.29L344.80-6.74Q344.47-6.11 344.02-5.39Q343.57-4.67 343.04-3.94Q342.50-3.20 341.88-2.52Q341.25-1.84 340.56-1.31Q339.86-0.78 339.10-0.47Q338.34-0.16 337.54-0.16L337.54-0.16Q336.37-0.16 335.82-0.86Q335.27-1.56 335.27-2.68L335.27-2.68Q335.27-2.75 335.28-3.02Q335.29-3.28 335.33-3.44L335.33-3.44Q334.36-2.21 333.47-1.41Q332.58-0.61 331.75-0.14Q330.92 0.33 330.15 0.52Q329.38 0.70 328.67 0.70L328.67 0.70Q327.93 0.70 327.28 0.46Q326.62 0.21 326.12-0.25Q325.63-0.72 325.34-1.41Q325.06-2.09 325.06-2.99L325.06-2.99Q325.06-4.10 325.56-5.54Q326.05-6.97 327.32-8.63L327.32-8.63Q328.40-10.06 329.56-11.04Q330.72-12.01 331.85-12.61Q332.97-13.20 333.98-13.46Q335-13.71 335.80-13.71L335.80-13.71Q337.60-13.71 338.52-13.12Q339.43-12.52 339.63-11.29L339.63-11.29Q340.02-11.78 340.45-12.27Q340.88-12.75 341.33-13.26L341.33-13.26ZM335.96-5.57L335.96-5.57Q336.21-5.98 336.58-6.61Q336.95-7.25 337.36-7.92Q337.77-8.59 338.16-9.22Q338.55-9.84 338.85-10.27L338.85-10.27Q338.85-10.45 338.80-10.84Q338.75-11.23 338.54-11.63Q338.32-12.03 337.85-12.32Q337.38-12.62 336.54-12.62L336.54-12.62Q335.94-12.62 335.19-12.43Q334.43-12.25 333.58-11.81Q332.73-11.37 331.84-10.64Q330.94-9.92 330.04-8.85L330.04-8.85Q328.69-7.23 327.96-5.60Q327.23-3.96 327.23-2.66L327.23-2.66Q327.23-1.54 327.73-0.94Q328.24-0.33 329.18-0.33L329.18-0.33Q330.25-0.33 331.19-0.81Q332.13-1.29 332.95-2.05Q333.77-2.81 334.51-3.74Q335.25-4.67 335.96-5.57Z M360.41-10.14L360.41-10.14Q360.41-9.30 360.12-8.43Q359.82-7.56 359.38-6.69Q358.93-5.82 358.42-4.98Q357.91-4.14 357.46-3.36Q357.01-2.58 356.72-1.87Q356.43-1.15 356.43-0.57L356.43-0.57Q356.43-0.12 356.62 0.04Q356.82 0.20 357.05 0.20L357.05 0.20Q357.79 0.20 358.71-0.54Q359.63-1.27 360.58-2.38Q361.52-3.50 362.46-4.80Q363.40-6.11 364.16-7.29L364.16-7.29L364.86-6.74Q364.71-6.50 364.30-5.81Q363.89-5.12 363.28-4.23Q362.68-3.34 361.92-2.37Q361.17-1.41 360.31-0.60Q359.45 0.21 358.54 0.74Q357.64 1.27 356.72 1.27L356.72 1.27Q356.19 1.27 355.76 1.09Q355.33 0.92 355.03 0.61Q354.73 0.29 354.55-0.13Q354.38-0.55 354.38-1.02L354.38-1.02Q354.38-1.78 354.72-2.67Q355.06-3.55 355.57-4.49Q356.07-5.43 356.68-6.38Q357.29-7.32 357.79-8.18Q358.30-9.04 358.64-9.78Q358.98-10.51 358.98-11.04L358.98-11.04Q358.98-11.64 358.66-12.05Q358.34-12.46 357.75-12.46L357.75-12.46Q357.13-12.46 356.31-11.94Q355.49-11.43 354.47-10.43Q353.46-9.43 352.26-7.98Q351.05-6.52 349.65-4.67L349.65-4.67Q348.85-3.59 348.09-2.60L348.09-2.60Q347.75-2.17 347.42-1.72Q347.09-1.27 346.76-0.83Q346.43-0.39 346.13 0.01Q345.84 0.41 345.61 0.70L345.61 0.70L343.89 0L346.17-3.14Q346.66-3.81 347.17-4.57Q347.68-5.33 348.17-6.14Q348.67-6.95 349.12-7.77Q349.57-8.59 349.96-9.38L349.96-9.38Q350.53-10.55 350.74-11.32Q350.96-12.09 350.96-12.56L350.96-12.56Q350.96-13.09 350.76-13.25Q350.57-13.42 350.21-13.42L350.21-13.42Q349.84-13.42 349.37-13.04Q348.89-12.66 348.38-12.06Q347.87-11.46 347.35-10.71Q346.84-9.96 346.37-9.22Q345.90-8.48 345.49-7.81Q345.08-7.15 344.80-6.74L344.80-6.74L344.10-7.29Q345.10-8.85 345.91-10.15Q346.72-11.45 347.47-12.38Q348.22-13.32 348.94-13.84Q349.65-14.36 350.45-14.36L350.45-14.36Q350.88-14.36 351.28-14.18Q351.68-14.00 351.98-13.66Q352.29-13.32 352.46-12.83Q352.64-12.34 352.64-11.70L352.64-11.70Q352.64-11.19 352.52-10.64L352.52-10.64Q353.38-11.48 354.12-12.03Q354.86-12.58 355.49-12.90Q356.11-13.22 356.64-13.36Q357.17-13.50 357.60-13.50L357.60-13.50Q357.97-13.50 358.46-13.36Q358.95-13.22 359.38-12.85Q359.80-12.48 360.11-11.83Q360.41-11.17 360.41-10.14Z M385.10-26.21L385.94-25.66Q385.72-25.35 385.23-24.63Q384.75-23.91 384.10-22.91Q383.46-21.91 382.71-20.70Q381.95-19.49 381.20-18.20Q380.45-16.91 379.74-15.60Q379.02-14.28 378.48-13.07L378.48-13.07Q377.62-11.19 377.06-9.72Q376.50-8.24 376.18-7.09Q375.86-5.94 375.73-5.09Q375.61-4.24 375.61-3.63L375.61-3.63Q375.61-2.52 375.95-2.09Q376.29-1.66 376.88-1.66L376.88-1.66Q377.48-1.66 378.04-1.97Q378.59-2.29 379.11-2.77Q379.63-3.26 380.09-3.89Q380.55-4.51 380.95-5.14Q381.35-5.76 381.68-6.33Q382.01-6.89 382.27-7.29L382.27-7.29L382.97-6.74Q382.75-6.39 382.43-5.81Q382.11-5.23 381.70-4.55Q381.29-3.87 380.76-3.17Q380.23-2.48 379.60-1.91Q378.96-1.35 378.19-0.99Q377.42-0.63 376.52-0.63L376.52-0.63Q376.09-0.63 375.62-0.74Q375.14-0.86 374.73-1.15Q374.32-1.45 374.00-1.96Q373.69-2.48 373.59-3.28L373.59-3.28Q372.13-1.70 370.74-0.89Q369.36-0.08 368.13-0.08L368.13-0.08Q367.50-0.08 366.75-0.29Q366.00-0.51 365.33-1.04Q364.67-1.56 364.22-2.43Q363.77-3.30 363.77-4.59L363.77-4.59Q363.77-6.04 364.22-7.34Q364.67-8.65 365.43-9.78Q366.19-10.90 367.18-11.81Q368.16-12.71 369.24-13.35Q370.31-13.98 371.40-14.34Q372.48-14.69 373.44-14.69L373.44-14.69Q374.71-14.69 375.43-14.38Q376.15-14.06 376.52-13.75L376.52-13.75Q376.80-14.30 377.27-15.15Q377.73-16.00 378.36-17.04Q378.98-18.09 379.75-19.27Q380.51-20.45 381.37-21.65Q382.23-22.85 383.17-24.02Q384.12-25.20 385.10-26.21L385.10-26.21ZM373.57-4.75L373.57-4.75Q373.67-6.19 374.25-8.15Q374.82-10.12 376.02-12.68L376.02-12.68Q375.74-13.09 375.24-13.31Q374.75-13.54 374.12-13.54L374.12-13.54Q373.16-13.54 372.18-13.14Q371.19-12.75 370.28-12.09Q369.38-11.43 368.57-10.52Q367.77-9.61 367.18-8.57Q366.58-7.54 366.24-6.42Q365.90-5.29 365.90-4.20L365.90-4.20Q365.90-2.73 366.51-1.91Q367.13-1.09 368.16-1.09L368.16-1.09Q368.65-1.09 369.24-1.29Q369.82-1.48 370.52-1.92Q371.21-2.36 371.97-3.06Q372.73-3.75 373.57-4.75Z M406.48-13.46L406.48-13.46Q406.50-13.42 406.78-13.19Q407.05-12.97 407.55-12.70Q408.05-12.42 408.77-12.21Q409.49-11.99 410.41-11.99L410.41-11.99Q411.95-11.99 413.32-12.58Q414.69-13.16 415.85-14.12Q417.01-15.08 417.94-16.31Q418.87-17.54 419.51-18.83Q420.16-20.12 420.51-21.37Q420.86-22.62 420.86-23.61L420.86-23.61Q420.86-24.80 420.51-25.68Q420.16-26.56 419.56-27.13Q418.96-27.70 418.15-27.97Q417.34-28.24 416.41-28.24L416.41-28.24Q414.55-28.24 412.72-27.59Q410.90-26.93 409.18-25.80Q407.46-24.67 405.88-23.13Q404.30-21.60 402.93-19.84Q401.56-18.09 400.45-16.18Q399.34-14.28 398.54-12.40Q397.75-10.53 397.32-8.76Q396.89-6.99 396.89-5.51L396.89-5.51Q396.89-3.79 397.39-2.27Q397.89-0.74 398.89 0.39Q399.88 1.52 401.38 2.18Q402.87 2.83 404.86 2.83L404.86 2.83Q406.64 2.83 408.55 2.29Q410.47 1.74 412.37 0.53Q414.28-0.68 416.13-2.61Q417.99-4.53 419.69-7.29L419.69-7.29L420.39-6.74Q418.55-3.75 416.56-1.72Q414.57 0.31 412.58 1.55Q410.59 2.79 408.65 3.33Q406.72 3.87 404.98 3.87L404.98 3.87Q402.48 3.87 400.57 2.98Q398.65 2.09 397.36 0.64Q396.07-0.80 395.42-2.65Q394.77-4.49 394.77-6.41L394.77-6.41Q394.77-8.05 395.22-9.90Q395.68-11.76 396.52-13.67Q397.36-15.59 398.54-17.50Q399.73-19.41 401.18-21.16Q402.64-22.91 404.34-24.41Q406.04-25.92 407.90-27.02Q409.77-28.13 411.75-28.76Q413.73-29.39 415.78-29.39L415.78-29.39Q417.07-29.39 418.25-29.03Q419.43-28.67 420.33-27.89Q421.23-27.11 421.76-25.89Q422.29-24.67 422.29-22.95L422.29-22.95Q422.29-21.80 421.93-20.45Q421.58-19.10 420.91-17.74Q420.23-16.39 419.27-15.12Q418.30-13.85 417.08-12.88Q415.86-11.91 414.38-11.33Q412.91-10.74 411.25-10.74L411.25-10.74Q409.47-10.74 408.15-11.34Q406.84-11.93 405.90-12.81L405.90-12.81L406.48-13.46Z M430.70-5.31L430.70-5.31Q430.78-5.29 430.86-5.29Q430.94-5.29 431.04-5.29L431.04-5.29Q431.58-5.29 432.03-5.40Q432.48-5.51 432.86-5.74Q433.24-5.98 433.59-6.36Q433.95-6.74 434.28-7.29L434.28-7.29L434.98-6.74Q434.04-5.41 433.05-4.88Q432.05-4.36 430.94-4.36L430.94-4.36Q430.53-4.36 430.21-4.43L430.21-4.43Q429.38-3.03 428.42-2.04Q427.46-1.05 426.46-0.43Q425.47 0.20 424.49 0.48Q423.52 0.76 422.68 0.76L422.68 0.76Q421.82 0.76 421.08 0.46Q420.35 0.16 419.82-0.41Q419.30-0.98 419.00-1.76Q418.71-2.54 418.71-3.52L418.71-3.52Q418.71-4.49 419.02-5.51Q419.34-6.52 419.87-7.52Q420.41-8.52 421.13-9.44Q421.86-10.37 422.70-11.17Q423.54-11.97 424.43-12.62Q425.33-13.26 426.23-13.67L426.23-13.67L426.86-12.85Q425.82-12.11 424.76-10.98Q423.69-9.84 422.82-8.50Q421.95-7.15 421.40-5.69Q420.84-4.24 420.84-2.87L420.84-2.87Q420.84-1.64 421.39-0.97Q421.93-0.29 423.05-0.29L423.05-0.29Q423.91-0.29 424.75-0.64Q425.59-1.00 426.39-1.60Q427.19-2.21 427.93-3.04Q428.67-3.87 429.34-4.80L429.34-4.80Q428.77-5.14 428.34-5.69Q427.91-6.25 427.62-6.96Q427.32-7.68 427.18-8.50Q427.03-9.32 427.03-10.18L427.03-10.18Q427.03-11.04 427.25-11.80Q427.46-12.56 427.84-13.13Q428.22-13.71 428.73-14.04Q429.24-14.38 429.84-14.38L429.84-14.38Q430.39-14.38 430.82-14.09Q431.25-13.81 431.54-13.31Q431.84-12.81 431.99-12.13Q432.15-11.45 432.15-10.66L432.15-10.66Q432.15-10.08 432.05-9.38Q431.95-8.67 431.77-7.96Q431.58-7.25 431.32-6.55Q431.05-5.86 430.70-5.31ZM428.05-10.18L428.05-10.18Q428.05-9.61 428.14-8.95Q428.24-8.28 428.46-7.66Q428.67-7.03 429.00-6.49Q429.34-5.96 429.82-5.64L429.82-5.64Q430.18-6.33 430.42-7.04Q430.66-7.75 430.83-8.42Q431.00-9.08 431.06-9.66Q431.13-10.23 431.13-10.66L431.13-10.66Q431.13-11.25 431.04-11.74Q430.94-12.23 430.77-12.59Q430.61-12.95 430.36-13.15Q430.12-13.36 429.82-13.36L429.82-13.36Q429.43-13.36 429.10-13.10Q428.77-12.83 428.54-12.39Q428.30-11.95 428.17-11.38Q428.05-10.80 428.05-10.18Z M455.21-26.21L456.05-25.66Q455.84-25.35 455.35-24.63Q454.86-23.91 454.22-22.91Q453.57-21.91 452.82-20.70Q452.07-19.49 451.32-18.20Q450.57-16.91 449.85-15.60Q449.14-14.28 448.59-13.07L448.59-13.07Q447.73-11.19 447.18-9.72Q446.62-8.24 446.30-7.09Q445.98-5.94 445.85-5.09Q445.72-4.24 445.72-3.63L445.72-3.63Q445.72-2.52 446.06-2.09Q446.41-1.66 446.99-1.66L446.99-1.66Q447.60-1.66 448.15-1.97Q448.71-2.29 449.23-2.77Q449.75-3.26 450.21-3.89Q450.66-4.51 451.06-5.14Q451.46-5.76 451.80-6.33Q452.13-6.89 452.38-7.29L452.38-7.29L453.09-6.74Q452.87-6.39 452.55-5.81Q452.23-5.23 451.82-4.55Q451.41-3.87 450.88-3.17Q450.35-2.48 449.72-1.91Q449.08-1.35 448.31-0.99Q447.54-0.63 446.64-0.63L446.64-0.63Q446.21-0.63 445.73-0.74Q445.25-0.86 444.84-1.15Q444.43-1.45 444.12-1.96Q443.81-2.48 443.71-3.28L443.71-3.28Q442.25-1.70 440.86-0.89Q439.47-0.08 438.24-0.08L438.24-0.08Q437.62-0.08 436.87-0.29Q436.11-0.51 435.45-1.04Q434.79-1.56 434.34-2.43Q433.89-3.30 433.89-4.59L433.89-4.59Q433.89-6.04 434.34-7.34Q434.79-8.65 435.55-9.78Q436.31-10.90 437.29-11.81Q438.28-12.71 439.36-13.35Q440.43-13.98 441.51-14.34Q442.60-14.69 443.55-14.69L443.55-14.69Q444.82-14.69 445.55-14.38Q446.27-14.06 446.64-13.75L446.64-13.75Q446.91-14.30 447.38-15.15Q447.85-16.00 448.48-17.04Q449.10-18.09 449.86-19.27Q450.63-20.45 451.48-21.65Q452.34-22.85 453.29-24.02Q454.24-25.20 455.21-26.21L455.21-26.21ZM443.69-4.75L443.69-4.75Q443.79-6.19 444.37-8.15Q444.94-10.12 446.13-12.68L446.13-12.68Q445.86-13.09 445.36-13.31Q444.86-13.54 444.24-13.54L444.24-13.54Q443.28-13.54 442.29-13.14Q441.31-12.75 440.40-12.09Q439.49-11.43 438.69-10.52Q437.89-9.61 437.29-8.57Q436.70-7.54 436.36-6.42Q436.02-5.29 436.02-4.20L436.02-4.20Q436.02-2.73 436.63-1.91Q437.25-1.09 438.28-1.09L438.28-1.09Q438.77-1.09 439.36-1.29Q439.94-1.48 440.63-1.92Q441.33-2.36 442.09-3.06Q442.85-3.75 443.69-4.75Z M453.87-4.45L453.87-4.45Q453.83-4.22 453.81-3.98Q453.79-3.75 453.79-3.52L453.79-3.52Q453.79-2.81 453.99-2.18Q454.20-1.54 454.60-1.06Q455-0.59 455.60-0.31Q456.19-0.04 456.95-0.04L456.95-0.04Q459.51-0.04 461.89-1.78Q464.28-3.52 466.64-7.29L466.64-7.29L467.30-6.70Q466.02-4.55 464.69-3.08Q463.36-1.60 462.04-0.68Q460.72 0.23 459.45 0.64Q458.18 1.05 457.03 1.05L457.03 1.05Q456.19 1.05 455.25 0.82Q454.32 0.59 453.53 0.04Q452.73-0.51 452.22-1.43Q451.70-2.34 451.70-3.71L451.70-3.71Q451.70-5.18 452.20-6.53Q452.70-7.89 453.50-9.06Q454.30-10.23 455.33-11.20Q456.37-12.17 457.43-12.85Q458.50-13.54 459.51-13.92Q460.53-14.30 461.31-14.30L461.31-14.30Q461.82-14.30 462.34-14.14Q462.87-13.98 463.29-13.65Q463.71-13.32 463.97-12.77Q464.24-12.23 464.24-11.46L464.24-11.46Q464.24-10.43 463.76-9.52Q463.28-8.61 462.48-7.84Q461.68-7.07 460.63-6.46Q459.57-5.84 458.42-5.41Q457.27-4.98 456.09-4.73Q454.92-4.47 453.87-4.45ZM454.02-5.29L454.02-5.29Q455.33-5.43 456.48-5.84Q457.64-6.25 458.59-6.85Q459.55-7.44 460.30-8.14Q461.05-8.85 461.56-9.57Q462.07-10.29 462.34-10.96Q462.62-11.62 462.62-12.15L462.62-12.15Q462.62-12.68 462.33-12.99Q462.05-13.30 461.66-13.30L461.66-13.30Q460.80-13.30 459.73-12.69Q458.65-12.07 457.58-10.99Q456.50-9.90 455.56-8.44Q454.61-6.97 454.02-5.29Z M469.26 5.14L467.27 5.14L484.02-29.22L486.02-29.22L469.26 5.14Z M530.31-23.73L530.88-23.13Q530.86-23.13 530.16-22.43Q529.45-21.74 528.28-20.32Q527.11-18.91 525.58-16.75Q524.04-14.59 522.36-11.66L522.36-11.66L521.60-10.33Q522.25-10.49 522.91-10.63Q523.57-10.76 524.26-10.88L524.26-10.88L525.14-11.05Q525.76-12.19 526.28-12.91Q526.80-13.63 527.24-14.05Q527.68-14.47 528.05-14.63Q528.42-14.79 528.71-14.79L528.71-14.79Q529.08-14.79 529.43-14.53Q529.79-14.28 529.79-13.61L529.79-13.61Q529.79-13.09 529.53-12.60Q529.28-12.11 528.81-11.68Q528.34-11.25 527.70-10.92Q527.05-10.59 526.27-10.39L526.27-10.39Q525.90-9.63 525.51-8.80Q525.12-7.97 524.69-7.13Q524.26-6.29 523.81-5.48Q523.36-4.67 522.87-3.95L522.87-3.95L521.48-5.25Q521.66-5.47 522.02-5.94Q522.38-6.41 522.80-6.99Q523.22-7.58 523.63-8.23Q524.04-8.89 524.34-9.47L524.34-9.47L524.61-10.06Q523.71-9.86 522.80-9.66Q521.89-9.45 520.94-9.20L520.94-9.20Q519.43-6.62 518.00-4.52Q516.56-2.42 514.94-0.93Q513.32 0.57 511.39 1.38Q509.45 2.19 506.93 2.19L506.93 2.19Q505.29 2.19 503.62 1.73Q501.95 1.27 500.62 0.39Q499.28-0.49 498.43-1.76Q497.58-3.03 497.58-4.65L497.58-4.65Q497.58-5.92 498.08-6.90Q498.57-7.89 499.43-8.56Q500.29-9.24 501.44-9.58Q502.58-9.92 503.85-9.92L503.85-9.92Q504.90-9.92 505.97-9.67Q507.03-9.41 508.03-8.95Q509.02-8.48 509.91-7.80Q510.80-7.13 511.50-6.29L511.50-6.29L510.76-5.72Q510.18-6.31 509.45-6.77Q508.73-7.23 507.91-7.55Q507.09-7.87 506.23-8.04Q505.37-8.20 504.53-8.20L504.53-8.20Q503.61-8.20 502.73-7.97Q501.86-7.73 501.17-7.22Q500.49-6.70 500.06-5.89Q499.63-5.08 499.63-3.91L499.63-3.91Q499.63-2.85 500.16-1.93Q500.68-1.02 501.59-0.34Q502.50 0.33 503.72 0.72Q504.94 1.11 506.33 1.11L506.33 1.11Q508.30 1.11 509.88 0.38Q511.46-0.35 512.80-1.62Q514.14-2.89 515.32-4.60Q516.50-6.31 517.68-8.24L517.68-8.24Q517.13-8.07 516.56-7.87Q516.00-7.68 515.43-7.46L515.43-7.46L515.06-8.42Q515.96-8.71 516.78-8.96Q517.60-9.22 518.42-9.47L518.42-9.47Q519.53-11.33 520.73-13.27Q521.93-15.21 523.36-17.08Q524.79-18.95 526.49-20.64Q528.20-22.34 530.31-23.73L530.31-23.73ZM517.29-13.40L517.70-12.50Q515.90-11.68 514.12-11.31Q512.34-10.94 510.78-10.94L510.78-10.94Q508.96-10.94 507.46-11.43Q505.96-11.91 504.86-12.79Q503.77-13.67 503.16-14.90Q502.56-16.13 502.56-17.62L502.56-17.62Q502.56-19.47 503.19-20.92Q503.83-22.36 504.92-23.47Q506.02-24.57 507.50-25.33Q508.98-26.09 510.68-26.58Q512.38-27.07 514.22-27.29Q516.05-27.50 517.85-27.50L517.85-27.50Q519.92-27.50 521.88-27.25Q523.83-26.99 525.67-26.69Q527.52-26.39 529.26-26.13Q531.00-25.88 532.66-25.88L532.66-25.88Q534.55-25.88 536.15-26.17Q537.75-26.46 538.91-26.83Q540.06-27.19 540.71-27.49Q541.37-27.79 541.39-27.79L541.39-27.79L541.88-26.89Q541.82-26.86 541.11-26.53Q540.41-26.21 539.21-25.83Q538.01-25.45 536.35-25.15Q534.69-24.84 532.70-24.84L532.70-24.84Q530.84-24.84 529.12-25.09Q527.40-25.33 525.65-25.63Q523.91-25.92 522.03-26.16Q520.16-26.41 517.99-26.41L517.99-26.41Q514.79-26.41 512.33-25.79Q509.88-25.18 508.23-24.03Q506.58-22.89 505.74-21.26Q504.90-19.63 504.90-17.62L504.90-17.62Q504.90-16.23 505.44-15.20Q505.98-14.16 506.88-13.48Q507.79-12.79 508.97-12.45Q510.16-12.11 511.45-12.11L511.45-12.11Q512.58-12.11 513.63-12.30Q514.69-12.50 515.49-12.74Q516.29-12.99 516.78-13.19Q517.27-13.40 517.29-13.40L517.29-13.40ZM528.52-13.77L528.52-13.77Q528.18-13.77 527.76-13.15Q527.34-12.54 526.84-11.54L526.84-11.54Q527.44-11.78 527.81-12.03Q528.18-12.29 528.40-12.54Q528.61-12.79 528.69-13.05Q528.77-13.30 528.77-13.54L528.77-13.54Q528.77-13.67 528.69-13.72Q528.61-13.77 528.52-13.77Z M541.25-7.29L541.97-6.74Q541.68-6.31 541.28-5.58Q540.88-4.84 540.35-3.99Q539.82-3.14 539.19-2.27Q538.55-1.39 537.80-0.68Q537.05 0.02 536.17 0.47Q535.29 0.92 534.30 0.92L534.30 0.92Q533.75 0.92 533.26 0.75Q532.77 0.59 532.40 0.23Q532.03-0.12 531.82-0.63Q531.60-1.15 531.60-1.86L531.60-1.86Q531.60-2.81 531.98-3.86Q532.36-4.90 532.87-5.88Q533.38-6.86 533.89-7.67Q534.39-8.48 534.63-8.96L534.63-8.96Q534.86-9.45 534.86-9.80L534.86-9.80Q534.86-10.06 534.70-10.25Q534.53-10.45 534.29-10.63Q534.04-10.82 533.78-11.03Q533.52-11.23 533.34-11.52L533.34-11.52Q532.85-10.74 532.34-9.94L532.34-9.94Q531.89-9.26 531.37-8.41Q530.84-7.56 530.35-6.74L530.35-6.74L529.65-7.29L533.83-13.83L534.39-13.54Q534.36-13.42 534.27-13.16Q534.18-12.91 534.18-12.62L534.18-12.62Q534.18-12.40 534.25-12.20Q534.32-11.99 534.53-11.82L534.53-11.82Q535.31-11.11 535.76-10.73Q536.21-10.35 536.42-10.13Q536.62-9.90 536.67-9.76Q536.72-9.61 536.72-9.38L536.72-9.38Q536.72-9.14 536.64-8.81Q536.56-8.48 536.38-8.01Q536.19-7.54 535.87-6.90Q535.55-6.27 535.06-5.43L535.06-5.43Q534.77-4.92 534.48-4.40Q534.20-3.89 533.97-3.36Q533.75-2.83 533.61-2.30Q533.48-1.78 533.48-1.29L533.48-1.29Q533.48-0.92 533.58-0.69Q533.69-0.47 533.87-0.35Q534.04-0.23 534.25-0.20Q534.45-0.16 534.65-0.16L534.65-0.16Q535.29-0.16 535.93-0.54Q536.56-0.92 537.18-1.52Q537.79-2.13 538.37-2.90Q538.95-3.67 539.47-4.47Q540-5.27 540.45-6.01Q540.90-6.74 541.25-7.29L541.25-7.29Z"/></g>
</svg>
</g><g opacity="1" transform="rotate(0 845.4745 607.8307)">
<svg width="362.2235" height="90" x="845.4745" y="607.8307" version="1.1" preserveAspectRatio="none" viewBox="3.8 -31.56 130.39999999999998 32.4">
  <g transform="matrix(1 0 0 1 0 0)" class="companyName"><path id="id-D6z1nYkh7" d="M12.72-29.44Q18.12-29.44 21.08-26.78Q24.04-24.12 24.04-19.52L24.04-19.52Q24.04-16.88 23.02-14.58Q22-12.28 19.70-10.80Q17.40-9.32 13.76-9.32L13.76-9.32L9.60-9.32L9.60 0L3.80 0L3.80-29.44L12.72-29.44ZM13.72-14.96Q15.36-14.96 16.36-15.70Q17.36-16.44 17.80-17.44Q18.24-18.44 18.24-19.36L18.24-19.36Q18.24-20.92 17.32-22.38Q16.40-23.84 13.76-23.84L13.76-23.84L9.60-23.84L9.60-14.96L13.72-14.96Z M26.32-17.48L31.92-17.48L31.92 0L26.32 0L26.32-17.48ZM26.20-23.68Q26.20-24.88 27.14-25.70Q28.08-26.52 29.28-26.52L29.28-26.52Q30.44-26.52 31.36-25.70Q32.28-24.88 32.28-23.68L32.28-23.68Q32.28-22.48 31.36-21.68Q30.44-20.88 29.28-20.88L29.28-20.88Q28.08-20.88 27.14-21.68Q26.20-22.48 26.20-23.68L26.20-23.68Z M47.12 0L42.84-7.28L41.28-6.12L41.28 0L35.68 0L35.68-31.56L41.28-31.56L41.28-11.80L49.60-17.92L53-14.92L46.80-10.24L53.64 0L47.12 0Z M68.72-17.48L73.92-17.48L73.92 0L68.32 0L68.32-2.16Q65.80 0.48 62.48 0.48L62.48 0.48Q58.60 0.48 56.18-1.84Q53.76-4.16 53.76-8.72L53.76-8.72Q53.76-11.60 54.94-13.78Q56.12-15.96 58.08-17.16Q60.04-18.36 62.28-18.36L62.28-18.36Q64.60-18.36 65.96-17.66Q67.32-16.96 68.36-15.68L68.36-15.68L68.72-17.48ZM64.08-4.08Q67-4.08 68.32-6.72L68.32-6.72L68.32-11Q67.84-12.28 66.66-13.04Q65.48-13.80 63.88-13.80L63.88-13.80Q62.04-13.80 60.74-12.44Q59.44-11.08 59.44-9L59.44-9Q59.44-7.64 60.08-6.50Q60.72-5.36 61.78-4.72Q62.84-4.08 64.08-4.08L64.08-4.08Z M95.92-29.44L103.08-29.44L92.04-9.16L92.04 0L86.24 0L86.24-9.16L75.40-29.44L82.56-29.44L89.32-15.84L95.92-29.44Z M113.36-17.48L118.96-17.48L118.96 0L113.88 0L113.48-2.80Q112.56-1.12 110.90-0.14Q109.24 0.84 107 0.84L107 0.84Q104.60 0.84 103-0.64Q101.40-2.12 101.36-4.40L101.36-4.40L101.36-17.48L106.96-17.48L106.96-6.48Q107.08-3.92 109.32-3.92L109.32-3.92Q111.16-3.92 112.26-5.72Q113.36-7.52 113.36-10.36L113.36-10.36L113.36-17.48Z M124.36-25.16L129.96-25.16L129.96-17.56L134.20-17.56L134.20-13.20L129.96-13.20L129.96 0L124.36 0L124.36-13.20L121.64-13.20L121.64-17.56L124.36-17.56L124.36-25.16Z"/></g>
</svg>
</g></svg></svg>