<svg version="1.1" preserveAspectRatio="none" xmlns="http://www.w3.org/2000/svg" width="500" height="500" viewBox="0 0 500 500"><rect width="100%" height="100%" fill="#F3F3F3" fill-opacity="1"/><svg viewBox="205.9394 357.9363 475.8603 135.4" width="333" height="94.7509174436279" x="83.5px" y="202.6245px" xmlns="http://www.w3.org/2000/svg" xmlns:xlink="http://www.w3.org/1999/xlink" preserveAspectRatio="none"><defs></defs><style>.companyName {fill:#1e1e1e;fill-opacity:1;}.icon1 {fill:#1E1E1E;fill-opacity:1;}.icon3-str {stroke:#848383;stroke-opacity:1;}.shapeStroke-str {stroke:#949393;stroke-opacity:1;}</style><g opacity="1" transform="rotate(0 232.325 447.9363)">
<svg width="423.0891" height="1" x="232.325" y="447.9363" version="1.1" preserveAspectRatio="none" viewBox="0 0 423.0891 1">
  <defs><rect x="0" y="0" width="423.0891" height="1" rx="0%" ry="0%" id="id-Fn9MWtLe1676915560762"></rect></defs><use class="icon1 shapeStroke-str" style="stroke-width:0;" xlink:href="#id-Fn9MWtLe1676915560762"></use>
</svg>
</g><g opacity="1" transform="rotate(0 232.325 441.9363)">
<svg width="423.0891" height="2" x="232.325" y="441.9363" version="1.1" preserveAspectRatio="none" viewBox="0 0 423.0891 2">
  <defs><rect x="0" y="0" width="423.0891" height="2" rx="0%" ry="0%" id="id-7UcwTXs11676915560762"></rect></defs><use class="icon1 shapeStroke-str" style="stroke-width:0;" xlink:href="#id-7UcwTXs11676915560762"></use>
</svg>
</g><g opacity="1" transform="rotate(0 205.9394 463.9363)">
<svg width="475.8603" height="29.4" x="205.9394" y="463.9363" version="1.1" preserveAspectRatio="none" viewBox="2.72 -30.4 642.84 39.72">
  <g transform="matrix(1 0 0 1 0 0)" class="companyName"><path id="id-6izo4zJp30" d="M24.92-1.88Q23.36-0.92 21.40-0.30Q19.44 0.32 17.20 0.32L17.20 0.32Q12.92 0.32 9.64-1.60Q6.36-3.52 4.54-6.80Q2.72-10.08 2.72-14L2.72-14Q2.72-18.12 4.60-21.48Q6.48-24.84 9.76-26.78Q13.04-28.72 17.04-28.72L17.04-28.72Q21.24-28.72 24.80-26.56L24.80-26.56L23.96-24.76Q20.60-26.84 17.08-26.84L17.08-26.84Q13.76-26.84 10.92-25.14Q8.08-23.44 6.42-20.50Q4.76-17.56 4.76-14.08L4.76-14.08Q4.76-10.64 6.28-7.78Q7.80-4.92 10.60-3.24Q13.40-1.56 17.08-1.56L17.08-1.56Q20.76-1.56 24-3.60L24-3.60L24.92-1.88Z M31.68-7.92Q31.68-10.16 32.78-12.06Q33.88-13.96 35.80-15.06Q37.72-16.16 40.04-16.16L40.04-16.16Q42.36-16.16 44.28-15.06Q46.20-13.96 47.28-12.06Q48.36-10.16 48.36-7.92L48.36-7.92Q48.36-5.64 47.26-3.76Q46.16-1.88 44.26-0.78Q42.36 0.32 40 0.32L40 0.32Q37.64 0.32 35.74-0.74Q33.84-1.80 32.76-3.68Q31.68-5.56 31.68-7.92L31.68-7.92ZM33.56-7.88Q33.56-6.08 34.42-4.56Q35.28-3.04 36.76-2.16Q38.24-1.28 40-1.28L40-1.28Q41.76-1.28 43.24-2.16Q44.72-3.04 45.58-4.56Q46.44-6.08 46.44-7.88L46.44-7.88Q46.44-9.68 45.58-11.22Q44.72-12.76 43.24-13.64Q41.76-14.52 40-14.52L40-14.52Q38.20-14.52 36.72-13.58Q35.24-12.64 34.40-11.12Q33.56-9.60 33.56-7.88L33.56-7.88Z M75.40-16.08Q77.60-16.08 78.92-14.80Q80.24-13.52 80.32-11.40L80.32-11.40L80.32 0L78.44 0L78.44-11Q78.36-12.44 77.50-13.40Q76.64-14.36 75-14.44L75-14.44Q73.44-14.44 72.12-13.64Q70.80-12.84 69.98-11.50Q69.16-10.16 69.08-8.56L69.08-8.56L69.08 0L67.20 0L67.20-11Q67.12-12.44 66.24-13.40Q65.36-14.36 63.72-14.44L63.72-14.44Q62.16-14.44 60.80-13.64Q59.44-12.84 58.64-11.44Q57.84-10.04 57.84-8.40L57.84-8.40L57.84 0L55.96 0L55.96-15.64L57.60-15.64L57.76-12.20Q58.64-14 60.40-15.04Q62.16-16.08 64.24-16.08L64.24-16.08Q66.12-16.08 67.48-15.06Q68.84-14.04 69.08-12.44L69.08-12.44Q70-14.16 71.70-15.12Q73.40-16.08 75.40-16.08L75.40-16.08Z M108.88-16.08Q111.08-16.08 112.40-14.80Q113.72-13.52 113.80-11.40L113.80-11.40L113.80 0L111.92 0L111.92-11Q111.84-12.44 110.98-13.40Q110.12-14.36 108.48-14.44L108.48-14.44Q106.92-14.44 105.60-13.64Q104.28-12.84 103.46-11.50Q102.64-10.16 102.56-8.56L102.56-8.56L102.56 0L100.68 0L100.68-11Q100.60-12.44 99.72-13.40Q98.84-14.36 97.20-14.44L97.20-14.44Q95.64-14.44 94.28-13.64Q92.92-12.84 92.12-11.44Q91.32-10.04 91.32-8.40L91.32-8.40L91.32 0L89.44 0L89.44-15.64L91.08-15.64L91.24-12.20Q92.12-14 93.88-15.04Q95.64-16.08 97.72-16.08L97.72-16.08Q99.60-16.08 100.96-15.06Q102.32-14.04 102.56-12.44L102.56-12.44Q103.48-14.16 105.18-15.12Q106.88-16.08 108.88-16.08L108.88-16.08Z M134.28-15.64L136.16-15.64L136.16 0L134.48 0L134.36-3.32Q133.60-1.68 131.76-0.62Q129.92 0.44 127.84 0.44L127.84 0.44Q125.68 0.44 124.34-0.86Q123.00-2.16 122.92-4.24L122.92-4.24L122.92-15.64L124.80-15.64L124.80-4.80Q124.88-3.20 125.80-2.24Q126.72-1.28 128.48-1.20L128.48-1.20Q130-1.20 131.34-2Q132.68-2.80 133.48-4.20Q134.28-5.60 134.28-7.32L134.28-7.32L134.28-15.64Z M153.68-16.08Q155.84-16.08 157.20-14.78Q158.56-13.48 158.64-11.40L158.64-11.40L158.64 0L156.72 0L156.72-10.88Q156.64-12.44 155.72-13.42Q154.80-14.40 153.08-14.44L153.08-14.44Q151.48-14.44 150.14-13.68Q148.80-12.92 147.98-11.54Q147.16-10.16 147.16-8.40L147.16-8.40L147.16 0L145.28 0L145.28-15.64L146.92-15.64L147.08-12.16Q147.84-13.96 149.66-15.02Q151.48-16.08 153.68-16.08L153.68-16.08Z M167.76-15.64L169.64-15.64L169.64 0L167.76 0L167.76-15.64ZM167.36-21.40Q167.36-21.96 167.78-22.34Q168.20-22.72 168.76-22.72L168.76-22.72Q169.32-22.72 169.72-22.34Q170.12-21.96 170.12-21.40L170.12-21.40Q170.12-20.80 169.72-20.42Q169.32-20.04 168.76-20.04L168.76-20.04Q168.20-20.04 167.78-20.44Q167.36-20.84 167.36-21.40L167.36-21.40Z M180.32-22.52L182.24-22.52L182.24-15.44L187.08-15.44L187.08-13.92L182.24-13.92L182.24 0L180.32 0L180.32-13.92L177.00-13.92L177.00-15.44L180.32-15.44L180.32-22.52Z M205.40-15.64L207.24-15.64L197.16 7.52L195.20 7.52L198.56-0.16L191.32-15.64L193.44-15.64L199.52-2.32L205.40-15.64Z M228.48-28.16L230.24-28.16L230.24 9.32L228.48 9.32L228.48-28.16Z M262.28-2Q260.84-1.04 258.34-0.36Q255.84 0.32 253.68 0.32L253.68 0.32Q249.32 0.32 246.00-1.56Q242.68-3.44 240.86-6.68Q239.04-9.92 239.04-13.92L239.04-13.92Q239.04-18.16 241.00-21.54Q242.96-24.92 246.28-26.82Q249.60-28.72 253.56-28.72L253.56-28.72Q257.84-28.72 261.36-26.64L261.36-26.64L260.64-24.88Q259.20-25.72 257.36-26.24Q255.52-26.76 253.76-26.76L253.76-26.76Q250.20-26.76 247.28-25.10Q244.36-23.44 242.70-20.54Q241.04-17.64 241.04-14.04L241.04-14.04Q241.04-10.52 242.62-7.68Q244.20-4.84 247.06-3.22Q249.92-1.60 253.64-1.60L253.64-1.60Q255.36-1.60 257.20-2.02Q259.04-2.44 260.32-3.16L260.32-3.16L260.32-11.04L253.92-11.04L253.92-12.92L262.28-12.92L262.28-2Z M285.08-15.64L286.76-15.64L286.76 0L284.88 0L284.88-3.32Q283.96-1.80 282.08-0.74Q280.20 0.32 278.00 0.32L278.00 0.32Q275.76 0.32 273.94-0.70Q272.12-1.72 271.06-3.58Q270.00-5.44 270.00-7.84L270.00-7.84Q270.00-10.40 271.10-12.26Q272.20-14.12 274.14-15.12Q276.08-16.12 278.52-16.12L278.52-16.12Q280.44-16.12 282.20-15.04Q283.96-13.96 284.88-12.24L284.88-12.24L285.08-15.64ZM278.40-1.28Q281.04-1.28 282.88-2.92Q284.72-4.56 284.88-7.12L284.88-7.12L284.88-9.36Q284.40-11.56 282.56-13.04Q280.72-14.52 278.36-14.52L278.36-14.52Q276.56-14.52 275.08-13.70Q273.60-12.88 272.74-11.38Q271.88-9.88 271.88-7.92L271.88-7.92Q271.88-6.12 272.76-4.60Q273.64-3.08 275.14-2.18Q276.64-1.28 278.40-1.28L278.40-1.28Z M315.32-16.08Q317.52-16.08 318.84-14.80Q320.16-13.52 320.24-11.40L320.24-11.40L320.24 0L318.36 0L318.36-11Q318.28-12.44 317.42-13.40Q316.56-14.36 314.92-14.44L314.92-14.44Q313.36-14.44 312.04-13.64Q310.72-12.84 309.90-11.50Q309.08-10.16 309.00-8.56L309.00-8.56L309.00 0L307.12 0L307.12-11Q307.04-12.44 306.16-13.40Q305.28-14.36 303.64-14.44L303.64-14.44Q302.08-14.44 300.72-13.64Q299.36-12.84 298.56-11.44Q297.76-10.04 297.76-8.40L297.76-8.40L297.76 0L295.88 0L295.88-15.64L297.52-15.64L297.68-12.20Q298.56-14 300.32-15.04Q302.08-16.08 304.16-16.08L304.16-16.08Q306.04-16.08 307.40-15.06Q308.76-14.04 309.00-12.44L309.00-12.44Q309.92-14.16 311.62-15.12Q313.32-16.08 315.32-16.08L315.32-16.08Z M329.36-15.64L331.24-15.64L331.24 0L329.36 0L329.36-15.64ZM328.96-21.40Q328.96-21.96 329.38-22.34Q329.80-22.72 330.36-22.72L330.36-22.72Q330.92-22.72 331.32-22.34Q331.72-21.96 331.72-21.40L331.72-21.40Q331.72-20.80 331.32-20.42Q330.92-20.04 330.36-20.04L330.36-20.04Q329.80-20.04 329.38-20.44Q328.96-20.84 328.96-21.40L328.96-21.40Z M348.76-16.08Q350.92-16.08 352.28-14.78Q353.64-13.48 353.72-11.40L353.72-11.40L353.72 0L351.80 0L351.80-10.88Q351.72-12.44 350.80-13.42Q349.88-14.40 348.16-14.44L348.16-14.44Q346.56-14.44 345.22-13.68Q343.88-12.92 343.06-11.54Q342.24-10.16 342.24-8.40L342.24-8.40L342.24 0L340.36 0L340.36-15.64L342.00-15.64L342.16-12.16Q342.92-13.96 344.74-15.02Q346.56-16.08 348.76-16.08L348.76-16.08Z M376.60-15.64L378.28-15.64L378.28 0.24Q378.28 3.44 376.18 5.54Q374.08 7.64 369.80 7.64L369.80 7.64Q367.76 7.64 366.04 6.90Q364.32 6.16 362.52 4.44L362.52 4.44L363.64 3.16Q365.24 4.72 366.72 5.34Q368.20 5.96 369.72 5.96L369.72 5.96Q373.16 5.96 374.72 4.40Q376.28 2.84 376.36 0.20L376.36 0.20L376.40-3.48Q375.36-1.76 373.46-0.72Q371.56 0.32 369.32 0.32L369.32 0.32Q367.12 0.32 365.30-0.76Q363.48-1.84 362.40-3.72Q361.32-5.60 361.32-7.88L361.32-7.88Q361.32-10.24 362.44-12.12Q363.56-14 365.48-15.06Q367.40-16.12 369.72-16.12L369.72-16.12Q371.76-16.12 373.64-15.10Q375.52-14.08 376.44-12.40L376.44-12.40L376.60-15.64ZM369.80-1.28Q371.52-1.28 372.98-2.06Q374.44-2.84 375.36-4.16Q376.28-5.48 376.40-7L376.40-7L376.40-9.32Q375.92-11.60 374.06-13.06Q372.20-14.52 369.80-14.52L369.80-14.52Q367.96-14.52 366.44-13.68Q364.92-12.84 364.06-11.34Q363.20-9.84 363.20-7.92L363.20-7.92Q363.20-6.12 364.08-4.60Q364.96-3.08 366.48-2.18Q368.00-1.28 369.80-1.28L369.80-1.28Z M415.24-15.64L416.92-15.64L416.92 0L415.04 0L415.04-3.32Q414.12-1.80 412.24-0.74Q410.36 0.32 408.16 0.32L408.16 0.32Q405.92 0.32 404.10-0.70Q402.28-1.72 401.22-3.58Q400.16-5.44 400.16-7.84L400.16-7.84Q400.16-10.40 401.26-12.26Q402.36-14.12 404.30-15.12Q406.24-16.12 408.68-16.12L408.68-16.12Q410.60-16.12 412.36-15.04Q414.12-13.96 415.04-12.24L415.04-12.24L415.24-15.64ZM408.56-1.28Q411.20-1.28 413.04-2.92Q414.88-4.56 415.04-7.12L415.04-7.12L415.04-9.36Q414.56-11.56 412.72-13.04Q410.88-14.52 408.52-14.52L408.52-14.52Q406.72-14.52 405.24-13.70Q403.76-12.88 402.90-11.38Q402.04-9.88 402.04-7.92L402.04-7.92Q402.04-6.12 402.92-4.60Q403.80-3.08 405.30-2.18Q406.80-1.28 408.56-1.28L408.56-1.28Z M434.44-16.08Q436.60-16.08 437.96-14.78Q439.32-13.48 439.40-11.40L439.40-11.40L439.40 0L437.48 0L437.48-10.88Q437.40-12.44 436.48-13.42Q435.56-14.40 433.84-14.44L433.84-14.44Q432.24-14.44 430.90-13.68Q429.56-12.92 428.74-11.54Q427.92-10.16 427.92-8.40L427.92-8.40L427.92 0L426.04 0L426.04-15.64L427.68-15.64L427.84-12.16Q428.60-13.96 430.42-15.02Q432.24-16.08 434.44-16.08L434.44-16.08Z M462.00-30.40L463.88-30.40L463.88 0L461.96 0L461.96-3.24Q460.88-1.64 459.00-0.66Q457.12 0.32 454.92 0.32L454.92 0.32Q452.72 0.32 450.90-0.74Q449.08-1.80 448.04-3.70Q447.00-5.60 447.00-7.92L447.00-7.92Q447.00-10.36 448.08-12.24Q449.16-14.12 451.00-15.12Q452.84-16.12 455.12-16.12L455.12-16.12Q457.16-16.12 459.06-15.12Q460.96-14.12 462.00-12.48L462.00-12.48L462.00-30.40ZM455.40-1.32Q458.08-1.32 459.92-3Q461.76-4.68 461.96-7.24L461.96-7.24L461.96-9.24Q461.52-11.52 459.66-13.04Q457.80-14.56 455.40-14.56L455.40-14.56Q453.60-14.56 452.12-13.72Q450.64-12.88 449.76-11.38Q448.88-9.88 448.88-7.96L448.88-7.96Q448.88-6.16 449.76-4.64Q450.64-3.12 452.14-2.22Q453.64-1.32 455.40-1.32L455.40-1.32Z M499.36-1.52Q498.28-0.64 496.90-0.16Q495.52 0.32 494.08 0.32L494.08 0.32Q491.72 0.32 489.82-0.74Q487.92-1.80 486.84-3.66Q485.76-5.52 485.76-7.84L485.76-7.84Q485.76-10.16 486.86-12.02Q487.96-13.88 489.84-14.94Q491.72-16 493.92-16L493.92-16Q497.16-16 499.40-14.16L499.40-14.16L498.40-12.88Q496.40-14.44 494.04-14.44L494.04-14.44Q492.28-14.44 490.82-13.56Q489.36-12.68 488.50-11.16Q487.64-9.64 487.64-7.84L487.64-7.84Q487.64-6.04 488.50-4.54Q489.36-3.04 490.86-2.16Q492.36-1.28 494.20-1.28L494.20-1.28Q496.44-1.28 498.32-2.68L498.32-2.68L499.36-1.52Z M505.08-7.92Q505.08-10.16 506.18-12.06Q507.28-13.96 509.20-15.06Q511.12-16.16 513.44-16.16L513.44-16.16Q515.76-16.16 517.68-15.06Q519.60-13.96 520.68-12.06Q521.76-10.16 521.76-7.92L521.76-7.92Q521.76-5.64 520.66-3.76Q519.56-1.88 517.66-0.78Q515.76 0.32 513.40 0.32L513.40 0.32Q511.04 0.32 509.14-0.74Q507.24-1.80 506.16-3.68Q505.08-5.56 505.08-7.92L505.08-7.92ZM506.96-7.88Q506.96-6.08 507.82-4.56Q508.68-3.04 510.16-2.16Q511.64-1.28 513.40-1.28L513.40-1.28Q515.16-1.28 516.64-2.16Q518.12-3.04 518.98-4.56Q519.84-6.08 519.84-7.88L519.84-7.88Q519.84-9.68 518.98-11.22Q518.12-12.76 516.64-13.64Q515.16-14.52 513.40-14.52L513.40-14.52Q511.60-14.52 510.12-13.58Q508.64-12.64 507.80-11.12Q506.96-9.60 506.96-7.88L506.96-7.88Z M542.84-30.40L544.72-30.40L544.72 0L542.80 0L542.80-3.24Q541.72-1.64 539.84-0.66Q537.96 0.32 535.76 0.32L535.76 0.32Q533.56 0.32 531.74-0.74Q529.92-1.80 528.88-3.70Q527.84-5.60 527.84-7.92L527.84-7.92Q527.84-10.36 528.92-12.24Q530.00-14.12 531.84-15.12Q533.68-16.12 535.96-16.12L535.96-16.12Q538.00-16.12 539.90-15.12Q541.80-14.12 542.84-12.48L542.84-12.48L542.84-30.40ZM536.24-1.32Q538.92-1.32 540.76-3Q542.60-4.68 542.80-7.24L542.80-7.24L542.80-9.24Q542.36-11.52 540.50-13.04Q538.64-14.56 536.24-14.56L536.24-14.56Q534.44-14.56 532.96-13.72Q531.48-12.88 530.60-11.38Q529.72-9.88 529.72-7.96L529.72-7.96Q529.72-6.16 530.60-4.64Q531.48-3.12 532.98-2.22Q534.48-1.32 536.24-1.32L536.24-1.32Z M560.68-1.32Q563.20-1.32 565.24-3.04L565.24-3.04L566.20-1.68Q565.04-0.76 563.58-0.22Q562.12 0.32 560.64 0.32L560.64 0.32Q558.24 0.32 556.34-0.76Q554.44-1.84 553.38-3.70Q552.32-5.56 552.32-7.88L552.32-7.88Q552.32-10.12 553.44-12.02Q554.56-13.92 556.48-15.04Q558.40-16.16 560.68-16.16L560.68-16.16Q563.40-16.16 565.32-14.56Q567.24-12.96 568.12-10.24L568.12-10.24L554.76-5.08Q555.52-3.40 557.10-2.36Q558.68-1.32 560.68-1.32L560.68-1.32ZM560.56-14.56Q558.80-14.56 557.32-13.68Q555.84-12.80 555.00-11.30Q554.16-9.80 554.16-7.96L554.16-7.96Q554.16-7.12 554.32-6.48L554.32-6.48L565.84-11Q565.08-12.60 563.72-13.58Q562.36-14.56 560.56-14.56L560.56-14.56Z M575.60-28.16L577.36-28.16L577.36 9.32L575.60 9.32L575.60-28.16Z M602.24-28.40L618.16-28.40L618.16-26.52L604.20-26.52L604.20-14.80L616.56-14.80L616.56-12.96L604.20-12.96L604.20 0L602.24 0L602.24-28.40Z M645.56 0L643.28 0L635.84-12.08Q635.00-11.92 633.72-11.92L633.72-11.92L629.32-11.92L629.32 0L627.36 0L627.36-28.40L633.84-28.40Q636.08-28.40 638.14-27.52Q640.20-26.64 641.50-24.84Q642.80-23.04 642.80-20.36L642.80-20.36Q642.80-17.76 641.60-15.66Q640.40-13.56 637.88-12.60L637.88-12.60L645.56 0ZM633.60-13.80Q637.48-13.80 639.14-15.72Q640.80-17.64 640.80-20.28L640.80-20.28Q640.80-21.96 639.98-23.40Q639.16-24.84 637.64-25.68Q636.12-26.52 634.12-26.52L634.12-26.52L629.32-26.52L629.32-13.80L633.60-13.80Z"/></g>
</svg>
</g><g opacity="1" transform="rotate(0 252.325 357.9363)">
<svg width="383.0891" height="70" x="252.325" y="357.9363" version="1.1" preserveAspectRatio="none" viewBox="1.68 -25.12 140.32 25.64">
  <g transform="matrix(1 0 0 1 0 0)" class="companyName"><path id="id-D6z1nYkh7" d="M7.44-3.40Q7.44-2.12 7.80-1.54Q8.16-0.96 9.18-0.72Q10.20-0.48 12.44-0.48L12.44-0.48Q12.56-0.48 12.56-0.24Q12.56 0 12.44 0L12.44 0Q10.80 0 9.88-0.04L9.88-0.04L6.40-0.08L3.76-0.04Q3.04 0 1.76 0L1.76 0Q1.68 0 1.68-0.24Q1.68-0.48 1.76-0.48L1.76-0.48Q3.32-0.48 4.06-0.68Q4.80-0.88 5.06-1.46Q5.32-2.04 5.32-3.24L5.32-3.24L5.32-21.76Q5.32-22.96 5.06-23.52Q4.80-24.08 4.06-24.30Q3.32-24.52 1.76-24.52L1.76-24.52Q1.68-24.52 1.68-24.76Q1.68-25 1.76-25L1.76-25L3.72-24.96Q5.40-24.88 6.36-24.88L6.36-24.88Q7.32-24.88 8.56-25L8.56-25Q11.68-25.12 11.96-25.12L11.96-25.12Q15.48-25.12 17.68-23.50Q19.88-21.88 19.88-18.56L19.88-18.56Q19.88-15.88 18.56-14.06Q17.24-12.24 15.22-11.36Q13.20-10.48 11.04-10.48L11.04-10.48Q9.84-10.48 9.08-10.68L9.08-10.68Q8.96-10.68 8.96-10.88L8.96-10.88Q8.96-11 9.02-11.12Q9.08-11.24 9.16-11.20L9.16-11.20Q9.80-11.04 10.60-11.04L10.60-11.04Q13.44-11.04 15.42-12.76Q17.40-14.48 17.40-17.76L17.40-17.76Q17.40-19.88 16.56-21.42Q15.72-22.96 14.26-23.78Q12.80-24.60 11.04-24.60L11.04-24.60Q9.40-24.60 8.72-24.44Q8.04-24.28 7.74-23.70Q7.44-23.12 7.44-21.68L7.44-21.68L7.44-3.40Z M28.48-3.24Q28.48-2 28.70-1.44Q28.92-0.88 29.54-0.68Q30.16-0.48 31.56-0.48L31.56-0.48Q31.68-0.48 31.68-0.24Q31.68 0 31.56 0L31.56 0Q30.48 0 29.88-0.04L29.88-0.04L27.40-0.08L25.04-0.04Q24.40 0 23.28 0L23.28 0Q23.20 0 23.20-0.24Q23.20-0.48 23.28-0.48L23.28-0.48Q24.68-0.48 25.32-0.68Q25.96-0.88 26.18-1.46Q26.40-2.04 26.40-3.24L26.40-3.24L26.40-15.48Q26.40-16.68 26.18-17.24Q25.96-17.80 25.30-18.02Q24.64-18.24 23.28-18.24L23.28-18.24Q23.20-18.24 23.20-18.48Q23.20-18.72 23.28-18.72L23.28-18.72L25.04-18.68Q26.56-18.60 27.40-18.60L27.40-18.60Q28.40-18.60 29.92-18.68L29.92-18.68L31.56-18.72Q31.68-18.72 31.68-18.48Q31.68-18.24 31.56-18.24L31.56-18.24Q30.24-18.24 29.60-18Q28.96-17.76 28.72-17.18Q28.48-16.60 28.48-15.40L28.48-15.40L28.48-3.24Z M54.28-0.48Q54.40-0.48 54.40-0.24Q54.40 0 54.28 0L54.28 0L50.36 0Q49.04 0 48.84-0.12Q48.64-0.24 47.68-1.84Q46.72-3.44 44.84-5.80L44.84-5.80L41.64-9.84L39.84-8.12L39.84-3.24Q39.84-2 40.06-1.44Q40.28-0.88 40.90-0.68Q41.52-0.48 42.92-0.48L42.92-0.48Q43.04-0.48 43.04-0.24Q43.04 0 42.92 0L42.92 0Q41.84 0 41.24-0.04L41.24-0.04L38.80-0.08L36.44-0.04Q35.80 0 34.68 0L34.68 0Q34.60 0 34.60-0.24Q34.60-0.48 34.68-0.48L34.68-0.48Q36.08-0.48 36.72-0.68Q37.36-0.88 37.60-1.46Q37.84-2.04 37.84-3.24L37.84-3.24L37.84-15.48Q37.84-16.68 37.60-17.24Q37.36-17.80 36.72-18.02Q36.08-18.24 34.72-18.24L34.72-18.24Q34.64-18.24 34.64-18.48Q34.64-18.72 34.72-18.72L34.72-18.72L36.48-18.68Q37.92-18.60 38.80-18.60L38.80-18.60Q39.80-18.60 41.24-18.68L41.24-18.68L42.92-18.72Q43.04-18.72 43.04-18.48Q43.04-18.24 42.92-18.24L42.92-18.24Q41.60-18.24 40.96-18Q40.32-17.76 40.08-17.18Q39.84-16.60 39.84-15.40L39.84-15.40L39.84-8.96L46.56-15.72Q48.16-17.24 48.16-17.72L48.16-17.72Q48.16-18 47.70-18.12Q47.24-18.24 46.12-18.24L46.12-18.24Q46-18.24 46-18.48Q46-18.72 46.12-18.72L46.12-18.72L47.56-18.68Q48.76-18.60 50.12-18.60L50.12-18.60Q51.60-18.60 52.88-18.68L52.88-18.68Q53.20-18.72 53.68-18.72L53.68-18.72Q53.80-18.72 53.80-18.48Q53.80-18.24 53.68-18.24L53.68-18.24Q52.36-18.24 50.64-17.60Q48.92-16.96 47.40-15.48L47.40-15.48L43.04-11.20L45.64-7.92Q48.76-3.92 49.88-2.64Q51-1.36 51.88-0.92Q52.76-0.48 54.28-0.48L54.28-0.48Z M76.96-0.48Q77.12-0.48 77.12-0.24Q77.12 0 76.96 0L76.96 0Q76.24 0 74.64-0.08L74.64-0.08Q73.12-0.16 72.40-0.16L72.40-0.16Q71.84-0.16 70.80-0.08L70.80-0.08Q69.84 0 69.32 0L69.32 0Q69.16 0 69.16-0.24Q69.16-0.48 69.32-0.48L69.32-0.48Q70.40-0.48 70.94-0.76Q71.48-1.04 71.48-1.72L71.48-1.72Q71.48-2.36 71-3.36L71-3.36L68.24-9.36L62.36-9.36L60.60-4.92Q59.96-3.24 59.96-2.44L59.96-2.44Q59.96-1.40 60.70-0.94Q61.44-0.48 62.92-0.48L62.92-0.48Q63.12-0.48 63.12-0.24Q63.12 0 62.92 0L62.92 0Q62.32 0 61.28-0.08L61.28-0.08Q60.16-0.16 59.20-0.16L59.20-0.16Q58.20-0.16 56.84-0.08L56.84-0.08Q55.64 0 54.92 0L54.92 0Q54.76 0 54.76-0.24Q54.76-0.48 54.92-0.48L54.92-0.48Q56.16-0.48 56.88-0.82Q57.60-1.16 58.20-2.16Q58.80-3.16 59.68-5.28L59.68-5.28L65.40-19.32Q65.48-19.48 65.64-19.48Q65.80-19.48 65.84-19.32L65.84-19.32L72.28-5.48Q73.32-3.24 73.94-2.24Q74.56-1.24 75.22-0.86Q75.88-0.48 76.96-0.48L76.96-0.48ZM65.08-16.16L62.64-10L67.92-10L65.08-16.16Z M101.56-25Q101.64-25 101.64-24.76Q101.64-24.52 101.56-24.52L101.56-24.52Q100.08-24.52 98.68-23.58Q97.28-22.64 96.16-20.92L96.16-20.92L90.52-12.36L90.52-3.24Q90.52-2 90.76-1.44Q91-0.88 91.72-0.68Q92.44-0.48 94.04-0.48L94.04-0.48Q94.16-0.48 94.16-0.24Q94.16 0 94.04 0L94.04 0Q92.84 0 92.16-0.04L92.16-0.04L89.44-0.08L86.72-0.04Q86 0 84.80 0L84.80 0Q84.68 0 84.68-0.24Q84.68-0.48 84.80-0.48L84.80-0.48Q86.36-0.48 87.10-0.68Q87.84-0.88 88.12-1.46Q88.40-2.04 88.40-3.24L88.40-3.24L88.40-11.76L81.56-21.68Q80.52-23.24 79.52-23.88Q78.52-24.52 77.04-24.52L77.04-24.52Q76.92-24.52 76.92-24.76Q76.92-25 77.04-25L77.04-25L78.52-24.96Q79.48-24.88 79.96-24.88L79.96-24.88Q81.28-24.88 83.20-24.96L83.20-24.96L85.28-25Q85.36-25 85.36-24.76Q85.36-24.52 85.28-24.52L85.28-24.52Q84.08-24.52 83.54-24.34Q83-24.16 83-23.76L83-23.76Q83-23.52 83.40-22.92L83.40-22.92L90.12-13.28L95.24-21.04Q96.12-22.48 96.12-23.24L96.12-23.24Q96.12-24.52 93.96-24.52L93.96-24.52Q93.88-24.52 93.88-24.76Q93.88-25 93.96-25L93.96-25L95.76-24.96Q97.28-24.88 98.44-24.88L98.44-24.88Q99.12-24.88 100.08-24.96L100.08-24.96L101.56-25Z M119.04-15Q119.04-16.32 118.78-17Q118.52-17.68 117.88-17.96Q117.24-18.24 116-18.24L116-18.24Q115.88-18.24 115.88-18.48Q115.88-18.72 116-18.72L116-18.72L117.52-18.68Q118.72-18.60 119.40-18.60L119.40-18.60Q119.96-18.60 121.08-18.68L121.08-18.68L122.52-18.72Q122.60-18.72 122.60-18.48Q122.60-18.24 122.52-18.24L122.52-18.24Q121.40-18.24 120.84-17.96Q120.28-17.68 120.06-17Q119.84-16.32 119.84-15L119.84-15L119.84-7.36Q119.84-3.64 117.74-1.56Q115.64 0.52 112.12 0.52L112.12 0.52Q109.88 0.52 108.06-0.38Q106.24-1.28 105.18-2.96Q104.12-4.64 104.12-6.96L104.12-6.96L104.12-15.48Q104.12-16.68 103.88-17.24Q103.64-17.80 103.02-18.02Q102.40-18.24 101.04-18.24L101.04-18.24Q100.92-18.24 100.92-18.48Q100.92-18.72 101.04-18.72L101.04-18.72L102.80-18.68Q104.24-18.60 105.04-18.60L105.04-18.60Q106.04-18.60 107.48-18.68L107.48-18.68L109.16-18.72Q109.28-18.72 109.28-18.48Q109.28-18.24 109.16-18.24L109.16-18.24Q107.84-18.24 107.20-18Q106.56-17.76 106.32-17.18Q106.08-16.60 106.08-15.40L106.08-15.40L106.08-8Q106.08-4.24 108.04-2.44Q110-0.64 113-0.64L113-0.64Q115.84-0.64 117.44-2.34Q119.04-4.04 119.04-7.28L119.04-7.28L119.04-15Z M129.08-18.28Q127.40-18.28 126.54-17.90Q125.68-17.52 125.28-16.54Q124.88-15.56 124.64-13.60L124.64-13.60Q124.64-13.52 124.42-13.52Q124.20-13.52 124.20-13.60L124.20-13.60Q124.32-14.48 124.46-16.50Q124.60-18.52 124.60-19.60L124.60-19.60Q124.60-19.80 124.84-19.80Q125.08-19.80 125.08-19.60L125.08-19.60Q125.08-19.08 125.68-18.94Q126.28-18.80 127.16-18.80L127.16-18.80Q130.68-18.72 133.20-18.72L133.20-18.72L136.68-18.76Q137.40-18.80 138.56-18.80L138.56-18.80Q140-18.80 140.66-18.98Q141.32-19.16 141.52-19.76L141.52-19.76Q141.60-19.88 141.80-19.88Q142-19.88 142-19.76L142-19.76Q141.76-15.44 141.76-13.60L141.76-13.60Q141.76-13.52 141.54-13.52Q141.32-13.52 141.32-13.60L141.32-13.60Q141.32-15.60 141.02-16.56Q140.72-17.52 139.90-17.90Q139.08-18.28 137.36-18.28L137.36-18.28Q136.04-18.28 135.36-18.04Q134.68-17.80 134.42-17.22Q134.16-16.64 134.16-15.48L134.16-15.48L134.16-3.24Q134.16-2 134.40-1.44Q134.64-0.88 135.38-0.68Q136.12-0.48 137.72-0.48L137.72-0.48Q137.80-0.48 137.80-0.24Q137.80 0 137.72 0L137.72 0Q136.48 0 135.80-0.04L135.80-0.04L133.08-0.08L130.48-0.04Q129.76 0 128.48 0L128.48 0Q128.40 0 128.40-0.24Q128.40-0.48 128.48-0.48L128.48-0.48Q130.04-0.48 130.78-0.68Q131.52-0.88 131.80-1.46Q132.08-2.04 132.08-3.24L132.08-3.24L132.08-15.56Q132.08-16.76 131.88-17.32Q131.68-17.88 131.06-18.08Q130.44-18.28 129.08-18.28L129.08-18.28Z"/></g>
</svg>
</g></svg></svg>