<svg version="1.1" preserveAspectRatio="none" xmlns="http://www.w3.org/2000/svg" width="500" height="500" viewBox="0 0 500 500"><rect width="100%" height="100%" fill="#1C1C1C" fill-opacity="1"/><svg viewBox="128.2713 464.7007 543.9179 341.3162" width="333" height="208.96222499755936" x="83.5px" y="145.5189px" xmlns="http://www.w3.org/2000/svg" xmlns:xlink="http://www.w3.org/1999/xlink" preserveAspectRatio="none"><defs></defs><style>.companyName {fill:#EDEDED;fill-opacity:1;}.icon1 {fill:#EDEDED;fill-opacity:1;}.icon2 {fill:#F35F40;fill-opacity:1;}.icon3 {fill:#B2B2B1;fill-opacity:1;}.icon3-str {stroke:#B2B2B1;stroke-opacity:1;}.text {fill:#EDEDED;fill-opacity:1;}</style><g opacity="1" transform="rotate(0 284.52 464.7007)">
<svg width="231.4207" height="153.3162" x="284.52" y="464.7007" version="1.1" preserveAspectRatio="none" viewBox="20 47 160 106">
  <g transform="matrix(1 0 0 1 0 0)" ><g><path d="M143.554 72.71c-.718 23.548-19.917 42.428-43.554 42.428S57.164 96.258 56.446 72.71H20C20 117.054 55.818 153 100 153s80-35.946 80-80.29h-36.446z" data-color="1" class="icon1"></path><path d="M100 47l21.686 37.698 21.686 37.698H56.628l21.686-37.698L100 47z" data-color="2" class="icon2"></path></g></g>
</svg>
</g><g opacity="1" transform="rotate(0 128.2713 780.0169)">
<svg width="543.9179" height="26" x="128.2713" y="780.0169" version="1.1" preserveAspectRatio="none" viewBox="2.08 -29.68 787.28 37.64">
  <g transform="matrix(1 0 0 1 0 0)" class="text"><path id="id-6izo4zJp30" d="M16.72 0.24Q12.56 0.24 9.22-1.60Q5.88-3.44 3.98-6.70Q2.08-9.96 2.08-14L2.08-14Q2.08-18.04 3.98-21.30Q5.88-24.56 9.24-26.40Q12.60-28.24 16.76-28.24L16.76-28.24Q19.88-28.24 22.52-27.20Q25.16-26.16 27-24.16L27-24.16L25.12-22.28Q21.84-25.60 16.84-25.60L16.84-25.60Q13.52-25.60 10.80-24.08Q8.08-22.56 6.54-19.92Q5-17.28 5-14L5-14Q5-10.72 6.54-8.08Q8.08-5.44 10.80-3.92Q13.52-2.40 16.84-2.40L16.84-2.40Q21.88-2.40 25.12-5.76L25.12-5.76L27-3.88Q25.16-1.88 22.50-0.82Q19.84 0.24 16.72 0.24L16.72 0.24Z M43.60 0.20Q40.56 0.20 38.12-1.18Q35.68-2.56 34.28-5Q32.88-7.44 32.88-10.52L32.88-10.52Q32.88-13.60 34.28-16.04Q35.68-18.48 38.12-19.84Q40.56-21.20 43.60-21.20L43.60-21.20Q46.64-21.20 49.08-19.84Q51.52-18.48 52.90-16.04Q54.28-13.60 54.28-10.52L54.28-10.52Q54.28-7.44 52.90-5Q51.52-2.56 49.08-1.18Q46.64 0.20 43.60 0.20L43.60 0.20ZM43.60-2.32Q45.84-2.32 47.62-3.34Q49.40-4.36 50.40-6.24Q51.40-8.12 51.40-10.52L51.40-10.52Q51.40-12.92 50.40-14.80Q49.40-16.68 47.62-17.70Q45.84-18.72 43.60-18.72L43.60-18.72Q41.36-18.72 39.58-17.70Q37.80-16.68 36.78-14.80Q35.76-12.92 35.76-10.52L35.76-10.52Q35.76-8.12 36.78-6.24Q37.80-4.36 39.58-3.34Q41.36-2.32 43.60-2.32L43.60-2.32Z M89.52-21.20Q93.48-21.20 95.74-18.92Q98-16.64 98-12.20L98-12.20L98 0L95.16 0L95.16-11.92Q95.16-15.20 93.58-16.92Q92-18.64 89.12-18.64L89.12-18.64Q85.84-18.64 83.96-16.62Q82.08-14.60 82.08-11.04L82.08-11.04L82.08 0L79.24 0L79.24-11.92Q79.24-15.20 77.66-16.92Q76.08-18.64 73.16-18.64L73.16-18.64Q69.92-18.64 68.02-16.62Q66.12-14.60 66.12-11.04L66.12-11.04L66.12 0L63.28 0L63.28-21.04L66-21.04L66-17.20Q67.12-19.12 69.12-20.16Q71.12-21.20 73.72-21.20L73.72-21.20Q76.36-21.20 78.30-20.08Q80.24-18.96 81.20-16.76L81.20-16.76Q82.36-18.84 84.54-20.02Q86.72-21.20 89.52-21.20L89.52-21.20Z M135.16-21.20Q139.12-21.20 141.38-18.92Q143.64-16.64 143.64-12.20L143.64-12.20L143.64 0L140.80 0L140.80-11.92Q140.80-15.20 139.22-16.92Q137.64-18.64 134.76-18.64L134.76-18.64Q131.48-18.64 129.60-16.62Q127.72-14.60 127.72-11.04L127.72-11.04L127.72 0L124.88 0L124.88-11.92Q124.88-15.20 123.30-16.92Q121.72-18.64 118.80-18.64L118.80-18.64Q115.56-18.64 113.66-16.62Q111.76-14.60 111.76-11.04L111.76-11.04L111.76 0L108.92 0L108.92-21.04L111.64-21.04L111.64-17.20Q112.76-19.12 114.76-20.16Q116.76-21.20 119.36-21.20L119.36-21.20Q122-21.20 123.94-20.08Q125.88-18.96 126.84-16.76L126.84-16.76Q128-18.84 130.18-20.02Q132.36-21.20 135.16-21.20L135.16-21.20Z M170.68-21.04L173.52-21.04L173.52 0L170.80 0L170.80-3.84Q169.68-1.92 167.72-0.86Q165.76 0.20 163.24 0.20L163.24 0.20Q159.12 0.20 156.74-2.10Q154.36-4.40 154.36-8.84L154.36-8.84L154.36-21.04L157.20-21.04L157.20-9.12Q157.20-5.80 158.84-4.08Q160.48-2.36 163.52-2.36L163.52-2.36Q166.84-2.36 168.76-4.38Q170.68-6.40 170.68-10L170.68-10L170.68-21.04Z M195.40-21.20Q199.36-21.20 201.70-18.90Q204.04-16.60 204.04-12.20L204.04-12.20L204.04 0L201.20 0L201.20-11.92Q201.20-15.20 199.56-16.92Q197.92-18.64 194.88-18.64L194.88-18.64Q191.48-18.64 189.50-16.62Q187.52-14.60 187.52-11.04L187.52-11.04L187.52 0L184.68 0L184.68-21.04L187.40-21.04L187.40-17.16Q188.56-19.08 190.62-20.14Q192.68-21.20 195.40-21.20L195.40-21.20Z M214.96 0L214.96-21.04L217.80-21.04L217.80 0L214.96 0ZM216.40-25.64Q215.52-25.64 214.92-26.24Q214.32-26.84 214.32-27.68L214.32-27.68Q214.32-28.48 214.92-29.08Q215.52-29.68 216.40-29.68L216.40-29.68Q217.28-29.68 217.88-29.10Q218.48-28.52 218.48-27.72L218.48-27.72Q218.48-26.84 217.88-26.24Q217.28-25.64 216.40-25.64L216.40-25.64Z M239.00-3.32L240.00-1.28Q239.20-0.56 238.02-0.18Q236.84 0.20 235.56 0.20L235.56 0.20Q232.60 0.20 231.00-1.40Q229.40-3 229.40-5.92L229.40-5.92L229.40-18.64L225.64-18.64L225.64-21.04L229.40-21.04L229.40-25.64L232.24-25.64L232.24-21.04L238.64-21.04L238.64-18.64L232.24-18.64L232.24-6.08Q232.24-4.20 233.18-3.22Q234.12-2.24 235.88-2.24L235.88-2.24Q236.76-2.24 237.58-2.52Q238.40-2.80 239.00-3.32L239.00-3.32Z M262.84-21.04L265.64-21.04L255.12 2.52Q253.84 5.48 252.16 6.72Q250.48 7.96 248.12 7.96L248.12 7.96Q246.60 7.96 245.28 7.48Q243.96 7 243.00 6.04L243.00 6.04L244.32 3.92Q245.92 5.52 248.16 5.52L248.16 5.52Q249.60 5.52 250.62 4.72Q251.64 3.92 252.52 2L252.52 2L253.44-0.04L244.04-21.04L247.00-21.04L254.92-3.16L262.84-21.04Z M287.12 7.76L287.12-29.68L289.76-29.68L289.76 7.76L287.12 7.76Z M321.84-4.56L321.84-14L324.68-14L324.68-3.32Q322.72-1.60 320.04-0.68Q317.36 0.24 314.40 0.24L314.40 0.24Q310.20 0.24 306.84-1.60Q303.48-3.44 301.56-6.70Q299.64-9.96 299.64-14L299.64-14Q299.64-18.04 301.56-21.30Q303.48-24.56 306.84-26.40Q310.20-28.24 314.44-28.24L314.44-28.24Q317.64-28.24 320.32-27.22Q323.00-26.20 324.84-24.20L324.84-24.20L323.00-22.32Q319.68-25.60 314.56-25.60L314.56-25.60Q311.16-25.60 308.42-24.10Q305.68-22.60 304.12-19.94Q302.56-17.28 302.56-14L302.56-14Q302.56-10.72 304.12-8.08Q305.68-5.44 308.40-3.92Q311.12-2.40 314.52-2.40L314.52-2.40Q318.84-2.40 321.84-4.56L321.84-4.56Z M343.00-21.20Q347.12-21.20 349.32-19.14Q351.52-17.08 351.52-13.04L351.52-13.04L351.52 0L348.80 0L348.80-3.28Q347.84-1.64 345.98-0.72Q344.12 0.20 341.56 0.20L341.56 0.20Q338.04 0.20 335.96-1.48Q333.88-3.16 333.88-5.92L333.88-5.92Q333.88-8.60 335.82-10.24Q337.76-11.88 342.00-11.88L342.00-11.88L348.68-11.88L348.68-13.16Q348.68-15.88 347.16-17.30Q345.64-18.72 342.72-18.72L342.72-18.72Q340.72-18.72 338.88-18.06Q337.04-17.40 335.72-16.24L335.72-16.24L334.44-18.36Q336.04-19.72 338.28-20.46Q340.52-21.20 343.00-21.20L343.00-21.20ZM342.00-2.04Q344.40-2.04 346.12-3.14Q347.84-4.24 348.68-6.32L348.68-6.32L348.68-9.76L342.08-9.76Q336.68-9.76 336.68-6L336.68-6Q336.68-4.16 338.08-3.10Q339.48-2.04 342.00-2.04L342.00-2.04Z M388.68-21.20Q392.64-21.20 394.90-18.92Q397.16-16.64 397.16-12.20L397.16-12.20L397.16 0L394.32 0L394.32-11.92Q394.32-15.20 392.74-16.92Q391.16-18.64 388.28-18.64L388.28-18.64Q385.00-18.64 383.12-16.62Q381.24-14.60 381.24-11.04L381.24-11.04L381.24 0L378.40 0L378.40-11.92Q378.40-15.20 376.82-16.92Q375.24-18.64 372.32-18.64L372.32-18.64Q369.08-18.64 367.18-16.62Q365.28-14.60 365.28-11.04L365.28-11.04L365.28 0L362.44 0L362.44-21.04L365.16-21.04L365.16-17.20Q366.28-19.12 368.28-20.16Q370.28-21.20 372.88-21.20L372.88-21.20Q375.52-21.20 377.46-20.08Q379.40-18.96 380.36-16.76L380.36-16.76Q381.52-18.84 383.70-20.02Q385.88-21.20 388.68-21.20L388.68-21.20Z M408.08 0L408.08-21.04L410.92-21.04L410.92 0L408.08 0ZM409.52-25.64Q408.64-25.64 408.04-26.24Q407.44-26.84 407.44-27.68L407.44-27.68Q407.44-28.48 408.04-29.08Q408.64-29.68 409.52-29.68L409.52-29.68Q410.40-29.68 411.00-29.10Q411.60-28.52 411.60-27.72L411.60-27.72Q411.60-26.84 411.00-26.24Q410.40-25.64 409.52-25.64L409.52-25.64Z M432.76-21.20Q436.72-21.20 439.06-18.90Q441.40-16.60 441.40-12.20L441.40-12.20L441.40 0L438.56 0L438.56-11.92Q438.56-15.20 436.92-16.92Q435.28-18.64 432.24-18.64L432.24-18.64Q428.84-18.64 426.86-16.62Q424.88-14.60 424.88-11.04L424.88-11.04L424.88 0L422.04 0L422.04-21.04L424.76-21.04L424.76-17.16Q425.92-19.08 427.98-20.14Q430.04-21.20 432.76-21.20L432.76-21.20Z M469.16-21.04L471.88-21.04L471.88-2.56Q471.88 2.80 469.26 5.38Q466.64 7.96 461.36 7.96L461.36 7.96Q458.44 7.96 455.82 7.10Q453.20 6.24 451.56 4.72L451.56 4.72L453.00 2.56Q454.52 3.92 456.70 4.68Q458.88 5.44 461.28 5.44L461.28 5.44Q465.28 5.44 467.16 3.58Q469.04 1.72 469.04-2.20L469.04-2.20L469.04-4.88Q467.72-2.88 465.58-1.84Q463.44-0.80 460.84-0.80L460.84-0.80Q457.88-0.80 455.46-2.10Q453.04-3.40 451.66-5.74Q450.28-8.08 450.28-11.04L450.28-11.04Q450.28-14 451.66-16.32Q453.04-18.64 455.44-19.92Q457.84-21.20 460.84-21.20L460.84-21.20Q463.52-21.20 465.68-20.12Q467.84-19.04 469.16-17L469.16-17L469.16-21.04ZM461.12-3.32Q463.40-3.32 465.24-4.30Q467.08-5.28 468.10-7.04Q469.12-8.80 469.12-11.04L469.12-11.04Q469.12-13.28 468.10-15.02Q467.08-16.76 465.26-17.74Q463.44-18.72 461.12-18.72L461.12-18.72Q458.84-18.72 457.02-17.76Q455.20-16.80 454.18-15.04Q453.16-13.28 453.16-11.04L453.16-11.04Q453.16-8.80 454.18-7.04Q455.20-5.28 457.02-4.30Q458.84-3.32 461.12-3.32L461.12-3.32Z M504.08-21.20Q508.20-21.20 510.40-19.14Q512.60-17.08 512.60-13.04L512.60-13.04L512.60 0L509.88 0L509.88-3.28Q508.92-1.64 507.06-0.72Q505.20 0.20 502.64 0.20L502.64 0.20Q499.12 0.20 497.04-1.48Q494.96-3.16 494.96-5.92L494.96-5.92Q494.96-8.60 496.90-10.24Q498.84-11.88 503.08-11.88L503.08-11.88L509.76-11.88L509.76-13.16Q509.76-15.88 508.24-17.30Q506.72-18.72 503.80-18.72L503.80-18.72Q501.80-18.72 499.96-18.06Q498.12-17.40 496.80-16.24L496.80-16.24L495.52-18.36Q497.12-19.72 499.36-20.46Q501.60-21.20 504.08-21.20L504.08-21.20ZM503.08-2.04Q505.48-2.04 507.20-3.14Q508.92-4.24 509.76-6.32L509.76-6.32L509.76-9.76L503.16-9.76Q497.76-9.76 497.76-6L497.76-6Q497.76-4.16 499.16-3.10Q500.56-2.04 503.08-2.04L503.08-2.04Z M534.24-21.20Q538.20-21.20 540.54-18.90Q542.88-16.60 542.88-12.20L542.88-12.20L542.88 0L540.04 0L540.04-11.92Q540.04-15.20 538.40-16.92Q536.76-18.64 533.72-18.64L533.72-18.64Q530.32-18.64 528.34-16.62Q526.36-14.60 526.36-11.04L526.36-11.04L526.36 0L523.52 0L523.52-21.04L526.24-21.04L526.24-17.16Q527.40-19.08 529.46-20.14Q531.52-21.20 534.24-21.20L534.24-21.20Z M570.24-29.68L573.08-29.68L573.08 0L570.36 0L570.36-4.16Q569.08-2.04 566.98-0.92Q564.88 0.20 562.24 0.20L562.24 0.20Q559.28 0.20 556.88-1.16Q554.48-2.52 553.12-4.96Q551.76-7.40 551.76-10.52L551.76-10.52Q551.76-13.64 553.12-16.08Q554.48-18.52 556.88-19.86Q559.28-21.20 562.24-21.20L562.24-21.20Q564.80-21.20 566.86-20.14Q568.92-19.08 570.24-17.04L570.24-17.04L570.24-29.68ZM562.48-2.32Q564.68-2.32 566.46-3.34Q568.24-4.36 569.26-6.24Q570.28-8.12 570.28-10.52L570.28-10.52Q570.28-12.92 569.26-14.80Q568.24-16.68 566.46-17.70Q564.68-18.72 562.48-18.72L562.48-18.72Q560.24-18.72 558.46-17.70Q556.68-16.68 555.66-14.80Q554.64-12.92 554.64-10.52L554.64-10.52Q554.64-8.12 555.66-6.24Q556.68-4.36 558.46-3.34Q560.24-2.32 562.48-2.32L562.48-2.32Z M606.60 0.20Q603.48 0.20 601.02-1.16Q598.56-2.52 597.16-4.98Q595.76-7.44 595.76-10.52L595.76-10.52Q595.76-13.60 597.16-16.04Q598.56-18.48 601.02-19.84Q603.48-21.20 606.60-21.20L606.60-21.20Q609.32-21.20 611.46-20.14Q613.60-19.08 614.84-17.04L614.84-17.04L612.72-15.60Q611.68-17.16 610.08-17.94Q608.48-18.72 606.60-18.72L606.60-18.72Q604.32-18.72 602.50-17.70Q600.68-16.68 599.66-14.80Q598.64-12.92 598.64-10.52L598.64-10.52Q598.64-8.08 599.66-6.22Q600.68-4.36 602.50-3.34Q604.32-2.32 606.60-2.32L606.60-2.32Q608.48-2.32 610.08-3.08Q611.68-3.84 612.72-5.40L612.72-5.40L614.84-3.96Q613.60-1.92 611.44-0.86Q609.28 0.20 606.60 0.20L606.60 0.20Z M631.84 0.20Q628.80 0.20 626.36-1.18Q623.92-2.56 622.52-5Q621.12-7.44 621.12-10.52L621.12-10.52Q621.12-13.60 622.52-16.04Q623.92-18.48 626.36-19.84Q628.80-21.20 631.84-21.20L631.84-21.20Q634.88-21.20 637.32-19.84Q639.76-18.48 641.14-16.04Q642.52-13.60 642.52-10.52L642.52-10.52Q642.52-7.44 641.14-5Q639.76-2.56 637.32-1.18Q634.88 0.20 631.84 0.20L631.84 0.20ZM631.84-2.32Q634.08-2.32 635.86-3.34Q637.64-4.36 638.64-6.24Q639.64-8.12 639.64-10.52L639.64-10.52Q639.64-12.92 638.64-14.80Q637.64-16.68 635.86-17.70Q634.08-18.72 631.84-18.72L631.84-18.72Q629.60-18.72 627.82-17.70Q626.04-16.68 625.02-14.80Q624.00-12.92 624.00-10.52L624.00-10.52Q624.00-8.12 625.02-6.24Q626.04-4.36 627.82-3.34Q629.60-2.32 631.84-2.32L631.84-2.32Z M667.88-29.68L670.72-29.68L670.72 0L668.00 0L668.00-4.16Q666.72-2.04 664.62-0.92Q662.52 0.20 659.88 0.20L659.88 0.20Q656.92 0.20 654.52-1.16Q652.12-2.52 650.76-4.96Q649.40-7.40 649.40-10.52L649.40-10.52Q649.40-13.64 650.76-16.08Q652.12-18.52 654.52-19.86Q656.92-21.20 659.88-21.20L659.88-21.20Q662.44-21.20 664.50-20.14Q666.56-19.08 667.88-17.04L667.88-17.04L667.88-29.68ZM660.12-2.32Q662.32-2.32 664.10-3.34Q665.88-4.36 666.90-6.24Q667.92-8.12 667.92-10.52L667.92-10.52Q667.92-12.92 666.90-14.80Q665.88-16.68 664.10-17.70Q662.32-18.72 660.12-18.72L660.12-18.72Q657.88-18.72 656.10-17.70Q654.32-16.68 653.30-14.80Q652.28-12.92 652.28-10.52L652.28-10.52Q652.28-8.12 653.30-6.24Q654.32-4.36 656.10-3.34Q657.88-2.32 660.12-2.32L660.12-2.32Z M700.20-10.52L700.16-9.64L682.56-9.64Q682.80-6.36 685.08-4.34Q687.36-2.32 690.84-2.32L690.84-2.32Q692.80-2.32 694.44-3.02Q696.08-3.72 697.28-5.08L697.28-5.08L698.88-3.24Q697.48-1.56 695.38-0.68Q693.28 0.20 690.76 0.20L690.76 0.20Q687.52 0.20 685.02-1.18Q682.52-2.56 681.12-5Q679.72-7.44 679.72-10.52L679.72-10.52Q679.72-13.60 681.06-16.04Q682.40-18.48 684.74-19.84Q687.08-21.20 690.00-21.20L690.00-21.20Q692.92-21.20 695.24-19.84Q697.56-18.48 698.88-16.06Q700.20-13.64 700.20-10.52L700.20-10.52ZM690.00-18.76Q686.96-18.76 684.90-16.82Q682.84-14.88 682.56-11.76L682.56-11.76L697.48-11.76Q697.20-14.88 695.14-16.82Q693.08-18.76 690.00-18.76L690.00-18.76Z M709.80 7.76L709.80-29.68L712.44-29.68L712.44 7.76L709.80 7.76Z M757.68-25.44L741.44-25.44L741.44-14.44L755.92-14.44L755.92-11.88L741.44-11.88L741.44 0L738.48 0L738.48-28L757.68-28L757.68-25.44Z M789.36 0L786.12 0L779.72-9Q778.64-8.88 777.48-8.88L777.48-8.88L769.96-8.88L769.96 0L767.00 0L767.00-28L777.48-28Q782.84-28 785.88-25.44Q788.92-22.88 788.92-18.40L788.92-18.40Q788.92-15.12 787.26-12.86Q785.60-10.60 782.52-9.60L782.52-9.60L789.36 0ZM777.40-11.40Q781.56-11.40 783.76-13.24Q785.96-15.08 785.96-18.40L785.96-18.40Q785.96-21.80 783.76-23.62Q781.56-25.44 777.40-25.44L777.40-25.44L769.96-25.44L769.96-11.40L777.40-11.40Z"/></g>
</svg>
</g><g opacity="1" transform="rotate(0 207.3797 658.0169)">
<svg width="385.7012" height="100" x="207.3797" y="658.0169" version="1.1" preserveAspectRatio="none" viewBox="1.52 -34.36 133.76 34.68">
  <g transform="matrix(1 0 0 1 0 0)" class="companyName"><path id="id-D6z1nYkh7" d="M1.52 0L1.52-34.36L10.60-34.36Q14.72-34.36 16.48-31.70Q18.24-29.04 18.24-23.92L18.24-23.92Q18.24-18.80 16.68-16.20Q15.12-13.60 11.08-13.60L11.08-13.60L8.28-13.60L8.28 0L1.52 0ZM8.28-19.80L8.68-19.80Q9.92-19.80 10.50-20.26Q11.08-20.72 11.26-21.58Q11.44-22.44 11.44-24.04L11.44-24.04Q11.44-26.20 10.96-27.16Q10.48-28.12 9.04-28.12L9.04-28.12L8.28-28.12L8.28-19.80Z M29.52 0L22.88 0L22.88-34.36L29.52-34.36L29.52 0Z M41.92 0L35.08 0L35.08-34.36L41.88-34.36L41.88-20.60L45.08-34.36L52-34.36L48.16-18.64L52.80 0L45.68 0L41.92-16.64L41.92 0Z M62.52 0L55.84 0L59.16-34.36L70.80-34.36L74.08 0L67.56 0L67.08-5.56L62.92-5.56L62.52 0ZM64.72-28.52L63.44-11.04L66.56-11.04L65.04-28.52L64.72-28.52Z M89.60 0L83.12 0L83.12-11.32L77.64-34.36L84.44-34.36L86.36-22.72L88.28-34.36L95.08-34.36L89.60-11.32L89.60 0Z M107.56 0.32Q103.32 0.32 101.26-2.08Q99.20-4.48 99.20-9.20L99.20-9.20L99.20-34.36L105.88-34.36L105.88-9.48Q105.88-7.84 106.20-6.92Q106.52-6 107.56-6L107.56-6Q108.60-6 108.92-6.90Q109.24-7.80 109.24-9.48L109.24-9.48L109.24-34.36L115.92-34.36L115.92-9.20Q115.92-4.48 113.86-2.08Q111.80 0.32 107.56 0.32L107.56 0.32Z M131.20 0L124.32 0L124.32-27.76L120.24-27.76L120.24-34.36L135.28-34.36L135.28-27.76L131.20-27.76L131.20 0Z"/></g>
</svg>
</g></svg></svg>