<svg version="1.1" preserveAspectRatio="none" xmlns="http://www.w3.org/2000/svg" width="500" height="500" viewBox="0 0 500 500"><rect width="100%" height="100%" fill="#0F2D49" fill-opacity="1"/><svg viewBox="187.1323 211.253 392.2022 96.4" width="333" height="81.84859748364491" x="83.5px" y="209.0757px" xmlns="http://www.w3.org/2000/svg" xmlns:xlink="http://www.w3.org/1999/xlink" preserveAspectRatio="none"><defs></defs><style>.companyName {fill:#CCBF90;fill-opacity:1;}.icon3-str {stroke:#EB63DD;stroke-opacity:1;}.shapeStroke-str {stroke:#CCBF90;stroke-opacity:1;}.text {fill:#E9E9E9;fill-opacity:1;}</style><g opacity="1" transform="rotate(0 187.1323 287.253)">
<svg width="392.2022" height="20.4" x="187.1323" y="287.253" version="1.1" preserveAspectRatio="none" viewBox="1.92 -30.28 735.96 38.28">
  <g transform="matrix(1 0 0 1 0 0)" class="text"><path id="id-6izo4zJp30" d="M16.72 0.32Q12.52 0.32 9.14-1.54Q5.76-3.40 3.84-6.66Q1.92-9.92 1.92-14L1.92-14Q1.92-18.08 3.84-21.34Q5.76-24.60 9.16-26.46Q12.56-28.32 16.76-28.32L16.76-28.32Q20.04-28.32 22.76-27.22Q25.48-26.12 27.40-23.96L27.40-23.96L24.80-21.44Q21.64-24.76 16.92-24.76L16.92-24.76Q13.80-24.76 11.28-23.36Q8.76-21.96 7.34-19.50Q5.92-17.04 5.92-14L5.92-14Q5.92-10.96 7.34-8.50Q8.76-6.04 11.28-4.64Q13.80-3.24 16.92-3.24L16.92-3.24Q21.60-3.24 24.80-6.60L24.80-6.60L27.40-4.08Q25.48-1.92 22.74-0.80Q20 0.32 16.72 0.32L16.72 0.32Z M41.96 0.24Q38.80 0.24 36.28-1.16Q33.76-2.56 32.34-5.02Q30.92-7.48 30.92-10.60L30.92-10.60Q30.92-13.72 32.34-16.18Q33.76-18.64 36.28-20.02Q38.80-21.40 41.96-21.40L41.96-21.40Q45.12-21.40 47.62-20.02Q50.12-18.64 51.54-16.18Q52.96-13.72 52.96-10.60L52.96-10.60Q52.96-7.48 51.54-5.02Q50.12-2.56 47.62-1.16Q45.12 0.24 41.96 0.24L41.96 0.24ZM41.96-3.12Q44-3.12 45.62-4.06Q47.24-5 48.16-6.70Q49.08-8.40 49.08-10.60L49.08-10.60Q49.08-12.80 48.16-14.50Q47.24-16.20 45.62-17.12Q44-18.04 41.96-18.04L41.96-18.04Q39.92-18.04 38.30-17.12Q36.68-16.20 35.74-14.50Q34.80-12.80 34.80-10.60L34.80-10.60Q34.80-8.40 35.74-6.70Q36.68-5 38.30-4.06Q39.92-3.12 41.96-3.12L41.96-3.12Z M86-21.40Q90-21.40 92.34-19.08Q94.68-16.76 94.68-12.20L94.68-12.20L94.68 0L90.84 0L90.84-11.76Q90.84-14.84 89.42-16.40Q88-17.96 85.36-17.96L85.36-17.96Q82.44-17.96 80.72-16.14Q79-14.32 79-10.92L79-10.92L79 0L75.16 0L75.16-11.76Q75.16-14.84 73.74-16.40Q72.32-17.96 69.68-17.96L69.68-17.96Q66.76-17.96 65.04-16.14Q63.32-14.32 63.32-10.92L63.32-10.92L63.32 0L59.48 0L59.48-21.20L63.16-21.20L63.16-18.04Q64.32-19.68 66.20-20.54Q68.08-21.40 70.48-21.40L70.48-21.40Q72.96-21.40 74.88-20.40Q76.80-19.40 77.84-17.48L77.84-17.48Q79.04-19.32 81.18-20.36Q83.32-21.40 86-21.40L86-21.40Z M129.48-21.40Q133.48-21.40 135.82-19.08Q138.16-16.76 138.16-12.20L138.16-12.20L138.16 0L134.32 0L134.32-11.76Q134.32-14.84 132.90-16.40Q131.48-17.96 128.84-17.96L128.84-17.96Q125.92-17.96 124.20-16.14Q122.48-14.32 122.48-10.92L122.48-10.92L122.48 0L118.64 0L118.64-11.76Q118.64-14.84 117.22-16.40Q115.80-17.96 113.16-17.96L113.16-17.96Q110.24-17.96 108.52-16.14Q106.80-14.32 106.80-10.92L106.80-10.92L106.80 0L102.96 0L102.96-21.20L106.64-21.20L106.64-18.04Q107.80-19.68 109.68-20.54Q111.56-21.40 113.96-21.40L113.96-21.40Q116.44-21.40 118.36-20.40Q120.28-19.40 121.32-17.48L121.32-17.48Q122.52-19.32 124.66-20.36Q126.80-21.40 129.48-21.40L129.48-21.40Z M162.36-21.20L166.20-21.20L166.20 0L162.56 0L162.56-3.20Q161.40-1.56 159.50-0.66Q157.60 0.24 155.36 0.24L155.36 0.24Q151.12 0.24 148.68-2.10Q146.24-4.44 146.24-9L146.24-9L146.24-21.20L150.08-21.20L150.08-9.44Q150.08-6.36 151.56-4.78Q153.04-3.20 155.80-3.20L155.80-3.20Q158.84-3.20 160.60-5.04Q162.36-6.88 162.36-10.24L162.36-10.24L162.36-21.20Z M186.04-21.40Q190.08-21.40 192.46-19.06Q194.84-16.72 194.84-12.20L194.84-12.20L194.84 0L191 0L191-11.76Q191-14.84 189.52-16.40Q188.04-17.96 185.28-17.96L185.28-17.96Q182.16-17.96 180.36-16.14Q178.56-14.32 178.56-10.92L178.56-10.92L178.56 0L174.72 0L174.72-21.20L178.40-21.20L178.40-18Q179.56-19.64 181.54-20.52Q183.52-21.40 186.04-21.40L186.04-21.40Z M203.16 0L203.16-21.20L207-21.20L207 0L203.16 0ZM205.08-25.28Q203.96-25.28 203.22-26Q202.48-26.72 202.48-27.76L202.48-27.76Q202.48-28.80 203.22-29.54Q203.96-30.28 205.08-30.28L205.08-30.28Q206.20-30.28 206.94-29.58Q207.68-28.88 207.68-27.84L207.68-27.84Q207.68-26.76 206.94-26.02Q206.20-25.28 205.08-25.28L205.08-25.28Z M226.24-4L227.44-1.24Q226.60-0.52 225.36-0.14Q224.12 0.24 222.80 0.24L222.80 0.24Q219.60 0.24 217.84-1.48Q216.08-3.20 216.08-6.40L216.08-6.40L216.08-18.04L212.48-18.04L212.48-21.20L216.08-21.20L216.08-25.84L219.92-25.84L219.92-21.20L226-21.20L226-18.04L219.92-18.04L219.92-6.56Q219.92-4.84 220.78-3.92Q221.64-3 223.24-3L223.24-3Q225-3 226.24-4L226.24-4Z M247.88-21.20L251.64-21.20L241.36 2.12Q240.00 5.36 238.18 6.68Q236.36 8 233.80 8L233.80 8Q232.24 8 230.78 7.50Q229.32 7 228.36 6.04L228.36 6.04L230.00 3.16Q231.64 4.72 233.80 4.72L233.80 4.72Q235.20 4.72 236.14 3.98Q237.08 3.24 237.84 1.44L237.84 1.44L238.52-0.04L229.16-21.20L233.16-21.20L240.56-4.24L247.88-21.20Z M268.96 7.76L268.96-29.68L272.52-29.68L272.52 7.76L268.96 7.76Z M301.52-5.04L301.52-14.16L305.36-14.16L305.36-3.24Q303.28-1.52 300.52-0.60Q297.76 0.32 294.76 0.32L294.76 0.32Q290.52 0.32 287.12-1.54Q283.72-3.40 281.78-6.66Q279.84-9.92 279.84-14L279.84-14Q279.84-18.08 281.78-21.36Q283.72-24.64 287.14-26.48Q290.56-28.32 294.84-28.32L294.84-28.32Q298.20-28.32 300.94-27.22Q303.68-26.12 305.60-24L305.60-24L303.12-21.52Q299.76-24.76 295.00-24.76L295.00-24.76Q291.80-24.76 289.26-23.38Q286.72-22 285.28-19.54Q283.84-17.08 283.84-14L283.84-14Q283.84-10.96 285.28-8.50Q286.72-6.04 289.26-4.64Q291.80-3.24 294.96-3.24L294.96-3.24Q298.72-3.24 301.52-5.04L301.52-5.04Z M321.36-21.40Q325.76-21.40 328.10-19.24Q330.44-17.08 330.44-12.80L330.44-12.80L330.44 0L326.80 0L326.80-2.80Q325.84-1.32 324.06-0.54Q322.28 0.24 319.84 0.24L319.84 0.24Q316.28 0.24 314.14-1.48Q312.00-3.20 312.00-6L312.00-6Q312.00-8.80 314.04-10.50Q316.08-12.20 320.52-12.20L320.52-12.20L326.60-12.20L326.60-12.96Q326.60-15.44 325.16-16.76Q323.72-18.08 320.92-18.08L320.92-18.08Q319.04-18.08 317.24-17.46Q315.44-16.84 314.20-15.80L314.20-15.80L312.60-18.68Q314.24-20 316.52-20.70Q318.80-21.40 321.36-21.40L321.36-21.40ZM320.48-2.72Q322.68-2.72 324.28-3.70Q325.88-4.68 326.60-6.48L326.60-6.48L326.60-9.44L320.68-9.44Q315.80-9.44 315.80-6.16L315.80-6.16Q315.80-4.56 317.04-3.64Q318.28-2.72 320.48-2.72L320.48-2.72Z M365.28-21.40Q369.28-21.40 371.62-19.08Q373.96-16.76 373.96-12.20L373.96-12.20L373.96 0L370.12 0L370.12-11.76Q370.12-14.84 368.70-16.40Q367.28-17.96 364.64-17.96L364.64-17.96Q361.72-17.96 360.00-16.14Q358.28-14.32 358.28-10.92L358.28-10.92L358.28 0L354.44 0L354.44-11.76Q354.44-14.84 353.02-16.40Q351.60-17.96 348.96-17.96L348.96-17.96Q346.04-17.96 344.32-16.14Q342.60-14.32 342.60-10.92L342.60-10.92L342.60 0L338.76 0L338.76-21.20L342.44-21.20L342.44-18.04Q343.60-19.68 345.48-20.54Q347.36-21.40 349.76-21.40L349.76-21.40Q352.24-21.40 354.16-20.40Q356.08-19.40 357.12-17.48L357.12-17.48Q358.32-19.32 360.46-20.36Q362.60-21.40 365.28-21.40L365.28-21.40Z M382.24 0L382.24-21.20L386.08-21.20L386.08 0L382.24 0ZM384.16-25.28Q383.04-25.28 382.30-26Q381.56-26.72 381.56-27.76L381.56-27.76Q381.56-28.80 382.30-29.54Q383.04-30.28 384.16-30.28L384.16-30.28Q385.28-30.28 386.02-29.58Q386.76-28.88 386.76-27.84L386.76-27.84Q386.76-26.76 386.02-26.02Q385.28-25.28 384.16-25.28L384.16-25.28Z M405.92-21.40Q409.96-21.40 412.34-19.06Q414.72-16.72 414.72-12.20L414.72-12.20L414.72 0L410.88 0L410.88-11.76Q410.88-14.84 409.40-16.40Q407.92-17.96 405.16-17.96L405.16-17.96Q402.04-17.96 400.24-16.14Q398.44-14.32 398.44-10.92L398.44-10.92L398.44 0L394.60 0L394.60-21.20L398.28-21.20L398.28-18Q399.44-19.64 401.42-20.52Q403.40-21.40 405.92-21.40L405.92-21.40Z M439.80-21.20L443.44-21.20L443.44-2.88Q443.44 2.68 440.68 5.34Q437.92 8 432.44 8L432.44 8Q429.44 8 426.72 7.18Q424.00 6.36 422.32 4.84L422.32 4.84L424.16 1.88Q425.64 3.16 427.82 3.90Q430.00 4.64 432.32 4.64L432.32 4.64Q436.04 4.64 437.82 2.88Q439.60 1.12 439.60-2.48L439.60-2.48L439.60-4.16Q438.24-2.52 436.26-1.70Q434.28-0.88 431.96-0.88L431.96-0.88Q428.92-0.88 426.46-2.18Q424.00-3.48 422.60-5.82Q421.20-8.16 421.20-11.16L421.20-11.16Q421.20-14.16 422.60-16.50Q424.00-18.84 426.46-20.12Q428.92-21.40 431.96-21.40L431.96-21.40Q434.36-21.40 436.42-20.52Q438.48-19.64 439.80-17.92L439.80-17.92L439.80-21.20ZM432.40-4.24Q434.48-4.24 436.14-5.12Q437.80-6 438.74-7.58Q439.68-9.16 439.68-11.16L439.68-11.16Q439.68-14.24 437.64-16.14Q435.60-18.04 432.40-18.04L432.40-18.04Q429.16-18.04 427.12-16.14Q425.08-14.24 425.08-11.16L425.08-11.16Q425.08-9.16 426.02-7.58Q426.96-6 428.62-5.12Q430.28-4.24 432.40-4.24L432.40-4.24Z M471.64-21.40Q476.04-21.40 478.38-19.24Q480.72-17.08 480.72-12.80L480.72-12.80L480.72 0L477.08 0L477.08-2.80Q476.12-1.32 474.34-0.54Q472.56 0.24 470.12 0.24L470.12 0.24Q466.56 0.24 464.42-1.48Q462.28-3.20 462.28-6L462.28-6Q462.28-8.80 464.32-10.50Q466.36-12.20 470.80-12.20L470.80-12.20L476.88-12.20L476.88-12.96Q476.88-15.44 475.44-16.76Q474.00-18.08 471.20-18.08L471.20-18.08Q469.32-18.08 467.52-17.46Q465.72-16.84 464.48-15.80L464.48-15.80L462.88-18.68Q464.52-20 466.80-20.70Q469.08-21.40 471.64-21.40L471.64-21.40ZM470.76-2.72Q472.96-2.72 474.56-3.70Q476.16-4.68 476.88-6.48L476.88-6.48L476.88-9.44L470.96-9.44Q466.08-9.44 466.08-6.16L466.08-6.16Q466.08-4.56 467.32-3.64Q468.56-2.72 470.76-2.72L470.76-2.72Z M500.36-21.40Q504.40-21.40 506.78-19.06Q509.16-16.72 509.16-12.20L509.16-12.20L509.16 0L505.32 0L505.32-11.76Q505.32-14.84 503.84-16.40Q502.36-17.96 499.60-17.96L499.60-17.96Q496.48-17.96 494.68-16.14Q492.88-14.32 492.88-10.92L492.88-10.92L492.88 0L489.04 0L489.04-21.20L492.72-21.20L492.72-18Q493.88-19.64 495.86-20.52Q497.84-21.40 500.36-21.40L500.36-21.40Z M533.76-29.68L537.60-29.68L537.60 0L533.92 0L533.92-3.36Q532.64-1.60 530.68-0.68Q528.72 0.24 526.36 0.24L526.36 0.24Q523.28 0.24 520.84-1.12Q518.40-2.48 517.02-4.94Q515.64-7.40 515.64-10.60L515.64-10.60Q515.64-13.80 517.02-16.24Q518.40-18.68 520.84-20.04Q523.28-21.40 526.36-21.40L526.36-21.40Q528.64-21.40 530.56-20.54Q532.48-19.68 533.76-18L533.76-18L533.76-29.68ZM526.68-3.12Q528.68-3.12 530.32-4.06Q531.96-5 532.88-6.70Q533.80-8.40 533.80-10.60L533.80-10.60Q533.80-12.80 532.88-14.50Q531.96-16.20 530.32-17.12Q528.68-18.04 526.68-18.04L526.68-18.04Q524.64-18.04 523.02-17.12Q521.40-16.20 520.46-14.50Q519.52-12.80 519.52-10.60L519.52-10.60Q519.52-8.40 520.46-6.70Q521.40-5 523.02-4.06Q524.64-3.12 526.68-3.12L526.68-3.12Z M567.28 0.24Q564.04 0.24 561.50-1.16Q558.96-2.56 557.52-5.02Q556.08-7.48 556.08-10.60L556.08-10.60Q556.08-13.72 557.52-16.18Q558.96-18.64 561.50-20.02Q564.04-21.40 567.28-21.40L567.28-21.40Q570.16-21.40 572.42-20.24Q574.68-19.08 575.92-16.88L575.92-16.88L573-15Q572-16.52 570.52-17.28Q569.04-18.04 567.24-18.04L567.24-18.04Q565.16-18.04 563.50-17.12Q561.84-16.20 560.90-14.50Q559.96-12.80 559.96-10.60L559.96-10.60Q559.96-8.36 560.90-6.66Q561.84-4.96 563.50-4.04Q565.16-3.12 567.24-3.12L567.24-3.12Q569.04-3.12 570.52-3.88Q572-4.64 573-6.16L573-6.16L575.92-4.32Q574.68-2.12 572.42-0.94Q570.16 0.24 567.28 0.24L567.28 0.24Z M590.84 0.24Q587.68 0.24 585.16-1.16Q582.64-2.56 581.22-5.02Q579.80-7.48 579.80-10.60L579.80-10.60Q579.80-13.72 581.22-16.18Q582.64-18.64 585.16-20.02Q587.68-21.40 590.84-21.40L590.84-21.40Q594-21.40 596.50-20.02Q599-18.64 600.42-16.18Q601.84-13.72 601.84-10.60L601.84-10.60Q601.84-7.48 600.42-5.02Q599-2.56 596.50-1.16Q594 0.24 590.84 0.24L590.84 0.24ZM590.84-3.12Q592.88-3.12 594.50-4.06Q596.12-5 597.04-6.70Q597.96-8.40 597.96-10.60L597.96-10.60Q597.96-12.80 597.04-14.50Q596.12-16.20 594.50-17.12Q592.88-18.04 590.84-18.04L590.84-18.04Q588.80-18.04 587.18-17.12Q585.56-16.20 584.62-14.50Q583.68-12.80 583.68-10.60L583.68-10.60Q583.68-8.40 584.62-6.70Q585.56-5 587.18-4.06Q588.80-3.12 590.84-3.12L590.84-3.12Z M624.52-29.68L628.36-29.68L628.36 0L624.68 0L624.68-3.36Q623.40-1.60 621.44-0.68Q619.48 0.24 617.12 0.24L617.12 0.24Q614.04 0.24 611.60-1.12Q609.16-2.48 607.78-4.94Q606.40-7.40 606.40-10.60L606.40-10.60Q606.40-13.80 607.78-16.24Q609.16-18.68 611.60-20.04Q614.04-21.40 617.12-21.40L617.12-21.40Q619.40-21.40 621.32-20.54Q623.24-19.68 624.52-18L624.52-18L624.52-29.68ZM617.44-3.12Q619.44-3.12 621.08-4.06Q622.72-5 623.64-6.70Q624.56-8.40 624.56-10.60L624.56-10.60Q624.56-12.80 623.64-14.50Q622.72-16.20 621.08-17.12Q619.44-18.04 617.44-18.04L617.44-18.04Q615.40-18.04 613.78-17.12Q612.16-16.20 611.22-14.50Q610.28-12.80 610.28-10.60L610.28-10.60Q610.28-8.40 611.22-6.70Q612.16-5 613.78-4.06Q615.40-3.12 617.44-3.12L617.44-3.12Z M656-10.48Q656-10.04 655.92-9.32L655.92-9.32L638.72-9.32Q639.08-6.52 641.18-4.82Q643.28-3.12 646.40-3.12L646.40-3.12Q650.20-3.12 652.52-5.68L652.52-5.68L654.64-3.20Q653.20-1.52 651.06-0.64Q648.92 0.24 646.28 0.24L646.28 0.24Q642.92 0.24 640.32-1.14Q637.72-2.52 636.30-5Q634.88-7.48 634.88-10.60L634.88-10.60Q634.88-13.68 636.26-16.16Q637.64-18.64 640.06-20.02Q642.48-21.40 645.52-21.40L645.52-21.40Q648.56-21.40 650.94-20.02Q653.32-18.64 654.66-16.16Q656-13.68 656-10.48L656-10.48ZM645.52-18.16Q642.76-18.16 640.90-16.48Q639.04-14.80 638.72-12.08L638.72-12.08L652.32-12.08Q652-14.76 650.14-16.46Q648.28-18.16 645.52-18.16L645.52-18.16Z M663.08 7.76L663.08-29.68L666.64-29.68L666.64 7.76L663.08 7.76Z M707.96-24.52L692.20-24.52L692.20-14.76L706.24-14.76L706.24-11.32L692.20-11.32L692.20 0L688.20 0L688.20-28L707.96-28L707.96-24.52Z M737.88 0L733.52 0L727.48-8.60Q726.36-8.52 725.72-8.52L725.72-8.52L718.80-8.52L718.80 0L714.80 0L714.80-28L725.72-28Q731.16-28 734.28-25.40Q737.40-22.80 737.40-18.24L737.40-18.24Q737.40-15 735.80-12.72Q734.20-10.44 731.24-9.40L731.24-9.40L737.88 0ZM725.60-11.92Q729.40-11.92 731.40-13.56Q733.40-15.20 733.40-18.24L733.40-18.24Q733.40-21.28 731.40-22.90Q729.40-24.52 725.60-24.52L725.60-24.52L718.80-24.52L718.80-11.92L725.60-11.92Z"/></g>
</svg>
</g><g opacity="1" transform="rotate(0 204.1323 211.253)">
<svg width="350.789" height="60" x="204.1323" y="211.253" version="1.1" preserveAspectRatio="none" viewBox="1.36 -28.36 169.07999999999998 28.919999999999998">
  <g transform="matrix(1 0 0 1 0 0)" class="companyName"><path id="id-D6z1nYkh7" d="M12.84-11.44L10.72-11.44L10.72-4.48Q10.72-2.88 11.06-2.14Q11.40-1.40 12.26-1.16Q13.12-0.92 15-0.88L15-0.88L15 0Q10.08-0.12 7.68-0.12L7.68-0.12Q5.68-0.12 2.64-0.04L2.64-0.04L1.36 0L1.36-0.80Q2.68-0.88 3.30-1.12Q3.92-1.36 4.14-2.04Q4.36-2.72 4.36-4.24L4.36-4.24L4.36-24.08Q4.36-25.60 4.14-26.28Q3.92-26.96 3.30-27.20Q2.68-27.44 1.36-27.52L1.36-27.52L1.36-28.32Q3.40-28.20 7.44-28.20L7.44-28.20L11.88-28.24Q12.68-28.28 13.72-28.28L13.72-28.28Q19.12-28.28 21.96-26.14Q24.80-24 24.80-20.40L24.80-20.40Q24.80-18.20 23.68-16.18Q22.56-14.16 19.90-12.80Q17.24-11.44 12.84-11.44L12.84-11.44ZM13.20-27.52Q12.12-27.52 11.62-27.24Q11.12-26.96 10.92-26.24Q10.72-25.52 10.72-24.08L10.72-24.08L10.72-12.24L12.44-12.24Q15.68-12.24 16.92-14.32Q18.16-16.40 18.16-19.96L18.16-19.96Q18.16-23.84 17.02-25.68Q15.88-27.52 13.20-27.52L13.20-27.52Z M39.12-24.32L39.12-23.52Q37.76-23.44 37.16-23.20Q36.56-22.96 36.34-22.28Q36.12-21.60 36.12-20.08L36.12-20.08L36.12-4.24Q36.12-2.72 36.34-2.04Q36.56-1.36 37.16-1.12Q37.76-0.88 39.12-0.80L39.12-0.80L39.12 0Q37.08-0.12 33.20-0.12L33.20-0.12Q29-0.12 27 0L27 0L27-0.80Q28.36-0.88 28.96-1.12Q29.56-1.36 29.78-2.04Q30-2.72 30-4.24L30-4.24L30-20.08Q30-21.60 29.78-22.28Q29.56-22.96 28.94-23.20Q28.32-23.44 27-23.52L27-23.52L27-24.32Q28.96-24.20 33.20-24.20L33.20-24.20Q37.08-24.20 39.12-24.32L39.12-24.32Z M66.32-3.24Q67.08-2.24 67.64-1.72Q68.20-1.20 69.04-0.80L69.04-0.80L69.04 0Q66.28-0.12 62.92-0.12L62.92-0.12Q60.08-0.12 57.48 0L57.48 0L57.48-0.80Q58.76-0.84 59.28-1.02Q59.80-1.20 59.80-1.56L59.80-1.56Q59.80-1.92 59.36-2.60L59.36-2.60L54.12-10.12Q53.44-11.08 52.76-11.58Q52.08-12.08 50.96-12.12L50.96-12.12L50.96-4.24Q50.96-2.72 51.18-2.04Q51.40-1.36 52-1.12Q52.60-0.88 53.96-0.80L53.96-0.80L53.96 0Q51.92-0.12 48.04-0.12L48.04-0.12Q43.88-0.12 41.84 0L41.84 0L41.84-0.80Q43.20-0.88 43.80-1.12Q44.40-1.36 44.62-2.04Q44.84-2.72 44.84-4.24L44.84-4.24L44.84-20.08Q44.84-21.60 44.62-22.28Q44.40-22.96 43.78-23.20Q43.16-23.44 41.84-23.52L41.84-23.52L41.84-24.32Q43.88-24.20 48.04-24.20L48.04-24.20Q51.92-24.20 53.96-24.32L53.96-24.32L53.96-23.52Q52.60-23.44 52-23.20Q51.40-22.96 51.18-22.28Q50.96-21.60 50.96-20.08L50.96-20.08L50.96-12.92Q52.68-13.08 54.12-13.80Q55.56-14.52 57.20-16.08L57.20-16.08L59.64-18.56Q61.20-20.08 61.20-21.32L61.20-21.32Q61.20-22.28 60.36-22.88Q59.52-23.48 58.20-23.56L58.20-23.56L58.20-24.32Q61.08-24.20 64.36-24.20L64.36-24.20Q66.48-24.20 67.92-24.32L67.92-24.32L67.92-23.56Q66.52-23.24 65.24-22.46Q63.96-21.68 62.48-20.28L62.48-20.28L57.56-15.44L66.32-3.24Z M91.84-3.36Q93-0.88 94.36-0.80L94.36-0.80L94.36 0Q92.44-0.12 89.12-0.12L89.12-0.12Q84.84-0.12 82.80 0L82.80 0L82.80-0.80Q84.12-0.88 84.76-1.22Q85.40-1.56 85.40-2.36L85.40-2.36Q85.40-3.08 84.88-4.16L84.88-4.16L82.88-8.72L74.48-8.72L74.00-7.64Q72.88-5 72.88-3.52L72.88-3.52Q72.88-2.16 73.76-1.52Q74.64-0.88 76.36-0.80L76.36-0.80L76.36 0Q74.08-0.12 71.76-0.12L71.76-0.12Q69.60-0.12 68.52 0L68.52 0L68.52-0.80Q69.48-1 70.30-2.02Q71.12-3.04 72.04-5.08L72.04-5.08L80.48-24.40Q80.80-24.36 81.40-24.36L81.40-24.36Q82.04-24.36 82.32-24.40L82.32-24.40L91.84-3.36ZM74.84-9.52L82.52-9.52L78.68-18.28L74.84-9.52Z M115.68-28.24Q117.52-28.24 118.72-28.36L118.72-28.36L118.72-27.56Q116.88-26.80 114.88-22.92L114.88-22.92L110.16-13.56L110.16-4.24Q110.16-2.72 110.38-2.04Q110.60-1.36 111.20-1.12Q111.80-0.88 113.16-0.80L113.16-0.80L113.16 0Q111-0.12 107-0.12L107-0.12Q102.72-0.12 100.80 0L100.80 0L100.80-0.80Q102.12-0.88 102.74-1.12Q103.36-1.36 103.58-2.04Q103.80-2.72 103.80-4.24L103.80-4.24L103.80-11L96.08-25.28Q94.84-27.52 93.76-27.52L93.76-27.52L93.76-28.36Q95.52-28.16 98.48-28.16L98.48-28.16Q102.20-28.16 106-28.36L106-28.36L106-27.52Q104.60-27.52 103.78-27.26Q102.96-27 102.96-26.32L102.96-26.32Q102.96-25.96 103.24-25.44L103.24-25.44L109.32-13.72L112.44-19.96Q114-23.12 114-24.92L114-24.92Q114-26.28 113.14-26.88Q112.28-27.48 110.68-27.56L110.68-27.56L110.68-28.36Q113.40-28.24 115.68-28.24L115.68-28.24Z M145.12-24.32L145.12-23.52Q143.72-23.32 143.04-22.84Q142.36-22.36 142.12-21.32Q141.88-20.28 141.88-18.24L141.88-18.24L141.88-10.84Q141.88-8.08 141.50-6.14Q141.12-4.20 140.24-2.76L140.24-2.76Q139.28-1.24 137.38-0.34Q135.48 0.56 133.08 0.56L133.08 0.56Q128.56 0.56 126.04-1.20L126.04-1.20Q124.64-2.24 123.92-3.44Q123.20-4.64 122.90-6.34Q122.60-8.04 122.60-10.72L122.60-10.72L122.60-20.08Q122.60-21.60 122.38-22.28Q122.16-22.96 121.54-23.20Q120.92-23.44 119.60-23.52L119.60-23.52L119.60-24.32Q121.60-24.20 125.68-24.20L125.68-24.20Q129.56-24.20 131.72-24.32L131.72-24.32L131.72-23.52Q130.36-23.44 129.76-23.20Q129.16-22.96 128.94-22.28Q128.72-21.60 128.72-20.08L128.72-20.08L128.72-10.04Q128.72-7.16 129.10-5.28Q129.48-3.40 130.72-2.24Q131.96-1.08 134.40-1.08L134.40-1.08Q138.04-1.08 139.50-3.54Q140.96-6 140.96-10.40L140.96-10.40L140.96-17.76Q140.96-20.08 140.68-21.20Q140.40-22.32 139.60-22.82Q138.80-23.32 137.08-23.52L137.08-23.52L137.08-24.32Q138.64-24.20 141.40-24.20L141.40-24.20Q143.80-24.20 145.12-24.32L145.12-24.32Z M170.44-24.32Q170.16-21.28 170.16-18.88L170.16-18.88Q170.16-16.64 170.28-15.36L170.28-15.36L169.36-15.36Q168.80-18.40 168.02-20.12Q167.24-21.84 166.02-22.62Q164.80-23.40 162.88-23.40L162.88-23.40L161.64-23.40L161.64-4.64Q161.64-2.96 161.96-2.20Q162.28-1.44 163.08-1.16Q163.88-0.88 165.68-0.80L165.68-0.80L165.68 0Q163.52-0.12 158.48-0.12L158.48-0.12Q153.40-0.12 151.48 0L151.48 0L151.48-0.80Q153.28-0.88 154.08-1.16Q154.88-1.44 155.20-2.20Q155.52-2.96 155.52-4.64L155.52-4.64L155.52-23.40L154.28-23.40Q152.36-23.40 151.14-22.62Q149.92-21.84 149.14-20.12Q148.36-18.40 147.80-15.36L147.80-15.36L146.88-15.36Q147.00-16.64 147.00-18.88L147.00-18.88Q147.00-21.28 146.72-24.32L146.72-24.32Q150.20-24.20 158.48-24.20L158.48-24.20Q166.92-24.20 170.44-24.32L170.44-24.32Z"/></g>
</svg>
</g><g opacity="1" transform="rotate(0 187.1323 211.253)">
<svg width="3" height="60" x="187.1323" y="211.253" version="1.1" preserveAspectRatio="none" viewBox="0 0 3 60">
  <defs><rect x="0" y="0" width="3" height="60" rx="0px" ry="0px" id="id-tBXipXk0b1676915546817"></rect></defs><use class="companyName shapeStroke-str" style="stroke-width:0;" xlink:href="#id-tBXipXk0b1676915546817"></use>
</svg>
</g></svg></svg>