<svg version="1.1" preserveAspectRatio="none" xmlns="http://www.w3.org/2000/svg" width="500" height="500" viewBox="0 0 500 500"><rect width="100%" height="100%" fill="#6F0000" fill-opacity="1"/><svg viewBox="1046.3279 775.0723 387.4386 150" width="333" height="128.92365396736412" x="83.5px" y="185.5382px" xmlns="http://www.w3.org/2000/svg" xmlns:xlink="http://www.w3.org/1999/xlink" preserveAspectRatio="none"><defs></defs><style>.companyName {fill:#FFDAFE;fill-opacity:1;}.icon3-str {stroke:#B22D2D;stroke-opacity:1;}.text {fill:#FFDAFE;fill-opacity:1;}</style><g opacity="1" transform="rotate(0 1046.3279 889.0723)">
<svg width="387.4386" height="36" x="1046.3279" y="889.0723" version="1.1" preserveAspectRatio="none" viewBox="3.2031 -32.9102 483.2211 44.9024">
  <g transform="matrix(1 0 0 1 0 0)" class="text"><path id="id-6izo4zJp30" d="M22.62-11.39L22.62-11.39Q23.09-11.39 23.09-10.63Q23.09-9.88 22.75-8.05L22.75-8.05Q22.50-6.82 19.94-4.53L19.94-4.53Q16.86-1.80 13.16-0.63L13.16-0.63Q10.94 0.08 8.82 0.08Q6.70 0.08 4.95-1.71Q3.20-3.50 3.20-5.95Q3.20-8.40 4.19-11.03Q5.18-13.65 6.85-16.04Q8.52-18.44 10.79-20.64Q13.07-22.85 15.53-24.47Q17.99-26.09 20.68-27.05Q23.38-28.01 25.80-28.01L25.80-28.01Q27.71-28.01 29.06-26.62L29.06-26.62Q29.77-25.88 29.77-24.76Q29.77-23.63 28.67-21.92Q27.58-20.21 26.08-18.81Q24.59-17.40 23.00-16.43Q21.41-15.45 20.45-15.45Q19.49-15.45 18.81-16.04Q18.13-16.64 18.13-17.11Q18.13-17.58 18.33-18.14Q18.54-18.71 18.85-18.71L18.85-18.71Q18.77-18.61 18.77-18.52L18.77-18.52Q18.77-18.28 19.44-18.28Q20.12-18.28 21.70-19.47Q23.28-20.66 24.56-22.15Q25.84-23.63 25.84-24.38L25.84-24.38Q25.84-24.88 25.16-24.88L25.16-24.88Q23.32-24.88 20.09-23.17Q16.86-21.46 13.91-18.77Q10.96-16.07 8.78-12.37Q6.60-8.67 6.60-5.72L6.60-5.72Q6.60-4.49 7.26-3.75Q7.91-3.01 9.27-3.01Q10.63-3.01 12.48-3.79Q14.34-4.57 16.01-5.70Q17.68-6.84 19.16-8.03Q20.64-9.22 21.53-10.12Q22.42-11.02 22.44-11.20Q22.46-11.39 22.62-11.39Z M37.61-14.88Q38.19-14.88 38.81-14.36Q39.42-13.83 39.42-12.74Q39.42-11.66 38.66-9.93Q37.90-8.20 36.57-6.42Q35.24-4.63 33.65-3.06Q32.06-1.48 30.21-0.48Q28.37 0.53 26.86 0.53Q25.36 0.53 24.45-0.42Q23.54-1.37 23.54-3.06Q23.54-4.75 24.37-6.80Q25.20-8.85 26.51-10.42Q27.82-11.99 29.35-13.24L29.35-13.24Q32.53-15.80 34.93-15.80L34.93-15.80Q36.01-15.80 36.55-15.27L36.55-15.27Q36.75-15.10 36.75-14.96L36.75-14.96L36.75-14.84Q37.02-14.88 37.61-14.88ZM35.63-12.29L35.63-12.29L35.50-12.29Q34.81-12.29 34.81-13.28L34.81-13.28Q33.39-12.81 31.83-11.64Q30.26-10.47 29.03-8.87L29.03-8.87Q26.53-5.66 26.49-3.46L26.49-3.46Q26.49-2.36 27.29-2.36Q28.10-2.36 29.68-3.42Q31.26-4.47 32.81-6.43Q34.36-8.38 35.14-9.81Q35.91-11.25 35.91-11.77Q35.91-12.29 35.63-12.29Z M39.39 0.12L39.39 0.12L38.44 0.08L38.09 0.08Q37.89 0.02 37.67-0.16Q37.44-0.33 37.32-0.41Q37.21-0.49 37.21-0.69Q37.21-0.90 37.36-1.41L37.36-1.41Q41.17-9.79 44.73-14.80L44.73-14.80Q45.12-15.35 45.99-15.63Q46.85-15.92 47.67-15.92L47.67-15.92Q48.16-15.92 48.16-15.16L48.16-15.16Q48.16-14.94 48.01-14.58Q47.85-14.22 47.23-13.40Q46.60-12.58 45.74-11.52Q44.88-10.47 44.76-10.31L44.76-10.31Q47.44-13.09 49.60-14.44Q51.76-15.80 52.72-15.80Q53.69-15.80 54.21-15.24Q54.73-14.69 54.73-14.05Q54.73-13.42 54.64-13.00Q54.55-12.58 54.32-12.12Q54.08-11.66 53.92-11.34Q53.75-11.02 53.36-10.50Q52.97-9.98 52.82-9.79Q52.67-9.59 52.22-9.04Q51.76-8.50 51.72-8.44L51.72-8.44Q52.26-8.98 53.24-10.06Q54.22-11.13 54.89-11.86Q55.57-12.58 56.58-13.49Q57.60-14.39 58.48-14.96L58.48-14.96Q60.59-16.29 62.75-16.29L62.75-16.29Q63.50-16.29 64.00-15.82Q64.51-15.35 64.51-14.70Q64.51-14.04 62.93-11.57Q61.35-9.10 59.77-6.61Q58.20-4.12 58.20-3.48L58.20-3.48Q58.20-2.58 58.53-2.41Q58.87-2.25 59.34-2.29Q59.80-2.32 60.65-2.89Q61.50-3.46 62.17-4.06L62.17-4.06Q63.24-5.04 64.16-5.96L64.16-5.96Q64.35-6.13 64.59-6.13L64.59-6.13Q64.96-6.13 65.04-5.57Q65.12-5 65.12-4.39Q65.12-3.79 65.00-3.55L65.00-3.55Q64.43-2.46 62.50-0.88Q60.57 0.70 58.79 0.70L58.79 0.70Q58.57 0.70 58.48 0.68L58.48 0.68Q56.46 0.49 55.69-0.42Q54.92-1.33 54.92-2.58Q54.92-3.83 55.77-5.61Q56.62-7.38 57.64-8.83Q58.65-10.27 59.50-11.44Q60.35-12.60 60.35-12.70Q60.35-12.79 60.19-12.79L60.19-12.79Q59.59-12.79 57.50-10.84L57.50-10.84Q53.92-7.50 51.33-4.39L51.33-4.39Q50.64-3.57 48.09-0.23L48.09-0.23Q47.79 0.16 47.16 0.16Q46.52 0.16 45.84-0.09Q45.16-0.33 45.16-0.72L45.16-0.72Q45.16-0.92 48.26-6.20Q51.37-11.48 51.37-11.96Q51.37-12.44 50.79-12.44Q50.21-12.44 48.42-10.72L48.42-10.72Q43.48-6.00 40.76-1.33L40.76-1.33Q40.59-1.05 40.08-0.47Q39.57 0.12 39.39 0.12Z M64.13 0.12L64.13 0.12L63.17 0.08L62.82 0.08Q62.63 0.02 62.40-0.16Q62.18-0.33 62.06-0.41Q61.94-0.49 61.94-0.69Q61.94-0.90 62.10-1.41L62.10-1.41Q65.91-9.79 69.46-14.80L69.46-14.80Q69.85-15.35 70.72-15.63Q71.59-15.92 72.41-15.92L72.41-15.92Q72.90-15.92 72.90-15.16L72.90-15.16Q72.90-14.94 72.74-14.58Q72.59-14.22 71.96-13.40Q71.34-12.58 70.48-11.52Q69.62-10.47 69.50-10.31L69.50-10.31Q72.18-13.09 74.33-14.44Q76.49-15.80 77.46-15.80Q78.43-15.80 78.94-15.24Q79.46-14.69 79.46-14.05Q79.46-13.42 79.37-13.00Q79.29-12.58 79.05-12.12Q78.82-11.66 78.65-11.34Q78.49-11.02 78.09-10.50Q77.70-9.98 77.56-9.79Q77.41-9.59 76.95-9.04Q76.49-8.50 76.45-8.44L76.45-8.44Q77.00-8.98 77.98-10.06Q78.95-11.13 79.63-11.86Q80.30-12.58 81.32-13.49Q82.33-14.39 83.21-14.96L83.21-14.96Q85.32-16.29 87.49-16.29L87.49-16.29Q88.23-16.29 88.74-15.82Q89.25-15.35 89.25-14.70Q89.25-14.04 87.66-11.57Q86.08-9.10 84.51-6.61Q82.94-4.12 82.94-3.48L82.94-3.48Q82.94-2.58 83.27-2.41Q83.60-2.25 84.07-2.29Q84.54-2.32 85.39-2.89Q86.24-3.46 86.90-4.06L86.90-4.06Q87.98-5.04 88.90-5.96L88.90-5.96Q89.09-6.13 89.32-6.13L89.32-6.13Q89.70-6.13 89.77-5.57Q89.85-5 89.85-4.39Q89.85-3.79 89.74-3.55L89.74-3.55Q89.17-2.46 87.24-0.88Q85.30 0.70 83.52 0.70L83.52 0.70Q83.31 0.70 83.21 0.68L83.21 0.68Q81.20 0.49 80.43-0.42Q79.66-1.33 79.66-2.58Q79.66-3.83 80.51-5.61Q81.36-7.38 82.37-8.83Q83.39-10.27 84.24-11.44Q85.09-12.60 85.09-12.70Q85.09-12.79 84.93-12.79L84.93-12.79Q84.32-12.79 82.24-10.84L82.24-10.84Q78.66-7.50 76.06-4.39L76.06-4.39Q75.38-3.57 72.82-0.23L72.82-0.23Q72.53 0.16 71.89 0.16Q71.26 0.16 70.57-0.09Q69.89-0.33 69.89-0.72L69.89-0.72Q69.89-0.92 73.00-6.20Q76.10-11.48 76.10-11.96Q76.10-12.44 75.53-12.44Q74.95-12.44 73.15-10.72L73.15-10.72Q68.21-6.00 65.50-1.33L65.50-1.33Q65.32-1.05 64.81-0.47Q64.31 0.12 64.13 0.12Z M105.41-6.13L105.41-6.13Q105.78-6.13 105.86-5.57Q105.94-5 105.94-4.39Q105.94-3.79 105.82-3.55L105.82-3.55Q105.25-2.46 103.34-0.89Q101.42 0.68 99.71 0.68L99.71 0.68Q98.65 0.68 97.75 0.05Q96.85-0.59 96.85-2.17Q96.85-3.75 97.69-5.27L97.69-5.27Q92.85 0.80 90.10 0.80L90.10 0.80Q89.00 0.80 88.33 0.02Q87.65-0.76 87.65-1.59Q87.65-2.42 87.89-3.31Q88.12-4.20 88.39-4.90Q88.65-5.61 89.17-6.64Q89.69-7.68 89.94-8.14Q90.19-8.61 90.75-9.56Q91.31-10.51 92.22-12.11Q93.12-13.71 93.72-14.48Q94.31-15.25 94.88-15.26Q95.45-15.27 95.88-14.80Q96.31-14.34 96.31-14.04Q96.31-13.75 95.00-11.41L95.00-11.41Q91.13-4.41 91.13-3.26L91.13-3.26Q91.13-2.97 91.35-2.97L91.35-2.97Q92.28-2.97 96.01-7.03Q99.74-11.09 100.33-12.24Q100.92-13.38 101.47-14.16Q102.03-14.94 102.30-15.12L102.30-15.12Q103.14-15.66 104.47-15.70L104.47-15.70Q104.69-15.70 104.80-15.68Q104.92-15.66 105.08-15.35Q105.23-15.04 105.23-14.86L105.23-14.86Q105.06-14.32 103.68-11.95Q102.30-9.59 102.15-9.28L102.15-9.28Q99.84-4.51 99.84-3.07L99.84-3.07Q99.84-2.25 100.47-2.25L100.47-2.25Q101.60-2.40 103.20-4.06L103.20-4.06Q103.79-4.67 104.36-5.29Q104.94-5.92 105.08-6.03Q105.21-6.13 105.41-6.13Z M115.28-3.01L115.28-3.01Q115.28-2.15 116.45-2.15L116.45-2.15Q117.08-2.15 118.03-2.77Q118.97-3.40 119.73-4.14L119.73-4.14Q121.77-6.15 122.04-6.15L122.04-6.15Q122.55-6.15 122.55-4.69Q122.55-3.22 121.63-2.68L121.63-2.68Q118.84-0.16 117.31 0.39L117.31 0.39Q116.45 0.68 115.42 0.66Q114.38 0.64 113.37-0.23Q112.35-1.11 112.35-2.37Q112.35-3.63 113.02-5.23Q113.68-6.84 114.37-7.98Q115.07-9.12 116.08-10.63Q117.10-12.15 117.16-12.52L117.16-12.52L117.12-12.56Q116.47-12.50 113.92-10.02Q111.38-7.54 109.71-5.70Q108.05-3.87 105.75-0.80L105.75-0.80Q105.11 0.04 104.70 0.04Q104.29 0.04 103.59-0.22Q102.90-0.49 102.74-0.61Q102.59-0.72 102.59-0.96Q102.59-1.19 102.72-1.53Q102.86-1.88 102.99-2.10Q103.11-2.32 103.41-2.79Q103.70-3.26 104.57-4.78Q105.44-6.29 107.23-9.30Q109.03-12.30 109.38-12.93L109.38-12.93Q110.13-14.22 110.59-14.80L110.59-14.80Q111.47-15.92 113.56-15.92L113.56-15.92Q114.03-15.92 114.03-15.33L114.03-15.33Q114.03-14.41 112.33-11.88L112.33-11.88L111.51-10.64Q114.89-14.39 117.21-15.39L117.21-15.39Q118.35-15.88 119.26-15.88Q120.16-15.88 120.70-15.39Q121.24-14.90 121.24-14.31Q121.24-13.71 120.83-12.88Q120.42-12.05 120.00-11.40Q119.58-10.74 118.89-9.75Q118.21-8.75 118.15-8.66Q118.09-8.57 117.85-8.19Q117.61-7.81 117.49-7.64Q117.37-7.46 117.10-7.02Q116.82-6.58 116.66-6.29Q116.49-6.00 116.25-5.57Q116.00-5.14 115.86-4.82Q115.71-4.51 115.55-4.14L115.55-4.14Q115.28-3.46 115.28-3.01Z M133.83-21.45L133.83-21.45Q133.83-20.33 132.79-19.21Q131.76-18.09 130.63-18.09Q129.51-18.09 129.51-19.26Q129.51-20.43 130.50-21.49Q131.48-22.56 132.67-22.56L132.67-22.56Q133.20-22.56 133.51-22.27Q133.83-21.97 133.83-21.45ZM130.66-4.39L130.66-4.39Q130.66-3.81 130.54-3.55L130.54-3.55Q129.59-1.60 127.50-0.40Q125.41 0.80 123.86 0.80Q122.32 0.80 121.21-0.23Q120.10-1.27 120.10-2.34Q120.10-3.42 121.17-5.47Q122.24-7.52 123.32-9.26Q124.39-11.00 124.39-11.14Q124.39-11.29 123.99-11.72Q123.59-12.15 123.59-12.35Q123.59-12.56 124.40-13.43Q125.21-14.30 126.37-15.15Q127.54-16.00 128.15-16.00Q128.77-16.00 129.26-15.45Q129.74-14.90 129.74-14.45Q129.74-14.00 125.10-6.00L125.10-6.00Q125.04-5.88 124.77-5.48Q124.51-5.08 124.36-4.81Q124.22-4.55 124.02-4.18L124.02-4.18Q123.63-3.40 123.63-2.87L123.63-2.87Q123.63-2.21 124.53-2.21Q125.43-2.21 126.39-2.82Q127.36-3.44 128.06-4.18L128.06-4.18Q129.90-6.15 130.15-6.15L130.15-6.15Q130.66-6.15 130.66-4.39Z M142.14-25.04L143.05-25.16L143.85-24.96Q144.03-24.96 144.17-24.79Q144.30-24.61 144.30-24.45Q144.30-24.30 143.89-23.61Q143.48-22.93 142.93-22.06Q142.37-21.19 142.33-21.11L142.33-21.11Q143.85-21.23 144.49-21.23Q145.12-21.23 145.36-21.14Q145.59-21.05 145.90-20.65Q146.20-20.25 146.45-20.05Q146.71-19.84 146.71-19.43Q146.71-19.02 146.21-18.74Q145.71-18.46 145.14-18.40L145.14-18.40Q140.61-17.95 140.14-17.93L140.14-17.93Q138.56-15.51 135.72-10.38Q132.88-5.25 132.70-3.96L132.70-3.96Q132.62-3.38 132.62-3.01L132.62-3.01Q132.62-2.25 133.43-2.25Q134.23-2.25 135.20-2.86Q136.18-3.48 137.00-4.20L137.00-4.20Q139.19-6.15 139.34-6.15L139.34-6.15Q139.85-6.15 139.85-4.39L139.85-4.39Q139.85-3.44 138.97-2.68L138.97-2.68Q137.00-0.98 135.65-0.12Q134.30 0.74 132.96 0.74L132.96 0.74Q132.66 0.74 132.41 0.68L132.41 0.68Q130.85 0.39 130.11-0.46Q129.38-1.31 129.39-2.75Q129.40-4.20 130.25-6.26Q131.10-8.32 132.39-10.64L132.39-10.64Q134.50-14.43 136.61-17.75L136.61-17.75L135.87-17.66Q133.60-17.40 133.23-17.40L133.23-17.40L133.05-17.40Q132.49-17.40 131.96-17.63Q131.43-17.85 131.43-18.18Q131.43-18.52 131.72-18.83Q132.00-19.14 132.06-19.32L132.06-19.32Q132.19-19.75 133.08-20.27Q133.97-20.80 134.42-20.83Q134.87-20.86 135.29-20.88Q135.71-20.90 136.23-20.92Q136.75-20.94 137.02-20.96L137.02-20.96L138.78-21.04Q140.42-23.50 141.03-24.20Q141.65-24.90 141.75-24.97Q141.84-25.04 142.14-25.04L142.14-25.04Z M144.53 6.48L144.53 6.48Q144.43 6.58 143.93 7.47Q143.43 8.36 142.87 9.27Q142.30 10.18 141.47 11.00Q140.64 11.82 140.08 11.88Q139.53 11.95 139.37 11.95L139.37 11.95Q137.58 11.95 137.58 10.14L137.58 10.14Q137.58 8.01 139.78 5.16L139.78 5.16Q140.62 4.08 141.89 2.84Q143.16 1.60 143.28 1.44Q143.40 1.27 146.21-4.04L146.21-4.04Q144.33-1.99 142.73-0.71Q141.13 0.57 139.65 0.72L139.65 0.72L139.51 0.72Q138.75 0.72 138.00 0.22Q137.26-0.27 137.26-1.52L137.26-1.52Q137.26-3.38 138.26-5.12L138.26-5.12Q138.61-5.72 139.48-7.17Q140.35-8.61 141.09-9.96L141.09-9.96Q141.79-11.04 142.54-12.46Q143.28-13.89 143.67-14.50Q144.06-15.12 144.41-15.12Q144.76-15.12 145.32-14.68Q145.88-14.24 145.88-13.63Q145.88-13.03 143.32-8.38Q140.76-3.73 140.76-3.09L140.76-3.09Q140.76-2.93 140.91-2.93L140.91-2.93Q141.44-2.93 143.25-4.42Q145.06-5.92 147.24-8.26L147.24-8.26Q149.68-10.86 151.07-13.01L151.07-13.01Q151.25-13.28 151.35-13.43Q151.46-13.57 151.63-13.82Q151.79-14.06 151.90-14.20Q152.01-14.34 152.16-14.52Q152.30-14.71 152.42-14.80Q152.54-14.90 152.67-15L152.67-15Q152.89-15.20 153.15-15.20Q153.41-15.20 153.95-15.08Q154.49-14.96 154.60-14.82Q154.70-14.69 154.82-14.57L154.82-14.57Q155.02-14.36 155.02-14.17Q155.02-13.98 154.86-13.68Q154.70-13.38 153.04-10.59L153.04-10.59Q148.16-2.34 146.33 1.45L146.33 1.45Q149.29-1.05 154.68-5.96L154.68-5.96Q154.90-6.13 155.11-6.13L155.11-6.13Q155.72-6.13 155.72-4.28L155.72-4.28Q155.72-3.73 155.52-3.55L155.52-3.55Q149.68 0.94 144.53 6.48Z M182.98-32.91L184.06-32.85L184.90-32.87Q185.31-32.87 185.31-32.56L185.31-32.56Q185.31-32.48 184.04-30.22Q182.77-27.97 175.91-15.15Q169.06-2.32 166.01 3.77L166.01 3.77Q165.80 4.24 165.48 4.38L165.48 4.38Q164.61 4.79 164.21 4.79L164.21 4.79L163.73 4.94Q163.61 4.94 163.29 4.82Q162.96 4.71 162.94 4.60Q162.91 4.49 162.91 4.11Q162.91 3.73 162.93 3.67L162.93 3.67Q163.32 1.93 172.41-14.95Q181.50-31.84 182.50-32.71L182.50-32.71Q182.67-32.91 182.98-32.91L182.98-32.91Z M210.81-24.28L210.81-24.28Q210.81-23.28 209.54-21.88Q208.27-20.47 206.40-19.20Q204.54-17.93 202.70-17.19L202.70-17.19Q203.11-17.32 203.54-17.32L203.54-17.32Q204.99-17.32 205.45-16.80L205.45-16.80Q205.57-16.68 205.57-16.52Q205.57-16.37 205.04-15.76L205.04-15.76Q199.56-9.41 194.97-3.16L194.97-3.16Q196.84-4.63 198.29-5.96L198.29-5.96Q199.09-6.68 200.24-6.68L200.24-6.68Q201.08-6.68 201.28-6.46Q201.47-6.25 201.47-6.10Q201.47-5.96 201.22-5.76L201.22-5.76Q197.95-2.91 190.57 2.56L190.57 2.56Q189.30 3.98 184.17 9.36L184.17 9.36Q183.25 10.29 182.13 10.29L182.13 10.29Q179.97 10.29 179.97 9.08L179.97 9.08Q179.97 8.55 180.81 7.40L180.81 7.40Q182.02 5.63 186.72 2.03L186.72 2.03Q187.76 0.88 190.30-1.88L190.30-1.88Q195.10-7.11 196.10-8.59L196.10-8.59Q193.44-6.07 192.08-5.04Q190.71-4.00 189.55-3.24Q188.38-2.48 187.41-2.01L187.41-2.01Q182.68 0.25 180.67-1.99L180.67-1.99Q179.65-3.11 179.65-5.26Q179.65-7.42 180.85-10.02Q182.04-12.62 184.03-15.15Q186.02-17.68 188.76-20.08Q191.49-22.48 194.44-24.30Q197.39-26.11 200.65-27.22Q203.91-28.32 206.80-28.32L206.80-28.32Q207.80-28.32 208.68-27.99Q209.56-27.66 209.93-27.29L209.93-27.29Q210.81-26.41 210.81-24.28ZM199.52-20.20L199.52-20.20L199.42-19.80Q199.42-19.47 199.87-19.47L199.87-19.47Q201.06-19.47 203.13-20.63Q205.20-21.78 206.47-22.99Q207.74-24.20 207.74-25L207.74-25Q207.74-25.68 206.53-25.68L206.53-25.68Q204.38-25.68 201.69-24.63Q199.01-23.57 196.45-21.89Q193.89-20.21 191.41-18.04Q188.93-15.86 187.09-13.68Q185.24-11.50 184.11-9.41Q182.97-7.32 182.97-5.84L182.97-5.84Q182.97-5.25 183.32-4.80Q183.66-4.36 184.32-4.36L184.32-4.36Q186.37-4.36 190.93-7.50Q195.49-10.64 201.41-16.07L201.41-16.07Q201.49-16.15 201.69-16.37L201.69-16.37Q202.11-16.89 202.56-17.13L202.56-17.13Q200.96-16.48 199.95-16.48Q198.93-16.48 198.27-16.93Q197.60-17.38 197.60-18.15Q197.60-18.93 198.29-19.61Q198.97-20.29 199.24-20.29Q199.52-20.29 199.52-20.20Z M219.31-14.84L219.31-14.84Q220.80-14.84 220.80-13.83L220.80-13.83Q220.80-13.28 220.54-13.03Q220.29-12.77 219.46-11.34Q218.63-9.90 217.62-7.67Q216.62-5.43 216.32-3.85L216.32-3.85Q216.26-3.65 216.26-3.30L216.26-3.30Q216.26-2.23 216.85-2.23Q217.44-2.23 218.24-2.78Q219.04-3.34 219.66-3.97Q220.29-4.61 220.88-5.27Q221.48-5.94 221.60-6.04Q221.71-6.13 221.95-6.13L221.95-6.13Q222.32-6.13 222.40-5.57Q222.48-5 222.48-4.39Q222.48-3.79 222.36-3.55L222.36-3.55Q221.79-2.44 219.87-0.88Q217.94 0.68 216.37 0.68Q214.80 0.68 214.06-0.27Q213.32-1.23 213.32-2.39Q213.32-3.55 213.71-4.43L213.71-4.43Q212.09-2.32 209.99-0.86Q207.89 0.61 206.56 0.61Q205.23 0.61 204.39-0.20L204.39-0.20Q203.32-1.19 203.32-2.96Q203.32-4.73 204.11-6.51Q204.90-8.30 206.19-9.78Q207.48-11.25 209.02-12.46L209.02-12.46Q212.26-15 215.00-15L215.00-15Q216.05-15 216.71-14.65Q217.38-14.30 217.55-13.77L217.55-13.77Q218.02-14.47 218.34-14.66Q218.67-14.84 219.31-14.84ZM216.71-12.68L216.71-12.68Q213.37-12.68 209.80-8.96L209.80-8.96Q208.53-7.64 207.47-5.78Q206.40-3.93 206.40-3.24Q206.40-2.56 206.79-2.56L206.79-2.56Q207.34-2.56 209.84-4.72Q212.34-6.88 213.16-7.89L213.16-7.89Q214.06-9.02 216.71-12.68Z M221.10 0.12L221.10 0.12L220.14 0.08L219.79 0.08Q219.59 0.02 219.37-0.16Q219.15-0.33 219.03-0.41Q218.91-0.49 218.91-0.69Q218.91-0.90 219.07-1.41L219.07-1.41Q222.88-9.79 226.43-14.80L226.43-14.80Q226.82-15.35 227.69-15.63Q228.56-15.92 229.38-15.92L229.38-15.92Q229.87-15.92 229.87-15.16L229.87-15.16Q229.87-14.94 229.71-14.58Q229.56-14.22 228.93-13.40Q228.31-12.58 227.45-11.52Q226.59-10.47 226.47-10.31L226.47-10.31Q229.15-13.09 231.30-14.44Q233.46-15.80 234.43-15.80Q235.40-15.80 235.91-15.24Q236.43-14.69 236.43-14.05Q236.43-13.42 236.34-13.00Q236.25-12.58 236.02-12.12Q235.79-11.66 235.62-11.34Q235.45-11.02 235.06-10.50Q234.67-9.98 234.53-9.79Q234.38-9.59 233.92-9.04Q233.46-8.50 233.42-8.44L233.42-8.44Q233.97-8.98 234.95-10.06Q235.92-11.13 236.60-11.86Q237.27-12.58 238.29-13.49Q239.30-14.39 240.18-14.96L240.18-14.96Q242.29-16.29 244.46-16.29L244.46-16.29Q245.20-16.29 245.71-15.82Q246.22-15.35 246.22-14.70Q246.22-14.04 244.63-11.57Q243.05-9.10 241.48-6.61Q239.91-4.12 239.91-3.48L239.91-3.48Q239.91-2.58 240.24-2.41Q240.57-2.25 241.04-2.29Q241.51-2.32 242.36-2.89Q243.21-3.46 243.87-4.06L243.87-4.06Q244.95-5.04 245.86-5.96L245.86-5.96Q246.06-6.13 246.29-6.13L246.29-6.13Q246.66-6.13 246.74-5.57Q246.82-5 246.82-4.39Q246.82-3.79 246.70-3.55L246.70-3.55Q246.14-2.46 244.20-0.88Q242.27 0.70 240.49 0.70L240.49 0.70Q240.28 0.70 240.18 0.68L240.18 0.68Q238.17 0.49 237.40-0.42Q236.63-1.33 236.63-2.58Q236.63-3.83 237.48-5.61Q238.33-7.38 239.34-8.83Q240.36-10.27 241.21-11.44Q242.06-12.60 242.06-12.70Q242.06-12.79 241.90-12.79L241.90-12.79Q241.29-12.79 239.20-10.84L239.20-10.84Q235.63-7.50 233.03-4.39L233.03-4.39Q232.35-3.57 229.79-0.23L229.79-0.23Q229.50 0.16 228.86 0.16Q228.23 0.16 227.54-0.09Q226.86-0.33 226.86-0.72L226.86-0.72Q226.86-0.92 229.97-6.20Q233.07-11.48 233.07-11.96Q233.07-12.44 232.49-12.44Q231.92-12.44 230.12-10.72L230.12-10.72Q225.18-6.00 222.47-1.33L222.47-1.33Q222.29-1.05 221.78-0.47Q221.27 0.12 221.10 0.12Z M258.55-21.45L258.55-21.45Q258.55-20.33 257.51-19.21Q256.48-18.09 255.36-18.09Q254.23-18.09 254.23-19.26Q254.23-20.43 255.22-21.49Q256.21-22.56 257.40-22.56L257.40-22.56Q257.92-22.56 258.24-22.27Q258.55-21.97 258.55-21.45ZM255.39-4.39L255.39-4.39Q255.39-3.81 255.27-3.55L255.27-3.55Q254.31-1.60 252.22-0.40Q250.13 0.80 248.59 0.80Q247.05 0.80 245.93-0.23Q244.82-1.27 244.82-2.34Q244.82-3.42 245.89-5.47Q246.97-7.52 248.04-9.26Q249.12-11.00 249.12-11.14Q249.12-11.29 248.72-11.72Q248.31-12.15 248.31-12.35Q248.31-12.56 249.13-13.43Q249.94-14.30 251.10-15.15Q252.26-16.00 252.88-16.00Q253.49-16.00 253.98-15.45Q254.47-14.90 254.47-14.45Q254.47-14.00 249.82-6.00L249.82-6.00Q249.76-5.88 249.50-5.48Q249.23-5.08 249.09-4.81Q248.94-4.55 248.74-4.18L248.74-4.18Q248.35-3.40 248.35-2.87L248.35-2.87Q248.35-2.21 249.25-2.21Q250.15-2.21 251.12-2.82Q252.08-3.44 252.79-4.18L252.79-4.18Q254.62-6.15 254.88-6.15L254.88-6.15Q255.39-6.15 255.39-4.39Z M264.54-3.01L264.54-3.01Q264.54-2.15 265.71-2.15L265.71-2.15Q266.33-2.15 267.28-2.77Q268.23-3.40 268.99-4.14L268.99-4.14Q271.02-6.15 271.29-6.15L271.29-6.15Q271.80-6.15 271.80-4.69Q271.80-3.22 270.88-2.68L270.88-2.68Q268.09-0.16 266.57 0.39L266.57 0.39Q265.71 0.68 264.67 0.66Q263.64 0.64 262.62-0.23Q261.61-1.11 261.61-2.37Q261.61-3.63 262.27-5.23Q262.93-6.84 263.63-7.98Q264.32-9.12 265.34-10.63Q266.35-12.15 266.41-12.52L266.41-12.52L266.37-12.56Q265.73-12.50 263.18-10.02Q260.63-7.54 258.97-5.70Q257.31-3.87 255.00-0.80L255.00-0.80Q254.36 0.04 253.95 0.04Q253.54 0.04 252.85-0.22Q252.15-0.49 252.00-0.61Q251.84-0.72 251.84-0.96Q251.84-1.19 251.98-1.53Q252.11-1.88 252.24-2.10Q252.37-2.32 252.66-2.79Q252.95-3.26 253.82-4.78Q254.69-6.29 256.49-9.30Q258.29-12.30 258.64-12.93L258.64-12.93Q259.38-14.22 259.85-14.80L259.85-14.80Q260.73-15.92 262.82-15.92L262.82-15.92Q263.29-15.92 263.29-15.33L263.29-15.33Q263.29-14.41 261.59-11.88L261.59-11.88L260.77-10.64Q264.14-14.39 266.47-15.39L266.47-15.39Q267.60-15.88 268.51-15.88Q269.42-15.88 269.96-15.39Q270.49-14.90 270.49-14.31Q270.49-13.71 270.08-12.88Q269.67-12.05 269.25-11.40Q268.83-10.74 268.15-9.75Q267.46-8.75 267.41-8.66Q267.35-8.57 267.10-8.19Q266.86-7.81 266.74-7.64Q266.63-7.46 266.35-7.02Q266.08-6.58 265.91-6.29Q265.75-6.00 265.50-5.57Q265.26-5.14 265.11-4.82Q264.96-4.51 264.81-4.14L264.81-4.14Q264.54-3.46 264.54-3.01Z M276.45-12.98Q278.33-14.28 280.15-14.98Q281.97-15.68 283.29-15.68Q284.62-15.68 284.99-14.92L284.99-14.92Q285.76-15.80 286.89-15.86L286.89-15.86Q287.22-15.88 287.71-15.88Q288.20-15.88 288.31-15.75Q288.43-15.63 288.53-15.27Q288.63-14.92 288.65-14.88Q288.67-14.84 288.67-14.76Q288.67-14.67 288.57-14.54Q288.47-14.41 288.34-14.30Q288.22-14.18 288.20-14.16L288.20-14.16Q283.88-7.97 279.37-0.04L279.37-0.04Q284.02-4.16 287.69-5.96L287.69-5.96Q287.92-6.07 288.14-6.07L288.14-6.07Q288.45-6.07 288.55-5.67Q288.65-5.27 288.65-4.53Q288.65-3.79 288.56-3.61Q288.47-3.44 287.65-2.91Q286.83-2.38 285.52-1.54Q284.21-0.70 282.75 0.31L282.75 0.31Q279.23 2.75 276.97 5.45L276.97 5.45Q274.04 8.98 272.77 11.15L272.77 11.15Q272.30 11.99 271.19 11.99L271.19 11.99Q268.98 11.99 268.98 9.90L268.98 9.90Q268.98 7.77 271.07 5.55L271.07 5.55Q272.63 3.89 273.94 2.83Q275.25 1.78 275.36 1.64L275.36 1.64Q276.81-0.53 279.29-4.51L279.29-4.51Q277.18-2.30 275.20-1.00Q273.22 0.31 272.24 0.31L272.24 0.31Q269.25 0.31 269.25-2.25L269.25-2.25Q269.25-4.28 270.29-6.35Q271.32-8.42 272.94-10.05Q274.56-11.68 276.45-12.98ZM283.88-13.48L283.88-13.48Q281.61-12.99 279.62-11.87Q277.63-10.74 276.34-9.46Q275.05-8.18 274.11-6.84L274.11-6.84Q272.36-4.32 272.36-2.93L272.36-2.93Q272.36-2.60 272.52-2.60Q272.69-2.60 273.27-2.95Q273.84-3.30 274.90-4.15Q275.95-5 277.24-6.17L277.24-6.17Q280.23-8.93 283.88-13.48Z M311.11-14.84L311.11-14.84Q312.59-14.84 312.59-13.83L312.59-13.83Q312.59-13.28 312.34-13.03Q312.08-12.77 311.25-11.34Q310.42-9.90 309.42-7.67Q308.41-5.43 308.12-3.85L308.12-3.85Q308.06-3.65 308.06-3.30L308.06-3.30Q308.06-2.23 308.65-2.23Q309.23-2.23 310.03-2.78Q310.83-3.34 311.46-3.97Q312.08-4.61 312.68-5.27Q313.27-5.94 313.39-6.04Q313.51-6.13 313.74-6.13L313.74-6.13Q314.11-6.13 314.19-5.57Q314.27-5 314.27-4.39Q314.27-3.79 314.15-3.55L314.15-3.55Q313.59-2.44 311.66-0.88Q309.74 0.68 308.17 0.68Q306.59 0.68 305.85-0.27Q305.11-1.23 305.11-2.39Q305.11-3.55 305.50-4.43L305.50-4.43Q303.88-2.32 301.78-0.86Q299.68 0.61 298.35 0.61Q297.02 0.61 296.18-0.20L296.18-0.20Q295.11-1.19 295.11-2.96Q295.11-4.73 295.90-6.51Q296.69-8.30 297.98-9.78Q299.27-11.25 300.81-12.46L300.81-12.46Q304.06-15 306.79-15L306.79-15Q307.84-15 308.51-14.65Q309.17-14.30 309.35-13.77L309.35-13.77Q309.82-14.47 310.14-14.66Q310.46-14.84 311.11-14.84ZM308.51-12.68L308.51-12.68Q305.17-12.68 301.59-8.96L301.59-8.96Q300.32-7.64 299.26-5.78Q298.20-3.93 298.20-3.24Q298.20-2.56 298.59-2.56L298.59-2.56Q299.13-2.56 301.63-4.72Q304.13-6.88 304.95-7.89L304.95-7.89Q305.85-9.02 308.51-12.68Z M323.09-3.01L323.09-3.01Q323.09-2.15 324.26-2.15L324.26-2.15Q324.89-2.15 325.83-2.77Q326.78-3.40 327.54-4.14L327.54-4.14Q329.57-6.15 329.85-6.15L329.85-6.15Q330.35-6.15 330.35-4.69Q330.35-3.22 329.44-2.68L329.44-2.68Q326.64-0.16 325.12 0.39L325.12 0.39Q324.26 0.68 323.22 0.66Q322.19 0.64 321.17-0.23Q320.16-1.11 320.16-2.37Q320.16-3.63 320.82-5.23Q321.49-6.84 322.18-7.98Q322.87-9.12 323.89-10.63Q324.90-12.15 324.96-12.52L324.96-12.52L324.92-12.56Q324.28-12.50 321.73-10.02Q319.18-7.54 317.52-5.70Q315.86-3.87 313.56-0.80L313.56-0.80Q312.91 0.04 312.50 0.04Q312.09 0.04 311.40-0.22Q310.71-0.49 310.55-0.61Q310.39-0.72 310.39-0.96Q310.39-1.19 310.53-1.53Q310.67-1.88 310.79-2.10Q310.92-2.32 311.21-2.79Q311.51-3.26 312.38-4.78Q313.24-6.29 315.04-9.30Q316.84-12.30 317.19-12.93L317.19-12.93Q317.93-14.22 318.40-14.80L318.40-14.80Q319.28-15.92 321.37-15.92L321.37-15.92Q321.84-15.92 321.84-15.33L321.84-15.33Q321.84-14.41 320.14-11.88L320.14-11.88L319.32-10.64Q322.70-14.39 325.02-15.39L325.02-15.39Q326.15-15.88 327.06-15.88Q327.97-15.88 328.51-15.39Q329.05-14.90 329.05-14.31Q329.05-13.71 328.64-12.88Q328.22-12.05 327.81-11.40Q327.39-10.74 326.70-9.75Q326.02-8.75 325.96-8.66Q325.90-8.57 325.66-8.19Q325.41-7.81 325.30-7.64Q325.18-7.46 324.90-7.02Q324.63-6.58 324.47-6.29Q324.30-6.00 324.06-5.57Q323.81-5.14 323.66-4.82Q323.52-4.51 323.36-4.14L323.36-4.14Q323.09-3.46 323.09-3.01Z M353.45-29.28Q353.82-29.28 354.04-29.04Q354.25-28.81 354.25-28.56Q354.25-28.32 353.87-27.67Q353.49-27.01 352.12-24.81Q350.75-22.62 349.99-21.37L349.99-21.37Q345.56-14.16 343.04-9.18Q340.52-4.20 340.52-3.16L340.52-3.16L340.52-3.01Q340.52-2.21 341.11-2.21Q341.69-2.21 342.52-2.75Q343.35-3.30 343.98-3.93Q344.60-4.55 345.24-5.22Q345.87-5.90 346.01-6.02Q346.14-6.13 346.36-6.13L346.36-6.13Q346.69-6.13 346.79-5.71Q346.89-5.29 346.89-4.54Q346.89-3.79 346.77-3.55L346.77-3.55Q346.20-2.46 344.28-0.89Q342.36 0.68 340.64 0.68L340.64 0.68Q337.71 0.68 337.71-1.80L337.71-1.80Q337.71-3.34 338.88-5.84L338.88-5.84Q337.30-3.79 335.66-2.34L335.66-2.34Q332.61 0.31 330.36 0.31L330.36 0.31Q329.11 0.31 328.52-0.57Q327.92-1.45 327.92-3.10Q327.92-4.75 329.21-7.05Q330.50-9.36 332.42-11.20Q334.35-13.05 336.69-14.29Q339.04-15.53 341.01-15.53L341.01-15.53Q341.63-15.53 342.47-14.77L342.47-14.77Q343.04-15.66 344.56-18.36L344.56-18.36Q349.35-26.43 350.89-28.20L350.89-28.20Q351.71-29.28 353.45-29.28L353.45-29.28ZM341.28-12.93L341.28-12.93Q338.47-12.30 336.05-10.31Q333.62-8.32 332.41-6.14Q331.20-3.96 331.20-3.32Q331.20-2.68 331.48-2.68L331.48-2.68Q332.65-2.68 337.28-7.91L337.28-7.91Q339.58-10.49 341.28-12.93Z M375.89-11.39L375.89-11.39Q376.36-11.39 376.36-10.63Q376.36-9.88 376.03-8.05L376.03-8.05Q375.77-6.82 373.21-4.53L373.21-4.53Q370.13-1.80 366.44-0.63L366.44-0.63Q364.21 0.08 362.09 0.08Q359.97 0.08 358.22-1.71Q356.48-3.50 356.48-5.95Q356.48-8.40 357.46-11.03Q358.45-13.65 360.12-16.04Q361.79-18.44 364.06-20.64Q366.34-22.85 368.80-24.47Q371.26-26.09 373.96-27.05Q376.65-28.01 379.07-28.01L379.07-28.01Q380.99-28.01 382.34-26.62L382.34-26.62Q383.04-25.88 383.04-24.76Q383.04-23.63 381.94-21.92Q380.85-20.21 379.36-18.81Q377.86-17.40 376.27-16.43Q374.68-15.45 373.72-15.45Q372.76-15.45 372.08-16.04Q371.40-16.64 371.40-17.11Q371.40-17.58 371.60-18.14Q371.81-18.71 372.12-18.71L372.12-18.71Q372.04-18.61 372.04-18.52L372.04-18.52Q372.04-18.28 372.72-18.28Q373.39-18.28 374.97-19.47Q376.55-20.66 377.83-22.15Q379.11-23.63 379.11-24.38L379.11-24.38Q379.11-24.88 378.43-24.88L378.43-24.88Q376.59-24.88 373.36-23.17Q370.13-21.46 367.18-18.77Q364.23-16.07 362.05-12.37Q359.87-8.67 359.87-5.72L359.87-5.72Q359.87-4.49 360.53-3.75Q361.18-3.01 362.54-3.01Q363.90-3.01 365.75-3.79Q367.61-4.57 369.28-5.70Q370.95-6.84 372.43-8.03Q373.92-9.22 374.81-10.12Q375.69-11.02 375.71-11.20Q375.73-11.39 375.89-11.39Z M390.88-14.88Q391.47-14.88 392.08-14.36Q392.70-13.83 392.70-12.74Q392.70-11.66 391.93-9.93Q391.17-8.20 389.84-6.42Q388.52-4.63 386.92-3.06Q385.33-1.48 383.49-0.48Q381.64 0.53 380.14 0.53Q378.63 0.53 377.73-0.42Q376.82-1.37 376.82-3.06Q376.82-4.75 377.65-6.80Q378.48-8.85 379.79-10.42Q381.09-11.99 382.62-13.24L382.62-13.24Q385.80-15.80 388.20-15.80L388.20-15.80Q389.28-15.80 389.82-15.27L389.82-15.27Q390.02-15.10 390.02-14.96L390.02-14.96L390.02-14.84Q390.29-14.88 390.88-14.88ZM388.91-12.29L388.91-12.29L388.77-12.29Q388.09-12.29 388.09-13.28L388.09-13.28Q386.66-12.81 385.10-11.64Q383.54-10.47 382.31-8.87L382.31-8.87Q379.81-5.66 379.77-3.46L379.77-3.46Q379.77-2.36 380.57-2.36Q381.37-2.36 382.95-3.42Q384.53-4.47 386.08-6.43Q387.64-8.38 388.41-9.81Q389.18-11.25 389.18-11.77Q389.18-12.29 388.91-12.29Z M417.20-29.28Q417.57-29.28 417.78-29.04Q418.00-28.81 418.00-28.56Q418.00-28.32 417.62-27.67Q417.24-27.01 415.87-24.81Q414.50-22.62 413.74-21.37L413.74-21.37Q409.31-14.16 406.79-9.18Q404.27-4.20 404.27-3.16L404.27-3.16L404.27-3.01Q404.27-2.21 404.85-2.21Q405.44-2.21 406.27-2.75Q407.10-3.30 407.72-3.93Q408.35-4.55 408.98-5.22Q409.62-5.90 409.76-6.02Q409.89-6.13 410.11-6.13L410.11-6.13Q410.44-6.13 410.54-5.71Q410.64-5.29 410.64-4.54Q410.64-3.79 410.52-3.55L410.52-3.55Q409.95-2.46 408.03-0.89Q406.10 0.68 404.39 0.68L404.39 0.68Q401.46 0.68 401.46-1.80L401.46-1.80Q401.46-3.34 402.63-5.84L402.63-5.84Q401.05-3.79 399.40-2.34L399.40-2.34Q396.36 0.31 394.11 0.31L394.11 0.31Q392.86 0.31 392.27-0.57Q391.67-1.45 391.67-3.10Q391.67-4.75 392.96-7.05Q394.25-9.36 396.17-11.20Q398.10-13.05 400.44-14.29Q402.78-15.53 404.76-15.53L404.76-15.53Q405.38-15.53 406.22-14.77L406.22-14.77Q406.79-15.66 408.31-18.36L408.31-18.36Q413.10-26.43 414.64-28.20L414.64-28.20Q415.46-29.28 417.20-29.28L417.20-29.28ZM405.03-12.93L405.03-12.93Q402.22-12.30 399.80-10.31Q397.37-8.32 396.16-6.14Q394.95-3.96 394.95-3.32Q394.95-2.68 395.22-2.68L395.22-2.68Q396.40-2.68 401.03-7.91L401.03-7.91Q403.33-10.49 405.03-12.93Z M422.97-14.61L422.97-14.61Q422.97-13.32 421.92-12.34Q420.88-11.37 419.55-11.37L419.55-11.37Q419.12-11.37 418.98-11.57Q418.85-11.78 418.85-12.11Q418.85-12.44 418.93-12.75L418.93-12.75Q418.22-12.52 417.36-12.03Q416.50-11.54 415.25-10.59Q414.00-9.63 414.00-9.16L414.00-9.16Q414.00-9.00 414.46-9.00Q414.92-9.00 415.88-9.33Q416.84-9.65 417.22-9.65Q417.60-9.65 417.71-9.61L417.71-9.61Q417.97-9.47 418.26-9.01Q418.55-8.55 418.55-8.29Q418.55-8.03 418.05-7.60Q417.54-7.17 416.89-6.94Q416.25-6.72 416.04-6.60L416.04-6.60Q411.91-4.30 411.91-3.44L411.91-3.44Q411.91-1.91 414.51-1.91L414.51-1.91Q416.17-1.91 417.85-2.97L417.85-2.97Q419.28-3.87 420.42-4.79Q421.56-5.72 421.87-5.94Q422.17-6.15 422.32-6.15L422.32-6.15Q422.83-6.15 422.83-5.02Q422.83-3.89 422.70-3.53Q422.56-3.16 421.91-2.64L421.91-2.64Q417.73 0.76 414.00 0.76L414.00 0.76Q412.01 0.76 410.82 0.21L410.82 0.21Q408.63-0.78 408.63-2.83L408.63-2.83Q408.63-5.53 412.36-6.91L412.36-6.91Q411.62-7.25 411.41-7.76Q411.19-8.28 411.19-9.42Q411.19-10.57 412.26-11.85Q413.32-13.13 414.86-13.95L414.86-13.95Q418.30-15.80 421.00-15.80L421.00-15.80Q421.64-15.80 422.30-15.49Q422.97-15.18 422.97-14.61Z M442.29-32.91L443.37-32.85L444.21-32.87Q444.62-32.87 444.62-32.56L444.62-32.56Q444.62-32.48 443.35-30.22Q442.08-27.97 435.22-15.15Q428.37-2.32 425.32 3.77L425.32 3.77Q425.11 4.24 424.79 4.38L424.79 4.38Q423.92 4.79 423.52 4.79L423.52 4.79L423.04 4.94Q422.92 4.94 422.60 4.82Q422.27 4.71 422.25 4.60Q422.22 4.49 422.22 4.11Q422.22 3.73 422.24 3.67L422.24 3.67Q422.63 1.93 431.72-14.95Q440.81-31.84 441.81-32.71L441.81-32.71Q441.98-32.91 442.29-32.91L442.29-32.91Z M454.01-10.92L453.09-10.68Q452.55-10.68 452.55-11.37L452.55-11.37Q452.55-11.88 453.01-12.48Q453.47-13.09 453.56-13.28Q453.66-13.48 454.08-13.89Q454.50-14.30 454.82-14.38Q455.15-14.45 456.14-14.55L456.14-14.55Q459.19-14.84 462.78-14.88L462.78-14.88Q466.69-20.80 469.15-23.67L469.15-23.67Q465.50-23.01 460.18-23.01L460.18-23.01Q452.98-23.01 452.98-26.23L452.98-26.23Q452.98-27.15 453.91-27.83Q454.83-28.52 456.25-28.52Q457.66-28.52 457.66-28.18L457.66-28.18Q457.66-28.01 457.23-28.01Q456.79-28.01 456.41-27.69Q456.02-27.36 456.02-27.07L456.02-27.07Q456.02-26.62 457.94-26.41Q459.85-26.19 463.85-26.19Q467.84-26.19 472.51-26.91L472.51-26.91Q474.05-28.18 475.41-28.83Q476.77-29.47 478.17-29.47Q479.58-29.47 480.01-28.85Q480.44-28.22 480.45-27.91Q480.46-27.60 479.99-27.09Q479.52-26.58 478.68-26.05L478.68-26.05Q476.71-24.84 473.50-24.61L473.50-24.61Q470.09-20.29 466.45-14.84L466.45-14.84Q467.96-14.79 469.27-14.62Q470.57-14.45 470.57-13.59L470.57-13.59Q470.57-13.24 469.46-12.25L469.46-12.25Q469.34-12.11 469.17-11.84L469.17-11.84Q468.86-11.37 468.55-11.37Q468.25-11.37 467.86-11.45L467.86-11.45Q466.34-11.50 465.57-11.50L465.57-11.50L464.31-11.48Q457.43-0.78 457.21-0.36Q456.98 0.06 456.72 0.27Q456.45 0.49 456.06 0.49Q455.67 0.49 454.97 0.36Q454.27 0.23 453.91 0.05Q453.56-0.14 453.56-0.42Q453.56-0.70 453.74-1.23L453.74-1.23Q454.21-2.54 460.30-11.33L460.30-11.33Q456.34-11.13 454.01-10.92L454.01-10.92ZM477.14-28.01L477.90-28.32Q477.59-28.22 477.14-28.01L477.14-28.01Z M477.56-11.88L476.74-10.64Q481.35-15.88 484.59-15.88L484.59-15.88Q485.39-15.88 485.91-15.40Q486.42-14.92 486.42-14.16Q486.42-13.40 485.34-11.61Q484.26-9.82 483.34-8.59L483.34-8.59Q482.85-7.97 482.23-7.97Q481.62-7.97 481.28-8.42Q480.94-8.87 480.94-9.47L480.94-9.47Q480.94-10.82 482.38-12.52L482.38-12.52L482.34-12.56Q481.70-12.50 479.15-10.02Q476.60-7.54 474.81-5.58Q473.03-3.61 470.94-0.80L470.94-0.80Q470.33 0.04 469.91 0.04Q469.49 0.04 468.80-0.22Q468.10-0.49 467.96-0.61Q467.81-0.72 467.81-1.00Q467.81-1.27 467.97-1.63Q468.12-1.99 468.54-2.66Q468.96-3.32 469.81-4.80Q470.66-6.29 472.46-9.30Q474.26-12.30 474.61-12.93L474.61-12.93Q475.35-14.22 475.82-14.80L475.82-14.80Q476.70-15.92 478.79-15.92L478.79-15.92Q479.26-15.92 479.26-15.33L479.26-15.33Q479.26-14.41 477.56-11.88L477.56-11.88Z"/></g>
</svg>
</g><g opacity="1" transform="rotate(0 1049.2214 775.0723)">
<svg width="381.6516" height="90" x="1049.2214" y="775.0723" version="1.1" preserveAspectRatio="none" viewBox="4.16 -29.2 125.52000000000001 29.6">
  <g transform="matrix(1 0 0 1 0 0)" class="companyName"><path id="id-D6z1nYkh7" d="M12.92-26.40Q17.04-26.40 19.46-24.34Q21.88-22.28 21.88-18.68L21.88-18.68Q21.88-15.08 19.46-13Q17.04-10.92 12.92-10.92L12.92-10.92L6.16-10.92L6.16 0L4.16 0L4.16-26.40L12.92-26.40ZM12.68-12.80Q16.12-12.80 17.94-14.32Q19.76-15.84 19.76-18.68L19.76-18.68Q19.76-21.48 17.94-23.02Q16.12-24.56 12.68-24.56L12.68-24.56L6.16-24.56L6.16-12.80L12.68-12.80Z M28.04-23.88Q27.28-23.88 26.82-24.34Q26.36-24.80 26.36-25.56L26.36-25.56Q26.36-26.32 26.82-26.78Q27.28-27.24 28.04-27.24L28.04-27.24Q28.80-27.24 29.26-26.78Q29.72-26.32 29.72-25.56L29.72-25.56Q29.72-24.80 29.26-24.34Q28.80-23.88 28.04-23.88L28.04-23.88ZM29.04-20L29.04 0L27.04 0L27.04-20L29.04-20Z M50.56 0L42.92-10.60L38.20-6.04L38.20 0L36.20 0L36.20-29.20L38.20-29.20L38.20-8.56L50.08-20L52.68-20L44.40-12L53 0L50.56 0Z M73.16-1.32Q74.16-1.32 74.72-1.60L74.72-1.60L74.60 0Q73.88 0.40 72.64 0.40L72.64 0.40Q71.24 0.40 70.36-0.36Q69.48-1.12 69.36-3L69.36-3Q68.44-1.40 66.40-0.50Q64.36 0.40 62.12 0.40L62.12 0.40Q59.16 0.40 57.38-0.92Q55.60-2.24 55.60-4.68L55.60-4.68Q55.60-9.32 63.20-10.68L63.20-10.68L69.32-11.76L69.32-13.52Q69.32-15.92 67.90-17.28Q66.48-18.64 63.88-18.64L63.88-18.64Q59.12-18.64 57.48-14.40L57.48-14.40L55.96-15.52Q56.84-17.88 58.88-19.14Q60.92-20.40 63.88-20.40L63.88-20.40Q67.36-20.40 69.34-18.70Q71.32-17 71.32-13.76L71.32-13.76L71.32-3.44Q71.32-1.32 73.16-1.32L73.16-1.32ZM62.32-1.36Q64-1.36 65.60-1.94Q67.20-2.52 68.26-3.66Q69.32-4.80 69.32-6.40L69.32-6.40L69.32-10.12L63.84-9.12Q60.60-8.52 59.12-7.44Q57.64-6.36 57.64-4.68L57.64-4.68Q57.64-3.08 58.88-2.22Q60.12-1.36 62.32-1.36L62.32-1.36Z M92.84-26.40L83.48-10.28L83.48 0L81.48 0L81.48-10.28L72.12-26.40L74.48-26.40L82.48-12.36L90.48-26.40L92.84-26.40Z M109.52-20L111.52-20L111.52 0L109.72 0L109.64-3.96Q108.64-1.84 106.64-0.72Q104.64 0.40 101.92 0.40L101.92 0.40Q98.64 0.40 96.68-1.42Q94.72-3.24 94.72-6.80L94.72-6.80L94.72-20L96.72-20L96.72-7.28Q96.72-1.36 102.24-1.36L102.24-1.36Q104.44-1.36 106.10-2.32Q107.76-3.28 108.64-4.92Q109.52-6.56 109.52-8.52L109.52-8.52L109.52-20Z M128.96-2.92L129.68-1.28Q128.88-0.48 127.72-0.04Q126.56 0.40 125.16 0.40L125.16 0.40Q122.72 0.40 121.34-0.94Q119.96-2.28 119.96-5L119.96-5L119.96-18.28L115.96-18.28L115.96-20L119.96-20L119.96-25L121.96-25.56L121.96-20L129.48-20L129.48-18.28L121.96-18.28L121.96-5.28Q121.96-3.40 122.86-2.42Q123.76-1.44 125.48-1.44L125.48-1.44Q127.48-1.44 128.96-2.92L128.96-2.92Z"/></g>
</svg>
</g></svg></svg>