<svg version="1.1" preserveAspectRatio="none" xmlns="http://www.w3.org/2000/svg" width="500" height="500" viewBox="0 0 500 500"><rect width="100%" height="100%" fill="#101D24" fill-opacity="1"/><svg viewBox="-286.5018 205.4957 1306.698 328.6062" width="333" height="83.74227602705444" x="83.5px" y="208.1289px" xmlns="http://www.w3.org/2000/svg" xmlns:xlink="http://www.w3.org/1999/xlink" preserveAspectRatio="none"><defs></defs><style>.icon1 {fill:#58DD94;fill-opacity:1;}.icon3-str {stroke:#F55139;stroke-opacity:1;}.shape {fill:#2C424F;fill-opacity:1;}.text {fill:#EBE7D9;fill-opacity:1;}</style><g opacity="1" transform="rotate(-4 -28.1593 260.1778)">
<svg width="783.8995" height="172.3579" x="-28.1593" y="260.1778" version="1.1" preserveAspectRatio="none" viewBox="0.95 -28.04 128.98000000000002 28.36">
  <g transform="matrix(1 0 0 1 0 0)" class="icon1"><path id="id-rBdy8_vsl7" d="M12.64-28.04Q15.56-28.04 17.26-26.12Q18.96-24.20 18.96-21.04L18.96-21.04Q18.96-20.04 18.88-19.52L18.88-19.52Q18.44-15.80 16.22-13.56Q14-11.32 10.84-11.32L10.84-11.32L7.96-11.32Q7.80-11.32 7.72-11.12L7.72-11.12L6.44-0.48Q6.40-0.28 6.24-0.14Q6.08 0 5.88 0L5.88 0L1.36 0Q1.16 0 1.04-0.14Q0.92-0.28 0.96-0.48L0.96-0.48L4.28-27.56Q4.32-27.76 4.46-27.90Q4.60-28.04 4.80-28.04L4.80-28.04L12.64-28.04ZM10.20-15.72Q11.60-15.72 12.52-16.92Q13.44-18.12 13.44-20.20L13.44-20.20Q13.44-21.60 12.82-22.38Q12.20-23.16 11.12-23.16L11.12-23.16L9.40-23.16Q9.20-23.16 9.20-22.96L9.20-22.96L8.32-15.92Q8.32-15.72 8.48-15.72L8.48-15.72L10.20-15.72Z M21.04 0Q20.84 0 20.72-0.14Q20.60-0.28 20.64-0.48L20.64-0.48L23.96-27.52Q24-27.72 24.14-27.86Q24.28-28 24.48-28L24.48-28L29-28Q29.44-28 29.44-27.52L29.44-27.52L26.12-0.48Q26.08-0.28 25.92-0.14Q25.76 0 25.56 0L25.56 0L21.04 0Z M31.56 0Q31.36 0 31.24-0.14Q31.12-0.28 31.16-0.48L31.16-0.48L34.48-27.52Q34.52-27.72 34.66-27.86Q34.80-28 35-28L35-28L39.52-28Q39.96-28 39.96-27.52L39.96-27.52L38.72-17.44Q38.68-17.28 38.78-17.26Q38.88-17.24 38.92-17.40L38.92-17.40L45.20-27.64Q45.40-28 45.80-28L45.80-28L50.60-28Q50.88-28 50.96-27.86Q51.04-27.72 50.88-27.44L50.88-27.44L43.72-15.92Q43.68-15.88 43.66-15.82Q43.64-15.76 43.64-15.68L43.64-15.68L47.88-0.56L47.92-0.40Q47.92 0 47.48 0L47.48 0L42.60 0Q42.20 0 42.12-0.36L42.12-0.36L39.36-10.84Q39.36-10.96 39.26-10.94Q39.16-10.92 39.08-10.84L39.08-10.84L37.72-8.76Q37.68-8.72 37.64-8.66Q37.60-8.60 37.60-8.52L37.60-8.52L36.64-0.48Q36.60-0.28 36.44-0.14Q36.28 0 36.08 0L36.08 0L31.56 0Z M63.80 0Q63.36 0 63.36-0.44L63.36-0.44L63.20-4.28Q63.24-4.36 63.16-4.42Q63.08-4.48 63.00-4.48L63.00-4.48L58.16-4.48Q57.92-4.48 57.88-4.32L57.88-4.32L56.72-0.44Q56.60 0 56.16 0L56.16 0L51.64 0Q51.08 0 51.32-0.52L51.32-0.52L60.32-27.56Q60.44-28 60.88-28L60.88-28L66.12-28Q66.56-28 66.56-27.56L66.56-27.56L68.92-0.52L68.92-0.44Q68.92 0 68.48 0L68.48 0L63.80 0ZM59.32-9.04Q59.28-8.84 59.48-8.84L59.48-8.84L62.84-8.84Q63.00-8.84 63.00-9.04L63.00-9.04L62.64-19.36Q62.64-19.48 62.56-19.48Q62.48-19.48 62.44-19.36L62.44-19.36L59.32-9.04Z M76.00-0.04Q75.80-0.04 75.68-0.18Q75.56-0.32 75.60-0.52L75.60-0.52L76.88-10.92Q76.88-10.96 76.90-11.02Q76.92-11.08 76.88-11.16L76.88-11.16L73.44-27.44L73.44-27.56Q73.44-27.76 73.56-27.88Q73.68-28 73.88-28L73.88-28L78.68-28Q79.12-28 79.16-27.60L79.16-27.60L80.40-18.04Q80.40-17.92 80.50-17.92Q80.60-17.92 80.64-18.04L80.64-18.04L84.20-27.60Q84.36-28 84.80-28L84.80-28L89.56-28Q89.80-28 89.90-27.86Q90.00-27.72 89.88-27.44L89.88-27.44L82.44-11.16Q82.36-11.04 82.36-10.92L82.36-10.92L81.08-0.52Q81.04-0.32 80.90-0.18Q80.76-0.04 80.56-0.04L80.56-0.04L76.00-0.04Z M98.36 0.32Q95.24 0.32 93.42-1.54Q91.60-3.40 91.60-6.52L91.60-6.52Q91.60-7.48 91.68-7.96L91.68-7.96L94.08-27.52Q94.12-27.72 94.26-27.86Q94.40-28 94.60-28L94.60-28L99.12-28Q99.56-28 99.56-27.52L99.56-27.52L97.08-7.40Q97.04-7.20 97.04-6.84L97.04-6.84Q97.04-5.80 97.56-5.16Q98.08-4.52 98.96-4.52L98.96-4.52Q99.96-4.52 100.66-5.32Q101.36-6.12 101.52-7.40L101.52-7.40L104.00-27.52Q104.04-27.72 104.18-27.86Q104.32-28 104.52-28L104.52-28L109.08-28Q109.28-28 109.40-27.86Q109.52-27.72 109.48-27.52L109.48-27.52L107.08-7.96Q106.64-4.20 104.24-1.94Q101.84 0.32 98.36 0.32L98.36 0.32Z M129.52-28Q129.72-28 129.84-27.86Q129.96-27.72 129.92-27.52L129.92-27.52L129.44-23.64Q129.40-23.44 129.26-23.30Q129.12-23.16 128.92-23.16L128.92-23.16L124.04-23.16Q123.96-23.16 123.90-23.10Q123.84-23.04 123.84-22.96L123.84-22.96L121.08-0.48Q121.04-0.28 120.90-0.14Q120.76 0 120.56 0L120.56 0L116.00 0Q115.80 0 115.68-0.14Q115.56-0.28 115.60-0.48L115.60-0.48L118.36-22.96Q118.44-23.16 118.20-23.16L118.20-23.16L113.56-23.16Q113.12-23.16 113.12-23.64L113.12-23.64L113.60-27.52Q113.64-27.72 113.78-27.86Q113.92-28 114.12-28L114.12-28L129.52-28Z"/></g>
</svg>
</g><g opacity="1" transform="rotate(0 -286.5018 466.1158)">
<svg width="1306.698" height="67.9861" x="-286.5018" y="466.1158" version="1.1" preserveAspectRatio="none" viewBox="1.92 -30.28 735.96 38.28">
  <g transform="matrix(1 0 0 1 0 0)" class="text"><path id="id-6izo4zJp30" d="M16.72 0.32Q12.52 0.32 9.14-1.54Q5.76-3.40 3.84-6.66Q1.92-9.92 1.92-14L1.92-14Q1.92-18.08 3.84-21.34Q5.76-24.60 9.16-26.46Q12.56-28.32 16.76-28.32L16.76-28.32Q20.04-28.32 22.76-27.22Q25.48-26.12 27.40-23.96L27.40-23.96L24.80-21.44Q21.64-24.76 16.92-24.76L16.92-24.76Q13.80-24.76 11.28-23.36Q8.76-21.96 7.34-19.50Q5.92-17.04 5.92-14L5.92-14Q5.92-10.96 7.34-8.50Q8.76-6.04 11.28-4.64Q13.80-3.24 16.92-3.24L16.92-3.24Q21.60-3.24 24.80-6.60L24.80-6.60L27.40-4.08Q25.48-1.92 22.74-0.80Q20 0.32 16.72 0.32L16.72 0.32Z M41.96 0.24Q38.80 0.24 36.28-1.16Q33.76-2.56 32.34-5.02Q30.92-7.48 30.92-10.60L30.92-10.60Q30.92-13.72 32.34-16.18Q33.76-18.64 36.28-20.02Q38.80-21.40 41.96-21.40L41.96-21.40Q45.12-21.40 47.62-20.02Q50.12-18.64 51.54-16.18Q52.96-13.72 52.96-10.60L52.96-10.60Q52.96-7.48 51.54-5.02Q50.12-2.56 47.62-1.16Q45.12 0.24 41.96 0.24L41.96 0.24ZM41.96-3.12Q44-3.12 45.62-4.06Q47.24-5 48.16-6.70Q49.08-8.40 49.08-10.60L49.08-10.60Q49.08-12.80 48.16-14.50Q47.24-16.20 45.62-17.12Q44-18.04 41.96-18.04L41.96-18.04Q39.92-18.04 38.30-17.12Q36.68-16.20 35.74-14.50Q34.80-12.80 34.80-10.60L34.80-10.60Q34.80-8.40 35.74-6.70Q36.68-5 38.30-4.06Q39.92-3.12 41.96-3.12L41.96-3.12Z M86-21.40Q90-21.40 92.34-19.08Q94.68-16.76 94.68-12.20L94.68-12.20L94.68 0L90.84 0L90.84-11.76Q90.84-14.84 89.42-16.40Q88-17.96 85.36-17.96L85.36-17.96Q82.44-17.96 80.72-16.14Q79-14.32 79-10.92L79-10.92L79 0L75.16 0L75.16-11.76Q75.16-14.84 73.74-16.40Q72.32-17.96 69.68-17.96L69.68-17.96Q66.76-17.96 65.04-16.14Q63.32-14.32 63.32-10.92L63.32-10.92L63.32 0L59.48 0L59.48-21.20L63.16-21.20L63.16-18.04Q64.32-19.68 66.20-20.54Q68.08-21.40 70.48-21.40L70.48-21.40Q72.96-21.40 74.88-20.40Q76.80-19.40 77.84-17.48L77.84-17.48Q79.04-19.32 81.18-20.36Q83.32-21.40 86-21.40L86-21.40Z M129.48-21.40Q133.48-21.40 135.82-19.08Q138.16-16.76 138.16-12.20L138.16-12.20L138.16 0L134.32 0L134.32-11.76Q134.32-14.84 132.90-16.40Q131.48-17.96 128.84-17.96L128.84-17.96Q125.92-17.96 124.20-16.14Q122.48-14.32 122.48-10.92L122.48-10.92L122.48 0L118.64 0L118.64-11.76Q118.64-14.84 117.22-16.40Q115.80-17.96 113.16-17.96L113.16-17.96Q110.24-17.96 108.52-16.14Q106.80-14.32 106.80-10.92L106.80-10.92L106.80 0L102.96 0L102.96-21.20L106.64-21.20L106.64-18.04Q107.80-19.68 109.68-20.54Q111.56-21.40 113.96-21.40L113.96-21.40Q116.44-21.40 118.36-20.40Q120.28-19.40 121.32-17.48L121.32-17.48Q122.52-19.32 124.66-20.36Q126.80-21.40 129.48-21.40L129.48-21.40Z M162.36-21.20L166.20-21.20L166.20 0L162.56 0L162.56-3.20Q161.40-1.56 159.50-0.66Q157.60 0.24 155.36 0.24L155.36 0.24Q151.12 0.24 148.68-2.10Q146.24-4.44 146.24-9L146.24-9L146.24-21.20L150.08-21.20L150.08-9.44Q150.08-6.36 151.56-4.78Q153.04-3.20 155.80-3.20L155.80-3.20Q158.84-3.20 160.60-5.04Q162.36-6.88 162.36-10.24L162.36-10.24L162.36-21.20Z M186.04-21.40Q190.08-21.40 192.46-19.06Q194.84-16.72 194.84-12.20L194.84-12.20L194.84 0L191 0L191-11.76Q191-14.84 189.52-16.40Q188.04-17.96 185.28-17.96L185.28-17.96Q182.16-17.96 180.36-16.14Q178.56-14.32 178.56-10.92L178.56-10.92L178.56 0L174.72 0L174.72-21.20L178.40-21.20L178.40-18Q179.56-19.64 181.54-20.52Q183.52-21.40 186.04-21.40L186.04-21.40Z M203.16 0L203.16-21.20L207-21.20L207 0L203.16 0ZM205.08-25.28Q203.96-25.28 203.22-26Q202.48-26.72 202.48-27.76L202.48-27.76Q202.48-28.80 203.22-29.54Q203.96-30.28 205.08-30.28L205.08-30.28Q206.20-30.28 206.94-29.58Q207.68-28.88 207.68-27.84L207.68-27.84Q207.68-26.76 206.94-26.02Q206.20-25.28 205.08-25.28L205.08-25.28Z M226.24-4L227.44-1.24Q226.60-0.52 225.36-0.14Q224.12 0.24 222.80 0.24L222.80 0.24Q219.60 0.24 217.84-1.48Q216.08-3.20 216.08-6.40L216.08-6.40L216.08-18.04L212.48-18.04L212.48-21.20L216.08-21.20L216.08-25.84L219.92-25.84L219.92-21.20L226-21.20L226-18.04L219.92-18.04L219.92-6.56Q219.92-4.84 220.78-3.92Q221.64-3 223.24-3L223.24-3Q225-3 226.24-4L226.24-4Z M247.88-21.20L251.64-21.20L241.36 2.12Q240.00 5.36 238.18 6.68Q236.36 8 233.80 8L233.80 8Q232.24 8 230.78 7.50Q229.32 7 228.36 6.04L228.36 6.04L230.00 3.16Q231.64 4.72 233.80 4.72L233.80 4.72Q235.20 4.72 236.14 3.98Q237.08 3.24 237.84 1.44L237.84 1.44L238.52-0.04L229.16-21.20L233.16-21.20L240.56-4.24L247.88-21.20Z M268.96 7.76L268.96-29.68L272.52-29.68L272.52 7.76L268.96 7.76Z M301.52-5.04L301.52-14.16L305.36-14.16L305.36-3.24Q303.28-1.52 300.52-0.60Q297.76 0.32 294.76 0.32L294.76 0.32Q290.52 0.32 287.12-1.54Q283.72-3.40 281.78-6.66Q279.84-9.92 279.84-14L279.84-14Q279.84-18.08 281.78-21.36Q283.72-24.64 287.14-26.48Q290.56-28.32 294.84-28.32L294.84-28.32Q298.20-28.32 300.94-27.22Q303.68-26.12 305.60-24L305.60-24L303.12-21.52Q299.76-24.76 295.00-24.76L295.00-24.76Q291.80-24.76 289.26-23.38Q286.72-22 285.28-19.54Q283.84-17.08 283.84-14L283.84-14Q283.84-10.96 285.28-8.50Q286.72-6.04 289.26-4.64Q291.80-3.24 294.96-3.24L294.96-3.24Q298.72-3.24 301.52-5.04L301.52-5.04Z M321.36-21.40Q325.76-21.40 328.10-19.24Q330.44-17.08 330.44-12.80L330.44-12.80L330.44 0L326.80 0L326.80-2.80Q325.84-1.32 324.06-0.54Q322.28 0.24 319.84 0.24L319.84 0.24Q316.28 0.24 314.14-1.48Q312.00-3.20 312.00-6L312.00-6Q312.00-8.80 314.04-10.50Q316.08-12.20 320.52-12.20L320.52-12.20L326.60-12.20L326.60-12.96Q326.60-15.44 325.16-16.76Q323.72-18.08 320.92-18.08L320.92-18.08Q319.04-18.08 317.24-17.46Q315.44-16.84 314.20-15.80L314.20-15.80L312.60-18.68Q314.24-20 316.52-20.70Q318.80-21.40 321.36-21.40L321.36-21.40ZM320.48-2.72Q322.68-2.72 324.28-3.70Q325.88-4.68 326.60-6.48L326.60-6.48L326.60-9.44L320.68-9.44Q315.80-9.44 315.80-6.16L315.80-6.16Q315.80-4.56 317.04-3.64Q318.28-2.72 320.48-2.72L320.48-2.72Z M365.28-21.40Q369.28-21.40 371.62-19.08Q373.96-16.76 373.96-12.20L373.96-12.20L373.96 0L370.12 0L370.12-11.76Q370.12-14.84 368.70-16.40Q367.28-17.96 364.64-17.96L364.64-17.96Q361.72-17.96 360.00-16.14Q358.28-14.32 358.28-10.92L358.28-10.92L358.28 0L354.44 0L354.44-11.76Q354.44-14.84 353.02-16.40Q351.60-17.96 348.96-17.96L348.96-17.96Q346.04-17.96 344.32-16.14Q342.60-14.32 342.60-10.92L342.60-10.92L342.60 0L338.76 0L338.76-21.20L342.44-21.20L342.44-18.04Q343.60-19.68 345.48-20.54Q347.36-21.40 349.76-21.40L349.76-21.40Q352.24-21.40 354.16-20.40Q356.08-19.40 357.12-17.48L357.12-17.48Q358.32-19.32 360.46-20.36Q362.60-21.40 365.28-21.40L365.28-21.40Z M382.24 0L382.24-21.20L386.08-21.20L386.08 0L382.24 0ZM384.16-25.28Q383.04-25.28 382.30-26Q381.56-26.72 381.56-27.76L381.56-27.76Q381.56-28.80 382.30-29.54Q383.04-30.28 384.16-30.28L384.16-30.28Q385.28-30.28 386.02-29.58Q386.76-28.88 386.76-27.84L386.76-27.84Q386.76-26.76 386.02-26.02Q385.28-25.28 384.16-25.28L384.16-25.28Z M405.92-21.40Q409.96-21.40 412.34-19.06Q414.72-16.72 414.72-12.20L414.72-12.20L414.72 0L410.88 0L410.88-11.76Q410.88-14.84 409.40-16.40Q407.92-17.96 405.16-17.96L405.16-17.96Q402.04-17.96 400.24-16.14Q398.44-14.32 398.44-10.92L398.44-10.92L398.44 0L394.60 0L394.60-21.20L398.28-21.20L398.28-18Q399.44-19.64 401.42-20.52Q403.40-21.40 405.92-21.40L405.92-21.40Z M439.80-21.20L443.44-21.20L443.44-2.88Q443.44 2.68 440.68 5.34Q437.92 8 432.44 8L432.44 8Q429.44 8 426.72 7.18Q424.00 6.36 422.32 4.84L422.32 4.84L424.16 1.88Q425.64 3.16 427.82 3.90Q430.00 4.64 432.32 4.64L432.32 4.64Q436.04 4.64 437.82 2.88Q439.60 1.12 439.60-2.48L439.60-2.48L439.60-4.16Q438.24-2.52 436.26-1.70Q434.28-0.88 431.96-0.88L431.96-0.88Q428.92-0.88 426.46-2.18Q424.00-3.48 422.60-5.82Q421.20-8.16 421.20-11.16L421.20-11.16Q421.20-14.16 422.60-16.50Q424.00-18.84 426.46-20.12Q428.92-21.40 431.96-21.40L431.96-21.40Q434.36-21.40 436.42-20.52Q438.48-19.64 439.80-17.92L439.80-17.92L439.80-21.20ZM432.40-4.24Q434.48-4.24 436.14-5.12Q437.80-6 438.74-7.58Q439.68-9.16 439.68-11.16L439.68-11.16Q439.68-14.24 437.64-16.14Q435.60-18.04 432.40-18.04L432.40-18.04Q429.16-18.04 427.12-16.14Q425.08-14.24 425.08-11.16L425.08-11.16Q425.08-9.16 426.02-7.58Q426.96-6 428.62-5.12Q430.28-4.24 432.40-4.24L432.40-4.24Z M471.64-21.40Q476.04-21.40 478.38-19.24Q480.72-17.08 480.72-12.80L480.72-12.80L480.72 0L477.08 0L477.08-2.80Q476.12-1.32 474.34-0.54Q472.56 0.24 470.12 0.24L470.12 0.24Q466.56 0.24 464.42-1.48Q462.28-3.20 462.28-6L462.28-6Q462.28-8.80 464.32-10.50Q466.36-12.20 470.80-12.20L470.80-12.20L476.88-12.20L476.88-12.96Q476.88-15.44 475.44-16.76Q474.00-18.08 471.20-18.08L471.20-18.08Q469.32-18.08 467.52-17.46Q465.72-16.84 464.48-15.80L464.48-15.80L462.88-18.68Q464.52-20 466.80-20.70Q469.08-21.40 471.64-21.40L471.64-21.40ZM470.76-2.72Q472.96-2.72 474.56-3.70Q476.16-4.68 476.88-6.48L476.88-6.48L476.88-9.44L470.96-9.44Q466.08-9.44 466.08-6.16L466.08-6.16Q466.08-4.56 467.32-3.64Q468.56-2.72 470.76-2.72L470.76-2.72Z M500.36-21.40Q504.40-21.40 506.78-19.06Q509.16-16.72 509.16-12.20L509.16-12.20L509.16 0L505.32 0L505.32-11.76Q505.32-14.84 503.84-16.40Q502.36-17.96 499.60-17.96L499.60-17.96Q496.48-17.96 494.68-16.14Q492.88-14.32 492.88-10.92L492.88-10.92L492.88 0L489.04 0L489.04-21.20L492.72-21.20L492.72-18Q493.88-19.64 495.86-20.52Q497.84-21.40 500.36-21.40L500.36-21.40Z M533.76-29.68L537.60-29.68L537.60 0L533.92 0L533.92-3.36Q532.64-1.60 530.68-0.68Q528.72 0.24 526.36 0.24L526.36 0.24Q523.28 0.24 520.84-1.12Q518.40-2.48 517.02-4.94Q515.64-7.40 515.64-10.60L515.64-10.60Q515.64-13.80 517.02-16.24Q518.40-18.68 520.84-20.04Q523.28-21.40 526.36-21.40L526.36-21.40Q528.64-21.40 530.56-20.54Q532.48-19.68 533.76-18L533.76-18L533.76-29.68ZM526.68-3.12Q528.68-3.12 530.32-4.06Q531.96-5 532.88-6.70Q533.80-8.40 533.80-10.60L533.80-10.60Q533.80-12.80 532.88-14.50Q531.96-16.20 530.32-17.12Q528.68-18.04 526.68-18.04L526.68-18.04Q524.64-18.04 523.02-17.12Q521.40-16.20 520.46-14.50Q519.52-12.80 519.52-10.60L519.52-10.60Q519.52-8.40 520.46-6.70Q521.40-5 523.02-4.06Q524.64-3.12 526.68-3.12L526.68-3.12Z M567.28 0.24Q564.04 0.24 561.50-1.16Q558.96-2.56 557.52-5.02Q556.08-7.48 556.08-10.60L556.08-10.60Q556.08-13.72 557.52-16.18Q558.96-18.64 561.50-20.02Q564.04-21.40 567.28-21.40L567.28-21.40Q570.16-21.40 572.42-20.24Q574.68-19.08 575.92-16.88L575.92-16.88L573-15Q572-16.52 570.52-17.28Q569.04-18.04 567.24-18.04L567.24-18.04Q565.16-18.04 563.50-17.12Q561.84-16.20 560.90-14.50Q559.96-12.80 559.96-10.60L559.96-10.60Q559.96-8.36 560.90-6.66Q561.84-4.96 563.50-4.04Q565.16-3.12 567.24-3.12L567.24-3.12Q569.04-3.12 570.52-3.88Q572-4.64 573-6.16L573-6.16L575.92-4.32Q574.68-2.12 572.42-0.94Q570.16 0.24 567.28 0.24L567.28 0.24Z M590.84 0.24Q587.68 0.24 585.16-1.16Q582.64-2.56 581.22-5.02Q579.80-7.48 579.80-10.60L579.80-10.60Q579.80-13.72 581.22-16.18Q582.64-18.64 585.16-20.02Q587.68-21.40 590.84-21.40L590.84-21.40Q594-21.40 596.50-20.02Q599-18.64 600.42-16.18Q601.84-13.72 601.84-10.60L601.84-10.60Q601.84-7.48 600.42-5.02Q599-2.56 596.50-1.16Q594 0.24 590.84 0.24L590.84 0.24ZM590.84-3.12Q592.88-3.12 594.50-4.06Q596.12-5 597.04-6.70Q597.96-8.40 597.96-10.60L597.96-10.60Q597.96-12.80 597.04-14.50Q596.12-16.20 594.50-17.12Q592.88-18.04 590.84-18.04L590.84-18.04Q588.80-18.04 587.18-17.12Q585.56-16.20 584.62-14.50Q583.68-12.80 583.68-10.60L583.68-10.60Q583.68-8.40 584.62-6.70Q585.56-5 587.18-4.06Q588.80-3.12 590.84-3.12L590.84-3.12Z M624.52-29.68L628.36-29.68L628.36 0L624.68 0L624.68-3.36Q623.40-1.60 621.44-0.68Q619.48 0.24 617.12 0.24L617.12 0.24Q614.04 0.24 611.60-1.12Q609.16-2.48 607.78-4.94Q606.40-7.40 606.40-10.60L606.40-10.60Q606.40-13.80 607.78-16.24Q609.16-18.68 611.60-20.04Q614.04-21.40 617.12-21.40L617.12-21.40Q619.40-21.40 621.32-20.54Q623.24-19.68 624.52-18L624.52-18L624.52-29.68ZM617.44-3.12Q619.44-3.12 621.08-4.06Q622.72-5 623.64-6.70Q624.56-8.40 624.56-10.60L624.56-10.60Q624.56-12.80 623.64-14.50Q622.72-16.20 621.08-17.12Q619.44-18.04 617.44-18.04L617.44-18.04Q615.40-18.04 613.78-17.12Q612.16-16.20 611.22-14.50Q610.28-12.80 610.28-10.60L610.28-10.60Q610.28-8.40 611.22-6.70Q612.16-5 613.78-4.06Q615.40-3.12 617.44-3.12L617.44-3.12Z M656-10.48Q656-10.04 655.92-9.32L655.92-9.32L638.72-9.32Q639.08-6.52 641.18-4.82Q643.28-3.12 646.40-3.12L646.40-3.12Q650.20-3.12 652.52-5.68L652.52-5.68L654.64-3.20Q653.20-1.52 651.06-0.64Q648.92 0.24 646.28 0.24L646.28 0.24Q642.92 0.24 640.32-1.14Q637.72-2.52 636.30-5Q634.88-7.48 634.88-10.60L634.88-10.60Q634.88-13.68 636.26-16.16Q637.64-18.64 640.06-20.02Q642.48-21.40 645.52-21.40L645.52-21.40Q648.56-21.40 650.94-20.02Q653.32-18.64 654.66-16.16Q656-13.68 656-10.48L656-10.48ZM645.52-18.16Q642.76-18.16 640.90-16.48Q639.04-14.80 638.72-12.08L638.72-12.08L652.32-12.08Q652-14.76 650.14-16.46Q648.28-18.16 645.52-18.16L645.52-18.16Z M663.08 7.76L663.08-29.68L666.64-29.68L666.64 7.76L663.08 7.76Z M707.96-24.52L692.20-24.52L692.20-14.76L706.24-14.76L706.24-11.32L692.20-11.32L692.20 0L688.20 0L688.20-28L707.96-28L707.96-24.52Z M737.88 0L733.52 0L727.48-8.60Q726.36-8.52 725.72-8.52L725.72-8.52L718.80-8.52L718.80 0L714.80 0L714.80-28L725.72-28Q731.16-28 734.28-25.40Q737.40-22.80 737.40-18.24L737.40-18.24Q737.40-15 735.80-12.72Q734.20-10.44 731.24-9.40L731.24-9.40L737.88 0ZM725.60-11.92Q729.40-11.92 731.40-13.56Q733.40-15.20 733.40-18.24L733.40-18.24Q733.40-21.28 731.40-22.90Q729.40-24.52 725.60-24.52L725.60-24.52L718.80-24.52L718.80-11.92L725.60-11.92Z"/></g>
</svg>
</g><g opacity="1" transform="rotate(-4 -32.1593 259.4013)">
<svg width="772.769" height="173.1363" x="-32.1593" y="259.4013" version="1.1" preserveAspectRatio="none" viewBox="0.95 -28.04 126.58 28.36">
  <g transform="matrix(1 0 0 1 0 0)" class="shape"><path id="id-D6z1nYkh7" d="M12.64-28.04Q15.56-28.04 17.26-26.12Q18.96-24.20 18.96-21.04L18.96-21.04Q18.96-20.04 18.88-19.52L18.88-19.52Q18.44-15.80 16.22-13.56Q14-11.32 10.84-11.32L10.84-11.32L7.96-11.32Q7.80-11.32 7.72-11.12L7.72-11.12L6.44-0.48Q6.40-0.28 6.24-0.14Q6.08 0 5.88 0L5.88 0L1.36 0Q1.16 0 1.04-0.14Q0.92-0.28 0.96-0.48L0.96-0.48L4.28-27.56Q4.32-27.76 4.46-27.90Q4.60-28.04 4.80-28.04L4.80-28.04L12.64-28.04ZM10.20-15.72Q11.60-15.72 12.52-16.92Q13.44-18.12 13.44-20.20L13.44-20.20Q13.44-21.60 12.82-22.38Q12.20-23.16 11.12-23.16L11.12-23.16L9.40-23.16Q9.20-23.16 9.20-22.96L9.20-22.96L8.32-15.92Q8.32-15.72 8.48-15.72L8.48-15.72L10.20-15.72Z M20.64 0Q20.44 0 20.32-0.14Q20.20-0.28 20.24-0.48L20.24-0.48L23.56-27.52Q23.60-27.72 23.74-27.86Q23.88-28 24.08-28L24.08-28L28.60-28Q29.04-28 29.04-27.52L29.04-27.52L25.72-0.48Q25.68-0.28 25.52-0.14Q25.36 0 25.16 0L25.16 0L20.64 0Z M30.76 0Q30.56 0 30.44-0.14Q30.32-0.28 30.36-0.48L30.36-0.48L33.68-27.52Q33.72-27.72 33.86-27.86Q34.00-28 34.20-28L34.20-28L38.72-28Q39.16-28 39.16-27.52L39.16-27.52L37.92-17.44Q37.88-17.28 37.98-17.26Q38.08-17.24 38.12-17.40L38.12-17.40L44.40-27.64Q44.60-28 45-28L45-28L49.80-28Q50.08-28 50.16-27.86Q50.24-27.72 50.08-27.44L50.08-27.44L42.92-15.92Q42.88-15.88 42.86-15.82Q42.84-15.76 42.84-15.68L42.84-15.68L47.08-0.56L47.12-0.40Q47.12 0 46.68 0L46.68 0L41.80 0Q41.40 0 41.32-0.36L41.32-0.36L38.56-10.84Q38.56-10.96 38.46-10.94Q38.36-10.92 38.28-10.84L38.28-10.84L36.92-8.76Q36.88-8.72 36.84-8.66Q36.80-8.60 36.80-8.52L36.80-8.52L35.84-0.48Q35.80-0.28 35.64-0.14Q35.48 0 35.28 0L35.28 0L30.76 0Z M62.60 0Q62.16 0 62.16-0.44L62.16-0.44L62.00-4.28Q62.04-4.36 61.96-4.42Q61.88-4.48 61.80-4.48L61.80-4.48L56.96-4.48Q56.72-4.48 56.68-4.32L56.68-4.32L55.52-0.44Q55.40 0 54.96 0L54.96 0L50.44 0Q49.88 0 50.12-0.52L50.12-0.52L59.12-27.56Q59.24-28 59.68-28L59.68-28L64.92-28Q65.36-28 65.36-27.56L65.36-27.56L67.72-0.52L67.72-0.44Q67.72 0 67.28 0L67.28 0L62.60 0ZM58.12-9.04Q58.08-8.84 58.28-8.84L58.28-8.84L61.64-8.84Q61.80-8.84 61.80-9.04L61.80-9.04L61.44-19.36Q61.44-19.48 61.36-19.48Q61.28-19.48 61.24-19.36L61.24-19.36L58.12-9.04Z M74.40-0.04Q74.20-0.04 74.08-0.18Q73.96-0.32 74-0.52L74-0.52L75.28-10.92Q75.28-10.96 75.30-11.02Q75.32-11.08 75.28-11.16L75.28-11.16L71.84-27.44L71.84-27.56Q71.84-27.76 71.96-27.88Q72.08-28 72.28-28L72.28-28L77.08-28Q77.52-28 77.56-27.60L77.56-27.60L78.80-18.04Q78.80-17.92 78.90-17.92Q79-17.92 79.04-18.04L79.04-18.04L82.60-27.60Q82.76-28 83.20-28L83.20-28L87.96-28Q88.20-28 88.30-27.86Q88.40-27.72 88.28-27.44L88.28-27.44L80.84-11.16Q80.76-11.04 80.76-10.92L80.76-10.92L79.48-0.52Q79.44-0.32 79.30-0.18Q79.16-0.04 78.96-0.04L78.96-0.04L74.40-0.04Z M96.36 0.32Q93.24 0.32 91.42-1.54Q89.60-3.40 89.60-6.52L89.60-6.52Q89.60-7.48 89.68-7.96L89.68-7.96L92.08-27.52Q92.12-27.72 92.26-27.86Q92.40-28 92.60-28L92.60-28L97.12-28Q97.56-28 97.56-27.52L97.56-27.52L95.08-7.40Q95.04-7.20 95.04-6.84L95.04-6.84Q95.04-5.80 95.56-5.16Q96.08-4.52 96.96-4.52L96.96-4.52Q97.96-4.52 98.66-5.32Q99.36-6.12 99.52-7.40L99.52-7.40L102.00-27.52Q102.04-27.72 102.18-27.86Q102.32-28 102.52-28L102.52-28L107.08-28Q107.28-28 107.40-27.86Q107.52-27.72 107.48-27.52L107.48-27.52L105.08-7.96Q104.64-4.20 102.24-1.94Q99.84 0.32 96.36 0.32L96.36 0.32Z M127.12-28Q127.32-28 127.44-27.86Q127.56-27.72 127.52-27.52L127.52-27.52L127.04-23.64Q127.00-23.44 126.86-23.30Q126.72-23.16 126.52-23.16L126.52-23.16L121.64-23.16Q121.56-23.16 121.50-23.10Q121.44-23.04 121.44-22.96L121.44-22.96L118.68-0.48Q118.64-0.28 118.50-0.14Q118.36 0 118.16 0L118.16 0L113.60 0Q113.40 0 113.28-0.14Q113.16-0.28 113.20-0.48L113.20-0.48L115.96-22.96Q116.04-23.16 115.80-23.16L115.80-23.16L111.16-23.16Q110.72-23.16 110.72-23.64L110.72-23.64L111.20-27.52Q111.24-27.72 111.38-27.86Q111.52-28 111.72-28L111.72-28L127.12-28Z"/></g>
</svg>
</g></svg></svg>