<svg version="1.1" preserveAspectRatio="none" xmlns="http://www.w3.org/2000/svg" width="500" height="500" viewBox="0 0 500 500"><rect width="100%" height="100%" fill="#FFFFFF" fill-opacity="1"/><svg viewBox="103.7941 158.6365 358.4108 183.4637" width="333" height="170.45639277611053" x="83.5px" y="164.7718px" xmlns="http://www.w3.org/2000/svg" xmlns:xlink="http://www.w3.org/1999/xlink" preserveAspectRatio="none"><defs></defs><style>.companyName {fill:#1e1e1e;fill-opacity:1;}.icon1 {fill:#1e1e1e;fill-opacity:1;}.icon3-str {stroke:#848383;stroke-opacity:1;}</style><g opacity="1" transform="rotate(0 103.7941 319.5535)">
<svg width="358.4108" height="22.5467" x="103.7941" y="319.5535" version="1.1" preserveAspectRatio="none" viewBox="2.36 -31 642.12 40.4">
  <g transform="matrix(1 0 0 1 0 0)" class="icon1"><path id="id-6izo4zJp30" d="M25.40-2.16Q24-1.24 21.86-0.46Q19.72 0.32 17.20 0.32L17.20 0.32Q12.76 0.32 9.38-1.64Q6-3.60 4.18-6.92Q2.36-10.24 2.36-14.24L2.36-14.24Q2.36-18.52 4.20-21.94Q6.04-25.36 9.30-27.30Q12.56-29.24 16.68-29.24L16.68-29.24Q19.12-29.24 21.24-28.60Q23.36-27.96 25.04-26.92L25.04-26.92L23.48-23.28Q20.16-25.52 16.80-25.52L16.80-25.52Q14-25.52 11.62-24.04Q9.24-22.56 7.82-20.02Q6.40-17.48 6.40-14.44L6.40-14.44Q6.40-11.32 7.70-8.80Q9-6.28 11.42-4.86Q13.84-3.44 17-3.44L17-3.44Q20.88-3.44 23.76-5.64L23.76-5.64L25.40-2.16Z M30.36-8.44Q30.36-10.88 31.54-12.90Q32.72-14.92 34.82-16.08Q36.92-17.24 39.56-17.24L39.56-17.24Q42.20-17.24 44.26-16.08Q46.32-14.92 47.46-12.92Q48.60-10.92 48.60-8.44L48.60-8.44Q48.60-5.96 47.46-3.94Q46.32-1.92 44.24-0.76Q42.16 0.40 39.48 0.40L39.48 0.40Q36.88 0.40 34.80-0.70Q32.72-1.80 31.54-3.80Q30.36-5.80 30.36-8.44L30.36-8.44ZM34.12-8.40Q34.12-6.84 34.82-5.52Q35.52-4.20 36.74-3.44Q37.96-2.68 39.44-2.68L39.44-2.68Q41.76-2.68 43.28-4.32Q44.80-5.96 44.80-8.40L44.80-8.40Q44.80-10.84 43.28-12.50Q41.76-14.16 39.44-14.16L39.44-14.16Q37.92-14.16 36.72-13.38Q35.52-12.60 34.82-11.28Q34.12-9.96 34.12-8.40L34.12-8.40Z M75.64-17.24Q78.04-17.24 79.46-15.88Q80.88-14.52 80.96-12.28L80.96-12.28L80.96 0L77.24 0L77.24-10.92Q77.12-13.84 74.60-14L74.60-14Q73.16-14 72.02-13.14Q70.88-12.28 70.24-10.88Q69.60-9.48 69.56-7.88L69.56-7.88L69.56 0L65.80 0L65.80-10.92Q65.68-13.84 63.08-14L63.08-14Q61.68-14 60.54-13.14Q59.40-12.28 58.76-10.86Q58.12-9.44 58.12-7.84L58.12-7.84L58.12 0L54.40 0L54.40-16.56L57.76-16.56L58.04-13.44Q59-15.24 60.66-16.24Q62.32-17.24 64.44-17.24L64.44-17.24Q66.44-17.24 67.80-16.30Q69.16-15.36 69.56-13.72L69.56-13.72Q70.60-15.36 72.20-16.30Q73.80-17.24 75.64-17.24L75.64-17.24Z M109.44-17.24Q111.84-17.24 113.26-15.88Q114.68-14.52 114.76-12.28L114.76-12.28L114.76 0L111.04 0L111.04-10.92Q110.92-13.84 108.40-14L108.40-14Q106.96-14 105.82-13.14Q104.68-12.28 104.04-10.88Q103.40-9.48 103.36-7.88L103.36-7.88L103.36 0L99.60 0L99.60-10.92Q99.48-13.84 96.88-14L96.88-14Q95.48-14 94.34-13.14Q93.20-12.28 92.56-10.86Q91.92-9.44 91.92-7.84L91.92-7.84L91.92 0L88.20 0L88.20-16.56L91.56-16.56L91.84-13.44Q92.80-15.24 94.46-16.24Q96.12-17.24 98.24-17.24L98.24-17.24Q100.24-17.24 101.60-16.30Q102.96-15.36 103.36-13.72L103.36-13.72Q104.40-15.36 106-16.30Q107.60-17.24 109.44-17.24L109.44-17.24Z M133.68-16.56L137.40-16.56L137.40 0L134.04 0L133.80-3.16Q132.96-1.48 131.20-0.42Q129.44 0.64 127.28 0.64L127.28 0.64Q125.00 0.64 123.54-0.74Q122.08-2.12 122.00-4.32L122.00-4.32L122.00-16.56L125.72-16.56L125.72-5.64Q125.80-4.24 126.54-3.42Q127.28-2.60 128.76-2.56L128.76-2.56Q130.12-2.56 131.24-3.38Q132.36-4.20 133.02-5.64Q133.68-7.08 133.68-8.84L133.68-8.84L133.68-16.56Z M154.96-17.20Q157.28-17.20 158.80-15.82Q160.32-14.44 160.36-12.24L160.36-12.24L160.36 0L156.60 0L156.60-10.96Q156.52-12.36 155.76-13.16Q155-13.96 153.48-14L153.48-14Q151.28-14 149.84-12.24Q148.40-10.48 148.40-7.76L148.40-7.76L148.40 0L144.68 0L144.68-16.56L148.04-16.56L148.28-13.36Q149.16-15.16 150.92-16.18Q152.68-17.20 154.96-17.20L154.96-17.20Z M167.60-16.56L171.32-16.56L171.32 0L167.60 0L167.60-16.56ZM167.32-22.52Q167.32-23.40 168-24Q168.68-24.60 169.56-24.60L169.56-24.60Q170.44-24.60 171.10-24Q171.76-23.40 171.76-22.52L171.76-22.52Q171.76-21.64 171.10-21.04Q170.44-20.44 169.56-20.44L169.56-20.44Q168.68-20.44 168-21.04Q167.32-21.64 167.32-22.52L167.32-22.52Z M180.20-23.84L183.96-23.84L183.96-16.52L188.48-16.52L188.48-13.56L183.96-13.56L183.96 0L180.20 0L180.20-13.56L177.16-13.56L177.16-16.52L180.20-16.52L180.20-23.84Z M206.12-16.56L209.56-16.56L198.88 7.96L195.20 7.96L199.00-0.56L191.32-16.56L195.52-16.56L200.88-4.76L206.12-16.56Z M228.24-28.36L231.64-28.36L231.64 9.40L228.24 9.40L228.24-28.36Z M263.16-2.48Q261.84-1.44 259.02-0.56Q256.20 0.32 253.80 0.32L253.80 0.32Q249.28 0.32 245.84-1.54Q242.40-3.40 240.54-6.64Q238.68-9.88 238.68-13.92L238.68-13.92Q238.68-18.64 240.68-22.10Q242.68-25.56 246.08-27.40Q249.48-29.24 253.52-29.24L253.52-29.24Q255.96-29.24 258.12-28.66Q260.28-28.08 262.00-27.12L262.00-27.12L260.72-23.56Q259.44-24.28 257.50-24.82Q255.56-25.36 254.00-25.36L254.00-25.36Q250.64-25.36 248.06-24Q245.48-22.64 244.08-20.12Q242.68-17.60 242.68-14.24L242.68-14.24Q242.68-11.12 244.08-8.68Q245.48-6.24 248.04-4.90Q250.60-3.56 253.88-3.56L253.88-3.56Q255.40-3.56 256.84-3.86Q258.28-4.16 259.24-4.72L259.24-4.72L259.24-10.44L253.48-10.44L253.48-14.16L263.16-14.16L263.16-2.48Z M284.00-16.56L287.44-16.56L287.44 0L283.72 0L283.72-2.72Q282.84-1.56 281.16-0.58Q279.48 0.40 277.36 0.40L277.36 0.40Q275.00 0.40 273.10-0.62Q271.20-1.64 270.10-3.60Q269.00-5.56 269.00-8.28L269.00-8.28Q269.00-11 270.14-13.02Q271.28-15.04 273.22-16.14Q275.16-17.24 277.52-17.24L277.52-17.24Q279.64-17.24 281.20-16.32Q282.76-15.40 283.72-13.92L283.72-13.92L284.00-16.56ZM278.36-2.68Q280.40-2.68 281.86-3.82Q283.32-4.96 283.72-6.92L283.72-6.92L283.72-10.20Q283.24-11.96 281.72-13.06Q280.20-14.16 278.24-14.16L278.24-14.16Q276.76-14.16 275.50-13.44Q274.24-12.72 273.50-11.42Q272.76-10.12 272.76-8.48L272.76-8.48Q272.76-6.88 273.52-5.56Q274.28-4.24 275.56-3.46Q276.84-2.68 278.36-2.68L278.36-2.68Z M315.96-17.24Q318.36-17.24 319.78-15.88Q321.20-14.52 321.28-12.28L321.28-12.28L321.28 0L317.56 0L317.56-10.92Q317.44-13.84 314.92-14L314.92-14Q313.48-14 312.34-13.14Q311.20-12.28 310.56-10.88Q309.92-9.48 309.88-7.88L309.88-7.88L309.88 0L306.12 0L306.12-10.92Q306.00-13.84 303.40-14L303.40-14Q302.00-14 300.86-13.14Q299.72-12.28 299.08-10.86Q298.44-9.44 298.44-7.84L298.44-7.84L298.44 0L294.72 0L294.72-16.56L298.08-16.56L298.36-13.44Q299.32-15.24 300.98-16.24Q302.64-17.24 304.76-17.24L304.76-17.24Q306.76-17.24 308.12-16.30Q309.48-15.36 309.88-13.72L309.88-13.72Q310.92-15.36 312.52-16.30Q314.12-17.24 315.96-17.24L315.96-17.24Z M328.52-16.56L332.24-16.56L332.24 0L328.52 0L328.52-16.56ZM328.24-22.52Q328.24-23.40 328.92-24Q329.60-24.60 330.48-24.60L330.48-24.60Q331.36-24.60 332.02-24Q332.68-23.40 332.68-22.52L332.68-22.52Q332.68-21.64 332.02-21.04Q331.36-20.44 330.48-20.44L330.48-20.44Q329.60-20.44 328.92-21.04Q328.24-21.64 328.24-22.52L328.24-22.52Z M349.80-17.20Q352.12-17.20 353.64-15.82Q355.16-14.44 355.20-12.24L355.20-12.24L355.20 0L351.44 0L351.44-10.96Q351.36-12.36 350.60-13.16Q349.84-13.96 348.32-14L348.32-14Q346.12-14 344.68-12.24Q343.24-10.48 343.24-7.76L343.24-7.76L343.24 0L339.52 0L339.52-16.56L342.88-16.56L343.12-13.36Q344.00-15.16 345.76-16.18Q347.52-17.20 349.80-17.20L349.80-17.20Z M376.52-16.56L379.92-16.56L379.92 0.12Q379.92 2.40 378.76 4.24Q377.60 6.08 375.46 7.16Q373.32 8.24 370.44 8.24L370.44 8.24Q367.92 8.24 366.10 7.40Q364.28 6.56 362.44 4.92L362.44 4.92L364.64 2.36Q366.00 3.64 367.36 4.30Q368.72 4.96 370.36 4.96L370.36 4.96Q373.12 4.96 374.62 3.64Q376.12 2.32 376.16 0.08L376.16 0.08L376.20-3.04Q375.28-1.48 373.50-0.54Q371.72 0.40 369.40 0.40L369.40 0.40Q367.12 0.40 365.20-0.76Q363.28-1.92 362.14-3.92Q361.00-5.92 361.00-8.36L361.00-8.36Q361.00-10.88 362.18-12.90Q363.36-14.92 365.36-16.08Q367.36-17.24 369.64-17.24L369.64-17.24Q371.76-17.24 373.56-16.40Q375.36-15.56 376.24-14.24L376.24-14.24L376.52-16.56ZM370.48-2.68Q372.60-2.68 374.16-3.84Q375.72-5 376.20-6.88L376.20-6.88L376.20-10.16Q375.64-11.96 374.08-13.06Q372.52-14.16 370.48-14.16L370.48-14.16Q368.04-14.16 366.40-12.56Q364.76-10.96 364.76-8.48L364.76-8.48Q364.76-6.88 365.52-5.56Q366.28-4.24 367.60-3.46Q368.92-2.68 370.48-2.68L370.48-2.68Z M414.20-16.56L417.64-16.56L417.64 0L413.92 0L413.92-2.72Q413.04-1.56 411.36-0.58Q409.68 0.40 407.56 0.40L407.56 0.40Q405.20 0.40 403.30-0.62Q401.40-1.64 400.30-3.60Q399.20-5.56 399.20-8.28L399.20-8.28Q399.20-11 400.34-13.02Q401.48-15.04 403.42-16.14Q405.36-17.24 407.72-17.24L407.72-17.24Q409.84-17.24 411.40-16.32Q412.96-15.40 413.92-13.92L413.92-13.92L414.20-16.56ZM408.56-2.68Q410.60-2.68 412.06-3.82Q413.52-4.96 413.92-6.92L413.92-6.92L413.92-10.20Q413.44-11.96 411.92-13.06Q410.40-14.16 408.44-14.16L408.44-14.16Q406.96-14.16 405.70-13.44Q404.44-12.72 403.70-11.42Q402.96-10.12 402.96-8.48L402.96-8.48Q402.96-6.88 403.72-5.56Q404.48-4.24 405.76-3.46Q407.04-2.68 408.56-2.68L408.56-2.68Z M435.20-17.20Q437.52-17.20 439.04-15.82Q440.56-14.44 440.60-12.24L440.60-12.24L440.60 0L436.84 0L436.84-10.96Q436.76-12.36 436.00-13.16Q435.24-13.96 433.72-14L433.72-14Q431.52-14 430.08-12.24Q428.64-10.48 428.64-7.76L428.64-7.76L428.64 0L424.92 0L424.92-16.56L428.28-16.56L428.52-13.36Q429.40-15.16 431.16-16.18Q432.92-17.20 435.20-17.20L435.20-17.20Z M461.40-31L465.12-31L465.12 0L461.36 0L461.36-2.60Q460.16-1.20 458.42-0.40Q456.68 0.40 454.60 0.40L454.60 0.40Q452.28 0.40 450.40-0.72Q448.52-1.84 447.46-3.86Q446.40-5.88 446.40-8.52L446.40-8.52Q446.40-11.20 447.52-13.18Q448.64-15.16 450.60-16.20Q452.56-17.24 455.04-17.24L455.04-17.24Q456.92-17.24 458.66-16.46Q460.40-15.68 461.40-14.32L461.40-14.32L461.40-31ZM455.76-2.80Q457.92-2.80 459.42-3.96Q460.92-5.12 461.36-7.08L461.36-7.08L461.36-10.20Q460.88-12 459.32-13.14Q457.76-14.28 455.76-14.28L455.76-14.28Q454.24-14.28 452.96-13.54Q451.68-12.80 450.92-11.50Q450.16-10.20 450.16-8.56L450.16-8.56Q450.16-6.96 450.92-5.64Q451.68-4.32 452.96-3.56Q454.24-2.80 455.76-2.80L455.76-2.80Z M499.24-1.56Q498.12-0.64 496.58-0.12Q495.04 0.40 493.44 0.40L493.44 0.40Q490.76 0.40 488.70-0.68Q486.64-1.76 485.50-3.74Q484.36-5.72 484.36-8.32L484.36-8.32Q484.36-10.88 485.56-12.86Q486.76-14.84 488.76-15.92Q490.76-17 493.08-17L493.08-17Q496.88-17 499.36-14.92L499.36-14.92L497.48-12.48Q496.68-13.08 495.64-13.50Q494.60-13.92 493.40-13.92L493.40-13.92Q491.92-13.92 490.70-13.18Q489.48-12.44 488.78-11.16Q488.08-9.88 488.08-8.32L488.08-8.32Q488.08-6.76 488.82-5.48Q489.56-4.20 490.84-3.44Q492.12-2.68 493.76-2.68L493.76-2.68Q495.80-2.68 497.32-3.88L497.32-3.88L499.24-1.56Z M503.40-8.44Q503.40-10.88 504.58-12.90Q505.76-14.92 507.86-16.08Q509.96-17.24 512.60-17.24L512.60-17.24Q515.24-17.24 517.30-16.08Q519.36-14.92 520.50-12.92Q521.64-10.92 521.64-8.44L521.64-8.44Q521.64-5.96 520.50-3.94Q519.36-1.92 517.28-0.76Q515.20 0.40 512.52 0.40L512.52 0.40Q509.92 0.40 507.84-0.70Q505.76-1.80 504.58-3.80Q503.40-5.80 503.40-8.44L503.40-8.44ZM507.16-8.40Q507.16-6.84 507.86-5.52Q508.56-4.20 509.78-3.44Q511.00-2.68 512.48-2.68L512.48-2.68Q514.80-2.68 516.32-4.32Q517.84-5.96 517.84-8.40L517.84-8.40Q517.84-10.84 516.32-12.50Q514.80-14.16 512.48-14.16L512.48-14.16Q510.96-14.16 509.76-13.38Q508.56-12.60 507.86-11.28Q507.16-9.96 507.16-8.40L507.16-8.40Z M541.00-31L544.72-31L544.72 0L540.96 0L540.96-2.60Q539.76-1.20 538.02-0.40Q536.28 0.40 534.20 0.40L534.20 0.40Q531.88 0.40 530.00-0.72Q528.12-1.84 527.06-3.86Q526.00-5.88 526.00-8.52L526.00-8.52Q526.00-11.20 527.12-13.18Q528.24-15.16 530.20-16.20Q532.16-17.24 534.64-17.24L534.64-17.24Q536.52-17.24 538.26-16.46Q540.00-15.68 541.00-14.32L541.00-14.32L541.00-31ZM535.36-2.80Q537.52-2.80 539.02-3.96Q540.52-5.12 540.96-7.08L540.96-7.08L540.96-10.20Q540.48-12 538.92-13.14Q537.36-14.28 535.36-14.28L535.36-14.28Q533.84-14.28 532.56-13.54Q531.28-12.80 530.52-11.50Q529.76-10.20 529.76-8.56L529.76-8.56Q529.76-6.96 530.52-5.64Q531.28-4.32 532.56-3.56Q533.84-2.80 535.36-2.80L535.36-2.80Z M559.72-2.80Q561.80-2.80 563.76-4.24L563.76-4.24L565.48-1.48Q564.16-0.60 562.62-0.10Q561.08 0.40 559.64 0.40L559.64 0.40Q556.88 0.40 554.82-0.74Q552.76-1.88 551.64-3.88Q550.52-5.88 550.52-8.40L550.52-8.40Q550.52-10.84 551.74-12.86Q552.96-14.88 555.08-16.06Q557.20-17.24 559.72-17.24L559.72-17.24Q562.96-17.24 565.14-15.34Q567.32-13.44 568.12-10.04L568.12-10.04L555.00-5.44Q555.72-4.20 556.94-3.50Q558.16-2.80 559.72-2.80L559.72-2.80ZM559.44-14.28Q557.16-14.28 555.68-12.68Q554.20-11.08 554.20-8.60L554.20-8.60Q554.20-8 554.24-7.68L554.24-7.68L563.88-11.24Q563.28-12.60 562.18-13.44Q561.08-14.28 559.44-14.28L559.44-14.28Z M574-28.36L577.40-28.36L577.40 9.40L574 9.40L574-28.36Z M599.68-28.92L616.84-28.92L616.84-25.20L603.56-25.20L603.56-16L615.20-16L615.20-12.28L603.56-12.28L603.56 0L599.68 0L599.68-28.92Z M644.48 0L639.96 0L633.16-10.68Q632.84-10.64 632.20-10.64L632.20-10.64L627.92-10.64L627.92 0L624.04 0L624.04-28.92L631.76-28.92Q634.72-28.92 637.04-27.88Q639.36-26.84 640.68-24.82Q642.00-22.80 642.00-19.96L642.00-19.96Q642.00-17.28 640.82-15.04Q639.64-12.80 637.20-11.64L637.20-11.64L644.48 0ZM632.12-14.40Q635.24-14.40 636.62-16.04Q638.00-17.68 638.00-19.80L638.00-19.80Q638.00-21.08 637.42-22.32Q636.84-23.56 635.58-24.38Q634.32-25.20 632.40-25.20L632.40-25.20L627.92-25.20L627.92-14.40L632.12-14.40Z"/></g>
</svg>
</g><g opacity="1" transform="rotate(-10 149.0308 202.8752)">
<svg width="254.7607" height="98.1697" x="149.0308" y="202.8752" version="1.1" preserveAspectRatio="none" viewBox="-1.04 -32.44 116.96000000000001 45.08">
  <g transform="matrix(1 0 0 1 0 0)" class="companyName"><path id="id-D6z1nYkh7" d="M38.56-28.20L38.56-28.20Q42.80-25.68 42.80-22.12L42.80-22.12Q42.80-19.32 39.68-16.12L39.68-16.12Q37.88-14.24 35.42-12.88Q32.96-11.52 30.56-10.92L30.56-10.92Q26.40-9.92 23.04-9.92L23.04-9.92Q22.32-9.92 21.60-9.96L21.60-9.96Q18.68-5.68 15.60-2.68L15.60-2.68Q11.08 1.56 5.64 1.56L5.64 1.56Q0.44 1.56-0.76-1.28L-0.76-1.28Q-1.04-1.96-1.04-2.86Q-1.04-3.76-0.12-4.80L-0.12-4.80Q1.32-6.44 3.92-6.44L3.92-6.44Q5.60-6.44 7.44-5.84L7.44-5.84Q8.12-5.60 7.92-5.32L7.92-5.32Q7.76-5.16 6.88-5.48Q6-5.80 4.70-5.80Q3.40-5.80 2.42-4.82Q1.44-3.84 1.44-2.72L1.44-2.72Q1.44-2.28 1.60-1.84L1.60-1.84Q2.24 0.32 5.24 0.32L5.24 0.32Q9.72 0.32 14.04-3.84L14.04-3.84Q17.12-6.84 20.96-14.64L20.96-14.64Q22.44-17.56 24.64-21.14Q26.84-24.72 29.12-27.28L29.12-27.28Q29.40-27.56 29.84-28L29.84-28Q30.68-28.96 31.24-29.52L31.24-29.52Q28.36-29.92 25.08-29.92Q21.80-29.92 18.88-29.38Q15.96-28.84 13.80-28.10Q11.64-27.36 9.42-26.18Q7.20-25 5.68-23.20L5.68-23.20Q3.68-20.92 3.68-18.44L3.68-18.44Q3.68-16.92 4.76-15.60L4.76-15.60Q5.92-14.20 7.74-14.20Q9.56-14.20 11.26-15.60Q12.96-17 13.68-19.04L13.68-19.04Q13.72-19.32 13.86-19.42Q14-19.52 14.12-19.40Q14.24-19.28 14.24-19L14.24-19Q14.20-16.40 12.22-14.90Q10.24-13.40 7.84-13.40L7.84-13.40Q5.12-13.40 3.40-15Q1.68-16.60 1.68-19.12L1.68-19.12Q1.68-21.44 2.92-23.30Q4.16-25.16 5.88-26.32Q7.60-27.48 9.84-28.40L9.84-28.40Q13.64-29.92 17.82-30.54Q22-31.16 25.62-31.16Q29.24-31.16 32.32-30.52L32.32-30.52Q33.76-31.64 34.84-32.04Q35.92-32.44 36.06-32.44Q36.20-32.44 36.24-32.40L36.24-32.40Q36.48-32.40 36.34-32.14Q36.20-31.88 35.42-31.36Q34.64-30.84 33.92-30.12L33.92-30.12Q36.48-29.44 38.56-28.20ZM22.72-10.80L22.72-10.80Q25.64-10.80 29.06-11.82Q32.48-12.84 35.12-14.80L35.12-14.80Q40.24-18.68 40.24-22.80L40.24-22.80Q40.24-27.48 33.16-29.16L33.16-29.16Q30.92-26.04 27.36-19.68Q23.80-13.32 22.16-10.80L22.16-10.80Q22.44-10.80 22.72-10.80Z M45.04-15.56Q44.48-15.08 43.80-15.08Q43.12-15.08 42.72-15.56Q42.32-16.04 42.40-16.72L42.40-16.72Q42.52-17.40 43.08-17.88Q43.64-18.36 44.32-18.36Q45-18.36 45.42-17.88Q45.84-17.40 45.72-16.72Q45.60-16.04 45.04-15.56ZM41.12-0.88L41.12-0.88Q41.88-0.88 42.72-1.64L42.72-1.64Q44.20-3.12 46.48-7.68L46.48-7.68Q46.76-8.28 47.04-8.04L47.04-8.04Q47.12-7.96 47.12-7.78Q47.12-7.60 46.80-6.90Q46.48-6.20 46.22-5.64Q45.96-5.08 45.22-3.82Q44.48-2.56 43.88-1.88L43.88-1.88Q42.24 0 40.78 0Q39.32 0 38.68-0.88Q38.04-1.76 38.04-2.84Q38.04-3.92 38.56-5.20L38.56-5.20L41.12-11.72Q41.20-11.96 41.20-12.36Q41.20-12.76 40.72-13.40L40.72-13.40L42.92-13.44Q43.84-13.44 44-13.10Q44.16-12.76 43.76-12.04L43.76-12.04L40.56-4.56Q39.88-3.08 39.88-2.04L39.88-2.04Q39.88-0.88 41.12-0.88Z M56.80-10.80L56.80-10.80Q56.80-11.88 55.72-11.88L55.72-11.88Q54.12-11.88 52.02-10.06Q49.92-8.24 48.52-6.24L48.52-6.24Q47.92-5.08 47.54-3.32Q47.16-1.56 47.16-0.88Q47.16-0.20 47.40 0L47.40 0L44.88 0Q44.28 0 44.58-1.06Q44.88-2.12 45.40-3.36Q45.92-4.60 46.70-6.22Q47.48-7.84 47.84-8.68L47.84-8.68Q44.56-2.48 43.60-1.56L43.60-1.56Q43.20-1.20 43.20-1.80L43.20-1.80Q43.20-1.92 43.28-2.08L43.28-2.08Q44.68-3.92 48.86-12.08Q53.04-20.24 54.72-22.76L54.72-22.76Q56.08-24.72 57.36-24.72L57.36-24.72Q57.36-24.72 57.40-24.72L57.40-24.72L57.60-24.72Q57.64-24.72 58.30-24.60Q58.96-24.48 59.28-24.56L59.28-24.56Q57.80-23.44 55.20-19.42Q52.60-15.40 51.08-12.38Q49.56-9.36 49.04-7.80L49.04-7.80Q52.68-12.32 55.56-13.40L55.56-13.40Q56.92-13.84 57.72-13.84L57.72-13.84Q59.48-13.84 59.48-12.36L59.48-12.36Q59.48-11.88 59.28-11.28L59.28-11.28Q58.72-9.76 56.98-8.54Q55.24-7.32 53.16-7.12L53.16-7.12Q52.68-6 52.68-5.06Q52.68-4.12 52.88-3.36L52.88-3.36Q53.36-1.44 54.68-1L54.68-1Q54.96-0.92 55.24-0.92L55.24-0.92Q56.36-0.92 57.88-2.32L57.88-2.32Q59.12-3.68 61.12-7.80L61.12-7.80Q61.40-8.32 61.56-8.14Q61.72-7.96 61.72-7.80Q61.72-7.64 61.12-6.24Q60.52-4.84 59.44-3.16L59.44-3.16Q57.16 0.28 54.40 0.28L54.40 0.28Q52.72 0.28 51.80-0.68L51.80-0.68Q50.48-2.04 50.48-4.24L50.48-4.24Q50.48-5.36 51.08-6.52Q51.68-7.68 52.48-7.76L52.48-7.76Q52.60-7.76 52.72-7.76L52.72-7.76Q54.12-7.76 55.46-8.84Q56.80-9.92 56.80-10.80Z M73.20-10.84Q72.48-10.12 71.16-7.58Q69.84-5.04 69.58-3.78Q69.32-2.52 69.32-1.74Q69.32-0.96 69.92-0.96L69.92-0.96Q70.68-0.96 71.80-2.36L71.80-2.36Q73.44-4.40 75.04-7.68L75.04-7.68Q75.20-8.04 75.40-8.08L75.40-8.08Q75.72-8.20 75.72-7.84L75.72-7.84Q75.72-7.64 75.60-7.36L75.60-7.36Q71.92 0.08 69.40 0.08L69.40 0.08Q68.24 0.08 67.52-1.04L67.52-1.04Q67.16-1.64 67.16-2.64Q67.16-3.64 67.56-5.08L67.56-5.08Q64.36 0.08 62.04 0.08L62.04 0.08Q61.40 0.08 60.88-0.32L60.88-0.32Q59.68-1.16 59.68-3.20L59.68-3.20Q59.68-7.12 63.08-11.16L63.08-11.16Q65-13.40 67.80-14.08L67.80-14.08Q68.56-14.28 69.24-14.28L69.24-14.28Q71.08-14.28 72.36-13L72.36-13Q72.76-12.56 72.60-12.16Q72.44-11.76 71.92-11.84L71.92-11.84Q71.48-13.28 70-13.28L70-13.28Q68.28-13.28 65.76-10.56L65.76-10.56Q64.32-8.96 63.08-6.80L63.08-6.80Q61.52-4.20 61.52-2.64Q61.52-1.08 62.52-1.08L62.52-1.08Q64.92-1.08 68.80-8.44L68.80-8.44Q69.56-9.92 70.08-10.46Q70.60-11 71.40-11L71.40-11Q71.56-11 72.22-10.88Q72.88-10.76 73.20-10.84L73.20-10.84Z M69.48 12.64L69.48 12.64Q67.72 12.64 66.76 11.90Q65.80 11.16 65.80 10.12Q65.80 9.08 66.40 7.76L66.40 7.76Q67.44 5.72 70.16 4.48L70.16 4.48Q72.20 3.52 75.56 2.70Q78.92 1.88 79.88 1.60L79.88 1.60Q81.32-0.92 83.32-7.40L83.32-7.40Q81-3.32 79.44-1.68Q77.88-0.04 76.28-0.04L76.28-0.04Q74.12-0.04 73.76-1.84L73.76-1.84Q73.60-2.12 73.68-2.68Q73.76-3.24 73.78-3.48Q73.80-3.72 74.04-4.26Q74.28-4.80 74.36-5.04L74.36-5.04Q74.80-5.96 75.12-6.48L75.12-6.48Q74.48-6.48 74.76-7.12L74.76-7.12L75.48-8.52Q76.84-11.12 77.72-12.92L77.72-12.92Q78.12-13.76 79.28-13.76L79.28-13.76L81.72-13.76Q81.64-13.68 81.32-13.44L81.32-13.44Q80.60-12.96 80.24-12.32L80.24-12.32Q78.80-9.84 76.64-5.24L76.64-5.24Q75.76-3.36 75.76-2.48Q75.76-1.60 76.06-1.24Q76.36-0.88 76.88-0.88L76.88-0.88Q77.64-0.88 79-2.48L79-2.48Q81.84-5.80 85.28-12.92L85.28-12.92Q85.72-13.76 86.84-13.76L86.84-13.76L89-13.76Q87.96-13.04 87.36-11.94Q86.76-10.84 86.06-8.96Q85.36-7.08 84.30-3.96Q83.24-0.84 82.68 0.72L82.68 0.72Q86.44-0.40 88.44-3.24L88.44-3.24Q89.32-4.48 90.96-7.64L90.96-7.64Q91.24-8.20 91.46-8.08Q91.68-7.96 91.68-7.76Q91.68-7.56 91.02-6.22Q90.36-4.88 89.68-3.74Q89-2.60 87.92-1.40Q86.84-0.20 85.52 0.50Q84.20 1.20 82 2L82 2Q78.92 7.60 75.80 10.24L75.80 10.24Q72.88 12.64 69.48 12.64ZM67.16 8.68L67.16 8.68Q66.72 9.56 66.72 10.30Q66.72 11.04 67.28 11.44Q67.84 11.84 68.68 11.84L68.68 11.84Q71 11.84 73.64 9.46Q76.28 7.08 78.28 4.36L78.28 4.36L79.16 2.88Q72.56 4.60 70.84 5.36L70.84 5.36Q68.28 6.48 67.16 8.68Z M89.60-2.32L89.60-2.32Q89.60-4.04 91.08-6.48L91.08-6.48Q90.44-6.48 90.72-7.12L90.72-7.12L91.44-8.52Q92.80-11.12 93.68-12.92L93.68-12.92Q94.08-13.76 95.24-13.76L95.24-13.76L97.68-13.76Q96.24-12.72 94.78-9.74Q93.32-6.76 92.52-5.06Q91.72-3.36 91.72-2.48Q91.72-1.60 92.02-1.24Q92.32-0.88 92.84-0.88L92.84-0.88Q93.60-0.88 94.96-2.48L94.96-2.48Q97.08-4.96 100.92-12.92L100.92-12.92Q101.36-13.76 102.48-13.76L102.48-13.76L104.64-13.76Q103.76-13.08 103.26-12.36Q102.76-11.64 101.88-9.80L101.88-9.80Q99.48-5 99.20-3.44L99.20-3.44Q99.08-2.88 99.08-2.40L99.08-2.40Q99.08-1.12 99.96-1.04L99.96-1.04Q102.12-1.04 105.28-7.72L105.28-7.72Q105.52-8.28 105.76-8.16Q106-8.04 106-7.84Q106-7.64 105.64-6.92Q105.28-6.20 104.94-5.52Q104.60-4.84 103.90-3.66Q103.20-2.48 102.60-1.80L102.60-1.80Q101.04-0.04 99.54-0.04Q98.04-0.04 97.48-1.36L97.48-1.36Q97.24-1.96 97.24-2.88Q97.24-3.80 97.64-5.16L97.64-5.16Q94.72-0.04 92.24-0.04L92.24-0.04Q90.08-0.04 89.72-1.84L89.72-1.84Q89.60-2.04 89.60-2.32Z M104.28-3.20L104.28-3.20Q104.28-6.52 107.48-14.32L107.48-14.32L105.40-14.32Q105.20-14.32 105.14-14.54Q105.08-14.76 105.18-14.98Q105.28-15.20 105.48-15.20L105.48-15.20L107.88-15.20Q109.32-18.36 110.56-20.48Q111.80-22.60 112.84-23.34Q113.88-24.08 114.34-24.08Q114.80-24.08 115-24L115-24Q115.92-23.56 115.92-22.18Q115.92-20.80 115-18.84Q114.08-16.88 113.20-15.20L113.20-15.20L115.12-15.20Q115.32-15.20 115.38-14.98Q115.44-14.76 115.34-14.54Q115.24-14.32 115.04-14.32L115.04-14.32L112.72-14.32Q110.52-10.60 107.40-7.72L107.40-7.72L106.48-3.64Q106.36-3.12 106.36-2.62Q106.36-2.12 106.64-1.60Q106.92-1.08 107.52-1.08L107.52-1.08Q108.20-1.08 109.04-1.56L109.04-1.56Q110.96-3 113.28-7.60L113.28-7.60Q113.44-7.96 113.66-8.04Q113.88-8.12 113.92-7.94Q113.96-7.76 113.80-7.36L113.80-7.36Q112.48-4.60 111.72-3.44L111.72-3.44Q109.56 0.04 107.12 0.04L107.12 0.04Q105.88 0.04 105.08-0.88Q104.28-1.80 104.28-3.20ZM110.32-15.20L112.32-15.20Q114.96-19.92 114.96-21.76L114.96-21.76Q114.96-22.56 114.68-22.56L114.68-22.56Q114.24-22.56 113.34-21.28Q112.44-20 110.32-15.20L110.32-15.20ZM111.80-14.32L111.80-14.32L109.92-14.32Q109.44-13.20 107.76-9L107.76-9Q109.92-11.24 111.80-14.32Z"/></g>
</svg>
</g></svg></svg>