<svg version="1.1" preserveAspectRatio="none" xmlns="http://www.w3.org/2000/svg" width="500" height="500" viewBox="0 0 500 500"><rect width="100%" height="100%" fill="#222222" fill-opacity="1"/><svg viewBox="27.5002 269.6 502.8468 244.4" width="333" height="161.8488971193612" x="83.5px" y="169.0756px" xmlns="http://www.w3.org/2000/svg" xmlns:xlink="http://www.w3.org/1999/xlink" preserveAspectRatio="none"><defs></defs><style>.a7KDWqqaqfillColor {fill:#ebebeb;fill-opacity:0;}.aZzOTVRhffillColor {fill:#ebebeb;fill-opacity:0;}.companyName {fill:#F3F3F3;fill-opacity:1;}.icon3-str {stroke:#A6A6A6;stroke-opacity:1;}.shapeStroke-str {stroke:#F3F3F3;stroke-opacity:1;}.text {fill:#F3F3F3;fill-opacity:1;}</style><g opacity="1" transform="rotate(0 47.5002 289.6)">
<svg width="482.8468" height="224.4" x="47.5002" y="289.6" version="1.1" preserveAspectRatio="none" viewBox="0 0 482.8468 224.4">
  <defs><rect x="1.683" y="1.683" width="479.4808" height="221.034" rx="0%" ry="0%" id="id-ZzOTVRhf1676915565842"></rect></defs><use class="aZzOTVRhffillColor shapeStroke-str" style="stroke-width:3.366;" xlink:href="#id-ZzOTVRhf1676915565842"></use>
</svg>
</g><g opacity="1" transform="rotate(0 27.5002 269.6)">
<svg width="482.8468" height="224.4" x="27.5002" y="269.6" version="1.1" preserveAspectRatio="none" viewBox="0 0 482.8468 224.4">
  <defs><rect x="1.683" y="1.683" width="479.4808" height="221.034" rx="0px" ry="0px" id="id-7KDWqqaq1676915565842"></rect></defs><use class="a7KDWqqaqfillColor shapeStroke-str" style="stroke-width:3.366;" xlink:href="#id-7KDWqqaq1676915565842"></use>
</svg>
</g><g opacity="1" transform="rotate(0 88.0361 431.6)">
<svg width="381.775" height="22.4" x="88.0361" y="431.6" version="1.1" preserveAspectRatio="none" viewBox="2.36 -31 688.5200000000001 40.4">
  <g transform="matrix(1 0 0 1 0 0)" class="text"><path id="id-6izo4zJp30" d="M25.40-2.16Q24-1.24 21.86-0.46Q19.72 0.32 17.20 0.32L17.20 0.32Q12.76 0.32 9.38-1.64Q6-3.60 4.18-6.92Q2.36-10.24 2.36-14.24L2.36-14.24Q2.36-18.52 4.20-21.94Q6.04-25.36 9.30-27.30Q12.56-29.24 16.68-29.24L16.68-29.24Q19.12-29.24 21.24-28.60Q23.36-27.96 25.04-26.92L25.04-26.92L23.48-23.28Q20.16-25.52 16.80-25.52L16.80-25.52Q14-25.52 11.62-24.04Q9.24-22.56 7.82-20.02Q6.40-17.48 6.40-14.44L6.40-14.44Q6.40-11.32 7.70-8.80Q9-6.28 11.42-4.86Q13.84-3.44 17-3.44L17-3.44Q20.88-3.44 23.76-5.64L23.76-5.64L25.40-2.16Z M31.96-8.44Q31.96-10.88 33.14-12.90Q34.32-14.92 36.42-16.08Q38.52-17.24 41.16-17.24L41.16-17.24Q43.80-17.24 45.86-16.08Q47.92-14.92 49.06-12.92Q50.20-10.92 50.20-8.44L50.20-8.44Q50.20-5.96 49.06-3.94Q47.92-1.92 45.84-0.76Q43.76 0.40 41.08 0.40L41.08 0.40Q38.48 0.40 36.40-0.70Q34.32-1.80 33.14-3.80Q31.96-5.80 31.96-8.44L31.96-8.44ZM35.72-8.40Q35.72-6.84 36.42-5.52Q37.12-4.20 38.34-3.44Q39.56-2.68 41.04-2.68L41.04-2.68Q43.36-2.68 44.88-4.32Q46.40-5.96 46.40-8.40L46.40-8.40Q46.40-10.84 44.88-12.50Q43.36-14.16 41.04-14.16L41.04-14.16Q39.52-14.16 38.32-13.38Q37.12-12.60 36.42-11.28Q35.72-9.96 35.72-8.40L35.72-8.40Z M78.84-17.24Q81.24-17.24 82.66-15.88Q84.08-14.52 84.16-12.28L84.16-12.28L84.16 0L80.44 0L80.44-10.92Q80.32-13.84 77.80-14L77.80-14Q76.36-14 75.22-13.14Q74.08-12.28 73.44-10.88Q72.80-9.48 72.76-7.88L72.76-7.88L72.76 0L69 0L69-10.92Q68.88-13.84 66.28-14L66.28-14Q64.88-14 63.74-13.14Q62.60-12.28 61.96-10.86Q61.32-9.44 61.32-7.84L61.32-7.84L61.32 0L57.60 0L57.60-16.56L60.96-16.56L61.24-13.44Q62.20-15.24 63.86-16.24Q65.52-17.24 67.64-17.24L67.64-17.24Q69.64-17.24 71-16.30Q72.36-15.36 72.76-13.72L72.76-13.72Q73.80-15.36 75.40-16.30Q77-17.24 78.84-17.24L78.84-17.24Z M114.24-17.24Q116.64-17.24 118.06-15.88Q119.48-14.52 119.56-12.28L119.56-12.28L119.56 0L115.84 0L115.84-10.92Q115.72-13.84 113.20-14L113.20-14Q111.76-14 110.62-13.14Q109.48-12.28 108.84-10.88Q108.20-9.48 108.16-7.88L108.16-7.88L108.16 0L104.40 0L104.40-10.92Q104.28-13.84 101.68-14L101.68-14Q100.28-14 99.14-13.14Q98-12.28 97.36-10.86Q96.72-9.44 96.72-7.84L96.72-7.84L96.72 0L93 0L93-16.56L96.36-16.56L96.64-13.44Q97.60-15.24 99.26-16.24Q100.92-17.24 103.04-17.24L103.04-17.24Q105.04-17.24 106.40-16.30Q107.76-15.36 108.16-13.72L108.16-13.72Q109.20-15.36 110.80-16.30Q112.40-17.24 114.24-17.24L114.24-17.24Z M140.08-16.56L143.80-16.56L143.80 0L140.44 0L140.20-3.16Q139.36-1.48 137.60-0.42Q135.84 0.64 133.68 0.64L133.68 0.64Q131.40 0.64 129.94-0.74Q128.48-2.12 128.40-4.32L128.40-4.32L128.40-16.56L132.12-16.56L132.12-5.64Q132.20-4.24 132.94-3.42Q133.68-2.60 135.16-2.56L135.16-2.56Q136.52-2.56 137.64-3.38Q138.76-4.20 139.42-5.64Q140.08-7.08 140.08-8.84L140.08-8.84L140.08-16.56Z M162.96-17.20Q165.28-17.20 166.80-15.82Q168.32-14.44 168.36-12.24L168.36-12.24L168.36 0L164.60 0L164.60-10.96Q164.52-12.36 163.76-13.16Q163.00-13.96 161.48-14L161.48-14Q159.28-14 157.84-12.24Q156.40-10.48 156.40-7.76L156.40-7.76L156.40 0L152.68 0L152.68-16.56L156.04-16.56L156.28-13.36Q157.16-15.16 158.92-16.18Q160.68-17.20 162.96-17.20L162.96-17.20Z M177.20-16.56L180.92-16.56L180.92 0L177.20 0L177.20-16.56ZM176.92-22.52Q176.92-23.40 177.60-24Q178.28-24.60 179.16-24.60L179.16-24.60Q180.04-24.60 180.70-24Q181.36-23.40 181.36-22.52L181.36-22.52Q181.36-21.64 180.70-21.04Q180.04-20.44 179.16-20.44L179.16-20.44Q178.28-20.44 177.60-21.04Q176.92-21.64 176.92-22.52L176.92-22.52Z M191.40-23.84L195.16-23.84L195.16-16.52L199.68-16.52L199.68-13.56L195.16-13.56L195.16 0L191.40 0L191.40-13.56L188.36-13.56L188.36-16.52L191.40-16.52L191.40-23.84Z M218.92-16.56L222.36-16.56L211.68 7.96L208.00 7.96L211.80-0.56L204.12-16.56L208.32-16.56L213.68-4.76L218.92-16.56Z M244.24-28.36L247.64-28.36L247.64 9.40L244.24 9.40L244.24-28.36Z M280.76-2.48Q279.44-1.44 276.62-0.56Q273.80 0.32 271.40 0.32L271.40 0.32Q266.88 0.32 263.44-1.54Q260.00-3.40 258.14-6.64Q256.28-9.88 256.28-13.92L256.28-13.92Q256.28-18.64 258.28-22.10Q260.28-25.56 263.68-27.40Q267.08-29.24 271.12-29.24L271.12-29.24Q273.56-29.24 275.72-28.66Q277.88-28.08 279.60-27.12L279.60-27.12L278.32-23.56Q277.04-24.28 275.10-24.82Q273.16-25.36 271.60-25.36L271.60-25.36Q268.24-25.36 265.66-24Q263.08-22.64 261.68-20.12Q260.28-17.60 260.28-14.24L260.28-14.24Q260.28-11.12 261.68-8.68Q263.08-6.24 265.64-4.90Q268.20-3.56 271.48-3.56L271.48-3.56Q273.00-3.56 274.44-3.86Q275.88-4.16 276.84-4.72L276.84-4.72L276.84-10.44L271.08-10.44L271.08-14.16L280.76-14.16L280.76-2.48Z M303.20-16.56L306.64-16.56L306.64 0L302.92 0L302.92-2.72Q302.04-1.56 300.36-0.58Q298.68 0.40 296.56 0.40L296.56 0.40Q294.20 0.40 292.30-0.62Q290.40-1.64 289.30-3.60Q288.20-5.56 288.20-8.28L288.20-8.28Q288.20-11 289.34-13.02Q290.48-15.04 292.42-16.14Q294.36-17.24 296.72-17.24L296.72-17.24Q298.84-17.24 300.40-16.32Q301.96-15.40 302.92-13.92L302.92-13.92L303.20-16.56ZM297.56-2.68Q299.60-2.68 301.06-3.82Q302.52-4.96 302.92-6.92L302.92-6.92L302.92-10.20Q302.44-11.96 300.92-13.06Q299.40-14.16 297.44-14.16L297.44-14.16Q295.96-14.16 294.70-13.44Q293.44-12.72 292.70-11.42Q291.96-10.12 291.96-8.48L291.96-8.48Q291.96-6.88 292.72-5.56Q293.48-4.24 294.76-3.46Q296.04-2.68 297.56-2.68L297.56-2.68Z M336.76-17.24Q339.16-17.24 340.58-15.88Q342-14.52 342.08-12.28L342.08-12.28L342.08 0L338.36 0L338.36-10.92Q338.24-13.84 335.72-14L335.72-14Q334.28-14 333.14-13.14Q332-12.28 331.36-10.88Q330.72-9.48 330.68-7.88L330.68-7.88L330.68 0L326.92 0L326.92-10.92Q326.80-13.84 324.20-14L324.20-14Q322.80-14 321.66-13.14Q320.52-12.28 319.88-10.86Q319.24-9.44 319.24-7.84L319.24-7.84L319.24 0L315.52 0L315.52-16.56L318.88-16.56L319.16-13.44Q320.12-15.24 321.78-16.24Q323.44-17.24 325.56-17.24L325.56-17.24Q327.56-17.24 328.92-16.30Q330.28-15.36 330.68-13.72L330.68-13.72Q331.72-15.36 333.32-16.30Q334.92-17.24 336.76-17.24L336.76-17.24Z M350.92-16.56L354.64-16.56L354.64 0L350.92 0L350.92-16.56ZM350.64-22.52Q350.64-23.40 351.32-24Q352-24.60 352.88-24.60L352.88-24.60Q353.76-24.60 354.42-24Q355.08-23.40 355.08-22.52L355.08-22.52Q355.08-21.64 354.42-21.04Q353.76-20.44 352.88-20.44L352.88-20.44Q352-20.44 351.32-21.04Q350.64-21.64 350.64-22.52L350.64-22.52Z M373.80-17.20Q376.12-17.20 377.64-15.82Q379.16-14.44 379.20-12.24L379.20-12.24L379.20 0L375.44 0L375.44-10.96Q375.36-12.36 374.60-13.16Q373.84-13.96 372.32-14L372.32-14Q370.12-14 368.68-12.24Q367.24-10.48 367.24-7.76L367.24-7.76L367.24 0L363.52 0L363.52-16.56L366.88-16.56L367.12-13.36Q368-15.16 369.76-16.18Q371.52-17.20 373.80-17.20L373.80-17.20Z M402.12-16.56L405.52-16.56L405.52 0.12Q405.52 2.40 404.36 4.24Q403.20 6.08 401.06 7.16Q398.92 8.24 396.04 8.24L396.04 8.24Q393.52 8.24 391.70 7.40Q389.88 6.56 388.04 4.92L388.04 4.92L390.24 2.36Q391.60 3.64 392.96 4.30Q394.32 4.96 395.96 4.96L395.96 4.96Q398.72 4.96 400.22 3.64Q401.72 2.32 401.76 0.08L401.76 0.08L401.80-3.04Q400.88-1.48 399.10-0.54Q397.32 0.40 395.00 0.40L395.00 0.40Q392.72 0.40 390.80-0.76Q388.88-1.92 387.74-3.92Q386.60-5.92 386.60-8.36L386.60-8.36Q386.60-10.88 387.78-12.90Q388.96-14.92 390.96-16.08Q392.96-17.24 395.24-17.24L395.24-17.24Q397.36-17.24 399.16-16.40Q400.96-15.56 401.84-14.24L401.84-14.24L402.12-16.56ZM396.08-2.68Q398.20-2.68 399.76-3.84Q401.32-5 401.80-6.88L401.80-6.88L401.80-10.16Q401.24-11.96 399.68-13.06Q398.12-14.16 396.08-14.16L396.08-14.16Q393.64-14.16 392.00-12.56Q390.36-10.96 390.36-8.48L390.36-8.48Q390.36-6.88 391.12-5.56Q391.88-4.24 393.20-3.46Q394.52-2.68 396.08-2.68L396.08-2.68Z M443.00-16.56L446.44-16.56L446.44 0L442.72 0L442.72-2.72Q441.84-1.56 440.16-0.58Q438.48 0.40 436.36 0.40L436.36 0.40Q434.00 0.40 432.10-0.62Q430.20-1.64 429.10-3.60Q428.00-5.56 428.00-8.28L428.00-8.28Q428.00-11 429.14-13.02Q430.28-15.04 432.22-16.14Q434.16-17.24 436.52-17.24L436.52-17.24Q438.64-17.24 440.20-16.32Q441.76-15.40 442.72-13.92L442.72-13.92L443.00-16.56ZM437.36-2.68Q439.40-2.68 440.86-3.82Q442.32-4.96 442.72-6.92L442.72-6.92L442.72-10.20Q442.24-11.96 440.72-13.06Q439.20-14.16 437.24-14.16L437.24-14.16Q435.76-14.16 434.50-13.44Q433.24-12.72 432.50-11.42Q431.76-10.12 431.76-8.48L431.76-8.48Q431.76-6.88 432.52-5.56Q433.28-4.24 434.56-3.46Q435.84-2.68 437.36-2.68L437.36-2.68Z M465.60-17.20Q467.92-17.20 469.44-15.82Q470.96-14.44 471.00-12.24L471.00-12.24L471.00 0L467.24 0L467.24-10.96Q467.16-12.36 466.40-13.16Q465.64-13.96 464.12-14L464.12-14Q461.92-14 460.48-12.24Q459.04-10.48 459.04-7.76L459.04-7.76L459.04 0L455.32 0L455.32-16.56L458.68-16.56L458.92-13.36Q459.80-15.16 461.56-16.18Q463.32-17.20 465.60-17.20L465.60-17.20Z M493.40-31L497.12-31L497.12 0L493.36 0L493.36-2.60Q492.16-1.20 490.42-0.40Q488.68 0.40 486.60 0.40L486.60 0.40Q484.28 0.40 482.40-0.72Q480.52-1.84 479.46-3.86Q478.40-5.88 478.40-8.52L478.40-8.52Q478.40-11.20 479.52-13.18Q480.64-15.16 482.60-16.20Q484.56-17.24 487.04-17.24L487.04-17.24Q488.92-17.24 490.66-16.46Q492.40-15.68 493.40-14.32L493.40-14.32L493.40-31ZM487.76-2.80Q489.92-2.80 491.42-3.96Q492.92-5.12 493.36-7.08L493.36-7.08L493.36-10.20Q492.88-12 491.32-13.14Q489.76-14.28 487.76-14.28L487.76-14.28Q486.24-14.28 484.96-13.54Q483.68-12.80 482.92-11.50Q482.16-10.20 482.16-8.56L482.16-8.56Q482.16-6.96 482.92-5.64Q483.68-4.32 484.96-3.56Q486.24-2.80 487.76-2.80L487.76-2.80Z M534.44-1.56Q533.32-0.64 531.78-0.12Q530.24 0.40 528.64 0.40L528.64 0.40Q525.96 0.40 523.90-0.68Q521.84-1.76 520.70-3.74Q519.56-5.72 519.56-8.32L519.56-8.32Q519.56-10.88 520.76-12.86Q521.96-14.84 523.96-15.92Q525.96-17 528.28-17L528.28-17Q532.08-17 534.56-14.92L534.56-14.92L532.68-12.48Q531.88-13.08 530.84-13.50Q529.80-13.92 528.60-13.92L528.60-13.92Q527.12-13.92 525.90-13.18Q524.68-12.44 523.98-11.16Q523.28-9.88 523.28-8.32L523.28-8.32Q523.28-6.76 524.02-5.48Q524.76-4.20 526.04-3.44Q527.32-2.68 528.96-2.68L528.96-2.68Q531.00-2.68 532.52-3.88L532.52-3.88L534.44-1.56Z M540.20-8.44Q540.20-10.88 541.38-12.90Q542.56-14.92 544.66-16.08Q546.76-17.24 549.40-17.24L549.40-17.24Q552.04-17.24 554.10-16.08Q556.16-14.92 557.30-12.92Q558.44-10.92 558.44-8.44L558.44-8.44Q558.44-5.96 557.30-3.94Q556.16-1.92 554.08-0.76Q552.00 0.40 549.32 0.40L549.32 0.40Q546.72 0.40 544.64-0.70Q542.56-1.80 541.38-3.80Q540.20-5.80 540.20-8.44L540.20-8.44ZM543.96-8.40Q543.96-6.84 544.66-5.52Q545.36-4.20 546.58-3.44Q547.80-2.68 549.28-2.68L549.28-2.68Q551.60-2.68 553.12-4.32Q554.64-5.96 554.64-8.40L554.64-8.40Q554.64-10.84 553.12-12.50Q551.60-14.16 549.28-14.16L549.28-14.16Q547.76-14.16 546.56-13.38Q545.36-12.60 544.66-11.28Q543.96-9.96 543.96-8.40L543.96-8.40Z M579.40-31L583.12-31L583.12 0L579.36 0L579.36-2.60Q578.16-1.20 576.42-0.40Q574.68 0.40 572.60 0.40L572.60 0.40Q570.28 0.40 568.40-0.72Q566.52-1.84 565.46-3.86Q564.40-5.88 564.40-8.52L564.40-8.52Q564.40-11.20 565.52-13.18Q566.64-15.16 568.60-16.20Q570.56-17.24 573.04-17.24L573.04-17.24Q574.92-17.24 576.66-16.46Q578.40-15.68 579.40-14.32L579.40-14.32L579.40-31ZM573.76-2.80Q575.92-2.80 577.42-3.96Q578.92-5.12 579.36-7.08L579.36-7.08L579.36-10.20Q578.88-12 577.32-13.14Q575.76-14.28 573.76-14.28L573.76-14.28Q572.24-14.28 570.96-13.54Q569.68-12.80 568.92-11.50Q568.16-10.20 568.16-8.56L568.16-8.56Q568.16-6.96 568.92-5.64Q569.68-4.32 570.96-3.56Q572.24-2.80 573.76-2.80L573.76-2.80Z M599.72-2.80Q601.80-2.80 603.76-4.24L603.76-4.24L605.48-1.48Q604.16-0.60 602.62-0.10Q601.08 0.40 599.64 0.40L599.64 0.40Q596.88 0.40 594.82-0.74Q592.76-1.88 591.64-3.88Q590.52-5.88 590.52-8.40L590.52-8.40Q590.52-10.84 591.74-12.86Q592.96-14.88 595.08-16.06Q597.20-17.24 599.72-17.24L599.72-17.24Q602.96-17.24 605.14-15.34Q607.32-13.44 608.12-10.04L608.12-10.04L595.00-5.44Q595.72-4.20 596.94-3.50Q598.16-2.80 599.72-2.80L599.72-2.80ZM599.44-14.28Q597.16-14.28 595.68-12.68Q594.20-11.08 594.20-8.60L594.20-8.60Q594.20-8 594.24-7.68L594.24-7.68L603.88-11.24Q603.28-12.60 602.18-13.44Q601.08-14.28 599.44-14.28L599.44-14.28Z M615.60-28.36L619.00-28.36L619.00 9.40L615.60 9.40L615.60-28.36Z M644.48-28.92L661.64-28.92L661.64-25.20L648.36-25.20L648.36-16L660.00-16L660.00-12.28L648.36-12.28L648.36 0L644.48 0L644.48-28.92Z M690.88 0L686.36 0L679.56-10.68Q679.24-10.64 678.60-10.64L678.60-10.64L674.32-10.64L674.32 0L670.44 0L670.44-28.92L678.16-28.92Q681.12-28.92 683.44-27.88Q685.76-26.84 687.08-24.82Q688.40-22.80 688.40-19.96L688.40-19.96Q688.40-17.28 687.22-15.04Q686.04-12.80 683.60-11.64L683.60-11.64L690.88 0ZM678.52-14.40Q681.64-14.40 683.02-16.04Q684.40-17.68 684.40-19.80L684.40-19.80Q684.40-21.08 683.82-22.32Q683.24-23.56 681.98-24.38Q680.72-25.20 678.80-25.20L678.80-25.20L674.32-25.20L674.32-14.40L678.52-14.40Z"/></g>
</svg>
</g><g opacity="1" transform="rotate(0 87.5002 329.6)">
<svg width="382.8468" height="80" x="87.5002" y="329.6" version="1.1" preserveAspectRatio="none" viewBox="4.8 -28.48 138.55999999999997 28.96">
  <g transform="matrix(1 0 0 1 0 0)" class="companyName"><path id="id-D6z1nYkh7" d="M8.44 0L8.44-11.68Q9.48-11.40 10.68-11.22Q11.88-11.04 13.32-11.04L13.32-11.04Q15.76-11.04 17.64-11.72Q19.52-12.40 20.78-13.58Q22.04-14.76 22.68-16.30Q23.32-17.84 23.32-19.60L23.32-19.60Q23.32-21.28 22.76-22.82Q22.20-24.36 21.06-25.50Q19.92-26.64 18.20-27.32Q16.48-28 14.16-28L14.16-28L4.80-28L4.80 0L8.44 0ZM8.44-13.32L8.44-26.24L12.64-26.24Q14.32-26.24 15.60-25.64Q16.88-25.04 17.72-24.06Q18.56-23.08 18.98-21.86Q19.40-20.64 19.40-19.44L19.40-19.44Q19.40-18.28 19.02-17.10Q18.64-15.92 17.80-14.96Q16.96-14 15.68-13.40Q14.40-12.80 12.60-12.80L12.60-12.80Q11.36-12.80 10.32-12.90Q9.28-13 8.44-13.32L8.44-13.32Z M32.40-20L29-20L29 0L32.40 0L32.40-20ZM28.52-26.32L28.52-26.32Q28.52-25.44 29.16-24.80Q29.80-24.16 30.68-24.16L30.68-24.16Q31.56-24.16 32.20-24.80Q32.84-25.44 32.84-26.32L32.84-26.32Q32.84-27.20 32.20-27.84Q31.56-28.48 30.68-28.48L30.68-28.48Q29.80-28.48 29.16-27.84Q28.52-27.20 28.52-26.32Z M43.44-10.08L43.44-28L40.04-28L40.04 0L43.44 0L43.44-7.52L45.76-9.88L53.80 0L58.28 0L48.24-12.32L55.88-20L53.28-20L43.44-10.08Z M68.84-20.44L68.84-20.44Q71.76-20.44 73.36-19.62Q74.96-18.80 75.70-17.48Q76.44-16.16 76.56-14.44Q76.68-12.72 76.68-10.92L76.68-10.92L76.68 0L73.44 0L73.44-1.96Q72.28-0.84 70.48-0.18Q68.68 0.48 66.88 0.48L66.88 0.48Q65.16 0.48 63.84-0.12Q62.52-0.72 61.64-1.68Q60.76-2.64 60.32-3.84Q59.88-5.04 59.88-6.28L59.88-6.28Q59.88-7.56 60.36-8.84Q60.84-10.12 61.80-11.14Q62.76-12.16 64.16-12.80Q65.56-13.44 67.36-13.44L67.36-13.44Q69.16-13.44 70.78-12.74Q72.40-12.04 73.44-10.76L73.44-10.76L73.44-12.48Q73.44-15.76 72.46-17.36Q71.48-18.96 68.88-18.96L68.88-18.96Q67.76-18.96 66.92-18.68Q66.08-18.40 65.42-17.90Q64.76-17.40 64.20-16.66Q63.64-15.92 63.08-15L63.08-15L61-17.08Q61.56-17.68 62.18-18.28Q62.80-18.88 63.70-19.36Q64.60-19.84 65.84-20.14Q67.08-20.44 68.84-20.44ZM73.44-4.84L73.44-7.92Q73.24-8.40 72.86-9.04Q72.48-9.68 71.88-10.28Q71.28-10.88 70.44-11.30Q69.60-11.72 68.44-11.72L68.44-11.72Q67.28-11.72 66.32-11.26Q65.36-10.80 64.70-10.06Q64.04-9.32 63.68-8.32Q63.32-7.32 63.32-6.24L63.32-6.24Q63.32-4.96 63.78-4.02Q64.24-3.08 64.96-2.42Q65.68-1.76 66.56-1.44Q67.44-1.12 68.24-1.12L68.24-1.12Q69-1.12 69.78-1.40Q70.56-1.68 71.26-2.18Q71.96-2.68 72.52-3.36Q73.08-4.04 73.44-4.84L73.44-4.84Z M85.20-28L81.08-28L90.76-10.60L90.76 0L94.40 0L94.40-10.96L104.24-28L102.08-28L93.52-13.24L93.36-13.24L85.20-28Z M112.04-20L108.64-20L108.64-7Q108.64-6.28 108.78-5.02Q108.92-3.76 109.60-2.54Q110.28-1.32 111.74-0.42Q113.20 0.48 115.84 0.48L115.84 0.48Q117 0.52 118.38 0.02Q119.76-0.48 121.16-1.88L121.16-1.88L121.80-2.52L121.96-2.52L121.96 0L125.36 0L125.36-20L121.96-20L121.96-7.60Q121.96-6.04 121.52-4.92Q121.08-3.80 120.36-3.06Q119.64-2.32 118.68-1.96Q117.72-1.60 116.68-1.60L116.68-1.60Q115-1.60 114.06-2.26Q113.12-2.92 112.66-3.80Q112.20-4.68 112.12-5.54Q112.04-6.40 112.04-6.80L112.04-6.80L112.04-20Z M133.36-18.40L129.88-18.40L129.88-20L133.36-20L133.36-26.16L136.76-26.16L136.76-20L141.60-20L141.60-18.40L136.76-18.40L136.76-5.12Q136.76-4.64 136.80-4.02Q136.84-3.40 137.04-2.86Q137.24-2.32 137.66-1.96Q138.08-1.60 138.84-1.60L138.84-1.60Q139.80-1.60 140.44-2.32Q141.08-3.04 141.48-3.88L141.48-3.88L143.36-1.96Q141.40 0 138.92 0L138.92 0Q137.88 0 136.88-0.36Q135.88-0.72 135.10-1.46Q134.32-2.20 133.84-3.36Q133.36-4.52 133.36-6.08L133.36-6.08L133.36-18.40Z"/></g>
</svg>
</g></svg></svg>