<svg version="1.1" preserveAspectRatio="none" xmlns="http://www.w3.org/2000/svg" width="500" height="500" viewBox="0 0 500 500"><rect width="100%" height="100%" fill="#0C0C0C" fill-opacity="1"/><svg viewBox="238.0028 363.1723 372.4949 126.9" width="333" height="113.44504314018798" x="83.5px" y="193.2775px" xmlns="http://www.w3.org/2000/svg" xmlns:xlink="http://www.w3.org/1999/xlink" preserveAspectRatio="none"><defs></defs><style>.agMiGyJc9Q0filter-floo {flood-color:#0C0C0C;flood-opacity:1;}.companyName {fill:#FDD0F8;fill-opacity:1;}.companyShadow-floo {flood-color:#888888;flood-opacity:1;}.icon1 {fill:#F1F1F1;fill-opacity:1;}.icon3-str {stroke:#CCCCCC;stroke-opacity:1;}</style><defs>
      <filter
        x="238.0028"
        y="363.1723"
        width="372.4949"
        height="93.9139"
        id="u8ohc_6OE"
        filterUnits="userSpaceOnUse"
        primitiveUnits="userSpaceOnUse"
        color-interpolation-filters="sRGB">
        
    <feGaussianBlur in="SourceGraphic" stdDeviation="0"/>
    <feOffset dx="3.913863218092917" dy="3.913863218092917" result="vOGNWC3wWJr"/>
    <feFlood flood-color="#888888" flood-opacity="1" in="vOGNWC3wWJr" />
    <feComposite  in2="vOGNWC3wWJr" operator="in" result="PSxTLeDxoIg"/><feMerge result="QtH-w-A2-cf"><feMergeNode in="PSxTLeDxoIg" /><feMergeNode in="SourceGraphic" /></feMerge>
      </filter>
      <filter
        x="249.7194"
        y="471.1723"
        width="345.1478"
        height="18.9"
        id="gMiGyJc9Q"
        filterUnits="userSpaceOnUse"
        primitiveUnits="userSpaceOnUse"
        color-interpolation-filters="sRGB">
        <feMerge><feMergeNode in="SourceGraphic" /></feMerge>
      </filter></defs><g filter="url(#u8ohc_6OE)"><g opacity="1" transform="rotate(0 238.0028 363.1723)">
<svg width="368.581" height="90" x="238.0028" y="363.1723" version="1.1" preserveAspectRatio="none" viewBox="0.64 -32.16 164.96 40.28">
  <g transform="matrix(1 0 0 1 0 0)" class="companyName"><path id="id-D6z1nYkh7" d="M18.08-28Q23.52-28 26.48-25.64Q29.44-23.28 29.44-19L29.44-19Q29.44-15.48 27.74-12.84Q26.04-10.20 22.90-8.76Q19.76-7.32 15.60-7.32L15.60-7.32L10-7.32L8.56 0L0.64 0L6.24-28L18.08-28ZM15.96-13.56Q18.60-13.56 20.02-14.80Q21.44-16.04 21.44-18.32L21.44-18.32Q21.44-20.04 20.30-20.90Q19.16-21.76 17.04-21.76L17.04-21.76L12.88-21.76L11.24-13.56L15.96-13.56Z M29.56 0L33.88-21.68L41.44-21.68L37.12 0L29.56 0ZM38.72-24.08Q36.76-24.08 35.56-25.16Q34.36-26.24 34.36-27.84L34.36-27.84Q34.36-29.72 35.70-30.94Q37.04-32.16 39.24-32.16L39.24-32.16Q41.24-32.16 42.44-31.14Q43.64-30.12 43.64-28.52L43.64-28.52Q43.64-26.56 42.28-25.32Q40.92-24.08 38.72-24.08L38.72-24.08Z M70.84-21.68L59.72-12.08L67 0L58.12 0L53.68-7.40L50.56-4.68L49.64 0L42.04 0L47.96-29.68L55.56-29.68L52.48-14.28L61.24-21.68L70.84-21.68Z M87.40-21.68L95-21.68L90.68 0L83.48 0L83.92-2.04Q81.32 0.36 77.64 0.36L77.64 0.36Q75.24 0.36 73.14-0.82Q71.04-2 69.76-4.24Q68.48-6.48 68.48-9.52L68.48-9.52Q68.48-13.04 70.06-15.90Q71.64-18.76 74.34-20.40Q77.04-22.04 80.24-22.04L80.24-22.04Q84.96-22.04 86.88-19.08L86.88-19.08L87.40-21.68ZM80.28-5.76Q82.56-5.76 84-7.44Q85.44-9.12 85.44-11.80L85.44-11.80Q85.44-13.72 84.34-14.84Q83.24-15.96 81.32-15.96L81.32-15.96Q79.04-15.96 77.60-14.28Q76.16-12.60 76.16-9.88L76.16-9.88Q76.16-7.96 77.26-6.86Q78.36-5.76 80.28-5.76L80.28-5.76Z M115.28-21.68L122.72-21.68L108.84 0.96Q107.12 3.72 105.54 5.26Q103.96 6.80 102.20 7.46Q100.44 8.12 98.08 8.12L98.08 8.12Q96.36 8.12 94.66 7.60Q92.96 7.08 91.96 6.24L91.96 6.24L95.36 0.88Q96.80 2.12 98.72 2.12L98.72 2.12Q99.76 2.12 100.48 1.66Q101.20 1.20 101.92 0.16L101.92 0.16L97-21.68L104.56-21.68L107.28-8.36L115.28-21.68Z M139.88-21.68L147.48-21.68L143.16 0L135.96 0L136.40-2.24Q135-0.92 133.26-0.28Q131.52 0.36 129.68 0.36L129.68 0.36Q126.12 0.36 124.02-1.56Q121.92-3.48 121.92-7.04L121.92-7.04Q121.92-8.36 122.20-9.72L122.20-9.72L124.60-21.68L132.20-21.68L129.96-10.44Q129.80-9.68 129.80-8.96L129.80-8.96Q129.80-6.12 132.72-6.12L132.72-6.12Q134.68-6.12 135.96-7.34Q137.24-8.56 137.72-10.96L137.72-10.96L139.88-21.68Z M159.56-15.20L158.12-8.08Q158.04-7.52 158.04-7.36L158.04-7.36Q158.04-5.52 160.04-5.52L160.04-5.52Q161.12-5.52 162.32-6.16L162.32-6.16L163.28-0.92Q161.04 0.36 157.64 0.36L157.64 0.36Q154.28 0.36 152.30-1.32Q150.32-3 150.32-6L150.32-6Q150.32-7.16 150.52-8.04L150.52-8.04L151.96-15.20L148.76-15.20L149.92-20.88L153.08-20.88L154.20-26.52L161.80-26.52L160.68-20.88L165.60-20.88L164.48-15.20L159.56-15.20Z"/></g>
</svg>
</g></g><g opacity="1" transform="rotate(0 249.7194 471.1723)">
<svg width="345.1478" height="18.9" x="249.7194" y="471.1723" version="1.1" preserveAspectRatio="none" viewBox="2.08 -29.68 687.4 37.64">
  <g transform="matrix(1 0 0 1 0 0)" class="icon1"><path id="id-6izo4zJp30" d="M16.72 0.24Q12.56 0.24 9.22-1.60Q5.88-3.44 3.98-6.70Q2.08-9.96 2.08-14L2.08-14Q2.08-18.04 3.98-21.30Q5.88-24.56 9.24-26.40Q12.60-28.24 16.76-28.24L16.76-28.24Q19.88-28.24 22.52-27.20Q25.16-26.16 27-24.16L27-24.16L25.12-22.28Q21.84-25.60 16.84-25.60L16.84-25.60Q13.52-25.60 10.80-24.08Q8.08-22.56 6.54-19.92Q5-17.28 5-14L5-14Q5-10.72 6.54-8.08Q8.08-5.44 10.80-3.92Q13.52-2.40 16.84-2.40L16.84-2.40Q21.88-2.40 25.12-5.76L25.12-5.76L27-3.88Q25.16-1.88 22.50-0.82Q19.84 0.24 16.72 0.24L16.72 0.24Z M40.40 0.20Q37.36 0.20 34.92-1.18Q32.48-2.56 31.08-5Q29.68-7.44 29.68-10.52L29.68-10.52Q29.68-13.60 31.08-16.04Q32.48-18.48 34.92-19.84Q37.36-21.20 40.40-21.20L40.40-21.20Q43.44-21.20 45.88-19.84Q48.32-18.48 49.70-16.04Q51.08-13.60 51.08-10.52L51.08-10.52Q51.08-7.44 49.70-5Q48.32-2.56 45.88-1.18Q43.44 0.20 40.40 0.20L40.40 0.20ZM40.40-2.32Q42.64-2.32 44.42-3.34Q46.20-4.36 47.20-6.24Q48.20-8.12 48.20-10.52L48.20-10.52Q48.20-12.92 47.20-14.80Q46.20-16.68 44.42-17.70Q42.64-18.72 40.40-18.72L40.40-18.72Q38.16-18.72 36.38-17.70Q34.60-16.68 33.58-14.80Q32.56-12.92 32.56-10.52L32.56-10.52Q32.56-8.12 33.58-6.24Q34.60-4.36 36.38-3.34Q38.16-2.32 40.40-2.32L40.40-2.32Z M83.12-21.20Q87.08-21.20 89.34-18.92Q91.60-16.64 91.60-12.20L91.60-12.20L91.60 0L88.76 0L88.76-11.92Q88.76-15.20 87.18-16.92Q85.60-18.64 82.72-18.64L82.72-18.64Q79.44-18.64 77.56-16.62Q75.68-14.60 75.68-11.04L75.68-11.04L75.68 0L72.84 0L72.84-11.92Q72.84-15.20 71.26-16.92Q69.68-18.64 66.76-18.64L66.76-18.64Q63.52-18.64 61.62-16.62Q59.72-14.60 59.72-11.04L59.72-11.04L59.72 0L56.88 0L56.88-21.04L59.60-21.04L59.60-17.20Q60.72-19.12 62.72-20.16Q64.72-21.20 67.32-21.20L67.32-21.20Q69.96-21.20 71.90-20.08Q73.84-18.96 74.80-16.76L74.80-16.76Q75.96-18.84 78.14-20.02Q80.32-21.20 83.12-21.20L83.12-21.20Z M125.56-21.20Q129.52-21.20 131.78-18.92Q134.04-16.64 134.04-12.20L134.04-12.20L134.04 0L131.20 0L131.20-11.92Q131.20-15.20 129.62-16.92Q128.04-18.64 125.16-18.64L125.16-18.64Q121.88-18.64 120-16.62Q118.12-14.60 118.12-11.04L118.12-11.04L118.12 0L115.28 0L115.28-11.92Q115.28-15.20 113.70-16.92Q112.12-18.64 109.20-18.64L109.20-18.64Q105.96-18.64 104.06-16.62Q102.16-14.60 102.16-11.04L102.16-11.04L102.16 0L99.32 0L99.32-21.04L102.04-21.04L102.04-17.20Q103.16-19.12 105.16-20.16Q107.16-21.20 109.76-21.20L109.76-21.20Q112.40-21.20 114.34-20.08Q116.28-18.96 117.24-16.76L117.24-16.76Q118.40-18.84 120.58-20.02Q122.76-21.20 125.56-21.20L125.56-21.20Z M157.88-21.04L160.72-21.04L160.72 0L158 0L158-3.84Q156.88-1.92 154.92-0.86Q152.96 0.20 150.44 0.20L150.44 0.20Q146.32 0.20 143.94-2.10Q141.56-4.40 141.56-8.84L141.56-8.84L141.56-21.04L144.40-21.04L144.40-9.12Q144.40-5.80 146.04-4.08Q147.68-2.36 150.72-2.36L150.72-2.36Q154.04-2.36 155.96-4.38Q157.88-6.40 157.88-10L157.88-10L157.88-21.04Z M179.40-21.20Q183.36-21.20 185.70-18.90Q188.04-16.60 188.04-12.20L188.04-12.20L188.04 0L185.20 0L185.20-11.92Q185.20-15.20 183.56-16.92Q181.92-18.64 178.88-18.64L178.88-18.64Q175.48-18.64 173.50-16.62Q171.52-14.60 171.52-11.04L171.52-11.04L171.52 0L168.68 0L168.68-21.04L171.40-21.04L171.40-17.16Q172.56-19.08 174.62-20.14Q176.68-21.20 179.40-21.20L179.40-21.20Z M195.76 0L195.76-21.04L198.60-21.04L198.60 0L195.76 0ZM197.20-25.64Q196.32-25.64 195.72-26.24Q195.12-26.84 195.12-27.68L195.12-27.68Q195.12-28.48 195.72-29.08Q196.32-29.68 197.20-29.68L197.20-29.68Q198.08-29.68 198.68-29.10Q199.28-28.52 199.28-27.72L199.28-27.72Q199.28-26.84 198.68-26.24Q198.08-25.64 197.20-25.64L197.20-25.64Z M216.60-3.32L217.60-1.28Q216.80-0.56 215.62-0.18Q214.44 0.20 213.16 0.20L213.16 0.20Q210.20 0.20 208.60-1.40Q207.00-3 207.00-5.92L207.00-5.92L207.00-18.64L203.24-18.64L203.24-21.04L207.00-21.04L207.00-25.64L209.84-25.64L209.84-21.04L216.24-21.04L216.24-18.64L209.84-18.64L209.84-6.08Q209.84-4.20 210.78-3.22Q211.72-2.24 213.48-2.24L213.48-2.24Q214.36-2.24 215.18-2.52Q216.00-2.80 216.60-3.32L216.60-3.32Z M237.24-21.04L240.04-21.04L229.52 2.52Q228.24 5.48 226.56 6.72Q224.88 7.96 222.52 7.96L222.52 7.96Q221.00 7.96 219.68 7.48Q218.36 7 217.40 6.04L217.40 6.04L218.72 3.92Q220.32 5.52 222.56 5.52L222.56 5.52Q224.00 5.52 225.02 4.72Q226.04 3.92 226.92 2L226.92 2L227.84-0.04L218.44-21.04L221.40-21.04L229.32-3.16L237.24-21.04Z M255.12 7.76L255.12-29.68L257.76-29.68L257.76 7.76L255.12 7.76Z M286.64-4.56L286.64-14L289.48-14L289.48-3.32Q287.52-1.60 284.84-0.68Q282.16 0.24 279.20 0.24L279.20 0.24Q275 0.24 271.64-1.60Q268.28-3.44 266.36-6.70Q264.44-9.96 264.44-14L264.44-14Q264.44-18.04 266.36-21.30Q268.28-24.56 271.64-26.40Q275-28.24 279.24-28.24L279.24-28.24Q282.44-28.24 285.12-27.22Q287.80-26.20 289.64-24.20L289.64-24.20L287.80-22.32Q284.48-25.60 279.36-25.60L279.36-25.60Q275.96-25.60 273.22-24.10Q270.48-22.60 268.92-19.94Q267.36-17.28 267.36-14L267.36-14Q267.36-10.72 268.92-8.08Q270.48-5.44 273.20-3.92Q275.92-2.40 279.32-2.40L279.32-2.40Q283.64-2.40 286.64-4.56L286.64-4.56Z M304.60-21.20Q308.72-21.20 310.92-19.14Q313.12-17.08 313.12-13.04L313.12-13.04L313.12 0L310.40 0L310.40-3.28Q309.44-1.64 307.58-0.72Q305.72 0.20 303.16 0.20L303.16 0.20Q299.64 0.20 297.56-1.48Q295.48-3.16 295.48-5.92L295.48-5.92Q295.48-8.60 297.42-10.24Q299.36-11.88 303.60-11.88L303.60-11.88L310.28-11.88L310.28-13.16Q310.28-15.88 308.76-17.30Q307.24-18.72 304.32-18.72L304.32-18.72Q302.32-18.72 300.48-18.06Q298.64-17.40 297.32-16.24L297.32-16.24L296.04-18.36Q297.64-19.72 299.88-20.46Q302.12-21.20 304.60-21.20L304.60-21.20ZM303.60-2.04Q306.00-2.04 307.72-3.14Q309.44-4.24 310.28-6.32L310.28-6.32L310.28-9.76L303.68-9.76Q298.28-9.76 298.28-6L298.28-6Q298.28-4.16 299.68-3.10Q301.08-2.04 303.60-2.04L303.60-2.04Z M347.08-21.20Q351.04-21.20 353.30-18.92Q355.56-16.64 355.56-12.20L355.56-12.20L355.56 0L352.72 0L352.72-11.92Q352.72-15.20 351.14-16.92Q349.56-18.64 346.68-18.64L346.68-18.64Q343.40-18.64 341.52-16.62Q339.64-14.60 339.64-11.04L339.64-11.04L339.64 0L336.80 0L336.80-11.92Q336.80-15.20 335.22-16.92Q333.64-18.64 330.72-18.64L330.72-18.64Q327.48-18.64 325.58-16.62Q323.68-14.60 323.68-11.04L323.68-11.04L323.68 0L320.84 0L320.84-21.04L323.56-21.04L323.56-17.20Q324.68-19.12 326.68-20.16Q328.68-21.20 331.28-21.20L331.28-21.20Q333.92-21.20 335.86-20.08Q337.80-18.96 338.76-16.76L338.76-16.76Q339.92-18.84 342.10-20.02Q344.28-21.20 347.08-21.20L347.08-21.20Z M363.28 0L363.28-21.04L366.12-21.04L366.12 0L363.28 0ZM364.72-25.64Q363.84-25.64 363.24-26.24Q362.64-26.84 362.64-27.68L362.64-27.68Q362.64-28.48 363.24-29.08Q363.84-29.68 364.72-29.68L364.72-29.68Q365.60-29.68 366.20-29.10Q366.80-28.52 366.80-27.72L366.80-27.72Q366.80-26.84 366.20-26.24Q365.60-25.64 364.72-25.64L364.72-25.64Z M384.76-21.20Q388.72-21.20 391.06-18.90Q393.40-16.60 393.40-12.20L393.40-12.20L393.40 0L390.56 0L390.56-11.92Q390.56-15.20 388.92-16.92Q387.28-18.64 384.24-18.64L384.24-18.64Q380.84-18.64 378.86-16.62Q376.88-14.60 376.88-11.04L376.88-11.04L376.88 0L374.04 0L374.04-21.04L376.76-21.04L376.76-17.16Q377.92-19.08 379.98-20.14Q382.04-21.20 384.76-21.20L384.76-21.20Z M417.96-21.04L420.68-21.04L420.68-2.56Q420.68 2.80 418.06 5.38Q415.44 7.96 410.16 7.96L410.16 7.96Q407.24 7.96 404.62 7.10Q402 6.24 400.36 4.72L400.36 4.72L401.80 2.56Q403.32 3.92 405.50 4.68Q407.68 5.44 410.08 5.44L410.08 5.44Q414.08 5.44 415.96 3.58Q417.84 1.72 417.84-2.20L417.84-2.20L417.84-4.88Q416.52-2.88 414.38-1.84Q412.24-0.80 409.64-0.80L409.64-0.80Q406.68-0.80 404.26-2.10Q401.84-3.40 400.46-5.74Q399.08-8.08 399.08-11.04L399.08-11.04Q399.08-14 400.46-16.32Q401.84-18.64 404.24-19.92Q406.64-21.20 409.64-21.20L409.64-21.20Q412.32-21.20 414.48-20.12Q416.64-19.04 417.96-17L417.96-17L417.96-21.04ZM409.92-3.32Q412.20-3.32 414.04-4.30Q415.88-5.28 416.90-7.04Q417.92-8.80 417.92-11.04L417.92-11.04Q417.92-13.28 416.90-15.02Q415.88-16.76 414.06-17.74Q412.24-18.72 409.92-18.72L409.92-18.72Q407.64-18.72 405.82-17.76Q404-16.80 402.98-15.04Q401.96-13.28 401.96-11.04L401.96-11.04Q401.96-8.80 402.98-7.04Q404-5.28 405.82-4.30Q407.64-3.32 409.92-3.32L409.92-3.32Z M446.48-21.20Q450.60-21.20 452.80-19.14Q455-17.08 455-13.04L455-13.04L455 0L452.28 0L452.28-3.28Q451.32-1.64 449.46-0.72Q447.60 0.20 445.04 0.20L445.04 0.20Q441.52 0.20 439.44-1.48Q437.36-3.16 437.36-5.92L437.36-5.92Q437.36-8.60 439.30-10.24Q441.24-11.88 445.48-11.88L445.48-11.88L452.16-11.88L452.16-13.16Q452.16-15.88 450.64-17.30Q449.12-18.72 446.20-18.72L446.20-18.72Q444.20-18.72 442.36-18.06Q440.52-17.40 439.20-16.24L439.20-16.24L437.92-18.36Q439.52-19.72 441.76-20.46Q444-21.20 446.48-21.20L446.48-21.20ZM445.48-2.04Q447.88-2.04 449.60-3.14Q451.32-4.24 452.16-6.32L452.16-6.32L452.16-9.76L445.56-9.76Q440.16-9.76 440.16-6L440.16-6Q440.16-4.16 441.56-3.10Q442.96-2.04 445.48-2.04L445.48-2.04Z M473.44-21.20Q477.40-21.20 479.74-18.90Q482.08-16.60 482.08-12.20L482.08-12.20L482.08 0L479.24 0L479.24-11.92Q479.24-15.20 477.60-16.92Q475.96-18.64 472.92-18.64L472.92-18.64Q469.52-18.64 467.54-16.62Q465.56-14.60 465.56-11.04L465.56-11.04L465.56 0L462.72 0L462.72-21.04L465.44-21.04L465.44-17.16Q466.60-19.08 468.66-20.14Q470.72-21.20 473.44-21.20L473.44-21.20Z M506.24-29.68L509.08-29.68L509.08 0L506.36 0L506.36-4.16Q505.08-2.04 502.98-0.92Q500.88 0.20 498.24 0.20L498.24 0.20Q495.28 0.20 492.88-1.16Q490.48-2.52 489.12-4.96Q487.76-7.40 487.76-10.52L487.76-10.52Q487.76-13.64 489.12-16.08Q490.48-18.52 492.88-19.86Q495.28-21.20 498.24-21.20L498.24-21.20Q500.80-21.20 502.86-20.14Q504.92-19.08 506.24-17.04L506.24-17.04L506.24-29.68ZM498.48-2.32Q500.68-2.32 502.46-3.34Q504.24-4.36 505.26-6.24Q506.28-8.12 506.28-10.52L506.28-10.52Q506.28-12.92 505.26-14.80Q504.24-16.68 502.46-17.70Q500.68-18.72 498.48-18.72L498.48-18.72Q496.24-18.72 494.46-17.70Q492.68-16.68 491.66-14.80Q490.64-12.92 490.64-10.52L490.64-10.52Q490.64-8.12 491.66-6.24Q492.68-4.36 494.46-3.34Q496.24-2.32 498.48-2.32L498.48-2.32Z M540.24 0.24Q536.08 0.24 532.74-1.60Q529.40-3.44 527.50-6.70Q525.60-9.96 525.60-14L525.60-14Q525.60-18.04 527.50-21.30Q529.40-24.56 532.76-26.40Q536.12-28.24 540.28-28.24L540.28-28.24Q543.40-28.24 546.04-27.20Q548.68-26.16 550.52-24.16L550.52-24.16L548.64-22.28Q545.36-25.60 540.36-25.60L540.36-25.60Q537.04-25.60 534.32-24.08Q531.60-22.56 530.06-19.92Q528.52-17.28 528.52-14L528.52-14Q528.52-10.72 530.06-8.08Q531.60-5.44 534.32-3.92Q537.04-2.40 540.36-2.40L540.36-2.40Q545.40-2.40 548.64-5.76L548.64-5.76L550.52-3.88Q548.68-1.88 546.02-0.82Q543.36 0.24 540.24 0.24L540.24 0.24Z M563.92 0.20Q560.88 0.20 558.44-1.18Q556-2.56 554.60-5Q553.20-7.44 553.20-10.52L553.20-10.52Q553.20-13.60 554.60-16.04Q556-18.48 558.44-19.84Q560.88-21.20 563.92-21.20L563.92-21.20Q566.96-21.20 569.40-19.84Q571.84-18.48 573.22-16.04Q574.60-13.60 574.60-10.52L574.60-10.52Q574.60-7.44 573.22-5Q571.84-2.56 569.40-1.18Q566.96 0.20 563.92 0.20L563.92 0.20ZM563.92-2.32Q566.16-2.32 567.94-3.34Q569.72-4.36 570.72-6.24Q571.72-8.12 571.72-10.52L571.72-10.52Q571.72-12.92 570.72-14.80Q569.72-16.68 567.94-17.70Q566.16-18.72 563.92-18.72L563.92-18.72Q561.68-18.72 559.90-17.70Q558.12-16.68 557.10-14.80Q556.08-12.92 556.08-10.52L556.08-10.52Q556.08-8.12 557.10-6.24Q558.12-4.36 559.90-3.34Q561.68-2.32 563.92-2.32L563.92-2.32Z M596.76-29.68L599.60-29.68L599.60 0L596.88 0L596.88-4.16Q595.60-2.04 593.50-0.92Q591.40 0.20 588.76 0.20L588.76 0.20Q585.80 0.20 583.40-1.16Q581-2.52 579.64-4.96Q578.28-7.40 578.28-10.52L578.28-10.52Q578.28-13.64 579.64-16.08Q581-18.52 583.40-19.86Q585.80-21.20 588.76-21.20L588.76-21.20Q591.32-21.20 593.38-20.14Q595.44-19.08 596.76-17.04L596.76-17.04L596.76-29.68ZM589-2.32Q591.20-2.32 592.98-3.34Q594.76-4.36 595.78-6.24Q596.80-8.12 596.80-10.52L596.80-10.52Q596.80-12.92 595.78-14.80Q594.76-16.68 592.98-17.70Q591.20-18.72 589-18.72L589-18.72Q586.76-18.72 584.98-17.70Q583.20-16.68 582.18-14.80Q581.16-12.92 581.16-10.52L581.16-10.52Q581.16-8.12 582.18-6.24Q583.20-4.36 584.98-3.34Q586.76-2.32 589-2.32L589-2.32Z M625.88-10.52L625.84-9.64L608.24-9.64Q608.48-6.36 610.76-4.34Q613.04-2.32 616.52-2.32L616.52-2.32Q618.48-2.32 620.12-3.02Q621.76-3.72 622.96-5.08L622.96-5.08L624.56-3.24Q623.16-1.56 621.06-0.68Q618.96 0.20 616.44 0.20L616.44 0.20Q613.20 0.20 610.70-1.18Q608.20-2.56 606.80-5Q605.40-7.44 605.40-10.52L605.40-10.52Q605.40-13.60 606.74-16.04Q608.08-18.48 610.42-19.84Q612.76-21.20 615.68-21.20L615.68-21.20Q618.60-21.20 620.92-19.84Q623.24-18.48 624.56-16.06Q625.88-13.64 625.88-10.52L625.88-10.52ZM615.68-18.76Q612.64-18.76 610.58-16.82Q608.52-14.88 608.24-11.76L608.24-11.76L623.16-11.76Q622.88-14.88 620.82-16.82Q618.76-18.76 615.68-18.76L615.68-18.76Z M632.28 7.76L632.28-29.68L634.92-29.68L634.92 7.76L632.28 7.76Z M673.76-25.44L657.52-25.44L657.52-14.44L672-14.44L672-11.88L657.52-11.88L657.52 0L654.56 0L654.56-28L673.76-28L673.76-25.44Z M681.60-16.92Q682.60-19.04 684.58-20.12Q686.56-21.20 689.48-21.20L689.48-21.20L689.48-18.44L688.80-18.48Q685.48-18.48 683.60-16.44Q681.72-14.40 681.72-10.72L681.72-10.72L681.72 0L678.88 0L678.88-21.04L681.60-21.04L681.60-16.92Z"/></g>
</svg>
</g></svg></svg>