<svg version="1.1" preserveAspectRatio="none" xmlns="http://www.w3.org/2000/svg" width="500" height="500" viewBox="0 0 500 500"><rect width="100%" height="100%" fill="#FBFBFB" fill-opacity="1"/><svg viewBox="89.7135 362.4 453.2154 182" width="333" height="133.7244939161379" x="83.5px" y="183.1378px" xmlns="http://www.w3.org/2000/svg" xmlns:xlink="http://www.w3.org/1999/xlink" preserveAspectRatio="none"><defs></defs><style>.companyName {fill:#535353;fill-opacity:1;}.icon1 {fill:#F7CEC1;fill-opacity:1;}.icon3-str {stroke:#9C9C9C;stroke-opacity:1;}.shapeStroke-str {stroke:#535353;stroke-opacity:1;}.text {fill:#535353;fill-opacity:1;}</style><g opacity="1" transform="rotate(0 89.7135 517.4)">
<svg width="453.2154" height="27" x="89.7135" y="517.4" version="1.1" preserveAspectRatio="none" viewBox="1.92 -31.4 661.36 39.4">
  <g transform="matrix(1 0 0 1 0 0)" class="text"><path id="id-6izo4zJp30" d="M24.20-25.92Q24.80-25.56 24.80-24.92L24.80-24.92Q24.80-24.56 24.52-24.12L24.52-24.12Q24.16-23.68 23.60-23.68L23.60-23.68Q23.28-23.68 22.96-23.88L22.96-23.88Q19.76-26 15.96-26L15.96-26Q12.72-26 10.10-24.48Q7.48-22.96 5.98-20.22Q4.48-17.48 4.48-14L4.48-14Q4.48-10.44 6-7.70Q7.52-4.96 10.14-3.46Q12.76-1.96 15.96-1.96L15.96-1.96Q19.76-1.96 22.92-4.04L22.92-4.04Q23.24-4.24 23.60-4.24L23.60-4.24Q24.16-4.24 24.52-3.76L24.52-3.76Q24.80-3.44 24.80-3L24.80-3Q24.80-2.36 24.24-2.04L24.24-2.04Q22.68-1 20.40-0.30Q18.12 0.40 15.96 0.40L15.96 0.40Q12.16 0.40 8.94-1.42Q5.72-3.24 3.82-6.52Q1.92-9.80 1.92-14L1.92-14Q1.92-18.04 3.80-21.34Q5.68-24.64 8.88-26.50Q12.08-28.36 15.96-28.36L15.96-28.36Q18.20-28.36 20.34-27.72Q22.48-27.08 24.20-25.92L24.20-25.92Z M49.36-10.24Q49.36-7.24 48.04-4.80Q46.72-2.36 44.40-0.98Q42.08 0.40 39.24 0.40L39.24 0.40Q36.40 0.40 34.08-0.98Q31.76-2.36 30.44-4.80Q29.12-7.24 29.12-10.24L29.12-10.24Q29.12-13.24 30.44-15.68Q31.76-18.12 34.08-19.52Q36.40-20.92 39.24-20.92L39.24-20.92Q42.08-20.92 44.40-19.52Q46.72-18.12 48.04-15.68Q49.36-13.24 49.36-10.24L49.36-10.24ZM46.96-10.24Q46.96-12.64 45.96-14.56Q44.96-16.48 43.18-17.58Q41.40-18.68 39.24-18.68L39.24-18.68Q37.08-18.68 35.32-17.58Q33.56-16.48 32.54-14.56Q31.52-12.64 31.52-10.24L31.52-10.24Q31.52-7.88 32.54-5.96Q33.56-4.04 35.32-2.94Q37.08-1.84 39.24-1.84L39.24-1.84Q41.40-1.84 43.18-2.92Q44.96-4 45.96-5.92Q46.96-7.84 46.96-10.24L46.96-10.24Z M78.68-20.60Q82.28-20.60 83.98-18.38Q85.68-16.16 85.68-12.52L85.68-12.52L85.68-1.20Q85.68-0.68 85.34-0.34Q85 0 84.48 0L84.48 0Q83.96 0 83.62-0.34Q83.28-0.68 83.28-1.20L83.28-1.20L83.28-12.40Q83.28-15.04 82.02-16.70Q80.76-18.36 78.12-18.36L78.12-18.36Q76.44-18.36 74.94-17.56Q73.44-16.76 72.52-15.38Q71.60-14 71.60-12.40L71.60-12.40L71.60-1.20Q71.60-0.68 71.26-0.34Q70.92 0 70.40 0L70.40 0Q69.88 0 69.54-0.34Q69.20-0.68 69.20-1.20L69.20-1.20L69.20-12.52Q69.20-15.12 68-16.74Q66.80-18.36 64.24-18.36L64.24-18.36Q62.60-18.36 61.14-17.56Q59.68-16.76 58.78-15.42Q57.88-14.08 57.88-12.52L57.88-12.52L57.88-1.20Q57.88-0.68 57.54-0.34Q57.20 0 56.68 0L56.68 0Q56.16 0 55.82-0.34Q55.48-0.68 55.48-1.20L55.48-1.20L55.48-19.12Q55.48-19.64 55.82-19.98Q56.16-20.32 56.68-20.32L56.68-20.32Q57.20-20.32 57.54-19.98Q57.88-19.64 57.88-19.12L57.88-19.12L57.88-16.80Q58.96-18.44 60.80-19.52Q62.64-20.60 64.68-20.60L64.68-20.60Q67-20.60 68.68-19.48Q70.36-18.36 71.08-16.20L71.08-16.20Q71.92-17.96 74.16-19.28Q76.40-20.60 78.68-20.60L78.68-20.60Z M116.36-20.60Q119.96-20.60 121.66-18.38Q123.36-16.16 123.36-12.52L123.36-12.52L123.36-1.20Q123.36-0.68 123.02-0.34Q122.68 0 122.16 0L122.16 0Q121.64 0 121.30-0.34Q120.96-0.68 120.96-1.20L120.96-1.20L120.96-12.40Q120.96-15.04 119.70-16.70Q118.44-18.36 115.80-18.36L115.80-18.36Q114.12-18.36 112.62-17.56Q111.12-16.76 110.20-15.38Q109.28-14 109.28-12.40L109.28-12.40L109.28-1.20Q109.28-0.68 108.94-0.34Q108.60 0 108.08 0L108.08 0Q107.56 0 107.22-0.34Q106.88-0.68 106.88-1.20L106.88-1.20L106.88-12.52Q106.88-15.12 105.68-16.74Q104.48-18.36 101.92-18.36L101.92-18.36Q100.28-18.36 98.82-17.56Q97.36-16.76 96.46-15.42Q95.56-14.08 95.56-12.52L95.56-12.52L95.56-1.20Q95.56-0.68 95.22-0.34Q94.88 0 94.36 0L94.36 0Q93.84 0 93.50-0.34Q93.16-0.68 93.16-1.20L93.16-1.20L93.16-19.12Q93.16-19.64 93.50-19.98Q93.84-20.32 94.36-20.32L94.36-20.32Q94.88-20.32 95.22-19.98Q95.56-19.64 95.56-19.12L95.56-19.12L95.56-16.80Q96.64-18.44 98.48-19.52Q100.32-20.60 102.36-20.60L102.36-20.60Q104.68-20.60 106.36-19.48Q108.04-18.36 108.76-16.20L108.76-16.20Q109.60-17.96 111.84-19.28Q114.08-20.60 116.36-20.60L116.36-20.60Z M146.12-20.32Q146.64-20.32 146.98-19.98Q147.32-19.64 147.32-19.12L147.32-19.12L147.32-7.84Q147.32-3.92 145.12-1.82Q142.92 0.28 139.04 0.28L139.04 0.28Q135.20 0.28 133.02-1.82Q130.84-3.92 130.84-7.84L130.84-7.84L130.84-19.12Q130.84-19.64 131.18-19.98Q131.52-20.32 132.04-20.32L132.04-20.32Q132.56-20.32 132.90-19.98Q133.24-19.64 133.24-19.12L133.24-19.12L133.24-7.84Q133.24-4.96 134.76-3.46Q136.28-1.96 139.04-1.96L139.04-1.96Q141.84-1.96 143.38-3.46Q144.92-4.96 144.92-7.84L144.92-7.84L144.92-19.12Q144.92-19.64 145.26-19.98Q145.60-20.32 146.12-20.32L146.12-20.32Z M164.44-20.92Q168.16-20.92 169.90-18.74Q171.64-16.56 171.64-12.96L171.64-12.96L171.64-1.20Q171.64-0.68 171.28-0.34Q170.92 0 170.44 0L170.44 0Q169.92 0 169.58-0.34Q169.24-0.68 169.24-1.20L169.24-1.20L169.24-12.84Q169.24-15.44 167.94-17.06Q166.64-18.68 163.92-18.68L163.92-18.68Q162.20-18.68 160.66-17.88Q159.12-17.08 158.16-15.74Q157.20-14.40 157.20-12.84L157.20-12.84L157.20-1.20Q157.20-0.68 156.86-0.34Q156.52 0 156.00 0L156.00 0Q155.48 0 155.14-0.34Q154.80-0.68 154.80-1.20L154.80-1.20L154.80-19.12Q154.80-19.64 155.14-19.98Q155.48-20.32 156.00-20.32L156.00-20.32Q156.52-20.32 156.86-19.98Q157.20-19.64 157.20-19.12L157.20-19.12L157.20-16.92Q158.28-18.64 160.30-19.78Q162.32-20.92 164.44-20.92L164.44-20.92Z M181.44-1.20Q181.44-0.68 181.10-0.34Q180.76 0 180.24 0L180.24 0Q179.72 0 179.38-0.34Q179.04-0.68 179.04-1.20L179.04-1.20L179.04-19.60Q179.04-20.12 179.38-20.46Q179.72-20.80 180.24-20.80L180.24-20.80Q180.76-20.80 181.10-20.46Q181.44-20.12 181.44-19.60L181.44-19.60L181.44-1.20ZM180.24-23.48Q179.44-23.48 179-23.86Q178.56-24.24 178.56-24.96L178.56-24.96L178.56-25.36Q178.56-26.08 179.02-26.46Q179.48-26.84 180.28-26.84L180.28-26.84Q181.88-26.84 181.88-25.36L181.88-25.36L181.88-24.96Q181.88-24.24 181.46-23.86Q181.04-23.48 180.24-23.48L180.24-23.48Z M196.88-18.12L192.88-18.12L192.88-4.72Q192.88-3.20 193.44-2.66Q194-2.12 194.92-2.12L194.92-2.12Q195.16-2.12 195.52-2.22Q195.88-2.32 196.08-2.32L196.08-2.32Q196.44-2.32 196.70-2.02Q196.96-1.72 196.96-1.32L196.96-1.32Q196.96-0.76 196.32-0.38Q195.68 0 194.80 0L194.80 0Q193.72 0 192.88-0.20Q192.04-0.40 191.26-1.40Q190.48-2.40 190.48-4.60L190.48-4.60L190.48-18.12L187.56-18.12Q187.08-18.12 186.74-18.44Q186.40-18.76 186.40-19.24L186.40-19.24Q186.40-19.72 186.74-20.04Q187.08-20.36 187.56-20.36L187.56-20.36L190.48-20.36L190.48-24.80Q190.48-25.32 190.82-25.66Q191.16-26 191.68-26L191.68-26Q192.20-26 192.54-25.66Q192.88-25.32 192.88-24.80L192.88-24.80L192.88-20.36L196.88-20.36Q197.32-20.36 197.66-20Q198-19.64 198-19.20L198-19.20Q198-18.72 197.68-18.42Q197.36-18.12 196.88-18.12L196.88-18.12Z M218.88-20.80Q219.40-20.80 219.74-20.46Q220.08-20.12 220.08-19.60L220.08-19.60L220.08-1.96Q220.08 1.20 218.84 3.44Q217.60 5.68 215.40 6.84Q213.20 8 210.44 8L210.44 8Q208.76 8 207.30 7.64Q205.84 7.28 204.88 6.68L204.88 6.68Q204.04 6.16 204.04 5.52L204.04 5.52Q204.04 5.44 204.12 5.12L204.12 5.12Q204.24 4.72 204.52 4.52Q204.80 4.32 205.12 4.32L205.12 4.32Q205.36 4.32 205.60 4.44L205.60 4.44Q208.16 5.84 210.48 5.84L210.48 5.84Q213.80 5.84 215.74 3.76Q217.68 1.68 217.68-1.92L217.68-1.92L217.68-3.32Q216.68-1.64 214.80-0.62Q212.92 0.40 210.72 0.40L210.72 0.40Q207.24 0.40 205.44-1.68Q203.64-3.76 203.64-7.32L203.64-7.32L203.64-19.60Q203.64-20.12 203.98-20.46Q204.32-20.80 204.84-20.80L204.84-20.80Q205.36-20.80 205.70-20.46Q206.04-20.12 206.04-19.60L206.04-19.60L206.04-7.68Q206.04-4.80 207.30-3.32Q208.56-1.84 211.24-1.84L211.24-1.84Q212.88-1.84 214.38-2.66Q215.88-3.48 216.78-4.82Q217.68-6.16 217.68-7.68L217.68-7.68L217.68-19.60Q217.68-20.12 218.02-20.46Q218.36-20.80 218.88-20.80L218.88-20.80Z M241.80 6.04Q241.80 6.56 241.46 6.90Q241.12 7.24 240.60 7.24L240.60 7.24Q240.08 7.24 239.74 6.90Q239.40 6.56 239.40 6.04L239.40 6.04L239.40-30.20Q239.40-30.72 239.76-31.06Q240.12-31.40 240.64-31.40L240.64-31.40Q241.16-31.40 241.48-31.06Q241.80-30.72 241.80-30.20L241.80-30.20L241.80 6.04Z M270.12-14.12Q270.64-14.12 270.98-13.78Q271.32-13.44 271.32-12.92L271.32-12.92L271.32-3.28Q271.32-2.60 270.72-2.20L270.72-2.20Q268.92-0.96 266.72-0.28Q264.52 0.40 262.24 0.40L262.24 0.40Q258.16 0.40 254.88-1.48Q251.60-3.36 249.72-6.64Q247.84-9.92 247.84-14L247.84-14Q247.84-18.08 249.72-21.36Q251.60-24.64 254.88-26.52Q258.16-28.40 262.24-28.40L262.24-28.40Q264.36-28.40 266.34-27.88Q268.32-27.36 269.88-26.40L269.88-26.40Q270.44-26.04 270.44-25.40L270.44-25.40Q270.44-24.88 270.10-24.52Q269.76-24.16 269.32-24.16L269.32-24.16Q268.92-24.16 268.60-24.36L268.60-24.36Q265.60-26 262.24-26L262.24-26Q258.84-26 256.14-24.44Q253.44-22.88 251.92-20.14Q250.40-17.40 250.40-14L250.40-14Q250.40-10.60 251.92-7.86Q253.44-5.12 256.14-3.56Q258.84-2 262.24-2L262.24-2Q263.96-2 265.70-2.48Q267.44-2.96 268.80-3.80L268.80-3.80L268.80-11.72L262.48-11.72Q261.96-11.72 261.60-12.06Q261.24-12.40 261.24-12.92L261.24-12.92Q261.24-13.44 261.60-13.78Q261.96-14.12 262.48-14.12L262.48-14.12L270.12-14.12Z M295.24-20.44Q295.76-20.44 296.10-20.08Q296.44-19.72 296.44-19.20L296.44-19.20L296.44-1.20Q296.44-0.68 296.10-0.34Q295.76 0 295.24 0L295.24 0Q294.72 0 294.38-0.34Q294.04-0.68 294.04-1.20L294.04-1.20L294.04-3.88Q293.04-2.08 291.04-0.84Q289.04 0.40 286.68 0.40L286.68 0.40Q284.00 0.40 281.86-1Q279.72-2.40 278.50-4.84Q277.28-7.28 277.28-10.32L277.28-10.32Q277.28-13.36 278.52-15.78Q279.76-18.20 281.90-19.56Q284.04-20.92 286.64-20.92L286.64-20.92Q289.04-20.92 291.04-19.76Q293.04-18.60 294.04-16.72L294.04-16.72L294.04-19.20Q294.04-19.72 294.38-20.08Q294.72-20.44 295.24-20.44L295.24-20.44ZM286.92-1.84Q289.00-1.84 290.66-2.94Q292.32-4.04 293.26-5.98Q294.20-7.92 294.20-10.32L294.20-10.32Q294.20-12.64 293.26-14.56Q292.32-16.48 290.66-17.58Q289.00-18.68 286.92-18.68L286.92-18.68Q284.84-18.68 283.18-17.60Q281.52-16.52 280.58-14.62Q279.64-12.72 279.64-10.32L279.64-10.32Q279.64-7.92 280.56-5.98Q281.48-4.04 283.14-2.94Q284.80-1.84 286.92-1.84L286.92-1.84Z M327.12-20.60Q330.72-20.60 332.42-18.38Q334.12-16.16 334.12-12.52L334.12-12.52L334.12-1.20Q334.12-0.68 333.78-0.34Q333.44 0 332.92 0L332.92 0Q332.40 0 332.06-0.34Q331.72-0.68 331.72-1.20L331.72-1.20L331.72-12.40Q331.72-15.04 330.46-16.70Q329.20-18.36 326.56-18.36L326.56-18.36Q324.88-18.36 323.38-17.56Q321.88-16.76 320.96-15.38Q320.04-14 320.04-12.40L320.04-12.40L320.04-1.20Q320.04-0.68 319.70-0.34Q319.36 0 318.84 0L318.84 0Q318.32 0 317.98-0.34Q317.64-0.68 317.64-1.20L317.64-1.20L317.64-12.52Q317.64-15.12 316.44-16.74Q315.24-18.36 312.68-18.36L312.68-18.36Q311.04-18.36 309.58-17.56Q308.12-16.76 307.22-15.42Q306.32-14.08 306.32-12.52L306.32-12.52L306.32-1.20Q306.32-0.68 305.98-0.34Q305.64 0 305.12 0L305.12 0Q304.60 0 304.26-0.34Q303.92-0.68 303.92-1.20L303.92-1.20L303.92-19.12Q303.92-19.64 304.26-19.98Q304.60-20.32 305.12-20.32L305.12-20.32Q305.64-20.32 305.98-19.98Q306.32-19.64 306.32-19.12L306.32-19.12L306.32-16.80Q307.40-18.44 309.24-19.52Q311.08-20.60 313.12-20.60L313.12-20.60Q315.44-20.60 317.12-19.48Q318.80-18.36 319.52-16.20L319.52-16.20Q320.36-17.96 322.60-19.28Q324.84-20.60 327.12-20.60L327.12-20.60Z M343.92-1.20Q343.92-0.68 343.58-0.34Q343.24 0 342.72 0L342.72 0Q342.20 0 341.86-0.34Q341.52-0.68 341.52-1.20L341.52-1.20L341.52-19.60Q341.52-20.12 341.86-20.46Q342.20-20.80 342.72-20.80L342.72-20.80Q343.24-20.80 343.58-20.46Q343.92-20.12 343.92-19.60L343.92-19.60L343.92-1.20ZM342.72-23.48Q341.92-23.48 341.48-23.86Q341.04-24.24 341.04-24.96L341.04-24.96L341.04-25.36Q341.04-26.08 341.50-26.46Q341.96-26.84 342.76-26.84L342.76-26.84Q344.36-26.84 344.36-25.36L344.36-25.36L344.36-24.96Q344.36-24.24 343.94-23.86Q343.52-23.48 342.72-23.48L342.72-23.48Z M361.00-20.92Q364.72-20.92 366.46-18.74Q368.20-16.56 368.20-12.96L368.20-12.96L368.20-1.20Q368.20-0.68 367.84-0.34Q367.48 0 367.00 0L367.00 0Q366.48 0 366.14-0.34Q365.80-0.68 365.80-1.20L365.80-1.20L365.80-12.84Q365.80-15.44 364.50-17.06Q363.20-18.68 360.48-18.68L360.48-18.68Q358.76-18.68 357.22-17.88Q355.68-17.08 354.72-15.74Q353.76-14.40 353.76-12.84L353.76-12.84L353.76-1.20Q353.76-0.68 353.42-0.34Q353.08 0 352.56 0L352.56 0Q352.04 0 351.70-0.34Q351.36-0.68 351.36-1.20L351.36-1.20L351.36-19.12Q351.36-19.64 351.70-19.98Q352.04-20.32 352.56-20.32L352.56-20.32Q353.08-20.32 353.42-19.98Q353.76-19.64 353.76-19.12L353.76-19.12L353.76-16.92Q354.84-18.64 356.86-19.78Q358.88-20.92 361.00-20.92L361.00-20.92Z M392.96-20.44Q393.48-20.44 393.82-20.10Q394.16-19.76 394.16-19.20L394.16-19.20L394.16-1.88Q394.16 1.24 392.86 3.46Q391.56 5.68 389.30 6.84Q387.04 8 384.12 8L384.12 8Q382.72 8 381.18 7.64Q379.64 7.28 378.54 6.72Q377.44 6.16 377.28 5.56L377.28 5.56Q377.00 5.28 377.00 4.92L377.00 4.92Q377.00 4.52 377.36 4.28L377.36 4.28Q377.52 4.16 377.76 4.16L377.76 4.16Q378.00 4.16 378.68 4.44L378.68 4.44L379.52 4.80Q382.00 5.76 384.16 5.76L384.16 5.76Q387.72 5.76 389.74 3.74Q391.76 1.72 391.76-1.72L391.76-1.72L391.76-4.20Q390.76-2.04 388.60-0.82Q386.44 0.40 384.08 0.40L384.08 0.40Q381.32 0.40 379.10-0.98Q376.88-2.36 375.60-4.80Q374.32-7.24 374.32-10.28L374.32-10.28Q374.32-13.28 375.60-15.72Q376.88-18.16 379.10-19.54Q381.32-20.92 384.04-20.92L384.04-20.92Q386.56-20.92 388.66-19.66Q390.76-18.40 391.76-16.64L391.76-16.64L391.76-19.20Q391.76-19.72 392.10-20.08Q392.44-20.44 392.96-20.44L392.96-20.44ZM384.28-1.84Q386.48-1.84 388.22-2.90Q389.96-3.96 390.94-5.90Q391.92-7.84 391.92-10.28L391.92-10.28Q391.92-12.72 390.94-14.64Q389.96-16.56 388.22-17.62Q386.48-18.68 384.28-18.68L384.28-18.68Q382.12-18.68 380.38-17.58Q378.64-16.48 377.66-14.56Q376.68-12.64 376.68-10.28L376.68-10.28Q376.68-7.88 377.66-5.96Q378.64-4.04 380.38-2.94Q382.12-1.84 384.28-1.84L384.28-1.84Z M430.40-20.44Q430.92-20.44 431.26-20.08Q431.60-19.72 431.60-19.20L431.60-19.20L431.60-1.20Q431.60-0.68 431.26-0.34Q430.92 0 430.40 0L430.40 0Q429.88 0 429.54-0.34Q429.20-0.68 429.20-1.20L429.20-1.20L429.20-3.88Q428.20-2.08 426.20-0.84Q424.20 0.40 421.84 0.40L421.84 0.40Q419.16 0.40 417.02-1Q414.88-2.40 413.66-4.84Q412.44-7.28 412.44-10.32L412.44-10.32Q412.44-13.36 413.68-15.78Q414.92-18.20 417.06-19.56Q419.20-20.92 421.80-20.92L421.80-20.92Q424.20-20.92 426.20-19.76Q428.20-18.60 429.20-16.72L429.20-16.72L429.20-19.20Q429.20-19.72 429.54-20.08Q429.88-20.44 430.40-20.44L430.40-20.44ZM422.08-1.84Q424.16-1.84 425.82-2.94Q427.48-4.04 428.42-5.98Q429.36-7.92 429.36-10.32L429.36-10.32Q429.36-12.64 428.42-14.56Q427.48-16.48 425.82-17.58Q424.16-18.68 422.08-18.68L422.08-18.68Q420.00-18.68 418.34-17.60Q416.68-16.52 415.74-14.62Q414.80-12.72 414.80-10.32L414.80-10.32Q414.80-7.92 415.72-5.98Q416.64-4.04 418.30-2.94Q419.96-1.84 422.08-1.84L422.08-1.84Z M448.72-20.92Q452.44-20.92 454.18-18.74Q455.92-16.56 455.92-12.96L455.92-12.96L455.92-1.20Q455.92-0.68 455.56-0.34Q455.20 0 454.72 0L454.72 0Q454.20 0 453.86-0.34Q453.52-0.68 453.52-1.20L453.52-1.20L453.52-12.84Q453.52-15.44 452.22-17.06Q450.92-18.68 448.20-18.68L448.20-18.68Q446.48-18.68 444.94-17.88Q443.40-17.08 442.44-15.74Q441.48-14.40 441.48-12.84L441.48-12.84L441.48-1.20Q441.48-0.68 441.14-0.34Q440.80 0 440.28 0L440.28 0Q439.76 0 439.42-0.34Q439.08-0.68 439.08-1.20L439.08-1.20L439.08-19.12Q439.08-19.64 439.42-19.98Q439.76-20.32 440.28-20.32L440.28-20.32Q440.80-20.32 441.14-19.98Q441.48-19.64 441.48-19.12L441.48-19.12L441.48-16.92Q442.56-18.64 444.58-19.78Q446.60-20.92 448.72-20.92L448.72-20.92Z M480.00-29.60Q480.52-29.60 480.86-29.26Q481.20-28.92 481.20-28.40L481.20-28.40L481.20-1.20Q481.20-0.68 480.86-0.34Q480.52 0 480.00 0L480.00 0Q479.48 0 479.14-0.34Q478.80-0.68 478.80-1.20L478.80-1.20L478.80-4Q477.80-2.16 475.82-0.88Q473.84 0.40 471.44 0.40L471.44 0.40Q468.80 0.40 466.66-0.98Q464.52-2.36 463.28-4.80Q462.04-7.24 462.04-10.28L462.04-10.28Q462.04-13.28 463.28-15.72Q464.52-18.16 466.66-19.54Q468.80-20.92 471.40-20.92L471.40-20.92Q473.76-20.92 475.76-19.74Q477.76-18.56 478.80-16.68L478.80-16.68L478.80-28.40Q478.80-28.92 479.14-29.26Q479.48-29.60 480.00-29.60L480.00-29.60ZM471.68-1.84Q473.76-1.84 475.42-2.92Q477.08-4 478.02-5.94Q478.96-7.88 478.96-10.28L478.96-10.28Q478.96-12.64 478.02-14.56Q477.08-16.48 475.42-17.58Q473.76-18.68 471.68-18.68L471.68-18.68Q469.60-18.68 467.94-17.58Q466.28-16.48 465.34-14.56Q464.40-12.64 464.40-10.28L464.40-10.28Q464.40-7.88 465.34-5.96Q466.28-4.04 467.94-2.94Q469.60-1.84 471.68-1.84L471.68-1.84Z M509.64-20.92Q511.52-20.92 513.14-20.50Q514.76-20.08 515.74-19.36Q516.72-18.64 516.72-17.80L516.72-17.80Q516.72-17.36 516.42-17Q516.12-16.64 515.68-16.64L515.68-16.64Q515.28-16.64 515.02-16.80Q514.76-16.96 514.44-17.28L514.44-17.28Q513.92-17.80 513.44-18.04L513.44-18.04Q512.84-18.32 511.86-18.50Q510.88-18.68 509.76-18.68L509.76-18.68Q507.56-18.68 505.74-17.56Q503.92-16.44 502.88-14.52Q501.84-12.60 501.84-10.28L501.84-10.28Q501.84-7.88 502.84-5.96Q503.84-4.04 505.62-2.94Q507.40-1.84 509.68-1.84L509.68-1.84Q511.12-1.84 511.98-2.08Q512.84-2.32 513.68-2.76L513.68-2.76Q513.96-2.92 514.64-3.48L514.64-3.48Q514.96-3.76 515.20-3.90Q515.44-4.04 515.72-4.04L515.72-4.04Q516.20-4.04 516.48-3.74Q516.76-3.44 516.76-2.96L516.76-2.96Q516.76-2.28 515.80-1.50Q514.84-0.72 513.16-0.16Q511.48 0.40 509.44 0.40L509.44 0.40Q506.52 0.40 504.24-0.98Q501.96-2.36 500.70-4.80Q499.44-7.24 499.44-10.28L499.44-10.28Q499.44-13.20 500.72-15.62Q502.00-18.04 504.32-19.48Q506.64-20.92 509.64-20.92L509.64-20.92Z M541.44-10.24Q541.44-7.24 540.12-4.80Q538.80-2.36 536.48-0.98Q534.16 0.40 531.32 0.40L531.32 0.40Q528.48 0.40 526.16-0.98Q523.84-2.36 522.52-4.80Q521.20-7.24 521.20-10.24L521.20-10.24Q521.20-13.24 522.52-15.68Q523.84-18.12 526.16-19.52Q528.48-20.92 531.32-20.92L531.32-20.92Q534.16-20.92 536.48-19.52Q538.80-18.12 540.12-15.68Q541.44-13.24 541.44-10.24L541.44-10.24ZM539.04-10.24Q539.04-12.64 538.04-14.56Q537.04-16.48 535.26-17.58Q533.48-18.68 531.32-18.68L531.32-18.68Q529.16-18.68 527.40-17.58Q525.64-16.48 524.62-14.56Q523.60-12.64 523.60-10.24L523.60-10.24Q523.60-7.88 524.62-5.96Q525.64-4.04 527.40-2.94Q529.16-1.84 531.32-1.84L531.32-1.84Q533.48-1.84 535.26-2.92Q537.04-4 538.04-5.92Q539.04-7.84 539.04-10.24L539.04-10.24Z M564.16-29.60Q564.68-29.60 565.02-29.26Q565.36-28.92 565.36-28.40L565.36-28.40L565.36-1.20Q565.36-0.68 565.02-0.34Q564.68 0 564.16 0L564.16 0Q563.64 0 563.30-0.34Q562.96-0.68 562.96-1.20L562.96-1.20L562.96-4Q561.96-2.16 559.98-0.88Q558.00 0.40 555.60 0.40L555.60 0.40Q552.96 0.40 550.82-0.98Q548.68-2.36 547.44-4.80Q546.20-7.24 546.20-10.28L546.20-10.28Q546.20-13.28 547.44-15.72Q548.68-18.16 550.82-19.54Q552.96-20.92 555.56-20.92L555.56-20.92Q557.92-20.92 559.92-19.74Q561.92-18.56 562.96-16.68L562.96-16.68L562.96-28.40Q562.96-28.92 563.30-29.26Q563.64-29.60 564.16-29.60L564.16-29.60ZM555.84-1.84Q557.92-1.84 559.58-2.92Q561.24-4 562.18-5.94Q563.12-7.88 563.12-10.28L563.12-10.28Q563.12-12.64 562.18-14.56Q561.24-16.48 559.58-17.58Q557.92-18.68 555.84-18.68L555.84-18.68Q553.76-18.68 552.10-17.58Q550.44-16.48 549.50-14.56Q548.56-12.64 548.56-10.28L548.56-10.28Q548.56-7.88 549.50-5.96Q550.44-4.04 552.10-2.94Q553.76-1.84 555.84-1.84L555.84-1.84Z M590.12-11.40Q590.12-10.92 589.76-10.58Q589.40-10.24 588.92-10.24L588.92-10.24L573.80-10.24Q573.80-7.84 574.78-5.94Q575.76-4.04 577.58-2.94Q579.40-1.84 581.88-1.84L581.88-1.84Q583.80-1.84 585.32-2.64Q586.84-3.44 587.76-4.68L587.76-4.68Q588.20-5.04 588.60-5.04L588.60-5.04Q589-5.04 589.32-4.72Q589.64-4.40 589.64-4L589.64-4Q589.64-3.56 589.24-3.16L589.24-3.16Q587.96-1.60 586.02-0.60Q584.08 0.40 581.92 0.40L581.92 0.40Q578.84 0.40 576.48-0.92Q574.12-2.24 572.80-4.62Q571.48-7 571.48-10.12L571.48-10.12Q571.48-13.40 572.78-15.86Q574.08-18.32 576.24-19.62Q578.40-20.92 580.84-20.92L580.84-20.92Q583.24-20.92 585.34-19.80Q587.44-18.68 588.76-16.52Q590.08-14.36 590.12-11.40L590.12-11.40ZM580.84-18.60Q578.52-18.60 576.54-17Q574.56-15.40 574-12.40L574-12.40L587.64-12.40L587.64-12.72Q587.44-14.52 586.44-15.86Q585.44-17.20 583.94-17.90Q582.44-18.60 580.84-18.60L580.84-18.60Z M598.40 6.04Q598.40 6.56 598.06 6.90Q597.72 7.24 597.20 7.24L597.20 7.24Q596.68 7.24 596.34 6.90Q596 6.56 596 6.04L596 6.04L596-30.20Q596-30.72 596.36-31.06Q596.72-31.40 597.24-31.40L597.24-31.40Q597.76-31.40 598.08-31.06Q598.40-30.72 598.40-30.20L598.40-30.20L598.40 6.04Z M634.16-28Q634.68-28 635.02-27.66Q635.36-27.32 635.36-26.80L635.36-26.80Q635.36-26.32 635.02-25.98Q634.68-25.64 634.16-25.64L634.16-25.64L620.84-25.64L620.84-15.60L632.36-15.60Q632.88-15.60 633.22-15.28Q633.56-14.96 633.56-14.44L633.56-14.44Q633.56-13.92 633.22-13.60Q632.88-13.28 632.36-13.28L632.36-13.28L620.84-13.28L620.84-1.20Q620.84-0.68 620.50-0.34Q620.16 0 619.64 0L619.64 0Q619.08 0 618.74-0.34Q618.40-0.68 618.40-1.20L618.40-1.20L618.40-26.80Q618.40-27.32 618.74-27.66Q619.08-28 619.60-28L619.60-28L634.16-28Z M662.68-2.16Q663.28-1.76 663.28-1.16L663.28-1.16Q663.28-0.96 663.12-0.64L663.12-0.64Q662.96-0.36 662.68-0.20Q662.40-0.04 662.08-0.04L662.08-0.04Q661.68-0.04 661.40-0.20L661.40-0.20Q660.28-0.84 659.60-2.28Q658.92-3.72 658.92-6.88L658.92-6.88Q658.92-9.68 657.36-10.82Q655.80-11.96 653.64-11.96L653.64-11.96L644.76-11.96L644.76-1.20Q644.76-0.68 644.44-0.34Q644.12 0 643.60 0L643.60 0Q643.04 0 642.64-0.34Q642.24-0.68 642.24-1.20L642.24-1.20L642.24-26.80Q642.24-27.32 642.58-27.66Q642.92-28 643.44-28L643.44-28L654.24-28Q656.52-28 658.32-27.02Q660.12-26.04 661.14-24.32Q662.16-22.60 662.16-20.44L662.16-20.44Q662.16-17.88 660.82-15.94Q659.48-14 657.32-13.28L657.32-13.28Q659.08-12.60 660.20-10.98Q661.32-9.36 661.36-7.04L661.36-7.04Q661.40-4.56 661.70-3.56Q662.00-2.56 662.68-2.16L662.68-2.16ZM644.76-14.16L654.36-14.16Q655.76-14.28 656.96-15.08Q658.16-15.88 658.88-17.24Q659.60-18.60 659.60-20.36L659.60-20.36Q659.60-22.64 658.06-24.14Q656.52-25.64 654.04-25.64L654.04-25.64L644.76-25.64L644.76-14.16Z"/></g>
</svg>
</g><g opacity="1" transform="rotate(0 123.6629 401.4)">
<svg width="385.3166" height="90" x="123.6629" y="401.4" version="1.1" preserveAspectRatio="none" viewBox="3.76 -29.6 128.44 30">
  <g transform="matrix(1 0 0 1 0 0)" class="companyName"><path id="id-D6z1nYkh7" d="M14.44-28Q16.64-28 18.40-26.98Q20.16-25.96 21.14-24.14Q22.12-22.32 22.12-20.04L22.12-20.04Q22.12-17.76 21.14-15.88Q20.16-14 18.40-12.92Q16.64-11.84 14.44-11.84L14.44-11.84L6.16-11.84L6.16-1.20Q6.16-0.68 5.82-0.34Q5.48 0 4.96 0L4.96 0Q4.44 0 4.10-0.34Q3.76-0.68 3.76-1.20L3.76-1.20L3.76-26.80Q3.76-27.32 4.10-27.66Q4.44-28 4.96-28L4.96-28L14.44-28ZM14.44-14.16Q16.76-14.16 18.20-15.84Q19.64-17.52 19.64-20.04L19.64-20.04Q19.64-22.52 18.20-24.08Q16.76-25.64 14.44-25.64L14.44-25.64L6.16-25.64L6.16-14.16L14.44-14.16Z M29.32-1.20Q29.32-0.68 28.98-0.34Q28.64 0 28.12 0L28.12 0Q27.60 0 27.26-0.34Q26.92-0.68 26.92-1.20L26.92-1.20L26.92-19.60Q26.92-20.12 27.26-20.46Q27.60-20.80 28.12-20.80L28.12-20.80Q28.64-20.80 28.98-20.46Q29.32-20.12 29.32-19.60L29.32-19.60L29.32-1.20ZM28.12-23.48Q27.32-23.48 26.88-23.86Q26.44-24.24 26.44-24.96L26.44-24.96L26.44-25.36Q26.44-26.08 26.90-26.46Q27.36-26.84 28.16-26.84L28.16-26.84Q29.76-26.84 29.76-25.36L29.76-25.36L29.76-24.96Q29.76-24.24 29.34-23.86Q28.92-23.48 28.12-23.48L28.12-23.48Z M51.76-2.12Q52.12-1.72 52.12-1.20L52.12-1.20Q52.12-0.68 51.70-0.34Q51.28 0 50.92 0L50.92 0Q50.40 0 50.04-0.44L50.04-0.44L41.20-9.80L38.20-7.24L38.20-1.20Q38.20-0.68 37.86-0.34Q37.52 0 37 0L37 0Q36.48 0 36.14-0.34Q35.80-0.68 35.80-1.20L35.80-1.20L35.80-28.40Q35.80-28.92 36.14-29.26Q36.48-29.60 37-29.60L37-29.60Q37.52-29.60 37.86-29.26Q38.20-28.92 38.20-28.40L38.20-28.40L38.20-10.16L49.76-20.12Q50.12-20.52 50.60-20.52L50.60-20.52Q51.04-20.52 51.40-20.14Q51.76-19.76 51.76-19.32L51.76-19.32Q51.76-18.84 51.32-18.40L51.32-18.40L43.08-11.40L51.76-2.12Z M73.40-20.44Q73.92-20.44 74.26-20.08Q74.60-19.72 74.60-19.20L74.60-19.20L74.60-1.20Q74.60-0.68 74.26-0.34Q73.92 0 73.40 0L73.40 0Q72.88 0 72.54-0.34Q72.20-0.68 72.20-1.20L72.20-1.20L72.20-3.88Q71.20-2.08 69.20-0.84Q67.20 0.40 64.84 0.40L64.84 0.40Q62.16 0.40 60.02-1Q57.88-2.40 56.66-4.84Q55.44-7.28 55.44-10.32L55.44-10.32Q55.44-13.36 56.68-15.78Q57.92-18.20 60.06-19.56Q62.20-20.92 64.80-20.92L64.80-20.92Q67.20-20.92 69.20-19.76Q71.20-18.60 72.20-16.72L72.20-16.72L72.20-19.20Q72.20-19.72 72.54-20.08Q72.88-20.44 73.40-20.44L73.40-20.44ZM65.08-1.84Q67.16-1.84 68.82-2.94Q70.48-4.04 71.42-5.98Q72.36-7.92 72.36-10.32L72.36-10.32Q72.36-12.64 71.42-14.56Q70.48-16.48 68.82-17.58Q67.16-18.68 65.08-18.68L65.08-18.68Q63-18.68 61.34-17.60Q59.68-16.52 58.74-14.62Q57.80-12.72 57.80-10.32L57.80-10.32Q57.80-7.92 58.72-5.98Q59.64-4.04 61.30-2.94Q62.96-1.84 65.08-1.84L65.08-1.84Z M97.24-26.96Q97.24-26.68 97-26.20L97-26.20L88.08-13.92L88.08-1.20Q88.08-0.68 87.72-0.34Q87.36 0 86.84 0L86.84 0Q86.32 0 85.98-0.34Q85.64-0.68 85.64-1.20L85.64-1.20L85.64-13.88L76.68-26.12Q76.36-26.48 76.36-26.96L76.36-26.96Q76.36-27.44 76.76-27.80Q77.16-28.16 77.64-28.16L77.64-28.16Q78.28-28.16 78.64-27.60L78.64-27.60L86.92-16.32L95-27.60Q95.44-28.16 96.04-28.16L96.04-28.16Q96.52-28.16 96.88-27.78Q97.24-27.40 97.24-26.96L97.24-26.96Z M115.60-20.32Q116.12-20.32 116.46-19.98Q116.80-19.64 116.80-19.12L116.80-19.12L116.80-7.84Q116.80-3.92 114.60-1.82Q112.40 0.28 108.52 0.28L108.52 0.28Q104.68 0.28 102.50-1.82Q100.32-3.92 100.32-7.84L100.32-7.84L100.32-19.12Q100.32-19.64 100.66-19.98Q101-20.32 101.52-20.32L101.52-20.32Q102.04-20.32 102.38-19.98Q102.72-19.64 102.72-19.12L102.72-19.12L102.72-7.84Q102.72-4.96 104.24-3.46Q105.76-1.96 108.52-1.96L108.52-1.96Q111.32-1.96 112.86-3.46Q114.40-4.96 114.40-7.84L114.40-7.84L114.40-19.12Q114.40-19.64 114.74-19.98Q115.08-20.32 115.60-20.32L115.60-20.32Z M131.08-18.12L127.08-18.12L127.08-4.72Q127.08-3.20 127.64-2.66Q128.20-2.12 129.12-2.12L129.12-2.12Q129.36-2.12 129.72-2.22Q130.08-2.32 130.28-2.32L130.28-2.32Q130.64-2.32 130.90-2.02Q131.16-1.72 131.16-1.32L131.16-1.32Q131.16-0.76 130.52-0.38Q129.88 0 129 0L129 0Q127.92 0 127.08-0.20Q126.24-0.40 125.46-1.40Q124.68-2.40 124.68-4.60L124.68-4.60L124.68-18.12L121.76-18.12Q121.28-18.12 120.94-18.44Q120.60-18.76 120.60-19.24L120.60-19.24Q120.60-19.72 120.94-20.04Q121.28-20.36 121.76-20.36L121.76-20.36L124.68-20.36L124.68-24.80Q124.68-25.32 125.02-25.66Q125.36-26 125.88-26L125.88-26Q126.40-26 126.74-25.66Q127.08-25.32 127.08-24.80L127.08-24.80L127.08-20.36L131.08-20.36Q131.52-20.36 131.86-20Q132.20-19.64 132.20-19.20L132.20-19.20Q132.20-18.72 131.88-18.42Q131.56-18.12 131.08-18.12L131.08-18.12Z"/></g>
</svg>
</g><g opacity="1" transform="rotate(0 256.3212 362.4)">
<svg width="120" height="9" x="256.3212" y="362.4" version="1.1" preserveAspectRatio="none" viewBox="0 0 120 9">
  <defs><rect x="0" y="0" width="120" height="9" rx="0%" ry="0%" id="id-80LYwx1g1676915602725"></rect></defs><use class="icon1 shapeStroke-str" style="stroke-width:0;" xlink:href="#id-80LYwx1g1676915602725"></use>
</svg>
</g></svg></svg>