<svg version="1.1" preserveAspectRatio="none" xmlns="http://www.w3.org/2000/svg" width="500" height="500" viewBox="0 0 500 500"><rect width="100%" height="100%" fill="#FFFFFF" fill-opacity="1"/><svg viewBox="360.9824 156.4301 428.4248 356.8346" width="333" height="277.355376719555" x="83.5px" y="111.3223px" xmlns="http://www.w3.org/2000/svg" xmlns:xlink="http://www.w3.org/1999/xlink" preserveAspectRatio="none"><defs></defs><style>.companyName {fill:#0000FF;fill-opacity:1;}.icon1 {fill:#0000FF;fill-opacity:1;}.icon2 {fill:#A9FF94;fill-opacity:1;}.icon3 {fill:#000084;fill-opacity:1;}.icon3-str {stroke:#000084;stroke-opacity:1;}.text {fill:#0000FF;fill-opacity:1;}</style><g opacity="1" transform="rotate(0 360.9824 491.6647)">
<svg width="428.4248" height="21.6" x="360.9824" y="491.6647" version="1.1" preserveAspectRatio="none" viewBox="1.92 -30.28 759.1600000000001 38.28">
  <g transform="matrix(1 0 0 1 0 0)" class="text"><path id="id-6izo4zJp30" d="M16.72 0.32Q12.52 0.32 9.14-1.54Q5.76-3.40 3.84-6.66Q1.92-9.92 1.92-14L1.92-14Q1.92-18.08 3.84-21.34Q5.76-24.60 9.16-26.46Q12.56-28.32 16.76-28.32L16.76-28.32Q20.04-28.32 22.76-27.22Q25.48-26.12 27.40-23.96L27.40-23.96L24.80-21.44Q21.64-24.76 16.92-24.76L16.92-24.76Q13.80-24.76 11.28-23.36Q8.76-21.96 7.34-19.50Q5.92-17.04 5.92-14L5.92-14Q5.92-10.96 7.34-8.50Q8.76-6.04 11.28-4.64Q13.80-3.24 16.92-3.24L16.92-3.24Q21.60-3.24 24.80-6.60L24.80-6.60L27.40-4.08Q25.48-1.92 22.74-0.80Q20 0.32 16.72 0.32L16.72 0.32Z M42.76 0.24Q39.60 0.24 37.08-1.16Q34.56-2.56 33.14-5.02Q31.72-7.48 31.72-10.60L31.72-10.60Q31.72-13.72 33.14-16.18Q34.56-18.64 37.08-20.02Q39.60-21.40 42.76-21.40L42.76-21.40Q45.92-21.40 48.42-20.02Q50.92-18.64 52.34-16.18Q53.76-13.72 53.76-10.60L53.76-10.60Q53.76-7.48 52.34-5.02Q50.92-2.56 48.42-1.16Q45.92 0.24 42.76 0.24L42.76 0.24ZM42.76-3.12Q44.80-3.12 46.42-4.06Q48.04-5 48.96-6.70Q49.88-8.40 49.88-10.60L49.88-10.60Q49.88-12.80 48.96-14.50Q48.04-16.20 46.42-17.12Q44.80-18.04 42.76-18.04L42.76-18.04Q40.72-18.04 39.10-17.12Q37.48-16.20 36.54-14.50Q35.60-12.80 35.60-10.60L35.60-10.60Q35.60-8.40 36.54-6.70Q37.48-5 39.10-4.06Q40.72-3.12 42.76-3.12L42.76-3.12Z M87.60-21.40Q91.60-21.40 93.94-19.08Q96.28-16.76 96.28-12.20L96.28-12.20L96.28 0L92.44 0L92.44-11.76Q92.44-14.84 91.02-16.40Q89.60-17.96 86.96-17.96L86.96-17.96Q84.04-17.96 82.32-16.14Q80.60-14.32 80.60-10.92L80.60-10.92L80.60 0L76.76 0L76.76-11.76Q76.76-14.84 75.34-16.40Q73.92-17.96 71.28-17.96L71.28-17.96Q68.36-17.96 66.64-16.14Q64.92-14.32 64.92-10.92L64.92-10.92L64.92 0L61.08 0L61.08-21.20L64.76-21.20L64.76-18.04Q65.92-19.68 67.80-20.54Q69.68-21.40 72.08-21.40L72.08-21.40Q74.56-21.40 76.48-20.40Q78.40-19.40 79.44-17.48L79.44-17.48Q80.64-19.32 82.78-20.36Q84.92-21.40 87.60-21.40L87.60-21.40Z M131.88-21.40Q135.88-21.40 138.22-19.08Q140.56-16.76 140.56-12.20L140.56-12.20L140.56 0L136.72 0L136.72-11.76Q136.72-14.84 135.30-16.40Q133.88-17.96 131.24-17.96L131.24-17.96Q128.32-17.96 126.60-16.14Q124.88-14.32 124.88-10.92L124.88-10.92L124.88 0L121.04 0L121.04-11.76Q121.04-14.84 119.62-16.40Q118.20-17.96 115.56-17.96L115.56-17.96Q112.64-17.96 110.92-16.14Q109.20-14.32 109.20-10.92L109.20-10.92L109.20 0L105.36 0L105.36-21.20L109.04-21.20L109.04-18.04Q110.20-19.68 112.08-20.54Q113.96-21.40 116.36-21.40L116.36-21.40Q118.84-21.40 120.76-20.40Q122.68-19.40 123.72-17.48L123.72-17.48Q124.92-19.32 127.06-20.36Q129.20-21.40 131.88-21.40L131.88-21.40Z M165.56-21.20L169.40-21.20L169.40 0L165.76 0L165.76-3.20Q164.60-1.56 162.70-0.66Q160.80 0.24 158.56 0.24L158.56 0.24Q154.32 0.24 151.88-2.10Q149.44-4.44 149.44-9L149.44-9L149.44-21.20L153.28-21.20L153.28-9.44Q153.28-6.36 154.76-4.78Q156.24-3.20 159-3.20L159-3.20Q162.04-3.20 163.80-5.04Q165.56-6.88 165.56-10.24L165.56-10.24L165.56-21.20Z M190.04-21.40Q194.08-21.40 196.46-19.06Q198.84-16.72 198.84-12.20L198.84-12.20L198.84 0L195 0L195-11.76Q195-14.84 193.52-16.40Q192.04-17.96 189.28-17.96L189.28-17.96Q186.16-17.96 184.36-16.14Q182.56-14.32 182.56-10.92L182.56-10.92L182.56 0L178.72 0L178.72-21.20L182.40-21.20L182.40-18Q183.56-19.64 185.54-20.52Q187.52-21.40 190.04-21.40L190.04-21.40Z M207.96 0L207.96-21.20L211.80-21.20L211.80 0L207.96 0ZM209.88-25.28Q208.76-25.28 208.02-26Q207.28-26.72 207.28-27.76L207.28-27.76Q207.28-28.80 208.02-29.54Q208.76-30.28 209.88-30.28L209.88-30.28Q211.00-30.28 211.74-29.58Q212.48-28.88 212.48-27.84L212.48-27.84Q212.48-26.76 211.74-26.02Q211.00-25.28 209.88-25.28L209.88-25.28Z M231.84-4L233.04-1.24Q232.20-0.52 230.96-0.14Q229.72 0.24 228.40 0.24L228.40 0.24Q225.20 0.24 223.44-1.48Q221.68-3.20 221.68-6.40L221.68-6.40L221.68-18.04L218.08-18.04L218.08-21.20L221.68-21.20L221.68-25.84L225.52-25.84L225.52-21.20L231.60-21.20L231.60-18.04L225.52-18.04L225.52-6.56Q225.52-4.84 226.38-3.92Q227.24-3 228.84-3L228.84-3Q230.60-3 231.84-4L231.84-4Z M254.28-21.20L258.04-21.20L247.76 2.12Q246.40 5.36 244.58 6.68Q242.76 8 240.20 8L240.20 8Q238.64 8 237.18 7.50Q235.72 7 234.76 6.04L234.76 6.04L236.40 3.16Q238.04 4.72 240.20 4.72L240.20 4.72Q241.60 4.72 242.54 3.98Q243.48 3.24 244.24 1.44L244.24 1.44L244.92-0.04L235.56-21.20L239.56-21.20L246.96-4.24L254.28-21.20Z M276.96 7.76L276.96-29.68L280.52-29.68L280.52 7.76L276.96 7.76Z M310.32-5.04L310.32-14.16L314.16-14.16L314.16-3.24Q312.08-1.52 309.32-0.60Q306.56 0.32 303.56 0.32L303.56 0.32Q299.32 0.32 295.92-1.54Q292.52-3.40 290.58-6.66Q288.64-9.92 288.64-14L288.64-14Q288.64-18.08 290.58-21.36Q292.52-24.64 295.94-26.48Q299.36-28.32 303.64-28.32L303.64-28.32Q307-28.32 309.74-27.22Q312.48-26.12 314.40-24L314.40-24L311.92-21.52Q308.56-24.76 303.80-24.76L303.80-24.76Q300.60-24.76 298.06-23.38Q295.52-22 294.08-19.54Q292.64-17.08 292.64-14L292.64-14Q292.64-10.96 294.08-8.50Q295.52-6.04 298.06-4.64Q300.60-3.24 303.76-3.24L303.76-3.24Q307.52-3.24 310.32-5.04L310.32-5.04Z M330.96-21.40Q335.36-21.40 337.70-19.24Q340.04-17.08 340.04-12.80L340.04-12.80L340.04 0L336.40 0L336.40-2.80Q335.44-1.32 333.66-0.54Q331.88 0.24 329.44 0.24L329.44 0.24Q325.88 0.24 323.74-1.48Q321.60-3.20 321.60-6L321.60-6Q321.60-8.80 323.64-10.50Q325.68-12.20 330.12-12.20L330.12-12.20L336.20-12.20L336.20-12.96Q336.20-15.44 334.76-16.76Q333.32-18.08 330.52-18.08L330.52-18.08Q328.64-18.08 326.84-17.46Q325.04-16.84 323.80-15.80L323.80-15.80L322.20-18.68Q323.84-20 326.12-20.70Q328.40-21.40 330.96-21.40L330.96-21.40ZM330.08-2.72Q332.28-2.72 333.88-3.70Q335.48-4.68 336.20-6.48L336.20-6.48L336.20-9.44L330.28-9.44Q325.40-9.44 325.40-6.16L325.40-6.16Q325.40-4.56 326.64-3.64Q327.88-2.72 330.08-2.72L330.08-2.72Z M375.68-21.40Q379.68-21.40 382.02-19.08Q384.36-16.76 384.36-12.20L384.36-12.20L384.36 0L380.52 0L380.52-11.76Q380.52-14.84 379.10-16.40Q377.68-17.96 375.04-17.96L375.04-17.96Q372.12-17.96 370.40-16.14Q368.68-14.32 368.68-10.92L368.68-10.92L368.68 0L364.84 0L364.84-11.76Q364.84-14.84 363.42-16.40Q362-17.96 359.36-17.96L359.36-17.96Q356.44-17.96 354.72-16.14Q353-14.32 353-10.92L353-10.92L353 0L349.16 0L349.16-21.20L352.84-21.20L352.84-18.04Q354-19.68 355.88-20.54Q357.76-21.40 360.16-21.40L360.16-21.40Q362.64-21.40 364.56-20.40Q366.48-19.40 367.52-17.48L367.52-17.48Q368.72-19.32 370.86-20.36Q373-21.40 375.68-21.40L375.68-21.40Z M393.44 0L393.44-21.20L397.28-21.20L397.28 0L393.44 0ZM395.36-25.28Q394.24-25.28 393.50-26Q392.76-26.72 392.76-27.76L392.76-27.76Q392.76-28.80 393.50-29.54Q394.24-30.28 395.36-30.28L395.36-30.28Q396.48-30.28 397.22-29.58Q397.96-28.88 397.96-27.84L397.96-27.84Q397.96-26.76 397.22-26.02Q396.48-25.28 395.36-25.28L395.36-25.28Z M417.92-21.40Q421.96-21.40 424.34-19.06Q426.72-16.72 426.72-12.20L426.72-12.20L426.72 0L422.88 0L422.88-11.76Q422.88-14.84 421.40-16.40Q419.92-17.96 417.16-17.96L417.16-17.96Q414.04-17.96 412.24-16.14Q410.44-14.32 410.44-10.92L410.44-10.92L410.44 0L406.60 0L406.60-21.20L410.28-21.20L410.28-18Q411.44-19.64 413.42-20.52Q415.40-21.40 417.92-21.40L417.92-21.40Z M452.60-21.20L456.24-21.20L456.24-2.88Q456.24 2.68 453.48 5.34Q450.72 8 445.24 8L445.24 8Q442.24 8 439.52 7.18Q436.80 6.36 435.12 4.84L435.12 4.84L436.96 1.88Q438.44 3.16 440.62 3.90Q442.80 4.64 445.12 4.64L445.12 4.64Q448.84 4.64 450.62 2.88Q452.40 1.12 452.40-2.48L452.40-2.48L452.40-4.16Q451.04-2.52 449.06-1.70Q447.08-0.88 444.76-0.88L444.76-0.88Q441.72-0.88 439.26-2.18Q436.80-3.48 435.40-5.82Q434-8.16 434-11.16L434-11.16Q434-14.16 435.40-16.50Q436.80-18.84 439.26-20.12Q441.72-21.40 444.76-21.40L444.76-21.40Q447.16-21.40 449.22-20.52Q451.28-19.64 452.60-17.92L452.60-17.92L452.60-21.20ZM445.20-4.24Q447.28-4.24 448.94-5.12Q450.60-6 451.54-7.58Q452.48-9.16 452.48-11.16L452.48-11.16Q452.48-14.24 450.44-16.14Q448.40-18.04 445.20-18.04L445.20-18.04Q441.96-18.04 439.92-16.14Q437.88-14.24 437.88-11.16L437.88-11.16Q437.88-9.16 438.82-7.58Q439.76-6 441.42-5.12Q443.08-4.24 445.20-4.24L445.20-4.24Z M486.04-21.40Q490.44-21.40 492.78-19.24Q495.12-17.08 495.12-12.80L495.12-12.80L495.12 0L491.48 0L491.48-2.80Q490.52-1.32 488.74-0.54Q486.96 0.24 484.52 0.24L484.52 0.24Q480.96 0.24 478.82-1.48Q476.68-3.20 476.68-6L476.68-6Q476.68-8.80 478.72-10.50Q480.76-12.20 485.20-12.20L485.20-12.20L491.28-12.20L491.28-12.96Q491.28-15.44 489.84-16.76Q488.40-18.08 485.60-18.08L485.60-18.08Q483.72-18.08 481.92-17.46Q480.12-16.84 478.88-15.80L478.88-15.80L477.28-18.68Q478.92-20 481.20-20.70Q483.48-21.40 486.04-21.40L486.04-21.40ZM485.16-2.72Q487.36-2.72 488.96-3.70Q490.56-4.68 491.28-6.48L491.28-6.48L491.28-9.44L485.36-9.44Q480.48-9.44 480.48-6.16L480.48-6.16Q480.48-4.56 481.72-3.64Q482.96-2.72 485.16-2.72L485.16-2.72Z M515.56-21.40Q519.60-21.40 521.98-19.06Q524.36-16.72 524.36-12.20L524.36-12.20L524.36 0L520.52 0L520.52-11.76Q520.52-14.84 519.04-16.40Q517.56-17.96 514.80-17.96L514.80-17.96Q511.68-17.96 509.88-16.14Q508.08-14.32 508.08-10.92L508.08-10.92L508.08 0L504.24 0L504.24-21.20L507.92-21.20L507.92-18Q509.08-19.64 511.06-20.52Q513.04-21.40 515.56-21.40L515.56-21.40Z M549.76-29.68L553.60-29.68L553.60 0L549.92 0L549.92-3.36Q548.64-1.60 546.68-0.68Q544.72 0.24 542.36 0.24L542.36 0.24Q539.28 0.24 536.84-1.12Q534.40-2.48 533.02-4.94Q531.64-7.40 531.64-10.60L531.64-10.60Q531.64-13.80 533.02-16.24Q534.40-18.68 536.84-20.04Q539.28-21.40 542.36-21.40L542.36-21.40Q544.64-21.40 546.56-20.54Q548.48-19.68 549.76-18L549.76-18L549.76-29.68ZM542.68-3.12Q544.68-3.12 546.32-4.06Q547.96-5 548.88-6.70Q549.80-8.40 549.80-10.60L549.80-10.60Q549.80-12.80 548.88-14.50Q547.96-16.20 546.32-17.12Q544.68-18.04 542.68-18.04L542.68-18.04Q540.64-18.04 539.02-17.12Q537.40-16.20 536.46-14.50Q535.52-12.80 535.52-10.60L535.52-10.60Q535.52-8.40 536.46-6.70Q537.40-5 539.02-4.06Q540.64-3.12 542.68-3.12L542.68-3.12Z M584.88 0.24Q581.64 0.24 579.10-1.16Q576.56-2.56 575.12-5.02Q573.68-7.48 573.68-10.60L573.68-10.60Q573.68-13.72 575.12-16.18Q576.56-18.64 579.10-20.02Q581.64-21.40 584.88-21.40L584.88-21.40Q587.76-21.40 590.02-20.24Q592.28-19.08 593.52-16.88L593.52-16.88L590.60-15Q589.60-16.52 588.12-17.28Q586.64-18.04 584.84-18.04L584.84-18.04Q582.76-18.04 581.10-17.12Q579.44-16.20 578.50-14.50Q577.56-12.80 577.56-10.60L577.56-10.60Q577.56-8.36 578.50-6.66Q579.44-4.96 581.10-4.04Q582.76-3.12 584.84-3.12L584.84-3.12Q586.64-3.12 588.12-3.88Q589.60-4.64 590.60-6.16L590.60-6.16L593.52-4.32Q592.28-2.12 590.02-0.94Q587.76 0.24 584.88 0.24L584.88 0.24Z M609.24 0.24Q606.08 0.24 603.56-1.16Q601.04-2.56 599.62-5.02Q598.20-7.48 598.20-10.60L598.20-10.60Q598.20-13.72 599.62-16.18Q601.04-18.64 603.56-20.02Q606.08-21.40 609.24-21.40L609.24-21.40Q612.40-21.40 614.90-20.02Q617.40-18.64 618.82-16.18Q620.24-13.72 620.24-10.60L620.24-10.60Q620.24-7.48 618.82-5.02Q617.40-2.56 614.90-1.16Q612.40 0.24 609.24 0.24L609.24 0.24ZM609.24-3.12Q611.28-3.12 612.90-4.06Q614.52-5 615.44-6.70Q616.36-8.40 616.36-10.60L616.36-10.60Q616.36-12.80 615.44-14.50Q614.52-16.20 612.90-17.12Q611.28-18.04 609.24-18.04L609.24-18.04Q607.20-18.04 605.58-17.12Q603.96-16.20 603.02-14.50Q602.08-12.80 602.08-10.60L602.08-10.60Q602.08-8.40 603.02-6.70Q603.96-5 605.58-4.06Q607.20-3.12 609.24-3.12L609.24-3.12Z M643.72-29.68L647.56-29.68L647.56 0L643.88 0L643.88-3.36Q642.60-1.60 640.64-0.68Q638.68 0.24 636.32 0.24L636.32 0.24Q633.24 0.24 630.80-1.12Q628.36-2.48 626.98-4.94Q625.60-7.40 625.60-10.60L625.60-10.60Q625.60-13.80 626.98-16.24Q628.36-18.68 630.80-20.04Q633.24-21.40 636.32-21.40L636.32-21.40Q638.60-21.40 640.52-20.54Q642.44-19.68 643.72-18L643.72-18L643.72-29.68ZM636.64-3.12Q638.64-3.12 640.28-4.06Q641.92-5 642.84-6.70Q643.76-8.40 643.76-10.60L643.76-10.60Q643.76-12.80 642.84-14.50Q641.92-16.20 640.28-17.12Q638.64-18.04 636.64-18.04L636.64-18.04Q634.60-18.04 632.98-17.12Q631.36-16.20 630.42-14.50Q629.48-12.80 629.48-10.60L629.48-10.60Q629.48-8.40 630.42-6.70Q631.36-5 632.98-4.06Q634.60-3.12 636.64-3.12L636.64-3.12Z M676.00-10.48Q676.00-10.04 675.92-9.32L675.92-9.32L658.72-9.32Q659.08-6.52 661.18-4.82Q663.28-3.12 666.40-3.12L666.40-3.12Q670.20-3.12 672.52-5.68L672.52-5.68L674.64-3.20Q673.20-1.52 671.06-0.64Q668.92 0.24 666.28 0.24L666.28 0.24Q662.92 0.24 660.32-1.14Q657.72-2.52 656.30-5Q654.88-7.48 654.88-10.60L654.88-10.60Q654.88-13.68 656.26-16.16Q657.64-18.64 660.06-20.02Q662.48-21.40 665.52-21.40L665.52-21.40Q668.56-21.40 670.94-20.02Q673.32-18.64 674.66-16.16Q676.00-13.68 676.00-10.48L676.00-10.48ZM665.52-18.16Q662.76-18.16 660.90-16.48Q659.04-14.80 658.72-12.08L658.72-12.08L672.32-12.08Q672.00-14.76 670.14-16.46Q668.28-18.16 665.52-18.16L665.52-18.16Z M683.88 7.76L683.88-29.68L687.44-29.68L687.44 7.76L683.88 7.76Z M730.36-24.52L714.60-24.52L714.60-14.76L728.64-14.76L728.64-11.32L714.60-11.32L714.60 0L710.60 0L710.60-28L730.36-28L730.36-24.52Z M761.08 0L756.72 0L750.68-8.60Q749.56-8.52 748.92-8.52L748.92-8.52L742-8.52L742 0L738 0L738-28L748.92-28Q754.36-28 757.48-25.40Q760.60-22.80 760.60-18.24L760.60-18.24Q760.60-15 759-12.72Q757.40-10.44 754.44-9.40L754.44-9.40L761.08 0ZM748.80-11.92Q752.60-11.92 754.60-13.56Q756.60-15.20 756.60-18.24L756.60-18.24Q756.60-21.28 754.60-22.90Q752.60-24.52 748.80-24.52L748.80-24.52L742-24.52L742-11.92L748.80-11.92Z"/></g>
</svg>
</g><g opacity="1" transform="rotate(0 402.8929 407.6647)">
<svg width="344.6037" height="60" x="402.8929" y="407.6647" version="1.1" preserveAspectRatio="none" viewBox="3.32 -31.48 182.64000000000001 31.8">
  <g transform="matrix(1 0 0 1 0 0)" class="companyName"><path id="id-D6z1nYkh7" d="M15.44-28Q19.16-28 21.90-26.76Q24.64-25.52 26.12-23.24Q27.60-20.96 27.60-17.84L27.60-17.84Q27.60-14.76 26.12-12.46Q24.64-10.16 21.90-8.94Q19.16-7.72 15.44-7.72L15.44-7.72L9.80-7.72L9.80 0L3.32 0L3.32-28L15.44-28ZM15.08-13Q18-13 19.52-14.26Q21.04-15.52 21.04-17.84L21.04-17.84Q21.04-20.20 19.52-21.46Q18-22.72 15.08-22.72L15.08-22.72L9.80-22.72L9.80-13L15.08-13Z M35.84 0L35.84-21.52L42.08-21.52L42.08 0L35.84 0ZM38.96-24.52Q37.24-24.52 36.16-25.52Q35.08-26.52 35.08-28L35.08-28Q35.08-29.48 36.16-30.48Q37.24-31.48 38.96-31.48L38.96-31.48Q40.68-31.48 41.76-30.52Q42.84-29.56 42.84-28.12L42.84-28.12Q42.84-26.56 41.76-25.54Q40.68-24.52 38.96-24.52L38.96-24.52Z M68 0L61.20-8.44L58.20-5.48L58.20 0L51.96 0L51.96-29.68L58.20-29.68L58.20-12.88L67.32-21.52L74.76-21.52L65.80-12.40L75.56 0L68 0Z M90.72-21.84Q95.72-21.84 98.40-19.46Q101.08-17.08 101.08-12.28L101.08-12.28L101.08 0L95.24 0L95.24-2.68Q93.48 0.32 88.68 0.32L88.68 0.32Q86.20 0.32 84.38-0.52Q82.56-1.36 81.60-2.84Q80.64-4.32 80.64-6.20L80.64-6.20Q80.64-9.20 82.90-10.92Q85.16-12.64 89.88-12.64L89.88-12.64L94.84-12.64Q94.84-14.68 93.60-15.78Q92.36-16.88 89.88-16.88L89.88-16.88Q88.16-16.88 86.50-16.34Q84.84-15.80 83.68-14.88L83.68-14.88L81.44-19.24Q83.20-20.48 85.66-21.16Q88.12-21.84 90.72-21.84L90.72-21.84ZM90.24-3.88Q91.84-3.88 93.08-4.62Q94.32-5.36 94.84-6.80L94.84-6.80L94.84-9L90.56-9Q86.72-9 86.72-6.48L86.72-6.48Q86.72-5.28 87.66-4.58Q88.60-3.88 90.24-3.88L90.24-3.88Z M135.56-28L124.68-9.92L124.68 0L118.20 0L118.20-10L107.36-28L114.24-28L121.72-15.56L129.20-28L135.56-28Z M155.96-21.52L162.20-21.52L162.20 0L156.28 0L156.28-2.56Q155.04-1.16 153.32-0.42Q151.60 0.32 149.60 0.32L149.60 0.32Q145.36 0.32 142.88-2.12Q140.40-4.56 140.40-9.36L140.40-9.36L140.40-21.52L146.64-21.52L146.64-10.28Q146.64-5.08 151-5.08L151-5.08Q153.24-5.08 154.60-6.54Q155.96-8 155.96-10.88L155.96-10.88L155.96-21.52Z M184.28-5.44L185.96-1.04Q185.04-0.36 183.70-0.02Q182.36 0.32 180.88 0.32L180.88 0.32Q177.04 0.32 174.94-1.64Q172.84-3.60 172.84-7.40L172.84-7.40L172.84-16.24L169.52-16.24L169.52-21.04L172.84-21.04L172.84-26.28L179.08-26.28L179.08-21.04L184.44-21.04L184.44-16.24L179.08-16.24L179.08-7.48Q179.08-6.12 179.78-5.38Q180.48-4.64 181.76-4.64L181.76-4.64Q183.24-4.64 184.28-5.44L184.28-5.44Z"/></g>
</svg>
</g><g opacity="1" transform="rotate(0 471.8136 156.4301)">
<svg width="206.7623" height="211.2346" x="471.8136" y="156.4301" version="1.1" preserveAspectRatio="none" viewBox="4597 4048 50807 51906">
  <g transform="matrix(1 0 0 1 0 0)" class="icon1"><defs></defs><g><path class="fil0" d="M14100 15037c-39,-93 -43,-201 -3,-302 1262,-3176 3457,-5880 6246,-7773 2710,-1840 5980,-2914 9499,-2914 4677,0 8911,1896 11976,4961 1475,1475 2679,3221 3532,5157l13 -28c3005,1341 5547,3531 7321,6266 1721,2652 2720,5813 2720,9207 0,4677 -1896,8911 -4961,11976 -1039,1039 -2213,1943 -3492,2685 -1108,3395 -3258,6319 -6073,8392 -2808,2068 -6277,3290 -10031,3290 -4677,0 -8911,-1896 -11976,-4961 -1416,-1416 -2583,-3083 -3428,-4927 -3202,-1235 -5935,-3415 -7856,-6198 -1886,-2732 -2990,-6042 -2990,-9609 0,-1086 103,-2151 300,-3186 201,-1057 502,-2082 892,-3063 1262,-3176 3457,-5880 6246,-7773 657,-446 1347,-847 2065,-1198zm17090 10529c1634,2057 3167,4150 4563,6293 1410,2165 2684,4386 3785,6679 2055,-244 3898,-1181 5288,-2571 575,-575 1073,-1228 1476,-1942 -866,-1489 -2316,-3406 -4046,-5446 -1920,-2265 -4179,-4674 -6366,-6815 -1505,880 -2804,1924 -3939,3027 -262,255 -516,514 -762,774zm7490 13033c-392,-803 -804,-1597 -1237,-2382 -684,594 -1314,1232 -1925,1891 389,135 792,244 1206,325 562,110 1145,168 1742,168 71,0 142,-1 213,-3zm-1469 -2798c-667,-1187 -1378,-2355 -2128,-3507 -664,-1020 -1359,-2027 -2079,-3023 -1103,968 -2066,2050 -3042,3148 -2097,2357 -4258,4786 -8107,6479 0,39 -1,78 -1,117 0,2483 1007,4731 2634,6359 130,130 263,255 400,377 213,-100 651,-336 1030,-540 284,-153 536,-288 644,-341 3283,-1604 5253,-3819 7168,-5971 1034,-1163 2053,-2308 3266,-3349l215 252zm-4680 -7176c-612,-828 -1241,-1649 -1886,-2464 -1157,1301 -2123,2625 -2960,3816 595,584 1217,1153 1863,1705 944,-1060 1885,-2101 2983,-3057zm4086 -7263c637,627 1280,1276 1918,1936 80,-302 145,-611 194,-925 69,-446 105,-910 105,-1389 0,-201 -7,-399 -20,-597 -776,284 -1507,612 -2197,974zm2554 2600c388,409 773,820 1153,1233 249,-619 445,-1263 581,-1925 151,-734 230,-1498 230,-2285 0,-3119 -1264,-5942 -3308,-7985 -2044,-2044 -4867,-3308 -7985,-3308 -1729,0 -3367,388 -4830,1081 -1314,623 -2489,1492 -3466,2549 699,1 1389,44 2067,127 21,-30 47,-58 77,-83 856,-692 1831,-1243 2889,-1617 1022,-361 2120,-558 3263,-558 2704,0 5152,1096 6924,2868 1772,1772 2868,4220 2868,6924 0,507 -40,1012 -118,1511 -78,502 -194,992 -345,1466zm1740 1876c438,484 866,966 1282,1445 470,-920 840,-1901 1097,-2930 269,-1077 412,-2206 412,-3369 0,-3828 -1551,-7293 -4060,-9801 -2508,-2508 -5974,-4060 -9801,-4060 -2607,0 -5044,718 -7125,1967 -1894,1137 -3494,2714 -4659,4589 783,-163 1585,-273 2403,-324 7,-10 14,-20 22,-30 1129,-1378 2558,-2503 4188,-3275 1569,-743 3322,-1159 5170,-1159 3339,0 6363,1354 8551,3542 2188,2188 3542,5212 3542,8551 0,833 -86,1651 -249,2444 -167,815 -415,1597 -734,2337 -11,26 -25,50 -41,73zm1839 2092c38,45 77,90 115,135 309,365 610,726 900,1082 682,-1161 1223,-2416 1600,-3740 399,-1404 613,-2888 613,-4423 0,-4456 -1806,-8490 -4726,-11410 -2920,-2920 -6954,-4726 -11410,-4726 -3357,0 -6472,1023 -9052,2774 -2540,1724 -4563,4153 -5786,7006 641,-268 1301,-498 1978,-687 1253,-2284 3097,-4197 5325,-5535 2203,-1323 4781,-2083 7534,-2083 4048,0 7714,1641 10367,4294 2653,2653 4294,6318 4294,10367 0,1227 -151,2421 -437,3563 -293,1173 -729,2293 -1289,3340 -8,15 -17,30 -27,43zm1548 1879c973,1226 1805,2374 2425,3371 474,-1094 737,-2301 737,-3570 0,-939 -143,-1843 -409,-2691 -197,-629 -461,-1228 -785,-1789 -42,165 -86,330 -132,493 -423,1488 -1045,2894 -1836,4186zm-9360 8937c-204,227 -407,455 -611,684 -149,168 -298,335 -449,503 665,296 1364,529 2090,693 800,181 1636,276 2498,276 3119,0 5942,-1264 7985,-3308 2044,-2044 3308,-4867 3308,-7985 0,-1600 -331,-3120 -929,-4496 -512,-1178 -1218,-2251 -2079,-3180 -39,709 -122,1407 -247,2091l5 -3c561,805 1003,1700 1304,2659 290,926 446,1910 446,2929 0,2704 -1096,5152 -2868,6924 -1772,1772 -4220,2868 -6924,2868 -647,0 -1281,-63 -1895,-184 -561,-110 -1107,-269 -1633,-473zm-1620 1808c-412,450 -836,899 -1282,1339 917,481 1893,862 2912,1129 1120,293 2299,449 3518,449 3828,0 7293,-1551 9801,-4060 2508,-2508 4060,-5974 4060,-9801 0,-2419 -619,-4692 -1707,-6671 -994,-1808 -2380,-3370 -4044,-4572 125,802 192,1623 200,2458 1177,1114 2130,2462 2785,3969 642,1477 998,3106 998,4815 0,3339 -1354,6363 -3542,8551 -2188,2188 -5212,3542 -8551,3542 -915,0 -1810,-103 -2673,-298 -863,-195 -1692,-482 -2475,-852zm-1890 1920c-377,348 -772,689 -1191,1021 1114,662 2315,1194 3582,1574 1471,441 3031,679 4647,679 4456,0 8490,-1806 11410,-4726 2920,-2920 4726,-6954 4726,-11410 0,-3236 -951,-6248 -2589,-8772 -1545,-2381 -3701,-4329 -6245,-5622 240,662 440,1344 596,2042 2061,1321 3770,3144 4955,5298 1152,2094 1807,4498 1807,7055 0,4048 -1641,7714 -4294,10367 -2653,2653 -6318,4294 -10367,4294 -1281,0 -2528,-166 -3718,-477 -1172,-307 -2285,-753 -3320,-1321zm-1877 1538c-785,565 -1654,1096 -2639,1577 -119,58 -353,184 -616,326 -239,129 -501,270 -724,385 1482,1075 3304,1709 5274,1709 1079,0 2112,-189 3066,-535 755,-274 1464,-647 2110,-1102 -831,-120 -1644,-301 -2432,-538 -1436,-431 -2792,-1048 -4040,-1822zm-7640 -6014c175,-82 346,-165 514,-250 -142,-122 -283,-244 -423,-367 -32,174 -59,349 -81,527 -4,30 -7,60 -11,90zm1267 -655c2530,-1443 4231,-3261 5841,-5064 -1928,-1649 -3644,-3448 -5079,-5293 -1454,-1870 -2626,-3792 -3443,-5660 -1475,169 -2840,694 -4008,1486 -1023,695 -1896,1595 -2559,2641 854,2017 2113,4106 3695,6140 1567,2016 3446,3973 5553,5750zm-1862 -580c-421,-388 -832,-783 -1231,-1183 -136,425 -247,863 -332,1310 -131,686 -199,1397 -199,2127 0,3119 1264,5942 3308,7985 2044,2044 4867,3308 7985,3308 1784,0 3468,-412 4965,-1145 1323,-648 2500,-1548 3470,-2637 -270,13 -542,20 -815,20 -463,0 -922,-19 -1376,-55l34 40c-865,723 -1857,1300 -2939,1692 -1044,379 -2168,585 -3338,585 -2704,0 -5152,-1096 -6924,-2868 -1772,-1772 -2868,-4220 -2868,-6924 0,-407 25,-810 74,-1206 44,-354 106,-704 188,-1048zm-1855 -1823c-459,-481 -901,-969 -1325,-1462 -62,143 -121,284 -177,424 -317,799 -563,1637 -728,2504 -160,842 -244,1715 -244,2611 0,3828 1551,7293 4060,9801 2508,2508 5974,4060 9801,4060 2698,0 5215,-770 7344,-2102 1912,-1196 3511,-2846 4646,-4798 -793,211 -1609,366 -2443,461 -1125,1445 -2571,2628 -4232,3442 -1606,787 -3410,1229 -5315,1229 -3339,0 -6363,-1354 -8551,-3542 -2188,-2188 -3542,-5212 -3542,-8551 0,-774 74,-1535 215,-2274 118,-618 283,-1220 492,-1803zm-1894 -2139c-195,-238 -387,-478 -573,-718 -148,-190 -293,-381 -436,-573 -75,142 -147,284 -217,428 -179,367 -345,742 -497,1124 -370,931 -655,1906 -848,2916 -187,981 -285,1997 -285,3039 0,4456 1806,8490 4726,11410 2920,2920 6954,4726 11410,4726 3578,0 6884,-1164 9559,-3133 2458,-1810 4383,-4299 5500,-7190 -639,313 -1300,587 -1981,818 -1212,2385 -3056,4393 -5312,5805 -2252,1410 -4914,2224 -7766,2224 -4048,0 -7714,-1641 -10367,-4294 -2653,-2653 -4294,-6318 -4294,-10367 0,-939 89,-1861 260,-2758 174,-915 434,-1802 772,-2651 81,-203 164,-400 249,-590 33,-73 66,-146 100,-217zm-1528 -2006c-1048,-1487 -1924,-2991 -2597,-4466 -97,200 -187,404 -270,612 -206,518 -365,1061 -472,1624 -104,546 -158,1112 -158,1695 0,1100 197,2154 559,3127 290,782 684,1511 1166,2171 200,-961 481,-1893 837,-2789 159,-401 333,-794 522,-1180 132,-269 270,-534 414,-793zm5309 -9526c279,613 597,1232 951,1853 373,-527 771,-1078 1200,-1641 -260,-58 -524,-105 -790,-139 -377,-49 -769,-75 -1174,-75 -62,0 -124,1 -186,2zm1397 2604c541,877 1153,1756 1827,2623 771,991 1622,1967 2544,2911 1140,-1618 2515,-3467 4281,-5184 1922,-1869 4301,-3575 7329,-4649 -302,-1918 -1211,-3634 -2524,-4947 -300,-300 -622,-579 -962,-835 -3286,928 -5832,2622 -7865,4525 -1938,1814 -3419,3829 -4630,5555zm1292 -3082c332,-416 682,-836 1052,-1255 -495,-164 -1004,-295 -1523,-389 -653,-119 -1332,-180 -2031,-180 -2350,0 -4530,716 -6335,1941 -1861,1263 -3324,3066 -4166,5185 -258,651 -458,1333 -593,2040 -131,686 -199,1397 -199,2127 0,1762 402,3428 1120,4912 629,1300 1500,2462 2555,3426 16,-671 72,-1334 165,-1987 -739,-867 -1330,-1862 -1732,-2946 -394,-1061 -609,-2208 -609,-3406 0,-626 60,-1242 174,-1841 116,-611 290,-1203 516,-1771 729,-1836 1998,-3400 3611,-4494 1568,-1064 3458,-1686 5492,-1686 426,0 852,29 1277,84 420,55 829,135 1225,240zm1636 -1896c367,-391 753,-778 1158,-1158 71,-67 144,-134 216,-200 -796,-345 -1630,-618 -2494,-810 -967,-215 -1977,-328 -3019,-328 -2883,0 -5560,879 -7775,2382 -2284,1550 -4080,3763 -5113,6363 -317,799 -563,1637 -728,2504 -160,842 -244,1715 -244,2611 0,2566 697,4969 1911,7029 1131,1918 2709,3539 4591,4721 -137,-768 -222,-1553 -252,-2353 -1375,-1115 -2501,-2527 -3281,-4138 -770,-1591 -1201,-3375 -1201,-5258 0,-774 74,-1535 215,-2274 144,-755 358,-1486 637,-2187 901,-2268 2468,-4198 4460,-5550 1936,-1314 4270,-2081 6782,-2081 736,0 1462,67 2172,196 679,123 1336,302 1967,532zm2032 -1936c412,-348 842,-687 1292,-1012 -1057,-552 -2185,-991 -3365,-1300 -1305,-342 -2679,-523 -4098,-523 -3357,0 -6472,1023 -9052,2774 -2658,1804 -4750,4381 -5952,7408 -370,931 -655,1906 -848,2916 -187,981 -285,1997 -285,3039 0,3402 1051,6556 2846,9156 1684,2440 4023,4393 6763,5606 -240,-634 -444,-1286 -608,-1954 -2277,-1271 -4180,-3131 -5503,-5374 -1286,-2181 -2023,-4722 -2023,-7435 0,-939 89,-1861 260,-2758 174,-915 434,-1802 772,-2651 1092,-2749 2992,-5090 5407,-6729 2346,-1593 5177,-2523 8222,-2523 1091,0 2159,121 3190,350 1040,231 2037,572 2980,1010zm2029 -1519c1362,-894 2898,-1662 4641,-2222 -1331,-778 -2880,-1225 -4533,-1225 -1052,0 -2061,180 -2997,511 -774,274 -1500,650 -2160,1113 387,73 769,159 1147,258 1376,360 2684,889 3902,1565z"></path></g></g>
</svg>
</g></svg></svg>