<svg version="1.1" preserveAspectRatio="none" xmlns="http://www.w3.org/2000/svg" width="500" height="500" viewBox="0 0 500 500"><rect width="100%" height="100%" fill="#161616" fill-opacity="1"/><svg viewBox="-103.6349 133.3095 455.9298 110.8" width="333" height="80.92561618038566" x="83.5px" y="209.5372px" xmlns="http://www.w3.org/2000/svg" xmlns:xlink="http://www.w3.org/1999/xlink" preserveAspectRatio="none"><defs></defs><style>.companyName {fill:#F3F0ED;fill-opacity:1;}.icon1 {fill:#F3F0ED;fill-opacity:1;}.icon3-str {stroke:#ED4545;stroke-opacity:1;}</style><g opacity="1" transform="rotate(0 -103.6349 221.3095)">
<svg width="455.9298" height="22.8" x="-103.6349" y="221.3095" version="1.1" preserveAspectRatio="none" viewBox="2.08 -29.68 752.48 37.64">
  <g transform="matrix(1 0 0 1 0 0)" class="icon1"><path id="id-6izo4zJp30" d="M16.72 0.24Q12.56 0.24 9.22-1.60Q5.88-3.44 3.98-6.70Q2.08-9.96 2.08-14L2.08-14Q2.08-18.04 3.98-21.30Q5.88-24.56 9.24-26.40Q12.60-28.24 16.76-28.24L16.76-28.24Q19.88-28.24 22.52-27.20Q25.16-26.16 27-24.16L27-24.16L25.12-22.28Q21.84-25.60 16.84-25.60L16.84-25.60Q13.52-25.60 10.80-24.08Q8.08-22.56 6.54-19.92Q5-17.28 5-14L5-14Q5-10.72 6.54-8.08Q8.08-5.44 10.80-3.92Q13.52-2.40 16.84-2.40L16.84-2.40Q21.88-2.40 25.12-5.76L25.12-5.76L27-3.88Q25.16-1.88 22.50-0.82Q19.84 0.24 16.72 0.24L16.72 0.24Z M42.40 0.20Q39.36 0.20 36.92-1.18Q34.48-2.56 33.08-5Q31.68-7.44 31.68-10.52L31.68-10.52Q31.68-13.60 33.08-16.04Q34.48-18.48 36.92-19.84Q39.36-21.20 42.40-21.20L42.40-21.20Q45.44-21.20 47.88-19.84Q50.32-18.48 51.70-16.04Q53.08-13.60 53.08-10.52L53.08-10.52Q53.08-7.44 51.70-5Q50.32-2.56 47.88-1.18Q45.44 0.20 42.40 0.20L42.40 0.20ZM42.40-2.32Q44.64-2.32 46.42-3.34Q48.20-4.36 49.20-6.24Q50.20-8.12 50.20-10.52L50.20-10.52Q50.20-12.92 49.20-14.80Q48.20-16.68 46.42-17.70Q44.64-18.72 42.40-18.72L42.40-18.72Q40.16-18.72 38.38-17.70Q36.60-16.68 35.58-14.80Q34.56-12.92 34.56-10.52L34.56-10.52Q34.56-8.12 35.58-6.24Q36.60-4.36 38.38-3.34Q40.16-2.32 42.40-2.32L42.40-2.32Z M87.12-21.20Q91.08-21.20 93.34-18.92Q95.60-16.64 95.60-12.20L95.60-12.20L95.60 0L92.76 0L92.76-11.92Q92.76-15.20 91.18-16.92Q89.60-18.64 86.72-18.64L86.72-18.64Q83.44-18.64 81.56-16.62Q79.68-14.60 79.68-11.04L79.68-11.04L79.68 0L76.84 0L76.84-11.92Q76.84-15.20 75.26-16.92Q73.68-18.64 70.76-18.64L70.76-18.64Q67.52-18.64 65.62-16.62Q63.72-14.60 63.72-11.04L63.72-11.04L63.72 0L60.88 0L60.88-21.04L63.60-21.04L63.60-17.20Q64.72-19.12 66.72-20.16Q68.72-21.20 71.32-21.20L71.32-21.20Q73.96-21.20 75.90-20.08Q77.84-18.96 78.80-16.76L78.80-16.76Q79.96-18.84 82.14-20.02Q84.32-21.20 87.12-21.20L87.12-21.20Z M131.56-21.20Q135.52-21.20 137.78-18.92Q140.04-16.64 140.04-12.20L140.04-12.20L140.04 0L137.20 0L137.20-11.92Q137.20-15.20 135.62-16.92Q134.04-18.64 131.16-18.64L131.16-18.64Q127.88-18.64 126-16.62Q124.12-14.60 124.12-11.04L124.12-11.04L124.12 0L121.28 0L121.28-11.92Q121.28-15.20 119.70-16.92Q118.12-18.64 115.20-18.64L115.20-18.64Q111.96-18.64 110.06-16.62Q108.16-14.60 108.16-11.04L108.16-11.04L108.16 0L105.32 0L105.32-21.04L108.04-21.04L108.04-17.20Q109.16-19.12 111.16-20.16Q113.16-21.20 115.76-21.20L115.76-21.20Q118.40-21.20 120.34-20.08Q122.28-18.96 123.24-16.76L123.24-16.76Q124.40-18.84 126.58-20.02Q128.76-21.20 131.56-21.20L131.56-21.20Z M165.88-21.04L168.72-21.04L168.72 0L166 0L166-3.84Q164.88-1.92 162.92-0.86Q160.96 0.20 158.44 0.20L158.44 0.20Q154.32 0.20 151.94-2.10Q149.56-4.40 149.56-8.84L149.56-8.84L149.56-21.04L152.40-21.04L152.40-9.12Q152.40-5.80 154.04-4.08Q155.68-2.36 158.72-2.36L158.72-2.36Q162.04-2.36 163.96-4.38Q165.88-6.40 165.88-10L165.88-10L165.88-21.04Z M189.40-21.20Q193.36-21.20 195.70-18.90Q198.04-16.60 198.04-12.20L198.04-12.20L198.04 0L195.20 0L195.20-11.92Q195.20-15.20 193.56-16.92Q191.92-18.64 188.88-18.64L188.88-18.64Q185.48-18.64 183.50-16.62Q181.52-14.60 181.52-11.04L181.52-11.04L181.52 0L178.68 0L178.68-21.04L181.40-21.04L181.40-17.16Q182.56-19.08 184.62-20.14Q186.68-21.20 189.40-21.20L189.40-21.20Z M207.76 0L207.76-21.04L210.60-21.04L210.60 0L207.76 0ZM209.20-25.64Q208.32-25.64 207.72-26.24Q207.12-26.84 207.12-27.68L207.12-27.68Q207.12-28.48 207.72-29.08Q208.32-29.68 209.20-29.68L209.20-29.68Q210.08-29.68 210.68-29.10Q211.28-28.52 211.28-27.72L211.28-27.72Q211.28-26.84 210.68-26.24Q210.08-25.64 209.20-25.64L209.20-25.64Z M230.60-3.32L231.60-1.28Q230.80-0.56 229.62-0.18Q228.44 0.20 227.16 0.20L227.16 0.20Q224.20 0.20 222.60-1.40Q221.00-3 221.00-5.92L221.00-5.92L221.00-18.64L217.24-18.64L217.24-21.04L221.00-21.04L221.00-25.64L223.84-25.64L223.84-21.04L230.24-21.04L230.24-18.64L223.84-18.64L223.84-6.08Q223.84-4.20 224.78-3.22Q225.72-2.24 227.48-2.24L227.48-2.24Q228.36-2.24 229.18-2.52Q230.00-2.80 230.60-3.32L230.60-3.32Z M253.24-21.04L256.04-21.04L245.52 2.52Q244.24 5.48 242.56 6.72Q240.88 7.96 238.52 7.96L238.52 7.96Q237.00 7.96 235.68 7.48Q234.36 7 233.40 6.04L233.40 6.04L234.72 3.92Q236.32 5.52 238.56 5.52L238.56 5.52Q240.00 5.52 241.02 4.72Q242.04 3.92 242.92 2L242.92 2L243.84-0.04L234.44-21.04L237.40-21.04L245.32-3.16L253.24-21.04Z M275.12 7.76L275.12-29.68L277.76-29.68L277.76 7.76L275.12 7.76Z M308.64-4.56L308.64-14L311.48-14L311.48-3.32Q309.52-1.60 306.84-0.68Q304.16 0.24 301.20 0.24L301.20 0.24Q297.00 0.24 293.64-1.60Q290.28-3.44 288.36-6.70Q286.44-9.96 286.44-14L286.44-14Q286.44-18.04 288.36-21.30Q290.28-24.56 293.64-26.40Q297.00-28.24 301.24-28.24L301.24-28.24Q304.44-28.24 307.12-27.22Q309.80-26.20 311.64-24.20L311.64-24.20L309.80-22.32Q306.48-25.60 301.36-25.60L301.36-25.60Q297.96-25.60 295.22-24.10Q292.48-22.60 290.92-19.94Q289.36-17.28 289.36-14L289.36-14Q289.36-10.72 290.92-8.08Q292.48-5.44 295.20-3.92Q297.92-2.40 301.32-2.40L301.32-2.40Q305.64-2.40 308.64-4.56L308.64-4.56Z M328.60-21.20Q332.72-21.20 334.92-19.14Q337.12-17.08 337.12-13.04L337.12-13.04L337.12 0L334.40 0L334.40-3.28Q333.44-1.64 331.58-0.72Q329.72 0.20 327.16 0.20L327.16 0.20Q323.64 0.20 321.56-1.48Q319.48-3.16 319.48-5.92L319.48-5.92Q319.48-8.60 321.42-10.24Q323.36-11.88 327.60-11.88L327.60-11.88L334.28-11.88L334.28-13.16Q334.28-15.88 332.76-17.30Q331.24-18.72 328.32-18.72L328.32-18.72Q326.32-18.72 324.48-18.06Q322.64-17.40 321.32-16.24L321.32-16.24L320.04-18.36Q321.64-19.72 323.88-20.46Q326.12-21.20 328.60-21.20L328.60-21.20ZM327.60-2.04Q330.00-2.04 331.72-3.14Q333.44-4.24 334.28-6.32L334.28-6.32L334.28-9.76L327.68-9.76Q322.28-9.76 322.28-6L322.28-6Q322.28-4.16 323.68-3.10Q325.08-2.04 327.60-2.04L327.60-2.04Z M373.08-21.20Q377.04-21.20 379.30-18.92Q381.56-16.64 381.56-12.20L381.56-12.20L381.56 0L378.72 0L378.72-11.92Q378.72-15.20 377.14-16.92Q375.56-18.64 372.68-18.64L372.68-18.64Q369.40-18.64 367.52-16.62Q365.64-14.60 365.64-11.04L365.64-11.04L365.64 0L362.80 0L362.80-11.92Q362.80-15.20 361.22-16.92Q359.64-18.64 356.72-18.64L356.72-18.64Q353.48-18.64 351.58-16.62Q349.68-14.60 349.68-11.04L349.68-11.04L349.68 0L346.84 0L346.84-21.04L349.56-21.04L349.56-17.20Q350.68-19.12 352.68-20.16Q354.68-21.20 357.28-21.20L357.28-21.20Q359.92-21.20 361.86-20.08Q363.80-18.96 364.76-16.76L364.76-16.76Q365.92-18.84 368.10-20.02Q370.28-21.20 373.08-21.20L373.08-21.20Z M391.28 0L391.28-21.04L394.12-21.04L394.12 0L391.28 0ZM392.72-25.64Q391.84-25.64 391.24-26.24Q390.64-26.84 390.64-27.68L390.64-27.68Q390.64-28.48 391.24-29.08Q391.84-29.68 392.72-29.68L392.72-29.68Q393.60-29.68 394.20-29.10Q394.80-28.52 394.80-27.72L394.80-27.72Q394.80-26.84 394.20-26.24Q393.60-25.64 392.72-25.64L392.72-25.64Z M414.76-21.20Q418.72-21.20 421.06-18.90Q423.40-16.60 423.40-12.20L423.40-12.20L423.40 0L420.56 0L420.56-11.92Q420.56-15.20 418.92-16.92Q417.28-18.64 414.24-18.64L414.24-18.64Q410.84-18.64 408.86-16.62Q406.88-14.60 406.88-11.04L406.88-11.04L406.88 0L404.04 0L404.04-21.04L406.76-21.04L406.76-17.16Q407.92-19.08 409.98-20.14Q412.04-21.20 414.76-21.20L414.76-21.20Z M449.96-21.04L452.68-21.04L452.68-2.56Q452.68 2.80 450.06 5.38Q447.44 7.96 442.16 7.96L442.16 7.96Q439.24 7.96 436.62 7.10Q434.00 6.24 432.36 4.72L432.36 4.72L433.80 2.56Q435.32 3.92 437.50 4.68Q439.68 5.44 442.08 5.44L442.08 5.44Q446.08 5.44 447.96 3.58Q449.84 1.72 449.84-2.20L449.84-2.20L449.84-4.88Q448.52-2.88 446.38-1.84Q444.24-0.80 441.64-0.80L441.64-0.80Q438.68-0.80 436.26-2.10Q433.84-3.40 432.46-5.74Q431.08-8.08 431.08-11.04L431.08-11.04Q431.08-14 432.46-16.32Q433.84-18.64 436.24-19.92Q438.64-21.20 441.64-21.20L441.64-21.20Q444.32-21.20 446.48-20.12Q448.64-19.04 449.96-17L449.96-17L449.96-21.04ZM441.92-3.32Q444.20-3.32 446.04-4.30Q447.88-5.28 448.90-7.04Q449.92-8.80 449.92-11.04L449.92-11.04Q449.92-13.28 448.90-15.02Q447.88-16.76 446.06-17.74Q444.24-18.72 441.92-18.72L441.92-18.72Q439.64-18.72 437.82-17.76Q436.00-16.80 434.98-15.04Q433.96-13.28 433.96-11.04L433.96-11.04Q433.96-8.80 434.98-7.04Q436.00-5.28 437.82-4.30Q439.64-3.32 441.92-3.32L441.92-3.32Z M482.48-21.20Q486.60-21.20 488.80-19.14Q491.00-17.08 491.00-13.04L491.00-13.04L491.00 0L488.28 0L488.28-3.28Q487.32-1.64 485.46-0.72Q483.60 0.20 481.04 0.20L481.04 0.20Q477.52 0.20 475.44-1.48Q473.36-3.16 473.36-5.92L473.36-5.92Q473.36-8.60 475.30-10.24Q477.24-11.88 481.48-11.88L481.48-11.88L488.16-11.88L488.16-13.16Q488.16-15.88 486.64-17.30Q485.12-18.72 482.20-18.72L482.20-18.72Q480.20-18.72 478.36-18.06Q476.52-17.40 475.20-16.24L475.20-16.24L473.92-18.36Q475.52-19.72 477.76-20.46Q480.00-21.20 482.48-21.20L482.48-21.20ZM481.48-2.04Q483.88-2.04 485.60-3.14Q487.32-4.24 488.16-6.32L488.16-6.32L488.16-9.76L481.56-9.76Q476.16-9.76 476.16-6L476.16-6Q476.16-4.16 477.56-3.10Q478.96-2.04 481.48-2.04L481.48-2.04Z M511.44-21.20Q515.40-21.20 517.74-18.90Q520.08-16.60 520.08-12.20L520.08-12.20L520.08 0L517.24 0L517.24-11.92Q517.24-15.20 515.60-16.92Q513.96-18.64 510.92-18.64L510.92-18.64Q507.52-18.64 505.54-16.62Q503.56-14.60 503.56-11.04L503.56-11.04L503.56 0L500.72 0L500.72-21.04L503.44-21.04L503.44-17.16Q504.60-19.08 506.66-20.14Q508.72-21.20 511.44-21.20L511.44-21.20Z M546.24-29.68L549.08-29.68L549.08 0L546.36 0L546.36-4.16Q545.08-2.04 542.98-0.92Q540.88 0.20 538.24 0.20L538.24 0.20Q535.28 0.20 532.88-1.16Q530.48-2.52 529.12-4.96Q527.76-7.40 527.76-10.52L527.76-10.52Q527.76-13.64 529.12-16.08Q530.48-18.52 532.88-19.86Q535.28-21.20 538.24-21.20L538.24-21.20Q540.80-21.20 542.86-20.14Q544.92-19.08 546.24-17.04L546.24-17.04L546.24-29.68ZM538.48-2.32Q540.68-2.32 542.46-3.34Q544.24-4.36 545.26-6.24Q546.28-8.12 546.28-10.52L546.28-10.52Q546.28-12.92 545.26-14.80Q544.24-16.68 542.46-17.70Q540.68-18.72 538.48-18.72L538.48-18.72Q536.24-18.72 534.46-17.70Q532.68-16.68 531.66-14.80Q530.64-12.92 530.64-10.52L530.64-10.52Q530.64-8.12 531.66-6.24Q532.68-4.36 534.46-3.34Q536.24-2.32 538.48-2.32L538.48-2.32Z M580.20 0.20Q577.08 0.20 574.62-1.16Q572.16-2.52 570.76-4.98Q569.36-7.44 569.36-10.52L569.36-10.52Q569.36-13.60 570.76-16.04Q572.16-18.48 574.62-19.84Q577.08-21.20 580.20-21.20L580.20-21.20Q582.92-21.20 585.06-20.14Q587.20-19.08 588.44-17.04L588.44-17.04L586.32-15.60Q585.28-17.16 583.68-17.94Q582.08-18.72 580.20-18.72L580.20-18.72Q577.92-18.72 576.10-17.70Q574.28-16.68 573.26-14.80Q572.24-12.92 572.24-10.52L572.24-10.52Q572.24-8.08 573.26-6.22Q574.28-4.36 576.10-3.34Q577.92-2.32 580.20-2.32L580.20-2.32Q582.08-2.32 583.68-3.08Q585.28-3.84 586.32-5.40L586.32-5.40L588.44-3.96Q587.20-1.92 585.04-0.86Q582.88 0.20 580.20 0.20L580.20 0.20Z M604.24 0.20Q601.20 0.20 598.76-1.18Q596.32-2.56 594.92-5Q593.52-7.44 593.52-10.52L593.52-10.52Q593.52-13.60 594.92-16.04Q596.32-18.48 598.76-19.84Q601.20-21.20 604.24-21.20L604.24-21.20Q607.28-21.20 609.72-19.84Q612.16-18.48 613.54-16.04Q614.92-13.60 614.92-10.52L614.92-10.52Q614.92-7.44 613.54-5Q612.16-2.56 609.72-1.18Q607.28 0.20 604.24 0.20L604.24 0.20ZM604.24-2.32Q606.48-2.32 608.26-3.34Q610.04-4.36 611.04-6.24Q612.04-8.12 612.04-10.52L612.04-10.52Q612.04-12.92 611.04-14.80Q610.04-16.68 608.26-17.70Q606.48-18.72 604.24-18.72L604.24-18.72Q602.00-18.72 600.22-17.70Q598.44-16.68 597.42-14.80Q596.40-12.92 596.40-10.52L596.40-10.52Q596.40-8.12 597.42-6.24Q598.44-4.36 600.22-3.34Q602.00-2.32 604.24-2.32L604.24-2.32Z M639.08-29.68L641.92-29.68L641.92 0L639.20 0L639.20-4.16Q637.92-2.04 635.82-0.92Q633.72 0.20 631.08 0.20L631.08 0.20Q628.12 0.20 625.72-1.16Q623.32-2.52 621.96-4.96Q620.60-7.40 620.60-10.52L620.60-10.52Q620.60-13.64 621.96-16.08Q623.32-18.52 625.72-19.86Q628.12-21.20 631.08-21.20L631.08-21.20Q633.64-21.20 635.70-20.14Q637.76-19.08 639.08-17.04L639.08-17.04L639.08-29.68ZM631.32-2.32Q633.52-2.32 635.30-3.34Q637.08-4.36 638.10-6.24Q639.12-8.12 639.12-10.52L639.12-10.52Q639.12-12.92 638.10-14.80Q637.08-16.68 635.30-17.70Q633.52-18.72 631.32-18.72L631.32-18.72Q629.08-18.72 627.30-17.70Q625.52-16.68 624.50-14.80Q623.48-12.92 623.48-10.52L623.48-10.52Q623.48-8.12 624.50-6.24Q625.52-4.36 627.30-3.34Q629.08-2.32 631.32-2.32L631.32-2.32Z M670.20-10.52L670.16-9.64L652.56-9.64Q652.80-6.36 655.08-4.34Q657.36-2.32 660.84-2.32L660.84-2.32Q662.80-2.32 664.44-3.02Q666.08-3.72 667.28-5.08L667.28-5.08L668.88-3.24Q667.48-1.56 665.38-0.68Q663.28 0.20 660.76 0.20L660.76 0.20Q657.52 0.20 655.02-1.18Q652.52-2.56 651.12-5Q649.72-7.44 649.72-10.52L649.72-10.52Q649.72-13.60 651.06-16.04Q652.40-18.48 654.74-19.84Q657.08-21.20 660.00-21.20L660.00-21.20Q662.92-21.20 665.24-19.84Q667.56-18.48 668.88-16.06Q670.20-13.64 670.20-10.52L670.20-10.52ZM660.00-18.76Q656.96-18.76 654.90-16.82Q652.84-14.88 652.56-11.76L652.56-11.76L667.48-11.76Q667.20-14.88 665.14-16.82Q663.08-18.76 660.00-18.76L660.00-18.76Z M678.60 7.76L678.60-29.68L681.24-29.68L681.24 7.76L678.60 7.76Z M724.08-25.44L707.84-25.44L707.84-14.44L722.32-14.44L722.32-11.88L707.84-11.88L707.84 0L704.88 0L704.88-28L724.08-28L724.08-25.44Z M754.56 0L751.32 0L744.92-9Q743.84-8.88 742.68-8.88L742.68-8.88L735.16-8.88L735.16 0L732.20 0L732.20-28L742.68-28Q748.04-28 751.08-25.44Q754.12-22.88 754.12-18.40L754.12-18.40Q754.12-15.12 752.46-12.86Q750.80-10.60 747.72-9.60L747.72-9.60L754.56 0ZM742.60-11.40Q746.76-11.40 748.96-13.24Q751.16-15.08 751.16-18.40L751.16-18.40Q751.16-21.80 748.96-23.62Q746.76-25.44 742.60-25.44L742.60-25.44L735.16-25.44L735.16-11.40L742.60-11.40Z"/></g>
</svg>
</g><g opacity="1" transform="rotate(0 -63.3787 133.3095)">
<svg width="375.4174" height="60" x="-63.3787" y="133.3095" version="1.1" preserveAspectRatio="none" viewBox="3.32 -28 178.20000000000002 28.48">
  <g transform="matrix(1 0 0 1 0 0)" class="companyName"><path id="id-D6z1nYkh7" d="M15.44-28Q19.16-28 21.90-26.76Q24.64-25.52 26.12-23.24Q27.60-20.96 27.60-17.84L27.60-17.84Q27.60-14.76 26.12-12.46Q24.64-10.16 21.90-8.94Q19.16-7.72 15.44-7.72L15.44-7.72L9.80-7.72L9.80 0L3.32 0L3.32-28L15.44-28ZM15.08-13Q18-13 19.52-14.26Q21.04-15.52 21.04-17.84L21.04-17.84Q21.04-20.20 19.52-21.46Q18-22.72 15.08-22.72L15.08-22.72L9.80-22.72L9.80-13L15.08-13Z M32.20 0L32.20-28L38.68-28L38.68 0L32.20 0Z M64.48 0L55.52-11L51.76-7.08L51.76 0L45.32 0L45.32-28L51.76-28L51.76-14.92L64.16-28L71.36-28L59.76-15.52L72.04 0L64.48 0Z M94.60 0L92.12-6L79.12-6L76.64 0L70 0L82.48-28L88.88-28L101.40 0L94.60 0ZM81.20-10.92L90.08-10.92L85.64-21.64L81.20-10.92Z M126.92-28L116.04-9.92L116.04 0L109.56 0L109.56-10L98.72-28L105.60-28L113.08-15.56L120.56-28L126.92-28Z M141.68 0.48Q135.68 0.48 132.34-2.84Q129-6.16 129-12.32L129-12.32L129-28L135.48-28L135.48-12.56Q135.48-5.04 141.72-5.04L141.72-5.04Q144.76-5.04 146.36-6.86Q147.96-8.68 147.96-12.56L147.96-12.56L147.96-28L154.36-28L154.36-12.32Q154.36-6.16 151.02-2.84Q147.68 0.48 141.68 0.48L141.68 0.48Z M166.08 0L166.08-22.72L157.12-22.72L157.12-28L181.52-28L181.52-22.72L172.56-22.72L172.56 0L166.08 0Z"/></g>
</svg>
</g></svg></svg>