<svg version="1.1" preserveAspectRatio="none" xmlns="http://www.w3.org/2000/svg" width="500" height="500" viewBox="0 0 500 500"><rect width="100%" height="100%" fill="#101010" fill-opacity="1"/><svg viewBox="196.7676 323.5051 409.2068 161.2" width="333" height="131.17963826603076" x="83.5px" y="184.4102px" xmlns="http://www.w3.org/2000/svg" xmlns:xlink="http://www.w3.org/1999/xlink" preserveAspectRatio="none"><defs></defs><style>.companyName {fill:#EFEFEF;fill-opacity:1;}.icon1 {fill:#EFEFEF;fill-opacity:1;}.icon3-str {stroke:#C0C0C0;stroke-opacity:1;}</style><g opacity="1" transform="rotate(0 196.7676 465.5051)">
<svg width="409.2068" height="19.2" x="196.7676" y="465.5051" version="1.1" preserveAspectRatio="none" viewBox="1.84 -32.08 913.88 42.879999999999995">
  <g transform="matrix(1 0 0 1 0 0)" class="icon1"><path id="id-6izo4zJp30" d="M15.36-28.52Q20.56-28.52 24-25.88Q27.44-23.24 28.64-18.72L28.64-18.72L23.80-18.72Q22.80-21.28 20.62-22.78Q18.44-24.28 15.28-24.28L15.28-24.28Q12.76-24.28 10.78-23.04Q8.80-21.80 7.66-19.50Q6.52-17.20 6.52-14.12L6.52-14.12Q6.52-11.08 7.66-8.78Q8.80-6.48 10.78-5.24Q12.76-4 15.28-4L15.28-4Q18.44-4 20.62-5.50Q22.80-7 23.80-9.52L23.80-9.52L28.64-9.52Q27.44-5 24-2.38Q20.56 0.24 15.36 0.24L15.36 0.24Q11.36 0.24 8.28-1.58Q5.20-3.40 3.52-6.66Q1.84-9.92 1.84-14.12L1.84-14.12Q1.84-18.32 3.52-21.58Q5.20-24.84 8.28-26.68Q11.36-28.52 15.36-28.52L15.36-28.52Z M51.28-22.32Q54.48-22.32 57.04-20.96Q59.60-19.60 61.04-17.04Q62.48-14.48 62.48-11.04L62.48-11.04Q62.48-7.56 61.04-5Q59.60-2.44 57.04-1.08Q54.48 0.28 51.28 0.28L51.28 0.28Q48.08 0.28 45.54-1.08Q43-2.44 41.54-5.02Q40.08-7.60 40.08-11.04L40.08-11.04Q40.08-14.48 41.54-17.04Q43-19.60 45.54-20.96Q48.08-22.32 51.28-22.32L51.28-22.32ZM51.28-18.36Q49.52-18.36 48.04-17.56Q46.56-16.76 45.66-15.10Q44.76-13.44 44.76-11.04L44.76-11.04Q44.76-8.60 45.66-6.96Q46.56-5.32 48.04-4.52Q49.52-3.72 51.28-3.72L51.28-3.72Q53.04-3.72 54.52-4.52Q56-5.32 56.90-6.96Q57.80-8.60 57.80-11.04L57.80-11.04Q57.80-13.44 56.90-15.10Q56-16.76 54.52-17.56Q53.04-18.36 51.28-18.36L51.28-18.36Z M102.44-22.40Q106.36-22.40 108.70-19.92Q111.04-17.44 111.04-12.84L111.04-12.84L111.04 0L106.48 0L106.48-12.36Q106.48-15.24 105.04-16.82Q103.60-18.40 101.08-18.40L101.08-18.40Q98.40-18.40 96.82-16.70Q95.24-15 95.24-11.72L95.24-11.72L95.24 0L90.68 0L90.68-12.36Q90.68-15.24 89.24-16.82Q87.80-18.40 85.28-18.40L85.28-18.40Q82.60-18.40 81.02-16.70Q79.44-15 79.44-11.72L79.44-11.72L79.44 0L74.88 0L74.88-22.04L79.44-22.04L79.44-17.44Q80.28-19.84 82.24-21.12Q84.20-22.40 86.84-22.40L86.84-22.40Q89.60-22.40 91.62-21.04Q93.64-19.68 94.56-17.12L94.56-17.12Q95.52-19.60 97.64-21Q99.76-22.40 102.44-22.40L102.44-22.40Z M151.92-22.40Q155.84-22.40 158.18-19.92Q160.52-17.44 160.52-12.84L160.52-12.84L160.52 0L155.96 0L155.96-12.36Q155.96-15.24 154.52-16.82Q153.08-18.40 150.56-18.40L150.56-18.40Q147.88-18.40 146.30-16.70Q144.72-15 144.72-11.72L144.72-11.72L144.72 0L140.16 0L140.16-12.36Q140.16-15.24 138.72-16.82Q137.28-18.40 134.76-18.40L134.76-18.40Q132.08-18.40 130.50-16.70Q128.92-15 128.92-11.72L128.92-11.72L128.92 0L124.36 0L124.36-22.04L128.92-22.04L128.92-17.44Q129.76-19.84 131.72-21.12Q133.68-22.40 136.32-22.40L136.32-22.40Q139.08-22.40 141.10-21.04Q143.12-19.68 144.04-17.12L144.04-17.12Q145-19.60 147.12-21Q149.24-22.40 151.92-22.40L151.92-22.40Z M189.56-22.04L194.16-22.04L194.16 0L189.56 0L189.56-4.80Q188.72-2.36 186.64-1.02Q184.56 0.32 181.80 0.32L181.80 0.32Q177.96 0.32 175.64-2.16Q173.32-4.64 173.32-9.24L173.32-9.24L173.32-22.04L177.88-22.04L177.88-9.72Q177.88-6.72 179.40-5.10Q180.92-3.48 183.56-3.48L183.56-3.48Q186.28-3.48 187.92-5.24Q189.56-7 189.56-10.36L189.56-10.36L189.56-22.04Z M219.96-22.40Q223.80-22.40 226.12-19.92Q228.44-17.44 228.44-12.84L228.44-12.84L228.44 0L223.88 0L223.88-12.36Q223.88-15.32 222.36-16.94Q220.84-18.56 218.20-18.56L218.20-18.56Q215.48-18.56 213.84-16.82Q212.20-15.08 212.20-11.72L212.20-11.72L212.20 0L207.64 0L207.64-22.04L212.20-22.04L212.20-17.20Q213.08-19.68 215.16-21.04Q217.24-22.40 219.96-22.40L219.96-22.40Z M241.12-28.44Q241.12-29.60 241.92-30.36Q242.72-31.12 244.04-31.12L244.04-31.12Q245.36-31.12 246.18-30.36Q247.00-29.60 247.00-28.44L247.00-28.44Q247.00-27.28 246.18-26.56Q245.36-25.84 244.04-25.84L244.04-25.84Q242.72-25.84 241.92-26.56Q241.12-27.28 241.12-28.44L241.12-28.44ZM241.76-22.04L246.32-22.04L246.32 0L241.76 0L241.76-22.04Z M268.72-3.96L270.92-3.96L270.92 0L268.12 0Q264.60 0 262.78-1.70Q260.96-3.40 260.96-7.36L260.96-7.36L260.96-18.16L257.80-18.16L257.80-22.04L260.96-22.04L260.96-27.52L265.56-27.52L265.56-22.04L270.88-22.04L270.88-18.16L265.56-18.16L265.56-7.28Q265.56-5.40 266.26-4.68Q266.96-3.96 268.72-3.96L268.72-3.96Z M280.68-22.04L285.80-22.04L292.40-5.84L298.52-22.04L303.60-22.04L290.28 10.48L285.20 10.48L289.96-0.52L280.68-22.04Z M335.96-32.08L335.96 4.52L331.36 4.52L331.36-32.08L335.96-32.08Z M361.84-28.48Q366.88-28.48 370.24-26Q373.60-23.52 374.68-19.24L374.68-19.24L369.88-19.24Q368.96-21.52 366.86-22.88Q364.76-24.24 361.88-24.24L361.88-24.24Q359.24-24.24 357.14-23Q355.04-21.76 353.86-19.48Q352.68-17.20 352.68-14.12L352.68-14.12Q352.68-10.88 353.88-8.56Q355.08-6.24 357.26-5.02Q359.44-3.80 362.32-3.80L362.32-3.80Q365.84-3.80 368.36-5.98Q370.88-8.16 371.40-11.96L371.40-11.96L361.04-11.96L361.04-15.32L375.24-15.32L375.24-10.96Q374.76-7.84 373.02-5.30Q371.28-2.76 368.42-1.24Q365.56 0.28 361.88 0.28L361.88 0.28Q357.76 0.28 354.60-1.56Q351.44-3.40 349.72-6.66Q348-9.92 348-14.12L348-14.12Q348-18.32 349.72-21.58Q351.44-24.84 354.58-26.66Q357.72-28.48 361.84-28.48L361.84-28.48Z M396.68-22.32Q399.68-22.32 401.80-20.84Q403.92-19.36 404.80-16.92L404.80-16.92L404.80-22.04L409.36-22.04L409.36 0L404.80 0L404.80-5.12Q403.92-2.68 401.80-1.20Q399.68 0.28 396.68 0.28L396.68 0.28Q393.80 0.28 391.54-1.08Q389.28-2.44 388.00-5Q386.72-7.56 386.72-11.04L386.72-11.04Q386.72-14.48 388.00-17.04Q389.28-19.60 391.54-20.96Q393.80-22.32 396.68-22.32L396.68-22.32ZM398.08-18.32Q395.04-18.32 393.22-16.38Q391.40-14.44 391.40-11.04L391.40-11.04Q391.40-7.64 393.22-5.70Q395.04-3.76 398.08-3.76L398.08-3.76Q400.00-3.76 401.52-4.66Q403.04-5.56 403.92-7.20Q404.80-8.84 404.80-11.04L404.80-11.04Q404.80-13.20 403.92-14.86Q403.04-16.52 401.52-17.42Q400.00-18.32 398.08-18.32L398.08-18.32Z M450.40-22.40Q454.32-22.40 456.66-19.92Q459.00-17.44 459.00-12.84L459.00-12.84L459.00 0L454.44 0L454.44-12.36Q454.44-15.24 453.00-16.82Q451.56-18.40 449.04-18.40L449.04-18.40Q446.36-18.40 444.78-16.70Q443.20-15 443.20-11.72L443.20-11.72L443.20 0L438.64 0L438.64-12.36Q438.64-15.24 437.20-16.82Q435.76-18.40 433.24-18.40L433.24-18.40Q430.56-18.40 428.98-16.70Q427.40-15 427.40-11.72L427.40-11.72L427.40 0L422.84 0L422.84-22.04L427.40-22.04L427.40-17.44Q428.24-19.84 430.20-21.12Q432.16-22.40 434.80-22.40L434.80-22.40Q437.56-22.40 439.58-21.04Q441.60-19.68 442.52-17.12L442.52-17.12Q443.48-19.60 445.60-21Q447.72-22.40 450.40-22.40L450.40-22.40Z M471.68-28.44Q471.68-29.60 472.48-30.36Q473.28-31.12 474.60-31.12L474.60-31.12Q475.92-31.12 476.74-30.36Q477.56-29.60 477.56-28.44L477.56-28.44Q477.56-27.28 476.74-26.56Q475.92-25.84 474.60-25.84L474.60-25.84Q473.28-25.84 472.48-26.56Q471.68-27.28 471.68-28.44L471.68-28.44ZM472.32-22.04L476.88-22.04L476.88 0L472.32 0L472.32-22.04Z M502.72-22.40Q506.56-22.40 508.88-19.92Q511.20-17.44 511.20-12.84L511.20-12.84L511.20 0L506.64 0L506.64-12.36Q506.64-15.32 505.12-16.94Q503.60-18.56 500.96-18.56L500.96-18.56Q498.24-18.56 496.60-16.82Q494.96-15.08 494.96-11.72L494.96-11.72L494.96 0L490.40 0L490.40-22.04L494.96-22.04L494.96-17.20Q495.84-19.68 497.92-21.04Q500.00-22.40 502.72-22.40L502.72-22.40Z M533.36-22.32Q536.36-22.32 538.48-20.84Q540.60-19.36 541.48-16.92L541.48-16.92L541.48-22.04L546.04-22.04L546.04 0.24Q546.04 3.32 544.78 5.70Q543.52 8.08 541.16 9.44Q538.80 10.80 535.56 10.80L535.56 10.80Q530.92 10.80 528.06 8.60Q525.20 6.40 524.48 2.64L524.48 2.64L529 2.64Q529.56 4.60 531.16 5.70Q532.76 6.80 535.24 6.80L535.24 6.80Q537.96 6.80 539.72 5.12Q541.48 3.44 541.48 0.24L541.48 0.24L541.48-5.12Q540.60-2.68 538.48-1.20Q536.36 0.28 533.36 0.28L533.36 0.28Q530.48 0.28 528.22-1.08Q525.96-2.44 524.68-5Q523.40-7.56 523.40-11.04L523.40-11.04Q523.40-14.48 524.68-17.04Q525.96-19.60 528.22-20.96Q530.48-22.32 533.36-22.32L533.36-22.32ZM534.76-18.32Q531.72-18.32 529.90-16.38Q528.08-14.44 528.08-11.04L528.08-11.04Q528.08-7.64 529.90-5.70Q531.72-3.76 534.76-3.76L534.76-3.76Q536.68-3.76 538.20-4.66Q539.72-5.56 540.60-7.20Q541.48-8.84 541.48-11.04L541.48-11.04Q541.48-13.20 540.60-14.86Q539.72-16.52 538.20-17.42Q536.68-18.32 534.76-18.32L534.76-18.32Z M585.72-22.32Q588.72-22.32 590.84-20.84Q592.96-19.36 593.84-16.92L593.84-16.92L593.84-22.04L598.40-22.04L598.40 0L593.84 0L593.84-5.12Q592.96-2.68 590.84-1.20Q588.72 0.28 585.72 0.28L585.72 0.28Q582.84 0.28 580.58-1.08Q578.32-2.44 577.04-5Q575.76-7.56 575.76-11.04L575.76-11.04Q575.76-14.48 577.04-17.04Q578.32-19.60 580.58-20.96Q582.84-22.32 585.72-22.32L585.72-22.32ZM587.12-18.32Q584.08-18.32 582.26-16.38Q580.44-14.44 580.44-11.04L580.44-11.04Q580.44-7.64 582.26-5.70Q584.08-3.76 587.12-3.76L587.12-3.76Q589.04-3.76 590.56-4.66Q592.08-5.56 592.96-7.20Q593.84-8.84 593.84-11.04L593.84-11.04Q593.84-13.20 592.96-14.86Q592.08-16.52 590.56-17.42Q589.04-18.32 587.12-18.32L587.12-18.32Z M624.20-22.40Q628.04-22.40 630.36-19.92Q632.68-17.44 632.68-12.84L632.68-12.84L632.68 0L628.12 0L628.12-12.36Q628.12-15.32 626.60-16.94Q625.08-18.56 622.44-18.56L622.44-18.56Q619.72-18.56 618.08-16.82Q616.44-15.08 616.44-11.72L616.44-11.72L616.44 0L611.88 0L611.88-22.04L616.44-22.04L616.44-17.20Q617.32-19.68 619.40-21.04Q621.48-22.40 624.20-22.40L624.20-22.40Z M654.84-22.32Q657.84-22.32 659.96-20.84Q662.08-19.36 662.92-16.92L662.92-16.92L662.92-29.60L667.52-29.60L667.52 0L662.92 0L662.92-5.12Q662.08-2.68 659.96-1.20Q657.84 0.28 654.84 0.28L654.84 0.28Q651.96 0.28 649.70-1.08Q647.44-2.44 646.16-5Q644.88-7.56 644.88-11.04L644.88-11.04Q644.88-14.48 646.16-17.04Q647.44-19.60 649.70-20.96Q651.96-22.32 654.84-22.32L654.84-22.32ZM656.24-18.32Q653.20-18.32 651.38-16.38Q649.56-14.44 649.56-11.04L649.56-11.04Q649.56-7.64 651.38-5.70Q653.20-3.76 656.24-3.76L656.24-3.76Q658.16-3.76 659.68-4.66Q661.20-5.56 662.08-7.20Q662.96-8.84 662.96-11.04L662.96-11.04Q662.96-13.20 662.08-14.86Q661.20-16.52 659.68-17.42Q658.16-18.32 656.24-18.32L656.24-18.32Z M708.16-22.32Q712.44-22.32 715.24-20.06Q718.04-17.80 718.72-13.92L718.72-13.92L713.88-13.92Q713.48-16 711.94-17.18Q710.40-18.36 708.08-18.36L708.08-18.36Q705.44-18.36 703.68-16.50Q701.92-14.64 701.92-11.04L701.92-11.04Q701.92-7.44 703.68-5.56Q705.44-3.68 708.08-3.68L708.08-3.68Q710.40-3.68 711.94-4.88Q713.48-6.08 713.88-8.16L713.88-8.16L718.72-8.16Q718.04-4.28 715.24-2Q712.44 0.28 708.16 0.28L708.16 0.28Q704.96 0.28 702.50-1.08Q700.04-2.44 698.64-5Q697.24-7.56 697.24-11.04L697.24-11.04Q697.24-14.48 698.64-17.04Q700.04-19.60 702.50-20.96Q704.96-22.32 708.16-22.32L708.16-22.32Z M741.20-22.32Q744.40-22.32 746.96-20.96Q749.52-19.60 750.96-17.04Q752.40-14.48 752.40-11.04L752.40-11.04Q752.40-7.56 750.96-5Q749.52-2.44 746.96-1.08Q744.40 0.28 741.20 0.28L741.20 0.28Q738 0.28 735.46-1.08Q732.92-2.44 731.46-5.02Q730-7.60 730-11.04L730-11.04Q730-14.48 731.46-17.04Q732.92-19.60 735.46-20.96Q738-22.32 741.20-22.32L741.20-22.32ZM741.20-18.36Q739.44-18.36 737.96-17.56Q736.48-16.76 735.58-15.10Q734.68-13.44 734.68-11.04L734.68-11.04Q734.68-8.60 735.58-6.96Q736.48-5.32 737.96-4.52Q739.44-3.72 741.20-3.72L741.20-3.72Q742.96-3.72 744.44-4.52Q745.92-5.32 746.82-6.96Q747.72-8.60 747.72-11.04L747.72-11.04Q747.72-13.44 746.82-15.10Q745.92-16.76 744.44-17.56Q742.96-18.36 741.20-18.36L741.20-18.36Z M773.64-22.32Q776.64-22.32 778.76-20.84Q780.88-19.36 781.72-16.92L781.72-16.92L781.72-29.60L786.32-29.60L786.32 0L781.72 0L781.72-5.12Q780.88-2.68 778.76-1.20Q776.64 0.28 773.64 0.28L773.64 0.28Q770.76 0.28 768.50-1.08Q766.24-2.44 764.96-5Q763.68-7.56 763.68-11.04L763.68-11.04Q763.68-14.48 764.96-17.04Q766.24-19.60 768.50-20.96Q770.76-22.32 773.64-22.32L773.64-22.32ZM775.04-18.32Q772-18.32 770.18-16.38Q768.36-14.44 768.36-11.04L768.36-11.04Q768.36-7.64 770.18-5.70Q772-3.76 775.04-3.76L775.04-3.76Q776.96-3.76 778.48-4.66Q780-5.56 780.88-7.20Q781.76-8.84 781.76-11.04L781.76-11.04Q781.76-13.20 780.88-14.86Q780-16.52 778.48-17.42Q776.96-18.32 775.04-18.32L775.04-18.32Z M820.28-12.08Q820.28-10.96 820.12-10.12L820.12-10.12L803.16-10.12Q803.28-6.72 805.04-5.08Q806.80-3.44 809.40-3.44L809.40-3.44Q811.68-3.44 813.26-4.60Q814.84-5.76 815.20-7.68L815.20-7.68L820.08-7.68Q819.64-5.36 818.24-3.56Q816.84-1.76 814.60-0.74Q812.36 0.28 809.60 0.28L809.60 0.28Q806.40 0.28 803.94-1.08Q801.48-2.44 800.08-5Q798.68-7.56 798.68-11.04L798.68-11.04Q798.68-14.48 800.08-17.04Q801.48-19.60 803.94-20.96Q806.40-22.32 809.60-22.32L809.60-22.32Q812.84-22.32 815.26-20.98Q817.68-19.64 818.98-17.30Q820.28-14.96 820.28-12.08L820.28-12.08ZM815.68-12.20Q815.76-14.36 814.94-15.82Q814.12-17.28 812.70-17.98Q811.28-18.68 809.60-18.68L809.60-18.68Q806.92-18.68 805.12-17.04Q803.32-15.40 803.16-12.20L803.16-12.20L815.68-12.20Z M836.68-32.08L836.68 4.52L832.08 4.52L832.08-32.08L836.68-32.08Z M867-28.24L883.68-28.24L883.68-24.56L871.56-24.56L871.56-15.80L881.56-15.80L881.56-12.28L871.56-12.28L871.56 0L867 0L867-28.24Z M915.72 0L910.60 0L903.56-11.28L900.32-11.28L900.32 0L895.76 0L895.76-28.24L905.72-28.24Q910.56-28.24 913.06-25.88Q915.56-23.52 915.56-19.64L915.56-19.64Q915.56-16.32 913.70-14.20Q911.84-12.08 908.32-11.48L908.32-11.48L915.72 0ZM900.32-24.32L900.32-14.52L905.36-14.52Q910.88-14.52 910.88-19.40L910.88-19.40Q910.88-21.72 909.54-23.02Q908.20-24.32 905.36-24.32L905.36-24.32L900.32-24.32Z"/></g>
</svg>
</g><g opacity="1" transform="rotate(0 219.5556 323.5051)">
<svg width="363.6308" height="120" x="219.5556" y="323.5051" version="1.1" preserveAspectRatio="none" viewBox="2.4 -29.92 114.92 37.92">
  <g transform="matrix(1 0 0 1 0 0)" class="companyName"><path id="id-D6z1nYkh7" d="M3.68 8L2.40 8L2.40-18L3.68-18L3.68-13.60Q4.76-15.80 7.06-17.12Q9.36-18.44 11.84-18.44L11.84-18.44Q15.80-18.44 18.58-15.66Q21.36-12.88 21.36-9Q21.36-5.12 18.58-2.34Q15.80 0.44 11.84 0.44L11.84 0.44Q9.44 0.44 7.16-0.86Q4.88-2.16 3.68-4.36L3.68-4.36L3.68 8ZM3.60-8.96Q3.60-5.60 6.06-3.14Q8.52-0.68 11.90-0.68Q15.28-0.68 17.68-3.14Q20.08-5.60 20.08-8.98Q20.08-12.36 17.66-14.84Q15.24-17.32 11.88-17.32Q8.52-17.32 6.06-14.82Q3.60-12.32 3.60-8.96Z M25.68-17.96L26.96-17.96L26.96 0L25.68 0L25.68-17.96ZM26.32-22.36Q25.16-22.36 25.16-23.44Q25.16-24.52 26.32-24.52Q27.48-24.52 27.48-23.44Q27.48-22.36 26.32-22.36Z M32.28 0L32.28-29.92L33.56-29.92L33.56-11.76L40.68-18L42.32-18L34.08-10.80L44.40 0L42.68 0L33.56-9.48L33.56 0L32.28 0Z M64.48-18L65.76-18L65.76 0L64.48 0L64.48-4.48Q63.36-2.20 61.12-0.88Q58.88 0.44 56.32 0.44L56.32 0.44Q52.40 0.44 49.60-2.34Q46.80-5.12 46.80-9Q46.80-12.88 49.60-15.66Q52.40-18.44 56.32-18.44L56.32-18.44Q58.88-18.44 61.22-17.08Q63.56-15.72 64.48-13.48L64.48-13.48L64.48-18ZM48.08-8.96Q48.08-5.60 50.54-3.14Q53.00-0.68 56.38-0.68Q59.76-0.68 62.16-3.14Q64.56-5.60 64.56-8.98Q64.56-12.36 62.14-14.84Q59.72-17.32 56.36-17.32Q53.00-17.32 50.54-14.82Q48.08-12.32 48.08-8.96Z M85.04-7.52L85.04-18L86.32-18L86.32-0.56Q86.32 3 83.84 5.48Q81.36 7.96 77.76 7.96L77.76 7.96Q73.44 7.96 70.92 4.64L70.92 4.64L71.00 2.64Q72.12 4.56 73.94 5.70Q75.76 6.84 77.76 6.84L77.76 6.84Q80.72 6.84 82.88 4.70Q85.04 2.56 85.04-0.44L85.04-0.44L85.04-3.48Q83.08 0.44 78.20 0.44L78.20 0.44Q74.88 0.44 72.52-1.90Q70.16-4.24 70.16-7.52L70.16-7.52L70.16-18L71.44-18L71.44-7.52Q71.44-4.76 73.46-2.72Q75.48-0.68 78.24-0.68Q81.00-0.68 83.02-2.72Q85.04-4.76 85.04-7.52L85.04-7.52Z M105.20-7.52L105.20-18L106.48-18L106.48 0L105.20 0L105.20-3.64Q103.16 0.44 98.24 0.44L98.24 0.44Q94.88 0.44 92.60-1.88Q90.32-4.20 90.32-7.52L90.32-7.52L90.32-18L91.60-18L91.60-7.52Q91.60-4.76 93.54-2.72Q95.48-0.68 98.24-0.68Q101-0.68 103.10-2.72Q105.20-4.76 105.20-7.52L105.20-7.52Z M117.32-0.88L117.32-0.88L117.32 0.24Q114.48 0.24 112.48-1.66Q110.48-3.56 110.48-6.52L110.48-6.52L110.48-25.24L111.76-25.24L111.76-17.96L117.28-17.96L117.28-16.84L111.76-16.84L111.76-6.52Q111.76-4.08 113.38-2.48Q115-0.88 117.32-0.88Z"/></g>
</svg>
</g></svg></svg>