<svg version="1.1" preserveAspectRatio="none" xmlns="http://www.w3.org/2000/svg" width="500" height="500" viewBox="0 0 500 500"><rect width="100%" height="100%" fill="#EFEBE5" fill-opacity="1"/><svg viewBox="80.0775 243.9219 436.6379 324.3432" width="333" height="247.3589342565087" x="83.5px" y="126.3205px" xmlns="http://www.w3.org/2000/svg" xmlns:xlink="http://www.w3.org/1999/xlink" preserveAspectRatio="none"><defs></defs><style>.companyName {fill:#FF7E73;fill-opacity:1;}.icon1 {fill:#776464;fill-opacity:1;}.icon2 {fill:#FF7E73;fill-opacity:1;}.icon3 {fill:#493838;fill-opacity:1;}.icon3-str {stroke:#493838;stroke-opacity:1;}.text {fill:#776464;fill-opacity:1;}</style><g opacity="1" transform="rotate(0 80.0775 544.2651)">
<svg width="436.6379" height="24" x="80.0775" y="544.2651" version="1.1" preserveAspectRatio="none" viewBox="2.36 -31 734.9200000000001 40.4">
  <g transform="matrix(1 0 0 1 0 0)" class="text"><path id="id-6izo4zJp30" d="M25.40-2.16Q24-1.24 21.86-0.46Q19.72 0.32 17.20 0.32L17.20 0.32Q12.76 0.32 9.38-1.64Q6-3.60 4.18-6.92Q2.36-10.24 2.36-14.24L2.36-14.24Q2.36-18.52 4.20-21.94Q6.04-25.36 9.30-27.30Q12.56-29.24 16.68-29.24L16.68-29.24Q19.12-29.24 21.24-28.60Q23.36-27.96 25.04-26.92L25.04-26.92L23.48-23.28Q20.16-25.52 16.80-25.52L16.80-25.52Q14-25.52 11.62-24.04Q9.24-22.56 7.82-20.02Q6.40-17.48 6.40-14.44L6.40-14.44Q6.40-11.32 7.70-8.80Q9-6.28 11.42-4.86Q13.84-3.44 17-3.44L17-3.44Q20.88-3.44 23.76-5.64L23.76-5.64L25.40-2.16Z M33.56-8.44Q33.56-10.88 34.74-12.90Q35.92-14.92 38.02-16.08Q40.12-17.24 42.76-17.24L42.76-17.24Q45.40-17.24 47.46-16.08Q49.52-14.92 50.66-12.92Q51.80-10.92 51.80-8.44L51.80-8.44Q51.80-5.96 50.66-3.94Q49.52-1.92 47.44-0.76Q45.36 0.40 42.68 0.40L42.68 0.40Q40.08 0.40 38-0.70Q35.92-1.80 34.74-3.80Q33.56-5.80 33.56-8.44L33.56-8.44ZM37.32-8.40Q37.32-6.84 38.02-5.52Q38.72-4.20 39.94-3.44Q41.16-2.68 42.64-2.68L42.64-2.68Q44.96-2.68 46.48-4.32Q48-5.96 48-8.40L48-8.40Q48-10.84 46.48-12.50Q44.96-14.16 42.64-14.16L42.64-14.16Q41.12-14.16 39.92-13.38Q38.72-12.60 38.02-11.28Q37.32-9.96 37.32-8.40L37.32-8.40Z M82.04-17.24Q84.44-17.24 85.86-15.88Q87.28-14.52 87.36-12.28L87.36-12.28L87.36 0L83.64 0L83.64-10.92Q83.52-13.84 81-14L81-14Q79.56-14 78.42-13.14Q77.28-12.28 76.64-10.88Q76-9.48 75.96-7.88L75.96-7.88L75.96 0L72.20 0L72.20-10.92Q72.08-13.84 69.48-14L69.48-14Q68.08-14 66.94-13.14Q65.80-12.28 65.16-10.86Q64.52-9.44 64.52-7.84L64.52-7.84L64.52 0L60.80 0L60.80-16.56L64.16-16.56L64.44-13.44Q65.40-15.24 67.06-16.24Q68.72-17.24 70.84-17.24L70.84-17.24Q72.84-17.24 74.20-16.30Q75.56-15.36 75.96-13.72L75.96-13.72Q77-15.36 78.60-16.30Q80.20-17.24 82.04-17.24L82.04-17.24Z M119.04-17.24Q121.44-17.24 122.86-15.88Q124.28-14.52 124.36-12.28L124.36-12.28L124.36 0L120.64 0L120.64-10.92Q120.52-13.84 118-14L118-14Q116.56-14 115.42-13.14Q114.28-12.28 113.64-10.88Q113-9.48 112.96-7.88L112.96-7.88L112.96 0L109.20 0L109.20-10.92Q109.08-13.84 106.48-14L106.48-14Q105.08-14 103.94-13.14Q102.80-12.28 102.16-10.86Q101.52-9.44 101.52-7.84L101.52-7.84L101.52 0L97.80 0L97.80-16.56L101.16-16.56L101.44-13.44Q102.40-15.24 104.06-16.24Q105.72-17.24 107.84-17.24L107.84-17.24Q109.84-17.24 111.20-16.30Q112.56-15.36 112.96-13.72L112.96-13.72Q114-15.36 115.60-16.30Q117.20-17.24 119.04-17.24L119.04-17.24Z M146.48-16.56L150.20-16.56L150.20 0L146.84 0L146.60-3.16Q145.76-1.48 144-0.42Q142.24 0.64 140.08 0.64L140.08 0.64Q137.80 0.64 136.34-0.74Q134.88-2.12 134.80-4.32L134.80-4.32L134.80-16.56L138.52-16.56L138.52-5.64Q138.60-4.24 139.34-3.42Q140.08-2.60 141.56-2.56L141.56-2.56Q142.92-2.56 144.04-3.38Q145.16-4.20 145.82-5.64Q146.48-7.08 146.48-8.84L146.48-8.84L146.48-16.56Z M170.96-17.20Q173.28-17.20 174.80-15.82Q176.32-14.44 176.36-12.24L176.36-12.24L176.36 0L172.60 0L172.60-10.96Q172.52-12.36 171.76-13.16Q171-13.96 169.48-14L169.48-14Q167.28-14 165.84-12.24Q164.40-10.48 164.40-7.76L164.40-7.76L164.40 0L160.68 0L160.68-16.56L164.04-16.56L164.28-13.36Q165.16-15.16 166.92-16.18Q168.68-17.20 170.96-17.20L170.96-17.20Z M186.80-16.56L190.52-16.56L190.52 0L186.80 0L186.80-16.56ZM186.52-22.52Q186.52-23.40 187.20-24Q187.88-24.60 188.76-24.60L188.76-24.60Q189.64-24.60 190.30-24Q190.96-23.40 190.96-22.52L190.96-22.52Q190.96-21.64 190.30-21.04Q189.64-20.44 188.76-20.44L188.76-20.44Q187.88-20.44 187.20-21.04Q186.52-21.64 186.52-22.52L186.52-22.52Z M202.60-23.84L206.36-23.84L206.36-16.52L210.88-16.52L210.88-13.56L206.36-13.56L206.36 0L202.60 0L202.60-13.56L199.56-13.56L199.56-16.52L202.60-16.52L202.60-23.84Z M231.72-16.56L235.16-16.56L224.48 7.96L220.80 7.96L224.60-0.56L216.92-16.56L221.12-16.56L226.48-4.76L231.72-16.56Z M260.24-28.36L263.64-28.36L263.64 9.40L260.24 9.40L260.24-28.36Z M298.36-2.48Q297.04-1.44 294.22-0.56Q291.40 0.32 289 0.32L289 0.32Q284.48 0.32 281.04-1.54Q277.60-3.40 275.74-6.64Q273.88-9.88 273.88-13.92L273.88-13.92Q273.88-18.64 275.88-22.10Q277.88-25.56 281.28-27.40Q284.68-29.24 288.72-29.24L288.72-29.24Q291.16-29.24 293.32-28.66Q295.48-28.08 297.20-27.12L297.20-27.12L295.92-23.56Q294.64-24.28 292.70-24.82Q290.76-25.36 289.20-25.36L289.20-25.36Q285.84-25.36 283.26-24Q280.68-22.64 279.28-20.12Q277.88-17.60 277.88-14.24L277.88-14.24Q277.88-11.12 279.28-8.68Q280.68-6.24 283.24-4.90Q285.80-3.56 289.08-3.56L289.08-3.56Q290.60-3.56 292.04-3.86Q293.48-4.16 294.44-4.72L294.44-4.72L294.44-10.44L288.68-10.44L288.68-14.16L298.36-14.16L298.36-2.48Z M322.40-16.56L325.84-16.56L325.84 0L322.12 0L322.12-2.72Q321.24-1.56 319.56-0.58Q317.88 0.40 315.76 0.40L315.76 0.40Q313.40 0.40 311.50-0.62Q309.60-1.64 308.50-3.60Q307.40-5.56 307.40-8.28L307.40-8.28Q307.40-11 308.54-13.02Q309.68-15.04 311.62-16.14Q313.56-17.24 315.92-17.24L315.92-17.24Q318.04-17.24 319.60-16.32Q321.16-15.40 322.12-13.92L322.12-13.92L322.40-16.56ZM316.76-2.68Q318.80-2.68 320.26-3.82Q321.72-4.96 322.12-6.92L322.12-6.92L322.12-10.20Q321.64-11.96 320.12-13.06Q318.60-14.16 316.64-14.16L316.64-14.16Q315.16-14.16 313.90-13.44Q312.64-12.72 311.90-11.42Q311.16-10.12 311.16-8.48L311.16-8.48Q311.16-6.88 311.92-5.56Q312.68-4.24 313.96-3.46Q315.24-2.68 316.76-2.68L316.76-2.68Z M357.56-17.24Q359.96-17.24 361.38-15.88Q362.80-14.52 362.88-12.28L362.88-12.28L362.88 0L359.16 0L359.16-10.92Q359.04-13.84 356.52-14L356.52-14Q355.08-14 353.94-13.14Q352.80-12.28 352.16-10.88Q351.52-9.48 351.48-7.88L351.48-7.88L351.48 0L347.72 0L347.72-10.92Q347.60-13.84 345-14L345-14Q343.60-14 342.46-13.14Q341.32-12.28 340.68-10.86Q340.04-9.44 340.04-7.84L340.04-7.84L340.04 0L336.32 0L336.32-16.56L339.68-16.56L339.96-13.44Q340.92-15.24 342.58-16.24Q344.24-17.24 346.36-17.24L346.36-17.24Q348.36-17.24 349.72-16.30Q351.08-15.36 351.48-13.72L351.48-13.72Q352.52-15.36 354.12-16.30Q355.72-17.24 357.56-17.24L357.56-17.24Z M373.32-16.56L377.04-16.56L377.04 0L373.32 0L373.32-16.56ZM373.04-22.52Q373.04-23.40 373.72-24Q374.40-24.60 375.28-24.60L375.28-24.60Q376.16-24.60 376.82-24Q377.48-23.40 377.48-22.52L377.48-22.52Q377.48-21.64 376.82-21.04Q376.16-20.44 375.28-20.44L375.28-20.44Q374.40-20.44 373.72-21.04Q373.04-21.64 373.04-22.52L373.04-22.52Z M397.80-17.20Q400.12-17.20 401.64-15.82Q403.16-14.44 403.20-12.24L403.20-12.24L403.20 0L399.44 0L399.44-10.96Q399.36-12.36 398.60-13.16Q397.84-13.96 396.32-14L396.32-14Q394.12-14 392.68-12.24Q391.24-10.48 391.24-7.76L391.24-7.76L391.24 0L387.52 0L387.52-16.56L390.88-16.56L391.12-13.36Q392-15.16 393.76-16.18Q395.52-17.20 397.80-17.20L397.80-17.20Z M427.72-16.56L431.12-16.56L431.12 0.12Q431.12 2.40 429.96 4.24Q428.80 6.08 426.66 7.16Q424.52 8.24 421.64 8.24L421.64 8.24Q419.12 8.24 417.30 7.40Q415.48 6.56 413.64 4.92L413.64 4.92L415.84 2.36Q417.20 3.64 418.56 4.30Q419.92 4.96 421.56 4.96L421.56 4.96Q424.32 4.96 425.82 3.64Q427.32 2.32 427.36 0.08L427.36 0.08L427.40-3.04Q426.48-1.48 424.70-0.54Q422.92 0.40 420.60 0.40L420.60 0.40Q418.32 0.40 416.40-0.76Q414.48-1.92 413.34-3.92Q412.20-5.92 412.20-8.36L412.20-8.36Q412.20-10.88 413.38-12.90Q414.56-14.92 416.56-16.08Q418.56-17.24 420.84-17.24L420.84-17.24Q422.96-17.24 424.76-16.40Q426.56-15.56 427.44-14.24L427.44-14.24L427.72-16.56ZM421.68-2.68Q423.80-2.68 425.36-3.84Q426.92-5 427.40-6.88L427.40-6.88L427.40-10.16Q426.84-11.96 425.28-13.06Q423.72-14.16 421.68-14.16L421.68-14.16Q419.24-14.16 417.60-12.56Q415.96-10.96 415.96-8.48L415.96-8.48Q415.96-6.88 416.72-5.56Q417.48-4.24 418.80-3.46Q420.12-2.68 421.68-2.68L421.68-2.68Z M471.80-16.56L475.24-16.56L475.24 0L471.52 0L471.52-2.72Q470.64-1.56 468.96-0.58Q467.28 0.40 465.16 0.40L465.16 0.40Q462.80 0.40 460.90-0.62Q459.00-1.64 457.90-3.60Q456.80-5.56 456.80-8.28L456.80-8.28Q456.80-11 457.94-13.02Q459.08-15.04 461.02-16.14Q462.96-17.24 465.32-17.24L465.32-17.24Q467.44-17.24 469.00-16.32Q470.56-15.40 471.52-13.92L471.52-13.92L471.80-16.56ZM466.16-2.68Q468.20-2.68 469.66-3.82Q471.12-4.96 471.52-6.92L471.52-6.92L471.52-10.20Q471.04-11.96 469.52-13.06Q468.00-14.16 466.04-14.16L466.04-14.16Q464.56-14.16 463.30-13.44Q462.04-12.72 461.30-11.42Q460.56-10.12 460.56-8.48L460.56-8.48Q460.56-6.88 461.32-5.56Q462.08-4.24 463.36-3.46Q464.64-2.68 466.16-2.68L466.16-2.68Z M496.00-17.20Q498.32-17.20 499.84-15.82Q501.36-14.44 501.40-12.24L501.40-12.24L501.40 0L497.64 0L497.64-10.96Q497.56-12.36 496.80-13.16Q496.04-13.96 494.52-14L494.52-14Q492.32-14 490.88-12.24Q489.44-10.48 489.44-7.76L489.44-7.76L489.44 0L485.72 0L485.72-16.56L489.08-16.56L489.32-13.36Q490.20-15.16 491.96-16.18Q493.72-17.20 496.00-17.20L496.00-17.20Z M525.40-31L529.12-31L529.12 0L525.36 0L525.36-2.60Q524.16-1.20 522.42-0.40Q520.68 0.40 518.60 0.40L518.60 0.40Q516.28 0.40 514.40-0.72Q512.52-1.84 511.46-3.86Q510.40-5.88 510.40-8.52L510.40-8.52Q510.40-11.20 511.52-13.18Q512.64-15.16 514.60-16.20Q516.56-17.24 519.04-17.24L519.04-17.24Q520.92-17.24 522.66-16.46Q524.40-15.68 525.40-14.32L525.40-14.32L525.40-31ZM519.76-2.80Q521.92-2.80 523.42-3.96Q524.92-5.12 525.36-7.08L525.36-7.08L525.36-10.20Q524.88-12 523.32-13.14Q521.76-14.28 519.76-14.28L519.76-14.28Q518.24-14.28 516.96-13.54Q515.68-12.80 514.92-11.50Q514.16-10.20 514.16-8.56L514.16-8.56Q514.16-6.96 514.92-5.64Q515.68-4.32 516.96-3.56Q518.24-2.80 519.76-2.80L519.76-2.80Z M569.64-1.56Q568.52-0.64 566.98-0.12Q565.44 0.40 563.84 0.40L563.84 0.40Q561.16 0.40 559.10-0.68Q557.04-1.76 555.90-3.74Q554.76-5.72 554.76-8.32L554.76-8.32Q554.76-10.88 555.96-12.86Q557.16-14.84 559.16-15.92Q561.16-17 563.48-17L563.48-17Q567.28-17 569.76-14.92L569.76-14.92L567.88-12.48Q567.08-13.08 566.04-13.50Q565.00-13.92 563.80-13.92L563.80-13.92Q562.32-13.92 561.10-13.18Q559.88-12.44 559.18-11.16Q558.48-9.88 558.48-8.32L558.48-8.32Q558.48-6.76 559.22-5.48Q559.96-4.20 561.24-3.44Q562.52-2.68 564.16-2.68L564.16-2.68Q566.20-2.68 567.72-3.88L567.72-3.88L569.64-1.56Z M577.00-8.44Q577.00-10.88 578.18-12.90Q579.36-14.92 581.46-16.08Q583.56-17.24 586.20-17.24L586.20-17.24Q588.84-17.24 590.90-16.08Q592.96-14.92 594.10-12.92Q595.24-10.92 595.24-8.44L595.24-8.44Q595.24-5.96 594.10-3.94Q592.96-1.92 590.88-0.76Q588.80 0.40 586.12 0.40L586.12 0.40Q583.52 0.40 581.44-0.70Q579.36-1.80 578.18-3.80Q577.00-5.80 577.00-8.44L577.00-8.44ZM580.76-8.40Q580.76-6.84 581.46-5.52Q582.16-4.20 583.38-3.44Q584.60-2.68 586.08-2.68L586.08-2.68Q588.40-2.68 589.92-4.32Q591.44-5.96 591.44-8.40L591.44-8.40Q591.44-10.84 589.92-12.50Q588.40-14.16 586.08-14.16L586.08-14.16Q584.56-14.16 583.36-13.38Q582.16-12.60 581.46-11.28Q580.76-9.96 580.76-8.40L580.76-8.40Z M617.80-31L621.52-31L621.52 0L617.76 0L617.76-2.60Q616.56-1.20 614.82-0.40Q613.08 0.40 611.00 0.40L611.00 0.40Q608.68 0.40 606.80-0.72Q604.92-1.84 603.86-3.86Q602.80-5.88 602.80-8.52L602.80-8.52Q602.80-11.20 603.92-13.18Q605.04-15.16 607.00-16.20Q608.96-17.24 611.44-17.24L611.44-17.24Q613.32-17.24 615.06-16.46Q616.80-15.68 617.80-14.32L617.80-14.32L617.80-31ZM612.16-2.80Q614.32-2.80 615.82-3.96Q617.32-5.12 617.76-7.08L617.76-7.08L617.76-10.20Q617.28-12 615.72-13.14Q614.16-14.28 612.16-14.28L612.16-14.28Q610.64-14.28 609.36-13.54Q608.08-12.80 607.32-11.50Q606.56-10.20 606.56-8.56L606.56-8.56Q606.56-6.96 607.32-5.64Q608.08-4.32 609.36-3.56Q610.64-2.80 612.16-2.80L612.16-2.80Z M639.72-2.80Q641.80-2.80 643.76-4.24L643.76-4.24L645.48-1.48Q644.16-0.60 642.62-0.10Q641.08 0.40 639.64 0.40L639.64 0.40Q636.88 0.40 634.82-0.74Q632.76-1.88 631.64-3.88Q630.52-5.88 630.52-8.40L630.52-8.40Q630.52-10.84 631.74-12.86Q632.96-14.88 635.08-16.06Q637.20-17.24 639.72-17.24L639.72-17.24Q642.96-17.24 645.14-15.34Q647.32-13.44 648.12-10.04L648.12-10.04L635.00-5.44Q635.72-4.20 636.94-3.50Q638.16-2.80 639.72-2.80L639.72-2.80ZM639.44-14.28Q637.16-14.28 635.68-12.68Q634.20-11.08 634.20-8.60L634.20-8.60Q634.20-8 634.24-7.68L634.24-7.68L643.88-11.24Q643.28-12.60 642.18-13.44Q641.08-14.28 639.44-14.28L639.44-14.28Z M657.20-28.36L660.60-28.36L660.60 9.40L657.20 9.40L657.20-28.36Z M689.28-28.92L706.44-28.92L706.44-25.20L693.16-25.20L693.16-16L704.80-16L704.80-12.28L693.16-12.28L693.16 0L689.28 0L689.28-28.92Z M737.28 0L732.76 0L725.96-10.68Q725.64-10.64 725.00-10.64L725.00-10.64L720.72-10.64L720.72 0L716.84 0L716.84-28.92L724.56-28.92Q727.52-28.92 729.84-27.88Q732.16-26.84 733.48-24.82Q734.80-22.80 734.80-19.96L734.80-19.96Q734.80-17.28 733.62-15.04Q732.44-12.80 730.00-11.64L730.00-11.64L737.28 0ZM724.92-14.40Q728.04-14.40 729.42-16.04Q730.80-17.68 730.80-19.80L730.80-19.80Q730.80-21.08 730.22-22.32Q729.64-23.56 728.38-24.38Q727.12-25.20 725.20-25.20L725.20-25.20L720.72-25.20L720.72-14.40L724.92-14.40Z"/></g>
</svg>
</g><g opacity="1" transform="rotate(0 105.1764 442.2651)">
<svg width="386.44" height="80" x="105.1764" y="442.2651" version="1.1" preserveAspectRatio="none" viewBox="1.08 -29.8 147.03999999999996 30.44">
  <g transform="matrix(1 0 0 1 0 0)" class="companyName"><path id="id-D6z1nYkh7" d="M14.96-9.52L10.40-9.48L10.40-2.72L15.20-2.04L15.16 0L1.32 0L1.08-1.28Q2.32-2.04 4.32-2.88L4.32-2.88L4.32-23.92L1.36-24.28L1.40-26.32L14.32-26.64Q18.96-26.64 21.82-24.18Q24.68-21.72 24.68-17.96L24.68-17.96Q24.68-14.40 21.96-12Q19.24-9.60 14.96-9.52L14.96-9.52ZM15.96-23.52L10.40-22.92L10.40-13.04Q12-12.72 13.48-12.72L13.48-12.72Q15.92-12.72 17.16-14.26Q18.40-15.80 18.40-18.04L18.40-18.04Q18.40-19.76 17.76-21.32Q17.12-22.88 15.96-23.52L15.96-23.52Z M32.92-22.32L32.92-22.32Q30.40-23.44 28.72-25.56L28.72-25.56Q30.04-28.20 32.16-29.80L32.16-29.80Q34.56-28.52 36.20-26.28L36.20-26.28Q35.08-23.88 32.92-22.32ZM35.52-18L35.52-3.16Q37.40-2.56 38.44-1.96L38.44-1.96L38.28 0L26.80 0L26.68-1.36Q27.88-2.04 29.72-2.68L29.72-2.68L29.72-16.08L26.72-16.44L26.44-18.36Q29.88-19.68 33.56-19.76L33.56-19.76L35.52-18Z M62.96-3L63.32-0.84L56.84 0.36Q55.88-0.12 54.56-2.12L54.56-2.12L51.08-7.76L49.32-7.64L49.32-2.96Q50.68-2.48 51.52-1.96L51.52-1.96L51.36 0L40.68 0L40.56-1.36Q41.68-2 43.52-2.64L43.52-2.64L43.52-25.80L40.52-26.12L40.24-28.04Q43.68-29.36 47.36-29.44L47.36-29.44L49.32-27.68L49.32-9.72L50.80-10.68L55.28-16.28L52.48-16.44L52.20-18.36Q55.68-19.56 60.08-19.76L60.08-19.76L61.68-17.28L55.68-10.04L59.60-4.32Q60.64-2.96 62.24-2.96L62.24-2.96L62.96-3Z M85.32-3.72L85.68-1.92L80.80 0.64Q79.84 0.60 78.80-0.22Q77.76-1.04 77.16-2.24L77.16-2.24L72.80 0.52L71.56 0.60Q69.04 0.60 67.40-0.88Q65.76-2.36 65.76-4.44L65.76-4.44Q65.76-7.32 68.88-9L68.88-9L76.52-9.20L76.52-12.76Q76.52-15.96 74.64-16.84L74.64-16.84Q72.80-16.72 71.64-16.32L71.64-16.32L70.92-12L67.56-11.88Q66.68-14.08 66.68-16.72L66.68-16.72L66.72-17.52Q68.92-18.48 72-19.22Q75.08-19.96 76.68-19.96L76.68-19.96Q78.16-19.96 79.58-19.16Q81-18.36 81.88-17.08L81.88-17.08Q82.32-16.32 82.36-14.04L82.36-14.04L82.36-4.44Q82.36-3.48 83.36-3.48L83.36-3.48L85.32-3.72ZM72.40-2.96L72.40-2.96Q74-3 76.52-3.96L76.52-3.96L76.52-6.84L75.52-6.88Q71.56-6.88 71.56-4.72L71.56-4.72Q71.56-3.64 72.40-2.96Z M99.52-10.52L99.52-2.52L102.84-2.04L102.80 0L90.60 0L90.36-1.28Q91.60-2.04 93.60-2.88L93.60-2.88L93.60-9.88L86.08-23.92L83.56-24.28L83.60-26.32L94.28-26.32L94.52-25.04L92.28-23.88L96.04-16.80L97.12-13.40L97.36-13.40L102.60-23.84L99.64-24.28L99.68-26.32L109.44-26.32L109.68-25.04Q108.64-24.40 106.52-23.48L106.52-23.48L99.52-10.52Z M132.20-3.72L132.56-1.92L127.64 0.64Q126.64 0.60 125.52-0.38Q124.40-1.36 123.88-2.68L123.88-2.68Q120.32-0.20 117.04 0.64L117.04 0.64Q115.80 0.56 114.42-0.20Q113.04-0.96 112.20-2.20L112.20-2.20Q111.64-3.04 111.60-5.92L111.60-5.92L111.60-16.08L108.60-16.44L108.32-18.36Q111.76-19.68 115.44-19.76L115.44-19.76L117.40-18L117.40-7.04Q117.40-3.56 119.96-3.56L119.96-3.56Q121.40-3.56 123.40-4.56L123.40-4.56L123.40-16.12L120.88-16.52L120.60-18.44Q123.56-19.60 127.24-19.76L127.24-19.76L129.20-18L129.20-4.56Q129.20-3.48 130.20-3.48L130.20-3.48L132.20-3.72Z M144.12-3.88L144.12-3.88Q145.24-3.88 147.48-4.40L147.48-4.40L147.92-2.44L141.76 0.64Q140.04 0.72 138.48-0.52Q136.92-1.76 136.88-3.32L136.88-3.32L136.88-14.88L134.08-14.84L133.92-16.92Q135.44-18 137.16-18.84L137.16-18.84L139.16-24.04L141.88-24.04L142.56-18.84L148.04-18.84L148.12-17.12L146.16-14.80L142.68-14.80L142.68-5.72Q142.68-4.68 143-4.28Q143.32-3.88 144.12-3.88Z"/></g>
</svg>
</g><g opacity="1" transform="rotate(0 221.1084 243.9219)">
<svg width="154.576" height="168.3432" x="221.1084" y="243.9219" version="1.1" preserveAspectRatio="none" viewBox="21.255979537963867 11.235589027404785 158.98179626464844 173.1414031982422">
  <g transform="matrix(1 0 0 1 0 0)" ><g><path data-color="1" d="M180.006 71.466a399.634 399.634 0 0 1-1.048-3.291c-2.201-6.975-4.94-15.655-8.858-21.04-2.22-3.049-7.343-2.888-13.154-2.197-2.387-1.927-4.875-3.731-7.336-5.502-.765-.55-1.529-1.1-2.289-1.653-2.79-2.03-4.926-6.737-6.992-11.29-2.7-5.95-5.493-12.103-10.117-13.604-6.008-1.952-14.712-1.725-22.389-1.526-2.169.056-4.217.109-6.082.109-3.218 0-5.882 2.808-8.324 6.513a11.425 11.425 0 0 0-1.14-.062c-3.106 0-6.484.729-9.866 1.791-1.969.179-3.868.502-5.631 1.074-3.461 1.124-6.884 3.07-10.163 5.273l-.067.029c-1.199.497-2.221 1.262-3.118 2.209a266.38 266.38 0 0 0-3.992 2.983 243.978 243.978 0 0 1-3.65 2.729c-3.115 2.267-3.709 6.689-3.939 11.303-.527.23-1.056.461-1.58.686-4.602 1.974-9.36 4.014-12.366 8.145-.6.824-1.163 1.675-1.702 2.541-5.187 1.456-9.775 3.372-11.338 7.142-3.18 7.67-3.609 19.753-3.609 30.562 0 3.765 3.097 6.754 7.083 9.461 1.118 1.978 2.563 3.844 3.987 5.678.583.751 1.155 1.491 1.701 2.228-.976 3.52-1.629 6.966-.357 10.886 1.394 4.295 2.763 7.992 4.565 11.606.226 2.55.839 4.964 2.329 7.011 1.811 2.489 3.08 5.905 4.423 9.521 1.927 5.189 3.92 10.553 7.745 13.337 1.315.957 2.851 1.674 4.506 2.253 1.822 1.771 3.561 3.992 5.372 6.311 3.59 4.598 7.302 9.353 12.137 10.922 1.713.556 3.575.773 5.525.773 3.517 0 7.318-.705 11.041-1.395 3.55-.658 7.221-1.339 10.429-1.339 4.963 0 8.743-4.243 12.398-8.346 2.775-3.114 5.645-6.335 8.853-7.377 8.174-2.653 13.115-4.386 19.625-9.123 6.837-4.976 10.741-8.848 15.47-15.346 3.521-4.839 4.675-9.123 6.01-14.084.51-1.898 1.039-3.86 1.739-6.016.922-2.839 2.301-5.289 3.635-7.659 2.258-4.011 4.391-7.799 4.391-13.17 0-3.464 1.088-7.003 2.14-10.426 1.198-3.9 2.425-7.908 1.982-11.762 1.768-2.405 2.723-4.707 2.021-6.868zM101.74 12.773c1.882 0 3.939-.053 6.116-.11 2.395-.063 4.891-.127 7.369-.127 5.356 0 10.622.303 14.589 1.586 4.078 1.324 6.75 7.212 9.334 12.905 2.234 4.923 4.344 9.573 7.411 11.804.761.554 1.527 1.105 2.294 1.657 2.107 1.517 4.238 3.054 6.302 4.673-.495.064-.992.13-1.492.196-2.979.396-6.007.796-8.612.811-5.489-5.237-12.039-9.284-21.047-13.019-.89-.368-1.777-.743-2.666-1.118-2.314-.977-4.655-1.963-7.047-2.85-.336-.373-.671-.749-1.003-1.123-3.475-3.907-7.068-7.948-11.758-7.948-.59 0-1.204-.029-1.806-.045-1.618-.849-3.252-1.505-4.899-1.855 2.132-3.141 4.392-5.437 6.915-5.437zm69.15 71.382c-4.32 4.303-8.787 8.752-8.787 12.808 0 2.712.229 5.005.451 7.223.137 1.37.262 2.679.323 3.982-3.262 3.01-6.563 6.122-7.973 9.522-1.451 3.501-1.777 7.658-2.092 11.678-.448 5.727-.878 11.135-4.278 14.658-.549.267-1.103.533-1.663.798-2.505 1.188-5.094 2.417-7.532 4.191-5.113 3.72-9.264 5.019-15.009 6.816-1.057.331-2.161.677-3.326 1.055-2.387.775-4.483 1.704-6.509 2.602-4.006 1.774-7.789 3.451-12.964 3.451-3.567 0-7.222 1.654-10.769 3.308-2.001-1.712-3.934-3.833-5.838-5.925-3.344-3.673-6.503-7.144-10.03-8.607-2.123-.88-4.242-1.64-6.292-2.375-5.628-2.019-10.961-3.934-15.374-7.96 1.532.008 3.102-.044 4.659-.095 4.399-.144 8.948-.295 12 .971 1.945.806 3.918 1.789 5.827 2.74 5.156 2.569 10.489 5.225 16.565 5.225 2.127 0 4.307.111 6.617.229 2.333.119 4.694.239 7.013.239 4.101 0 8.069-.377 11.509-1.803 4.579-1.899 7.052-6.957 9.444-11.849 1.591-3.253 3.235-6.616 5.438-8.818 3.503-3.503 4.031-7.701 4.591-12.144.356-2.83.725-5.757 1.91-8.614 1.179-2.845 3.545-5.203 5.834-7.483 3.325-3.313 6.764-6.739 6.764-11.783 0-9.661-1.133-16.515-3.789-22.919-3.66-8.827-7.506-14.977-12.471-19.943l-.186-.186c-1.754-1.755-3.527-3.528-5.362-5.231 2.888 1.636 5.523 3.55 8.751 5.9l.222.161c1.466 1.067 3.539 1.458 5.963 1.494.174.169.349.335.521.506 2.581 2.58 6.295 4.565 10.228 6.668 5.55 2.968 11.289 6.036 13.259 10.787 1.774 4.277 2.921 10.09 3.465 17.613-.369.371-.74.741-1.11 1.11zm1.22.618c.172 2.955.26 6.152.26 9.614 0 4.693-4.055 8.743-8.255 12.636-.07-.972-.167-1.952-.268-2.966-.219-2.187-.445-4.448-.445-7.094 0-3.516 4.272-7.771 8.404-11.887l.304-.303zm-9.199 25.138c-.022 2.093-.289 4.233-1.073 6.649-1 3.081-1.215 6.151-1.423 9.121-.298 4.25-.579 8.263-3.137 11.778-1.685 2.315-3.778 3.877-6.078 5.182 2.165-3.705 2.543-8.5 2.909-13.169.307-3.919.624-7.971 1.997-11.281 1.191-2.874 3.848-5.53 6.805-8.28zm-17.393 37.005c-6.314 5.747-13.339 10.422-19.71 13.064-2.152.893-4.431 2.007-6.845 3.188-6.432 3.146-13.723 6.71-20.326 6.71-2.365 0-4.597-1.087-6.744-2.721 3.235-1.5 6.541-2.917 9.639-2.917 5.45 0 9.356-1.731 13.491-3.563 1.996-.885 4.06-1.8 6.383-2.554 1.16-.377 2.26-.721 3.313-1.05 5.642-1.766 10.099-3.16 15.385-7.007 1.736-1.262 3.578-2.249 5.414-3.15zm-99.927-29.411c1.053 3.078 1.261 6.438 1.453 9.699.264 4.485.54 9.101 3.131 12.752-2.933-.244-5.486-.914-7.115-2.543-2.718-2.718-.753-9.078 1.146-15.227.483-1.563.968-3.14 1.385-4.681zm-.479-3.651c-1.888-2.358-5.038-4.408-8.5-6.475.491-1.903.877-3.894.957-6.058 3.404 2.004 6.445 4.102 7.421 6.456.648 1.565.566 3.69.122 6.077zm3.228 13.273c-.22-3.724-.447-7.575-1.916-11.117a7.655 7.655 0 0 0-.302-.635c.7-3.116.949-5.972.069-8.096-1.2-2.893-4.673-5.185-8.649-7.479-.258-3.79-2.461-7.395-4.621-10.886-.233-.376-.463-.75-.691-1.122.586-.658 1.197-1.315 1.815-1.98l.473-.511c1.036 5.025 5.369 9.464 9.579 13.772 2.689 2.753 5.23 5.354 6.718 7.925.402.697.802 1.396 1.203 2.097 3.909 6.84 7.952 13.912 14.883 17.922l1.385.805c6.865 3.995 15.409 8.967 23.993 8.967 6.216 0 11.24-4.217 16.099-8.296 2.414-2.026 4.693-3.939 7.063-5.31 5.304-3.068 7.236-7.703 9.281-12.609.94-2.255 1.912-4.587 3.257-6.912 1.456-2.516 3.473-4.682 5.423-6.776 3.567-3.83 7.255-7.791 7.255-13.825 0-2.756.346-5.781.68-8.708.764-6.691 1.555-13.611-1.441-18.788-2.849-4.925-9.093-6.717-15.131-8.449-3.426-.983-6.968-2-9.677-3.567-2.489-1.441-4.842-3.583-7.332-5.852-4.625-4.213-9.407-8.57-15.476-8.57-1.218 0-2.516.013-3.859.043.485-.812.969-1.656 1.454-2.518 2.934.305 5.94.601 8.763.601 4.498 0 8.727.948 12.796 2.297 1.044.681 2.071 1.292 3.085 1.793 2.079 2.201 4.267 4.144 6.731 4.945a49.02 49.02 0 0 1 3.823 1.411c3.158 2.566 6.087 5.49 8.963 8.367l.187.187c4.838 4.838 8.598 10.859 12.189 19.521 2.586 6.236 3.69 12.942 3.69 22.421 0 4.504-3.1 7.592-6.382 10.862-2.379 2.37-4.839 4.821-6.118 7.906-1.252 3.019-1.632 6.034-1.999 8.95-.532 4.216-1.033 8.198-4.22 11.386-2.356 2.356-4.049 5.819-5.687 9.168-2.286 4.674-4.649 9.508-8.774 11.218-5.116 2.122-11.645 1.788-17.96 1.468-2.224-.114-4.523-.231-6.683-.231-5.771 0-10.964-2.586-15.986-5.088-1.928-.96-3.922-1.953-5.908-2.777-2.266-.939-5.179-1.164-8.246-1.164-1.415 0-2.863.047-4.294.094-2.001.065-4.024.129-5.94.067-3-3.438-3.278-8.053-3.565-12.927zM30.627 87.654c-1.476 1.725-2.775 3.528-3.555 5.495-1.678-1.517-2.763-3.146-2.763-4.956 0-6.333 3.266-13.573 6.146-19.962.762-1.687 1.48-3.281 2.101-4.777.185-.446.417-.866.678-1.268-2.303 4.884-3.954 9.947-5.377 14.33-1.21 3.724.582 7.473 2.77 11.138zm.71 1.172l.478.774c1.901 3.071 3.849 6.232 4.349 9.412l-.766-.433c-2.595-1.464-5.224-2.954-7.275-4.557.635-1.83 1.811-3.525 3.214-5.196zm8.898-11.78c.216-.665.442-1.295.676-1.905 1.828-1.391 3.94-2.705 6.025-4.002 4.293-2.671 8.349-5.194 10.184-8.366 1.897-3.279 2.236-8.115 2.564-12.793.171-2.437.348-4.902.744-7.142.16-.354.32-.709.476-1.066 3.524-2.11 7.278-2.594 11.229-3.09 2.873-.36 5.844-.732 8.946-1.74 2.436-.79 4.521-3.283 6.529-6.452 1.635-.046 3.21-.063 4.671-.063 5.565 0 10.159 4.183 14.601 8.234 2.431 2.215 4.946 4.506 7.556 6.016 2.848 1.648 6.469 2.686 9.97 3.691 5.79 1.663 11.778 3.381 14.365 7.851 2.78 4.805 2.014 11.509 1.274 17.99-.338 2.962-.688 6.025-.688 8.855 0 5.522-3.355 9.125-6.907 12.939-2 2.147-4.067 4.367-5.597 7.012-1.388 2.397-2.376 4.769-3.332 7.062-2.043 4.902-3.808 9.135-8.732 11.984-2.467 1.427-4.789 3.376-7.247 5.439-4.68 3.927-9.52 7.989-15.263 7.989-8.234 0-16.258-4.67-23.339-8.79l-1.388-.806c-6.628-3.835-10.582-10.752-14.406-17.442-.402-.703-.803-1.405-1.207-2.102-1.57-2.713-4.165-5.371-6.914-8.184-4.352-4.455-8.844-9.053-9.388-14.091 1.964-2.186 3.769-4.474 4.598-7.028zm-4.565 5.019c.32-1.931 1.549-3.66 3.269-5.268-.637 1.859-1.832 3.571-3.269 5.268zm50.347-51.518c-1.699 2.553-3.463 4.551-5.338 5.16-2.985.97-5.894 1.334-8.707 1.687-3.551.446-6.949.878-10.227 2.445a100.657 100.657 0 0 1 1.774-3.919 6.212 6.212 0 0 1 1.072-.806c5.594-3.237 14.01-4.265 21.426-4.567zM64.76 33.556c1.593-2.773 3.502-5.069 6.127-6.157 2.679-1.112 5.724-1.474 8.921-1.474 2.817 0 5.751.283 8.655.583a84.42 84.42 0 0 1-1.593 2.705c-7.443.251-16.076 1.198-22.11 4.343zm42.936-8.229c-1.839-1.343-3.701-2.702-5.584-3.884 3.54.311 6.557 3.401 9.452 6.632-1.256-.844-2.545-1.781-3.868-2.748zm10.567 7.768a36.67 36.67 0 0 1 3.016 1.804c-1.036-.398-2.04-1.02-3.016-1.804zm3.314.443c.642.271 1.284.542 1.928.809 8.257 3.424 14.402 7.104 19.549 11.74-1.518-.144-2.808-.492-3.727-1.16l-.222-.162c-4.829-3.515-8.354-6.075-13.356-8.191a47.858 47.858 0 0 0-4.172-3.036zm-27.52-14.159c.7.119 1.401.306 2.103.544-.603-.033-1.19-.061-1.81-.097a102.05 102.05 0 0 0-.552-.031c.087-.139.173-.28.259-.416zm.221 1.744c1.77.103 3.455.183 5.111.234 2.532 1.362 5.059 3.204 7.542 5.018l1.15.839c-3.023-.769-6.154-1.258-9.443-1.258-2.584 0-5.351-.256-8.074-.536l.28-.503c.723-1.3 1.452-2.606 2.192-3.86.414.023.829.042 1.242.066zm-1.999-1.901c.113 0 .226.012.339.016-.098.158-.196.314-.293.474-1.284-.07-2.568-.123-3.846-.155 1.304-.213 2.578-.335 3.8-.335zM64.304 29.274a100.32 100.32 0 0 1 2.947-2.07 257.622 257.622 0 0 0 3.68-1.581c3.609-1.572 7.704-3.354 11.768-4.638a46.318 46.318 0 0 1 3.964-.158c1.617 0 3.264.069 4.912.153a200.15 200.15 0 0 0-1.866 3.305l-.552.99c-6.534-.682-13.273-1.355-18.767.924-3.664 1.519-5.991 4.982-7.92 8.907-1.55 1.498-2.456 3.619-3.024 6.047-.185.125-.371.248-.555.383-.222.161-.466.298-.695.451.359-.908.704-1.83 1.046-2.745 1.393-3.733 2.824-7.554 5.062-9.968zm-7.749 5.789c1.186-.863 2.412-1.791 3.67-2.743l.813-.615c-1.171 2.154-2.102 4.636-3.016 7.085-.548 1.468-1.104 2.953-1.711 4.357a44.743 44.743 0 0 1-3.128 1.568c.239-4.154.838-7.808 3.372-9.652zm-3.501 12.622c.018-.505.037-1.006.058-1.504.761-.339 1.519-.69 2.266-1.061-.692 1.345-1.462 2.545-2.36 3.488l.036-.923zm-.123 2.785c.298-.249.588-.503.855-.77 1.445-1.446 2.558-3.435 3.529-5.615a27.523 27.523 0 0 0 1.549-.957c-1.26 2.709-2.653 5.25-4.445 7.042a9.25 9.25 0 0 1-1.546 1.215c.022-.304.041-.608.058-.915zm-.202 2.525c1.002-.553 1.882-1.18 2.608-1.905 1.283-1.283 2.357-2.893 3.32-4.652a161.585 161.585 0 0 0-.268 3.45c-.317 4.53-.645 9.213-2.392 12.233-1.673 2.891-5.595 5.33-9.746 7.913-1.475.917-2.962 1.843-4.363 2.802 1.716-3.668 3.826-6.477 6.327-9.803.739-.982 1.511-2.008 2.314-3.112 1.328-1.825 1.909-4.273 2.2-6.926zm-1.222-.841c-1.188.591-2.543 1.1-3.995 1.558 1.438-.672 2.818-1.395 4.047-2.22a28.16 28.16 0 0 1-.052.662zm-12.551 2.754c2.796-3.843 7.183-5.724 11.827-7.715l1.005-.432-.033.876c-.026.725-.056 1.452-.091 2.176-2.223 1.707-5.229 2.998-8.162 4.247-1.322.563-2.655 1.133-3.938 1.746-.491.122-.98.246-1.467.371.285-.423.557-.853.859-1.269zm-2.737 4.299c1.137-.808 2.433-1.518 3.8-2.176.451-.112.903-.223 1.354-.333 3.638-.89 7.144-1.751 9.959-3.013-.297 2.132-.823 4.054-1.854 5.47-.799 1.099-1.567 2.119-2.302 3.097-2.994 3.981-5.439 7.238-7.348 12.081-3.192 2.483-5.544 5.258-5.544 8.727 0 .183.019.362.028.544-.4.439-.806.879-1.219 1.323-.523.563-1.048 1.129-1.564 1.702-1.989-3.373-3.448-6.598-2.436-9.713 2.186-6.732 4.203-12.524 7.126-17.709zM22.554 94.389c0-10.68.417-22.604 3.511-30.064 1.228-2.963 4.85-4.684 9.15-5.999-1.701 1.251-3.078 2.738-3.863 4.631-.612 1.477-1.327 3.062-2.084 4.741-2.934 6.508-6.26 13.883-6.26 20.496 0 2.41 1.456 4.45 3.622 6.292a9.891 9.891 0 0 0-.321 2.479c0 1.563.326 3.032.862 4.436-2.712-2.116-4.617-4.398-4.617-7.012zm5.055 2.575c0-.541.053-1.068.149-1.583 2.054 1.535 4.542 2.944 7 4.331.511.288 1.024.578 1.533.869-.006 2.173-.364 4.183-.843 6.109l-.747-.44c-1.833-1.079-3.683-2.169-5.37-3.298-1.031-1.89-1.722-3.867-1.722-5.988zm5.743 11.768c-.82-1.056-1.646-2.123-2.409-3.213 1.02.625 2.062 1.24 3.101 1.852l1.059.625a144.682 144.682 0 0 1-.629 2.195c-.372-.489-.747-.976-1.122-1.459zm4.842 19.187c-.033.997-.065 2-.073 2.999-1.181-2.705-2.192-5.528-3.215-8.681-1.038-3.198-.654-6.134.099-9.104 1.034 1.515 1.904 3.042 2.429 4.66.997 3.07.877 6.657.76 10.126zm1.299.044c.12-3.581.245-7.284-.823-10.572-.673-2.072-1.873-4.014-3.222-5.887.115-.402.232-.805.35-1.211.155-.531.31-1.068.462-1.608 3.596 2.162 6.951 4.412 8.481 6.902-.477 1.999-1.13 4.12-1.777 6.216-1.801 5.831-3.504 11.378-1.918 14.911a55.442 55.442 0 0 1-1.546-2.855c-.141-1.871-.076-3.859-.007-5.896zm6.712 22.365c-1.375-3.702-2.674-7.199-4.591-9.834a9.82 9.82 0 0 1-1.258-2.382 63.796 63.796 0 0 0 3.135 4.725c1.943 2.67 3.132 6.033 4.281 9.285 1.376 3.896 2.813 7.885 5.558 10.813-3.401-2.595-5.295-7.68-7.125-12.607zm9.74 13.227c-3.706-2.697-5.28-7.152-6.947-11.869-1.181-3.341-2.401-6.795-4.456-9.618a62.95 62.95 0 0 1-2.839-4.248c.136.177.275.352.437.513 2.14 2.139 5.471 2.831 9.18 3 .061.064.116.131.179.195 4.769 4.769 10.548 6.842 16.666 9.037 2.035.73 4.139 1.485 6.232 2.353 3.259 1.351 6.323 4.718 9.566 8.281 1.794 1.971 3.613 3.963 5.509 5.648-4.105 1.903-7.983 3.521-11.429 2.402-2.865-.929-6.177-1.402-9.683-1.901-3.595-.512-7.26-1.047-10.407-2.103a19.874 19.874 0 0 0-2.008-1.69zm116.619-63.036c0 5.03-2.052 8.674-4.224 12.532-1.365 2.426-2.778 4.934-3.739 7.895-.71 2.188-1.243 4.167-1.758 6.08-1.302 4.836-2.426 9.012-5.806 13.656-4.64 6.374-8.471 10.175-15.184 15.061-6.35 4.622-11.213 6.325-19.261 8.938-3.544 1.15-6.532 4.505-9.422 7.749-3.465 3.888-7.047 7.909-11.428 7.909-3.327 0-7.059.692-10.667 1.361-5.623 1.043-11.438 2.121-15.926.664-4.457-1.447-8.045-6.042-11.514-10.485-1.302-1.667-2.567-3.284-3.863-4.737 2.675.676 5.564 1.089 8.405 1.494 3.449.492 6.707.955 9.465 1.851a8.975 8.975 0 0 0 2.791.426c3.285 0 6.746-1.56 10.132-3.139 2.504 2.018 5.155 3.406 8.072 3.406 6.903 0 14.338-3.636 20.899-6.842 2.395-1.171 4.657-2.277 6.772-3.154 7.514-3.116 15.906-8.985 23.023-16.102 3.401-1.667 6.556-3.502 8.998-6.857 2.779-3.817 3.072-8.012 3.383-12.453.202-2.892.411-5.882 1.362-8.81.992-3.055 1.212-5.662 1.132-8.249 3.37-3.108 6.793-6.297 8.444-9.917-.05.574-.086 1.148-.086 1.723zm-2.828-35.582c-2.148-5.181-8.096-8.361-13.847-11.436-3.642-1.947-7.081-3.797-9.512-6.064 2.31-.111 4.852-.446 7.459-.792a270.14 270.14 0 0 1 2.719-.352c3.063 2.509 5.925 5.235 8.241 8.418 5.3 7.282 9.148 14.551 11.438 21.604.177.544.305 1.093.395 1.647-.966 1.257-2.154 2.555-3.426 3.863-.587-7.123-1.734-12.708-3.467-16.888zm5.025 24.774a111.903 111.903 0 0 0-1.097 3.735c-.017-3.57-.126-6.867-.331-9.899 1.243-1.253 2.425-2.487 3.451-3.697.036 3.143-.969 6.433-2.023 9.861zm2.708-13.795c-2.332-7.183-6.243-14.573-11.624-21.968-2.148-2.952-4.726-5.512-7.493-7.859 4.775-.496 9.037-.473 10.699 1.811 3.793 5.213 6.497 13.781 8.669 20.666.362 1.15.712 2.257 1.051 3.302.448 1.379-.07 2.962-1.131 4.652-.054-.202-.106-.404-.171-.604z" class="icon1"></path></g></g>
</svg>
</g></svg></svg>