<svg version="1.1" preserveAspectRatio="none" xmlns="http://www.w3.org/2000/svg" width="500" height="500" viewBox="0 0 500 500"><rect width="100%" height="100%" fill="#F1F1F1" fill-opacity="1"/><svg viewBox="91.5338 373.9825 548.7414 354.6743" width="333" height="215.2316954762298" x="83.5px" y="142.3842px" xmlns="http://www.w3.org/2000/svg" xmlns:xlink="http://www.w3.org/1999/xlink" preserveAspectRatio="none"><defs></defs><style>.companyName {fill:#3B3B6B;fill-opacity:1;}.icon1 {fill:#D24848;fill-opacity:1;}.icon2 {fill:#CCAF60;fill-opacity:1;}.icon3 {fill:#797468;fill-opacity:1;}.icon3-str {stroke:#797468;stroke-opacity:1;}.text {fill:#D24848;fill-opacity:1;}</style><g opacity="1" transform="rotate(0 91.5338 704.6568)">
<svg width="548.7414" height="24" x="91.5338" y="704.6568" version="1.1" preserveAspectRatio="none" viewBox="1.92 -30.28 875.1600000000001 38.28">
  <g transform="matrix(1 0 0 1 0 0)" class="text"><path id="id-6izo4zJp30" d="M16.72 0.32Q12.52 0.32 9.14-1.54Q5.76-3.40 3.84-6.66Q1.92-9.92 1.92-14L1.92-14Q1.92-18.08 3.84-21.34Q5.76-24.60 9.16-26.46Q12.56-28.32 16.76-28.32L16.76-28.32Q20.04-28.32 22.76-27.22Q25.48-26.12 27.40-23.96L27.40-23.96L24.80-21.44Q21.64-24.76 16.92-24.76L16.92-24.76Q13.80-24.76 11.28-23.36Q8.76-21.96 7.34-19.50Q5.92-17.04 5.92-14L5.92-14Q5.92-10.96 7.34-8.50Q8.76-6.04 11.28-4.64Q13.80-3.24 16.92-3.24L16.92-3.24Q21.60-3.24 24.80-6.60L24.80-6.60L27.40-4.08Q25.48-1.92 22.74-0.80Q20 0.32 16.72 0.32L16.72 0.32Z M46.76 0.24Q43.60 0.24 41.08-1.16Q38.56-2.56 37.14-5.02Q35.72-7.48 35.72-10.60L35.72-10.60Q35.72-13.72 37.14-16.18Q38.56-18.64 41.08-20.02Q43.60-21.40 46.76-21.40L46.76-21.40Q49.92-21.40 52.42-20.02Q54.92-18.64 56.34-16.18Q57.76-13.72 57.76-10.60L57.76-10.60Q57.76-7.48 56.34-5.02Q54.92-2.56 52.42-1.16Q49.92 0.24 46.76 0.24L46.76 0.24ZM46.76-3.12Q48.80-3.12 50.42-4.06Q52.04-5 52.96-6.70Q53.88-8.40 53.88-10.60L53.88-10.60Q53.88-12.80 52.96-14.50Q52.04-16.20 50.42-17.12Q48.80-18.04 46.76-18.04L46.76-18.04Q44.72-18.04 43.10-17.12Q41.48-16.20 40.54-14.50Q39.60-12.80 39.60-10.60L39.60-10.60Q39.60-8.40 40.54-6.70Q41.48-5 43.10-4.06Q44.72-3.12 46.76-3.12L46.76-3.12Z M95.60-21.40Q99.60-21.40 101.94-19.08Q104.28-16.76 104.28-12.20L104.28-12.20L104.28 0L100.44 0L100.44-11.76Q100.44-14.84 99.02-16.40Q97.60-17.96 94.96-17.96L94.96-17.96Q92.04-17.96 90.32-16.14Q88.60-14.32 88.60-10.92L88.60-10.92L88.60 0L84.76 0L84.76-11.76Q84.76-14.84 83.34-16.40Q81.92-17.96 79.28-17.96L79.28-17.96Q76.36-17.96 74.64-16.14Q72.92-14.32 72.92-10.92L72.92-10.92L72.92 0L69.08 0L69.08-21.20L72.76-21.20L72.76-18.04Q73.92-19.68 75.80-20.54Q77.68-21.40 80.08-21.40L80.08-21.40Q82.56-21.40 84.48-20.40Q86.40-19.40 87.44-17.48L87.44-17.48Q88.64-19.32 90.78-20.36Q92.92-21.40 95.60-21.40L95.60-21.40Z M143.88-21.40Q147.88-21.40 150.22-19.08Q152.56-16.76 152.56-12.20L152.56-12.20L152.56 0L148.72 0L148.72-11.76Q148.72-14.84 147.30-16.40Q145.88-17.96 143.24-17.96L143.24-17.96Q140.32-17.96 138.60-16.14Q136.88-14.32 136.88-10.92L136.88-10.92L136.88 0L133.04 0L133.04-11.76Q133.04-14.84 131.62-16.40Q130.20-17.96 127.56-17.96L127.56-17.96Q124.64-17.96 122.92-16.14Q121.20-14.32 121.20-10.92L121.20-10.92L121.20 0L117.36 0L117.36-21.20L121.04-21.20L121.04-18.04Q122.20-19.68 124.08-20.54Q125.96-21.40 128.36-21.40L128.36-21.40Q130.84-21.40 132.76-20.40Q134.68-19.40 135.72-17.48L135.72-17.48Q136.92-19.32 139.06-20.36Q141.20-21.40 143.88-21.40L143.88-21.40Z M181.56-21.20L185.40-21.20L185.40 0L181.76 0L181.76-3.20Q180.60-1.56 178.70-0.66Q176.80 0.24 174.56 0.24L174.56 0.24Q170.32 0.24 167.88-2.10Q165.44-4.44 165.44-9L165.44-9L165.44-21.20L169.28-21.20L169.28-9.44Q169.28-6.36 170.76-4.78Q172.24-3.20 175-3.20L175-3.20Q178.04-3.20 179.80-5.04Q181.56-6.88 181.56-10.24L181.56-10.24L181.56-21.20Z M210.04-21.40Q214.08-21.40 216.46-19.06Q218.84-16.72 218.84-12.20L218.84-12.20L218.84 0L215 0L215-11.76Q215-14.84 213.52-16.40Q212.04-17.96 209.28-17.96L209.28-17.96Q206.16-17.96 204.36-16.14Q202.56-14.32 202.56-10.92L202.56-10.92L202.56 0L198.72 0L198.72-21.20L202.40-21.20L202.40-18Q203.56-19.64 205.54-20.52Q207.52-21.40 210.04-21.40L210.04-21.40Z M231.96 0L231.96-21.20L235.80-21.20L235.80 0L231.96 0ZM233.88-25.28Q232.76-25.28 232.02-26Q231.28-26.72 231.28-27.76L231.28-27.76Q231.28-28.80 232.02-29.54Q232.76-30.28 233.88-30.28L233.88-30.28Q235.00-30.28 235.74-29.58Q236.48-28.88 236.48-27.84L236.48-27.84Q236.48-26.76 235.74-26.02Q235.00-25.28 233.88-25.28L233.88-25.28Z M259.84-4L261.04-1.24Q260.20-0.52 258.96-0.14Q257.72 0.24 256.40 0.24L256.40 0.24Q253.20 0.24 251.44-1.48Q249.68-3.20 249.68-6.40L249.68-6.40L249.68-18.04L246.08-18.04L246.08-21.20L249.68-21.20L249.68-25.84L253.52-25.84L253.52-21.20L259.60-21.20L259.60-18.04L253.52-18.04L253.52-6.56Q253.52-4.84 254.38-3.92Q255.24-3 256.84-3L256.84-3Q258.60-3 259.84-4L259.84-4Z M286.28-21.20L290.04-21.20L279.76 2.12Q278.40 5.36 276.58 6.68Q274.76 8 272.20 8L272.20 8Q270.64 8 269.18 7.50Q267.72 7 266.76 6.04L266.76 6.04L268.40 3.16Q270.04 4.72 272.20 4.72L272.20 4.72Q273.60 4.72 274.54 3.98Q275.48 3.24 276.24 1.44L276.24 1.44L276.92-0.04L267.56-21.20L271.56-21.20L278.96-4.24L286.28-21.20Z M316.96 7.76L316.96-29.68L320.52-29.68L320.52 7.76L316.96 7.76Z M354.32-5.04L354.32-14.16L358.16-14.16L358.16-3.24Q356.08-1.52 353.32-0.60Q350.56 0.32 347.56 0.32L347.56 0.32Q343.32 0.32 339.92-1.54Q336.52-3.40 334.58-6.66Q332.64-9.92 332.64-14L332.64-14Q332.64-18.08 334.58-21.36Q336.52-24.64 339.94-26.48Q343.36-28.32 347.64-28.32L347.64-28.32Q351-28.32 353.74-27.22Q356.48-26.12 358.40-24L358.40-24L355.92-21.52Q352.56-24.76 347.80-24.76L347.80-24.76Q344.60-24.76 342.06-23.38Q339.52-22 338.08-19.54Q336.64-17.08 336.64-14L336.64-14Q336.64-10.96 338.08-8.50Q339.52-6.04 342.06-4.64Q344.60-3.24 347.76-3.24L347.76-3.24Q351.52-3.24 354.32-5.04L354.32-5.04Z M378.96-21.40Q383.36-21.40 385.70-19.24Q388.04-17.08 388.04-12.80L388.04-12.80L388.04 0L384.40 0L384.40-2.80Q383.44-1.32 381.66-0.54Q379.88 0.24 377.44 0.24L377.44 0.24Q373.88 0.24 371.74-1.48Q369.60-3.20 369.60-6L369.60-6Q369.60-8.80 371.64-10.50Q373.68-12.20 378.12-12.20L378.12-12.20L384.20-12.20L384.20-12.96Q384.20-15.44 382.76-16.76Q381.32-18.08 378.52-18.08L378.52-18.08Q376.64-18.08 374.84-17.46Q373.04-16.84 371.80-15.80L371.80-15.80L370.20-18.68Q371.84-20 374.12-20.70Q376.40-21.40 378.96-21.40L378.96-21.40ZM378.08-2.72Q380.28-2.72 381.88-3.70Q383.48-4.68 384.20-6.48L384.20-6.48L384.20-9.44L378.28-9.44Q373.40-9.44 373.40-6.16L373.40-6.16Q373.40-4.56 374.64-3.64Q375.88-2.72 378.08-2.72L378.08-2.72Z M427.68-21.40Q431.68-21.40 434.02-19.08Q436.36-16.76 436.36-12.20L436.36-12.20L436.36 0L432.52 0L432.52-11.76Q432.52-14.84 431.10-16.40Q429.68-17.96 427.04-17.96L427.04-17.96Q424.12-17.96 422.40-16.14Q420.68-14.32 420.68-10.92L420.68-10.92L420.68 0L416.84 0L416.84-11.76Q416.84-14.84 415.42-16.40Q414.00-17.96 411.36-17.96L411.36-17.96Q408.44-17.96 406.72-16.14Q405.00-14.32 405.00-10.92L405.00-10.92L405.00 0L401.16 0L401.16-21.20L404.84-21.20L404.84-18.04Q406.00-19.68 407.88-20.54Q409.76-21.40 412.16-21.40L412.16-21.40Q414.64-21.40 416.56-20.40Q418.48-19.40 419.52-17.48L419.52-17.48Q420.72-19.32 422.86-20.36Q425.00-21.40 427.68-21.40L427.68-21.40Z M449.44 0L449.44-21.20L453.28-21.20L453.28 0L449.44 0ZM451.36-25.28Q450.24-25.28 449.50-26Q448.76-26.72 448.76-27.76L448.76-27.76Q448.76-28.80 449.50-29.54Q450.24-30.28 451.36-30.28L451.36-30.28Q452.48-30.28 453.22-29.58Q453.96-28.88 453.96-27.84L453.96-27.84Q453.96-26.76 453.22-26.02Q452.48-25.28 451.36-25.28L451.36-25.28Z M477.92-21.40Q481.96-21.40 484.34-19.06Q486.72-16.72 486.72-12.20L486.72-12.20L486.72 0L482.88 0L482.88-11.76Q482.88-14.84 481.40-16.40Q479.92-17.96 477.16-17.96L477.16-17.96Q474.04-17.96 472.24-16.14Q470.44-14.32 470.44-10.92L470.44-10.92L470.44 0L466.60 0L466.60-21.20L470.28-21.20L470.28-18Q471.44-19.64 473.42-20.52Q475.40-21.40 477.92-21.40L477.92-21.40Z M516.60-21.20L520.24-21.20L520.24-2.88Q520.24 2.68 517.48 5.34Q514.72 8 509.24 8L509.24 8Q506.24 8 503.52 7.18Q500.80 6.36 499.12 4.84L499.12 4.84L500.96 1.88Q502.44 3.16 504.62 3.90Q506.80 4.64 509.12 4.64L509.12 4.64Q512.84 4.64 514.62 2.88Q516.40 1.12 516.40-2.48L516.40-2.48L516.40-4.16Q515.04-2.52 513.06-1.70Q511.08-0.88 508.76-0.88L508.76-0.88Q505.72-0.88 503.26-2.18Q500.80-3.48 499.40-5.82Q498.00-8.16 498.00-11.16L498.00-11.16Q498.00-14.16 499.40-16.50Q500.80-18.84 503.26-20.12Q505.72-21.40 508.76-21.40L508.76-21.40Q511.16-21.40 513.22-20.52Q515.28-19.64 516.60-17.92L516.60-17.92L516.60-21.20ZM509.20-4.24Q511.28-4.24 512.94-5.12Q514.60-6 515.54-7.58Q516.48-9.16 516.48-11.16L516.48-11.16Q516.48-14.24 514.44-16.14Q512.40-18.04 509.20-18.04L509.20-18.04Q505.96-18.04 503.92-16.14Q501.88-14.24 501.88-11.16L501.88-11.16Q501.88-9.16 502.82-7.58Q503.76-6 505.42-5.12Q507.08-4.24 509.20-4.24L509.20-4.24Z M558.04-21.40Q562.44-21.40 564.78-19.24Q567.12-17.08 567.12-12.80L567.12-12.80L567.12 0L563.48 0L563.48-2.80Q562.52-1.32 560.74-0.54Q558.96 0.24 556.52 0.24L556.52 0.24Q552.96 0.24 550.82-1.48Q548.68-3.20 548.68-6L548.68-6Q548.68-8.80 550.72-10.50Q552.76-12.20 557.20-12.20L557.20-12.20L563.28-12.20L563.28-12.96Q563.28-15.44 561.84-16.76Q560.40-18.08 557.60-18.08L557.60-18.08Q555.72-18.08 553.92-17.46Q552.12-16.84 550.88-15.80L550.88-15.80L549.28-18.68Q550.92-20 553.20-20.70Q555.48-21.40 558.04-21.40L558.04-21.40ZM557.16-2.72Q559.36-2.72 560.96-3.70Q562.56-4.68 563.28-6.48L563.28-6.48L563.28-9.44L557.36-9.44Q552.48-9.44 552.48-6.16L552.48-6.16Q552.48-4.56 553.72-3.64Q554.96-2.72 557.16-2.72L557.16-2.72Z M591.56-21.40Q595.60-21.40 597.98-19.06Q600.36-16.72 600.36-12.20L600.36-12.20L600.36 0L596.52 0L596.52-11.76Q596.52-14.84 595.04-16.40Q593.56-17.96 590.80-17.96L590.80-17.96Q587.68-17.96 585.88-16.14Q584.08-14.32 584.08-10.92L584.08-10.92L584.08 0L580.24 0L580.24-21.20L583.92-21.20L583.92-18Q585.08-19.64 587.06-20.52Q589.04-21.40 591.56-21.40L591.56-21.40Z M629.76-29.68L633.60-29.68L633.60 0L629.92 0L629.92-3.36Q628.64-1.60 626.68-0.68Q624.72 0.24 622.36 0.24L622.36 0.24Q619.28 0.24 616.84-1.12Q614.40-2.48 613.02-4.94Q611.64-7.40 611.64-10.60L611.64-10.60Q611.64-13.80 613.02-16.24Q614.40-18.68 616.84-20.04Q619.28-21.40 622.36-21.40L622.36-21.40Q624.64-21.40 626.56-20.54Q628.48-19.68 629.76-18L629.76-18L629.76-29.68ZM622.68-3.12Q624.68-3.12 626.32-4.06Q627.96-5 628.88-6.70Q629.80-8.40 629.80-10.60L629.80-10.60Q629.80-12.80 628.88-14.50Q627.96-16.20 626.32-17.12Q624.68-18.04 622.68-18.04L622.68-18.04Q620.64-18.04 619.02-17.12Q617.40-16.20 616.46-14.50Q615.52-12.80 615.52-10.60L615.52-10.60Q615.52-8.40 616.46-6.70Q617.40-5 619.02-4.06Q620.64-3.12 622.68-3.12L622.68-3.12Z M672.88 0.24Q669.64 0.24 667.10-1.16Q664.56-2.56 663.12-5.02Q661.68-7.48 661.68-10.60L661.68-10.60Q661.68-13.72 663.12-16.18Q664.56-18.64 667.10-20.02Q669.64-21.40 672.88-21.40L672.88-21.40Q675.76-21.40 678.02-20.24Q680.28-19.08 681.52-16.88L681.52-16.88L678.60-15Q677.60-16.52 676.12-17.28Q674.64-18.04 672.84-18.04L672.84-18.04Q670.76-18.04 669.10-17.12Q667.44-16.20 666.50-14.50Q665.56-12.80 665.56-10.60L665.56-10.60Q665.56-8.36 666.50-6.66Q667.44-4.96 669.10-4.04Q670.76-3.12 672.84-3.12L672.84-3.12Q674.64-3.12 676.12-3.88Q677.60-4.64 678.60-6.16L678.60-6.16L681.52-4.32Q680.28-2.12 678.02-0.94Q675.76 0.24 672.88 0.24L672.88 0.24Z M701.24 0.24Q698.08 0.24 695.56-1.16Q693.04-2.56 691.62-5.02Q690.20-7.48 690.20-10.60L690.20-10.60Q690.20-13.72 691.62-16.18Q693.04-18.64 695.56-20.02Q698.08-21.40 701.24-21.40L701.24-21.40Q704.40-21.40 706.90-20.02Q709.40-18.64 710.82-16.18Q712.24-13.72 712.24-10.60L712.24-10.60Q712.24-7.48 710.82-5.02Q709.40-2.56 706.90-1.16Q704.40 0.24 701.24 0.24L701.24 0.24ZM701.24-3.12Q703.28-3.12 704.90-4.06Q706.52-5 707.44-6.70Q708.36-8.40 708.36-10.60L708.36-10.60Q708.36-12.80 707.44-14.50Q706.52-16.20 704.90-17.12Q703.28-18.04 701.24-18.04L701.24-18.04Q699.20-18.04 697.58-17.12Q695.96-16.20 695.02-14.50Q694.08-12.80 694.08-10.60L694.08-10.60Q694.08-8.40 695.02-6.70Q695.96-5 697.58-4.06Q699.20-3.12 701.24-3.12L701.24-3.12Z M739.72-29.68L743.56-29.68L743.56 0L739.88 0L739.88-3.36Q738.60-1.60 736.64-0.68Q734.68 0.24 732.32 0.24L732.32 0.24Q729.24 0.24 726.80-1.12Q724.36-2.48 722.98-4.94Q721.60-7.40 721.60-10.60L721.60-10.60Q721.60-13.80 722.98-16.24Q724.36-18.68 726.80-20.04Q729.24-21.40 732.32-21.40L732.32-21.40Q734.60-21.40 736.52-20.54Q738.44-19.68 739.72-18L739.72-18L739.72-29.68ZM732.64-3.12Q734.64-3.12 736.28-4.06Q737.92-5 738.84-6.70Q739.76-8.40 739.76-10.60L739.76-10.60Q739.76-12.80 738.84-14.50Q737.92-16.20 736.28-17.12Q734.64-18.04 732.64-18.04L732.64-18.04Q730.60-18.04 728.98-17.12Q727.36-16.20 726.42-14.50Q725.48-12.80 725.48-10.60L725.48-10.60Q725.48-8.40 726.42-6.70Q727.36-5 728.98-4.06Q730.60-3.12 732.64-3.12L732.64-3.12Z M776.00-10.48Q776.00-10.04 775.92-9.32L775.92-9.32L758.72-9.32Q759.08-6.52 761.18-4.82Q763.28-3.12 766.40-3.12L766.40-3.12Q770.20-3.12 772.52-5.68L772.52-5.68L774.64-3.20Q773.20-1.52 771.06-0.64Q768.92 0.24 766.28 0.24L766.28 0.24Q762.92 0.24 760.32-1.14Q757.72-2.52 756.30-5Q754.88-7.48 754.88-10.60L754.88-10.60Q754.88-13.68 756.26-16.16Q757.64-18.64 760.06-20.02Q762.48-21.40 765.52-21.40L765.52-21.40Q768.56-21.40 770.94-20.02Q773.32-18.64 774.66-16.16Q776.00-13.68 776.00-10.48L776.00-10.48ZM765.52-18.16Q762.76-18.16 760.90-16.48Q759.04-14.80 758.72-12.08L758.72-12.08L772.32-12.08Q772.00-14.76 770.14-16.46Q768.28-18.16 765.52-18.16L765.52-18.16Z M787.88 7.76L787.88-29.68L791.44-29.68L791.44 7.76L787.88 7.76Z M842.36-24.52L826.60-24.52L826.60-14.76L840.64-14.76L840.64-11.32L826.60-11.32L826.60 0L822.60 0L822.60-28L842.36-28L842.36-24.52Z M877.08 0L872.72 0L866.68-8.60Q865.56-8.52 864.92-8.52L864.92-8.52L858-8.52L858 0L854 0L854-28L864.92-28Q870.36-28 873.48-25.40Q876.60-22.80 876.60-18.24L876.60-18.24Q876.60-15 875-12.72Q873.40-10.44 870.44-9.40L870.44-9.40L877.08 0ZM864.80-11.92Q868.60-11.92 870.60-13.56Q872.60-15.20 872.60-18.24L872.60-18.24Q872.60-21.28 870.60-22.90Q868.60-24.52 864.80-24.52L864.80-24.52L858-24.52L858-11.92L864.80-11.92Z"/></g>
</svg>
</g><g opacity="1" transform="rotate(0 168.2662 602.6568)">
<svg width="395.2766" height="80" x="168.2662" y="602.6568" version="1.1" preserveAspectRatio="none" viewBox="3.76 -30.88 153.96 31.16">
  <g transform="matrix(1 0 0 1 0 0)" class="companyName"><path id="id-D6z1nYkh7" d="M15.28-28Q18.92-28 21.62-26.80Q24.32-25.60 25.76-23.36Q27.20-21.12 27.20-18.04L27.20-18.04Q27.20-15 25.76-12.74Q24.32-10.48 21.62-9.28Q18.92-8.08 15.28-8.08L15.28-8.08L8.96-8.08L8.96 0L3.76 0L3.76-28L15.28-28ZM15.04-12.48Q18.44-12.48 20.20-13.92Q21.96-15.36 21.96-18.04L21.96-18.04Q21.96-20.72 20.20-22.16Q18.44-23.60 15.04-23.60L15.04-23.60L8.96-23.60L8.96-12.48L15.04-12.48Z M31.72 0L31.72-21.36L36.72-21.36L36.72 0L31.72 0ZM34.24-24.88Q32.88-24.88 31.96-25.74Q31.04-26.60 31.04-27.88L31.04-27.88Q31.04-29.16 31.96-30.02Q32.88-30.88 34.24-30.88L34.24-30.88Q35.60-30.88 36.52-30.06Q37.44-29.24 37.44-28L37.44-28Q37.44-26.68 36.54-25.78Q35.64-24.88 34.24-24.88L34.24-24.88Z M59.40 0L52-9.16L48.28-5.64L48.28 0L43.28 0L43.28-29.68L48.28-29.68L48.28-11.76L58.64-21.36L64.64-21.36L55.72-12.40L65.48 0L59.40 0Z M76.48-21.60Q81.20-21.60 83.70-19.34Q86.20-17.08 86.20-12.52L86.20-12.52L86.20 0L81.48 0L81.48-2.60Q80.56-1.20 78.86-0.46Q77.16 0.28 74.76 0.28L74.76 0.28Q72.36 0.28 70.56-0.54Q68.76-1.36 67.78-2.82Q66.80-4.28 66.80-6.12L66.80-6.12Q66.80-9 68.94-10.74Q71.08-12.48 75.68-12.48L75.68-12.48L81.20-12.48L81.20-12.80Q81.20-15.04 79.86-16.24Q78.52-17.44 75.88-17.44L75.88-17.44Q74.08-17.44 72.34-16.88Q70.60-16.32 69.40-15.32L69.40-15.32L67.44-18.96Q69.12-20.24 71.48-20.92Q73.84-21.60 76.48-21.60L76.48-21.60ZM75.80-3.36Q77.68-3.36 79.14-4.22Q80.60-5.08 81.20-6.68L81.20-6.68L81.20-9.16L76.04-9.16Q71.72-9.16 71.72-6.32L71.72-6.32Q71.72-4.96 72.80-4.16Q73.88-3.36 75.80-3.36L75.80-3.36Z M116.12-28L105.16-9.88L105.16 0L99.96 0L99.96-9.80L88.96-28L94.52-28L102.72-14.36L111-28L116.12-28Z M133.32-21.36L138.32-21.36L138.32 0L133.56 0L133.56-2.72Q132.36-1.28 130.56-0.50Q128.76 0.28 126.68 0.28L126.68 0.28Q122.40 0.28 119.94-2.10Q117.48-4.48 117.48-9.16L117.48-9.16L117.48-21.36L122.48-21.36L122.48-9.84Q122.48-6.96 123.78-5.54Q125.08-4.12 127.48-4.12L127.48-4.12Q130.16-4.12 131.74-5.78Q133.32-7.44 133.32-10.56L133.32-10.56L133.32-21.36Z M156.32-4.72L157.72-1.16Q156.84-0.44 155.58-0.08Q154.32 0.28 152.92 0.28L152.92 0.28Q149.40 0.28 147.48-1.56Q145.56-3.40 145.56-6.92L145.56-6.92L145.56-17.20L142.04-17.20L142.04-21.20L145.56-21.20L145.56-26.08L150.56-26.08L150.56-21.20L156.28-21.20L156.28-17.20L150.56-17.20L150.56-7.04Q150.56-5.48 151.32-4.66Q152.08-3.84 153.52-3.84L153.52-3.84Q155.20-3.84 156.32-4.72L156.32-4.72Z"/></g>
</svg>
</g><g opacity="1" transform="rotate(0 267.0854 373.9825)">
<svg width="197.6383" height="198.6743" x="267.0854" y="373.9825" version="1.1" preserveAspectRatio="none" viewBox="2.0000195503234863 2.0004000663757324 19.010345458984375 19.10999870300293">
  <g transform="matrix(1 0 0 1 0 0)" class="icon1"><title>geo-2b</title><desc>Created with Sketch.</desc><g stroke-width="1" fill-rule="evenodd"><g><path d="M4.7716,2.7574 L7.3096,6.9864 L4.7716,11.2164 L2.5156,6.9864 L4.7716,2.7574 Z M10.3016,2.5004 L12.8436,6.7364 L7.7426,6.7364 L5.2006,2.5004 L10.3016,2.5004 Z M10.5976,11.9094 C10.6096,11.9004 10.6186,11.8924 10.6276,11.8804 C10.6376,11.8694 10.6496,11.8644 10.6576,11.8524 L13.4996,7.1154 C13.5066,7.1034 13.5006,7.0904 13.5046,7.0784 C13.5146,7.0564 13.5206,7.0394 13.5226,7.0164 C13.5246,7.0054 13.5356,6.9984 13.5356,6.9864 C13.5356,6.9754 13.5246,6.9684 13.5226,6.9574 C13.5206,6.9344 13.5146,6.9174 13.5046,6.8954 C13.5006,6.8834 13.5066,6.8704 13.4996,6.8584 L10.6576,2.1214 C10.6516,2.1114 10.6386,2.1114 10.6316,2.1034 C10.6116,2.0764 10.5856,2.0644 10.5566,2.0474 C10.5276,2.0314 10.5046,2.0164 10.4726,2.0124 C10.4616,2.0104 10.4546,2.0004 10.4426,2.0004 L4.7586,2.0004 C4.7456,2.0004 4.7366,2.0124 4.7236,2.0144 C4.7006,2.0184 4.6836,2.0214 4.6626,2.0304 C4.6516,2.0354 4.6406,2.0294 4.6306,2.0354 C4.6206,2.0414 4.6206,2.0544 4.6116,2.0614 C4.5926,2.0754 4.5816,2.0894 4.5676,2.1084 C4.5596,2.1184 4.5446,2.1204 4.5386,2.1324 L2.0116,6.8694 C2.0076,6.8774 2.0126,6.8864 2.0096,6.8944 C1.9966,6.9244 2.0006,6.9534 2.0006,6.9864 C2.0006,7.0204 1.9966,7.0494 2.0096,7.0794 C2.0126,7.0874 2.0076,7.0964 2.0116,7.1044 L4.5386,11.8414 C4.5466,11.8574 4.5616,11.8644 4.5726,11.8774 C4.5826,11.8894 4.5906,11.8994 4.6036,11.9094 C4.6126,11.9174 4.6186,11.9304 4.6296,11.9364 C4.6296,11.9374 4.6296,11.9374 4.6306,11.9384 L4.6306,11.9384 C4.6696,11.9614 4.7136,11.9734 4.7586,11.9734 L10.4426,11.9734 C10.5006,11.9734 10.5526,11.9474 10.5976,11.9094 L10.5976,11.9094 Z"></path><path d="M10.9713,13.5074 L15.4763,15.5164 L15.8233,20.4374 L11.5493,18.2664 L10.9713,13.5074 Z M15.3533,10.1254 L19.8663,12.1374 L15.6883,15.0634 L11.1753,13.0504 L15.3533,10.1254 Z M20.9993,17.6114 C21.0003,17.6004 21.0113,17.5934 21.0103,17.5814 L20.6213,12.0714 C20.6203,12.0584 20.6073,12.0514 20.6043,12.0394 C20.5993,12.0154 20.5943,11.9974 20.5833,11.9764 C20.5783,11.9664 20.5823,11.9544 20.5763,11.9454 C20.5683,11.9344 20.5543,11.9344 20.5443,11.9254 C20.5303,11.9094 20.5183,11.9004 20.5003,11.8884 C20.4893,11.8814 20.4863,11.8664 20.4733,11.8604 L15.4283,9.6104 C15.4173,9.6054 15.4073,9.6124 15.3963,9.6094 C15.3653,9.6004 15.3373,9.6044 15.3043,9.6074 C15.2713,9.6104 15.2423,9.6114 15.2133,9.6274 C15.2033,9.6324 15.1923,9.6284 15.1823,9.6344 L10.5263,12.8944 C10.5153,12.9024 10.5153,12.9174 10.5063,12.9264 C10.4893,12.9424 10.4763,12.9554 10.4653,12.9754 C10.4593,12.9844 10.4463,12.9864 10.4413,12.9974 C10.4363,13.0074 10.4443,13.0184 10.4403,13.0294 C10.4333,13.0514 10.4323,13.0704 10.4323,13.0934 C10.4313,13.1064 10.4203,13.1154 10.4223,13.1294 L11.0693,18.4584 C11.0703,18.4674 11.0793,18.4724 11.0813,18.4824 C11.0873,18.5084 11.1033,18.5264 11.1173,18.5494 C11.1363,18.5814 11.1543,18.6084 11.1843,18.6284 C11.1933,18.6344 11.1943,18.6464 11.2043,18.6514 L15.9913,21.0824 C16.0263,21.1014 16.0653,21.1094 16.1023,21.1094 C16.1033,21.1094 16.1033,21.1104 16.1033,21.1104 L16.1043,21.1104 C16.1103,21.1104 16.1163,21.1104 16.1213,21.1094 C16.1293,21.1094 16.1343,21.1004 16.1413,21.0994 C16.1763,21.0944 16.2103,21.0864 16.2393,21.0674 C16.2423,21.0654 16.2453,21.0664 16.2473,21.0644 L20.9043,17.8034 C20.9133,17.7974 20.9123,17.7844 20.9213,17.7774 C20.9453,17.7554 20.9563,17.7294 20.9713,17.6984 C20.9853,17.6694 20.9983,17.6444 20.9993,17.6114 L20.9993,17.6114 Z"></path></g></g></g>
</svg>
</g></svg></svg>