<svg version="1.1" preserveAspectRatio="none" xmlns="http://www.w3.org/2000/svg" width="500" height="500" viewBox="0 0 500 500"><rect width="100%" height="100%" fill="#F5F5F5" fill-opacity="1"/><svg viewBox="259.1183 267.5983 638.2825 146" width="333" height="76.17003442832915" x="83.5px" y="211.915px" xmlns="http://www.w3.org/2000/svg" xmlns:xlink="http://www.w3.org/1999/xlink" preserveAspectRatio="none"><defs></defs><style>.companyName {fill:#08376B;fill-opacity:1;}.icon1 {fill:#35C0ED;fill-opacity:1;}.icon2 {fill:#9AEBA6;fill-opacity:1;}.icon3 {fill:#2F90B0;fill-opacity:1;}.icon3-str {stroke:#2F90B0;stroke-opacity:1;}.shapeStroke-str {stroke:#08376B;stroke-opacity:1;}.text {fill:#08376B;fill-opacity:1;}</style><g opacity="1" transform="rotate(0 259.1183 282.5983)">
<svg width="115.9356" height="116" x="259.1183" y="282.5983" version="1.1" preserveAspectRatio="none" viewBox="15.814801216125488 15.750116348266602 68.48519897460938 68.52325439453125">
  <g transform="matrix(1 0 0 1 0 0)" class="icon1"><path d="M62.1,17.9C48.6,12.8,32.8,17,23.6,28.1c-7.7,9.4-9.8,22.3-5.8,33.5c0,0.1,0.1,0.2,0.1,0.3c0.7,2,1.7,3.9,2.8,5.8  C28,79.9,42.5,86.3,56.5,83.7C72.6,80.6,84.1,66.2,84.3,50C84.1,35.8,75.4,23,62.1,17.9z M74,36.7c1.2,0,1.2,1.9,0,1.9  C72.8,38.5,72.8,36.7,74,36.7z M66,27.4c1.2,0,1.2,1.9,0,1.9C64.8,29.2,64.8,27.4,66,27.4z M60.6,35.9c1.2,0,1.2,1.9,0,1.9  C59.4,37.7,59.4,35.9,60.6,35.9z M67.4,44.1c-0.8,1.2-1.5,2.5-1.3,3.7c0.4,2.5,4.1,3.9,5.3,6c0,0.1,0.1,0.1,0.1,0.2  c0.4,0.8,0.4,1.7-0.3,2.8c-1.3-1.1-2.6-2.2-3.9-3.4c-0.2-0.2-0.6-0.3-0.9-0.3c-0.2,0-0.3,0.2-0.5,0.3c-0.6,0.7-1.3,1.2-2,1.8  c-1.6-1.6-3.2-3.2-4.8-4.7C62.2,48.9,64.9,46.5,67.4,44.1z M62.6,62.3c0.2,1.2,0.7,2,1.6,2.7c0.9,0.8,3.7,2.6,3,3.6  c-0.5,0.9-2.8,1.6-3.6,2.1c-1.8,1-3.6,1.9-5.4,2.9c-0.1,0.1-0.2,0.1-0.3,0.2c-2.7-2.4-5.3-4.7-8-7c0.9-0.4,3.5-1.7,4.1-2  c2.5-1.4,5-3,7.3-4.8c0.7-0.6,1.4-1.2,2.1-1.8C62.9,59.5,62.5,60.9,62.6,62.3z M57.1,40.4c1.2,0,1.2,1.9,0,1.9  C55.9,42.3,55.9,40.4,57.1,40.4z M53.2,21.8c1.2,0,1.2,1.9,0,1.9C52,23.7,52,21.8,53.2,21.8z M52.2,50.2c2.2,2.2,4.4,4.3,6.7,6.5  c0.9,0.8,2.2-0.5,1.3-1.3c-2.3-2.2-7-6.9-7-6.9s0.3-0.6,0.5-0.9c3,3,5.9,5.9,8.9,8.9c-0.5,0.4-0.9,0.8-1.4,1.2  c-1.4,1.1-2.8,2.2-4.3,3.1c0.4-1.3,0.3-2.6-0.7-3.6c-1.5-1.4-5.3-1.2-5.2-3.6c0-0.2,0-0.5,0.1-0.7c0.9,0.9,1.8,1.7,2.7,2.6  c0.9,0.8,2.2-0.5,1.3-1.3c-1-1-3.3-3.2-3.3-3.2S52.1,50.4,52.2,50.2z M51.2,48.3c-1.3,2.3-3,5.2-1.9,7.1c0.6,1.2,2.2,1.7,3.4,2.2  c1.3,0.5,2.6,0.7,2.4,2.4c-0.1,1-1.1,2.4-2.1,3.1c-1.4,1-4.5,2.3-4.5,2.3s-6.3-5.5-9.5-8.3c0.1,0,0.2-0.1,0.2-0.1  C43.4,54.4,47.3,51.3,51.2,48.3z M47.2,29.7c1.2,0,1.2,1.9,0,1.9C46,31.6,46,29.7,47.2,29.7z M45,44.1c1.2,0,1.2,1.9,0,1.9  C43.8,46,43.8,44.1,45,44.1z M38.9,34c1.2,0,1.2,1.9,0,1.9C37.7,35.9,37.7,34,38.9,34z M35.8,23.9c1.2,0,1.2,1.9,0,1.9  C34.6,25.7,34.6,23.9,35.8,23.9z M31.5,39.4c0.2-0.1,0.6-0.3,0.9-0.4c0.4-0.1,0.8,0.4,0.5,0.7c-0.8,0.8-1.5,2.4-0.8,3.7  c0.8,1.3,2.4,1.6,3.7,1.3c0.4-0.1,0.7,0.5,0.4,0.8c-0.4,0.4-0.8,0.7-1.4,0.9c-1.6,0.6-3.4,0-4.5-1.3C28.9,43.1,29.6,40.5,31.5,39.4z   M25,37.9c1.2,0,1.2,1.9,0,1.9C23.8,39.8,23.8,37.9,25,37.9z M22.8,48.7c1.2,0,1.2,1.9,0,1.9C21.6,50.5,21.6,48.7,22.8,48.7z   M24.9,70.6c-2.1-2.6-3.8-5.5-5-8.6c3.8-1.5,7.3-4.2,10.5-6.8c-0.7,1.4-1.5,2.9-1.6,4.4c-0.2,2.2,1.8,4,3.2,5.5c0.5,0.5,2.3,2,3,3.1  c0,0,0,0.1,0.1,0.1c0.2,0.3,0.3,0.5,0.3,0.7c-0.2,0.9-2.7,1.3-3.4,1.4c-2,0.5-4.1,0.8-6.2,1.2C25.5,71.3,25.2,70.9,24.9,70.6z   M46,82.1c-6.9-0.9-13.5-3.9-18.6-8.9c1.1-0.1,2.5-0.3,3.9-0.6c1,1,2.1,2,3.1,3c0.9,0.8,2.2-0.5,1.3-1.3c-0.8-0.7-1.5-1.5-2.3-2.2  c0.4-0.1,0.7-0.2,1-0.3c1.9,1.9,3.9,3.8,5.8,5.7c0.9,0.8,2.2-0.5,1.3-1.3c-1.8-1.8-3.6-3.5-5.4-5.3c0.3-0.2,0.5-0.5,0.7-0.8  c3.1,3.1,6.3,6.2,9.4,9.4c0.9,0.8,2.2-0.5,1.3-1.3C44,74.5,33.3,63.9,32.4,62.8c-0.9-1.1-1.4-1.9-1.5-2.7c3,2.6,6,5.3,9,7.9  c0.9,0.8,2.2-0.5,1.3-1.3c-3.3-2.9-10-8.7-10-8.7l0.5-1.1c0,0,5,4.5,7.5,6.7c0.9,0.8,2.2-0.5,1.3-1.3c-2.7-2.4-5.3-4.8-8-7.1  c0.1-0.3,0.3-0.6,0.4-0.8c7.7,6.9,15.6,13.7,23.3,20.5c-3.6,2.1-7,4.4-10.2,7.2C46,82,46,82.1,46,82.1z M60.8,80.6  c-4,1.4-8.2,2-12.3,1.8c2.1-1.8,4.3-3.3,6.7-4.8c0.6,0.6,1.2,1.1,1.8,1.7c0.9,0.8,2.2-0.5,1.3-1.3c-0.5-0.5-1-0.9-1.5-1.4  c0.3-0.2,0.6-0.3,0.9-0.5c0,0,0,0.1,0.1,0.1c1,1,2.1,2,3.1,3c0.9,0.8,2.2-0.5,1.3-1.3c-0.9-0.9-1.9-1.8-2.8-2.7  c0.3-0.2,0.7-0.4,1-0.5c0,0,0.1,0.1,0.1,0.1c1.4,1.4,2.8,2.8,4.3,4.2C63.5,79.5,62.2,80.1,60.8,80.6z M66.4,77.9  c-1.4-1.4-2.9-2.8-4.3-4.2c2.4-1.1,5.2-2.2,6.8-4c0.1-0.1,0.1-0.2,0.2-0.2c0.4,0.4,0.9,0.9,1.3,1.3c0.9,0.8,2.2-0.5,1.3-1.3  c-1-1-2.1-2-3.1-3c0,0,0,0,0,0c-0.5-0.5-1-1-1.5-1.5c-1.5-1.3-2.7-2.1-2.5-3.9c2.9,2.6,5.8,5.1,8.7,7.7c0.9,0.8,2.2-0.5,1.3-1.3  c-3.2-2.8-6.4-5.6-9.5-8.4c0.1-0.4,0.3-0.7,0.5-1.1c2.3,2.1,4.7,4.2,7,6.3c0.9,0.8,2.2-0.5,1.3-1.3c-2.5-2.2-4.9-4.4-7.4-6.6  c0.2-0.3,0.3-0.5,0.5-0.8c3.8,3.3,7.7,6.5,11.5,9.7C75.7,70.4,71.6,74.9,66.4,77.9z M72.7,57.9c0.1-0.1,0.1-0.1,0.2-0.2  c0.4-0.6,0.7-1.2,0.9-1.7c1,1,2,1.9,3,2.9c0.9,0.8,2.2-0.5,1.3-1.3c-1.7-1.6-6.3-6.2-7.1-7c-1.3-1.3-2.8-2.1-2.6-3.6  c0.8,0.8,1.6,1.5,2.4,2.3c0.9,0.8,2.2-0.5,1.3-1.3c-0.9-0.8-2.9-2.7-2.9-2.7s0.4-0.5,0.6-0.8c1.9,1.9,3.9,3.8,5.8,5.7  c0.9,0.8,2.2-0.5,1.3-1.3c-2-2-4.1-4-6.1-6c0.2-0.3,0.3-0.6,0.4-0.9c3.6,3.6,11,10.7,11.1,10.8c-0.3,3.8-1.3,7.5-2.9,10.9  C77.1,61.6,74.9,59.8,72.7,57.9z"></path></g>
</svg>
</g><g opacity="1" transform="rotate(0 439.0539 374.5983)">
<svg width="458.3469" height="24" x="439.0539" y="374.5983" version="1.1" preserveAspectRatio="none" viewBox="1.76 -30.88 743.4399999999999 38.92">
  <g transform="matrix(1 0 0 1 0 0)" class="text"><path id="id-6izo4zJp30" d="M16.72 0.40Q12.48 0.40 9.06-1.46Q5.64-3.32 3.70-6.60Q1.76-9.88 1.76-14L1.76-14Q1.76-18.12 3.72-21.40Q5.68-24.68 9.10-26.54Q12.52-28.40 16.76-28.40L16.76-28.40Q20.20-28.40 23.04-27.20Q25.88-26 27.84-23.72L27.84-23.72L24.48-20.56Q21.44-23.84 17-23.84L17-23.84Q14.12-23.84 11.84-22.58Q9.56-21.32 8.28-19.08Q7-16.84 7-14L7-14Q7-11.16 8.28-8.92Q9.56-6.68 11.84-5.42Q14.12-4.16 17-4.16L17-4.16Q21.44-4.16 24.48-7.48L24.48-7.48L27.84-4.28Q25.88-2 23.02-0.80Q20.16 0.40 16.72 0.40L16.72 0.40Z M42.36 0.28Q39.12 0.28 36.52-1.12Q33.92-2.52 32.46-5.02Q31-7.52 31-10.68L31-10.68Q31-13.84 32.46-16.32Q33.92-18.80 36.52-20.20Q39.12-21.60 42.36-21.60L42.36-21.60Q45.64-21.60 48.24-20.20Q50.84-18.80 52.30-16.32Q53.76-13.84 53.76-10.68L53.76-10.68Q53.76-7.52 52.30-5.02Q50.84-2.52 48.24-1.12Q45.64 0.28 42.36 0.28L42.36 0.28ZM42.36-4Q45.12-4 46.92-5.84Q48.72-7.68 48.72-10.68L48.72-10.68Q48.72-13.68 46.92-15.52Q45.12-17.36 42.36-17.36L42.36-17.36Q39.60-17.36 37.82-15.52Q36.04-13.68 36.04-10.68L36.04-10.68Q36.04-7.68 37.82-5.84Q39.60-4 42.36-4L42.36-4Z M86.72-21.60Q90.76-21.60 93.12-19.26Q95.48-16.92 95.48-12.24L95.48-12.24L95.48 0L90.48 0L90.48-11.60Q90.48-14.40 89.24-15.82Q88-17.24 85.68-17.24L85.68-17.24Q83.16-17.24 81.64-15.58Q80.12-13.92 80.12-10.84L80.12-10.84L80.12 0L75.12 0L75.12-11.60Q75.12-14.40 73.88-15.82Q72.64-17.24 70.32-17.24L70.32-17.24Q67.76-17.24 66.26-15.60Q64.76-13.96 64.76-10.84L64.76-10.84L64.76 0L59.76 0L59.76-21.36L64.52-21.36L64.52-18.64Q65.72-20.08 67.52-20.84Q69.32-21.60 71.52-21.60L71.52-21.60Q73.92-21.60 75.78-20.70Q77.64-19.80 78.72-18.04L78.72-18.04Q80.04-19.72 82.12-20.66Q84.20-21.60 86.72-21.60L86.72-21.60Z M130.04-21.60Q134.08-21.60 136.44-19.26Q138.80-16.92 138.80-12.24L138.80-12.24L138.80 0L133.80 0L133.80-11.60Q133.80-14.40 132.56-15.82Q131.32-17.24 129-17.24L129-17.24Q126.48-17.24 124.96-15.58Q123.44-13.92 123.44-10.84L123.44-10.84L123.44 0L118.44 0L118.44-11.60Q118.44-14.40 117.20-15.82Q115.96-17.24 113.64-17.24L113.64-17.24Q111.08-17.24 109.58-15.60Q108.08-13.96 108.08-10.84L108.08-10.84L108.08 0L103.08 0L103.08-21.36L107.84-21.36L107.84-18.64Q109.04-20.08 110.84-20.84Q112.64-21.60 114.84-21.60L114.84-21.60Q117.24-21.60 119.10-20.70Q120.96-19.80 122.04-18.04L122.04-18.04Q123.36-19.72 125.44-20.66Q127.52-21.60 130.04-21.60L130.04-21.60Z M162.08-21.36L167.08-21.36L167.08 0L162.32 0L162.32-2.72Q161.12-1.28 159.32-0.50Q157.52 0.28 155.44 0.28L155.44 0.28Q151.16 0.28 148.70-2.10Q146.24-4.48 146.24-9.16L146.24-9.16L146.24-21.36L151.24-21.36L151.24-9.84Q151.24-6.96 152.54-5.54Q153.84-4.12 156.24-4.12L156.24-4.12Q158.92-4.12 160.50-5.78Q162.08-7.44 162.08-10.56L162.08-10.56L162.08-21.36Z M186.96-21.60Q191.00-21.60 193.44-19.24Q195.88-16.88 195.88-12.24L195.88-12.24L195.88 0L190.88 0L190.88-11.60Q190.88-14.40 189.56-15.82Q188.24-17.24 185.80-17.24L185.80-17.24Q183.04-17.24 181.44-15.58Q179.84-13.92 179.84-10.80L179.84-10.80L179.84 0L174.84 0L174.84-21.36L179.60-21.36L179.60-18.60Q180.84-20.08 182.72-20.84Q184.60-21.60 186.96-21.60L186.96-21.60Z M203.44 0L203.44-21.36L208.44-21.36L208.44 0L203.44 0ZM205.96-24.88Q204.60-24.88 203.68-25.74Q202.76-26.60 202.76-27.88L202.76-27.88Q202.76-29.16 203.68-30.02Q204.60-30.88 205.96-30.88L205.96-30.88Q207.32-30.88 208.24-30.06Q209.16-29.24 209.16-28L209.16-28Q209.16-26.68 208.26-25.78Q207.36-24.88 205.96-24.88L205.96-24.88Z M227.64-4.72L229.04-1.16Q228.16-0.44 226.90-0.08Q225.64 0.28 224.24 0.28L224.24 0.28Q220.72 0.28 218.80-1.56Q216.88-3.40 216.88-6.92L216.88-6.92L216.88-17.20L213.36-17.20L213.36-21.20L216.88-21.20L216.88-26.08L221.88-26.08L221.88-21.20L227.60-21.20L227.60-17.20L221.88-17.20L221.88-7.04Q221.88-5.48 222.64-4.66Q223.40-3.84 224.84-3.84L224.84-3.84Q226.52-3.84 227.64-4.72L227.64-4.72Z M249.16-21.36L253.96-21.36L243.96 1.72Q242.56 5.20 240.56 6.62Q238.56 8.04 235.72 8.04L235.72 8.04Q234.12 8.04 232.56 7.52Q231.00 7 230.00 6.08L230.00 6.08L232.00 2.40Q232.72 3.08 233.70 3.48Q234.68 3.88 235.68 3.88L235.68 3.88Q237.00 3.88 237.86 3.20Q238.72 2.52 239.44 0.92L239.44 0.92L239.80 0.08L230.48-21.36L235.68-21.36L242.40-5.56L249.16-21.36Z M271.00 7.76L271.00-29.68L275.60-29.68L275.60 7.76L271.00 7.76Z M303.44-5.60L303.44-14.32L308.36-14.32L308.36-3.16Q306.20-1.44 303.32-0.52Q300.44 0.40 297.40 0.40L297.40 0.40Q293.12 0.40 289.68-1.46Q286.24-3.32 284.28-6.60Q282.32-9.88 282.32-14L282.32-14Q282.32-18.12 284.28-21.40Q286.24-24.68 289.70-26.54Q293.16-28.40 297.48-28.40L297.48-28.40Q301.00-28.40 303.88-27.24Q306.76-26.08 308.72-23.84L308.72-23.84L305.44-20.64Q302.24-23.84 297.72-23.84L297.72-23.84Q294.76-23.84 292.46-22.60Q290.16-21.36 288.86-19.12Q287.56-16.88 287.56-14L287.56-14Q287.56-11.20 288.86-8.96Q290.16-6.72 292.46-5.44Q294.76-4.16 297.68-4.16L297.68-4.16Q300.96-4.16 303.44-5.60L303.44-5.60Z M324.08-21.60Q328.80-21.60 331.30-19.34Q333.80-17.08 333.80-12.52L333.80-12.52L333.80 0L329.08 0L329.08-2.60Q328.16-1.20 326.46-0.46Q324.76 0.28 322.36 0.28L322.36 0.28Q319.96 0.28 318.16-0.54Q316.36-1.36 315.38-2.82Q314.40-4.28 314.40-6.12L314.40-6.12Q314.40-9 316.54-10.74Q318.68-12.48 323.28-12.48L323.28-12.48L328.80-12.48L328.80-12.80Q328.80-15.04 327.46-16.24Q326.12-17.44 323.48-17.44L323.48-17.44Q321.68-17.44 319.94-16.88Q318.20-16.32 317.00-15.32L317.00-15.32L315.04-18.96Q316.72-20.24 319.08-20.92Q321.44-21.60 324.08-21.60L324.08-21.60ZM323.40-3.36Q325.28-3.36 326.74-4.22Q328.20-5.08 328.80-6.68L328.80-6.68L328.80-9.16L323.64-9.16Q319.32-9.16 319.32-6.32L319.32-6.32Q319.32-4.96 320.40-4.16Q321.48-3.36 323.40-3.36L323.40-3.36Z M368.36-21.60Q372.40-21.60 374.76-19.26Q377.12-16.92 377.12-12.24L377.12-12.24L377.12 0L372.12 0L372.12-11.60Q372.12-14.40 370.88-15.82Q369.64-17.24 367.32-17.24L367.32-17.24Q364.80-17.24 363.28-15.58Q361.76-13.92 361.76-10.84L361.76-10.84L361.76 0L356.76 0L356.76-11.60Q356.76-14.40 355.52-15.82Q354.28-17.24 351.96-17.24L351.96-17.24Q349.40-17.24 347.90-15.60Q346.40-13.96 346.40-10.84L346.40-10.84L346.40 0L341.40 0L341.40-21.36L346.16-21.36L346.16-18.64Q347.36-20.08 349.16-20.84Q350.96-21.60 353.16-21.60L353.16-21.60Q355.56-21.60 357.42-20.70Q359.28-19.80 360.36-18.04L360.36-18.04Q361.68-19.72 363.76-20.66Q365.84-21.60 368.36-21.60L368.36-21.60Z M384.72 0L384.72-21.36L389.72-21.36L389.72 0L384.72 0ZM387.24-24.88Q385.88-24.88 384.96-25.74Q384.04-26.60 384.04-27.88L384.04-27.88Q384.04-29.16 384.96-30.02Q385.88-30.88 387.24-30.88L387.24-30.88Q388.60-30.88 389.52-30.06Q390.44-29.24 390.44-28L390.44-28Q390.44-26.68 389.54-25.78Q388.64-24.88 387.24-24.88L387.24-24.88Z M409.60-21.60Q413.64-21.60 416.08-19.24Q418.52-16.88 418.52-12.24L418.52-12.24L418.52 0L413.52 0L413.52-11.60Q413.52-14.40 412.20-15.82Q410.88-17.24 408.44-17.24L408.44-17.24Q405.68-17.24 404.08-15.58Q402.48-13.92 402.48-10.80L402.48-10.80L402.48 0L397.48 0L397.48-21.36L402.24-21.36L402.24-18.60Q403.48-20.08 405.36-20.84Q407.24-21.60 409.60-21.60L409.60-21.60Z M442.72-21.36L447.48-21.36L447.48-3.24Q447.48 8.04 435.96 8.04L435.96 8.04Q432.88 8.04 430.12 7.26Q427.36 6.48 425.56 5L425.56 5L427.80 1.24Q429.20 2.40 431.34 3.10Q433.48 3.80 435.68 3.80L435.68 3.80Q439.20 3.80 440.84 2.20Q442.48 0.60 442.48-2.68L442.48-2.68L442.48-3.80Q441.20-2.40 439.36-1.68Q437.52-0.96 435.32-0.96L435.32-0.96Q432.28-0.96 429.82-2.26Q427.36-3.56 425.94-5.92Q424.52-8.28 424.52-11.32L424.52-11.32Q424.52-14.36 425.94-16.70Q427.36-19.04 429.82-20.32Q432.28-21.60 435.32-21.60L435.32-21.60Q437.64-21.60 439.54-20.84Q441.44-20.08 442.72-18.52L442.72-18.52L442.72-21.36ZM436.08-5.20Q438.92-5.20 440.74-6.90Q442.56-8.60 442.56-11.32L442.56-11.32Q442.56-14 440.74-15.68Q438.92-17.36 436.08-17.36L436.08-17.36Q433.20-17.36 431.38-15.68Q429.56-14 429.56-11.32L429.56-11.32Q429.56-8.60 431.38-6.90Q433.20-5.20 436.08-5.20L436.08-5.20Z M475.64-21.60Q480.36-21.60 482.86-19.34Q485.36-17.08 485.36-12.52L485.36-12.52L485.36 0L480.64 0L480.64-2.60Q479.72-1.20 478.02-0.46Q476.32 0.28 473.92 0.28L473.92 0.28Q471.52 0.28 469.72-0.54Q467.92-1.36 466.94-2.82Q465.96-4.28 465.96-6.12L465.96-6.12Q465.96-9 468.10-10.74Q470.24-12.48 474.84-12.48L474.84-12.48L480.36-12.48L480.36-12.80Q480.36-15.04 479.02-16.24Q477.68-17.44 475.04-17.44L475.04-17.44Q473.24-17.44 471.50-16.88Q469.76-16.32 468.56-15.32L468.56-15.32L466.60-18.96Q468.28-20.24 470.64-20.92Q473.00-21.60 475.64-21.60L475.64-21.60ZM474.96-3.36Q476.84-3.36 478.30-4.22Q479.76-5.08 480.36-6.68L480.36-6.68L480.36-9.16L475.20-9.16Q470.88-9.16 470.88-6.32L470.88-6.32Q470.88-4.96 471.96-4.16Q473.04-3.36 474.96-3.36L474.96-3.36Z M505.08-21.60Q509.12-21.60 511.56-19.24Q514.00-16.88 514.00-12.24L514.00-12.24L514.00 0L509.00 0L509.00-11.60Q509.00-14.40 507.68-15.82Q506.36-17.24 503.92-17.24L503.92-17.24Q501.16-17.24 499.56-15.58Q497.96-13.92 497.96-10.80L497.96-10.80L497.96 0L492.96 0L492.96-21.36L497.72-21.36L497.72-18.60Q498.96-20.08 500.84-20.84Q502.72-21.60 505.08-21.60L505.08-21.60Z M537.68-29.68L542.68-29.68L542.68 0L537.88 0L537.88-2.76Q536.64-1.24 534.82-0.48Q533 0.28 530.80 0.28L530.80 0.28Q527.72 0.28 525.26-1.08Q522.80-2.44 521.40-4.94Q520-7.44 520-10.68L520-10.68Q520-13.92 521.40-16.40Q522.80-18.88 525.26-20.24Q527.72-21.60 530.80-21.60L530.80-21.60Q532.92-21.60 534.68-20.88Q536.44-20.16 537.68-18.72L537.68-18.72L537.68-29.68ZM531.40-4Q533.20-4 534.64-4.82Q536.08-5.64 536.92-7.16Q537.76-8.68 537.76-10.68L537.76-10.68Q537.76-12.68 536.92-14.20Q536.08-15.72 534.64-16.54Q533.20-17.36 531.40-17.36L531.40-17.36Q529.60-17.36 528.16-16.54Q526.72-15.72 525.88-14.20Q525.04-12.68 525.04-10.68L525.04-10.68Q525.04-8.68 525.88-7.16Q526.72-5.64 528.16-4.82Q529.60-4 531.40-4L531.40-4Z M572.48 0.28Q569.16 0.28 566.52-1.12Q563.88-2.52 562.40-5.02Q560.92-7.52 560.92-10.68L560.92-10.68Q560.92-13.84 562.40-16.32Q563.88-18.80 566.50-20.20Q569.12-21.60 572.48-21.60L572.48-21.60Q575.64-21.60 578.02-20.32Q580.40-19.04 581.60-16.64L581.60-16.64L577.76-14.40Q576.84-15.88 575.46-16.62Q574.08-17.36 572.44-17.36L572.44-17.36Q569.64-17.36 567.80-15.54Q565.96-13.72 565.96-10.68L565.96-10.68Q565.96-7.64 567.78-5.82Q569.60-4 572.44-4L572.44-4Q574.08-4 575.46-4.74Q576.84-5.48 577.76-6.96L577.76-6.96L581.60-4.72Q580.36-2.32 577.98-1.02Q575.60 0.28 572.48 0.28L572.48 0.28Z M596.40 0.28Q593.16 0.28 590.56-1.12Q587.96-2.52 586.50-5.02Q585.04-7.52 585.04-10.68L585.04-10.68Q585.04-13.84 586.50-16.32Q587.96-18.80 590.56-20.20Q593.16-21.60 596.40-21.60L596.40-21.60Q599.68-21.60 602.28-20.20Q604.88-18.80 606.34-16.32Q607.80-13.84 607.80-10.68L607.80-10.68Q607.80-7.52 606.34-5.02Q604.88-2.52 602.28-1.12Q599.68 0.28 596.40 0.28L596.40 0.28ZM596.40-4Q599.16-4 600.96-5.84Q602.76-7.68 602.76-10.68L602.76-10.68Q602.76-13.68 600.96-15.52Q599.16-17.36 596.40-17.36L596.40-17.36Q593.64-17.36 591.86-15.52Q590.08-13.68 590.08-10.68L590.08-10.68Q590.08-7.68 591.86-5.84Q593.64-4 596.40-4L596.40-4Z M629.72-29.68L634.72-29.68L634.72 0L629.92 0L629.92-2.76Q628.68-1.24 626.86-0.48Q625.04 0.28 622.84 0.28L622.84 0.28Q619.76 0.28 617.30-1.08Q614.84-2.44 613.44-4.94Q612.04-7.44 612.04-10.68L612.04-10.68Q612.04-13.92 613.44-16.40Q614.84-18.88 617.30-20.24Q619.76-21.60 622.84-21.60L622.84-21.60Q624.96-21.60 626.72-20.88Q628.48-20.16 629.72-18.72L629.72-18.72L629.72-29.68ZM623.44-4Q625.24-4 626.68-4.82Q628.12-5.64 628.96-7.16Q629.80-8.68 629.80-10.68L629.80-10.68Q629.80-12.68 628.96-14.20Q628.12-15.72 626.68-16.54Q625.24-17.36 623.44-17.36L623.44-17.36Q621.64-17.36 620.20-16.54Q618.76-15.72 617.92-14.20Q617.08-12.68 617.08-10.68L617.08-10.68Q617.08-8.68 617.92-7.16Q618.76-5.64 620.20-4.82Q621.64-4 623.44-4L623.44-4Z M662.56-10.56Q662.56-10.04 662.48-9.08L662.48-9.08L645.72-9.08Q646.16-6.72 648.02-5.34Q649.88-3.96 652.64-3.96L652.64-3.96Q656.16-3.96 658.44-6.28L658.44-6.28L661.12-3.20Q659.68-1.48 657.48-0.60Q655.28 0.28 652.52 0.28L652.52 0.28Q649.00 0.28 646.32-1.12Q643.64-2.52 642.18-5.02Q640.72-7.52 640.72-10.68L640.72-10.68Q640.72-13.80 642.14-16.30Q643.56-18.80 646.08-20.20Q648.60-21.60 651.76-21.60L651.76-21.60Q654.88-21.60 657.34-20.22Q659.80-18.84 661.18-16.34Q662.56-13.84 662.56-10.56L662.56-10.56ZM651.76-17.60Q649.36-17.60 647.70-16.18Q646.04-14.76 645.68-12.40L645.68-12.40L657.80-12.40Q657.48-14.72 655.84-16.16Q654.20-17.60 651.76-17.60L651.76-17.60Z M669.04 7.76L669.04-29.68L673.64-29.68L673.64 7.76L669.04 7.76Z M715.04-23.64L699.80-23.64L699.80-15.12L713.32-15.12L713.32-10.72L699.80-10.72L699.80 0L694.60 0L694.60-28L715.04-28L715.04-23.64Z M745.20 0L739.60 0L733.88-8.20Q733.52-8.16 732.80-8.16L732.80-8.16L726.48-8.16L726.48 0L721.28 0L721.28-28L732.80-28Q736.44-28 739.14-26.80Q741.84-25.60 743.28-23.36Q744.72-21.12 744.72-18.04L744.72-18.04Q744.72-14.88 743.18-12.60Q741.64-10.32 738.76-9.20L738.76-9.20L745.20 0ZM739.48-18.04Q739.48-20.72 737.72-22.16Q735.96-23.60 732.56-23.60L732.56-23.60L726.48-23.60L726.48-12.44L732.56-12.44Q735.96-12.44 737.72-13.90Q739.48-15.36 739.48-18.04L739.48-18.04Z"/></g>
</svg>
</g><g opacity="1" transform="rotate(0 439.0539 282.5983)">
<svg width="382.7405" height="80" x="439.0539" y="282.5983" version="1.1" preserveAspectRatio="none" viewBox="4.8 -28.48 138.55999999999997 28.96">
  <g transform="matrix(1 0 0 1 0 0)" class="companyName"><path id="id-D6z1nYkh7" d="M8.44 0L8.44-11.68Q9.48-11.40 10.68-11.22Q11.88-11.04 13.32-11.04L13.32-11.04Q15.76-11.04 17.64-11.72Q19.52-12.40 20.78-13.58Q22.04-14.76 22.68-16.30Q23.32-17.84 23.32-19.60L23.32-19.60Q23.32-21.28 22.76-22.82Q22.20-24.36 21.06-25.50Q19.92-26.64 18.20-27.32Q16.48-28 14.16-28L14.16-28L4.80-28L4.80 0L8.44 0ZM8.44-13.32L8.44-26.24L12.64-26.24Q14.32-26.24 15.60-25.64Q16.88-25.04 17.72-24.06Q18.56-23.08 18.98-21.86Q19.40-20.64 19.40-19.44L19.40-19.44Q19.40-18.28 19.02-17.10Q18.64-15.92 17.80-14.96Q16.96-14 15.68-13.40Q14.40-12.80 12.60-12.80L12.60-12.80Q11.36-12.80 10.32-12.90Q9.28-13 8.44-13.32L8.44-13.32Z M32.40-20L29-20L29 0L32.40 0L32.40-20ZM28.52-26.32L28.52-26.32Q28.52-25.44 29.16-24.80Q29.80-24.16 30.68-24.16L30.68-24.16Q31.56-24.16 32.20-24.80Q32.84-25.44 32.84-26.32L32.84-26.32Q32.84-27.20 32.20-27.84Q31.56-28.48 30.68-28.48L30.68-28.48Q29.80-28.48 29.16-27.84Q28.52-27.20 28.52-26.32Z M43.44-10.08L43.44-28L40.04-28L40.04 0L43.44 0L43.44-7.52L45.76-9.88L53.80 0L58.28 0L48.24-12.32L55.88-20L53.28-20L43.44-10.08Z M68.84-20.44L68.84-20.44Q71.76-20.44 73.36-19.62Q74.96-18.80 75.70-17.48Q76.44-16.16 76.56-14.44Q76.68-12.72 76.68-10.92L76.68-10.92L76.68 0L73.44 0L73.44-1.96Q72.28-0.84 70.48-0.18Q68.68 0.48 66.88 0.48L66.88 0.48Q65.16 0.48 63.84-0.12Q62.52-0.72 61.64-1.68Q60.76-2.64 60.32-3.84Q59.88-5.04 59.88-6.28L59.88-6.28Q59.88-7.56 60.36-8.84Q60.84-10.12 61.80-11.14Q62.76-12.16 64.16-12.80Q65.56-13.44 67.36-13.44L67.36-13.44Q69.16-13.44 70.78-12.74Q72.40-12.04 73.44-10.76L73.44-10.76L73.44-12.48Q73.44-15.76 72.46-17.36Q71.48-18.96 68.88-18.96L68.88-18.96Q67.76-18.96 66.92-18.68Q66.08-18.40 65.42-17.90Q64.76-17.40 64.20-16.66Q63.64-15.92 63.08-15L63.08-15L61-17.08Q61.56-17.68 62.18-18.28Q62.80-18.88 63.70-19.36Q64.60-19.84 65.84-20.14Q67.08-20.44 68.84-20.44ZM73.44-4.84L73.44-7.92Q73.24-8.40 72.86-9.04Q72.48-9.68 71.88-10.28Q71.28-10.88 70.44-11.30Q69.60-11.72 68.44-11.72L68.44-11.72Q67.28-11.72 66.32-11.26Q65.36-10.80 64.70-10.06Q64.04-9.32 63.68-8.32Q63.32-7.32 63.32-6.24L63.32-6.24Q63.32-4.96 63.78-4.02Q64.24-3.08 64.96-2.42Q65.68-1.76 66.56-1.44Q67.44-1.12 68.24-1.12L68.24-1.12Q69-1.12 69.78-1.40Q70.56-1.68 71.26-2.18Q71.96-2.68 72.52-3.36Q73.08-4.04 73.44-4.84L73.44-4.84Z M85.20-28L81.08-28L90.76-10.60L90.76 0L94.40 0L94.40-10.96L104.24-28L102.08-28L93.52-13.24L93.36-13.24L85.20-28Z M112.04-20L108.64-20L108.64-7Q108.64-6.28 108.78-5.02Q108.92-3.76 109.60-2.54Q110.28-1.32 111.74-0.42Q113.20 0.48 115.84 0.48L115.84 0.48Q117 0.52 118.38 0.02Q119.76-0.48 121.16-1.88L121.16-1.88L121.80-2.52L121.96-2.52L121.96 0L125.36 0L125.36-20L121.96-20L121.96-7.60Q121.96-6.04 121.52-4.92Q121.08-3.80 120.36-3.06Q119.64-2.32 118.68-1.96Q117.72-1.60 116.68-1.60L116.68-1.60Q115-1.60 114.06-2.26Q113.12-2.92 112.66-3.80Q112.20-4.68 112.12-5.54Q112.04-6.40 112.04-6.80L112.04-6.80L112.04-20Z M133.36-18.40L129.88-18.40L129.88-20L133.36-20L133.36-26.16L136.76-26.16L136.76-20L141.60-20L141.60-18.40L136.76-18.40L136.76-5.12Q136.76-4.64 136.80-4.02Q136.84-3.40 137.04-2.86Q137.24-2.32 137.66-1.96Q138.08-1.60 138.84-1.60L138.84-1.60Q139.80-1.60 140.44-2.32Q141.08-3.04 141.48-3.88L141.48-3.88L143.36-1.96Q141.40 0 138.92 0L138.92 0Q137.88 0 136.88-0.36Q135.88-0.72 135.10-1.46Q134.32-2.20 133.84-3.36Q133.36-4.52 133.36-6.08L133.36-6.08L133.36-18.40Z"/></g>
</svg>
</g><g opacity="1" transform="rotate(0 404.0539 267.5983)">
<svg width="3" height="146" x="404.0539" y="267.5983" version="1.1" preserveAspectRatio="none" viewBox="0 0 3 146">
  <defs><rect x="0" y="0" width="3" height="146" rx="0px" ry="0px" id="id-tBXipXk0b1676915554276"></rect></defs><use class="companyName shapeStroke-str" style="stroke-width:0;" xlink:href="#id-tBXipXk0b1676915554276"></use>
</svg>
</g></svg></svg>