<svg version="1.1" preserveAspectRatio="none" xmlns="http://www.w3.org/2000/svg" width="500" height="500" viewBox="0 0 500 500"><rect width="100%" height="100%" fill="#FFFFFF" fill-opacity="1"/><svg viewBox="222.0977 377.6504 465.8053 135.4" width="333" height="96.79623653917207" x="83.5px" y="201.6019px" xmlns="http://www.w3.org/2000/svg" xmlns:xlink="http://www.w3.org/1999/xlink" preserveAspectRatio="none"><defs></defs><style>.companyName {fill:#F1B9C7;fill-opacity:1;}.icon1 {fill:#607890;fill-opacity:1;}.icon3-str {stroke:#F1F1F1;stroke-opacity:1;}</style><g opacity="1" transform="rotate(0 222.0977 489.6504)">
<svg width="465.8053" height="23.4" x="222.0977" y="489.6504" version="1.1" preserveAspectRatio="none" viewBox="0.5859 -30.6641 860.6055 43.2423">
  <g transform="matrix(1 0 0 1 0 0)" class="icon1"><path id="id-6izo4zJp30" d="M10.51-9.18L10.51-9.18Q10.51-5.92 17.01-5.92L17.01-5.92Q21.41-5.92 28.05-9.24L28.05-9.24L30.04-10.29Q34.57-12.60 35.16-11.29L35.16-11.29Q35.31-10.94 35.31-10.48Q35.31-10.02 34.93-9.54Q34.55-9.06 33.91-8.49Q33.26-7.91 32.40-7.28Q31.54-6.64 30.59-6.02L30.59-6.02L28.67-4.82Q27.70-4.24 26.56-3.67L26.56-3.67L23.71-2.27Q17.01 0.86 11.07 0.86L11.07 0.86Q5.88 0.86 3.09-1.19L3.09-1.19Q0.59-3.01 0.59-5.88L0.59-5.88Q0.59-9.84 4.16-13.87L4.16-13.87Q7.25-17.32 12.62-20.43L12.62-20.43Q17.30-23.14 22.62-24.88L22.62-24.88Q27.64-26.54 30.76-26.54L30.76-26.54Q31.43-26.54 31.88-26.11L31.88-26.11Q32.70-25.35 32.70-24.61L32.70-24.61Q32.70-21.72 30.29-19.94L30.29-19.94Q28.24-18.44 25.51-18.44Q22.77-18.44 21.41-18.98L21.41-18.98Q16.31-17.01 13.13-13.69L13.13-13.69Q11.80-12.30 11.15-11.09Q10.51-9.88 10.51-9.18Z M52.71-12.03L52.71-12.03Q52.71-10.98 54.51-10.98L54.51-10.98Q55.84-10.98 57.99-12.27L57.99-12.27L59.55-13.13Q60.27-13.54 60.81-13.54Q61.35-13.54 61.66-13.20Q61.97-12.87 61.97-12.29Q61.97-11.70 61.58-10.93Q61.19-10.16 60.51-9.31Q59.82-8.46 58.91-7.63Q57.99-6.80 56.93-6.13L56.93-6.13Q54.59-4.67 52.58-4.67L52.58-4.67Q50.45-4.67 49.18-5.39L49.18-5.39Q48.79-5.63 48.42-5.88L48.42-5.88Q46.33-3.50 42.36-1.50L42.36-1.50Q38.14 0.61 35 0.61L35 0.61Q31.70 0.61 29.79-1.99L29.79-1.99Q28.24-4.10 28.24-6.27L28.24-6.27Q28.24-9.39 31.58-12.23L31.58-12.23Q34.04-14.30 36.34-15.37Q38.63-16.45 40.49-17.03L40.49-17.03Q44.41-18.26 47.56-18.26L47.56-18.26Q48.96-18.26 50.07-17.72Q51.17-17.19 51.70-16.64L51.70-16.64Q52.95-15.41 52.95-13.50L52.95-13.50Q52.95-12.93 52.83-12.62Q52.71-12.30 52.71-12.03ZM36.74-8.34L36.74-8.34L36.72-8.28L36.72-8.26Q36.72-7.42 37.09-7.17L37.09-7.17Q37.99-6.62 38.98-6.88Q39.98-7.15 40.88-7.54L40.88-7.54Q43.11-8.50 44.90-9.96L44.90-9.96Q44.59-10.59 44.59-11.25L44.59-11.25Q44.59-12.66 45.82-14.06L45.82-14.06Q44.26-14.06 41.60-12.60L41.60-12.60Q38.67-10.98 37.21-9.26L37.21-9.26Q36.74-8.67 36.74-8.34Z M95.64-10.70L95.64-10.70Q95.64-7.83 97.44-7.83L97.44-7.83Q98.69-7.83 101.76-10.02L101.76-10.02Q104.53-12.07 105.06-12.60L105.06-12.60Q106.27-13.61 107.60-13.61L107.60-13.61Q108.16-13.61 108.56-13.23Q108.96-12.85 108.96-12.09Q108.96-11.33 108.59-10.70Q108.22-10.08 107.65-9.41Q107.07-8.75 106.22-7.93Q105.37-7.11 104.28-6.20Q103.18-5.29 101.88-4.39Q100.59-3.50 99.20-2.77L99.20-2.77Q96.07-1.17 93.55-1.17L93.55-1.17Q90.66-1.17 89.63-3.79L89.63-3.79Q89.02-5.29 89.02-7.40L89.02-7.40L83.34-3.55Q77.50 0.55 76.39 0.80L76.39 0.80Q75.82 0.94 75.24 0.94Q74.67 0.94 74.16 0.83Q73.65 0.72 73.26 0.47L73.26 0.47Q72.36-0.06 72.36-1.09L72.36-1.09Q72.36-1.50 72.91-3.09L72.91-3.09L74.59-7.70Q75.37-9.92 75.37-10.37L75.37-10.37Q75.37-10.53 75.18-10.53Q74.98-10.53 74.45-10.12Q73.93-9.71 73.18-9.06L73.18-9.06L68.54-5L66.09-2.97Q62.34 0.02 59.98 0.02L59.98 0.02Q58.87 0.02 57.73-0.98L57.73-0.98Q56.50-2.03 56.50-3.52Q56.50-5 56.79-6.76Q57.07-8.52 57.60-10.15Q58.13-11.78 58.91-13.21Q59.69-14.65 60.68-15.70L60.68-15.70Q62.83-18.01 65.75-18.01Q68.67-18.01 68.67-16.29L68.67-16.29Q68.67-15.55 67.87-14.02L67.87-14.02Q66.17-10.66 66.17-10.40Q66.17-10.14 66.34-9.99Q66.50-9.84 66.70-9.84L66.70-9.84Q67.11-9.84 67.87-10.51L67.87-10.51Q72.89-14.90 74.19-15.96Q75.49-17.01 76.70-17.81L76.70-17.81Q79.47-19.63 81.11-19.63L81.11-19.63Q82.46-19.63 83.30-19.20L83.30-19.20Q84.77-18.44 84.77-17.48Q84.77-16.52 84.50-15.31Q84.24-14.10 83.93-12.97L83.93-12.97L83.34-10.98Q83.07-10.12 83.07-9.66Q83.07-9.20 83.46-9.20L83.46-9.20Q84.39-9.20 87.19-11.86L87.19-11.86L89.08-13.63Q92.34-16.56 94.02-16.56L94.02-16.56Q94.82-16.56 95.45-15.94L95.45-15.94Q96.54-14.84 96.54-14.02L96.54-14.02Q96.54-13.57 96.23-12.81L96.23-12.81Q95.64-11.39 95.64-10.70Z M142.11-10.70L142.11-10.70Q142.11-7.83 143.91-7.83L143.91-7.83Q145.16-7.83 148.22-10.02L148.22-10.02Q151.00-12.07 151.52-12.60L151.52-12.60Q152.73-13.61 154.06-13.61L154.06-13.61Q154.63-13.61 155.03-13.23Q155.43-12.85 155.43-12.09Q155.43-11.33 155.06-10.70Q154.69-10.08 154.11-9.41Q153.54-8.75 152.69-7.93Q151.84-7.11 150.74-6.20Q149.65-5.29 148.35-4.39Q147.05-3.50 145.66-2.77L145.66-2.77Q142.54-1.17 140.02-1.17L140.02-1.17Q137.13-1.17 136.09-3.79L136.09-3.79Q135.49-5.29 135.49-7.40L135.49-7.40L129.80-3.55Q123.96 0.55 122.85 0.80L122.85 0.80Q122.29 0.94 121.71 0.94Q121.13 0.94 120.63 0.83Q120.12 0.72 119.73 0.47L119.73 0.47Q118.83-0.06 118.83-1.09L118.83-1.09Q118.83-1.50 119.38-3.09L119.38-3.09L121.05-7.70Q121.84-9.92 121.84-10.37L121.84-10.37Q121.84-10.53 121.64-10.53Q121.45-10.53 120.92-10.12Q120.39-9.71 119.65-9.06L119.65-9.06L115-5L112.56-2.97Q108.81 0.02 106.45 0.02L106.45 0.02Q105.33 0.02 104.20-0.98L104.20-0.98Q102.97-2.03 102.97-3.52Q102.97-5 103.25-6.76Q103.54-8.52 104.06-10.15Q104.59-11.78 105.37-13.21Q106.15-14.65 107.15-15.70L107.15-15.70Q109.30-18.01 112.22-18.01Q115.14-18.01 115.14-16.29L115.14-16.29Q115.14-15.55 114.34-14.02L114.34-14.02Q112.64-10.66 112.64-10.40Q112.64-10.14 112.80-9.99Q112.97-9.84 113.16-9.84L113.16-9.84Q113.57-9.84 114.34-10.51L114.34-10.51Q119.36-14.90 120.65-15.96Q121.95-17.01 123.16-17.81L123.16-17.81Q125.94-19.63 127.58-19.63L127.58-19.63Q128.93-19.63 129.77-19.20L129.77-19.20Q131.23-18.44 131.23-17.48Q131.23-16.52 130.97-15.31Q130.70-14.10 130.39-12.97L130.39-12.97L129.80-10.98Q129.53-10.12 129.53-9.66Q129.53-9.20 129.92-9.20L129.92-9.20Q130.86-9.20 133.65-11.86L133.65-11.86L135.55-13.63Q138.81-16.56 140.49-16.56L140.49-16.56Q141.29-16.56 141.91-15.94L141.91-15.94Q143.01-14.84 143.01-14.02L143.01-14.02Q143.01-13.57 142.70-12.81L142.70-12.81Q142.11-11.39 142.11-10.70Z M175.35-9.82L175.35-9.82Q175.35-7.85 177.09-7.85L177.09-7.85Q178.83-7.85 183.11-11.19L183.11-11.19L184.82-12.60Q186.52-14.00 188.07-14.00L188.07-14.00Q188.63-14.00 188.81-13.70Q188.98-13.40 188.98-12.94Q188.98-12.48 188.82-11.98Q188.65-11.48 188.36-10.94L188.36-10.94Q187.71-9.71 187.11-9.02Q186.50-8.34 185.69-7.61Q184.88-6.88 183.77-5.97Q182.66-5.06 181.31-4.11Q179.96-3.16 178.59-2.38L178.59-2.38Q175.51-0.59 173.52-0.59L173.52-0.59Q171.13-0.59 169.79-2.27L169.79-2.27Q168.52-3.83 168.36-6.45L168.36-6.45Q164.84-2.83 160.92-0.88L160.92-0.88Q158.52 0.31 156.86 0.31Q155.20 0.31 153.95-0.09Q152.70-0.49 151.76-1.29L151.76-1.29Q149.73-2.99 149.73-6.02L149.73-6.02Q149.73-10.35 152.83-14.38L152.83-14.38Q153.81-15.63 155.02-16.56L155.02-16.56Q157.64-18.20 160.57-18.20L160.57-18.20Q161.86-18.20 162.40-17.40L162.40-17.40Q162.62-17.09 162.62-16.59Q162.62-16.09 162.33-15.44Q162.05-14.79 161.64-14.07Q161.23-13.36 160.73-12.60Q160.23-11.84 159.82-11.11L159.82-11.11Q158.85-9.39 158.85-8.64Q158.85-7.89 159.28-7.54Q159.71-7.19 160.33-7.19L160.33-7.19Q161.72-7.19 162.70-7.86Q163.67-8.54 164.63-9.41L164.63-9.41L166.46-11.21L168.24-13.05Q170.14-14.98 171.12-15.46Q172.11-15.94 172.56-15.82Q173.01-15.70 173.48-15.40Q173.95-15.10 174.39-14.67L174.39-14.67Q175.45-13.65 175.57-12.83L175.57-12.83Q175.61-12.30 175.48-11.26Q175.35-10.21 175.35-9.82Z M206.46-10.49L206.46-10.49Q206.46-8.71 207.50-8.71L207.50-8.71Q210.04-8.71 214.10-12.15L214.10-12.15L214.63-12.60Q216.21-13.65 217.20-13.65Q218.18-13.65 218.45-13.36Q218.71-13.07 218.71-12.42L218.71-12.42Q218.71-10.98 217.25-9.36L217.25-9.36Q215.06-6.70 211.25-4.32L211.25-4.32Q206.84-1.54 203.34-1.54L203.34-1.54Q200.90-1.54 200.27-4.26L200.27-4.26Q200.10-4.96 200.02-5.61L200.02-5.61Q199.82-7.17 199.61-7.34Q199.39-7.52 198.76-7.31Q198.13-7.11 197.26-6.63Q196.39-6.15 195.33-5.47L195.33-5.47Q189.75-1.76 188.91-1.23L188.91-1.23Q186.89 0.02 186.19 0.02Q185.49 0.02 184.81-0.27Q184.14-0.57 183.63-1.02L183.63-1.02Q182.58-2.01 182.58-3.05L182.58-3.05Q182.58-8.96 185.16-13.40L185.16-13.40Q186.88-16.39 189.38-17.54L189.38-17.54Q190.64-18.14 192.11-18.14L192.11-18.14Q194.79-18.14 194.79-16.39L194.79-16.39Q194.79-15.31 193.52-12.87L193.52-12.87L192.93-11.72Q192.30-10.53 192.32-10.37L192.32-10.37Q192.44-9.79 192.85-9.79L192.85-9.79Q193.30-9.79 194.18-10.45L194.18-10.45L197.77-13.13L199.57-14.38Q202.68-16.41 204.14-16.41L204.14-16.41Q204.92-16.41 205.57-15.78L205.57-15.78Q206.76-14.65 206.76-13.81L206.76-13.81Q206.76-13.54 206.71-13.14Q206.66-12.75 206.60-12.30L206.60-12.30L206.52-11.39Q206.46-10.92 206.46-10.49Z M231.60-22.59Q231.04-22.11 230.37-21.81Q229.71-21.50 228.89-21.50Q228.07-21.50 227.30-21.78Q226.54-22.05 225.98-22.54L225.98-22.54Q224.75-23.59 224.75-25.23L224.75-25.23Q224.75-27.75 228.96-28.98L228.96-28.98Q230.39-29.41 231.31-29.41Q232.23-29.41 232.69-29.21Q233.14-29.00 233.44-28.67L233.44-28.67Q234.02-28.01 234.02-27.31Q234.02-26.62 233.86-26.05Q233.69-25.49 233.38-24.88Q233.07-24.28 232.62-23.67Q232.17-23.07 231.60-22.59ZM226.68-1.08Q225.20-0.31 223.79 0.15Q222.38 0.61 221.03 0.61Q219.67 0.61 218.21-0.05Q216.76-0.70 215.63-1.80L215.63-1.80Q213.11-4.24 213.11-7.23L213.11-7.23Q213.11-9.98 214.75-12.81L214.75-12.81Q216.25-15.37 218.57-17.11L218.57-17.11Q220.90-18.85 222.89-18.85L222.89-18.85Q225.74-18.85 225.94-17.25L225.94-17.25Q226.00-16.76 226.00-16.11Q226.00-15.47 225.69-14.64Q225.39-13.81 224.91-12.98Q224.43-12.15 223.86-11.36Q223.28-10.57 222.75-9.92L222.75-9.92Q221.74-8.69 221.13-8.14L221.13-8.14Q221.13-7.48 222.13-6.78L222.13-6.78Q223.07-6.11 223.72-6.11Q224.38-6.11 225.26-6.43Q226.15-6.74 227.10-7.27Q228.05-7.79 229.03-8.48Q230.02-9.16 230.98-9.88L230.98-9.88L234.55-12.68Q236.68-14.22 238.01-14.22L238.01-14.22Q238.54-14.22 238.82-13.84Q239.10-13.46 239.10-12.95Q239.10-12.44 238.59-11.55Q238.09-10.66 237.20-9.59Q236.31-8.52 235.12-7.34Q233.93-6.17 232.54-5.04Q231.15-3.91 229.66-2.88Q228.16-1.86 226.68-1.08Z M256.15-13.38L256.15-13.38Q258.07-13.38 258.07-12.05L258.07-12.05Q258.07-10.78 256.27-8.77L256.27-8.77L255.31-7.77Q253.57-6.00 251.26-4.28Q248.95-2.56 247.19-1.56L247.19-1.56Q243.11 0.70 239.79 0.70L239.79 0.70Q236.66 0.70 234.69-1.17L234.69-1.17Q232.99-2.79 232.99-4.59Q232.99-6.39 233.34-8.16Q233.69-9.94 234.26-11.64L234.26-11.64Q235.39-15.10 236.74-17.52L236.74-17.52Q237.09-18.18 237.09-18.38L237.09-18.38L234.57-18.38Q233.14-18.38 232.36-19.04Q231.58-19.71 231.58-20.55Q231.58-21.39 231.89-21.78Q232.21-22.17 232.68-22.34L232.68-22.34Q233.34-22.62 234.63-22.62L234.63-22.62L239.41-22.60Q239.57-22.66 240.04-23.44L240.04-23.44L241.23-25.49Q241.99-26.86 242.76-27.50Q243.54-28.14 244.58-28.14Q245.63-28.14 246.34-27.95Q247.05-27.75 247.54-27.46L247.54-27.46Q248.50-26.84 248.50-26.09L248.50-26.09Q248.50-25.78 248.28-25.25L248.28-25.25L247.19-22.60L256.46-22.62Q257.68-22.62 257.68-21.37L257.68-21.37Q257.68-18.40 252.38-18.40L252.38-18.40L245.23-18.38Q245-18.26 244.43-17.25L244.43-17.25L243.55-15.63Q243.22-15.02 243.09-14.71L243.09-14.71L242.66-13.75Q241.35-10.80 241.35-9.49Q241.35-8.18 242.04-7.30Q242.73-6.43 243.89-6.43Q245.04-6.43 246.14-6.88Q247.25-7.32 248.30-7.97L248.30-7.97Q250.21-9.16 251.31-10.18Q252.40-11.19 253.13-11.72L253.13-11.72Q253.13-11.72 254.49-12.68L254.49-12.68Q255.55-13.38 256.15-13.38Z M261.45-8.30L261.45-8.30Q261.45-7.40 262.64-7.40L262.64-7.40Q265.06-7.40 270.88-13.44L270.88-13.44L272.77-15.35Q274.71-17.25 275.33-17.25Q275.96-17.25 276.45-17.03Q276.93-16.82 277.30-16.48L277.30-16.48Q278.07-15.80 278.07-15.03Q278.07-14.26 277.90-13.33Q277.73-12.40 277.38-11.25L277.38-11.25Q276.74-9.10 275.06-5.49L275.06-5.49L274.26-3.77L277.58-6.78L284.38-12.60Q285.41-13.38 286.09-13.38L286.09-13.38Q287.58-13.38 287.58-11.95L287.58-11.95Q287.58-10.49 285.66-8.18L285.66-8.18Q285.08-7.46 284.39-6.84L284.39-6.84L279.79-2.83L270.80 4.77Q269.61 5.80 269.00 6.41L269.00 6.41Q268.28 7.58 267.88 8.15Q267.48 8.73 267.09 9.38Q266.70 10.04 266.33 10.51L266.33 10.51Q265.53 11.52 264.73 11.52L264.73 11.52Q263.89 11.52 263.11 10.84L263.11 10.84Q261.66 9.57 261.66 8.57Q261.66 7.58 262.21 6.26Q262.75 4.94 263.63 3.24L263.63 3.24L267.77-4.39Q264.79-1.70 263.09-0.83Q261.39 0.04 260.22 0.32Q259.06 0.61 257.76 0.61Q256.46 0.61 255.49 0.07Q254.51-0.47 253.87-1.37L253.87-1.37Q252.62-3.14 252.62-6.00L252.62-6.00Q252.62-9.02 254.14-11.97L254.14-11.97Q255.61-14.86 258.01-16.62L258.01-16.62Q260.55-18.50 263.22-18.50Q265.90-18.50 265.90-16.41L265.90-16.41Q265.90-15.10 263.67-12.53Q261.45-9.96 261.45-8.30Z M310.96 3.32L310.96-29.88L314.32-29.88L314.32 3.32L310.96 3.32Z M337.95-8.93L337.95-8.93Q337.95-7.13 341.99-7.13L341.99-7.13Q347.46-7.13 352.48-9.06L352.48-9.06Q354.06-9.67 355.70-10.39L355.70-10.39L357.91-11.68Q361.48-13.71 362.99-13.71L362.99-13.71Q363.63-13.71 364.00-13.52L364.00-13.52Q364.98-13.20 365.57-12.52L365.57-12.52Q366.64-11.27 366.64-10.62Q366.64-9.96 366.31-8.94Q365.98-7.91 365.41-6.71Q364.84-5.51 364.10-4.22Q363.36-2.93 362.52-1.76L362.52-1.76Q360.64 0.92 359.18 2.11L359.18 2.11Q358.63 2.79 357.83 3.63Q357.03 4.47 355.63 5.42Q354.24 6.37 352.72 7.10Q351.21 7.83 349.64 8.37Q348.07 8.91 346.62 9.26L346.62 9.26Q343.85 9.94 342.35 9.94Q340.86 9.94 340.19 9.35Q339.51 8.75 339.51 7.84Q339.51 6.93 340.15 6.04Q340.78 5.14 341.87 4.30Q342.95 3.46 344.38 2.69Q345.82 1.91 347.40 1.23L347.40 1.23Q350.27-0.02 353.79-1.02L353.79-1.02Q355.78-3.75 357.34-6.60L357.34-6.60L356.39-6.05Q355.90-5.80 355.43-5.59L355.43-5.59Q351.89-3.46 346.50-1.80L346.50-1.80Q340.10 0.18 334.30 0.18L334.30 0.18Q331.04 0.18 329.12-1.99L329.12-1.99Q327.38-3.96 327.38-6.99L327.38-6.99Q327.38-10.20 331.70-13.89L331.70-13.89Q335.49-17.13 341.95-20.20L341.95-20.20Q347.81-23.01 354.08-24.80L354.08-24.80Q360.27-26.60 364.08-26.60L364.08-26.60Q366.33-26.60 367.13-25.08L367.13-25.08Q367.44-24.51 367.44-23.47Q367.44-22.42 366.66-21.60Q365.88-20.78 364.63-20.31L364.63-20.31Q362.38-19.45 359.12-19.45Q355.86-19.45 353.22-19.84L353.22-19.84Q349.51-18.63 345.66-16.29L345.66-16.29Q342.44-14.34 340.10-12.07L340.10-12.07Q337.95-10 337.95-8.93Z M404.51-14.67L404.51-14.67Q405.14-14.67 405.14-13.61L405.14-13.61Q405.14-11.80 402.60-8.91L402.60-8.91L401.48-7.77Q396.43-2.71 391.95-1.04L391.95-1.04Q389.18 0 387.97-1.13L387.97-1.13Q386.97-2.09 386.39-4.22L386.39-4.22L385.92-5.92L381.76-3.36L379.36-1.99Q375.06 0.35 372.91 0.35L372.91 0.35Q370.16 0.35 368.32-1.78L368.32-1.78Q366.56-3.79 366.56-6.45L366.56-6.45Q366.56-9.06 368.65-11.11L368.65-11.11Q371.64-14.04 378.09-16.48L378.09-16.48Q384.18-18.77 387.93-18.77L387.93-18.77Q389.20-18.77 389.20-17.52L389.20-17.52Q389.20-16.66 388.87-16.23Q388.54-15.80 387.50-15.35L387.50-15.35L385.04-14.30Q379.57-12.01 377.03-9.55L377.03-9.55Q376.31-8.87 376.31-8.22Q376.31-7.58 377.34-7.58L377.34-7.58Q378.36-7.58 382.07-9.77L382.07-9.77L383.69-10.72Q387.46-12.99 390-12.99L390-12.99Q392.15-12.99 392.85-11.09L392.85-11.09Q393.03-10.59 393.18-10.07Q393.34-9.55 393.50-9.14L393.50-9.14Q393.85-8.18 394.13-8.18Q394.41-8.18 394.94-8.47Q395.47-8.75 396.10-9.19Q396.74-9.63 397.42-10.16L397.42-10.16L399.79-12.05Q402.93-14.67 404.51-14.67Z M437.54-10.70L437.54-10.70Q437.54-7.83 439.34-7.83L439.34-7.83Q440.59-7.83 443.65-10.02L443.65-10.02Q446.43-12.07 446.95-12.60L446.95-12.60Q448.16-13.61 449.49-13.61L449.49-13.61Q450.06-13.61 450.46-13.23Q450.86-12.85 450.86-12.09Q450.86-11.33 450.49-10.70Q450.12-10.08 449.54-9.41Q448.96-8.75 448.12-7.93Q447.27-7.11 446.17-6.20Q445.08-5.29 443.78-4.39Q442.48-3.50 441.09-2.77L441.09-2.77Q437.97-1.17 435.45-1.17L435.45-1.17Q432.56-1.17 431.52-3.79L431.52-3.79Q430.92-5.29 430.92-7.40L430.92-7.40L425.23-3.55Q419.39 0.55 418.28 0.80L418.28 0.80Q417.71 0.94 417.14 0.94Q416.56 0.94 416.05 0.83Q415.55 0.72 415.16 0.47L415.16 0.47Q414.26-0.06 414.26-1.09L414.26-1.09Q414.26-1.50 414.80-3.09L414.80-3.09L416.48-7.70Q417.27-9.92 417.27-10.37L417.27-10.37Q417.27-10.53 417.07-10.53Q416.88-10.53 416.35-10.12Q415.82-9.71 415.08-9.06L415.08-9.06L410.43-5L407.99-2.97Q404.24 0.02 401.88 0.02L401.88 0.02Q400.76 0.02 399.63-0.98L399.63-0.98Q398.40-2.03 398.40-3.52Q398.40-5 398.68-6.76Q398.96-8.52 399.49-10.15Q400.02-11.78 400.80-13.21Q401.58-14.65 402.58-15.70L402.58-15.70Q404.73-18.01 407.65-18.01Q410.57-18.01 410.57-16.29L410.57-16.29Q410.57-15.55 409.77-14.02L409.77-14.02Q408.07-10.66 408.07-10.40Q408.07-10.14 408.23-9.99Q408.40-9.84 408.59-9.84L408.59-9.84Q409.00-9.84 409.77-10.51L409.77-10.51Q414.79-14.90 416.08-15.96Q417.38-17.01 418.59-17.81L418.59-17.81Q421.37-19.63 423.01-19.63L423.01-19.63Q424.36-19.63 425.20-19.20L425.20-19.20Q426.66-18.44 426.66-17.48Q426.66-16.52 426.40-15.31Q426.13-14.10 425.82-12.97L425.82-12.97L425.23-10.98Q424.96-10.12 424.96-9.66Q424.96-9.20 425.35-9.20L425.35-9.20Q426.29-9.20 429.08-11.86L429.08-11.86L430.98-13.63Q434.24-16.56 435.92-16.56L435.92-16.56Q436.72-16.56 437.34-15.94L437.34-15.94Q438.44-14.84 438.44-14.02L438.44-14.02Q438.44-13.57 438.13-12.81L438.13-12.81Q437.54-11.39 437.54-10.70Z M463.91-22.59Q463.34-22.11 462.68-21.81Q462.01-21.50 461.19-21.50Q460.37-21.50 459.61-21.78Q458.85-22.05 458.28-22.54L458.28-22.54Q457.05-23.59 457.05-25.23L457.05-25.23Q457.05-27.75 461.27-28.98L461.27-28.98Q462.70-29.41 463.61-29.41Q464.53-29.41 464.99-29.21Q465.45-29.00 465.74-28.67L465.74-28.67Q466.33-28.01 466.33-27.31Q466.33-26.62 466.16-26.05Q466.00-25.49 465.68-24.88Q465.37-24.28 464.92-23.67Q464.47-23.07 463.91-22.59ZM458.98-1.08Q457.50-0.31 456.09 0.15Q454.69 0.61 453.33 0.61Q451.97 0.61 450.52-0.05Q449.06-0.70 447.93-1.80L447.93-1.80Q445.41-4.24 445.41-7.23L445.41-7.23Q445.41-9.98 447.05-12.81L447.05-12.81Q448.55-15.37 450.88-17.11L450.88-17.11Q453.20-18.85 455.20-18.85L455.20-18.85Q458.05-18.85 458.24-17.25L458.24-17.25Q458.30-16.76 458.30-16.11Q458.30-15.47 458.00-14.64Q457.70-13.81 457.22-12.98Q456.74-12.15 456.16-11.36Q455.59-10.57 455.06-9.92L455.06-9.92Q454.04-8.69 453.44-8.14L453.44-8.14Q453.44-7.48 454.43-6.78L454.43-6.78Q455.37-6.11 456.03-6.11Q456.68-6.11 457.57-6.43Q458.46-6.74 459.40-7.27Q460.35-7.79 461.34-8.48Q462.32-9.16 463.28-9.88L463.28-9.88L466.86-12.68Q468.98-14.22 470.31-14.22L470.31-14.22Q470.84-14.22 471.12-13.84Q471.41-13.46 471.41-12.95Q471.41-12.44 470.90-11.55Q470.39-10.66 469.50-9.59Q468.61-8.52 467.42-7.34Q466.23-6.17 464.84-5.04Q463.46-3.91 461.96-2.88Q460.47-1.86 458.98-1.08Z M488.61-10.49L488.61-10.49Q488.61-8.71 489.65-8.71L489.65-8.71Q492.19-8.71 496.25-12.15L496.25-12.15L496.78-12.60Q498.36-13.65 499.35-13.65Q500.33-13.65 500.60-13.36Q500.86-13.07 500.86-12.42L500.86-12.42Q500.86-10.98 499.39-9.36L499.39-9.36Q497.21-6.70 493.40-4.32L493.40-4.32Q488.98-1.54 485.49-1.54L485.49-1.54Q483.05-1.54 482.42-4.26L482.42-4.26Q482.25-4.96 482.17-5.61L482.17-5.61Q481.97-7.17 481.76-7.34Q481.54-7.52 480.91-7.31Q480.27-7.11 479.40-6.63Q478.54-6.15 477.48-5.47L477.48-5.47Q471.89-1.76 471.05-1.23L471.05-1.23Q469.04 0.02 468.34 0.02Q467.64 0.02 466.96-0.27Q466.29-0.57 465.78-1.02L465.78-1.02Q464.73-2.01 464.73-3.05L464.73-3.05Q464.73-8.96 467.30-13.40L467.30-13.40Q469.02-16.39 471.52-17.54L471.52-17.54Q472.79-18.14 474.26-18.14L474.26-18.14Q476.93-18.14 476.93-16.39L476.93-16.39Q476.93-15.31 475.66-12.87L475.66-12.87L475.08-11.72Q474.45-10.53 474.47-10.37L474.47-10.37Q474.59-9.79 475-9.79L475-9.79Q475.45-9.79 476.33-10.45L476.33-10.45L479.92-13.13L481.72-14.38Q484.82-16.41 486.29-16.41L486.29-16.41Q487.07-16.41 487.71-15.78L487.71-15.78Q488.91-14.65 488.91-13.81L488.91-13.81Q488.91-13.54 488.86-13.14Q488.81-12.75 488.75-12.30L488.75-12.30L488.67-11.39Q488.61-10.92 488.61-10.49Z M507.98-13.01Q506.66-12.30 505.47-11.46Q504.28-10.63 503.36-9.75Q502.44-8.87 502.44-8.22Q502.44-7.58 503.48-7.58L503.48-7.58Q504.20-7.58 505.59-8.28L505.59-8.28L509.82-10.53Q511.00-11.13 511.91-11.95L511.91-11.95L513.30-13.16Q514.79-14.51 516.41-14.51L516.41-14.51Q517.25-14.51 518.09-13.57L518.09-13.57Q518.93-12.64 518.93-11.66L518.93-11.66Q518.93-9.41 517.09-5.02L517.09-5.02L520.21-7.58L526.66-12.60Q527.70-13.38 528.38-13.38L528.38-13.38Q529.86-13.38 529.86-11.95L529.86-11.95Q529.86-10.49 527.95-8.18L527.95-8.18Q527.05-7.09 525.45-5.82L525.45-5.82L514.63 2.38Q513.55 3.24 512.93 3.81L512.93 3.81Q510.35 7.97 507.97 9.84L507.97 9.84Q504.51 12.58 501.56 12.58L501.56 12.58Q500.23 12.58 499.39 11.84L499.39 11.84Q498.63 11.19 498.63 10.33L498.63 10.33Q498.63 9.53 499.06 8.60Q499.49 7.68 500.21 6.74Q500.94 5.80 501.86 4.88Q502.77 3.96 503.81 3.11L503.81 3.11Q506.54 0.94 507.70 0.12L507.70 0.12L509.61-1.27Q510.74-3.67 511.56-6.46L511.56-6.46Q507.79-3.14 503.54-1.25L503.54-1.25Q501.41-0.29 500-0.29Q498.59-0.29 497.42-0.88Q496.25-1.46 495.41-2.42L495.41-2.42Q493.67-4.43 493.67-7.09L493.67-7.09Q493.67-9.86 495.76-11.76L495.76-11.76Q498.91-14.61 504.67-16.72L504.67-16.72Q510.21-18.77 514.06-18.77L514.06-18.77Q515.33-18.77 515.33-17.52L515.33-17.52Q515.33-16.66 515.01-16.20Q514.69-15.74 513.47-15.31Q512.25-14.88 510.77-14.30Q509.30-13.71 507.98-13.01Z M577.21-14.67L577.21-14.67Q577.83-14.67 577.83-13.61L577.83-13.61Q577.83-11.80 575.29-8.91L575.29-8.91L574.18-7.77Q569.12-2.71 564.65-1.04L564.65-1.04Q561.88 0 560.66-1.13L560.66-1.13Q559.67-2.09 559.08-4.22L559.08-4.22L558.61-5.92L554.45-3.36L552.05-1.99Q547.75 0.35 545.61 0.35L545.61 0.35Q542.85 0.35 541.02-1.78L541.02-1.78Q539.26-3.79 539.26-6.45L539.26-6.45Q539.26-9.06 541.35-11.11L541.35-11.11Q544.34-14.04 550.78-16.48L550.78-16.48Q556.88-18.77 560.63-18.77L560.63-18.77Q561.89-18.77 561.89-17.52L561.89-17.52Q561.89-16.66 561.56-16.23Q561.23-15.80 560.20-15.35L560.20-15.35L557.73-14.30Q552.27-12.01 549.73-9.55L549.73-9.55Q549.00-8.87 549.00-8.22Q549.00-7.58 550.04-7.58L550.04-7.58Q551.05-7.58 554.77-9.77L554.77-9.77L556.39-10.72Q560.16-12.99 562.70-12.99L562.70-12.99Q564.84-12.99 565.55-11.09L565.55-11.09Q565.72-10.59 565.88-10.07Q566.04-9.55 566.19-9.14L566.19-9.14Q566.54-8.18 566.83-8.18Q567.11-8.18 567.64-8.47Q568.16-8.75 568.80-9.19Q569.43-9.63 570.12-10.16L570.12-10.16L572.48-12.05Q575.63-14.67 577.21-14.67Z M594.90-10.49L594.90-10.49Q594.90-8.71 595.94-8.71L595.94-8.71Q598.48-8.71 602.54-12.15L602.54-12.15L603.07-12.60Q604.65-13.65 605.63-13.65Q606.62-13.65 606.88-13.36Q607.15-13.07 607.15-12.42L607.15-12.42Q607.15-10.98 605.68-9.36L605.68-9.36Q603.50-6.70 599.69-4.32L599.69-4.32Q595.27-1.54 591.78-1.54L591.78-1.54Q589.34-1.54 588.71-4.26L588.71-4.26Q588.54-4.96 588.46-5.61L588.46-5.61Q588.26-7.17 588.05-7.34Q587.83-7.52 587.20-7.31Q586.56-7.11 585.69-6.63Q584.82-6.15 583.77-5.47L583.77-5.47Q578.18-1.76 577.34-1.23L577.34-1.23Q575.33 0.02 574.63 0.02Q573.93 0.02 573.25-0.27Q572.58-0.57 572.07-1.02L572.07-1.02Q571.02-2.01 571.02-3.05L571.02-3.05Q571.02-8.96 573.59-13.40L573.59-13.40Q575.31-16.39 577.81-17.54L577.81-17.54Q579.08-18.14 580.55-18.14L580.55-18.14Q583.22-18.14 583.22-16.39L583.22-16.39Q583.22-15.31 581.95-12.87L581.95-12.87L581.37-11.72Q580.74-10.53 580.76-10.37L580.76-10.37Q580.88-9.79 581.29-9.79L581.29-9.79Q581.74-9.79 582.62-10.45L582.62-10.45L586.21-13.13L588.01-14.38Q591.11-16.41 592.58-16.41L592.58-16.41Q593.36-16.41 594.00-15.78L594.00-15.78Q595.20-14.65 595.20-13.81L595.20-13.81Q595.20-13.54 595.15-13.14Q595.10-12.75 595.04-12.30L595.04-12.30L594.96-11.39Q594.90-10.92 594.90-10.49Z M636.37-14.43L636.37-14.43Q637.25-14.43 637.25-13.54L637.25-13.54Q637.25-12.11 635.37-9.51L635.37-9.51Q634.06-7.70 629.98-4.47L629.98-4.47Q625.12-0.66 622.17-0.66L622.17-0.66Q619.94-0.66 618.81-2.54L618.81-2.54Q618.13-3.67 617.70-5.86L617.70-5.86L615.96-4.61Q608.79 0.35 605.25 0.35L605.25 0.35Q602.30 0.35 600.53-1.80L600.53-1.80Q598.96-3.73 598.96-6.43L598.96-6.43Q598.96-9.39 601.00-11.11L601.00-11.11Q605.14-14.59 611.29-16.84L611.29-16.84Q613.79-17.75 614.45-17.75Q615.12-17.75 615.67-17.53Q616.23-17.30 616.78-16.95L616.78-16.95Q618.07-16.07 618.07-15.25L618.07-15.25Q618.07-14.59 617.25-14.18L617.25-14.18Q616.99-14.04 616.39-13.81Q615.78-13.57 614.90-13.16L614.90-13.16Q612.54-12.05 610.29-10.47L610.29-10.47Q608.69-9.10 608.69-8.29Q608.69-7.48 609.82-7.48L609.82-7.48Q610.76-7.48 613.57-9.14L613.57-9.14Q613.57-9.14 615.23-10.16L615.23-10.16Q617.01-11.27 618.09-12.19L618.09-12.19Q618.09-12.19 618.98-15.12L618.98-15.12Q620.64-20.35 622.68-23.77L622.68-23.77Q626.27-30.66 629.90-30.66L629.90-30.66Q631.23-30.66 632.01-30.18L632.01-30.18Q633.42-29.30 633.42-28.23Q633.42-27.17 633.03-25.98Q632.64-24.79 632.00-23.61Q631.37-22.44 630.55-21.29L630.55-21.29L627.21-16.88Q626.37-15.80 625.72-14.79L625.72-14.79Q624.59-12.34 624.59-10.61L624.59-10.61Q624.59-8.11 626.41-8.11L626.41-8.11Q627.44-8.11 630.14-10.27L630.14-10.27L632.44-12.23Q634.06-13.67 635.64-14.26L635.64-14.26Q636.09-14.43 636.37-14.43Z M660.08-9.18L660.08-9.18Q660.08-5.92 666.58-5.92L666.58-5.92Q670.98-5.92 677.62-9.24L677.62-9.24L679.61-10.29Q684.14-12.60 684.73-11.29L684.73-11.29Q684.88-10.94 684.88-10.48Q684.88-10.02 684.50-9.54Q684.12-9.06 683.48-8.49Q682.83-7.91 681.97-7.28Q681.11-6.64 680.16-6.02L680.16-6.02L678.24-4.82Q677.27-4.24 676.13-3.67L676.13-3.67L673.28-2.27Q666.58 0.86 660.64 0.86L660.64 0.86Q655.45 0.86 652.66-1.19L652.66-1.19Q650.16-3.01 650.16-5.88L650.16-5.88Q650.16-9.84 653.73-13.87L653.73-13.87Q656.82-17.32 662.19-20.43L662.19-20.43Q666.88-23.14 672.19-24.88L672.19-24.88Q677.21-26.54 680.33-26.54L680.33-26.54Q681.00-26.54 681.45-26.11L681.45-26.11Q682.27-25.35 682.27-24.61L682.27-24.61Q682.27-21.72 679.86-19.94L679.86-19.94Q677.81-18.44 675.08-18.44Q672.34-18.44 670.98-18.98L670.98-18.98Q665.88-17.01 662.70-13.69L662.70-13.69Q661.37-12.30 660.72-11.09Q660.08-9.88 660.08-9.18Z M702.29-12.03L702.29-12.03Q702.29-10.98 704.08-10.98L704.08-10.98Q705.41-10.98 707.56-12.27L707.56-12.27L709.12-13.13Q709.84-13.54 710.38-13.54Q710.92-13.54 711.23-13.20Q711.54-12.87 711.54-12.29Q711.54-11.70 711.15-10.93Q710.76-10.16 710.08-9.31Q709.39-8.46 708.48-7.63Q707.56-6.80 706.50-6.13L706.50-6.13Q704.16-4.67 702.15-4.67L702.15-4.67Q700.02-4.67 698.75-5.39L698.75-5.39Q698.36-5.63 697.99-5.88L697.99-5.88Q695.90-3.50 691.93-1.50L691.93-1.50Q687.71 0.61 684.57 0.61L684.57 0.61Q681.27 0.61 679.36-1.99L679.36-1.99Q677.81-4.10 677.81-6.27L677.81-6.27Q677.81-9.39 681.15-12.23L681.15-12.23Q683.61-14.30 685.91-15.37Q688.20-16.45 690.06-17.03L690.06-17.03Q693.98-18.26 697.13-18.26L697.13-18.26Q698.54-18.26 699.64-17.72Q700.74-17.19 701.27-16.64L701.27-16.64Q702.52-15.41 702.52-13.50L702.52-13.50Q702.52-12.93 702.40-12.62Q702.29-12.30 702.29-12.03ZM686.31-8.34L686.31-8.34L686.29-8.28L686.29-8.26Q686.29-7.42 686.66-7.17L686.66-7.17Q687.56-6.62 688.55-6.88Q689.55-7.15 690.45-7.54L690.45-7.54Q692.68-8.50 694.47-9.96L694.47-9.96Q694.16-10.59 694.16-11.25L694.16-11.25Q694.16-12.66 695.39-14.06L695.39-14.06Q693.83-14.06 691.17-12.60L691.17-12.60Q688.24-10.98 686.78-9.26L686.78-9.26Q686.31-8.67 686.31-8.34Z M741.45-14.43L741.45-14.43Q742.32-14.43 742.32-13.54L742.32-13.54Q742.32-12.11 740.45-9.51L740.45-9.51Q739.14-7.70 735.06-4.47L735.06-4.47Q730.20-0.66 727.25-0.66L727.25-0.66Q725.02-0.66 723.89-2.54L723.89-2.54Q723.20-3.67 722.77-5.86L722.77-5.86L721.04-4.61Q713.87 0.35 710.33 0.35L710.33 0.35Q707.38 0.35 705.61-1.80L705.61-1.80Q704.04-3.73 704.04-6.43L704.04-6.43Q704.04-9.39 706.07-11.11L706.07-11.11Q710.21-14.59 716.37-16.84L716.37-16.84Q718.87-17.75 719.53-17.75Q720.20-17.75 720.75-17.53Q721.31-17.30 721.86-16.95L721.86-16.95Q723.14-16.07 723.14-15.25L723.14-15.25Q723.14-14.59 722.32-14.18L722.32-14.18Q722.07-14.04 721.46-13.81Q720.86-13.57 719.98-13.16L719.98-13.16Q717.62-12.05 715.37-10.47L715.37-10.47Q713.77-9.10 713.77-8.29Q713.77-7.48 714.90-7.48L714.90-7.48Q715.84-7.48 718.65-9.14L718.65-9.14Q718.65-9.14 720.31-10.16L720.31-10.16Q722.09-11.27 723.16-12.19L723.16-12.19Q723.16-12.19 724.06-15.12L724.06-15.12Q725.72-20.35 727.75-23.77L727.75-23.77Q731.35-30.66 734.98-30.66L734.98-30.66Q736.31-30.66 737.09-30.18L737.09-30.18Q738.50-29.30 738.50-28.23Q738.50-27.17 738.11-25.98Q737.71-24.79 737.08-23.61Q736.45-22.44 735.63-21.29L735.63-21.29L732.29-16.88Q731.45-15.80 730.80-14.79L730.80-14.79Q729.67-12.34 729.67-10.61L729.67-10.61Q729.67-8.11 731.48-8.11L731.48-8.11Q732.52-8.11 735.21-10.27L735.21-10.27L737.52-12.23Q739.14-13.67 740.72-14.26L740.72-14.26Q741.17-14.43 741.45-14.43Z M765.04-14.36L765.04-14.36Q765.98-14.36 765.98-13.30L765.98-13.30Q765.98-12.60 765.50-11.53Q765.02-10.47 764.12-9.54Q763.22-8.61 762.06-7.62Q760.90-6.62 759.35-5.53Q757.79-4.43 755.92-3.36Q754.04-2.29 751.93-1.43L751.93-1.43Q747.27 0.49 742.89 0.49L742.89 0.49Q739.55 0.49 737.05-1.25L737.05-1.25Q734.43-3.07 734.43-5.66L734.43-5.66Q734.43-9.75 738.83-13.42L738.83-13.42Q742.62-16.58 747.75-18.32L747.75-18.32Q750.88-19.38 753.05-19.38L753.05-19.38Q754.80-19.38 756.02-18.52L756.02-18.52Q757.30-17.58 757.30-16.00L757.30-16.00Q757.30-13.52 753.38-10.51L753.38-10.51Q752.75-10.02 752.25-9.69L752.25-9.69L751.54-9.22Q749.59-7.85 745.61-6.15L745.61-6.15Q746.84-5.51 747.90-5.51Q748.96-5.51 749.81-5.76Q750.66-6.02 751.74-6.48Q752.81-6.95 754.03-7.61Q755.25-8.26 756.50-9.04L756.50-9.04Q759.30-10.78 761.35-12.60L761.35-12.60Q762.42-13.59 764.08-14.18L764.08-14.18Q764.63-14.36 765.04-14.36ZM743.50-8.87L743.50-8.87L744.57-9.41Q745.10-9.69 745.51-9.92L745.51-9.92Q749.45-12.19 750-12.71Q750.55-13.24 750.55-13.45Q750.55-13.65 750.43-13.93Q750.31-14.20 750.12-14.41L750.12-14.41Q749.65-14.96 749.12-14.96Q748.59-14.96 747.96-14.77Q747.32-14.57 746.68-14.23Q746.04-13.89 745.44-13.41Q744.84-12.93 744.39-12.38L744.39-12.38Q743.36-11.15 743.36-10.25Q743.36-9.36 743.50-8.87Z M771.23 3.32L771.23-29.88L774.59-29.88L774.59 3.32L771.23 3.32Z M837.34-27.34L837.34-27.34Q838.65-27.34 838.65-26.45L838.65-26.45Q838.65-25.25 836.84-22.81L836.84-22.81Q835.37-20.86 832.64-20.20L832.64-20.20Q831.82-19.98 831.14-19.98Q830.47-19.98 829.69-20.08L829.69-20.08Q827.68-20.33 824.65-20.41L824.65-20.41Q822.27-16.19 821.13-13.96L821.13-13.96L824.16-14.04Q825.08-14.00 826.41-14.14L826.41-14.14L828.36-14.32Q828.95-14.38 829.14-14.39L829.14-14.39Q829.94-14.47 830.14-14.18L830.14-14.18Q830.51-13.65 830.51-12.95Q830.51-12.25 830.41-11.75Q830.31-11.25 830.14-10.80L830.14-10.80Q829.75-9.80 829.26-9.41L829.26-9.41Q828.20-8.57 825.74-8.57L825.74-8.57Q825.27-8.57 824.84-8.61L824.84-8.61L818.89-9.08Q817.38-5.51 816.52-2.11L816.52-2.11Q815.86 0.47 811.50 0.47L811.50 0.47Q807.91 0.47 806.91-1.21L806.91-1.21Q806.58-1.78 806.66-2.29Q806.74-2.79 807.04-3.43Q807.34-4.06 807.85-5L807.85-5L810.63-9.75Q810.55-9.75 810.11-9.79Q809.67-9.82 809.45-9.88L809.45-9.88Q808.93-10.06 808.59-10.53Q808.26-11.00 808.26-11.50L808.26-11.50Q808.26-12.50 808.85-13.01Q809.43-13.52 810.07-13.59Q810.70-13.67 811.45-13.69L811.45-13.69L813.09-13.73Q816.09-18.40 817.44-20.33L817.44-20.33Q812.60-19.98 809.02-18.05L809.02-18.05Q808.03-17.50 807.41-16.97Q806.80-16.45 806.37-16.45Q805.94-16.45 805.63-16.57Q805.33-16.70 805.08-16.91L805.08-16.91Q804.53-17.40 804.53-17.98Q804.53-18.55 804.84-19.04L804.84-19.04Q808.57-24.80 813.16-26.09L813.16-26.09Q814.79-26.54 816.72-26.54L816.72-26.54Q824.77-26.54 829.50-26.74Q834.24-26.93 834.67-26.99L834.67-26.99L836.48-27.27Q836.93-27.34 837.34-27.34Z M833.32-6.45L833.32-6.45Q832.95-6.45 832.59-6.62Q832.23-6.80 831.91-7.19L831.91-7.19Q831.23-8.05 831.23-9.53L831.23-9.53Q831.23-11.11 833.13-13.48L833.13-13.48Q834.96-15.76 837.40-17.42L837.40-17.42Q840.02-19.22 841.89-19.22L841.89-19.22Q843.55-19.22 844.14-18.28L844.14-18.28L844.41-17.85Q844.73-17.36 845.04-17.36Q845.35-17.36 846.02-17.42L846.02-17.42L848.79-17.62Q849.43-17.68 849.80-17.68Q850.18-17.68 850.65-17.41Q851.13-17.15 851.50-16.72L851.50-16.72Q852.32-15.74 852.32-14.57L852.32-14.57Q852.32-13.36 849.65-10.76L849.65-10.76L848.36-9.47Q846.97-8.05 846.97-7.68Q846.97-7.30 847.32-7.02Q847.68-6.74 848.09-6.74Q848.50-6.74 849.01-6.96Q849.53-7.19 850.29-7.63Q851.05-8.07 852.03-8.69L852.03-8.69Q854.71-10.45 855.61-11.11L855.61-11.11L857.23-12.27Q858.89-13.44 859.59-13.44Q860.29-13.44 860.74-13.13Q861.19-12.83 861.19-12.09Q861.19-11.35 860.43-10.10Q859.67-8.85 858.78-7.93Q857.89-7.01 857.05-6.23Q856.21-5.45 855.07-4.54Q853.93-3.63 852.54-2.71Q851.15-1.78 849.61-1.04L849.61-1.04Q846.11 0.66 843.18 0.66L843.18 0.66Q838.91 0.66 837.97-1.54L837.97-1.54Q837.68-2.21 837.68-3.03Q837.68-3.85 837.99-4.79Q838.30-5.74 838.81-6.68L838.81-6.68Q839.82-8.54 841.21-9.96L841.21-9.96Q842.38-11.19 842.38-11.43L842.38-11.43Q842.38-11.80 841.96-11.89Q841.54-11.99 840.72-11.99L840.72-11.99Q840.37-11.99 839.22-10.98L839.22-10.98L837.30-9.22Q834.26-6.45 833.32-6.45Z"/></g>
</svg>
</g><g opacity="1" transform="rotate(0 257.2218 377.6504)">
<svg width="395.5571" height="90" x="257.2218" y="377.6504" version="1.1" preserveAspectRatio="none" viewBox="3.8 -31.56 142.39999999999998 32.4">
  <g transform="matrix(1 0 0 1 0 0)" class="companyName"><path id="id-D6z1nYkh7" d="M12.72-29.44Q18.12-29.44 21.08-26.78Q24.04-24.12 24.04-19.52L24.04-19.52Q24.04-16.88 23.02-14.58Q22-12.28 19.70-10.80Q17.40-9.32 13.76-9.32L13.76-9.32L9.60-9.32L9.60 0L3.80 0L3.80-29.44L12.72-29.44ZM13.72-14.96Q15.36-14.96 16.36-15.70Q17.36-16.44 17.80-17.44Q18.24-18.44 18.24-19.36L18.24-19.36Q18.24-20.92 17.32-22.38Q16.40-23.84 13.76-23.84L13.76-23.84L9.60-23.84L9.60-14.96L13.72-14.96Z M28.32-17.48L33.92-17.48L33.92 0L28.32 0L28.32-17.48ZM28.20-23.68Q28.20-24.88 29.14-25.70Q30.08-26.52 31.28-26.52L31.28-26.52Q32.44-26.52 33.36-25.70Q34.28-24.88 34.28-23.68L34.28-23.68Q34.28-22.48 33.36-21.68Q32.44-20.88 31.28-20.88L31.28-20.88Q30.08-20.88 29.14-21.68Q28.20-22.48 28.20-23.68L28.20-23.68Z M51.12 0L46.84-7.28L45.28-6.12L45.28 0L39.68 0L39.68-31.56L45.28-31.56L45.28-11.80L53.60-17.92L57-14.92L50.80-10.24L57.64 0L51.12 0Z M74.72-17.48L79.92-17.48L79.92 0L74.32 0L74.32-2.16Q71.80 0.48 68.48 0.48L68.48 0.48Q64.60 0.48 62.18-1.84Q59.76-4.16 59.76-8.72L59.76-8.72Q59.76-11.60 60.94-13.78Q62.12-15.96 64.08-17.16Q66.04-18.36 68.28-18.36L68.28-18.36Q70.60-18.36 71.96-17.66Q73.32-16.96 74.36-15.68L74.36-15.68L74.72-17.48ZM70.08-4.08Q73-4.08 74.32-6.72L74.32-6.72L74.32-11Q73.84-12.28 72.66-13.04Q71.48-13.80 69.88-13.80L69.88-13.80Q68.04-13.80 66.74-12.44Q65.44-11.08 65.44-9L65.44-9Q65.44-7.64 66.08-6.50Q66.72-5.36 67.78-4.72Q68.84-4.08 70.08-4.08L70.08-4.08Z M103.92-29.44L111.08-29.44L100.04-9.16L100.04 0L94.24 0L94.24-9.16L83.40-29.44L90.56-29.44L97.32-15.84L103.92-29.44Z M123.36-17.48L128.96-17.48L128.96 0L123.88 0L123.48-2.80Q122.56-1.12 120.90-0.14Q119.24 0.84 117 0.84L117 0.84Q114.60 0.84 113-0.64Q111.40-2.12 111.36-4.40L111.36-4.40L111.36-17.48L116.96-17.48L116.96-6.48Q117.08-3.92 119.32-3.92L119.32-3.92Q121.16-3.92 122.26-5.72Q123.36-7.52 123.36-10.36L123.36-10.36L123.36-17.48Z M136.36-25.16L141.96-25.16L141.96-17.56L146.20-17.56L146.20-13.20L141.96-13.20L141.96 0L136.36 0L136.36-13.20L133.64-13.20L133.64-17.56L136.36-17.56L136.36-25.16Z"/></g>
</svg>
</g></svg></svg>