<svg version="1.1" preserveAspectRatio="none" xmlns="http://www.w3.org/2000/svg" width="500" height="500" viewBox="0 0 500 500"><rect width="100%" height="100%" fill="#141414" fill-opacity="1"/><svg viewBox="110.6136 328.6118 391.5892 103" width="333" height="87.58923892691627" x="83.5px" y="206.2054px" xmlns="http://www.w3.org/2000/svg" xmlns:xlink="http://www.w3.org/1999/xlink" preserveAspectRatio="none"><defs></defs><style>.background {fill:#141414;fill-opacity:1;}.companyName {fill:#E9E41D;fill-opacity:1;}.icon3-str {stroke:#E9E41D;stroke-opacity:1;}.shapeStroke-str {stroke:#E5E5E5;stroke-opacity:1;}.text {fill:#E5E5E5;fill-opacity:1;}</style><g opacity="1" transform="rotate(0 110.6136 328.6118)">
<svg width="391.5892" height="64" x="110.6136" y="328.6118" version="1.1" preserveAspectRatio="none" viewBox="0 0 391.5892 64">
  <defs><rect x="0" y="0" width="391.5892" height="64" rx="0%" ry="0%" id="id-UPl23ini1676915579402"></rect></defs><use class="companyName shapeStroke-str" style="stroke-width:0;" xlink:href="#id-UPl23ini1676915579402"></use>
</svg>
</g><g opacity="1" transform="rotate(0 112.68 410.6118)">
<svg width="387.4564" height="21" x="112.68" y="410.6118" version="1.1" preserveAspectRatio="none" viewBox="2.08 -29.68 694.48 37.64">
  <g transform="matrix(1 0 0 1 0 0)" class="text"><path id="id-6izo4zJp30" d="M16.72 0.24Q12.56 0.24 9.22-1.60Q5.88-3.44 3.98-6.70Q2.08-9.96 2.08-14L2.08-14Q2.08-18.04 3.98-21.30Q5.88-24.56 9.24-26.40Q12.60-28.24 16.76-28.24L16.76-28.24Q19.88-28.24 22.52-27.20Q25.16-26.16 27-24.16L27-24.16L25.12-22.28Q21.84-25.60 16.84-25.60L16.84-25.60Q13.52-25.60 10.80-24.08Q8.08-22.56 6.54-19.92Q5-17.28 5-14L5-14Q5-10.72 6.54-8.08Q8.08-5.44 10.80-3.92Q13.52-2.40 16.84-2.40L16.84-2.40Q21.88-2.40 25.12-5.76L25.12-5.76L27-3.88Q25.16-1.88 22.50-0.82Q19.84 0.24 16.72 0.24L16.72 0.24Z M40.40 0.20Q37.36 0.20 34.92-1.18Q32.48-2.56 31.08-5Q29.68-7.44 29.68-10.52L29.68-10.52Q29.68-13.60 31.08-16.04Q32.48-18.48 34.92-19.84Q37.36-21.20 40.40-21.20L40.40-21.20Q43.44-21.20 45.88-19.84Q48.32-18.48 49.70-16.04Q51.08-13.60 51.08-10.52L51.08-10.52Q51.08-7.44 49.70-5Q48.32-2.56 45.88-1.18Q43.44 0.20 40.40 0.20L40.40 0.20ZM40.40-2.32Q42.64-2.32 44.42-3.34Q46.20-4.36 47.20-6.24Q48.20-8.12 48.20-10.52L48.20-10.52Q48.20-12.92 47.20-14.80Q46.20-16.68 44.42-17.70Q42.64-18.72 40.40-18.72L40.40-18.72Q38.16-18.72 36.38-17.70Q34.60-16.68 33.58-14.80Q32.56-12.92 32.56-10.52L32.56-10.52Q32.56-8.12 33.58-6.24Q34.60-4.36 36.38-3.34Q38.16-2.32 40.40-2.32L40.40-2.32Z M83.12-21.20Q87.08-21.20 89.34-18.92Q91.60-16.64 91.60-12.20L91.60-12.20L91.60 0L88.76 0L88.76-11.92Q88.76-15.20 87.18-16.92Q85.60-18.64 82.72-18.64L82.72-18.64Q79.44-18.64 77.56-16.62Q75.68-14.60 75.68-11.04L75.68-11.04L75.68 0L72.84 0L72.84-11.92Q72.84-15.20 71.26-16.92Q69.68-18.64 66.76-18.64L66.76-18.64Q63.52-18.64 61.62-16.62Q59.72-14.60 59.72-11.04L59.72-11.04L59.72 0L56.88 0L56.88-21.04L59.60-21.04L59.60-17.20Q60.72-19.12 62.72-20.16Q64.72-21.20 67.32-21.20L67.32-21.20Q69.96-21.20 71.90-20.08Q73.84-18.96 74.80-16.76L74.80-16.76Q75.96-18.84 78.14-20.02Q80.32-21.20 83.12-21.20L83.12-21.20Z M125.56-21.20Q129.52-21.20 131.78-18.92Q134.04-16.64 134.04-12.20L134.04-12.20L134.04 0L131.20 0L131.20-11.92Q131.20-15.20 129.62-16.92Q128.04-18.64 125.16-18.64L125.16-18.64Q121.88-18.64 120-16.62Q118.12-14.60 118.12-11.04L118.12-11.04L118.12 0L115.28 0L115.28-11.92Q115.28-15.20 113.70-16.92Q112.12-18.64 109.20-18.64L109.20-18.64Q105.96-18.64 104.06-16.62Q102.16-14.60 102.16-11.04L102.16-11.04L102.16 0L99.32 0L99.32-21.04L102.04-21.04L102.04-17.20Q103.16-19.12 105.16-20.16Q107.16-21.20 109.76-21.20L109.76-21.20Q112.40-21.20 114.34-20.08Q116.28-18.96 117.24-16.76L117.24-16.76Q118.40-18.84 120.58-20.02Q122.76-21.20 125.56-21.20L125.56-21.20Z M157.88-21.04L160.72-21.04L160.72 0L158 0L158-3.84Q156.88-1.92 154.92-0.86Q152.96 0.20 150.44 0.20L150.44 0.20Q146.32 0.20 143.94-2.10Q141.56-4.40 141.56-8.84L141.56-8.84L141.56-21.04L144.40-21.04L144.40-9.12Q144.40-5.80 146.04-4.08Q147.68-2.36 150.72-2.36L150.72-2.36Q154.04-2.36 155.96-4.38Q157.88-6.40 157.88-10L157.88-10L157.88-21.04Z M179.40-21.20Q183.36-21.20 185.70-18.90Q188.04-16.60 188.04-12.20L188.04-12.20L188.04 0L185.20 0L185.20-11.92Q185.20-15.20 183.56-16.92Q181.92-18.64 178.88-18.64L178.88-18.64Q175.48-18.64 173.50-16.62Q171.52-14.60 171.52-11.04L171.52-11.04L171.52 0L168.68 0L168.68-21.04L171.40-21.04L171.40-17.16Q172.56-19.08 174.62-20.14Q176.68-21.20 179.40-21.20L179.40-21.20Z M195.76 0L195.76-21.04L198.60-21.04L198.60 0L195.76 0ZM197.20-25.64Q196.32-25.64 195.72-26.24Q195.12-26.84 195.12-27.68L195.12-27.68Q195.12-28.48 195.72-29.08Q196.32-29.68 197.20-29.68L197.20-29.68Q198.08-29.68 198.68-29.10Q199.28-28.52 199.28-27.72L199.28-27.72Q199.28-26.84 198.68-26.24Q198.08-25.64 197.20-25.64L197.20-25.64Z M216.60-3.32L217.60-1.28Q216.80-0.56 215.62-0.18Q214.44 0.20 213.16 0.20L213.16 0.20Q210.20 0.20 208.60-1.40Q207.00-3 207.00-5.92L207.00-5.92L207.00-18.64L203.24-18.64L203.24-21.04L207.00-21.04L207.00-25.64L209.84-25.64L209.84-21.04L216.24-21.04L216.24-18.64L209.84-18.64L209.84-6.08Q209.84-4.20 210.78-3.22Q211.72-2.24 213.48-2.24L213.48-2.24Q214.36-2.24 215.18-2.52Q216.00-2.80 216.60-3.32L216.60-3.32Z M237.24-21.04L240.04-21.04L229.52 2.52Q228.24 5.48 226.56 6.72Q224.88 7.96 222.52 7.96L222.52 7.96Q221.00 7.96 219.68 7.48Q218.36 7 217.40 6.04L217.40 6.04L218.72 3.92Q220.32 5.52 222.56 5.52L222.56 5.52Q224.00 5.52 225.02 4.72Q226.04 3.92 226.92 2L226.92 2L227.84-0.04L218.44-21.04L221.40-21.04L229.32-3.16L237.24-21.04Z M255.12 7.76L255.12-29.68L257.76-29.68L257.76 7.76L255.12 7.76Z M286.64-4.56L286.64-14L289.48-14L289.48-3.32Q287.52-1.60 284.84-0.68Q282.16 0.24 279.20 0.24L279.20 0.24Q275 0.24 271.64-1.60Q268.28-3.44 266.36-6.70Q264.44-9.96 264.44-14L264.44-14Q264.44-18.04 266.36-21.30Q268.28-24.56 271.64-26.40Q275-28.24 279.24-28.24L279.24-28.24Q282.44-28.24 285.12-27.22Q287.80-26.20 289.64-24.20L289.64-24.20L287.80-22.32Q284.48-25.60 279.36-25.60L279.36-25.60Q275.96-25.60 273.22-24.10Q270.48-22.60 268.92-19.94Q267.36-17.28 267.36-14L267.36-14Q267.36-10.72 268.92-8.08Q270.48-5.44 273.20-3.92Q275.92-2.40 279.32-2.40L279.32-2.40Q283.64-2.40 286.64-4.56L286.64-4.56Z M304.60-21.20Q308.72-21.20 310.92-19.14Q313.12-17.08 313.12-13.04L313.12-13.04L313.12 0L310.40 0L310.40-3.28Q309.44-1.64 307.58-0.72Q305.72 0.20 303.16 0.20L303.16 0.20Q299.64 0.20 297.56-1.48Q295.48-3.16 295.48-5.92L295.48-5.92Q295.48-8.60 297.42-10.24Q299.36-11.88 303.60-11.88L303.60-11.88L310.28-11.88L310.28-13.16Q310.28-15.88 308.76-17.30Q307.24-18.72 304.32-18.72L304.32-18.72Q302.32-18.72 300.48-18.06Q298.64-17.40 297.32-16.24L297.32-16.24L296.04-18.36Q297.64-19.72 299.88-20.46Q302.12-21.20 304.60-21.20L304.60-21.20ZM303.60-2.04Q306.00-2.04 307.72-3.14Q309.44-4.24 310.28-6.32L310.28-6.32L310.28-9.76L303.68-9.76Q298.28-9.76 298.28-6L298.28-6Q298.28-4.16 299.68-3.10Q301.08-2.04 303.60-2.04L303.60-2.04Z M347.08-21.20Q351.04-21.20 353.30-18.92Q355.56-16.64 355.56-12.20L355.56-12.20L355.56 0L352.72 0L352.72-11.92Q352.72-15.20 351.14-16.92Q349.56-18.64 346.68-18.64L346.68-18.64Q343.40-18.64 341.52-16.62Q339.64-14.60 339.64-11.04L339.64-11.04L339.64 0L336.80 0L336.80-11.92Q336.80-15.20 335.22-16.92Q333.64-18.64 330.72-18.64L330.72-18.64Q327.48-18.64 325.58-16.62Q323.68-14.60 323.68-11.04L323.68-11.04L323.68 0L320.84 0L320.84-21.04L323.56-21.04L323.56-17.20Q324.68-19.12 326.68-20.16Q328.68-21.20 331.28-21.20L331.28-21.20Q333.92-21.20 335.86-20.08Q337.80-18.96 338.76-16.76L338.76-16.76Q339.92-18.84 342.10-20.02Q344.28-21.20 347.08-21.20L347.08-21.20Z M363.28 0L363.28-21.04L366.12-21.04L366.12 0L363.28 0ZM364.72-25.64Q363.84-25.64 363.24-26.24Q362.64-26.84 362.64-27.68L362.64-27.68Q362.64-28.48 363.24-29.08Q363.84-29.68 364.72-29.68L364.72-29.68Q365.60-29.68 366.20-29.10Q366.80-28.52 366.80-27.72L366.80-27.72Q366.80-26.84 366.20-26.24Q365.60-25.64 364.72-25.64L364.72-25.64Z M384.76-21.20Q388.72-21.20 391.06-18.90Q393.40-16.60 393.40-12.20L393.40-12.20L393.40 0L390.56 0L390.56-11.92Q390.56-15.20 388.92-16.92Q387.28-18.64 384.24-18.64L384.24-18.64Q380.84-18.64 378.86-16.62Q376.88-14.60 376.88-11.04L376.88-11.04L376.88 0L374.04 0L374.04-21.04L376.76-21.04L376.76-17.16Q377.92-19.08 379.98-20.14Q382.04-21.20 384.76-21.20L384.76-21.20Z M417.96-21.04L420.68-21.04L420.68-2.56Q420.68 2.80 418.06 5.38Q415.44 7.96 410.16 7.96L410.16 7.96Q407.24 7.96 404.62 7.10Q402 6.24 400.36 4.72L400.36 4.72L401.80 2.56Q403.32 3.92 405.50 4.68Q407.68 5.44 410.08 5.44L410.08 5.44Q414.08 5.44 415.96 3.58Q417.84 1.72 417.84-2.20L417.84-2.20L417.84-4.88Q416.52-2.88 414.38-1.84Q412.24-0.80 409.64-0.80L409.64-0.80Q406.68-0.80 404.26-2.10Q401.84-3.40 400.46-5.74Q399.08-8.08 399.08-11.04L399.08-11.04Q399.08-14 400.46-16.32Q401.84-18.64 404.24-19.92Q406.64-21.20 409.64-21.20L409.64-21.20Q412.32-21.20 414.48-20.12Q416.64-19.04 417.96-17L417.96-17L417.96-21.04ZM409.92-3.32Q412.20-3.32 414.04-4.30Q415.88-5.28 416.90-7.04Q417.92-8.80 417.92-11.04L417.92-11.04Q417.92-13.28 416.90-15.02Q415.88-16.76 414.06-17.74Q412.24-18.72 409.92-18.72L409.92-18.72Q407.64-18.72 405.82-17.76Q404-16.80 402.98-15.04Q401.96-13.28 401.96-11.04L401.96-11.04Q401.96-8.80 402.98-7.04Q404-5.28 405.82-4.30Q407.64-3.32 409.92-3.32L409.92-3.32Z M446.48-21.20Q450.60-21.20 452.80-19.14Q455-17.08 455-13.04L455-13.04L455 0L452.28 0L452.28-3.28Q451.32-1.64 449.46-0.72Q447.60 0.20 445.04 0.20L445.04 0.20Q441.52 0.20 439.44-1.48Q437.36-3.16 437.36-5.92L437.36-5.92Q437.36-8.60 439.30-10.24Q441.24-11.88 445.48-11.88L445.48-11.88L452.16-11.88L452.16-13.16Q452.16-15.88 450.64-17.30Q449.12-18.72 446.20-18.72L446.20-18.72Q444.20-18.72 442.36-18.06Q440.52-17.40 439.20-16.24L439.20-16.24L437.92-18.36Q439.52-19.72 441.76-20.46Q444-21.20 446.48-21.20L446.48-21.20ZM445.48-2.04Q447.88-2.04 449.60-3.14Q451.32-4.24 452.16-6.32L452.16-6.32L452.16-9.76L445.56-9.76Q440.16-9.76 440.16-6L440.16-6Q440.16-4.16 441.56-3.10Q442.96-2.04 445.48-2.04L445.48-2.04Z M473.44-21.20Q477.40-21.20 479.74-18.90Q482.08-16.60 482.08-12.20L482.08-12.20L482.08 0L479.24 0L479.24-11.92Q479.24-15.20 477.60-16.92Q475.96-18.64 472.92-18.64L472.92-18.64Q469.52-18.64 467.54-16.62Q465.56-14.60 465.56-11.04L465.56-11.04L465.56 0L462.72 0L462.72-21.04L465.44-21.04L465.44-17.16Q466.60-19.08 468.66-20.14Q470.72-21.20 473.44-21.20L473.44-21.20Z M506.24-29.68L509.08-29.68L509.08 0L506.36 0L506.36-4.16Q505.08-2.04 502.98-0.92Q500.88 0.20 498.24 0.20L498.24 0.20Q495.28 0.20 492.88-1.16Q490.48-2.52 489.12-4.96Q487.76-7.40 487.76-10.52L487.76-10.52Q487.76-13.64 489.12-16.08Q490.48-18.52 492.88-19.86Q495.28-21.20 498.24-21.20L498.24-21.20Q500.80-21.20 502.86-20.14Q504.92-19.08 506.24-17.04L506.24-17.04L506.24-29.68ZM498.48-2.32Q500.68-2.32 502.46-3.34Q504.24-4.36 505.26-6.24Q506.28-8.12 506.28-10.52L506.28-10.52Q506.28-12.92 505.26-14.80Q504.24-16.68 502.46-17.70Q500.68-18.72 498.48-18.72L498.48-18.72Q496.24-18.72 494.46-17.70Q492.68-16.68 491.66-14.80Q490.64-12.92 490.64-10.52L490.64-10.52Q490.64-8.12 491.66-6.24Q492.68-4.36 494.46-3.34Q496.24-2.32 498.48-2.32L498.48-2.32Z M536.20 0.20Q533.08 0.20 530.62-1.16Q528.16-2.52 526.76-4.98Q525.36-7.44 525.36-10.52L525.36-10.52Q525.36-13.60 526.76-16.04Q528.16-18.48 530.62-19.84Q533.08-21.20 536.20-21.20L536.20-21.20Q538.92-21.20 541.06-20.14Q543.20-19.08 544.44-17.04L544.44-17.04L542.32-15.60Q541.28-17.16 539.68-17.94Q538.08-18.72 536.20-18.72L536.20-18.72Q533.92-18.72 532.10-17.70Q530.28-16.68 529.26-14.80Q528.24-12.92 528.24-10.52L528.24-10.52Q528.24-8.08 529.26-6.22Q530.28-4.36 532.10-3.34Q533.92-2.32 536.20-2.32L536.20-2.32Q538.08-2.32 539.68-3.08Q541.28-3.84 542.32-5.40L542.32-5.40L544.44-3.96Q543.20-1.92 541.04-0.86Q538.88 0.20 536.20 0.20L536.20 0.20Z M558.24 0.20Q555.20 0.20 552.76-1.18Q550.32-2.56 548.92-5Q547.52-7.44 547.52-10.52L547.52-10.52Q547.52-13.60 548.92-16.04Q550.32-18.48 552.76-19.84Q555.20-21.20 558.24-21.20L558.24-21.20Q561.28-21.20 563.72-19.84Q566.16-18.48 567.54-16.04Q568.92-13.60 568.92-10.52L568.92-10.52Q568.92-7.44 567.54-5Q566.16-2.56 563.72-1.18Q561.28 0.20 558.24 0.20L558.24 0.20ZM558.24-2.32Q560.48-2.32 562.26-3.34Q564.04-4.36 565.04-6.24Q566.04-8.12 566.04-10.52L566.04-10.52Q566.04-12.92 565.04-14.80Q564.04-16.68 562.26-17.70Q560.48-18.72 558.24-18.72L558.24-18.72Q556-18.72 554.22-17.70Q552.44-16.68 551.42-14.80Q550.40-12.92 550.40-10.52L550.40-10.52Q550.40-8.12 551.42-6.24Q552.44-4.36 554.22-3.34Q556-2.32 558.24-2.32L558.24-2.32Z M591.08-29.68L593.92-29.68L593.92 0L591.20 0L591.20-4.16Q589.92-2.04 587.82-0.92Q585.72 0.20 583.08 0.20L583.08 0.20Q580.12 0.20 577.72-1.16Q575.32-2.52 573.96-4.96Q572.60-7.40 572.60-10.52L572.60-10.52Q572.60-13.64 573.96-16.08Q575.32-18.52 577.72-19.86Q580.12-21.20 583.08-21.20L583.08-21.20Q585.64-21.20 587.70-20.14Q589.76-19.08 591.08-17.04L591.08-17.04L591.08-29.68ZM583.32-2.32Q585.52-2.32 587.30-3.34Q589.08-4.36 590.10-6.24Q591.12-8.12 591.12-10.52L591.12-10.52Q591.12-12.92 590.10-14.80Q589.08-16.68 587.30-17.70Q585.52-18.72 583.32-18.72L583.32-18.72Q581.08-18.72 579.30-17.70Q577.52-16.68 576.50-14.80Q575.48-12.92 575.48-10.52L575.48-10.52Q575.48-8.12 576.50-6.24Q577.52-4.36 579.30-3.34Q581.08-2.32 583.32-2.32L583.32-2.32Z M620.20-10.52L620.16-9.64L602.56-9.64Q602.80-6.36 605.08-4.34Q607.36-2.32 610.84-2.32L610.84-2.32Q612.80-2.32 614.44-3.02Q616.08-3.72 617.28-5.08L617.28-5.08L618.88-3.24Q617.48-1.56 615.38-0.68Q613.28 0.20 610.76 0.20L610.76 0.20Q607.52 0.20 605.02-1.18Q602.52-2.56 601.12-5Q599.72-7.44 599.72-10.52L599.72-10.52Q599.72-13.60 601.06-16.04Q602.40-18.48 604.74-19.84Q607.08-21.20 610-21.20L610-21.20Q612.92-21.20 615.24-19.84Q617.56-18.48 618.88-16.06Q620.20-13.64 620.20-10.52L620.20-10.52ZM610-18.76Q606.96-18.76 604.90-16.82Q602.84-14.88 602.56-11.76L602.56-11.76L617.48-11.76Q617.20-14.88 615.14-16.82Q613.08-18.76 610-18.76L610-18.76Z M626.60 7.76L626.60-29.68L629.24-29.68L629.24 7.76L626.60 7.76Z M668.08-25.44L651.84-25.44L651.84-14.44L666.32-14.44L666.32-11.88L651.84-11.88L651.84 0L648.88 0L648.88-28L668.08-28L668.08-25.44Z M696.56 0L693.32 0L686.92-9Q685.84-8.88 684.68-8.88L684.68-8.88L677.16-8.88L677.16 0L674.20 0L674.20-28L684.68-28Q690.04-28 693.08-25.44Q696.12-22.88 696.12-18.40L696.12-18.40Q696.12-15.12 694.46-12.86Q692.80-10.60 689.72-9.60L689.72-9.60L696.56 0ZM684.60-11.40Q688.76-11.40 690.96-13.24Q693.16-15.08 693.16-18.40L693.16-18.40Q693.16-21.80 690.96-23.62Q688.76-25.44 684.60-25.44L684.60-25.44L677.16-25.44L677.16-11.40L684.60-11.40Z"/></g>
</svg>
</g><g opacity="1" transform="rotate(0 112.6136 330.6118)">
<svg width="387.5892" height="60" x="112.6136" y="330.6118" version="1.1" preserveAspectRatio="none" viewBox="2.76 -28.8 189.92000000000002 29.4">
  <g transform="matrix(1 0 0 1 0 0)" class="background"><path id="id-D6z1nYkh7" d="M10.40 0L10.40 0L4.20 0Q3.44 0 3.10-0.34Q2.76-0.68 2.76-1.44L2.76-1.44L2.76-27.36Q2.76-28.12 3.10-28.46Q3.44-28.80 4.20-28.80L4.20-28.80L16.44-28.80Q21.88-28.80 23.88-26.64Q25.88-24.48 25.88-21L25.88-21L25.88-15.88Q25.88-12.40 23.88-10.24Q21.88-8.08 16.44-8.08L16.44-8.08L11.84-8.08L11.84-1.44Q11.84-0.68 11.50-0.34Q11.16 0 10.40 0ZM15.36-21.32L11.76-21.32L11.76-15.28L15.36-15.28Q16.52-15.28 16.88-15.88Q17.24-16.48 17.24-17.24L17.24-17.24L17.24-19.36Q17.24-20.12 16.88-20.72Q16.52-21.32 15.36-21.32L15.36-21.32Z M47.88 0L30.84 0Q30.08 0 29.74-0.34Q29.40-0.68 29.40-1.44L29.40-1.44L29.40-6.20Q29.40-6.96 29.74-7.30Q30.08-7.64 30.84-7.64L30.84-7.64L34.80-7.64L34.80-21.08L30.84-21.08Q30.08-21.08 29.74-21.42Q29.40-21.76 29.40-22.52L29.40-22.52L29.40-27.36Q29.40-28.12 29.74-28.46Q30.08-28.80 30.84-28.80L30.84-28.80L47.88-28.80Q48.64-28.80 48.98-28.46Q49.32-28.12 49.32-27.36L49.32-27.36L49.32-22.52Q49.32-21.76 48.98-21.42Q48.64-21.08 47.88-21.08L47.88-21.08L44-21.08L44-7.64L47.88-7.64Q48.64-7.64 48.98-7.30Q49.32-6.96 49.32-6.20L49.32-6.20L49.32-1.44Q49.32-0.68 48.98-0.34Q48.64 0 47.88 0L47.88 0Z M61.88 0L61.88 0L55.68 0Q54.92 0 54.58-0.34Q54.24-0.68 54.24-1.44L54.24-1.44L54.24-27.36Q54.24-28.12 54.58-28.46Q54.92-28.80 55.68-28.80L55.68-28.80L61.88-28.80Q62.64-28.80 62.98-28.46Q63.32-28.12 63.32-27.36L63.32-27.36L63.32-18.16L64.92-18.16L69.04-27.48Q69.32-28.20 69.80-28.50Q70.28-28.80 71.04-28.80L71.04-28.80L77.20-28.80Q77.88-28.80 78.12-28.46Q78.36-28.12 78.08-27.48L78.08-27.48L74-18.16Q76.24-18.04 77.58-16.58Q78.92-15.12 78.92-12.72L78.92-12.72L78.92-1.44Q78.92-0.68 78.58-0.34Q78.24 0 77.48 0L77.48 0L71.32 0Q70.56 0 70.22-0.34Q69.88-0.68 69.88-1.44L69.88-1.44L69.88-9.24Q69.88-9.88 69.56-10.24Q69.24-10.60 68.60-10.60L68.60-10.60L63.32-10.60L63.32-1.44Q63.32-0.68 62.98-0.34Q62.64 0 61.88 0Z M94.52-20.40L94.52-20.40L92.64-14.32L98.92-14.32L97.04-20.40Q96.88-20.76 96.70-20.92Q96.52-21.08 96.28-21.08L96.28-21.08L95.28-21.08Q95.04-21.08 94.86-20.92Q94.68-20.76 94.52-20.40ZM92.24-7.04L92.24-1.44Q92.24-0.68 91.90-0.34Q91.56 0 90.80 0L90.80 0L84.92 0Q84.16 0 83.82-0.34Q83.48-0.68 83.48-1.44L83.48-1.44L83.48-12Q83.48-13.20 83.86-14.76Q84.24-16.32 85.04-18.40L85.04-18.40L88.52-27.48Q88.76-28.16 89.26-28.48Q89.76-28.80 90.56-28.80L90.56-28.80L101.32-28.80Q102.08-28.80 102.58-28.48Q103.08-28.16 103.32-27.48L103.32-27.48L106.80-18.40Q107.60-16.32 107.98-14.76Q108.36-13.20 108.36-12L108.36-12L108.36-1.44Q108.36-0.68 108.02-0.34Q107.68 0 106.92 0L106.92 0L100.88 0Q100.08 0 99.70-0.34Q99.32-0.68 99.32-1.44L99.32-1.44L99.32-7.04L92.24-7.04Z M126.88 0L126.88 0L120.40 0Q119.64 0 119.30-0.34Q118.96-0.68 118.96-1.44L118.96-1.44L118.96-6.56L112.84-14.76Q111.92-16 111.62-16.92Q111.32-17.84 111.32-19.68L111.32-19.68L111.32-27.36Q111.32-28.12 111.66-28.46Q112.00-28.80 112.76-28.80L112.76-28.80L118.92-28.80Q119.68-28.80 120.02-28.46Q120.36-28.12 120.36-27.36L120.36-27.36L120.36-20.80Q120.36-20.40 120.40-19.96Q120.44-19.52 120.72-19.12L120.72-19.12L122.56-16.24Q122.76-15.88 122.98-15.72Q123.20-15.56 123.52-15.56L123.52-15.56L123.92-15.56Q124.24-15.56 124.46-15.72Q124.68-15.88 124.88-16.24L124.88-16.24L126.72-19.12Q127.00-19.52 127.04-19.96Q127.08-20.40 127.08-20.80L127.08-20.80L127.08-27.36Q127.08-28.12 127.42-28.46Q127.76-28.80 128.52-28.80L128.52-28.80L134.48-28.80Q135.24-28.80 135.58-28.46Q135.92-28.12 135.92-27.36L135.92-27.36L135.92-19.68Q135.92-17.84 135.60-16.92Q135.28-16 134.40-14.76L134.40-14.76L128.32-6.52L128.32-1.44Q128.32-0.68 127.98-0.34Q127.64 0 126.88 0Z M165-27.36L165-7.56Q165-5.72 164.46-4.22Q163.92-2.72 162.54-1.66Q161.16-0.60 158.76 0Q156.36 0.60 152.64 0.60L152.64 0.60Q148.92 0.60 146.52 0Q144.12-0.60 142.74-1.66Q141.36-2.72 140.82-4.22Q140.28-5.72 140.28-7.56L140.28-7.56L140.28-27.36Q140.28-28.12 140.62-28.46Q140.96-28.80 141.72-28.80L141.72-28.80L148-28.80Q148.76-28.80 149.10-28.46Q149.44-28.12 149.44-27.36L149.44-27.36L149.44-9.12Q149.44-8.32 150.04-7.78Q150.64-7.24 152.72-7.24L152.72-7.24Q154.84-7.24 155.44-7.78Q156.04-8.32 156.04-9.12L156.04-9.12L156.04-27.36Q156.04-28.12 156.38-28.46Q156.72-28.80 157.48-28.80L157.48-28.80L163.56-28.80Q164.32-28.80 164.66-28.46Q165-28.12 165-27.36L165-27.36Z M183.92 0L183.92 0L177.44 0Q176.68 0 176.34-0.34Q176-0.68 176-1.44L176-1.44L176-21.08L170.12-21.08Q169.36-21.08 169.02-21.42Q168.68-21.76 168.68-22.52L168.68-22.52L168.68-27.36Q168.68-28.12 169.02-28.46Q169.36-28.80 170.12-28.80L170.12-28.80L191.24-28.80Q192-28.80 192.34-28.46Q192.68-28.12 192.68-27.36L192.68-27.36L192.68-22.52Q192.68-21.76 192.34-21.42Q192-21.08 191.24-21.08L191.24-21.08L185.36-21.08L185.36-1.44Q185.36-0.68 185.02-0.34Q184.68 0 183.92 0Z"/></g>
</svg>
</g></svg></svg>