<svg version="1.1" preserveAspectRatio="none" xmlns="http://www.w3.org/2000/svg" width="500" height="500" viewBox="0 0 500 500"><rect width="100%" height="100%" fill="#0A0A0A" fill-opacity="1"/><svg viewBox="88.3254 348.9179 423.2983 220" width="333" height="173.06944062851187" x="83.5px" y="163.4653px" xmlns="http://www.w3.org/2000/svg" xmlns:xlink="http://www.w3.org/1999/xlink" preserveAspectRatio="none"><defs></defs><style>.companyName {fill:#E9E9E9;fill-opacity:1;}.icon2 {fill:#7065EF;fill-opacity:1;}.icon3 {fill:#C4C4C4;fill-opacity:1;}.icon3-str {stroke:#C4C4C4;stroke-opacity:1;}.shape {fill:#28208C;fill-opacity:1;}.text {fill:#E9E9E9;fill-opacity:1;}</style><g opacity="1" transform="rotate(0 134.4017 348.9179)">
<svg width="331.1457" height="220" x="134.4017" y="348.9179" version="1.1" preserveAspectRatio="none" viewBox="4.200999736785889 21.96699905395508 89.02999114990234 59.14799880981445">
  <g transform="matrix(1 0 0 1 0 0)" class="shape"><g><circle cx="46.796" cy="22.734" r="0.767"></circle><circle cx="46.796" cy="26.58" r="0.886"></circle><circle cx="46.796" cy="30.425" r="1.004"></circle><circle cx="46.797" cy="34.271" r="1.12"></circle><circle cx="46.796" cy="38.079" r="1.24"></circle><circle cx="46.797" cy="41.963" r="1.356"></circle><circle cx="46.797" cy="45.809" r="1.476"></circle><circle cx="43.004" cy="22.734" r="0.767"></circle><circle cx="43.004" cy="26.58" r="0.886"></circle><circle cx="43.004" cy="30.425" r="1.004"></circle><circle cx="43.004" cy="34.271" r="1.12"></circle><circle cx="43.004" cy="38.079" r="1.24"></circle><circle cx="43.004" cy="41.963" r="1.356"></circle><circle cx="43.004" cy="80.348" r="0.767"></circle><circle cx="43.004" cy="76.57" r="0.886"></circle><circle cx="43.004" cy="72.723" r="1.003"></circle><circle cx="43.004" cy="68.876" r="1.121"></circle><circle cx="43.004" cy="65.031" r="1.239"></circle><circle cx="43.004" cy="61.186" r="1.356"></circle><circle cx="46.796" cy="80.348" r="0.767"></circle><circle cx="46.796" cy="76.57" r="0.886"></circle><circle cx="46.796" cy="72.723" r="1.003"></circle><circle cx="46.797" cy="68.876" r="1.121"></circle><circle cx="46.796" cy="65.031" r="1.239"></circle><circle cx="46.797" cy="61.186" r="1.356"></circle><circle cx="43.004" cy="45.809" r="1.476"></circle><circle cx="46.797" cy="49.447" r="1.476"></circle><circle cx="43.004" cy="49.447" r="1.476"></circle><circle cx="46.797" cy="53.083" r="1.475"></circle><circle cx="43.004" cy="53.083" r="1.475"></circle><circle cx="46.797" cy="57.024" r="1.475"></circle><circle cx="50.594" cy="22.734" r="0.767"></circle><circle cx="50.591" cy="26.58" r="0.886"></circle><circle cx="50.586" cy="30.425" r="1.004"></circle><circle cx="50.582" cy="34.271" r="1.12"></circle><circle cx="50.578" cy="38.079" r="1.24"></circle><circle cx="50.573" cy="41.963" r="1.356"></circle><circle cx="50.57" cy="45.809" r="1.476"></circle><circle cx="50.594" cy="80.348" r="0.767"></circle><circle cx="50.591" cy="76.57" r="0.886"></circle><circle cx="50.586" cy="72.723" r="1.003"></circle><circle cx="50.582" cy="68.876" r="1.121"></circle><circle cx="50.578" cy="65.031" r="1.239"></circle><circle cx="50.573" cy="61.186" r="1.356"></circle><circle cx="50.57" cy="49.447" r="1.476"></circle><circle cx="50.57" cy="53.083" r="1.475"></circle><circle cx="50.57" cy="57.024" r="1.475"></circle><circle cx="54.53" cy="76.57" r="0.886"></circle><circle cx="54.525" cy="72.723" r="1.003"></circle><circle cx="54.522" cy="68.876" r="1.121"></circle><circle cx="54.52" cy="65.031" r="1.239"></circle><circle cx="58.309" cy="49.571" r="1.24"></circle><circle cx="62.145" cy="49.571" r="1.144"></circle><circle cx="65.983" cy="49.571" r="1.049"></circle><circle cx="69.821" cy="49.571" r="0.954"></circle><circle cx="73.659" cy="49.571" r="0.859"></circle><circle cx="77.497" cy="49.571" r="0.763"></circle><circle cx="81.334" cy="49.571" r="0.668"></circle><circle cx="85.172" cy="49.571" r="0.573"></circle><circle cx="89.01" cy="49.571" r="0.479"></circle><circle cx="92.848" cy="49.571" r="0.383"></circle><path d="M35.535,52.165c0.684,0,1.239,0.553,1.239,1.238s-0.556,1.24-1.239,1.24s-1.238-0.555-1.238-1.24   C34.297,52.722,34.852,52.165,35.535,52.165z"></path><circle cx="31.698" cy="53.403" r="1.144"></circle><circle cx="27.713" cy="53.403" r="0.764"></circle><circle cx="23.876" cy="53.403" r="0.668"></circle><circle cx="20.038" cy="53.403" r="0.573"></circle><circle cx="16.2" cy="53.403" r="0.479"></circle><circle cx="12.363" cy="53.403" r="0.383"></circle><circle cx="58.356" cy="57.149" r="1.144"></circle><circle cx="62.194" cy="57.149" r="1.049"></circle><circle cx="66.032" cy="57.149" r="0.953"></circle><circle cx="69.87" cy="57.149" r="0.858"></circle><circle cx="73.707" cy="57.149" r="0.763"></circle><circle cx="77.545" cy="57.149" r="0.669"></circle><circle cx="81.383" cy="57.149" r="0.572"></circle><circle cx="85.221" cy="57.149" r="0.479"></circle><circle cx="89.058" cy="57.149" r="0.383"></circle><circle cx="58.356" cy="60.788" r="1.144"></circle><circle cx="62.194" cy="60.788" r="1.049"></circle><circle cx="66.032" cy="60.788" r="0.953"></circle><path d="M70.729,60.788c0,0.473-0.384,0.857-0.859,0.857c-0.474,0-0.857-0.385-0.857-0.857c0-0.477,0.384-0.859,0.857-0.859   C70.345,59.929,70.729,60.312,70.729,60.788z"></path><circle cx="73.707" cy="60.788" r="0.763"></circle><circle cx="77.545" cy="60.788" r="0.669"></circle><circle cx="81.383" cy="60.788" r="0.572"></circle><circle cx="85.221" cy="60.788" r="0.479"></circle><circle cx="89.058" cy="60.788" r="0.383"></circle><circle cx="58.449" cy="65.032" r="0.668"></circle><circle cx="62.286" cy="65.032" r="0.573"></circle><circle cx="66.124" cy="65.032" r="0.477"></circle><circle cx="69.963" cy="65.031" r="0.384"></circle><circle cx="58.449" cy="68.972" r="0.668"></circle><circle cx="62.286" cy="68.972" r="0.573"></circle><circle cx="66.124" cy="68.972" r="0.477"></circle><circle cx="69.963" cy="68.973" r="0.382"></circle><circle cx="58.449" cy="72.761" r="0.668"></circle><circle cx="62.286" cy="72.761" r="0.573"></circle><circle cx="66.124" cy="72.761" r="0.477"></circle><circle cx="69.963" cy="72.762" r="0.382"></circle><path d="M59.117,76.548c0,0.369-0.3,0.67-0.669,0.67s-0.668-0.301-0.668-0.67c0-0.367,0.299-0.666,0.668-0.666   S59.117,76.181,59.117,76.548z"></path><path d="M62.858,76.548c0,0.318-0.255,0.576-0.572,0.576c-0.316,0-0.573-0.258-0.573-0.576c0-0.314,0.257-0.57,0.573-0.57   C62.604,75.978,62.858,76.233,62.858,76.548z"></path><path d="M66.601,76.548c0,0.264-0.212,0.48-0.478,0.48c-0.263,0-0.477-0.217-0.477-0.48c0-0.262,0.214-0.477,0.477-0.477   C66.389,76.071,66.601,76.286,66.601,76.548z"></path><circle cx="39.236" cy="80.348" r="0.767"></circle><circle cx="35.301" cy="80.349" r="0.573"></circle><circle cx="31.464" cy="80.349" r="0.478"></circle><circle cx="27.627" cy="80.349" r="0.383"></circle><circle cx="58.309" cy="53.209" r="1.239"></circle><circle cx="62.145" cy="53.21" r="1.144"></circle><circle cx="65.983" cy="53.21" r="1.049"></circle><circle cx="69.821" cy="53.21" r="0.954"></circle><circle cx="73.659" cy="53.21" r="0.859"></circle><circle cx="77.497" cy="53.21" r="0.763"></circle><circle cx="81.334" cy="53.21" r="0.668"></circle><circle cx="85.172" cy="53.21" r="0.573"></circle><circle cx="89.01" cy="53.21" r="0.479"></circle><circle cx="54.514" cy="61.186" r="1.356"></circle><circle cx="54.511" cy="49.447" r="1.476"></circle><circle cx="58.309" cy="45.783" r="1.239"></circle><circle cx="62.145" cy="45.782" r="1.144"></circle><circle cx="65.983" cy="45.782" r="1.049"></circle><circle cx="69.821" cy="45.782" r="0.954"></circle><circle cx="73.659" cy="45.782" r="0.859"></circle><circle cx="77.497" cy="45.782" r="0.763"></circle><path d="M82.002,45.782c0,0.369-0.299,0.67-0.667,0.67c-0.369,0-0.669-0.301-0.669-0.67c0-0.367,0.3-0.668,0.669-0.668   C81.703,45.114,82.002,45.415,82.002,45.782z"></path><circle cx="85.172" cy="45.782" r="0.573"></circle><circle cx="89.01" cy="45.782" r="0.479"></circle><circle cx="92.848" cy="45.782" r="0.383"></circle><circle cx="35.441" cy="45.632" r="0.954"></circle><circle cx="31.604" cy="45.632" r="0.858"></circle><circle cx="27.766" cy="45.632" r="0.764"></circle><circle cx="23.928" cy="45.632" r="0.668"></circle><circle cx="20.09" cy="45.632" r="0.573"></circle><circle cx="16.252" cy="45.632" r="0.478"></circle><circle cx="12.414" cy="45.631" r="0.382"></circle><circle cx="35.368" cy="30.323" r="0.574"></circle><circle cx="31.529" cy="30.323" r="0.479"></circle><circle cx="27.692" cy="30.323" r="0.383"></circle><circle cx="35.368" cy="34.265" r="0.689"></circle><circle cx="31.529" cy="34.265" r="0.479"></circle><circle cx="27.692" cy="34.265" r="0.383"></circle><circle cx="35.463" cy="26.687" r="0.478"></circle><path d="M54.52,43.233c-0.686,0-1.24-0.555-1.24-1.24c0-0.682,0.555-1.238,1.24-1.238c0.683,0,1.237,0.557,1.237,1.238   C55.757,42.679,55.202,43.233,54.52,43.233z"></path><circle cx="58.356" cy="41.993" r="1.144"></circle><circle cx="62.194" cy="41.993" r="1.049"></circle><circle cx="54.52" cy="38.079" r="1.24"></circle><circle cx="58.356" cy="38.079" r="1.144"></circle><circle cx="62.194" cy="38.079" r="1.049"></circle><circle cx="66.032" cy="41.993" r="0.953"></circle><path d="M70.729,41.993c0,0.473-0.384,0.861-0.859,0.861c-0.474,0-0.857-0.389-0.857-0.861s0.384-0.859,0.857-0.859   C70.345,41.134,70.729,41.521,70.729,41.993z"></path><circle cx="54.464" cy="34.265" r="1.049"></circle><circle cx="58.302" cy="34.265" r="0.954"></circle><circle cx="62.14" cy="34.265" r="0.859"></circle><circle cx="73.707" cy="41.993" r="0.763"></circle><circle cx="77.545" cy="41.993" r="0.669"></circle><circle cx="66.027" cy="38.079" r="0.667"></circle><circle cx="81.383" cy="41.993" r="0.572"></circle><circle cx="69.864" cy="38.079" r="0.573"></circle><circle cx="85.221" cy="41.993" r="0.479"></circle><circle cx="89.058" cy="41.995" r="0.383"></circle><circle cx="73.6" cy="38.079" r="0.383"></circle><circle cx="35.251" cy="38.079" r="1.144"></circle><circle cx="31.413" cy="38.079" r="1.049"></circle><circle cx="27.58" cy="38.079" r="0.668"></circle><circle cx="23.743" cy="38.079" r="0.573"></circle><circle cx="20.008" cy="38.079" r="0.383"></circle><circle cx="35.251" cy="42.019" r="1.144"></circle><circle cx="31.413" cy="42.019" r="1.049"></circle><circle cx="27.58" cy="42.019" r="0.668"></circle><circle cx="23.743" cy="42.019" r="0.573"></circle><circle cx="20.008" cy="42.021" r="0.383"></circle><circle cx="54.616" cy="30.349" r="1.048"></circle><path d="M59.117,30.349c0,0.369-0.3,0.67-0.669,0.67s-0.668-0.301-0.668-0.67c0-0.367,0.299-0.668,0.668-0.668   S59.117,29.981,59.117,30.349z"></path><circle cx="62.286" cy="30.349" r="0.573"></circle><circle cx="66.021" cy="30.35" r="0.384"></circle><circle cx="54.405" cy="26.712" r="0.573"></circle><circle cx="58.141" cy="26.712" r="0.383"></circle><circle cx="54.511" cy="45.658" r="1.476"></circle><circle cx="54.511" cy="53.083" r="1.475"></circle><circle cx="54.511" cy="57.024" r="1.475"></circle><circle cx="43.004" cy="57.024" r="1.475"></circle><circle cx="39.237" cy="26.58" r="0.886"></circle><circle cx="39.237" cy="30.425" r="1.004"></circle><circle cx="35.368" cy="76.399" r="0.574"></circle><circle cx="31.529" cy="76.399" r="0.479"></circle><circle cx="27.692" cy="76.397" r="0.383"></circle><circle cx="39.237" cy="76.5" r="1.003"></circle><circle cx="39.237" cy="34.271" r="1.12"></circle><circle cx="39.237" cy="38.079" r="1.24"></circle><path d="M34.107,72.329c0-0.629,0.512-1.143,1.143-1.143c0.633,0,1.146,0.514,1.146,1.143c0,0.635-0.513,1.146-1.146,1.146   C34.619,73.476,34.107,72.964,34.107,72.329z"></path><path d="M30.364,72.329c0-0.576,0.47-1.047,1.049-1.047c0.58,0,1.049,0.471,1.049,1.047c0,0.584-0.469,1.053-1.049,1.053   C30.834,73.382,30.364,72.913,30.364,72.329z"></path><path d="M26.912,72.329c0-0.365,0.301-0.666,0.669-0.666c0.369,0,0.667,0.301,0.667,0.666c0,0.371-0.298,0.67-0.667,0.67   C27.213,72.999,26.912,72.7,26.912,72.329z"></path><path d="M23.17,72.329c0-0.314,0.257-0.57,0.573-0.57s0.572,0.256,0.572,0.57c0,0.318-0.256,0.574-0.572,0.574   S23.17,72.647,23.17,72.329z"></path><path d="M20.008,71.948c0.212,0,0.384,0.17,0.384,0.381c0,0.215-0.172,0.385-0.384,0.385c-0.21,0-0.383-0.17-0.383-0.385   C19.625,72.118,19.798,71.948,20.008,71.948z"></path><path d="M39.237,71.093c-0.687,0-1.24,0.553-1.24,1.236c0,0.688,0.554,1.24,1.24,1.24c0.684,0,1.238-0.553,1.238-1.24   C40.476,71.646,39.921,71.093,39.237,71.093z"></path><circle cx="39.237" cy="41.963" r="1.356"></circle><circle cx="35.251" cy="49.446" r="1.144"></circle><circle cx="31.413" cy="49.446" r="1.049"></circle><circle cx="27.58" cy="49.446" r="0.668"></circle><circle cx="23.743" cy="49.446" r="0.573"></circle><circle cx="20.008" cy="49.446" r="0.383"></circle><path d="M39.237,48.032c-0.751,0-1.357,0.609-1.357,1.359c0,0.746,0.606,1.355,1.357,1.355c0.748,0,1.356-0.609,1.356-1.355   C40.594,48.642,39.985,48.032,39.237,48.032z"></path><circle cx="39.237" cy="45.809" r="1.476"></circle><circle cx="39.237" cy="53.404" r="1.474"></circle><circle cx="35.535" cy="57.193" r="1.239"></circle><circle cx="31.698" cy="57.192" r="1.144"></circle><circle cx="27.713" cy="57.192" r="0.764"></circle><circle cx="23.876" cy="57.192" r="0.668"></circle><circle cx="20.038" cy="57.192" r="0.573"></circle><circle cx="16.2" cy="57.192" r="0.479"></circle><circle cx="12.363" cy="57.193" r="0.382"></circle><circle cx="8.422" cy="57.191" r="0.317"></circle><circle cx="4.481" cy="57.193" r="0.28"></circle><circle cx="39.237" cy="57.192" r="1.475"></circle><circle cx="35.535" cy="60.981" r="1.238"></circle><circle cx="31.698" cy="60.981" r="1.144"></circle><path d="M26.949,60.981c0-0.422,0.343-0.762,0.766-0.762c0.42,0,0.762,0.34,0.762,0.762c0,0.424-0.342,0.764-0.762,0.764   C27.292,61.745,26.949,61.405,26.949,60.981z"></path><path d="M23.208,60.983c0-0.369,0.299-0.67,0.668-0.67s0.669,0.299,0.669,0.67c-0.001,0.367-0.3,0.666-0.669,0.666   S23.208,61.351,23.208,60.983z"></path><circle cx="20.038" cy="60.983" r="0.573"></circle><circle cx="16.2" cy="60.981" r="0.479"></circle><circle cx="12.363" cy="60.982" r="0.382"></circle><circle cx="8.422" cy="60.982" r="0.317"></circle><circle cx="4.481" cy="60.982" r="0.28"></circle><circle cx="73.796" cy="65.074" r="0.28"></circle><circle cx="73.796" cy="68.862" r="0.279"></circle><circle cx="39.236" cy="64.923" r="1.238"></circle><circle cx="35.487" cy="64.923" r="1.144"></circle><circle cx="31.503" cy="64.923" r="0.764"></circle><circle cx="27.665" cy="64.923" r="0.669"></circle><circle cx="23.828" cy="64.923" r="0.574"></circle><circle cx="19.989" cy="64.923" r="0.478"></circle><circle cx="16.151" cy="64.923" r="0.383"></circle><circle cx="12.212" cy="64.923" r="0.316"></circle><circle cx="8.271" cy="64.923" r="0.279"></circle><circle cx="39.236" cy="68.711" r="1.239"></circle><circle cx="35.487" cy="68.712" r="1.144"></circle><circle cx="31.503" cy="68.712" r="0.764"></circle><circle cx="27.665" cy="68.712" r="0.669"></circle><circle cx="23.828" cy="68.712" r="0.574"></circle><circle cx="19.989" cy="68.712" r="0.478"></circle><circle cx="16.151" cy="68.712" r="0.383"></circle><circle cx="12.212" cy="68.713" r="0.317"></circle><circle cx="39.237" cy="60.982" r="1.476"></circle></g></g>
</svg>
</g><g opacity="1" transform="rotate(0 88.3254 520.9179)">
<svg width="423.2983" height="22.4" x="88.3254" y="520.9179" version="1.1" preserveAspectRatio="none" viewBox="1.56 -29.92 721.0400000000001 38.16">
  <g transform="matrix(1 0 0 1 0 0)" class="text"><path id="id-6izo4zJp30" d="M15.04-2.60L15.04-2.60Q17.88-2.60 20.02-4.04Q22.16-5.48 23.20-7.92L23.20-7.92L26.36-7.92Q25.04-4.16 22-2L22-2Q18.76 0.32 14.36 0.32L14.36 0.32Q8.56 0.32 4.96-3.64L4.96-3.64Q1.56-7.44 1.56-13.24Q1.56-19.04 4.96-22.84L4.96-22.84Q8.56-26.80 14.36-26.80L14.36-26.80Q18.76-26.80 22-24.48L22-24.48Q25.04-22.32 26.36-18.56L26.36-18.56L23.20-18.56Q22.16-21 20.02-22.44Q17.88-23.88 15.04-23.88Q12.20-23.88 10.32-23.06Q8.44-22.24 7.16-20.80L7.16-20.80Q4.56-17.88 4.56-13.24L4.56-13.24Q4.56-8.60 7.16-5.68L7.16-5.68Q9.88-2.60 15.04-2.60Z M42.88-20.32L42.88-20.32Q47.36-20.32 50.16-17.32L50.16-17.32Q52.80-14.44 52.80-10L52.80-10Q52.80-5.56 50.16-2.68L50.16-2.68Q47.36 0.32 42.88 0.32L42.88 0.32Q38.40 0.32 35.60-2.68L35.60-2.68Q32.96-5.56 32.96-10L32.96-10Q32.96-14.44 35.60-17.32L35.60-17.32Q38.40-20.32 42.88-20.32ZM42.88-2.40L42.88-2.40Q46.12-2.40 48-4.64L48-4.64Q49.80-6.76 49.80-10L49.80-10Q49.80-13.24 48-15.36L48-15.36Q46.12-17.60 42.88-17.60L42.88-17.60Q39.64-17.60 37.76-15.36L37.76-15.36Q35.96-13.24 35.96-10L35.96-10Q35.96-6.76 37.76-4.64L37.76-4.64Q39.64-2.40 42.88-2.40Z M63.76-20L63.76-16.96Q65.76-20.32 69.84-20.32L69.84-20.32Q71.84-20.32 73.54-19.26Q75.24-18.20 76.20-16.28L76.20-16.28Q77.56-18.80 80.44-19.88L80.44-19.88Q81.60-20.32 83.06-20.32Q84.52-20.32 85.86-19.74Q87.20-19.16 88.24-18.08L88.24-18.08Q90.48-15.68 90.48-12.08L90.48-12.08L90.48 0L87.48 0L87.48-12Q87.48-14.48 86.08-16.08L86.08-16.08Q84.68-17.60 82.52-17.60L82.52-17.60Q80.24-17.60 78.72-16.12L78.72-16.12Q77.12-14.60 77.12-11.96L77.12-11.96L77.12 0L74.12 0L74.12-12Q74.12-14.48 72.72-16.08L72.72-16.08Q71.32-17.60 69.16-17.60L69.16-17.60Q66.88-17.60 65.36-16.12L65.36-16.12Q63.76-14.60 63.76-11.96L63.76-11.96L63.76 0L60.76 0L60.76-20L63.76-20Z M102.48-20L102.48-16.96Q104.48-20.32 108.56-20.32L108.56-20.32Q110.56-20.32 112.26-19.26Q113.96-18.20 114.92-16.28L114.92-16.28Q116.28-18.80 119.16-19.88L119.16-19.88Q120.32-20.32 121.78-20.32Q123.24-20.32 124.58-19.74Q125.92-19.16 126.96-18.08L126.96-18.08Q129.20-15.68 129.20-12.08L129.20-12.08L129.20 0L126.20 0L126.20-12Q126.20-14.48 124.80-16.08L124.80-16.08Q123.40-17.60 121.24-17.60L121.24-17.60Q118.96-17.60 117.44-16.12L117.44-16.12Q115.84-14.60 115.84-11.96L115.84-11.96L115.84 0L112.84 0L112.84-12Q112.84-14.48 111.44-16.08L111.44-16.08Q110.04-17.60 107.88-17.60L107.88-17.60Q105.60-17.60 104.08-16.12L104.08-16.12Q102.48-14.60 102.48-11.96L102.48-11.96L102.48 0L99.48 0L99.48-20L102.48-20Z M155.44 0L152.44 0L152.44-3.12Q151.36-1.68 149.80-0.68Q148.24 0.32 146.24 0.32Q144.24 0.32 142.80-0.24Q141.36-0.80 140.28-1.92L140.28-1.92Q137.80-4.36 137.80-8.36L137.80-8.36L137.80-20L140.80-20L140.80-8.44Q140.80-5.68 142.36-4.04Q143.92-2.40 146.40-2.40L146.40-2.40Q148.92-2.40 150.68-4.08L150.68-4.08Q152.44-5.80 152.44-8.48L152.44-8.48L152.44-20L155.44-20L155.44 0Z M164.64-20L167.64-20L167.64-16.88Q168.72-18.32 170.28-19.32Q171.84-20.32 173.84-20.32Q175.84-20.32 177.28-19.76Q178.72-19.20 179.80-18.08L179.80-18.08Q182.28-15.64 182.28-11.64L182.28-11.64L182.28 0L179.28 0L179.28-11.56Q179.28-14.32 177.72-15.96Q176.16-17.60 173.68-17.60L173.68-17.60Q171.16-17.60 169.40-15.92L169.40-15.92Q167.64-14.20 167.64-11.52L167.64-11.52L167.64 0L164.64 0L164.64-20Z M191.28 0L191.28-20L194.28-20L194.28 0L191.28 0ZM191.16-27.28L194.40-27.28L194.40-23.36L191.16-23.36L191.16-27.28Z M208.64 0L205.64 0L205.64-17.36L201.56-17.36L201.56-20L205.64-20L205.64-27.16L208.64-27.16L208.64-20L213.24-20L213.24-17.36L208.64-17.36L208.64 0Z M237.68-20L225.84 7.92L222.60 7.92L226.24-0.28L218.08-20L221.40-20L227.84-3.60L234.40-20L237.68-20Z M259.36 7.16L256.92 7.16L256.92-29.92L259.36-29.92L259.36 7.16Z M271.08-22.84Q272.76-24.68 275.16-25.74Q277.56-26.80 280.12-26.80Q282.68-26.80 284.56-26.24Q286.44-25.68 287.96-24.72L287.96-24.72Q291.12-22.68 292.60-19.28L292.60-19.28L289.32-19.28Q288.12-21.44 285.98-22.66Q283.84-23.88 281.12-23.88Q278.40-23.88 276.48-23.06Q274.56-22.24 273.24-20.80L273.24-20.80Q270.52-17.84 270.52-13.24L270.52-13.24Q270.52-8.60 273.20-5.68L273.20-5.68Q276.04-2.60 280.72-2.60L280.72-2.60Q284.48-2.60 287.20-4.92L287.20-4.92Q290.08-7.36 290.08-11.36L290.08-11.36L280.40-11.36L280.40-14.08L292.84-14.08L292.84 0L290.08 0L290.08-4.68Q287.80-1.24 283.76-0.08L283.76-0.08Q282.28 0.32 279.86 0.32Q277.44 0.32 275.04-0.74Q272.64-1.80 270.96-3.64L270.96-3.64Q267.52-7.40 267.52-13.24L267.52-13.24Q267.52-19 271.08-22.84L271.08-22.84Z M317.08 0L317.08-3.20Q314.68 0.32 309.92 0.32L309.92 0.32Q305.60 0.32 302.88-2.68L302.88-2.68Q300.24-5.64 300.24-10L300.24-10Q300.24-14.36 302.88-17.32L302.88-17.32Q305.60-20.32 310.12-20.32Q314.64-20.32 317.08-16.76L317.08-16.76L317.08-20L320.08-20L320.08 0L317.08 0ZM310.32-2.40L310.32-2.40Q313.56-2.40 315.44-4.64L315.44-4.64Q317.24-6.76 317.24-10L317.24-10Q317.24-13.24 315.44-15.36L315.44-15.36Q313.56-17.60 310.32-17.60L310.32-17.60Q307.12-17.60 305.12-15.36L305.12-15.36Q303.24-13.24 303.24-10L303.24-10Q303.24-6.76 305.12-4.64L305.12-4.64Q307.12-2.40 310.32-2.40Z M332.28-20L332.28-16.96Q334.28-20.32 338.36-20.32L338.36-20.32Q340.36-20.32 342.06-19.26Q343.76-18.20 344.72-16.28L344.72-16.28Q346.08-18.80 348.96-19.88L348.96-19.88Q350.12-20.32 351.58-20.32Q353.04-20.32 354.38-19.74Q355.72-19.16 356.76-18.08L356.76-18.08Q359-15.68 359-12.08L359-12.08L359 0L356 0L356-12Q356-14.48 354.60-16.08L354.60-16.08Q353.20-17.60 351.04-17.60L351.04-17.60Q348.76-17.60 347.24-16.12L347.24-16.12Q345.64-14.60 345.64-11.96L345.64-11.96L345.64 0L342.64 0L342.64-12Q342.64-14.48 341.24-16.08L341.24-16.08Q339.84-17.60 337.68-17.60L337.68-17.60Q335.40-17.60 333.88-16.12L333.88-16.12Q332.28-14.60 332.28-11.96L332.28-11.96L332.28 0L329.28 0L329.28-20L332.28-20Z M368 0L368-20L371-20L371 0L368 0ZM367.88-27.28L371.12-27.28L371.12-23.36L367.88-23.36L367.88-27.28Z M380.20-20L383.20-20L383.20-16.88Q384.28-18.32 385.84-19.32Q387.40-20.32 389.40-20.32Q391.40-20.32 392.84-19.76Q394.28-19.20 395.36-18.08L395.36-18.08Q397.84-15.64 397.84-11.64L397.84-11.64L397.84 0L394.84 0L394.84-11.56Q394.84-14.32 393.28-15.96Q391.72-17.60 389.24-17.60L389.24-17.60Q386.72-17.60 384.96-15.92L384.96-15.92Q383.20-14.20 383.20-11.52L383.20-11.52L383.20 0L380.20 0L380.20-20Z M422.44-16.80L422.44-16.80L422.44-20L425.44-20L425.44-0.60Q425.44 3.72 422.98 5.98Q420.52 8.24 416.36 8.24Q412.20 8.24 409.86 6.64Q407.52 5.04 406.68 2.40L406.68 2.40L410.00 2.40Q411.28 5.52 415.84 5.52L415.84 5.52Q419.32 5.52 420.88 3.92Q422.44 2.32 422.44-0.80L422.44-0.80L422.44-3.56Q420.00 0 415.28 0L415.28 0Q410.96 0 408.24-2.96L408.24-2.96Q405.60-5.84 405.60-10.16L405.60-10.16Q405.60-14.48 408.24-17.36L408.24-17.36Q410.96-20.32 415.50-20.32Q420.04-20.32 422.44-16.80ZM415.68-2.72L415.68-2.72Q417.32-2.72 418.60-3.30Q419.88-3.88 420.80-4.88L420.80-4.88Q422.60-6.96 422.60-10.16L422.60-10.16Q422.60-13.36 420.80-15.44L420.80-15.44Q418.84-17.60 415.68-17.60L415.68-17.60Q412.44-17.60 410.48-15.44L410.48-15.44Q408.60-13.32 408.60-10.16L408.60-10.16Q408.60-7 410.48-4.88L410.48-4.88Q412.44-2.72 415.68-2.72Z M462.76 0L462.76-3.20Q460.36 0.32 455.60 0.32L455.60 0.32Q451.28 0.32 448.56-2.68L448.56-2.68Q445.92-5.64 445.92-10L445.92-10Q445.92-14.36 448.56-17.32L448.56-17.32Q451.28-20.32 455.80-20.32Q460.32-20.32 462.76-16.76L462.76-16.76L462.76-20L465.76-20L465.76 0L462.76 0ZM456.00-2.40L456.00-2.40Q459.24-2.40 461.12-4.64L461.12-4.64Q462.92-6.76 462.92-10L462.92-10Q462.92-13.24 461.12-15.36L461.12-15.36Q459.24-17.60 456.00-17.60L456.00-17.60Q452.80-17.60 450.80-15.36L450.80-15.36Q448.92-13.24 448.92-10L448.92-10Q448.92-6.76 450.80-4.64L450.80-4.64Q452.80-2.40 456.00-2.40Z M474.96-20L477.96-20L477.96-16.88Q479.04-18.32 480.60-19.32Q482.16-20.32 484.16-20.32Q486.16-20.32 487.60-19.76Q489.04-19.20 490.12-18.08L490.12-18.08Q492.60-15.64 492.60-11.64L492.60-11.64L492.60 0L489.60 0L489.60-11.56Q489.60-14.32 488.04-15.96Q486.48-17.60 484.00-17.60L484.00-17.60Q481.48-17.60 479.72-15.92L479.72-15.92Q477.96-14.20 477.96-11.52L477.96-11.52L477.96 0L474.96 0L474.96-20Z M517.20 0L517.20-3.20Q514.80 0.32 510.04 0.32L510.04 0.32Q505.72 0.32 503.00-2.68L503.00-2.68Q500.36-5.64 500.36-10L500.36-10Q500.36-14.36 503.00-17.32L503.00-17.32Q505.72-20.32 510.24-20.32Q514.76-20.32 517.20-16.76L517.20-16.76L517.20-28L520.20-28L520.20 0L517.20 0ZM510.44-2.40L510.44-2.40Q513.68-2.40 515.56-4.64L515.56-4.64Q517.36-6.76 517.36-10L517.36-10Q517.36-13.24 515.56-15.36L515.56-15.36Q513.68-17.60 510.44-17.60L510.44-17.60Q507.24-17.60 505.24-15.36L505.24-15.36Q503.36-13.24 503.36-10L503.36-10Q503.36-6.76 505.24-4.64L505.24-4.64Q507.24-2.40 510.44-2.40Z M551.16-2.40L551.16-2.40Q553.08-2.40 554.56-3.48Q556.04-4.56 556.72-6.28L556.72-6.28L559.96-6.28Q559.04-3.32 556.60-1.52L556.60-1.52Q554.04 0.32 550.52 0.32L550.52 0.32Q546.12 0.32 543.36-2.68L543.36-2.68Q540.68-5.60 540.68-10L540.68-10Q540.68-14.40 543.36-17.32L543.36-17.32Q546.12-20.32 550.52-20.32L550.52-20.32Q554.04-20.32 556.60-18.48L556.60-18.48Q559.04-16.68 559.96-13.72L559.96-13.72L556.72-13.72Q556.04-15.44 554.56-16.52Q553.08-17.60 551.16-17.60Q549.24-17.60 547.90-17Q546.56-16.40 545.64-15.36L545.64-15.36Q543.68-13.20 543.68-10L543.68-10Q543.68-6.80 545.64-4.64L545.64-4.64Q547.64-2.40 551.16-2.40Z M576.36-20.32L576.36-20.32Q580.84-20.32 583.64-17.32L583.64-17.32Q586.28-14.44 586.28-10L586.28-10Q586.28-5.56 583.64-2.68L583.64-2.68Q580.84 0.32 576.36 0.32L576.36 0.32Q571.88 0.32 569.08-2.68L569.08-2.68Q566.44-5.56 566.44-10L566.44-10Q566.44-14.44 569.08-17.32L569.08-17.32Q571.88-20.32 576.36-20.32ZM576.36-2.40L576.36-2.40Q579.60-2.40 581.48-4.64L581.48-4.64Q583.28-6.76 583.28-10L583.28-10Q583.28-13.24 581.48-15.36L581.48-15.36Q579.60-17.60 576.36-17.60L576.36-17.60Q573.12-17.60 571.24-15.36L571.24-15.36Q569.44-13.24 569.44-10L569.44-10Q569.44-6.76 571.24-4.64L571.24-4.64Q573.12-2.40 576.36-2.40Z M609.84 0L609.84-3.20Q607.44 0.32 602.68 0.32L602.68 0.32Q598.36 0.32 595.64-2.68L595.64-2.68Q593.00-5.64 593.00-10L593.00-10Q593.00-14.36 595.64-17.32L595.64-17.32Q598.36-20.32 602.88-20.32Q607.40-20.32 609.84-16.76L609.84-16.76L609.84-28L612.84-28L612.84 0L609.84 0ZM603.08-2.40L603.08-2.40Q606.32-2.40 608.20-4.64L608.20-4.64Q610.00-6.76 610.00-10L610.00-10Q610.00-13.24 608.20-15.36L608.20-15.36Q606.32-17.60 603.08-17.60L603.08-17.60Q599.88-17.60 597.88-15.36L597.88-15.36Q596.00-13.24 596.00-10L596.00-10Q596.00-6.76 597.88-4.64L597.88-4.64Q599.88-2.40 603.08-2.40Z M630.96-2.40L630.96-2.40Q635.00-2.40 636.76-5.76L636.76-5.76L640.04-5.76Q639.00-3.04 636.74-1.36Q634.48 0.32 630.92 0.32L630.92 0.32Q626.40 0.32 623.56-2.68L623.56-2.68Q620.80-5.60 620.80-10L620.80-10Q620.80-14.44 623.44-17.32L623.44-17.32Q626.24-20.32 630.72-20.32L630.72-20.32Q635.20-20.32 638.00-17.32L638.00-17.32Q640.64-14.44 640.64-10L640.64-10L640.64-8.80L623.88-8.80Q624.20-6.04 626.08-4.24L626.08-4.24Q628.00-2.40 630.96-2.40ZM630.72-17.60L630.72-17.60Q627.96-17.60 626.08-15.88L626.08-15.88Q624.32-14.24 623.92-11.60L623.92-11.60L637.52-11.60Q637.12-14.24 635.36-15.88L635.36-15.88Q633.48-17.60 630.72-17.60Z M650.76 7.16L648.32 7.16L648.32-29.92L650.76-29.92L650.76 7.16Z M692.24-23.60L676.12-23.60L676.12-14.40L690.48-14.40L690.48-11.48L676.12-11.48L676.12 0L673.12 0L673.12-26.48L692.24-26.48L692.24-23.60Z M703.44-10.16L703.44 0L700.44 0L700.44-26.48L713.12-26.48Q717.16-26.48 719.60-24.24L719.60-24.24Q722.04-22.04 722.04-18.20L722.04-18.20Q722.04-13.24 717.92-11.44L717.92-11.44Q716.76-10.92 715.64-10.68L715.64-10.68L722.60 0L719.04 0L712.64-10.16L703.44-10.16ZM703.44-23.64L703.44-13L712.60-13Q716.84-13 718.44-15.64L718.44-15.64Q719.04-16.64 719.04-18.20L719.04-18.20Q719.04-20.72 717.32-22.18Q715.60-23.64 712.76-23.64L712.76-23.64L703.44-23.64Z"/></g>
</svg>
</g><g opacity="1" transform="rotate(0 101.0315 418.9179)">
<svg width="397.8861" height="80" x="101.0315" y="418.9179" version="1.1" preserveAspectRatio="none" viewBox="3.32 -31.48 158.16 31.8">
  <g transform="matrix(1 0 0 1 0 0)" class="companyName"><path id="id-D6z1nYkh7" d="M15.44-28Q19.16-28 21.90-26.76Q24.64-25.52 26.12-23.24Q27.60-20.96 27.60-17.84L27.60-17.84Q27.60-14.76 26.12-12.46Q24.64-10.16 21.90-8.94Q19.16-7.72 15.44-7.72L15.44-7.72L9.80-7.72L9.80 0L3.32 0L3.32-28L15.44-28ZM15.08-13Q18-13 19.52-14.26Q21.04-15.52 21.04-17.84L21.04-17.84Q21.04-20.20 19.52-21.46Q18-22.72 15.08-22.72L15.08-22.72L9.80-22.72L9.80-13L15.08-13Z M31.76 0L31.76-21.52L38-21.52L38 0L31.76 0ZM34.88-24.52Q33.16-24.52 32.08-25.52Q31.00-26.52 31.00-28L31.00-28Q31.00-29.48 32.08-30.48Q33.16-31.48 34.88-31.48L34.88-31.48Q36.60-31.48 37.68-30.52Q38.76-29.56 38.76-28.12L38.76-28.12Q38.76-26.56 37.68-25.54Q36.60-24.52 34.88-24.52L34.88-24.52Z M59.84 0L53.04-8.44L50.04-5.48L50.04 0L43.80 0L43.80-29.68L50.04-29.68L50.04-12.88L59.16-21.52L66.60-21.52L57.64-12.40L67.40 0L59.84 0Z M78.48-21.84Q83.48-21.84 86.16-19.46Q88.84-17.08 88.84-12.28L88.84-12.28L88.84 0L83 0L83-2.68Q81.24 0.32 76.44 0.32L76.44 0.32Q73.96 0.32 72.14-0.52Q70.32-1.36 69.36-2.84Q68.40-4.32 68.40-6.20L68.40-6.20Q68.40-9.20 70.66-10.92Q72.92-12.64 77.64-12.64L77.64-12.64L82.60-12.64Q82.60-14.68 81.36-15.78Q80.12-16.88 77.64-16.88L77.64-16.88Q75.92-16.88 74.26-16.34Q72.60-15.80 71.44-14.88L71.44-14.88L69.20-19.24Q70.96-20.48 73.42-21.16Q75.88-21.84 78.48-21.84L78.48-21.84ZM78-3.88Q79.60-3.88 80.84-4.62Q82.08-5.36 82.60-6.80L82.60-6.80L82.60-9L78.32-9Q74.48-9 74.48-6.48L74.48-6.48Q74.48-5.28 75.42-4.58Q76.36-3.88 78-3.88L78-3.88Z M119.24-28L108.36-9.92L108.36 0L101.88 0L101.88-10L91.04-28L97.92-28L105.40-15.56L112.88-28L119.24-28Z M135.56-21.52L141.80-21.52L141.80 0L135.88 0L135.88-2.56Q134.64-1.16 132.92-0.42Q131.20 0.32 129.20 0.32L129.20 0.32Q124.96 0.32 122.48-2.12Q120.00-4.56 120.00-9.36L120.00-9.36L120.00-21.52L126.24-21.52L126.24-10.28Q126.24-5.08 130.60-5.08L130.60-5.08Q132.84-5.08 134.20-6.54Q135.56-8 135.56-10.88L135.56-10.88L135.56-21.52Z M159.80-5.44L161.48-1.04Q160.56-0.36 159.22-0.02Q157.88 0.32 156.40 0.32L156.40 0.32Q152.56 0.32 150.46-1.64Q148.36-3.60 148.36-7.40L148.36-7.40L148.36-16.24L145.04-16.24L145.04-21.04L148.36-21.04L148.36-26.28L154.60-26.28L154.60-21.04L159.96-21.04L159.96-16.24L154.60-16.24L154.60-7.48Q154.60-6.12 155.30-5.38Q156.00-4.64 157.28-4.64L157.28-4.64Q158.76-4.64 159.80-5.44L159.80-5.44Z"/></g>
</svg>
</g></svg></svg>