<svg version="1.1" preserveAspectRatio="none" xmlns="http://www.w3.org/2000/svg" width="500" height="500" viewBox="0 0 500 500"><rect width="100%" height="100%" fill="#101F37" fill-opacity="1"/><svg viewBox="80.8486 382.1407 396.8415 182.757" width="333" height="153.35614092780114" x="83.5px" y="173.3219px" xmlns="http://www.w3.org/2000/svg" xmlns:xlink="http://www.w3.org/1999/xlink" preserveAspectRatio="none"><defs></defs><style>.companyName {fill:#E9B0D6;fill-opacity:1;}.icon1 {fill:#929292;fill-opacity:1;}.icon2 {fill:#E9B0D6;fill-opacity:1;}.icon3 {fill:#E5E5E5;fill-opacity:1;}.icon3-str {stroke:#E5E5E5;stroke-opacity:1;}.text {fill:#E9B0D6;fill-opacity:1;}</style><g opacity="1" transform="rotate(0 80.8486 543.8977)">
<svg width="396.8415" height="21" x="80.8486" y="543.8977" version="1.1" preserveAspectRatio="none" viewBox="1.56 -29.92 721.0400000000001 38.16">
  <g transform="matrix(1 0 0 1 0 0)" class="text"><path id="id-6izo4zJp30" d="M15.04-2.60L15.04-2.60Q17.88-2.60 20.02-4.04Q22.16-5.48 23.20-7.92L23.20-7.92L26.36-7.92Q25.04-4.16 22-2L22-2Q18.76 0.32 14.36 0.32L14.36 0.32Q8.56 0.32 4.96-3.64L4.96-3.64Q1.56-7.44 1.56-13.24Q1.56-19.04 4.96-22.84L4.96-22.84Q8.56-26.80 14.36-26.80L14.36-26.80Q18.76-26.80 22-24.48L22-24.48Q25.04-22.32 26.36-18.56L26.36-18.56L23.20-18.56Q22.16-21 20.02-22.44Q17.88-23.88 15.04-23.88Q12.20-23.88 10.32-23.06Q8.44-22.24 7.16-20.80L7.16-20.80Q4.56-17.88 4.56-13.24L4.56-13.24Q4.56-8.60 7.16-5.68L7.16-5.68Q9.88-2.60 15.04-2.60Z M42.88-20.32L42.88-20.32Q47.36-20.32 50.16-17.32L50.16-17.32Q52.80-14.44 52.80-10L52.80-10Q52.80-5.56 50.16-2.68L50.16-2.68Q47.36 0.32 42.88 0.32L42.88 0.32Q38.40 0.32 35.60-2.68L35.60-2.68Q32.96-5.56 32.96-10L32.96-10Q32.96-14.44 35.60-17.32L35.60-17.32Q38.40-20.32 42.88-20.32ZM42.88-2.40L42.88-2.40Q46.12-2.40 48-4.64L48-4.64Q49.80-6.76 49.80-10L49.80-10Q49.80-13.24 48-15.36L48-15.36Q46.12-17.60 42.88-17.60L42.88-17.60Q39.64-17.60 37.76-15.36L37.76-15.36Q35.96-13.24 35.96-10L35.96-10Q35.96-6.76 37.76-4.64L37.76-4.64Q39.64-2.40 42.88-2.40Z M63.76-20L63.76-16.96Q65.76-20.32 69.84-20.32L69.84-20.32Q71.84-20.32 73.54-19.26Q75.24-18.20 76.20-16.28L76.20-16.28Q77.56-18.80 80.44-19.88L80.44-19.88Q81.60-20.32 83.06-20.32Q84.52-20.32 85.86-19.74Q87.20-19.16 88.24-18.08L88.24-18.08Q90.48-15.68 90.48-12.08L90.48-12.08L90.48 0L87.48 0L87.48-12Q87.48-14.48 86.08-16.08L86.08-16.08Q84.68-17.60 82.52-17.60L82.52-17.60Q80.24-17.60 78.72-16.12L78.72-16.12Q77.12-14.60 77.12-11.96L77.12-11.96L77.12 0L74.12 0L74.12-12Q74.12-14.48 72.72-16.08L72.72-16.08Q71.32-17.60 69.16-17.60L69.16-17.60Q66.88-17.60 65.36-16.12L65.36-16.12Q63.76-14.60 63.76-11.96L63.76-11.96L63.76 0L60.76 0L60.76-20L63.76-20Z M102.48-20L102.48-16.96Q104.48-20.32 108.56-20.32L108.56-20.32Q110.56-20.32 112.26-19.26Q113.96-18.20 114.92-16.28L114.92-16.28Q116.28-18.80 119.16-19.88L119.16-19.88Q120.32-20.32 121.78-20.32Q123.24-20.32 124.58-19.74Q125.92-19.16 126.96-18.08L126.96-18.08Q129.20-15.68 129.20-12.08L129.20-12.08L129.20 0L126.20 0L126.20-12Q126.20-14.48 124.80-16.08L124.80-16.08Q123.40-17.60 121.24-17.60L121.24-17.60Q118.96-17.60 117.44-16.12L117.44-16.12Q115.84-14.60 115.84-11.96L115.84-11.96L115.84 0L112.84 0L112.84-12Q112.84-14.48 111.44-16.08L111.44-16.08Q110.04-17.60 107.88-17.60L107.88-17.60Q105.60-17.60 104.08-16.12L104.08-16.12Q102.48-14.60 102.48-11.96L102.48-11.96L102.48 0L99.48 0L99.48-20L102.48-20Z M155.44 0L152.44 0L152.44-3.12Q151.36-1.68 149.80-0.68Q148.24 0.32 146.24 0.32Q144.24 0.32 142.80-0.24Q141.36-0.80 140.28-1.92L140.28-1.92Q137.80-4.36 137.80-8.36L137.80-8.36L137.80-20L140.80-20L140.80-8.44Q140.80-5.68 142.36-4.04Q143.92-2.40 146.40-2.40L146.40-2.40Q148.92-2.40 150.68-4.08L150.68-4.08Q152.44-5.80 152.44-8.48L152.44-8.48L152.44-20L155.44-20L155.44 0Z M164.64-20L167.64-20L167.64-16.88Q168.72-18.32 170.28-19.32Q171.84-20.32 173.84-20.32Q175.84-20.32 177.28-19.76Q178.72-19.20 179.80-18.08L179.80-18.08Q182.28-15.64 182.28-11.64L182.28-11.64L182.28 0L179.28 0L179.28-11.56Q179.28-14.32 177.72-15.96Q176.16-17.60 173.68-17.60L173.68-17.60Q171.16-17.60 169.40-15.92L169.40-15.92Q167.64-14.20 167.64-11.52L167.64-11.52L167.64 0L164.64 0L164.64-20Z M191.28 0L191.28-20L194.28-20L194.28 0L191.28 0ZM191.16-27.28L194.40-27.28L194.40-23.36L191.16-23.36L191.16-27.28Z M208.64 0L205.64 0L205.64-17.36L201.56-17.36L201.56-20L205.64-20L205.64-27.16L208.64-27.16L208.64-20L213.24-20L213.24-17.36L208.64-17.36L208.64 0Z M237.68-20L225.84 7.92L222.60 7.92L226.24-0.28L218.08-20L221.40-20L227.84-3.60L234.40-20L237.68-20Z M259.36 7.16L256.92 7.16L256.92-29.92L259.36-29.92L259.36 7.16Z M271.08-22.84Q272.76-24.68 275.16-25.74Q277.56-26.80 280.12-26.80Q282.68-26.80 284.56-26.24Q286.44-25.68 287.96-24.72L287.96-24.72Q291.12-22.68 292.60-19.28L292.60-19.28L289.32-19.28Q288.12-21.44 285.98-22.66Q283.84-23.88 281.12-23.88Q278.40-23.88 276.48-23.06Q274.56-22.24 273.24-20.80L273.24-20.80Q270.52-17.84 270.52-13.24L270.52-13.24Q270.52-8.60 273.20-5.68L273.20-5.68Q276.04-2.60 280.72-2.60L280.72-2.60Q284.48-2.60 287.20-4.92L287.20-4.92Q290.08-7.36 290.08-11.36L290.08-11.36L280.40-11.36L280.40-14.08L292.84-14.08L292.84 0L290.08 0L290.08-4.68Q287.80-1.24 283.76-0.08L283.76-0.08Q282.28 0.32 279.86 0.32Q277.44 0.32 275.04-0.74Q272.64-1.80 270.96-3.64L270.96-3.64Q267.52-7.40 267.52-13.24L267.52-13.24Q267.52-19 271.08-22.84L271.08-22.84Z M317.08 0L317.08-3.20Q314.68 0.32 309.92 0.32L309.92 0.32Q305.60 0.32 302.88-2.68L302.88-2.68Q300.24-5.64 300.24-10L300.24-10Q300.24-14.36 302.88-17.32L302.88-17.32Q305.60-20.32 310.12-20.32Q314.64-20.32 317.08-16.76L317.08-16.76L317.08-20L320.08-20L320.08 0L317.08 0ZM310.32-2.40L310.32-2.40Q313.56-2.40 315.44-4.64L315.44-4.64Q317.24-6.76 317.24-10L317.24-10Q317.24-13.24 315.44-15.36L315.44-15.36Q313.56-17.60 310.32-17.60L310.32-17.60Q307.12-17.60 305.12-15.36L305.12-15.36Q303.24-13.24 303.24-10L303.24-10Q303.24-6.76 305.12-4.64L305.12-4.64Q307.12-2.40 310.32-2.40Z M332.28-20L332.28-16.96Q334.28-20.32 338.36-20.32L338.36-20.32Q340.36-20.32 342.06-19.26Q343.76-18.20 344.72-16.28L344.72-16.28Q346.08-18.80 348.96-19.88L348.96-19.88Q350.12-20.32 351.58-20.32Q353.04-20.32 354.38-19.74Q355.72-19.16 356.76-18.08L356.76-18.08Q359-15.68 359-12.08L359-12.08L359 0L356 0L356-12Q356-14.48 354.60-16.08L354.60-16.08Q353.20-17.60 351.04-17.60L351.04-17.60Q348.76-17.60 347.24-16.12L347.24-16.12Q345.64-14.60 345.64-11.96L345.64-11.96L345.64 0L342.64 0L342.64-12Q342.64-14.48 341.24-16.08L341.24-16.08Q339.84-17.60 337.68-17.60L337.68-17.60Q335.40-17.60 333.88-16.12L333.88-16.12Q332.28-14.60 332.28-11.96L332.28-11.96L332.28 0L329.28 0L329.28-20L332.28-20Z M368 0L368-20L371-20L371 0L368 0ZM367.88-27.28L371.12-27.28L371.12-23.36L367.88-23.36L367.88-27.28Z M380.20-20L383.20-20L383.20-16.88Q384.28-18.32 385.84-19.32Q387.40-20.32 389.40-20.32Q391.40-20.32 392.84-19.76Q394.28-19.20 395.36-18.08L395.36-18.08Q397.84-15.64 397.84-11.64L397.84-11.64L397.84 0L394.84 0L394.84-11.56Q394.84-14.32 393.28-15.96Q391.72-17.60 389.24-17.60L389.24-17.60Q386.72-17.60 384.96-15.92L384.96-15.92Q383.20-14.20 383.20-11.52L383.20-11.52L383.20 0L380.20 0L380.20-20Z M422.44-16.80L422.44-16.80L422.44-20L425.44-20L425.44-0.60Q425.44 3.72 422.98 5.98Q420.52 8.24 416.36 8.24Q412.20 8.24 409.86 6.64Q407.52 5.04 406.68 2.40L406.68 2.40L410.00 2.40Q411.28 5.52 415.84 5.52L415.84 5.52Q419.32 5.52 420.88 3.92Q422.44 2.32 422.44-0.80L422.44-0.80L422.44-3.56Q420.00 0 415.28 0L415.28 0Q410.96 0 408.24-2.96L408.24-2.96Q405.60-5.84 405.60-10.16L405.60-10.16Q405.60-14.48 408.24-17.36L408.24-17.36Q410.96-20.32 415.50-20.32Q420.04-20.32 422.44-16.80ZM415.68-2.72L415.68-2.72Q417.32-2.72 418.60-3.30Q419.88-3.88 420.80-4.88L420.80-4.88Q422.60-6.96 422.60-10.16L422.60-10.16Q422.60-13.36 420.80-15.44L420.80-15.44Q418.84-17.60 415.68-17.60L415.68-17.60Q412.44-17.60 410.48-15.44L410.48-15.44Q408.60-13.32 408.60-10.16L408.60-10.16Q408.60-7 410.48-4.88L410.48-4.88Q412.44-2.72 415.68-2.72Z M462.76 0L462.76-3.20Q460.36 0.32 455.60 0.32L455.60 0.32Q451.28 0.32 448.56-2.68L448.56-2.68Q445.92-5.64 445.92-10L445.92-10Q445.92-14.36 448.56-17.32L448.56-17.32Q451.28-20.32 455.80-20.32Q460.32-20.32 462.76-16.76L462.76-16.76L462.76-20L465.76-20L465.76 0L462.76 0ZM456.00-2.40L456.00-2.40Q459.24-2.40 461.12-4.64L461.12-4.64Q462.92-6.76 462.92-10L462.92-10Q462.92-13.24 461.12-15.36L461.12-15.36Q459.24-17.60 456.00-17.60L456.00-17.60Q452.80-17.60 450.80-15.36L450.80-15.36Q448.92-13.24 448.92-10L448.92-10Q448.92-6.76 450.80-4.64L450.80-4.64Q452.80-2.40 456.00-2.40Z M474.96-20L477.96-20L477.96-16.88Q479.04-18.32 480.60-19.32Q482.16-20.32 484.16-20.32Q486.16-20.32 487.60-19.76Q489.04-19.20 490.12-18.08L490.12-18.08Q492.60-15.64 492.60-11.64L492.60-11.64L492.60 0L489.60 0L489.60-11.56Q489.60-14.32 488.04-15.96Q486.48-17.60 484.00-17.60L484.00-17.60Q481.48-17.60 479.72-15.92L479.72-15.92Q477.96-14.20 477.96-11.52L477.96-11.52L477.96 0L474.96 0L474.96-20Z M517.20 0L517.20-3.20Q514.80 0.32 510.04 0.32L510.04 0.32Q505.72 0.32 503.00-2.68L503.00-2.68Q500.36-5.64 500.36-10L500.36-10Q500.36-14.36 503.00-17.32L503.00-17.32Q505.72-20.32 510.24-20.32Q514.76-20.32 517.20-16.76L517.20-16.76L517.20-28L520.20-28L520.20 0L517.20 0ZM510.44-2.40L510.44-2.40Q513.68-2.40 515.56-4.64L515.56-4.64Q517.36-6.76 517.36-10L517.36-10Q517.36-13.24 515.56-15.36L515.56-15.36Q513.68-17.60 510.44-17.60L510.44-17.60Q507.24-17.60 505.24-15.36L505.24-15.36Q503.36-13.24 503.36-10L503.36-10Q503.36-6.76 505.24-4.64L505.24-4.64Q507.24-2.40 510.44-2.40Z M551.16-2.40L551.16-2.40Q553.08-2.40 554.56-3.48Q556.04-4.56 556.72-6.28L556.72-6.28L559.96-6.28Q559.04-3.32 556.60-1.52L556.60-1.52Q554.04 0.32 550.52 0.32L550.52 0.32Q546.12 0.32 543.36-2.68L543.36-2.68Q540.68-5.60 540.68-10L540.68-10Q540.68-14.40 543.36-17.32L543.36-17.32Q546.12-20.32 550.52-20.32L550.52-20.32Q554.04-20.32 556.60-18.48L556.60-18.48Q559.04-16.68 559.96-13.72L559.96-13.72L556.72-13.72Q556.04-15.44 554.56-16.52Q553.08-17.60 551.16-17.60Q549.24-17.60 547.90-17Q546.56-16.40 545.64-15.36L545.64-15.36Q543.68-13.20 543.68-10L543.68-10Q543.68-6.80 545.64-4.64L545.64-4.64Q547.64-2.40 551.16-2.40Z M576.36-20.32L576.36-20.32Q580.84-20.32 583.64-17.32L583.64-17.32Q586.28-14.44 586.28-10L586.28-10Q586.28-5.56 583.64-2.68L583.64-2.68Q580.84 0.32 576.36 0.32L576.36 0.32Q571.88 0.32 569.08-2.68L569.08-2.68Q566.44-5.56 566.44-10L566.44-10Q566.44-14.44 569.08-17.32L569.08-17.32Q571.88-20.32 576.36-20.32ZM576.36-2.40L576.36-2.40Q579.60-2.40 581.48-4.64L581.48-4.64Q583.28-6.76 583.28-10L583.28-10Q583.28-13.24 581.48-15.36L581.48-15.36Q579.60-17.60 576.36-17.60L576.36-17.60Q573.12-17.60 571.24-15.36L571.24-15.36Q569.44-13.24 569.44-10L569.44-10Q569.44-6.76 571.24-4.64L571.24-4.64Q573.12-2.40 576.36-2.40Z M609.84 0L609.84-3.20Q607.44 0.32 602.68 0.32L602.68 0.32Q598.36 0.32 595.64-2.68L595.64-2.68Q593.00-5.64 593.00-10L593.00-10Q593.00-14.36 595.64-17.32L595.64-17.32Q598.36-20.32 602.88-20.32Q607.40-20.32 609.84-16.76L609.84-16.76L609.84-28L612.84-28L612.84 0L609.84 0ZM603.08-2.40L603.08-2.40Q606.32-2.40 608.20-4.64L608.20-4.64Q610.00-6.76 610.00-10L610.00-10Q610.00-13.24 608.20-15.36L608.20-15.36Q606.32-17.60 603.08-17.60L603.08-17.60Q599.88-17.60 597.88-15.36L597.88-15.36Q596.00-13.24 596.00-10L596.00-10Q596.00-6.76 597.88-4.64L597.88-4.64Q599.88-2.40 603.08-2.40Z M630.96-2.40L630.96-2.40Q635.00-2.40 636.76-5.76L636.76-5.76L640.04-5.76Q639.00-3.04 636.74-1.36Q634.48 0.32 630.92 0.32L630.92 0.32Q626.40 0.32 623.56-2.68L623.56-2.68Q620.80-5.60 620.80-10L620.80-10Q620.80-14.44 623.44-17.32L623.44-17.32Q626.24-20.32 630.72-20.32L630.72-20.32Q635.20-20.32 638.00-17.32L638.00-17.32Q640.64-14.44 640.64-10L640.64-10L640.64-8.80L623.88-8.80Q624.20-6.04 626.08-4.24L626.08-4.24Q628.00-2.40 630.96-2.40ZM630.72-17.60L630.72-17.60Q627.96-17.60 626.08-15.88L626.08-15.88Q624.32-14.24 623.92-11.60L623.92-11.60L637.52-11.60Q637.12-14.24 635.36-15.88L635.36-15.88Q633.48-17.60 630.72-17.60Z M650.76 7.16L648.32 7.16L648.32-29.92L650.76-29.92L650.76 7.16Z M692.24-23.60L676.12-23.60L676.12-14.40L690.48-14.40L690.48-11.48L676.12-11.48L676.12 0L673.12 0L673.12-26.48L692.24-26.48L692.24-23.60Z M703.44-10.16L703.44 0L700.44 0L700.44-26.48L713.12-26.48Q717.16-26.48 719.60-24.24L719.60-24.24Q722.04-22.04 722.04-18.20L722.04-18.20Q722.04-13.24 717.92-11.44L717.92-11.44Q716.76-10.92 715.64-10.68L715.64-10.68L722.60 0L719.04 0L712.64-10.16L703.44-10.16ZM703.44-23.64L703.44-13L712.60-13Q716.84-13 718.44-15.64L718.44-15.64Q719.04-16.64 719.04-18.20L719.04-18.20Q719.04-20.72 717.32-22.18Q715.60-23.64 712.76-23.64L712.76-23.64L703.44-23.64Z"/></g>
</svg>
</g><g opacity="1" transform="rotate(0 90.923 461.8977)">
<svg width="376.6927" height="60" x="90.923" y="461.8977" version="1.1" preserveAspectRatio="none" viewBox="4.3359 -32.4023 206.004 32.8125">
  <g transform="matrix(1 0 0 1 0 0)" class="companyName"><path id="id-D6z1nYkh7" d="M4.34 0L4.34-30.53L20.43-30.53Q23.95-30.53 26.52-29.77Q29.10-29.00 30.80-27.57Q32.50-26.13 33.33-24.06Q34.16-21.99 34.16-19.39L34.16-19.39Q34.16-16.95 33.34-14.88Q32.52-12.81 30.83-11.30Q29.14-9.79 26.56-8.94Q23.98-8.09 20.47-8.09L20.47-8.09L10.53-8.11L10.53 0L4.34 0ZM10.53-13.46L20.59-13.46Q22.34-13.46 23.66-13.88Q24.98-14.30 25.87-15.07Q26.76-15.84 27.20-16.94Q27.64-18.05 27.64-19.39L27.64-19.39Q27.64-22.11 25.87-23.62Q24.10-25.14 20.59-25.14L20.59-25.14L10.53-25.14L10.53-13.46Z M45.24-26.19L45.24-26.19Q44.38-26.19 43.69-26.44Q43.00-26.68 42.51-27.10Q42.02-27.52 41.76-28.08Q41.49-28.63 41.49-29.26L41.49-29.26Q41.49-29.90 41.76-30.46Q42.02-31.02 42.51-31.43Q43.00-31.84 43.69-32.08Q44.38-32.32 45.24-32.32L45.24-32.32Q46.12-32.32 46.81-32.08Q47.51-31.84 48.00-31.43Q48.48-31.02 48.75-30.46Q49.01-29.90 49.01-29.26L49.01-29.26Q49.01-28.63 48.75-28.08Q48.48-27.52 48.00-27.10Q47.51-26.68 46.81-26.44Q46.12-26.19 45.24-26.19ZM42.35 0L42.35-23.05L48.13-23.05L48.13 0L42.35 0Z M57.55 0L57.55-32.40L63.34-32.40L63.34-13.26L74.12-23.05L82.96-23.05L70.91-12.27L83.73 0L75.05 0L66.48-8.30L63.34-5.49L63.34 0L57.55 0Z M88.44-7.27L88.44-7.27Q88.44-8.93 89.16-10.29Q89.89-11.66 91.33-12.65Q92.78-13.63 94.94-14.17Q97.09-14.71 99.96-14.71L99.96-14.71Q102.09-14.71 104.45-14.39Q106.80-14.08 109.30-13.44L109.30-13.44Q109.20-14.53 108.64-15.46Q108.07-16.39 107.06-17.06Q106.06-17.73 104.64-18.11Q103.23-18.48 101.43-18.48L101.43-18.48Q100.45-18.48 99.28-18.36Q98.11-18.24 96.86-18.01Q95.61-17.77 94.39-17.42Q93.17-17.07 92.11-16.58L92.11-16.58L90.36-21.33Q91.66-21.80 93.16-22.19Q94.65-22.58 96.21-22.86Q97.78-23.14 99.34-23.30Q100.90-23.46 102.37-23.46L102.37-23.46Q108.83-23.46 111.98-20.16Q115.12-16.86 115.12-10.04L115.12-10.04L115.12 0L109.34 0L109.34-2.17Q108.44-1.64 107.38-1.17Q106.31-0.70 105.06-0.35Q103.81 0 102.38 0.21Q100.94 0.41 99.34 0.41L99.34 0.41Q96.64 0.41 94.60-0.18Q92.56-0.76 91.20-1.80Q89.83-2.83 89.13-4.23Q88.44-5.63 88.44-7.27ZM94.54-7.46L94.54-7.46Q94.54-6.89 94.83-6.38Q95.12-5.86 95.77-5.46Q96.41-5.06 97.42-4.81Q98.42-4.57 99.85-4.57L99.85-4.57Q101.37-4.57 102.80-4.84Q104.22-5.12 105.45-5.57Q106.68-6.02 107.68-6.60Q108.68-7.19 109.34-7.81L109.34-7.81L109.34-8.83Q108.01-9.20 106.71-9.45Q105.41-9.71 104.23-9.85Q103.05-10 102.01-10.06Q100.96-10.12 100.18-10.12L100.18-10.12Q98.56-10.12 97.48-9.90Q96.41-9.69 95.75-9.33Q95.08-8.96 94.81-8.48Q94.54-7.99 94.54-7.46Z M134.84 0L134.84-7.56L121.50-30.53L128.51-30.53L137.90-13.16L147.18-30.53L154.19-30.53L141.03-7.60L141.03 0L134.84 0Z M160.16-11.00L160.16-23.07L165.92-23.07L165.92-11.82Q165.92-10.21 166.27-8.90Q166.62-7.58 167.47-6.64Q168.32-5.70 169.74-5.19Q171.15-4.67 173.26-4.67L173.26-4.67Q174.26-4.67 175.28-4.88Q176.31-5.10 177.25-5.48Q178.18-5.86 178.99-6.39Q179.80-6.91 180.39-7.54L180.39-7.54L180.39-23.07L186.17-23.07L186.17 0L180.39 0L180.39-1.97Q178.26-0.70 176.11-0.16Q173.96 0.39 172.03 0.39L172.03 0.39Q168.87 0.39 166.61-0.37Q164.36-1.13 162.92-2.59Q161.48-4.04 160.82-6.16Q160.16-8.28 160.16-11.00L160.16-11.00Z M198.99 0L198.99-18.71L193.43-18.71L193.43-23.05L198.99-23.05L198.99-30.21L204.77-30.21L204.77-23.05L210.34-23.05L210.34-18.71L204.77-18.71L204.77 0L198.99 0Z"/></g>
</svg>
</g><g opacity="1" transform="rotate(0 203.9308 382.1407)">
<svg width="150.6771" height="49.757" x="203.9308" y="382.1407" version="1.1" preserveAspectRatio="none" viewBox="5.000001907348633 34.61000061035156 90 29.720001220703125">
  <g transform="matrix(1 0 0 1 0 0)" class="icon1"><title>Mountain</title><g data-name="Layer 2"><path d="M83.56,53.24c-1.31.51-2.8,1.07-4.48,1.81-1.23-1.44-2.36-3-3.75-4.41,0-.07-5.74-4.24-9.91-7A21.85,21.85,0,0,0,59.82,47c-3.06-2.89-5.93-6-7.71-10a5.64,5.64,0,0,0-2.64-2.39,51.61,51.61,0,0,0-12.9,5.88c-1.45,1-2,2.88-3.67,3.84-.14.09-19.06,13.34-27.9,20H95C91.64,61,87.82,55.58,83.56,53.24ZM48.69,41c0,5.76-4.1,10.65-6.69,16.93a47.61,47.61,0,0,1-6.56-3A46.79,46.79,0,0,1,28,58.15,22.67,22.67,0,0,0,24.67,60c-1-.56-1.77-1.12-2.56-1.5-3.07.81-5.85,2.37-8.79,3.53,2.42-3,8.23-5.34,21.41-14.49,1.89-3.24,5-5.42,6.35-7.1,3.14-1.09,2.14-1.71,7.85-3.53a4.88,4.88,0,0,0-.5,1.9C48.43,39.52,48.69,40.27,48.69,41ZM67.81,54.58c-2.33-1.59-4.15-4.32-6.46-6,1.23-.93,2.83-2.05,4.23-3A9.5,9.5,0,0,1,68,52.31,19.37,19.37,0,0,1,67.81,54.58Zm16.46,3.29c-1.21-.57-2.52-.87-3.77-1.38A38.24,38.24,0,0,1,84,54.74c1.63,1.82,3.76,3.14,5.14,5.12C87.46,59.23,85.82,58.59,84.27,57.87Z"></path></g></g>
</svg>
</g></svg></svg>