<svg version="1.1" preserveAspectRatio="none" xmlns="http://www.w3.org/2000/svg" width="500" height="500" viewBox="0 0 500 500"><rect width="100%" height="100%" fill="#F9F7F7" fill-opacity="1"/><svg viewBox="121.9348 213.5341 482.4373 161" width="333" height="111.12946697943961" x="83.5px" y="194.4353px" xmlns="http://www.w3.org/2000/svg" xmlns:xlink="http://www.w3.org/1999/xlink" preserveAspectRatio="none"><defs></defs><style>.aq6WP-wJgVstrokeColor-str {stroke:#0C0C0C;stroke-opacity:1;}.companyName {fill:#2C3E57;fill-opacity:1;}.icon1 {fill:#9C8B58;fill-opacity:1;}.icon3 {fill:#C8B889;fill-opacity:1;}.icon3-str {stroke:#C8B889;stroke-opacity:1;}.shape {fill:#9C8B58;fill-opacity:1;}.shapeStroke-str {stroke:#2C3E57;stroke-opacity:1;}.text {fill:#1A1245;fill-opacity:1;}</style><g opacity="1" transform="rotate(0 121.9348 318.5341)">
<svg width="201.2186" height="1.4" x="121.9348" y="318.5341" version="1.1" preserveAspectRatio="none" viewBox="0 0 201.2186 1.4">
  <defs><rect x="0" y="0" width="201.2186" height="1.4" rx="0px" ry="0px" id="id-5kldYRpCP1676915554787"></rect></defs><use class="icon1 shapeStroke-str" style="stroke-width:0;" xlink:href="#id-5kldYRpCP1676915554787"></use>
</svg>
</g><g opacity="1" transform="rotate(0 339.7204 302.2341)">
<svg width="46.8661" height="32" x="339.7204" y="302.2341" version="1.1" preserveAspectRatio="none" viewBox="19.99881172180176 45.37599182128906 160.0006866455078 109.24801635742188">
  <g transform="matrix(1 0 0 1 0 0)" ><g><path d="M120.23 154.624c-6.238 0-12.903-.92-19.976-2.761a2.286 2.286 0 0 1-1.709-2.033c-1.549-19.328 2.791-34.715 12.903-45.73 12.783-13.927 35.069-21.078 66.247-21.254.665.166 1.334.296 1.768.818.439.522.622 1.212.499 1.883-5.591 30.676-16.503 51.385-32.436 61.552-7.852 5.011-16.988 7.525-27.296 7.525zm-17.236-6.797c16.793 4.065 30.936 2.514 42.066-4.589 14.356-9.157 24.399-27.914 29.879-55.776-28.387.558-48.602 7.193-60.116 19.735-8.931 9.733-12.907 23.398-11.829 40.63z" data-color="1" class="icon1"></path><path d="M79.769 154.624c-10.31 0-19.443-2.51-27.297-7.525-15.934-10.167-26.847-30.876-32.436-61.552a2.29 2.29 0 0 1 2.255-2.701h.013c31.178.177 53.468 7.329 66.249 21.254 10.107 11.015 14.449 26.402 12.898 45.73a2.286 2.286 0 0 1-1.709 2.033c-7.071 1.84-13.737 2.761-19.973 2.761zM25.063 87.462c5.48 27.861 15.523 46.619 29.875 55.776 11.136 7.108 25.279 8.65 42.063 4.589 1.084-17.232-2.891-30.897-11.822-40.63C73.667 94.655 53.45 88.02 25.063 87.462zm74.105 62.185h.043-.043z" data-color="1" class="icon1"></path><path d="M101.456 150.277c-.464 0-.929-.145-1.329-.426-15.8-11.237-24.795-24.45-26.736-39.275-2.452-18.742 6.398-40.412 26.302-64.411.869-1.052 2.659-1.052 3.528 0 19.904 23.999 28.754 45.668 26.3 64.411-1.939 14.824-10.934 28.038-26.734 39.275a2.325 2.325 0 0 1-1.331.426zm0-99.032c-17.82 22.107-25.731 41.857-23.523 58.739 1.715 13.099 9.626 24.923 23.523 35.171 13.895-10.248 21.808-22.073 23.521-35.171 2.212-16.882-5.701-36.632-23.521-58.739z" data-color="1" class="icon1"></path></g></g>
</svg>
</g><g opacity="1" transform="rotate(0 121.9348 353.5341)">
<svg width="482.4373" height="21" x="121.9348" y="353.5341" version="1.1" preserveAspectRatio="none" viewBox="2.08 -29.68 860.12 37.44">
  <g transform="matrix(1 0 0 1 0 0)" class="text"><path id="id-6izo4zJp30" d="M16.72 0.24Q12.56 0.24 9.22-1.60Q5.88-3.44 3.98-6.70Q2.08-9.96 2.08-14L2.08-14Q2.08-18.04 3.98-21.30Q5.88-24.56 9.24-26.40Q12.60-28.24 16.76-28.24L16.76-28.24Q19.88-28.24 22.52-27.20Q25.16-26.16 27-24.16L27-24.16L25.12-22.28Q21.84-25.60 16.84-25.60L16.84-25.60Q13.52-25.60 10.80-24.08Q8.08-22.56 6.54-19.92Q5-17.28 5-14L5-14Q5-10.72 6.54-8.08Q8.08-5.44 10.80-3.92Q13.52-2.40 16.84-2.40L16.84-2.40Q21.88-2.40 25.12-5.76L25.12-5.76L27-3.88Q25.16-1.88 22.50-0.82Q19.84 0.24 16.72 0.24L16.72 0.24Z M48.16 0.24Q44 0.24 40.62-1.62Q37.24-3.48 35.34-6.72Q33.44-9.96 33.44-14L33.44-14Q33.44-18.04 35.34-21.28Q37.24-24.52 40.62-26.38Q44-28.24 48.16-28.24L48.16-28.24Q52.32-28.24 55.66-26.40Q59-24.56 60.92-21.30Q62.84-18.04 62.84-14L62.84-14Q62.84-9.96 60.92-6.70Q59-3.44 55.66-1.60Q52.32 0.24 48.16 0.24L48.16 0.24ZM48.16-2.40Q51.48-2.40 54.16-3.90Q56.84-5.40 58.36-8.06Q59.88-10.72 59.88-14L59.88-14Q59.88-17.28 58.36-19.94Q56.84-22.60 54.16-24.10Q51.48-25.60 48.16-25.60L48.16-25.60Q44.84-25.60 42.14-24.10Q39.44-22.60 37.90-19.94Q36.36-17.28 36.36-14L36.36-14Q36.36-10.72 37.90-8.06Q39.44-5.40 42.14-3.90Q44.84-2.40 48.16-2.40L48.16-2.40Z M99.32-28L101.76-28L101.76 0L98.92 0L98.92-22.40L87.92-3.56L86.52-3.56L75.52-22.28L75.52 0L72.68 0L72.68-28L75.12-28L87.28-7.24L99.32-28Z M140.72-28L143.16-28L143.16 0L140.32 0L140.32-22.40L129.32-3.56L127.92-3.56L116.92-22.28L116.92 0L114.08 0L114.08-28L116.52-28L128.68-7.24L140.72-28Z M166.76 0.24Q161.32 0.24 158.28-2.88Q155.24-6 155.24-11.96L155.24-11.96L155.24-28L158.20-28L158.20-12.08Q158.20-7.20 160.40-4.80Q162.60-2.40 166.76-2.40L166.76-2.40Q170.96-2.40 173.16-4.80Q175.36-7.20 175.36-12.08L175.36-12.08L175.36-28L178.24-28L178.24-11.96Q178.24-6 175.22-2.88Q172.20 0.24 166.76 0.24L166.76 0.24Z M210.84-28L213.76-28L213.76 0L211.32 0L193.32-22.72L193.32 0L190.36 0L190.36-28L192.80-28L210.84-5.28L210.84-28Z M226.08 0L226.08-28L229.04-28L229.04 0L226.08 0Z M246.80 0L246.80-25.44L236.96-25.44L236.96-28L259.60-28L259.60-25.44L249.76-25.44L249.76 0L246.80 0Z M288.12-28L276.92-9.68L276.92 0L274 0L274-9.68L262.80-28L265.96-28L275.56-12.28L285.16-28L288.12-28Z M309.60 7.76L309.60-29.68L312.24-29.68L312.24 7.76L309.60 7.76Z M344.32-4.56L344.32-14L347.16-14L347.16-3.32Q345.20-1.60 342.52-0.68Q339.84 0.24 336.88 0.24L336.88 0.24Q332.68 0.24 329.32-1.60Q325.96-3.44 324.04-6.70Q322.12-9.96 322.12-14L322.12-14Q322.12-18.04 324.04-21.30Q325.96-24.56 329.32-26.40Q332.68-28.24 336.92-28.24L336.92-28.24Q340.12-28.24 342.80-27.22Q345.48-26.20 347.32-24.20L347.32-24.20L345.48-22.32Q342.16-25.60 337.04-25.60L337.04-25.60Q333.64-25.60 330.90-24.10Q328.16-22.60 326.60-19.94Q325.04-17.28 325.04-14L325.04-14Q325.04-10.72 326.60-8.08Q328.16-5.44 330.88-3.92Q333.60-2.40 337.00-2.40L337.00-2.40Q341.32-2.40 344.32-4.56L344.32-4.56Z M379.64 0L376.28-7.48L360.68-7.48L357.32 0L354.24 0L367.04-28L369.96-28L382.76 0L379.64 0ZM361.76-9.88L375.20-9.88L368.48-24.92L361.76-9.88Z M417.24-28L419.68-28L419.68 0L416.84 0L416.84-22.40L405.84-3.56L404.44-3.56L393.44-22.28L393.44 0L390.60 0L390.60-28L393.04-28L405.20-7.24L417.24-28Z M432.00 0L432.00-28L434.96-28L434.96 0L432.00 0Z M467.76-28L470.68-28L470.68 0L468.24 0L450.24-22.72L450.24 0L447.28 0L447.28-28L449.72-28L467.76-5.28L467.76-28Z M502.72-4.56L502.72-14L505.56-14L505.56-3.32Q503.60-1.60 500.92-0.68Q498.24 0.24 495.28 0.24L495.28 0.24Q491.08 0.24 487.72-1.60Q484.36-3.44 482.44-6.70Q480.52-9.96 480.52-14L480.52-14Q480.52-18.04 482.44-21.30Q484.36-24.56 487.72-26.40Q491.08-28.24 495.32-28.24L495.32-28.24Q498.52-28.24 501.20-27.22Q503.88-26.20 505.72-24.20L505.72-24.20L503.88-22.32Q500.56-25.60 495.44-25.60L495.44-25.60Q492.04-25.60 489.30-24.10Q486.56-22.60 485.00-19.94Q483.44-17.28 483.44-14L483.44-14Q483.44-10.72 485.00-8.08Q486.56-5.44 489.28-3.92Q492.00-2.40 495.40-2.40L495.40-2.40Q499.72-2.40 502.72-4.56L502.72-4.56Z M551.72 0L548.36-7.48L532.76-7.48L529.40 0L526.32 0L539.12-28L542.04-28L554.84 0L551.72 0ZM533.84-9.88L547.28-9.88L540.56-24.92L533.84-9.88Z M583.16-28L586.08-28L586.08 0L583.64 0L565.64-22.72L565.64 0L562.68 0L562.68-28L565.12-28L583.16-5.28L583.16-28Z M598.40 0L598.40-28L609.80-28Q614.24-28 617.64-26.22Q621.04-24.44 622.92-21.26Q624.80-18.08 624.80-14L624.80-14Q624.80-9.92 622.92-6.74Q621.04-3.56 617.64-1.78Q614.24 0 609.80 0L609.80 0L598.40 0ZM601.36-2.56L609.64-2.56Q613.32-2.56 616.08-4.02Q618.84-5.48 620.36-8.06Q621.88-10.64 621.88-14L621.88-14Q621.88-17.36 620.36-19.94Q618.84-22.52 616.08-23.98Q613.32-25.44 609.64-25.44L609.64-25.44L601.36-25.44L601.36-2.56Z M660.48 0.24Q656.32 0.24 652.98-1.60Q649.64-3.44 647.74-6.70Q645.84-9.96 645.84-14L645.84-14Q645.84-18.04 647.74-21.30Q649.64-24.56 653.00-26.40Q656.36-28.24 660.52-28.24L660.52-28.24Q663.64-28.24 666.28-27.20Q668.92-26.16 670.76-24.16L670.76-24.16L668.88-22.28Q665.60-25.60 660.60-25.60L660.60-25.60Q657.28-25.60 654.56-24.08Q651.84-22.56 650.30-19.92Q648.76-17.28 648.76-14L648.76-14Q648.76-10.72 650.30-8.08Q651.84-5.44 654.56-3.92Q657.28-2.40 660.60-2.40L660.60-2.40Q665.64-2.40 668.88-5.76L668.88-5.76L670.76-3.88Q668.92-1.88 666.26-0.82Q663.60 0.24 660.48 0.24L660.48 0.24Z M691.92 0.24Q687.76 0.24 684.38-1.62Q681.00-3.48 679.10-6.72Q677.20-9.96 677.20-14L677.20-14Q677.20-18.04 679.10-21.28Q681.00-24.52 684.38-26.38Q687.76-28.24 691.92-28.24L691.92-28.24Q696.08-28.24 699.42-26.40Q702.76-24.56 704.68-21.30Q706.60-18.04 706.60-14L706.60-14Q706.60-9.96 704.68-6.70Q702.76-3.44 699.42-1.60Q696.08 0.24 691.92 0.24L691.92 0.24ZM691.92-2.40Q695.24-2.40 697.92-3.90Q700.60-5.40 702.12-8.06Q703.64-10.72 703.64-14L703.64-14Q703.64-17.28 702.12-19.94Q700.60-22.60 697.92-24.10Q695.24-25.60 691.92-25.60L691.92-25.60Q688.60-25.60 685.90-24.10Q683.20-22.60 681.66-19.94Q680.12-17.28 680.12-14L680.12-14Q680.12-10.72 681.66-8.06Q683.20-5.40 685.90-3.90Q688.60-2.40 691.92-2.40L691.92-2.40Z M716.44 0L716.44-28L727.84-28Q732.28-28 735.68-26.22Q739.08-24.44 740.96-21.26Q742.84-18.08 742.84-14L742.84-14Q742.84-9.92 740.96-6.74Q739.08-3.56 735.68-1.78Q732.28 0 727.84 0L727.84 0L716.44 0ZM719.40-2.56L727.68-2.56Q731.36-2.56 734.12-4.02Q736.88-5.48 738.40-8.06Q739.92-10.64 739.92-14L739.92-14Q739.92-17.36 738.40-19.94Q736.88-22.52 734.12-23.98Q731.36-25.44 727.68-25.44L727.68-25.44L719.40-25.44L719.40-2.56Z M755.64-2.56L772.48-2.56L772.48 0L752.68 0L752.68-28L771.88-28L771.88-25.44L755.64-25.44L755.64-15.48L770.12-15.48L770.12-12.96L755.64-12.96L755.64-2.56Z M782.64 7.76L782.64-29.68L785.28-29.68L785.28 7.76L782.64 7.76Z M830.52-25.44L814.28-25.44L814.28-14.44L828.76-14.44L828.76-11.88L814.28-11.88L814.28 0L811.32 0L811.32-28L830.52-28L830.52-25.44Z M862.20 0L858.96 0L852.56-9Q851.48-8.88 850.32-8.88L850.32-8.88L842.80-8.88L842.80 0L839.84 0L839.84-28L850.32-28Q855.68-28 858.72-25.44Q861.76-22.88 861.76-18.40L861.76-18.40Q861.76-15.12 860.10-12.86Q858.44-10.60 855.36-9.60L855.36-9.60L862.20 0ZM850.24-11.40Q854.40-11.40 856.60-13.24Q858.80-15.08 858.80-18.40L858.80-18.40Q858.80-21.80 856.60-23.62Q854.40-25.44 850.24-25.44L850.24-25.44L842.80-25.44L842.80-11.40L850.24-11.40Z"/></g>
</svg>
</g><g opacity="1" transform="rotate(0 164.8666 213.5341)">
<svg width="396.5736" height="70" x="164.8666" y="213.5341" version="1.1" preserveAspectRatio="none" viewBox="2.4 -28 161.8 28.56">
  <g transform="matrix(1 0 0 1 0 0)" class="companyName"><path id="id-D6z1nYkh7" d="M21.08-20.28L21.08-20.28Q21.08-18.52 20.36-17L20.36-17Q19.04-14.16 15.72-13.04L15.72-13.04Q14.56-12.64 13.72-12.64L13.72-12.64Q11.24-12.64 9.44-13.56L9.44-13.56L9.44-13.96Q12.36-13.32 14.84-14.60L14.84-14.60Q17.04-15.72 17.84-18.28L17.84-18.28Q18.08-19.08 18.08-19.80Q18.08-20.52 18.08-20.68L18.08-20.68Q18-23.48 16.60-25.14Q15.20-26.80 12.68-26.80L12.68-26.80L8.08-26.80L8.08-2.92Q8.12-1.88 8.86-1.14Q9.60-0.40 10.64-0.40L10.64-0.40L11.16-0.40L11.16 0L2.40 0L2.40-0.40L2.92-0.40Q3.96-0.40 4.70-1.14Q5.44-1.88 5.48-2.92L5.48-2.92L5.48-25.28Q5.36-26.28 4.64-26.94Q3.92-27.60 2.92-27.60L2.92-27.60L2.44-27.60L2.40-28L12.84-28Q16.68-28 18.88-25.94Q21.08-23.88 21.08-20.28Z M25.68-0.40L26.24-0.40Q27.32-0.40 28.12-1.04Q28.92-1.68 28.92-2.56L28.92-2.56L28.92-21.44Q28.92-22.32 28.12-22.96Q27.32-23.60 26.20-23.60L26.20-23.60L25.68-23.60L25.68-24L34.72-24L34.72-23.60L34.20-23.60Q33.12-23.60 32.34-23Q31.56-22.40 31.48-21.52L31.48-21.52L31.48-2.52Q31.52-1.64 32.32-1.02Q33.12-0.40 34.20-0.40L34.20-0.40L34.72-0.40L34.76 0L25.68 0L25.68-0.40Z M62.88-0.40L62.88 0L61.40 0Q57.48 0 55.52-2.28L55.52-2.28L46.72-11.92L55.32-22.04Q55.76-22.60 55.46-23.10Q55.16-23.60 54.44-23.60L54.44-23.60L54.08-23.60L54.08-24L62.24-24L62.24-23.60L62.08-23.60Q59.64-23.60 58.20-22.16L58.20-22.16L49.48-12.84L59.40-2.04Q60.12-1.16 60.88-0.80Q61.64-0.44 62.88-0.40L62.88-0.40ZM47.68-0.40L47.68-0.40L48.12-0.40L48.12 0L39.92 0L39.92-0.40L40.40-0.40Q41.36-0.40 42.04-1.04Q42.72-1.68 42.76-2.56L42.76-2.56L42.76-21.44Q42.72-22.32 42.04-22.96Q41.36-23.60 40.40-23.60L40.40-23.60L39.92-23.60L39.92-24L48.12-24L48.12-23.60L47.64-23.60Q46.36-23.60 45.64-22.56L45.64-22.56Q45.32-22.08 45.32-21.48L45.32-21.48L45.32-2.52Q45.32-1.64 46.02-1.02Q46.72-0.40 47.68-0.40Z M89.88-0.40L89.88-0.40L90.20-0.40L90.20 0L82 0L82-0.40L82.32-0.40Q83.08-0.40 83.48-0.92Q83.88-1.44 83.88-1.90Q83.88-2.36 83.72-2.80L83.72-2.80L81.52-8.12L71.40-8.12L69.20-2.92Q69-2.40 69-1.94Q69-1.48 69.40-0.94Q69.80-0.40 70.60-0.40L70.60-0.40L70.92-0.40L70.92 0L63.28 0L63.28-0.40L63.60-0.40Q64.44-0.40 65.30-0.98Q66.16-1.56 66.72-2.72L66.72-2.72Q75.48-21.44 75.84-22.32L75.84-22.32Q76.52-24 76.56-24.56L76.56-24.56L76.92-24.56L86.80-2.72Q87.96-0.40 89.88-0.40ZM76.56-20.28L71.92-9.32L81.04-9.32L76.56-20.28Z M112.48-28L112.48-27.60L111.92-27.60Q110.72-27.60 109.66-26.94Q108.60-26.28 107.88-25.28L107.88-25.28L100-12.48L100-2.92Q100-1.88 100.74-1.14Q101.48-0.40 102.56-0.40L102.56-0.40L103.04-0.40L103.04 0L94.32 0L94.32-0.40L94.84-0.40Q95.88-0.40 96.62-1.12Q97.36-1.84 97.40-2.88L97.40-2.88L97.40-12.52L89.76-25.28Q89.16-26.24 88.06-26.92Q86.96-27.60 85.76-27.60L85.76-27.60L85.20-27.60L85.20-28L95.04-28L95.04-27.60L94.52-27.60Q93.64-27.60 93.16-26.80L93.16-26.80Q92.92-26.36 92.92-25.94Q92.92-25.52 93.12-25.12L93.12-25.12L99.12-13.92L105.52-25.16Q105.72-25.56 105.72-25.96Q105.72-26.36 105.44-26.80L105.44-26.80Q104.96-27.60 104.08-27.60L104.08-27.60L103.60-27.60L103.60-28L112.48-28Z M139.44-24L139.44-23.60L138.84-23.60Q137.76-23.60 137.20-22.76L137.20-22.76Q136.96-22.40 136.92-21.92L136.92-21.92L136.92-8.44Q136.92-4.28 134.26-1.86Q131.60 0.56 126.96 0.56Q122.32 0.56 119.64-1.84Q116.96-4.24 116.96-8.40L116.96-8.40L116.96-21.88Q116.96-22.60 116.40-23.10Q115.84-23.60 115.04-23.60L115.04-23.60L114.44-23.60L114.44-24L122.04-24L122.04-23.60L121.44-23.60Q120.64-23.60 120.08-23.10Q119.52-22.60 119.52-21.88L119.52-21.88L119.52-8.88Q119.52-5 121.50-2.76Q123.48-0.52 127.10-0.52Q130.72-0.52 132.90-2.64Q135.08-4.76 135.08-8.44L135.08-8.44L135.08-21.88Q135.04-22.64 134.50-23.12Q133.96-23.60 133.16-23.60L133.16-23.60L132.56-23.60L132.56-24L139.44-24Z M161.76-22.84L154.52-22.84L154.52-2.52Q154.56-1.28 155.72-0.68L155.72-0.68Q156.24-0.40 156.88-0.40L156.88-0.40L157.32-0.40L157.32 0L149.08 0L149.08-0.40L149.56-0.40Q150.52-0.40 151.20-1.04Q151.88-1.68 151.92-2.56L151.92-2.56L151.92-22.84L144.68-22.84Q143.76-22.84 143.22-22.24Q142.68-21.64 142.68-20.80L142.68-20.80L142.68-20.16L142.24-20.16L142.24-24.68Q143.04-24.36 144.50-24.20Q145.96-24.04 146.68-24.04L146.68-24.04L159.72-24.04Q162.60-24.04 164.20-24.68L164.20-24.68L164.20-20.16L163.76-20.16L163.76-20.80Q163.76-21.64 163.20-22.24Q162.64-22.84 161.76-22.84L161.76-22.84Z"/></g>
</svg>
</g><g opacity="1" transform="rotate(0 403.1535 318.5341)">
<svg width="201.2186" height="1.4" x="403.1535" y="318.5341" version="1.1" preserveAspectRatio="none" viewBox="0 0 201.2186 1.4">
  <defs><rect x="0" y="0" width="201.2186" height="1.4" rx="0px" ry="0px" id="id-q6WP-wJgV1676915554787"></rect></defs><use class="icon1 aq6WP-wJgVstrokeColor-str" style="stroke-width:0;" xlink:href="#id-q6WP-wJgV1676915554787"></use>
</svg>
</g></svg></svg>