<svg version="1.1" preserveAspectRatio="none" xmlns="http://www.w3.org/2000/svg" width="500" height="500" viewBox="0 0 500 500"><rect width="100%" height="100%" fill="#101010" fill-opacity="1"/><svg viewBox="34.5359 146.5078 435.8646 213.2" width="333" height="162.8845288192709" x="83.5px" y="168.5577px" xmlns="http://www.w3.org/2000/svg" xmlns:xlink="http://www.w3.org/1999/xlink" preserveAspectRatio="none"><defs></defs><style>.icon1 {fill:#EBEBEB;fill-opacity:1;}.icon2 {fill:#D4D4D4;fill-opacity:1;}.icon3 {fill:#A0A0A0;fill-opacity:1;}.icon3-str {stroke:#A0A0A0;stroke-opacity:1;}</style><g opacity="1" transform="rotate(0 34.5359 340.5078)">
<svg width="435.8646" height="19.2" x="34.5359" y="340.5078" version="1.1" preserveAspectRatio="none" viewBox="1.92 -30.4 762.7600000000001 33.6">
  <g transform="matrix(1 0 0 1 0 0)" class="icon3"><path id="id-6izo4zJp30" d="M9.12 0.32Q5.88 0.32 3.90-1.66Q1.92-3.64 1.92-6.92L1.92-6.92L1.92-21.12Q1.92-24.40 3.90-26.36Q5.88-28.32 9.12-28.32L9.12-28.32Q12.40-28.32 14.38-26.36Q16.36-24.40 16.36-21.12L16.36-21.12L16.36-20.48Q16.36-20.08 15.96-20.08L15.96-20.08L12.92-19.92Q12.52-19.92 12.52-20.32L12.52-20.32L12.52-21.36Q12.52-23 11.58-24Q10.64-25 9.12-25L9.12-25Q7.60-25 6.68-24Q5.76-23 5.76-21.36L5.76-21.36L5.76-6.64Q5.76-5 6.68-4Q7.60-3 9.12-3L9.12-3Q10.64-3 11.58-4Q12.52-5 12.52-6.64L12.52-6.64L12.52-7.68Q12.52-8.08 12.92-8.08L12.92-8.08L15.96-7.92Q16.36-7.92 16.36-7.52L16.36-7.52L16.36-6.92Q16.36-3.64 14.38-1.66Q12.40 0.32 9.12 0.32L9.12 0.32Z M37.28 0.32Q34 0.32 32-1.68Q30-3.68 30-7L30-7L30-20.96Q30-24.28 32-26.30Q34-28.32 37.28-28.32L37.28-28.32Q40.60-28.32 42.62-26.30Q44.64-24.28 44.64-20.96L44.64-20.96L44.64-7Q44.64-3.68 42.62-1.68Q40.60 0.32 37.28 0.32L37.28 0.32ZM37.28-3Q38.88-3 39.84-4.06Q40.80-5.12 40.80-6.84L40.80-6.84L40.80-21.16Q40.80-22.88 39.84-23.94Q38.88-25 37.28-25L37.28-25Q35.72-25 34.78-23.94Q33.84-22.88 33.84-21.16L33.84-21.16L33.84-6.84Q33.84-5.12 34.78-4.06Q35.72-3 37.28-3L37.28-3Z M59.40 0Q59 0 59-0.40L59-0.40L59-27.60Q59-28 59.40-28L59.40-28L62.44-28Q62.76-28 62.88-27.68L62.88-27.68L66.96-17.96Q67-17.88 67.08-17.88Q67.16-17.88 67.20-17.96L67.20-17.96L71.36-27.68Q71.48-28 71.80-28L71.80-28L74.84-28Q75.24-28 75.24-27.60L75.24-27.60L75.24-0.40Q75.24 0 74.84 0L74.84 0L71.80 0Q71.40 0 71.40-0.40L71.40-0.40L71.40-18.52Q71.40-18.64 71.34-18.64Q71.28-18.64 71.20-18.56L71.20-18.56L67.48-10.64Q67.36-10.36 67.16-10.36L67.16-10.36Q66.88-10.36 66.76-10.64L66.76-10.64L63.04-18.60Q62.96-18.68 62.90-18.68Q62.84-18.68 62.84-18.56L62.84-18.56L62.84-0.40Q62.84 0 62.44 0L62.44 0L59.40 0Z M90.52 0Q90.12 0 90.12-0.40L90.12-0.40L90.12-27.60Q90.12-28 90.52-28L90.52-28L93.56-28Q93.88-28 94-27.68L94-27.68L98.08-17.96Q98.12-17.88 98.20-17.88Q98.28-17.88 98.32-17.96L98.32-17.96L102.48-27.68Q102.60-28 102.92-28L102.92-28L105.96-28Q106.36-28 106.36-27.60L106.36-27.60L106.36-0.40Q106.36 0 105.96 0L105.96 0L102.92 0Q102.52 0 102.52-0.40L102.52-0.40L102.52-18.52Q102.52-18.64 102.46-18.64Q102.40-18.64 102.32-18.56L102.32-18.56L98.60-10.64Q98.48-10.36 98.28-10.36L98.28-10.36Q98-10.36 97.88-10.64L97.88-10.64L94.16-18.60Q94.08-18.68 94.02-18.68Q93.96-18.68 93.96-18.56L93.96-18.56L93.96-0.40Q93.96 0 93.56 0L93.56 0L90.52 0Z M128.32 0.32Q125.04 0.32 123.06-1.86Q121.08-4.04 121.08-7.60L121.08-7.60L121.08-27.60Q121.08-28 121.48-28L121.48-28L124.52-28Q124.92-28 124.92-27.60L124.92-27.60L124.92-7.20Q124.92-5.32 125.86-4.16Q126.80-3 128.32-3L128.32-3Q129.88-3 130.82-4.16Q131.76-5.32 131.76-7.20L131.76-7.20L131.76-27.60Q131.76-28 132.16-28L132.16-28L135.20-28Q135.60-28 135.60-27.60L135.60-27.60L135.60-7.60Q135.60-4.04 133.60-1.86Q131.60 0.32 128.32 0.32L128.32 0.32Z M150.36 0Q149.96 0 149.96-0.40L149.96-0.40L149.96-27.60Q149.96-28 150.36-28L150.36-28L153.44-28Q153.76-28 153.88-27.68L153.88-27.68L161.00-10.04Q161.04-9.92 161.12-9.94Q161.20-9.96 161.20-10.08L161.20-10.08L161.20-27.60Q161.20-28 161.60-28L161.60-28L164.60-28Q165.00-28 165.00-27.60L165.00-27.60L165.00-0.40Q165.00 0 164.60 0L164.60 0L161.48 0Q161.16 0 161.04-0.32L161.04-0.32L153.92-17.96Q153.88-18.08 153.80-18.08Q153.72-18.08 153.72-17.96L153.72-17.96L153.76-0.40Q153.76 0 153.36 0L153.36 0L150.36 0Z M180.36 0Q179.96 0 179.96-0.40L179.96-0.40L179.96-27.60Q179.96-28 180.36-28L180.36-28L183.40-28Q183.80-28 183.80-27.60L183.80-27.60L183.80-0.40Q183.80 0 183.40 0L183.40 0L180.36 0Z M212.24-28Q212.64-28 212.64-27.60L212.64-27.60L212.64-25.08Q212.64-24.68 212.24-24.68L212.24-24.68L207.00-24.68Q206.84-24.68 206.84-24.52L206.84-24.52L206.84-0.40Q206.84 0 206.44 0L206.44 0L203.40 0Q203.00 0 203.00-0.40L203.00-0.40L203.00-24.52Q203.00-24.68 202.84-24.68L202.84-24.68L197.88-24.68Q197.48-24.68 197.48-25.08L197.48-25.08L197.48-27.60Q197.48-28 197.88-28L197.88-28L212.24-28Z M231.16-0.04Q230.76-0.04 230.76-0.44L230.76-0.44L230.76-11.88L230.72-12.08L225.16-27.56L225.12-27.72Q225.12-28 225.48-28L225.48-28L228.68-28Q229.04-28 229.16-27.68L229.16-27.68L232.56-16.64Q232.60-16.56 232.68-16.56Q232.76-16.56 232.80-16.64L232.80-16.64L236.20-27.68Q236.32-28 236.68-28L236.68-28L239.88-28Q240.32-28 240.20-27.56L240.20-27.56L234.64-12.08L234.60-11.88L234.60-0.44Q234.60-0.04 234.20-0.04L234.20-0.04L231.16-0.04Z M271.16 3.20Q270.76 3.20 270.76 2.80L270.76 2.80L270.76-30Q270.76-30.40 271.16-30.40L271.16-30.40L274.20-30.40Q274.60-30.40 274.60-30L274.60-30L274.60 2.80Q274.60 3.20 274.20 3.20L274.20 3.20L271.16 3.20Z M295.00 0.32Q291.76 0.32 289.78-1.60Q287.80-3.52 287.80-6.68L287.80-6.68L287.80-21.32Q287.80-24.48 289.78-26.40Q291.76-28.32 295.00-28.32L295.00-28.32Q298.24-28.32 300.24-26.40Q302.24-24.48 302.24-21.28L302.24-21.28L302.24-19.60Q302.24-19.20 301.84-19.20L301.84-19.20L298.80-19.20Q298.40-19.20 298.40-19.60L298.40-19.60L298.40-21.36Q298.40-23 297.46-24Q296.52-25 295.00-25L295.00-25Q293.48-25 292.54-24Q291.60-23 291.60-21.36L291.60-21.36L291.60-6.64Q291.60-5 292.54-4Q293.48-3 295.00-3L295.00-3Q296.52-3 297.46-4Q298.40-5 298.40-6.64L298.40-6.64L298.40-11.04Q298.40-11.20 298.24-11.20L298.24-11.20L295.20-11.20Q294.80-11.20 294.80-11.60L294.80-11.60L294.80-14.08Q294.80-14.48 295.20-14.48L295.20-14.48L301.84-14.48Q302.24-14.48 302.24-14.08L302.24-14.08L302.24-6.68Q302.24-3.52 300.24-1.60Q298.24 0.32 295.00 0.32L295.00 0.32Z M327.88 0Q327.52 0 327.44-0.36L327.44-0.36L326.56-4.96Q326.56-5.04 326.50-5.08Q326.44-5.12 326.36-5.12L326.36-5.12L319.92-5.12Q319.84-5.12 319.78-5.08Q319.72-5.04 319.72-4.96L319.72-4.96L318.80-0.36Q318.76 0 318.36 0L318.36 0L315.32 0Q315.12 0 315.02-0.12Q314.92-0.24 314.96-0.44L314.96-0.44L320.92-27.64Q321-28 321.36-28L321.36-28L324.88-28Q325.28-28 325.32-27.64L325.32-27.64L331.36-0.44L331.36-0.36Q331.36 0 331 0L331 0L327.88 0ZM320.40-8.32Q320.40-8.16 320.52-8.16L320.52-8.16L325.80-8.16Q325.92-8.16 325.92-8.32L325.92-8.32L323.28-22Q323.24-22.12 323.20-22.12Q323.16-22.12 323.12-22L323.12-22L320.40-8.32Z M345.64 0Q345.24 0 345.24-0.40L345.24-0.40L345.24-27.60Q345.24-28 345.64-28L345.64-28L348.68-28Q349-28 349.12-27.68L349.12-27.68L353.20-17.96Q353.24-17.88 353.32-17.88Q353.40-17.88 353.44-17.96L353.44-17.96L357.60-27.68Q357.72-28 358.04-28L358.04-28L361.08-28Q361.48-28 361.48-27.60L361.48-27.60L361.48-0.40Q361.48 0 361.08 0L361.08 0L358.04 0Q357.64 0 357.64-0.40L357.64-0.40L357.64-18.52Q357.64-18.64 357.58-18.64Q357.52-18.64 357.44-18.56L357.44-18.56L353.72-10.64Q353.60-10.36 353.40-10.36L353.40-10.36Q353.12-10.36 353-10.64L353-10.64L349.28-18.60Q349.20-18.68 349.14-18.68Q349.08-18.68 349.08-18.56L349.08-18.56L349.08-0.40Q349.08 0 348.68 0L348.68 0L345.64 0Z M376.80 0Q376.40 0 376.40-0.40L376.40-0.40L376.40-27.60Q376.40-28 376.80-28L376.80-28L379.84-28Q380.24-28 380.24-27.60L380.24-27.60L380.24-0.40Q380.24 0 379.84 0L379.84 0L376.80 0Z M395.64 0Q395.24 0 395.24-0.40L395.24-0.40L395.24-27.60Q395.24-28 395.64-28L395.64-28L398.72-28Q399.04-28 399.16-27.68L399.16-27.68L406.28-10.04Q406.32-9.92 406.40-9.94Q406.48-9.96 406.48-10.08L406.48-10.08L406.48-27.60Q406.48-28 406.88-28L406.88-28L409.88-28Q410.28-28 410.28-27.60L410.28-27.60L410.28-0.40Q410.28 0 409.88 0L409.88 0L406.76 0Q406.44 0 406.32-0.32L406.32-0.32L399.20-17.96Q399.16-18.08 399.08-18.08Q399-18.08 399-17.96L399-17.96L399.04-0.40Q399.04 0 398.64 0L398.64 0L395.64 0Z M431.88 0.32Q428.64 0.32 426.66-1.60Q424.68-3.52 424.68-6.68L424.68-6.68L424.68-21.32Q424.68-24.48 426.66-26.40Q428.64-28.32 431.88-28.32L431.88-28.32Q435.12-28.32 437.12-26.40Q439.12-24.48 439.12-21.28L439.12-21.28L439.12-19.60Q439.12-19.20 438.72-19.20L438.72-19.20L435.68-19.20Q435.28-19.20 435.28-19.60L435.28-19.60L435.28-21.36Q435.28-23 434.34-24Q433.40-25 431.88-25L431.88-25Q430.36-25 429.42-24Q428.48-23 428.48-21.36L428.48-21.36L428.48-6.64Q428.48-5 429.42-4Q430.36-3 431.88-3L431.88-3Q433.40-3 434.34-4Q435.28-5 435.28-6.64L435.28-6.64L435.28-11.04Q435.28-11.20 435.12-11.20L435.12-11.20L432.08-11.20Q431.68-11.20 431.68-11.60L431.68-11.60L431.68-14.08Q431.68-14.48 432.08-14.48L432.08-14.48L438.72-14.48Q439.12-14.48 439.12-14.08L439.12-14.08L439.12-6.68Q439.12-3.52 437.12-1.60Q435.12 0.32 431.88 0.32L431.88 0.32Z M483.00 0Q482.64 0 482.56-0.36L482.56-0.36L481.68-4.96Q481.68-5.04 481.62-5.08Q481.56-5.12 481.48-5.12L481.48-5.12L475.04-5.12Q474.96-5.12 474.90-5.08Q474.84-5.04 474.84-4.96L474.84-4.96L473.92-0.36Q473.88 0 473.48 0L473.48 0L470.44 0Q470.24 0 470.14-0.12Q470.04-0.24 470.08-0.44L470.08-0.44L476.04-27.64Q476.12-28 476.48-28L476.48-28L480.00-28Q480.40-28 480.44-27.64L480.44-27.64L486.48-0.44L486.48-0.36Q486.48 0 486.12 0L486.12 0L483.00 0ZM475.52-8.32Q475.52-8.16 475.64-8.16L475.64-8.16L480.92-8.16Q481.04-8.16 481.04-8.32L481.04-8.32L478.40-22Q478.36-22.12 478.32-22.12Q478.28-22.12 478.24-22L478.24-22L475.52-8.32Z M500.60 0Q500.20 0 500.20-0.40L500.20-0.40L500.20-27.60Q500.20-28 500.60-28L500.60-28L503.68-28Q504-28 504.12-27.68L504.12-27.68L511.24-10.04Q511.28-9.92 511.36-9.94Q511.44-9.96 511.44-10.08L511.44-10.08L511.44-27.60Q511.44-28 511.84-28L511.84-28L514.84-28Q515.24-28 515.24-27.60L515.24-27.60L515.24-0.40Q515.24 0 514.84 0L514.84 0L511.72 0Q511.40 0 511.28-0.32L511.28-0.32L504.16-17.96Q504.12-18.08 504.04-18.08Q503.96-18.08 503.96-17.96L503.96-17.96L504-0.40Q504 0 503.60 0L503.60 0L500.60 0Z M530.60 0Q530.20 0 530.20-0.40L530.20-0.40L530.20-27.60Q530.20-28 530.60-28L530.60-28L537.16-28Q540.48-28 542.44-25.96Q544.40-23.92 544.40-20.44L544.40-20.44L544.40-7.56Q544.40-4.08 542.44-2.04Q540.48 0 537.16 0L537.16 0L530.60 0ZM534.04-3.48Q534.04-3.32 534.20-3.32L534.20-3.32L537.12-3.36Q538.64-3.36 539.56-4.54Q540.48-5.72 540.52-7.76L540.52-7.76L540.52-20.24Q540.52-22.28 539.60-23.48Q538.68-24.68 537.12-24.68L537.12-24.68L534.20-24.68Q534.04-24.68 534.04-24.52L534.04-24.52L534.04-3.48Z M583.60 0.32Q580.36 0.32 578.38-1.66Q576.40-3.64 576.40-6.92L576.40-6.92L576.40-21.12Q576.40-24.40 578.38-26.36Q580.36-28.32 583.60-28.32L583.60-28.32Q586.88-28.32 588.86-26.36Q590.84-24.40 590.84-21.12L590.84-21.12L590.84-20.48Q590.84-20.08 590.44-20.08L590.44-20.08L587.40-19.92Q587-19.92 587-20.32L587-20.32L587-21.36Q587-23 586.06-24Q585.12-25 583.60-25L583.60-25Q582.08-25 581.16-24Q580.24-23 580.24-21.36L580.24-21.36L580.24-6.64Q580.24-5 581.16-4Q582.08-3 583.60-3L583.60-3Q585.12-3 586.06-4Q587-5 587-6.64L587-6.64L587-7.68Q587-8.08 587.40-8.08L587.40-8.08L590.44-7.92Q590.84-7.92 590.84-7.52L590.84-7.52L590.84-6.92Q590.84-3.64 588.86-1.66Q586.88 0.32 583.60 0.32L583.60 0.32Z M611.76 0.32Q608.48 0.32 606.48-1.68Q604.48-3.68 604.48-7L604.48-7L604.48-20.96Q604.48-24.28 606.48-26.30Q608.48-28.32 611.76-28.32L611.76-28.32Q615.08-28.32 617.10-26.30Q619.12-24.28 619.12-20.96L619.12-20.96L619.12-7Q619.12-3.68 617.10-1.68Q615.08 0.32 611.76 0.32L611.76 0.32ZM611.76-3Q613.36-3 614.32-4.06Q615.28-5.12 615.28-6.84L615.28-6.84L615.28-21.16Q615.28-22.88 614.32-23.94Q613.36-25 611.76-25L611.76-25Q610.20-25 609.26-23.94Q608.32-22.88 608.32-21.16L608.32-21.16L608.32-6.84Q608.32-5.12 609.26-4.06Q610.20-3 611.76-3L611.76-3Z M633.92 0Q633.52 0 633.52-0.40L633.52-0.40L633.52-27.60Q633.52-28 633.92-28L633.92-28L640.48-28Q643.80-28 645.76-25.96Q647.72-23.92 647.72-20.44L647.72-20.44L647.72-7.56Q647.72-4.08 645.76-2.04Q643.80 0 640.48 0L640.48 0L633.92 0ZM637.36-3.48Q637.36-3.32 637.52-3.32L637.52-3.32L640.44-3.36Q641.96-3.36 642.88-4.54Q643.80-5.72 643.84-7.76L643.84-7.76L643.84-20.24Q643.84-22.28 642.92-23.48Q642.00-24.68 640.44-24.68L640.44-24.68L637.52-24.68Q637.36-24.68 637.36-24.52L637.36-24.52L637.36-3.48Z M675.44-25.08Q675.44-24.68 675.04-24.68L675.04-24.68L666.04-24.68Q665.88-24.68 665.88-24.52L665.88-24.52L665.88-15.84Q665.88-15.68 666.04-15.68L666.04-15.68L671.56-15.68Q671.96-15.68 671.96-15.28L671.96-15.28L671.96-12.76Q671.96-12.36 671.56-12.36L671.56-12.36L666.04-12.36Q665.88-12.36 665.88-12.20L665.88-12.20L665.88-3.48Q665.88-3.32 666.04-3.32L666.04-3.32L675.04-3.32Q675.44-3.32 675.44-2.92L675.44-2.92L675.44-0.40Q675.44 0 675.04 0L675.04 0L662.44 0Q662.04 0 662.04-0.40L662.04-0.40L662.04-27.60Q662.04-28 662.44-28L662.44-28L675.04-28Q675.44-28 675.44-27.60L675.44-27.60L675.44-25.08Z M688.48 3.20Q688.08 3.20 688.08 2.80L688.08 2.80L688.08-30Q688.08-30.40 688.48-30.40L688.48-30.40L691.52-30.40Q691.92-30.40 691.92-30L691.92-30L691.92 2.80Q691.92 3.20 691.52 3.20L691.52 3.20L688.48 3.20Z M737.04-25.08Q737.04-24.68 736.64-24.68L736.64-24.68L727.68-24.68Q727.52-24.68 727.52-24.52L727.52-24.52L727.52-15.84Q727.52-15.68 727.68-15.68L727.68-15.68L733.16-15.68Q733.56-15.68 733.56-15.28L733.56-15.28L733.56-12.76Q733.56-12.36 733.16-12.36L733.16-12.36L727.68-12.36Q727.52-12.36 727.52-12.20L727.52-12.20L727.52-0.40Q727.52 0 727.12 0L727.12 0L724.08 0Q723.68 0 723.68-0.40L723.68-0.40L723.68-27.60Q723.68-28 724.08-28L724.08-28L736.64-28Q737.04-28 737.04-27.60L737.04-27.60L737.04-25.08Z M761.20 0Q760.84 0 760.72-0.32L760.72-0.32L757-12.32Q756.96-12.44 756.84-12.44L756.84-12.44L754.08-12.44Q753.92-12.44 753.92-12.28L753.92-12.28L753.92-0.40Q753.92 0 753.52 0L753.52 0L750.48 0Q750.08 0 750.08-0.40L750.08-0.40L750.08-27.64Q750.08-28.04 750.48-28.04L750.48-28.04L757.64-28.04Q759.68-28.04 761.24-27.04Q762.80-26.04 763.66-24.22Q764.52-22.40 764.52-20.08L764.52-20.08Q764.52-17.56 763.46-15.70Q762.40-13.84 760.60-13.04L760.60-13.04Q760.48-12.92 760.52-12.80L760.52-12.80L764.64-0.44L764.68-0.28Q764.68 0 764.32 0L764.32 0L761.20 0ZM754.08-24.72Q753.92-24.72 753.92-24.56L753.92-24.56L753.92-15.60Q753.92-15.44 754.08-15.44L754.08-15.44L757.04-15.44Q758.68-15.44 759.68-16.70Q760.68-17.96 760.68-20.04L760.68-20.04Q760.68-22.20 759.68-23.46Q758.68-24.72 757.04-24.72L757.04-24.72L754.08-24.72Z"/></g>
</svg>
</g><g opacity="1" transform="rotate(0 216.8967 146.5078)">
<svg width="71.1431" height="84" x="216.8967" y="146.5078" version="1.1" preserveAspectRatio="none" viewBox="32.458580017089844 19.999998092651367 135.3414306640625 159.79998779296875">
  <g transform="matrix(-1 0 0 1 200.2585906982422 0)" ><g><path d="M167.5 109.2v-.5l-40.6-70c-.2-.3-.5-.5-.8-.5H94L75.4 20.3s-.1 0-.1-.1l-.1-.1c-.1 0-.2-.1-.3-.1h-.5c-.1 0-.1 0-.2.1L44.4 38.3c-.1.1-.2.1-.2.2-.2.2-.2.3-.2.4L32.5 89.7v.4c-.1.2 0 .5.1.7l41.2 70.4c0 .1.1.1.1.2.1.1.3.2.4.2H110l15.3 17.9c.1.1.2.2.3.2h.1c.1 0 .2.1.4.1h.3c.1 0 .1 0 .2-.1h.1l29.8-18.2.1-.1c.1 0 .1-.1.2-.1l.1-.1c0-.1.1-.1.1-.2v-.1l10.8-51.8c-.3.2-.3.2-.3.1zM155 159.9h-16.8l26.2-45.2-9.4 45.2zm-2.6 1.9l-23.7 14.4 8.4-14.4h15.3zM99 146.2L36.2 91l126.7 18.5L99 146.2zm-24 13.4L36.6 93.9l60.6 53.3L75 159.6zm-29.5-119l12.2 7L35.6 85l9.9-44.4zM60.4 47l4.1-6.9h28.8l67.5 64.8L60.4 47zm100.8 60.3L35.5 88.9l23.9-40.3 101.8 58.7zM58.7 46l-10.2-5.9h13.7L58.7 46zm-10.4-7.8l23.6-14.4-8.5 14.4H48.3zm116.1 72.7l-28.4 49h-25.1l-10.5-12.3 64-36.7zm-39-70.8l36.9 63.6L96 40.1h29.4zm-59.8-1.9l9.3-15.7 16.4 15.7H65.6zm12.8 121.7l20.3-11.3 9.7 11.3h-30zm56.5 1.9l-9 15.6-13.3-15.6h22.3z" data-color="1" class="icon1"></path></g></g>
</svg>
</g><g opacity="1" transform="rotate(0 108.8538 256.5078)">
<svg width="287.2288" height="60" x="108.8538" y="256.5078" version="1.1" preserveAspectRatio="none" viewBox="2.12 -28.04 135.72 28.36">
  <g transform="matrix(1 0 0 1 0 0)" class="icon1"><path id="id-D6z1nYkh7" d="M10.12-28.04Q12.24-28.04 13.86-27Q15.48-25.96 16.38-24.08Q17.28-22.20 17.28-19.80L17.28-19.80Q17.28-16.20 15.38-14Q13.48-11.80 10.36-11.80L10.36-11.80L6.96-11.80Q6.76-11.80 6.76-11.60L6.76-11.60L6.76-0.48Q6.76-0.28 6.62-0.14Q6.48 0 6.28 0L6.28 0L2.60 0Q2.40 0 2.26-0.14Q2.12-0.28 2.12-0.48L2.12-0.48L2.12-27.56Q2.12-27.76 2.26-27.90Q2.40-28.04 2.60-28.04L2.60-28.04L10.12-28.04ZM9.36-15.44Q10.84-15.44 11.74-16.58Q12.64-17.72 12.64-19.68L12.64-19.68Q12.64-21.68 11.74-22.86Q10.84-24.04 9.36-24.04L9.36-24.04L6.96-24.04Q6.76-24.04 6.76-23.84L6.76-23.84L6.76-15.64Q6.76-15.44 6.96-15.44L6.96-15.44L9.36-15.44Z M24.12 0Q23.92 0 23.78-0.14Q23.64-0.28 23.64-0.48L23.64-0.48L23.64-27.52Q23.64-27.72 23.78-27.86Q23.92-28 24.12-28L24.12-28L27.80-28Q28-28 28.14-27.86Q28.28-27.72 28.28-27.52L28.28-27.52L28.28-0.48Q28.28-0.28 28.14-0.14Q28 0 27.80 0L27.80 0L24.12 0Z M36.28 0Q36.08 0 35.94-0.14Q35.80-0.28 35.80-0.48L35.80-0.48L35.80-27.52Q35.80-27.72 35.94-27.86Q36.08-28 36.28-28L36.28-28L39.96-28Q40.16-28 40.30-27.86Q40.44-27.72 40.44-27.52L40.44-27.52L40.44-16.48Q40.44-16.32 40.52-16.30Q40.60-16.28 40.68-16.40L40.68-16.40L46.68-27.64Q46.88-28 47.28-28L47.28-28L51.24-28Q51.52-28 51.60-27.84Q51.68-27.68 51.56-27.44L51.56-27.44L45.56-16.20Q45.52-16.04 45.52-15.96L45.52-15.96L52-0.56Q52.04-0.48 52.04-0.32L52.04-0.32Q52.04 0 51.64 0L51.64 0L47.68 0Q47.24 0 47.12-0.36L47.12-0.36L42.40-11.92Q42.36-12.04 42.28-12.02Q42.20-12 42.12-11.92L42.12-11.92L40.52-9.24Q40.44-9.08 40.44-9L40.44-9L40.44-0.48Q40.44-0.28 40.30-0.14Q40.16 0 39.96 0L39.96 0L36.28 0Z M70.52 0Q70.04 0 70-0.44L70-0.44L69.24-4.64Q69.24-4.84 69-4.84L69-4.84L63.20-4.84Q62.96-4.84 62.96-4.68L62.96-4.68L62.16-0.44Q62.12 0 61.64 0L61.64 0L57.96 0Q57.44 0 57.56-0.52L57.56-0.52L63.44-27.56Q63.52-28 63.96-28L63.96-28L68.24-28Q68.68-28 68.76-27.56L68.76-27.56L74.68-0.52L74.68-0.36Q74.68 0 74.24 0L74.24 0L70.52 0ZM63.76-8.68Q63.72-8.48 63.96-8.48L63.96-8.48L68.32-8.48Q68.56-8.48 68.52-8.68L68.52-8.68L66.32-20.76Q66.28-20.88 66.20-20.88Q66.12-20.88 66.08-20.76L66.08-20.76L63.76-8.68Z M84.36-0.04Q84.16-0.04 84.02-0.18Q83.88-0.32 83.88-0.52L83.88-0.52L83.88-11.44L83.84-11.68L78.28-27.44Q78.24-27.52 78.24-27.64L78.24-27.64Q78.24-28 78.68-28L78.68-28L82.52-28Q82.96-28 83.08-27.60L83.08-27.60L86.08-17.32Q86.12-17.20 86.20-17.20Q86.28-17.20 86.32-17.32L86.32-17.32L89.32-27.60Q89.44-28 89.88-28L89.88-28L93.72-28Q93.96-28 94.08-27.86Q94.20-27.72 94.12-27.44L94.12-27.44L88.56-11.68L88.52-11.44L88.52-0.52Q88.52-0.32 88.38-0.18Q88.24-0.04 88.04-0.04L88.04-0.04L84.36-0.04Z M108.08 0.32Q104.64 0.32 102.58-1.90Q100.52-4.12 100.52-7.76L100.52-7.76L100.52-27.52Q100.52-27.72 100.66-27.86Q100.80-28 101.00-28L101.00-28L104.68-28Q104.88-28 105.02-27.86Q105.16-27.72 105.16-27.52L105.16-27.52L105.16-7.28Q105.16-5.68 105.96-4.68Q106.76-3.68 108.08-3.68L108.08-3.68Q109.40-3.68 110.20-4.68Q111.00-5.68 111.00-7.28L111.00-7.28L111.00-27.52Q111.00-27.72 111.14-27.86Q111.28-28 111.48-28L111.48-28L115.16-28Q115.36-28 115.50-27.86Q115.64-27.72 115.64-27.52L115.64-27.52L115.64-7.76Q115.64-4.12 113.56-1.90Q111.48 0.32 108.08 0.32L108.08 0.32Z M137.36-28Q137.56-28 137.70-27.86Q137.84-27.72 137.84-27.52L137.84-27.52L137.84-24.48Q137.84-24.28 137.70-24.14Q137.56-24 137.36-24L137.36-24L132.28-24Q132.08-24 132.08-23.80L132.08-23.80L132.08-0.48Q132.08-0.28 131.94-0.14Q131.80 0 131.60 0L131.60 0L127.92 0Q127.72 0 127.58-0.14Q127.44-0.28 127.44-0.48L127.44-0.48L127.44-23.80Q127.44-24 127.24-24L127.24-24L122.44-24Q122.24-24 122.10-24.14Q121.96-24.28 121.96-24.48L121.96-24.48L121.96-27.52Q121.96-27.72 122.10-27.86Q122.24-28 122.44-28L122.44-28L137.36-28Z"/></g>
</svg>
</g></svg></svg>