<svg version="1.1" preserveAspectRatio="none" xmlns="http://www.w3.org/2000/svg" width="500" height="500" viewBox="0 0 500 500"><rect width="100%" height="100%" fill="#0E0E0E" fill-opacity="1"/><svg viewBox="129.9183 219.6645 418.9032 94" width="333" height="74.72370705213042" x="83.5px" y="212.6381px" xmlns="http://www.w3.org/2000/svg" xmlns:xlink="http://www.w3.org/1999/xlink" preserveAspectRatio="none"><defs></defs><style>.background {fill:#0E0E0E;fill-opacity:1;}.companyName {fill:#EBE7D9;fill-opacity:1;}.icon3 {fill:#DFDFDF;fill-opacity:1;}.icon3-str {stroke:#DFDFDF;stroke-opacity:1;}.shapeStroke-str {stroke:#EBE7D9;stroke-opacity:1;}</style><g opacity="1" transform="rotate(0 148.3605 220.6645)">
<svg width="382.0188" height="58" x="148.3605" y="220.6645" version="1.1" preserveAspectRatio="none" viewBox="0 0 382.0188 58">
  <defs><rect x="0" y="0" width="382.0188" height="58" rx="0px" ry="0px" id="id-MGa_3CcrI1676915726775"></rect></defs><use class="icon3 shapeStroke-str" style="stroke-width:0;" xlink:href="#id-MGa_3CcrI1676915726775"></use>
</svg>
</g><g opacity="1" transform="rotate(0 148.3605 219.6645)">
<svg width="382.0188" height="60" x="148.3605" y="219.6645" version="1.1" preserveAspectRatio="none" viewBox="2.8 -28 181.83999999999997 28.56">
  <g transform="matrix(1 0 0 1 0 0)" class="background"><path id="id-D6z1nYkh7" d="M15.60-28Q19.40-28 22.20-26.74Q25-25.48 26.52-23.14Q28.04-20.80 28.04-17.64L28.04-17.64Q28.04-14.48 26.52-12.16Q25-9.84 22.20-8.58Q19.40-7.32 15.60-7.32L15.60-7.32L10.72-7.32L10.72 0L2.80 0L2.80-28L15.60-28ZM15.12-13.56Q17.56-13.56 18.80-14.62Q20.04-15.68 20.04-17.64L20.04-17.64Q20.04-19.60 18.80-20.68Q17.56-21.76 15.12-21.76L15.12-21.76L10.72-21.76L10.72-13.56L15.12-13.56Z M31.88 0L31.88-28L39.80-28L39.80 0L31.88 0Z M64.24 0L56.24-10.16L53.28-7L53.28 0L45.44 0L45.44-28L53.28-28L53.28-16.36L64.12-28L72.84-28L61.40-15.60L73.44 0L64.24 0Z M95.16 0L92.96-5.44L81.12-5.44L78.92 0L70.84 0L83.20-28L91-28L103.40 0L95.16 0ZM83.44-11.28L90.64-11.28L87.04-20.24L83.44-11.28Z M129.60-28L118.88-10.04L118.88 0L110.96 0L110.96-10.16L100.28-28L108.64-28L115.28-16.88L121.92-28L129.60-28Z M144.12 0.56Q137.88 0.56 134.42-2.84Q130.96-6.24 130.96-12.48L130.96-12.48L130.96-28L138.88-28L138.88-12.72Q138.88-6 144.20-6L144.20-6Q149.48-6 149.48-12.72L149.48-12.72L149.48-28L157.28-28L157.28-12.48Q157.28-6.24 153.82-2.84Q150.36 0.56 144.12 0.56L144.12 0.56Z M168.16 0L168.16-21.72L159.56-21.72L159.56-28L184.64-28L184.64-21.72L176.08-21.72L176.08 0L168.16 0Z"/></g>
</svg>
</g><g opacity="1" transform="rotate(0 129.9183 299.6645)">
<svg width="418.9032" height="14" x="129.9183" y="299.6645" version="1.1" preserveAspectRatio="none" viewBox="1.92 -29.68 1120.2799999999997 37.44">
  <g transform="matrix(1 0 0 1 0 0)" class="companyName"><path id="id-6izo4zJp30" d="M16.72 0.32Q12.52 0.32 9.14-1.54Q5.76-3.40 3.84-6.66Q1.92-9.92 1.92-14L1.92-14Q1.92-18.08 3.84-21.34Q5.76-24.60 9.16-26.46Q12.56-28.32 16.76-28.32L16.76-28.32Q20.04-28.32 22.76-27.22Q25.48-26.12 27.40-23.96L27.40-23.96L24.80-21.44Q21.64-24.76 16.92-24.76L16.92-24.76Q13.80-24.76 11.28-23.36Q8.76-21.96 7.34-19.50Q5.92-17.04 5.92-14L5.92-14Q5.92-10.96 7.34-8.50Q8.76-6.04 11.28-4.64Q13.80-3.24 16.92-3.24L16.92-3.24Q21.60-3.24 24.80-6.60L24.80-6.60L27.40-4.08Q25.48-1.92 22.74-0.80Q20 0.32 16.72 0.32L16.72 0.32Z M57.16 0.32Q52.92 0.32 49.52-1.54Q46.12-3.40 44.18-6.68Q42.24-9.96 42.24-14L42.24-14Q42.24-18.04 44.18-21.32Q46.12-24.60 49.52-26.46Q52.92-28.32 57.16-28.32L57.16-28.32Q61.36-28.32 64.76-26.46Q68.16-24.60 70.08-21.34Q72-18.08 72-14L72-14Q72-9.92 70.08-6.66Q68.16-3.40 64.76-1.54Q61.36 0.32 57.16 0.32L57.16 0.32ZM57.16-3.24Q60.24-3.24 62.70-4.64Q65.16-6.04 66.58-8.50Q68-10.96 68-14L68-14Q68-17.04 66.58-19.50Q65.16-21.96 62.70-23.36Q60.24-24.76 57.16-24.76L57.16-24.76Q54.08-24.76 51.58-23.36Q49.08-21.96 47.66-19.50Q46.24-17.04 46.24-14L46.24-14Q46.24-10.96 47.66-8.50Q49.08-6.04 51.58-4.64Q54.08-3.24 57.16-3.24L57.16-3.24Z M119.92 0L116.08 0L116.04-20.40L105.92-3.40L104.08-3.40L93.96-20.28L93.96 0L90.12 0L90.12-28L93.40-28L105.08-8.32L116.60-28L119.88-28L119.92 0Z M170.12 0L166.28 0L166.24-20.40L156.12-3.40L154.28-3.40L144.16-20.28L144.16 0L140.32 0L140.32-28L143.60-28L155.28-8.32L166.80-28L170.08-28L170.12 0Z M202.12 0.32Q196.52 0.32 193.40-2.88Q190.28-6.08 190.28-12.08L190.28-12.08L190.28-28L194.28-28L194.28-12.24Q194.28-3.24 202.16-3.24L202.16-3.24Q206-3.24 208.04-5.46Q210.08-7.68 210.08-12.24L210.08-12.24L210.08-28L213.96-28L213.96-12.08Q213.96-6.04 210.84-2.86Q207.72 0.32 202.12 0.32L202.12 0.32Z M254.24-28L258.24-28L258.24 0L254.96 0L238.16-20.88L238.16 0L234.16 0L234.16-28L237.44-28L254.24-7.12L254.24-28Z M278.64 0L278.64-28L282.64-28L282.64 0L278.64 0Z M308.60 0L308.60-24.52L299-24.52L299-28L322.16-28L322.16-24.52L312.56-24.52L312.56 0L308.60 0Z M360.04-28L348.92-9.68L348.92 0L344.96 0L344.96-9.76L333.84-28L338.12-28L347.08-13.24L356.08-28L360.04-28Z M398.84 7.76L398.84-29.68L402.40-29.68L402.40 7.76L398.84 7.76Z M442.20-5.04L442.20-14.16L446.04-14.16L446.04-3.24Q443.96-1.52 441.20-0.60Q438.44 0.32 435.44 0.32L435.44 0.32Q431.20 0.32 427.80-1.54Q424.40-3.40 422.46-6.66Q420.52-9.92 420.52-14L420.52-14Q420.52-18.08 422.46-21.36Q424.40-24.64 427.82-26.48Q431.24-28.32 435.52-28.32L435.52-28.32Q438.88-28.32 441.62-27.22Q444.36-26.12 446.28-24L446.28-24L443.80-21.52Q440.44-24.76 435.68-24.76L435.68-24.76Q432.48-24.76 429.94-23.38Q427.40-22 425.96-19.54Q424.52-17.08 424.52-14L424.52-14Q424.52-10.96 425.96-8.50Q427.40-6.04 429.94-4.64Q432.48-3.24 435.64-3.24L435.64-3.24Q439.40-3.24 442.20-5.04L442.20-5.04Z M486.60 0L483.52-7L468.64-7L465.56 0L461.44 0L474.12-28L478.08-28L490.80 0L486.60 0ZM470.04-10.20L482.12-10.20L476.08-23.92L470.04-10.20Z M536.76 0L532.92 0L532.88-20.40L522.76-3.40L520.92-3.40L510.80-20.28L510.80 0L506.96 0L506.96-28L510.24-28L521.92-8.32L533.44-28L536.72-28L536.76 0Z M557.16 0L557.16-28L561.16-28L561.16 0L557.16 0Z M601.64-28L605.64-28L605.64 0L602.36 0L585.56-20.88L585.56 0L581.56 0L581.56-28L584.84-28L601.64-7.12L601.64-28Z M645.44-5.04L645.44-14.16L649.28-14.16L649.28-3.24Q647.20-1.52 644.44-0.60Q641.68 0.32 638.68 0.32L638.68 0.32Q634.44 0.32 631.04-1.54Q627.64-3.40 625.70-6.66Q623.76-9.92 623.76-14L623.76-14Q623.76-18.08 625.70-21.36Q627.64-24.64 631.06-26.48Q634.48-28.32 638.76-28.32L638.76-28.32Q642.12-28.32 644.86-27.22Q647.60-26.12 649.52-24L649.52-24L647.04-21.52Q643.68-24.76 638.92-24.76L638.92-24.76Q635.72-24.76 633.18-23.38Q630.64-22 629.20-19.54Q627.76-17.08 627.76-14L627.76-14Q627.76-10.96 629.20-8.50Q630.64-6.04 633.18-4.64Q635.72-3.24 638.88-3.24L638.88-3.24Q642.64-3.24 645.44-5.04L645.44-5.04Z M712.60 0L709.52-7L694.64-7L691.56 0L687.44 0L700.12-28L704.08-28L716.80 0L712.60 0ZM696.04-10.20L708.12-10.20L702.08-23.92L696.04-10.20Z M753.04-28L757.04-28L757.04 0L753.76 0L736.96-20.88L736.96 0L732.96 0L732.96-28L736.24-28L753.04-7.12L753.04-28Z M777.44 0L777.44-28L789.24-28Q793.68-28 797.12-26.24Q800.56-24.48 802.46-21.30Q804.36-18.12 804.36-14L804.36-14Q804.36-9.88 802.46-6.70Q800.56-3.52 797.12-1.76Q793.68 0 789.24 0L789.24 0L777.44 0ZM781.44-3.48L789-3.48Q792.40-3.48 794.98-4.80Q797.56-6.12 798.96-8.50Q800.36-10.88 800.36-14L800.36-14Q800.36-17.12 798.96-19.50Q797.56-21.88 794.98-23.20Q792.40-24.52 789-24.52L789-24.52L781.44-24.52L781.44-3.48Z M857.76 0.32Q853.56 0.32 850.18-1.54Q846.80-3.40 844.88-6.66Q842.96-9.92 842.96-14L842.96-14Q842.96-18.08 844.88-21.34Q846.80-24.60 850.20-26.46Q853.60-28.32 857.80-28.32L857.80-28.32Q861.08-28.32 863.80-27.22Q866.52-26.12 868.44-23.96L868.44-23.96L865.84-21.44Q862.68-24.76 857.96-24.76L857.96-24.76Q854.84-24.76 852.32-23.36Q849.80-21.96 848.38-19.50Q846.96-17.04 846.96-14L846.96-14Q846.96-10.96 848.38-8.50Q849.80-6.04 852.32-4.64Q854.84-3.24 857.96-3.24L857.96-3.24Q862.64-3.24 865.84-6.60L865.84-6.60L868.44-4.08Q866.52-1.92 863.78-0.80Q861.04 0.32 857.76 0.32L857.76 0.32Z M898.20 0.32Q893.96 0.32 890.56-1.54Q887.16-3.40 885.22-6.68Q883.28-9.96 883.28-14L883.28-14Q883.28-18.04 885.22-21.32Q887.16-24.60 890.56-26.46Q893.96-28.32 898.20-28.32L898.20-28.32Q902.40-28.32 905.80-26.46Q909.20-24.60 911.12-21.34Q913.04-18.08 913.04-14L913.04-14Q913.04-9.92 911.12-6.66Q909.20-3.40 905.80-1.54Q902.40 0.32 898.20 0.32L898.20 0.32ZM898.20-3.24Q901.28-3.24 903.74-4.64Q906.20-6.04 907.62-8.50Q909.04-10.96 909.04-14L909.04-14Q909.04-17.04 907.62-19.50Q906.20-21.96 903.74-23.36Q901.28-24.76 898.20-24.76L898.20-24.76Q895.12-24.76 892.62-23.36Q890.12-21.96 888.70-19.50Q887.28-17.04 887.28-14L887.28-14Q887.28-10.96 888.70-8.50Q890.12-6.04 892.62-4.64Q895.12-3.24 898.20-3.24L898.20-3.24Z M931.16 0L931.16-28L942.96-28Q947.40-28 950.84-26.24Q954.28-24.48 956.18-21.30Q958.08-18.12 958.08-14L958.08-14Q958.08-9.88 956.18-6.70Q954.28-3.52 950.84-1.76Q947.40 0 942.96 0L942.96 0L931.16 0ZM935.16-3.48L942.72-3.48Q946.12-3.48 948.70-4.80Q951.28-6.12 952.68-8.50Q954.08-10.88 954.08-14L954.08-14Q954.08-17.12 952.68-19.50Q951.28-21.88 948.70-23.20Q946.12-24.52 942.72-24.52L942.72-24.52L935.16-24.52L935.16-3.48Z M980.20-3.48L996.52-3.48L996.52 0L976.20 0L976.20-28L995.96-28L995.96-24.52L980.20-24.52L980.20-15.92L994.24-15.92L994.24-12.52L980.20-12.52L980.20-3.48Z M1015.00 7.76L1015.00-29.68L1018.56-29.68L1018.56 7.76L1015.00 7.76Z M1081.48-24.52L1065.72-24.52L1065.72-14.76L1079.76-14.76L1079.76-11.32L1065.72-11.32L1065.72 0L1061.72 0L1061.72-28L1081.48-28L1081.48-24.52Z M1122.20 0L1117.84 0L1111.80-8.60Q1110.68-8.52 1110.04-8.52L1110.04-8.52L1103.12-8.52L1103.12 0L1099.12 0L1099.12-28L1110.04-28Q1115.48-28 1118.60-25.40Q1121.72-22.80 1121.72-18.24L1121.72-18.24Q1121.72-15 1120.12-12.72Q1118.52-10.44 1115.56-9.40L1115.56-9.40L1122.20 0ZM1109.92-11.92Q1113.72-11.92 1115.72-13.56Q1117.72-15.20 1117.72-18.24L1117.72-18.24Q1117.72-21.28 1115.72-22.90Q1113.72-24.52 1109.92-24.52L1109.92-24.52L1103.12-24.52L1103.12-11.92L1109.92-11.92Z"/></g>
</svg>
</g></svg></svg>