<svg version="1.1" preserveAspectRatio="none" xmlns="http://www.w3.org/2000/svg" width="500" height="500" viewBox="0 0 500 500"><rect width="100%" height="100%" fill="#FFFFFF" fill-opacity="1"/><svg viewBox="129.9345 324.4903 459.2814 145.8" width="333" height="105.7116617394042" x="83.5px" y="197.1442px" xmlns="http://www.w3.org/2000/svg" xmlns:xlink="http://www.w3.org/1999/xlink" preserveAspectRatio="none"><defs></defs><style>.companyName {fill:#1e1e1e;fill-opacity:1;}.icon1 {fill:#EB3F3F;fill-opacity:1;}.icon3-str {stroke:#848383;stroke-opacity:1;}.shapeStroke-str {stroke:#1e1e1e;stroke-opacity:1;}.text {fill:#1e1e1e;fill-opacity:1;}</style><g opacity="1" transform="rotate(0 129.9345 446.4903)">
<svg width="459.2814" height="23.8" x="129.9345" y="446.4903" version="1.1" preserveAspectRatio="none" viewBox="1.56 -31.48 763.4 39.56">
  <g transform="matrix(1 0 0 1 0 0)" class="text"><path id="id-6izo4zJp30" d="M16.72 0.48Q12.44 0.48 8.98-1.38Q5.52-3.24 3.54-6.54Q1.56-9.84 1.56-14L1.56-14Q1.56-18.16 3.54-21.46Q5.52-24.76 8.98-26.62Q12.44-28.48 16.76-28.48L16.76-28.48Q20.40-28.48 23.34-27.20Q26.28-25.92 28.28-23.52L28.28-23.52L24.12-19.68Q21.28-22.96 17.08-22.96L17.08-22.96Q14.48-22.96 12.44-21.82Q10.40-20.68 9.26-18.64Q8.12-16.60 8.12-14L8.12-14Q8.12-11.40 9.26-9.36Q10.40-7.32 12.44-6.18Q14.48-5.04 17.08-5.04L17.08-5.04Q21.28-5.04 24.12-8.36L24.12-8.36L28.28-4.52Q26.28-2.08 23.32-0.80Q20.36 0.48 16.72 0.48L16.72 0.48Z M43.28 0.32Q39.88 0.32 37.18-1.10Q34.48-2.52 32.96-5.04Q31.44-7.56 31.44-10.76L31.44-10.76Q31.44-13.96 32.96-16.48Q34.48-19 37.18-20.42Q39.88-21.84 43.28-21.84L43.28-21.84Q46.68-21.84 49.36-20.42Q52.04-19 53.56-16.48Q55.08-13.96 55.08-10.76L55.08-10.76Q55.08-7.56 53.56-5.04Q52.04-2.52 49.36-1.10Q46.68 0.32 43.28 0.32L43.28 0.32ZM43.28-4.80Q45.68-4.80 47.22-6.42Q48.76-8.04 48.76-10.76L48.76-10.76Q48.76-13.48 47.22-15.10Q45.68-16.72 43.28-16.72L43.28-16.72Q40.88-16.72 39.32-15.10Q37.76-13.48 37.76-10.76L37.76-10.76Q37.76-8.04 39.32-6.42Q40.88-4.80 43.28-4.80L43.28-4.80Z M88.40-21.84Q92.44-21.84 94.82-19.46Q97.20-17.08 97.20-12.32L97.20-12.32L97.20 0L90.96 0L90.96-11.36Q90.96-13.92 89.90-15.18Q88.84-16.44 86.88-16.44L86.88-16.44Q84.68-16.44 83.40-15.02Q82.12-13.60 82.12-10.80L82.12-10.80L82.12 0L75.88 0L75.88-11.36Q75.88-16.44 71.80-16.44L71.80-16.44Q69.64-16.44 68.36-15.02Q67.08-13.60 67.08-10.80L67.08-10.80L67.08 0L60.84 0L60.84-21.52L66.80-21.52L66.80-19.04Q68-20.40 69.74-21.12Q71.48-21.84 73.56-21.84L73.56-21.84Q75.84-21.84 77.68-20.94Q79.52-20.04 80.64-18.32L80.64-18.32Q81.96-20 83.98-20.92Q86-21.84 88.40-21.84L88.40-21.84Z M131.96-21.84Q136-21.84 138.38-19.46Q140.76-17.08 140.76-12.32L140.76-12.32L140.76 0L134.52 0L134.52-11.36Q134.52-13.92 133.46-15.18Q132.40-16.44 130.44-16.44L130.44-16.44Q128.24-16.44 126.96-15.02Q125.68-13.60 125.68-10.80L125.68-10.80L125.68 0L119.44 0L119.44-11.36Q119.44-16.44 115.36-16.44L115.36-16.44Q113.20-16.44 111.92-15.02Q110.64-13.60 110.64-10.80L110.64-10.80L110.64 0L104.40 0L104.40-21.52L110.36-21.52L110.36-19.04Q111.56-20.40 113.30-21.12Q115.04-21.84 117.12-21.84L117.12-21.84Q119.40-21.84 121.24-20.94Q123.08-20.04 124.20-18.32L124.20-18.32Q125.52-20 127.54-20.92Q129.56-21.84 131.96-21.84L131.96-21.84Z M163.40-21.52L169.64-21.52L169.64 0L163.72 0L163.72-2.56Q162.48-1.16 160.76-0.42Q159.04 0.32 157.04 0.32L157.04 0.32Q152.80 0.32 150.32-2.12Q147.84-4.56 147.84-9.36L147.84-9.36L147.84-21.52L154.08-21.52L154.08-10.28Q154.08-5.08 158.44-5.08L158.44-5.08Q160.68-5.08 162.04-6.54Q163.40-8 163.40-10.88L163.40-10.88L163.40-21.52Z M190.12-21.84Q194.12-21.84 196.58-19.44Q199.04-17.04 199.04-12.32L199.04-12.32L199.04 0L192.80 0L192.80-11.36Q192.80-13.92 191.68-15.18Q190.56-16.44 188.44-16.44L188.44-16.44Q186.08-16.44 184.68-14.98Q183.28-13.52 183.28-10.64L183.28-10.64L183.28 0L177.04 0L177.04-21.52L183.00-21.52L183.00-19Q184.24-20.36 186.08-21.10Q187.92-21.84 190.12-21.84L190.12-21.84Z M206.28 0L206.28-21.52L212.52-21.52L212.52 0L206.28 0ZM209.40-24.52Q207.68-24.52 206.60-25.52Q205.52-26.52 205.52-28L205.52-28Q205.52-29.48 206.60-30.48Q207.68-31.48 209.40-31.48L209.40-31.48Q211.12-31.48 212.20-30.52Q213.28-29.56 213.28-28.12L213.28-28.12Q213.28-26.56 212.20-25.54Q211.12-24.52 209.40-24.52L209.40-24.52Z M232.12-5.44L233.80-1.04Q232.88-0.36 231.54-0.02Q230.20 0.32 228.72 0.32L228.72 0.32Q224.88 0.32 222.78-1.64Q220.68-3.60 220.68-7.40L220.68-7.40L220.68-16.24L217.36-16.24L217.36-21.04L220.68-21.04L220.68-26.28L226.92-26.28L226.92-21.04L232.28-21.04L232.28-16.24L226.92-16.24L226.92-7.48Q226.92-6.12 227.62-5.38Q228.32-4.64 229.60-4.64L229.60-4.64Q231.08-4.64 232.12-5.44L232.12-5.44Z M253.88-21.52L259.88-21.52L250.16 1.32Q248.68 5.04 246.50 6.56Q244.32 8.08 241.24 8.08L241.24 8.08Q239.56 8.08 237.92 7.56Q236.28 7.04 235.24 6.12L235.24 6.12L237.52 1.68Q238.24 2.32 239.18 2.68Q240.12 3.04 241.04 3.04L241.04 3.04Q242.32 3.04 243.12 2.42Q243.92 1.80 244.56 0.36L244.56 0.36L244.64 0.16L235.32-21.52L241.76-21.52L247.80-6.92L253.88-21.52Z M277.40 7.76L277.40-29.68L283.12-29.68L283.12 7.76L277.40 7.76Z M310.28-6.24L310.28-14.44L316.20-14.44L316.20-3.08Q313.92-1.36 310.92-0.44Q307.92 0.48 304.88 0.48L304.88 0.48Q300.52 0.48 297.04-1.38Q293.56-3.24 291.58-6.54Q289.60-9.84 289.60-14L289.60-14Q289.60-18.16 291.58-21.46Q293.56-24.76 297.08-26.62Q300.60-28.48 305-28.48L305-28.48Q308.68-28.48 311.68-27.24Q314.68-26 316.72-23.64L316.72-23.64L312.56-19.80Q309.56-22.96 305.32-22.96L305.32-22.96Q302.64-22.96 300.56-21.84Q298.48-20.72 297.32-18.68Q296.16-16.64 296.16-14L296.16-14Q296.16-11.40 297.32-9.36Q298.48-7.32 300.54-6.18Q302.60-5.04 305.24-5.04L305.24-5.04Q308.04-5.04 310.28-6.24L310.28-6.24Z M332.04-21.84Q337.04-21.84 339.72-19.46Q342.40-17.08 342.40-12.28L342.40-12.28L342.40 0L336.56 0L336.56-2.68Q334.80 0.32 330 0.32L330 0.32Q327.52 0.32 325.70-0.52Q323.88-1.36 322.92-2.84Q321.96-4.32 321.96-6.20L321.96-6.20Q321.96-9.20 324.22-10.92Q326.48-12.64 331.20-12.64L331.20-12.64L336.16-12.64Q336.16-14.68 334.92-15.78Q333.68-16.88 331.20-16.88L331.20-16.88Q329.48-16.88 327.82-16.34Q326.16-15.80 325-14.88L325-14.88L322.76-19.24Q324.52-20.48 326.98-21.16Q329.44-21.84 332.04-21.84L332.04-21.84ZM331.56-3.88Q333.16-3.88 334.40-4.62Q335.64-5.36 336.16-6.80L336.16-6.80L336.16-9L331.88-9Q328.04-9 328.04-6.48L328.04-6.48Q328.04-5.28 328.98-4.58Q329.92-3.88 331.56-3.88L331.56-3.88Z M377.20-21.84Q381.24-21.84 383.62-19.46Q386.00-17.08 386.00-12.32L386.00-12.32L386.00 0L379.76 0L379.76-11.36Q379.76-13.92 378.70-15.18Q377.64-16.44 375.68-16.44L375.68-16.44Q373.48-16.44 372.20-15.02Q370.92-13.60 370.92-10.80L370.92-10.80L370.92 0L364.68 0L364.68-11.36Q364.68-16.44 360.60-16.44L360.60-16.44Q358.44-16.44 357.16-15.02Q355.88-13.60 355.88-10.80L355.88-10.80L355.88 0L349.64 0L349.64-21.52L355.60-21.52L355.60-19.04Q356.80-20.40 358.54-21.12Q360.28-21.84 362.36-21.84L362.36-21.84Q364.64-21.84 366.48-20.94Q368.32-20.04 369.44-18.32L369.44-18.32Q370.76-20 372.78-20.92Q374.80-21.84 377.20-21.84L377.20-21.84Z M393.20 0L393.20-21.52L399.44-21.52L399.44 0L393.20 0ZM396.32-24.52Q394.60-24.52 393.52-25.52Q392.44-26.52 392.44-28L392.44-28Q392.44-29.48 393.52-30.48Q394.60-31.48 396.32-31.48L396.32-31.48Q398.04-31.48 399.12-30.52Q400.20-29.56 400.20-28.12L400.20-28.12Q400.20-26.56 399.12-25.54Q398.04-24.52 396.32-24.52L396.32-24.52Z M419.92-21.84Q423.92-21.84 426.38-19.44Q428.84-17.04 428.84-12.32L428.84-12.32L428.84 0L422.60 0L422.60-11.36Q422.60-13.92 421.48-15.18Q420.36-16.44 418.24-16.44L418.24-16.44Q415.88-16.44 414.48-14.98Q413.08-13.52 413.08-10.64L413.08-10.64L413.08 0L406.84 0L406.84-21.52L412.80-21.52L412.80-19Q414.04-20.36 415.88-21.10Q417.72-21.84 419.92-21.84L419.92-21.84Z M452.60-21.52L458.52-21.52L458.52-3.60Q458.52 2.32 455.44 5.20Q452.36 8.08 446.44 8.08L446.44 8.08Q443.32 8.08 440.52 7.32Q437.72 6.56 435.88 5.12L435.88 5.12L438.36 0.64Q439.72 1.76 441.80 2.42Q443.88 3.08 445.96 3.08L445.96 3.08Q449.20 3.08 450.74 1.62Q452.28 0.16 452.28-2.80L452.28-2.80L452.28-3.72Q449.84-1.04 445.48-1.04L445.48-1.04Q442.52-1.04 440.06-2.34Q437.60-3.64 436.16-6Q434.72-8.36 434.72-11.44L434.72-11.44Q434.72-14.52 436.16-16.88Q437.60-19.24 440.06-20.54Q442.52-21.84 445.48-21.84L445.48-21.84Q450.16-21.84 452.60-18.76L452.60-18.76L452.60-21.52ZM446.72-6.16Q449.20-6.16 450.78-7.62Q452.36-9.08 452.36-11.44L452.36-11.44Q452.36-13.80 450.78-15.26Q449.20-16.72 446.72-16.72L446.72-16.72Q444.24-16.72 442.64-15.26Q441.04-13.80 441.04-11.44L441.04-11.44Q441.04-9.08 442.64-7.62Q444.24-6.16 446.72-6.16L446.72-6.16Z M487.52-21.84Q492.52-21.84 495.20-19.46Q497.88-17.08 497.88-12.28L497.88-12.28L497.88 0L492.04 0L492.04-2.68Q490.28 0.32 485.48 0.32L485.48 0.32Q483.00 0.32 481.18-0.52Q479.36-1.36 478.40-2.84Q477.44-4.32 477.44-6.20L477.44-6.20Q477.44-9.20 479.70-10.92Q481.96-12.64 486.68-12.64L486.68-12.64L491.64-12.64Q491.64-14.68 490.40-15.78Q489.16-16.88 486.68-16.88L486.68-16.88Q484.96-16.88 483.30-16.34Q481.64-15.80 480.48-14.88L480.48-14.88L478.24-19.24Q480.00-20.48 482.46-21.16Q484.92-21.84 487.52-21.84L487.52-21.84ZM487.04-3.88Q488.64-3.88 489.88-4.62Q491.12-5.36 491.64-6.80L491.64-6.80L491.64-9L487.36-9Q483.52-9 483.52-6.48L483.52-6.48Q483.52-5.28 484.46-4.58Q485.40-3.88 487.04-3.88L487.04-3.88Z M518.20-21.84Q522.20-21.84 524.66-19.44Q527.12-17.04 527.12-12.32L527.12-12.32L527.12 0L520.88 0L520.88-11.36Q520.88-13.92 519.76-15.18Q518.64-16.44 516.52-16.44L516.52-16.44Q514.16-16.44 512.76-14.98Q511.36-13.52 511.36-10.64L511.36-10.64L511.36 0L505.12 0L505.12-21.52L511.08-21.52L511.08-19Q512.32-20.36 514.16-21.10Q516.00-21.84 518.20-21.84L518.20-21.84Z M550.28-29.68L556.52-29.68L556.52 0L550.56 0L550.56-2.48Q548.24 0.32 543.84 0.32L543.84 0.32Q540.80 0.32 538.34-1.04Q535.88-2.40 534.48-4.92Q533.08-7.44 533.08-10.76L533.08-10.76Q533.08-14.08 534.48-16.60Q535.88-19.12 538.34-20.48Q540.80-21.84 543.84-21.84L543.84-21.84Q547.96-21.84 550.28-19.24L550.28-19.24L550.28-29.68ZM544.92-4.80Q547.28-4.80 548.84-6.42Q550.40-8.04 550.40-10.76L550.40-10.76Q550.40-13.48 548.84-15.10Q547.28-16.72 544.92-16.72L544.92-16.72Q542.52-16.72 540.96-15.10Q539.40-13.48 539.40-10.76L539.40-10.76Q539.40-8.04 540.96-6.42Q542.52-4.80 544.92-4.80L544.92-4.80Z M587.20 0.32Q583.76 0.32 581.02-1.10Q578.28-2.52 576.74-5.04Q575.20-7.56 575.20-10.76L575.20-10.76Q575.20-13.96 576.74-16.48Q578.28-19 581.02-20.42Q583.76-21.84 587.20-21.84L587.20-21.84Q590.60-21.84 593.14-20.42Q595.68-19 596.84-16.36L596.84-16.36L592.00-13.76Q590.32-16.72 587.16-16.72L587.16-16.72Q584.72-16.72 583.12-15.12Q581.52-13.52 581.52-10.76L581.52-10.76Q581.52-8 583.12-6.40Q584.72-4.80 587.16-4.80L587.16-4.80Q590.36-4.80 592.00-7.76L592.00-7.76L596.84-5.12Q595.68-2.56 593.14-1.12Q590.60 0.32 587.20 0.32L587.20 0.32Z M612.00 0.32Q608.60 0.32 605.90-1.10Q603.20-2.52 601.68-5.04Q600.16-7.56 600.16-10.76L600.16-10.76Q600.16-13.96 601.68-16.48Q603.20-19 605.90-20.42Q608.60-21.84 612.00-21.84L612.00-21.84Q615.40-21.84 618.08-20.42Q620.76-19 622.28-16.48Q623.80-13.96 623.80-10.76L623.80-10.76Q623.80-7.56 622.28-5.04Q620.76-2.52 618.08-1.10Q615.40 0.32 612.00 0.32L612.00 0.32ZM612.00-4.80Q614.40-4.80 615.94-6.42Q617.48-8.04 617.48-10.76L617.48-10.76Q617.48-13.48 615.94-15.10Q614.40-16.72 612.00-16.72L612.00-16.72Q609.60-16.72 608.04-15.10Q606.48-13.48 606.48-10.76L606.48-10.76Q606.48-8.04 608.04-6.42Q609.60-4.80 612.00-4.80L612.00-4.80Z M645.24-29.68L651.48-29.68L651.48 0L645.52 0L645.52-2.48Q643.20 0.32 638.80 0.32L638.80 0.32Q635.76 0.32 633.30-1.04Q630.84-2.40 629.44-4.92Q628.04-7.44 628.04-10.76L628.04-10.76Q628.04-14.08 629.44-16.60Q630.84-19.12 633.30-20.48Q635.76-21.84 638.80-21.84L638.80-21.84Q642.92-21.84 645.24-19.24L645.24-19.24L645.24-29.68ZM639.88-4.80Q642.24-4.80 643.80-6.42Q645.36-8.04 645.36-10.76L645.36-10.76Q645.36-13.48 643.80-15.10Q642.24-16.72 639.88-16.72L639.88-16.72Q637.48-16.72 635.92-15.10Q634.36-13.48 634.36-10.76L634.36-10.76Q634.36-8.04 635.92-6.42Q637.48-4.80 639.88-4.80L639.88-4.80Z M679.92-10.68Q679.92-10.56 679.80-9L679.80-9L663.52-9Q663.96-7 665.60-5.84Q667.24-4.68 669.68-4.68L669.68-4.68Q671.36-4.68 672.66-5.18Q673.96-5.68 675.08-6.76L675.08-6.76L678.40-3.16Q675.36 0.32 669.52 0.32L669.52 0.32Q665.88 0.32 663.08-1.10Q660.28-2.52 658.76-5.04Q657.24-7.56 657.24-10.76L657.24-10.76Q657.24-13.92 658.74-16.46Q660.24-19 662.86-20.42Q665.48-21.84 668.72-21.84L668.72-21.84Q671.88-21.84 674.44-20.48Q677.00-19.12 678.46-16.58Q679.92-14.04 679.92-10.68L679.92-10.68ZM668.76-17.12Q666.64-17.12 665.20-15.92Q663.76-14.72 663.44-12.64L663.44-12.64L674.04-12.64Q673.72-14.68 672.28-15.90Q670.84-17.12 668.76-17.12L668.76-17.12Z M686.12 7.76L686.12-29.68L691.84-29.68L691.84 7.76L686.12 7.76Z M734.16-22.80L719.48-22.80L719.48-15.40L732.44-15.40L732.44-10.20L719.48-10.20L719.48 0L713.00 0L713.00-28L734.16-28L734.16-22.80Z M764.96 0L758.00 0L752.60-7.80L752.28-7.80L746.64-7.80L746.64 0L740.16 0L740.16-28L752.28-28Q756.00-28 758.74-26.76Q761.48-25.52 762.96-23.24Q764.44-20.96 764.44-17.84L764.44-17.84Q764.44-14.72 762.94-12.46Q761.44-10.20 758.68-9L758.68-9L764.96 0ZM757.88-17.84Q757.88-20.20 756.36-21.46Q754.84-22.72 751.92-22.72L751.92-22.72L746.64-22.72L746.64-12.96L751.92-12.96Q754.84-12.96 756.36-14.24Q757.88-15.52 757.88-17.84L757.88-17.84Z"/></g>
</svg>
</g><g opacity="1" transform="rotate(0 129.9345 364.4903)">
<svg width="352.1055" height="70" x="129.9345" y="364.4903" version="1.1" preserveAspectRatio="none" viewBox="2.28 -32.84 167.20000000000002 33.24000000000001">
  <g transform="matrix(1 0 0 1 0 0)" class="companyName"><path id="id-D6z1nYkh7" d="M15.76-28Q19.64-28 22.52-26.72Q25.40-25.44 26.96-23.04Q28.52-20.64 28.52-17.44L28.52-17.44Q28.52-14.24 26.96-11.84Q25.40-9.44 22.52-8.16Q19.64-6.88 15.76-6.88L15.76-6.88L11.72-6.88L11.72 0L2.28 0L2.28-28L15.76-28ZM15.16-14.16Q17.08-14.16 18.04-15.02Q19-15.88 19-17.44L19-17.44Q19-19 18.04-19.86Q17.08-20.72 15.16-20.72L15.16-20.72L11.72-20.72L11.72-14.16L15.16-14.16Z M31.72 0L31.72-21.88L40.76-21.88L40.76 0L31.72 0ZM36.24-23.64Q33.80-23.64 32.30-24.94Q30.80-26.24 30.80-28.24L30.80-28.24Q30.80-30.24 32.30-31.54Q33.80-32.84 36.24-32.84L36.24-32.84Q38.72-32.84 40.20-31.60Q41.68-30.36 41.68-28.40L41.68-28.40Q41.68-26.32 40.20-24.98Q38.72-23.64 36.24-23.64L36.24-23.64Z M60.56 0L55.24-6.72L53.80-5.16L53.80 0L44.76 0L44.76-29.68L53.80-29.68L53.80-15.52L60.08-21.88L70.76-21.88L61.72-12.40L71.48 0L60.56 0Z M82.68-22.28Q88.44-22.28 91.48-19.70Q94.52-17.12 94.52-11.76L94.52-11.76L94.52 0L86.12 0L86.12-2.88Q84.56 0.40 79.92 0.40L79.92 0.40Q77.32 0.40 75.50-0.50Q73.68-1.40 72.74-2.94Q71.80-4.48 71.80-6.40L71.80-6.40Q71.80-9.64 74.28-11.32Q76.76-13 81.80-13L81.80-13L85.44-13Q85-15.56 81.32-15.56L81.32-15.56Q79.84-15.56 78.32-15.10Q76.80-14.64 75.72-13.84L75.72-13.84L72.84-19.80Q74.72-20.96 77.38-21.62Q80.04-22.28 82.68-22.28L82.68-22.28ZM82.64-5.04Q83.60-5.04 84.36-5.56Q85.12-6.08 85.48-7.12L85.48-7.12L85.48-8.64L83.24-8.64Q80.48-8.64 80.48-6.80L80.48-6.80Q80.48-6.04 81.06-5.54Q81.64-5.04 82.64-5.04L82.64-5.04Z M125.92-28L115.36-10.16L115.36 0L105.92 0L105.92-10.28L95.36-28L105.32-28L111.04-18.32L116.80-28L125.92-28Z M140.32-21.88L149.36-21.88L149.36 0L140.76 0L140.76-2.08Q139.56-0.84 137.96-0.22Q136.36 0.40 134.56 0.40L134.56 0.40Q130.40 0.40 127.88-2.14Q125.36-4.68 125.36-9.80L125.36-9.80L125.36-21.88L134.40-21.88L134.40-11.36Q134.40-9.12 135.12-8.16Q135.84-7.20 137.24-7.20L137.24-7.20Q138.56-7.20 139.44-8.26Q140.32-9.32 140.32-11.60L140.32-11.60L140.32-21.88Z M167.32-7.04L169.48-0.76Q167.44 0.40 163.92 0.40L163.92 0.40Q159.32 0.40 156.84-1.82Q154.36-4.04 154.36-8.48L154.36-8.48L154.36-14.08L151.36-14.08L151.36-20.68L154.36-20.68L154.36-26.80L163.40-26.80L163.40-20.68L167.88-20.68L167.88-14.08L163.40-14.08L163.40-8.56Q163.40-7.56 163.92-7Q164.44-6.44 165.28-6.44L165.28-6.44Q166.44-6.44 167.32-7.04L167.32-7.04Z"/></g>
</svg>
</g><g opacity="1" transform="rotate(0 129.9345 324.4903)">
<svg width="130.0001" height="22" x="129.9345" y="324.4903" version="1.1" preserveAspectRatio="none" viewBox="0 0 130.0001 22">
  <defs><rect x="0" y="0" width="130.0001" height="22" rx="0%" ry="0%" id="id-bTUYkkdP1676915579527"></rect></defs><use class="icon1 shapeStroke-str" style="stroke-width:0;" xlink:href="#id-bTUYkkdP1676915579527"></use>
</svg>
</g></svg></svg>