<svg version="1.1" preserveAspectRatio="none" xmlns="http://www.w3.org/2000/svg" width="500" height="500" viewBox="0 0 500 500"><rect width="100%" height="100%" fill="#FFFFFF" fill-opacity="1"/><svg viewBox="45.5568 193.4487 415.2965 125" width="333" height="100.22959500019866" x="83.5px" y="199.8852px" xmlns="http://www.w3.org/2000/svg" xmlns:xlink="http://www.w3.org/1999/xlink" preserveAspectRatio="none"><defs></defs><style>.companyName {fill:#0B3B63;fill-opacity:1;}.icon2 {fill:#0B3B63;fill-opacity:1;}.icon3 {fill:#FFA8C5;fill-opacity:1;}.icon3-str {stroke:#FFA8C5;stroke-opacity:1;}.shapeStroke-str {stroke:#0B3B63;stroke-opacity:1;}.text {fill:#0B3B63;fill-opacity:1;}</style><g opacity="1" transform="rotate(0 45.5568 293.4487)">
<svg width="415.2965" height="25" x="45.5568" y="293.4487" version="1.1" preserveAspectRatio="none" viewBox="0.0195 -33.4375 726.4258 43.7305">
  <g transform="matrix(1 0 0 1 0 0)" class="text"><path id="id-6izo4zJp30" d="M9.14 0.76L9.14 0.76Q6.97 0.76 5.27 0.09Q3.57-0.59 2.41-1.87Q1.25-3.14 0.63-5.01Q0.02-6.88 0.02-9.26L0.02-9.26Q0.02-10.57 0.21-12.03Q0.39-13.50 0.78-15L0.78-15Q1.39-17.38 2.36-19.52Q3.34-21.66 4.62-23.48Q5.90-25.29 7.43-26.77Q8.96-28.24 10.66-29.28Q12.36-30.31 14.20-30.87Q16.04-31.43 17.93-31.43L17.93-31.43Q18.83-31.43 19.75-31.21Q20.66-31.00 21.40-30.50Q22.13-30 22.59-29.17Q23.05-28.34 23.05-27.11L23.05-27.11Q23.05-26.02 22.72-25.09Q22.40-24.16 21.83-23.39Q21.25-22.62 20.49-21.97Q19.73-21.33 18.85-20.82L18.85-20.82L18.50-21.31Q20.08-22.58 20.83-24.11Q21.58-25.64 21.58-27.32L21.58-27.32Q21.58-29.08 20.77-29.88Q19.96-30.68 18.40-30.68L18.40-30.68Q16.41-30.68 14.35-29.50Q12.29-28.32 10.39-26.25Q8.50-24.18 6.91-21.38Q5.33-18.57 4.30-15.33L4.30-15.33Q3.63-13.24 3.28-11.22Q2.93-9.20 2.93-7.44L2.93-7.44Q2.93-0.20 9.43-0.20L9.43-0.20Q13.14-0.20 16.27-2.55Q19.39-4.90 22.17-9.79L22.17-9.79L23.18-11.58L23.71-11.21L22.70-9.41Q21.21-6.80 19.67-4.88Q18.13-2.97 16.46-1.72Q14.80-0.47 12.99 0.15Q11.17 0.76 9.14 0.76Z M23.03-11.35L23.03-11.35Q23.71-13.96 25.03-16.19Q26.35-18.42 28.06-20.05Q29.77-21.68 31.77-22.60Q33.77-23.52 35.80-23.52L35.80-23.52Q37.44-23.52 38.56-22.96Q39.69-22.40 40.37-21.46Q41.05-20.53 41.35-19.30Q41.64-18.07 41.64-16.72L41.64-16.72Q41.64-15.25 41.36-13.79Q41.07-12.32 40.63-11.00L40.63-11.00Q39.79-8.54 38.46-6.46Q37.13-4.38 35.50-2.85Q33.87-1.33 32.03-0.48Q30.20 0.37 28.36 0.37L28.36 0.37Q26.97 0.37 25.87-0.13Q24.77-0.63 24.00-1.56Q23.24-2.50 22.83-3.86Q22.42-5.21 22.42-6.91L22.42-6.91Q22.42-7.99 22.58-9.11Q22.73-10.23 23.03-11.35ZM28.65-0.61L28.65-0.61Q30.06-0.61 31.51-1.41Q32.97-2.21 34.33-3.64Q35.68-5.08 36.86-7.07Q38.03-9.06 38.87-11.45L38.87-11.45Q39.10-12.09 39.33-12.89Q39.55-13.69 39.75-14.56Q39.94-15.43 40.06-16.34Q40.18-17.25 40.18-18.11L40.18-18.11Q40.18-19.04 40-19.89Q39.82-20.74 39.40-21.37Q38.98-21.99 38.27-22.36Q37.56-22.73 36.50-22.73L36.50-22.73Q34.98-22.73 33.49-21.92Q31.99-21.11 30.65-19.64Q29.32-18.16 28.22-16.11Q27.13-14.06 26.41-11.58L26.41-11.58Q25.92-9.92 25.65-8.25Q25.39-6.58 25.39-5.21L25.39-5.21Q25.39-0.61 28.65-0.61Z M42.83 0L51.27-23.14L54.16-23.14L51.09-14.77Q52.40-16.99 53.56-18.63Q54.73-20.27 55.87-21.36Q57.01-22.44 58.21-22.98Q59.41-23.52 60.78-23.52L60.78-23.52Q61.97-23.52 62.88-23.13Q63.79-22.73 64.40-22.03Q65.02-21.33 65.33-20.33Q65.64-19.34 65.64-18.14L65.64-18.14Q65.64-17.40 65.51-16.53Q65.37-15.66 65-14.41L65-14.41Q66.31-16.68 67.48-18.38Q68.65-20.08 69.81-21.22Q70.98-22.36 72.20-22.94Q73.42-23.52 74.80-23.52L74.80-23.52Q76.02-23.52 76.94-23.11Q77.87-22.70 78.49-22.01Q79.10-21.33 79.41-20.40Q79.73-19.47 79.73-18.46L79.73-18.46Q79.73-17.36 79.40-16.05Q79.08-14.75 78.59-13.36Q78.11-11.97 77.54-10.56Q76.97-9.14 76.48-7.83Q76.00-6.52 75.67-5.38Q75.35-4.24 75.35-3.38L75.35-3.38Q75.35-2.19 76.08-1.40Q76.82-0.61 78.38-0.61L78.38-0.61Q80.90-0.61 83.25-2.89Q85.61-5.18 88.16-9.79L88.16-9.79L89.16-11.58L89.69-11.21L88.67-9.41Q87.29-6.95 86.00-5.11Q84.71-3.26 83.42-2.05Q82.13-0.84 80.78-0.23Q79.43 0.37 77.93 0.37L77.93 0.37Q76.70 0.37 75.78 0Q74.86-0.37 74.24-1.02Q73.61-1.66 73.30-2.51Q72.99-3.36 72.99-4.32L72.99-4.32Q72.99-5.33 73.31-6.60Q73.63-7.87 74.12-9.24Q74.61-10.61 75.18-12.02Q75.74-13.44 76.23-14.78Q76.72-16.11 77.04-17.31Q77.36-18.52 77.36-19.45L77.36-19.45Q77.36-20.10 77.19-20.66Q77.01-21.23 76.64-21.65Q76.27-22.07 75.70-22.30Q75.14-22.54 74.36-22.54L74.36-22.54Q73.13-22.54 71.99-21.92Q70.86-21.31 69.73-20.10Q68.59-18.89 67.41-17.11Q66.23-15.33 64.92-13.01L64.92-13.01L63.95-11.27L59.84 0L56.95 0L61.15-11.58Q61.66-13.01 62.06-14.15Q62.46-15.29 62.73-16.22Q63.01-17.15 63.14-17.90Q63.28-18.65 63.28-19.30L63.28-19.30Q63.28-20.76 62.55-21.65Q61.82-22.54 60.27-22.54L60.27-22.54Q59.04-22.54 57.92-21.93Q56.80-21.33 55.66-20.14Q54.53-18.95 53.35-17.16Q52.17-15.37 50.84-13.01L50.84-13.01L49.82-11.21L45.72 0L42.83 0Z M84.92 0L93.36-23.14L96.25-23.14L93.18-14.77Q94.49-16.99 95.65-18.63Q96.82-20.27 97.96-21.36Q99.10-22.44 100.30-22.98Q101.50-23.52 102.87-23.52L102.87-23.52Q104.06-23.52 104.97-23.13Q105.88-22.73 106.49-22.03Q107.11-21.33 107.42-20.33Q107.73-19.34 107.73-18.14L107.73-18.14Q107.73-17.40 107.60-16.53Q107.46-15.66 107.09-14.41L107.09-14.41Q108.40-16.68 109.57-18.38Q110.74-20.08 111.90-21.22Q113.07-22.36 114.29-22.94Q115.51-23.52 116.89-23.52L116.89-23.52Q118.11-23.52 119.03-23.11Q119.96-22.70 120.58-22.01Q121.19-21.33 121.50-20.40Q121.82-19.47 121.82-18.46L121.82-18.46Q121.82-17.36 121.49-16.05Q121.17-14.75 120.68-13.36Q120.20-11.97 119.63-10.56Q119.06-9.14 118.57-7.83Q118.09-6.52 117.76-5.38Q117.44-4.24 117.44-3.38L117.44-3.38Q117.44-2.19 118.17-1.40Q118.91-0.61 120.47-0.61L120.47-0.61Q122.99-0.61 125.34-2.89Q127.70-5.18 130.25-9.79L130.25-9.79L131.25-11.58L131.78-11.21L130.76-9.41Q129.38-6.95 128.09-5.11Q126.80-3.26 125.51-2.05Q124.22-0.84 122.87-0.23Q121.52 0.37 120.02 0.37L120.02 0.37Q118.79 0.37 117.87 0Q116.95-0.37 116.33-1.02Q115.70-1.66 115.39-2.51Q115.08-3.36 115.08-4.32L115.08-4.32Q115.08-5.33 115.40-6.60Q115.72-7.87 116.21-9.24Q116.70-10.61 117.27-12.02Q117.83-13.44 118.32-14.78Q118.81-16.11 119.13-17.31Q119.45-18.52 119.45-19.45L119.45-19.45Q119.45-20.10 119.28-20.66Q119.10-21.23 118.73-21.65Q118.36-22.07 117.79-22.30Q117.23-22.54 116.45-22.54L116.45-22.54Q115.21-22.54 114.08-21.92Q112.95-21.31 111.82-20.10Q110.68-18.89 109.50-17.11Q108.32-15.33 107.01-13.01L107.01-13.01L106.04-11.27L101.93 0L99.04 0L103.24-11.58Q103.75-13.01 104.15-14.15Q104.55-15.29 104.82-16.22Q105.10-17.15 105.23-17.90Q105.37-18.65 105.37-19.30L105.37-19.30Q105.37-20.76 104.64-21.65Q103.91-22.54 102.36-22.54L102.36-22.54Q101.13-22.54 100.01-21.93Q98.89-21.33 97.75-20.14Q96.62-18.95 95.44-17.16Q94.26-15.37 92.93-13.01L92.93-13.01L91.91-11.21L87.81 0L84.92 0Z M130.47-9.47L135.45-23.14L138.34-23.14L133.36-9.47Q133.09-8.71 132.81-7.92Q132.54-7.13 132.33-6.36Q132.13-5.59 132.00-4.87Q131.88-4.16 131.88-3.55L131.88-3.55Q131.88-2.21 132.60-1.41Q133.32-0.61 134.80-0.61L134.80-0.61Q136.11-0.61 137.34-1.17Q138.57-1.74 139.78-2.88Q140.98-4.02 142.19-5.74Q143.40-7.46 144.69-9.79L144.69-9.79L145.64-11.50L149.90-23.14L152.79-23.14L147.81-9.47Q147.54-8.71 147.27-7.92Q146.99-7.13 146.79-6.36Q146.58-5.59 146.46-4.87Q146.33-4.16 146.33-3.55L146.33-3.55Q146.33-2.21 147.04-1.41Q147.75-0.61 149.26-0.61L149.26-0.61Q150.57-0.61 151.79-1.17Q153.01-1.74 154.21-2.88Q155.41-4.02 156.62-5.75Q157.83-7.48 159.14-9.79L159.14-9.79L160.16-11.58L160.66-11.21L159.67-9.41Q158.26-6.88 156.96-5.03Q155.66-3.18 154.37-1.98Q153.07-0.78 151.71-0.21Q150.35 0.37 148.83 0.37L148.83 0.37Q147.64 0.37 146.73 0.01Q145.82-0.35 145.21-1.02Q144.59-1.68 144.28-2.62Q143.96-3.55 143.96-4.71L143.96-4.71Q143.96-5.47 144.10-6.36Q144.24-7.25 144.51-8.18L144.51-8.18Q143.20-5.98 141.99-4.37Q140.78-2.75 139.57-1.70Q138.36-0.64 137.08-0.14Q135.80 0.37 134.38 0.37L134.38 0.37Q133.18 0.37 132.28 0.01Q131.37-0.35 130.75-1.02Q130.14-1.68 129.82-2.62Q129.51-3.55 129.51-4.71L129.51-4.71Q129.51-5.72 129.76-6.93Q130-8.14 130.47-9.47L130.47-9.47Z M155.92 0L164.36-23.14L167.25-23.14L164.18-14.75Q165.49-16.97 166.70-18.62Q167.91-20.27 169.11-21.36Q170.31-22.44 171.54-22.98Q172.77-23.52 174.14-23.52L174.14-23.52Q175.37-23.52 176.29-23.12Q177.21-22.71 177.83-22.02Q178.46-21.33 178.77-20.41Q179.08-19.49 179.08-18.48L179.08-18.48Q179.08-17.36 178.76-16.05Q178.44-14.75 177.95-13.36Q177.46-11.97 176.89-10.56Q176.33-9.14 175.84-7.83Q175.35-6.52 175.03-5.38Q174.71-4.24 174.71-3.38L174.71-3.38Q174.71-2.19 175.44-1.40Q176.17-0.61 177.73-0.61L177.73-0.61Q178.98-0.61 180.19-1.18Q181.39-1.76 182.59-2.90Q183.79-4.04 185.01-5.77Q186.23-7.50 187.52-9.79L187.52-9.79L188.54-11.58L189.06-11.21L188.05-9.41Q186.64-6.95 185.35-5.11Q184.06-3.26 182.77-2.05Q181.48-0.84 180.15-0.23Q178.81 0.37 177.30 0.37L177.30 0.37Q176.07 0.37 175.15 0Q174.22-0.37 173.59-1.02Q172.97-1.66 172.66-2.51Q172.34-3.36 172.34-4.32L172.34-4.32Q172.34-5.33 172.67-6.59Q172.99-7.85 173.48-9.23Q173.96-10.61 174.53-12.02Q175.10-13.44 175.59-14.78Q176.07-16.11 176.40-17.31Q176.72-18.52 176.72-19.45L176.72-19.45Q176.72-20.12 176.54-20.68Q176.37-21.25 175.99-21.66Q175.61-22.07 175.03-22.30Q174.45-22.54 173.65-22.54L173.65-22.54Q172.42-22.54 171.25-21.94Q170.08-21.35 168.90-20.16Q167.71-18.96 166.49-17.18Q165.27-15.39 163.93-13.01L163.93-13.01L162.91-11.21L158.81 0L155.92 0Z M187.77-9.47L192.75-23.14L195.64-23.14L190.66-9.47Q190.39-8.71 190.12-7.92Q189.84-7.13 189.64-6.36Q189.43-5.59 189.31-4.87Q189.18-4.16 189.18-3.55L189.18-3.55Q189.18-2.21 189.89-1.41Q190.61-0.61 192.11-0.61L192.11-0.61Q193.42-0.61 194.64-1.17Q195.86-1.74 197.06-2.88Q198.26-4.02 199.47-5.75Q200.68-7.48 201.99-9.79L201.99-9.79L203.01-11.58L203.54-11.21L202.52-9.41Q201.09-6.89 199.79-5.05Q198.50-3.20 197.20-2.00Q195.90-0.80 194.55-0.21Q193.20 0.37 191.68 0.37L191.68 0.37Q190.49 0.37 189.58 0.01Q188.67-0.35 188.06-1.02Q187.44-1.68 187.13-2.62Q186.82-3.55 186.82-4.71L186.82-4.71Q186.82-5.72 187.06-6.93Q187.30-8.14 187.77-9.47L187.77-9.47ZM194.32-28.26L194.32-28.26Q194.32-28.95 194.79-29.43Q195.27-29.92 195.96-29.92L195.96-29.92Q196.64-29.92 197.12-29.44Q197.60-28.96 197.60-28.28L197.60-28.28Q197.60-27.95 197.47-27.65Q197.34-27.34 197.12-27.13Q196.89-26.91 196.59-26.79Q196.29-26.66 195.94-26.66L195.94-26.66Q195.25-26.66 194.79-27.12Q194.32-27.58 194.32-28.26Z M201.46-22.36L201.46-23.14L207.17-23.14L209.02-28.26L211.91-28.26L210.06-23.14L215.92-23.14L215.92-22.36L209.77-22.36L205.08-9.47Q204.80-8.71 204.54-7.91Q204.28-7.11 204.07-6.34Q203.87-5.57 203.74-4.85Q203.61-4.14 203.61-3.55L203.61-3.55Q203.61-2.21 204.35-1.41Q205.08-0.61 206.56-0.61L206.56-0.61Q208.01-0.61 209.38-1.15Q210.74-1.70 212.07-2.83Q213.40-3.96 214.71-5.69Q216.02-7.42 217.34-9.79L217.34-9.79L218.36-11.58L218.89-11.21L217.87-9.41Q216.33-6.68 214.88-4.81Q213.44-2.95 212.02-1.80Q210.61-0.64 209.15-0.14Q207.70 0.37 206.13 0.37L206.13 0.37Q204.94 0.37 204.02 0.01Q203.11-0.35 202.49-1.02Q201.88-1.68 201.55-2.62Q201.23-3.55 201.23-4.71L201.23-4.71Q201.23-5.72 201.46-6.93Q201.70-8.14 202.19-9.47L202.19-9.47L206.88-22.36L201.46-22.36Z M217.58-9.47L222.56-23.14L225.45-23.14L220.47-9.47Q220.20-8.71 219.92-7.92Q219.65-7.13 219.44-6.36Q219.24-5.59 219.11-4.87Q218.98-4.16 218.98-3.55L218.98-3.55Q218.98-2.21 219.71-1.41Q220.43-0.61 221.91-0.61L221.91-0.61Q223.22-0.61 224.43-1.18Q225.64-1.76 226.84-2.90Q228.03-4.04 229.25-5.76Q230.47-7.48 231.80-9.79L231.80-9.79L232.83-11.56L237.03-23.14L239.94-23.14L230.72 2.19Q229.30 6.13 226.49 8.21Q223.69 10.29 219.79 10.29L219.79 10.29Q217.89 10.29 216.63 9.79Q215.37 9.28 214.61 8.18L214.61 8.18Q214.22 7.66 214.02 7.06Q213.83 6.46 213.83 5.88L213.83 5.88Q213.83 5 214.29 4.49Q214.75 3.98 215.55 3.98L215.55 3.98Q216.23 3.98 216.62 4.36Q217.01 4.73 217.01 5.39L217.01 5.39Q217.01 6.02 216.68 6.41Q216.35 6.80 215.84 6.80L215.84 6.80Q215.63 6.80 215.50 6.74Q215.37 6.68 215.21 6.68L215.21 6.68Q215.10 6.68 215.07 6.73Q215.04 6.78 215.04 6.93L215.04 6.93Q215.04 7.48 215.39 7.94Q215.74 8.40 216.37 8.74Q216.99 9.08 217.84 9.27Q218.69 9.45 219.71 9.45L219.71 9.45Q221.13 9.45 222.32 9.04Q223.52 8.63 224.50 7.76Q225.49 6.89 226.29 5.55Q227.09 4.20 227.77 2.34L227.77 2.34L231.60-8.16Q230.31-5.98 229.10-4.37Q227.89-2.75 226.67-1.70Q225.45-0.64 224.18-0.14Q222.91 0.37 221.48 0.37L221.48 0.37Q220.29 0.37 219.38 0.01Q218.48-0.35 217.86-1.02Q217.25-1.68 216.93-2.62Q216.62-3.55 216.62-4.71L216.62-4.71Q216.62-5.72 216.87-6.93Q217.11-8.14 217.58-9.47L217.58-9.47Z M262.66 0.74L262.66-30.90L264.47-30.90L264.47 0.74L262.66 0.74Z M293.85-21.25L293.18-21.46Q293.52-21.80 293.86-22.43Q294.20-23.07 294.48-23.86Q294.77-24.65 294.94-25.52Q295.12-26.39 295.12-27.19L295.12-27.19Q295.12-27.89 294.92-28.53Q294.73-29.16 294.26-29.64Q293.79-30.12 293.02-30.40Q292.25-30.68 291.11-30.68L291.11-30.68Q289.00-30.68 286.95-29.83Q284.90-28.98 283.08-27.43Q281.25-25.88 279.73-23.67Q278.20-21.46 277.17-18.75L277.17-18.75Q276.39-16.72 275.97-14.68Q275.55-12.64 275.55-10.82L275.55-10.82Q275.55-8.09 276.53-6.81Q277.52-5.53 279.59-5.53L279.59-5.53Q282.36-5.53 285.11-7.90Q287.85-10.27 290.66-15.21L290.66-15.21L290.82-15.47L293.40-15.47L292.13-11.89Q291.02-8.71 289.86-6.04Q288.71-3.36 287.50-1.11L287.50-1.11Q289.22-1.29 290.62-1.52Q292.01-1.76 293.20-2.14Q294.39-2.52 295.41-3.11Q296.43-3.69 297.37-4.60Q298.32-5.51 299.23-6.78Q300.14-8.05 301.13-9.79L301.13-9.79L302.13-11.58L302.66-11.21L301.64-9.41Q300.66-7.68 299.75-6.39Q298.83-5.10 297.86-4.15Q296.89-3.20 295.83-2.56Q294.77-1.91 293.47-1.48Q292.17-1.05 290.60-0.78Q289.02-0.51 287.05-0.31L287.05-0.31Q284.06 5.06 280.69 7.67Q277.32 10.27 273.36 10.27L273.36 10.27Q270.68 10.27 269.38 9.18Q268.09 8.09 268.09 6.25L268.09 6.25Q268.09 4.94 268.75 3.96Q269.41 2.97 270.59 2.25Q271.76 1.52 273.33 1.03Q274.90 0.53 276.71 0.19Q278.52-0.16 280.48-0.39Q282.44-0.63 284.38-0.82L284.38-0.82Q285.20-2.52 286.02-4.52Q286.84-6.52 287.77-8.95L287.77-8.95L288.28-10.27Q287.50-9.24 286.53-8.21Q285.57-7.19 284.42-6.38Q283.28-5.57 281.97-5.07Q280.66-4.57 279.20-4.57L279.20-4.57Q277.71-4.57 276.49-5.13Q275.27-5.68 274.41-6.73Q273.55-7.77 273.08-9.25Q272.60-10.72 272.60-12.54L272.60-12.54Q272.60-13.85 272.85-15.33Q273.11-16.82 273.61-18.36L273.61-18.36Q274.61-21.27 276.34-23.67Q278.07-26.07 280.29-27.80Q282.52-29.53 285.12-30.48Q287.71-31.43 290.45-31.43L290.45-31.43Q292.05-31.43 293.17-31.08Q294.30-30.74 295-30.15Q295.70-29.55 296.03-28.76Q296.35-27.97 296.35-27.07L296.35-27.07Q296.35-26.35 296.16-25.60Q295.98-24.84 295.65-24.09Q295.33-23.34 294.86-22.62Q294.39-21.89 293.85-21.25L293.85-21.25ZM273.44 9.32L273.44 9.32Q275.04 9.32 276.43 8.83Q277.81 8.34 279.07 7.23Q280.33 6.11 281.54 4.33Q282.75 2.54 284.02-0.04L284.02-0.04Q280.92 0.23 278.19 0.62Q275.47 1.00 273.44 1.68Q271.41 2.36 270.23 3.44Q269.06 4.51 269.06 6.15L269.06 6.15Q269.06 7.70 270.16 8.51Q271.25 9.32 273.44 9.32Z M302.05-11.41L302.05-11.41Q302.75-13.52 303.73-15.24Q304.71-16.97 305.85-18.32Q306.99-19.67 308.25-20.64Q309.51-21.62 310.77-22.26Q312.03-22.89 313.25-23.20Q314.47-23.52 315.55-23.52L315.55-23.52Q316.66-23.52 317.40-23.17Q318.14-22.83 318.60-22.22Q319.06-21.60 319.26-20.73Q319.45-19.86 319.45-18.81L319.45-18.81L321.04-23.14L323.93-23.14L318.95-9.47Q318.67-8.71 318.40-7.92Q318.13-7.13 317.92-6.36Q317.71-5.59 317.59-4.87Q317.46-4.16 317.46-3.55L317.46-3.55Q317.46-2.21 318.17-1.41Q318.89-0.61 320.39-0.61L320.39-0.61Q321.70-0.61 322.93-1.16Q324.16-1.72 325.36-2.86Q326.56-4.00 327.77-5.73Q328.98-7.46 330.27-9.79L330.27-9.79L331.27-11.58L331.80-11.21L330.78-9.41Q329.36-6.88 328.06-5.03Q326.76-3.18 325.47-1.98Q324.18-0.78 322.83-0.21Q321.48 0.37 319.96 0.37L319.96 0.37Q318.77 0.37 317.86 0.01Q316.95-0.35 316.34-1.02Q315.72-1.68 315.41-2.62Q315.10-3.55 315.10-4.71L315.10-4.71Q315.10-5.47 315.23-6.36Q315.37-7.25 315.64-8.20L315.64-8.20Q313.09-3.91 310.59-1.77Q308.09 0.37 305.51 0.37L305.51 0.37Q304.30 0.37 303.45-0.07Q302.60-0.51 302.05-1.30Q301.50-2.09 301.25-3.15Q301.00-4.22 301.00-5.49L301.00-5.49Q301.00-6.86 301.27-8.37Q301.54-9.88 302.05-11.41ZM306.21-0.61L306.21-0.61Q307.27-0.61 308.36-1.16Q309.45-1.72 310.54-2.69Q311.62-3.65 312.64-4.95Q313.65-6.25 314.56-7.72Q315.47-9.20 316.23-10.76Q316.99-12.32 317.55-13.84Q318.11-15.35 318.41-16.73Q318.71-18.11 318.71-19.20L318.71-19.20Q318.71-20.20 318.47-20.87Q318.22-21.54 317.82-21.96Q317.42-22.38 316.90-22.56Q316.39-22.73 315.84-22.73L315.84-22.73Q314.75-22.73 313.41-22.06Q312.07-21.39 310.68-20.01Q309.30-18.63 307.96-16.53Q306.62-14.43 305.51-11.60L305.51-11.60Q304.59-9.24 304.13-7.23Q303.67-5.21 303.67-3.87L303.67-3.87Q303.67-2.34 304.29-1.47Q304.90-0.61 306.21-0.61Z M327.03 0L335.47-23.14L338.36-23.14L335.29-14.77Q336.60-16.99 337.76-18.63Q338.93-20.27 340.07-21.36Q341.21-22.44 342.41-22.98Q343.61-23.52 344.98-23.52L344.98-23.52Q346.17-23.52 347.08-23.13Q347.99-22.73 348.60-22.03Q349.22-21.33 349.53-20.33Q349.84-19.34 349.84-18.14L349.84-18.14Q349.84-17.40 349.71-16.53Q349.57-15.66 349.20-14.41L349.20-14.41Q350.51-16.68 351.68-18.38Q352.85-20.08 354.01-21.22Q355.18-22.36 356.40-22.94Q357.62-23.52 359.00-23.52L359.00-23.52Q360.21-23.52 361.14-23.11Q362.07-22.70 362.69-22.01Q363.30-21.33 363.61-20.40Q363.93-19.47 363.93-18.46L363.93-18.46Q363.93-17.36 363.60-16.05Q363.28-14.75 362.79-13.36Q362.30-11.97 361.74-10.56Q361.17-9.14 360.68-7.83Q360.20-6.52 359.87-5.38Q359.55-4.24 359.55-3.38L359.55-3.38Q359.55-2.19 360.28-1.40Q361.02-0.61 362.58-0.61L362.58-0.61Q365.10-0.61 367.45-2.89Q369.80-5.18 372.36-9.79L372.36-9.79L373.36-11.58L373.89-11.21L372.87-9.41Q371.48-6.95 370.20-5.11Q368.91-3.26 367.62-2.05Q366.33-0.84 364.98-0.23Q363.63 0.37 362.13 0.37L362.13 0.37Q360.90 0.37 359.98 0Q359.06-0.37 358.44-1.02Q357.81-1.66 357.50-2.51Q357.19-3.36 357.19-4.32L357.19-4.32Q357.19-5.33 357.51-6.60Q357.83-7.87 358.32-9.24Q358.81-10.61 359.38-12.02Q359.94-13.44 360.43-14.78Q360.92-16.11 361.24-17.31Q361.56-18.52 361.56-19.45L361.56-19.45Q361.56-20.10 361.39-20.66Q361.21-21.23 360.84-21.65Q360.47-22.07 359.90-22.30Q359.34-22.54 358.55-22.54L358.55-22.54Q357.32-22.54 356.19-21.92Q355.06-21.31 353.93-20.10Q352.79-18.89 351.61-17.11Q350.43-15.33 349.12-13.01L349.12-13.01L348.14-11.27L344.04 0L341.15 0L345.35-11.58Q345.86-13.01 346.26-14.15Q346.66-15.29 346.93-16.22Q347.21-17.15 347.34-17.90Q347.48-18.65 347.48-19.30L347.48-19.30Q347.48-20.76 346.75-21.65Q346.02-22.54 344.47-22.54L344.47-22.54Q343.24-22.54 342.12-21.93Q341.00-21.33 339.86-20.14Q338.73-18.95 337.55-17.16Q336.37-15.37 335.04-13.01L335.04-13.01L334.02-11.21L329.92 0L327.03 0Z M372.60-9.47L377.58-23.14L380.47-23.14L375.49-9.47Q375.21-8.71 374.94-7.92Q374.67-7.13 374.46-6.36Q374.26-5.59 374.13-4.87Q374.00-4.16 374.00-3.55L374.00-3.55Q374.00-2.21 374.72-1.41Q375.43-0.61 376.93-0.61L376.93-0.61Q378.24-0.61 379.46-1.17Q380.68-1.74 381.88-2.88Q383.09-4.02 384.30-5.75Q385.51-7.48 386.82-9.79L386.82-9.79L387.83-11.58L388.36-11.21L387.34-9.41Q385.92-6.89 384.62-5.05Q383.32-3.20 382.02-2.00Q380.72-0.80 379.38-0.21Q378.03 0.37 376.50 0.37L376.50 0.37Q375.31 0.37 374.40 0.01Q373.50-0.35 372.88-1.02Q372.27-1.68 371.95-2.62Q371.64-3.55 371.64-4.71L371.64-4.71Q371.64-5.72 371.88-6.93Q372.13-8.14 372.60-9.47L372.60-9.47ZM379.14-28.26L379.14-28.26Q379.14-28.95 379.62-29.43Q380.10-29.92 380.78-29.92L380.78-29.92Q381.46-29.92 381.94-29.44Q382.42-28.96 382.42-28.28L382.42-28.28Q382.42-27.95 382.29-27.65Q382.17-27.34 381.94-27.13Q381.72-26.91 381.42-26.79Q381.11-26.66 380.76-26.66L380.76-26.66Q380.08-26.66 379.61-27.12Q379.14-27.58 379.14-28.26Z M383.59 0L392.03-23.14L394.92-23.14L391.86-14.75Q393.16-16.97 394.38-18.62Q395.59-20.27 396.79-21.36Q397.99-22.44 399.22-22.98Q400.45-23.52 401.82-23.52L401.82-23.52Q403.05-23.52 403.96-23.12Q404.88-22.71 405.51-22.02Q406.13-21.33 406.45-20.41Q406.76-19.49 406.76-18.48L406.76-18.48Q406.76-17.36 406.44-16.05Q406.11-14.75 405.63-13.36Q405.14-11.97 404.57-10.56Q404.00-9.14 403.52-7.83Q403.03-6.52 402.71-5.38Q402.38-4.24 402.38-3.38L402.38-3.38Q402.38-2.19 403.12-1.40Q403.85-0.61 405.41-0.61L405.41-0.61Q406.66-0.61 407.86-1.18Q409.06-1.76 410.26-2.90Q411.46-4.04 412.69-5.77Q413.91-7.50 415.20-9.79L415.20-9.79L416.21-11.58L416.74-11.21L415.72-9.41Q414.32-6.95 413.03-5.11Q411.74-3.26 410.45-2.05Q409.16-0.84 407.82-0.23Q406.48 0.37 404.98 0.37L404.98 0.37Q403.75 0.37 402.82 0Q401.89-0.37 401.27-1.02Q400.64-1.66 400.33-2.51Q400.02-3.36 400.02-4.32L400.02-4.32Q400.02-5.33 400.34-6.59Q400.66-7.85 401.15-9.23Q401.64-10.61 402.21-12.02Q402.77-13.44 403.26-14.78Q403.75-16.11 404.07-17.31Q404.39-18.52 404.39-19.45L404.39-19.45Q404.39-20.12 404.22-20.68Q404.04-21.25 403.66-21.66Q403.28-22.07 402.71-22.30Q402.13-22.54 401.33-22.54L401.33-22.54Q400.10-22.54 398.93-21.94Q397.75-21.35 396.57-20.16Q395.39-18.96 394.17-17.18Q392.95-15.39 391.60-13.01L391.60-13.01L390.59-11.21L386.48 0L383.59 0Z M417.83 10.29L417.83 10.29Q415.94 10.29 414.68 9.79Q413.42 9.28 412.68 8.18L412.68 8.18Q412.29 7.66 412.08 7.06Q411.88 6.46 411.88 5.88L411.88 5.88Q411.88 5 412.33 4.49Q412.79 3.98 413.59 3.98L413.59 3.98Q414.28 3.98 414.67 4.36Q415.06 4.73 415.06 5.39L415.06 5.39Q415.06 6.02 414.73 6.41Q414.39 6.80 413.89 6.80L413.89 6.80Q413.67 6.80 413.54 6.74Q413.42 6.68 413.26 6.68L413.26 6.68Q413.16 6.68 413.13 6.73Q413.09 6.78 413.09 6.93L413.09 6.93Q413.09 7.48 413.44 7.94Q413.79 8.40 414.41 8.74Q415.04 9.08 415.90 9.27Q416.76 9.45 417.75 9.45L417.75 9.45Q419.18 9.45 420.37 9.04Q421.56 8.63 422.55 7.76Q423.54 6.89 424.35 5.56Q425.16 4.22 425.84 2.34L425.84 2.34L429.55-7.93Q427.05-3.77 424.59-1.70Q422.13 0.37 419.59 0.37L419.59 0.37Q418.38 0.37 417.53-0.07Q416.68-0.51 416.13-1.30Q415.59-2.09 415.33-3.15Q415.08-4.22 415.08-5.49L415.08-5.49Q415.08-6.86 415.35-8.37Q415.63-9.88 416.13-11.41L416.13-11.41Q416.84-13.52 417.81-15.24Q418.79-16.97 419.93-18.32Q421.07-19.67 422.33-20.64Q423.59-21.62 424.85-22.26Q426.11-22.89 427.33-23.20Q428.55-23.52 429.63-23.52L429.63-23.52Q430.74-23.52 431.49-23.19Q432.25-22.87 432.70-22.27Q433.14-21.66 433.34-20.80Q433.54-19.94 433.54-18.89L433.54-18.89L435.10-23.14L437.99-23.14L428.77 2.19Q427.32 6.15 424.53 8.22Q421.74 10.29 417.83 10.29ZM420.29-0.61L420.29-0.61Q421.35-0.61 422.44-1.16Q423.54-1.72 424.62-2.69Q425.70-3.65 426.72-4.95Q427.73-6.25 428.64-7.72Q429.55-9.20 430.31-10.76Q431.07-12.32 431.63-13.84Q432.19-15.35 432.49-16.73Q432.79-18.11 432.79-19.20L432.79-19.20Q432.79-20.20 432.55-20.87Q432.30-21.54 431.90-21.96Q431.50-22.38 430.99-22.56Q430.47-22.73 429.92-22.73L429.92-22.73Q428.83-22.73 427.49-22.06Q426.15-21.39 424.77-20.01Q423.38-18.63 422.04-16.53Q420.70-14.43 419.59-11.60L419.59-11.60Q418.67-9.24 418.21-7.23Q417.75-5.21 417.75-3.87L417.75-3.87Q417.75-2.34 418.37-1.47Q418.98-0.61 420.29-0.61Z M457.03-11.41L457.03-11.41Q457.73-13.52 458.71-15.24Q459.69-16.97 460.83-18.32Q461.97-19.67 463.23-20.64Q464.49-21.62 465.75-22.26Q467.01-22.89 468.23-23.20Q469.45-23.52 470.53-23.52L470.53-23.52Q471.64-23.52 472.38-23.17Q473.13-22.83 473.58-22.22Q474.04-21.60 474.24-20.73Q474.43-19.86 474.43-18.81L474.43-18.81L476.02-23.14L478.91-23.14L473.93-9.47Q473.65-8.71 473.38-7.92Q473.11-7.13 472.90-6.36Q472.70-5.59 472.57-4.87Q472.44-4.16 472.44-3.55L472.44-3.55Q472.44-2.21 473.15-1.41Q473.87-0.61 475.37-0.61L475.37-0.61Q476.68-0.61 477.91-1.16Q479.14-1.72 480.34-2.86Q481.54-4.00 482.75-5.73Q483.96-7.46 485.25-9.79L485.25-9.79L486.25-11.58L486.78-11.21L485.76-9.41Q484.34-6.88 483.04-5.03Q481.74-3.18 480.45-1.98Q479.16-0.78 477.81-0.21Q476.46 0.37 474.94 0.37L474.94 0.37Q473.75 0.37 472.84 0.01Q471.93-0.35 471.32-1.02Q470.70-1.68 470.39-2.62Q470.08-3.55 470.08-4.71L470.08-4.71Q470.08-5.47 470.21-6.36Q470.35-7.25 470.63-8.20L470.63-8.20Q468.07-3.91 465.57-1.77Q463.07 0.37 460.49 0.37L460.49 0.37Q459.28 0.37 458.43-0.07Q457.58-0.51 457.03-1.30Q456.48-2.09 456.23-3.15Q455.98-4.22 455.98-5.49L455.98-5.49Q455.98-6.86 456.25-8.37Q456.52-9.88 457.03-11.41ZM461.19-0.61L461.19-0.61Q462.25-0.61 463.34-1.16Q464.43-1.72 465.52-2.69Q466.60-3.65 467.62-4.95Q468.63-6.25 469.54-7.72Q470.45-9.20 471.21-10.76Q471.97-12.32 472.53-13.84Q473.09-15.35 473.39-16.73Q473.69-18.11 473.69-19.20L473.69-19.20Q473.69-20.20 473.45-20.87Q473.20-21.54 472.80-21.96Q472.40-22.38 471.88-22.56Q471.37-22.73 470.82-22.73L470.82-22.73Q469.73-22.73 468.39-22.06Q467.05-21.39 465.66-20.01Q464.28-18.63 462.94-16.53Q461.60-14.43 460.49-11.60L460.49-11.60Q459.57-9.24 459.11-7.23Q458.65-5.21 458.65-3.87L458.65-3.87Q458.65-2.34 459.27-1.47Q459.88-0.61 461.19-0.61Z M482.01 0L490.45-23.14L493.34-23.14L490.27-14.75Q491.58-16.97 492.79-18.62Q494.00-20.27 495.21-21.36Q496.41-22.44 497.64-22.98Q498.87-23.52 500.23-23.52L500.23-23.52Q501.46-23.52 502.38-23.12Q503.30-22.71 503.93-22.02Q504.55-21.33 504.86-20.41Q505.18-19.49 505.18-18.48L505.18-18.48Q505.18-17.36 504.85-16.05Q504.53-14.75 504.04-13.36Q503.55-11.97 502.99-10.56Q502.42-9.14 501.93-7.83Q501.45-6.52 501.12-5.38Q500.80-4.24 500.80-3.38L500.80-3.38Q500.80-2.19 501.53-1.40Q502.27-0.61 503.83-0.61L503.83-0.61Q505.08-0.61 506.28-1.18Q507.48-1.76 508.68-2.90Q509.88-4.04 511.10-5.77Q512.32-7.50 513.61-9.79L513.61-9.79L514.63-11.58L515.16-11.21L514.14-9.41Q512.73-6.95 511.45-5.11Q510.16-3.26 508.87-2.05Q507.58-0.84 506.24-0.23Q504.90 0.37 503.40 0.37L503.40 0.37Q502.17 0.37 501.24 0Q500.31-0.37 499.69-1.02Q499.06-1.66 498.75-2.51Q498.44-3.36 498.44-4.32L498.44-4.32Q498.44-5.33 498.76-6.59Q499.08-7.85 499.57-9.23Q500.06-10.61 500.63-12.02Q501.19-13.44 501.68-14.78Q502.17-16.11 502.49-17.31Q502.81-18.52 502.81-19.45L502.81-19.45Q502.81-20.12 502.64-20.68Q502.46-21.25 502.08-21.66Q501.70-22.07 501.12-22.30Q500.55-22.54 499.75-22.54L499.75-22.54Q498.52-22.54 497.34-21.94Q496.17-21.35 494.99-20.16Q493.81-18.96 492.59-17.18Q491.37-15.39 490.02-13.01L490.02-13.01L489.00-11.21L484.90 0L482.01 0Z M514.55-11.41L514.55-11.41Q515.25-13.52 516.23-15.24Q517.21-16.97 518.35-18.32Q519.49-19.67 520.75-20.64Q522.01-21.62 523.27-22.26Q524.53-22.89 525.75-23.20Q526.97-23.52 528.05-23.52L528.05-23.52Q529.16-23.52 529.90-23.17Q530.64-22.83 531.10-22.22Q531.56-21.60 531.76-20.73Q531.95-19.86 531.95-18.81L531.95-18.81L537.27-33.44L540.16-33.44L531.45-9.47Q531.17-8.71 530.90-7.91Q530.63-7.11 530.42-6.35Q530.21-5.59 530.09-4.87Q529.96-4.16 529.96-3.55L529.96-3.55Q529.96-2.21 530.67-1.41Q531.39-0.61 532.89-0.61L532.89-0.61Q534.20-0.61 535.43-1.16Q536.66-1.72 537.86-2.86Q539.06-4.00 540.27-5.73Q541.48-7.46 542.77-9.79L542.77-9.79L543.77-11.58L544.30-11.21L543.28-9.41Q541.86-6.89 540.56-5.05Q539.26-3.20 537.97-2.00Q536.68-0.80 535.33-0.21Q533.98 0.37 532.46 0.37L532.46 0.37Q531.27 0.37 530.36 0.01Q529.45-0.35 528.84-1.02Q528.22-1.68 527.91-2.62Q527.60-3.55 527.60-4.71L527.60-4.71Q527.60-5.47 527.73-6.36Q527.87-7.25 528.14-8.20L528.14-8.20Q525.59-3.91 523.09-1.77Q520.59 0.37 518.01 0.37L518.01 0.37Q516.80 0.37 515.95-0.07Q515.10-0.51 514.55-1.30Q514.00-2.09 513.75-3.15Q513.50-4.22 513.50-5.49L513.50-5.49Q513.50-6.86 513.77-8.37Q514.04-9.88 514.55-11.41ZM518.71-0.61L518.71-0.61Q519.77-0.61 520.86-1.16Q521.95-1.72 523.04-2.69Q524.12-3.65 525.14-4.95Q526.15-6.25 527.06-7.72Q527.97-9.20 528.73-10.76Q529.49-12.32 530.05-13.84Q530.61-15.35 530.91-16.73Q531.21-18.11 531.21-19.20L531.21-19.20Q531.21-20.20 530.97-20.87Q530.72-21.54 530.32-21.96Q529.92-22.38 529.40-22.56Q528.89-22.73 528.34-22.73L528.34-22.73Q527.25-22.73 525.91-22.06Q524.57-21.39 523.18-20.01Q521.80-18.63 520.46-16.53Q519.12-14.43 518.01-11.60L518.01-11.60Q517.09-9.24 516.63-7.23Q516.17-5.21 516.17-3.87L516.17-3.87Q516.17-2.34 516.79-1.47Q517.40-0.61 518.71-0.61Z M567.38 0.76L567.38 0.76Q565.21 0.76 563.52 0.09Q561.82-0.59 560.65-1.87Q559.49-3.14 558.88-5.01Q558.26-6.88 558.26-9.26L558.26-9.26Q558.26-10.57 558.45-12.03Q558.63-13.50 559.02-15L559.02-15Q559.63-17.38 560.61-19.52Q561.58-21.66 562.86-23.48Q564.14-25.29 565.67-26.77Q567.21-28.24 568.91-29.28Q570.61-30.31 572.44-30.87Q574.28-31.43 576.17-31.43L576.17-31.43Q577.07-31.43 577.99-31.21Q578.91-31.00 579.64-30.50Q580.37-30 580.83-29.17Q581.29-28.34 581.29-27.11L581.29-27.11Q581.29-26.02 580.97-25.09Q580.64-24.16 580.07-23.39Q579.49-22.62 578.73-21.97Q577.97-21.33 577.09-20.82L577.09-20.82L576.74-21.31Q578.32-22.58 579.07-24.11Q579.82-25.64 579.82-27.32L579.82-27.32Q579.82-29.08 579.01-29.88Q578.20-30.68 576.64-30.68L576.64-30.68Q574.65-30.68 572.59-29.50Q570.53-28.32 568.63-26.25Q566.74-24.18 565.16-21.38Q563.57-18.57 562.54-15.33L562.54-15.33Q561.88-13.24 561.52-11.22Q561.17-9.20 561.17-7.44L561.17-7.44Q561.17-0.20 567.68-0.20L567.68-0.20Q571.39-0.20 574.51-2.55Q577.64-4.90 580.41-9.79L580.41-9.79L581.43-11.58L581.95-11.21L580.94-9.41Q579.45-6.80 577.91-4.88Q576.37-2.97 574.71-1.72Q573.05-0.47 571.23 0.15Q569.41 0.76 567.38 0.76Z M581.27-11.35L581.27-11.35Q581.95-13.96 583.27-16.19Q584.59-18.42 586.30-20.05Q588.01-21.68 590.01-22.60Q592.01-23.52 594.04-23.52L594.04-23.52Q595.68-23.52 596.81-22.96Q597.93-22.40 598.61-21.46Q599.30-20.53 599.59-19.30Q599.88-18.07 599.88-16.72L599.88-16.72Q599.88-15.25 599.60-13.79Q599.32-12.32 598.87-11.00L598.87-11.00Q598.03-8.54 596.70-6.46Q595.37-4.38 593.74-2.85Q592.11-1.33 590.27-0.48Q588.44 0.37 586.60 0.37L586.60 0.37Q585.21 0.37 584.11-0.13Q583.01-0.63 582.25-1.56Q581.48-2.50 581.07-3.86Q580.66-5.21 580.66-6.91L580.66-6.91Q580.66-7.99 580.82-9.11Q580.98-10.23 581.27-11.35ZM586.89-0.61L586.89-0.61Q588.30-0.61 589.76-1.41Q591.21-2.21 592.57-3.64Q593.93-5.08 595.10-7.07Q596.27-9.06 597.11-11.45L597.11-11.45Q597.34-12.09 597.57-12.89Q597.79-13.69 597.99-14.56Q598.18-15.43 598.30-16.34Q598.42-17.25 598.42-18.11L598.42-18.11Q598.42-19.04 598.24-19.89Q598.07-20.74 597.65-21.37Q597.23-21.99 596.51-22.36Q595.80-22.73 594.75-22.73L594.75-22.73Q593.22-22.73 591.73-21.92Q590.23-21.11 588.90-19.64Q587.56-18.16 586.46-16.11Q585.37-14.06 584.65-11.58L584.65-11.58Q584.16-9.92 583.90-8.25Q583.63-6.58 583.63-5.21L583.63-5.21Q583.63-0.61 586.89-0.61Z M605.23-11.41L605.23-11.41Q605.94-13.52 606.91-15.24Q607.89-16.97 609.03-18.32Q610.18-19.67 611.44-20.64Q612.70-21.62 613.96-22.26Q615.21-22.89 616.44-23.20Q617.66-23.52 618.73-23.52L618.73-23.52Q619.84-23.52 620.59-23.17Q621.33-22.83 621.79-22.22Q622.25-21.60 622.44-20.73Q622.64-19.86 622.64-18.81L622.64-18.81L627.95-33.44L630.84-33.44L622.13-9.47Q621.86-8.71 621.58-7.91Q621.31-7.11 621.10-6.35Q620.90-5.59 620.77-4.87Q620.64-4.16 620.64-3.55L620.64-3.55Q620.64-2.21 621.36-1.41Q622.07-0.61 623.57-0.61L623.57-0.61Q624.88-0.61 626.11-1.16Q627.34-1.72 628.54-2.86Q629.75-4.00 630.96-5.73Q632.17-7.46 633.46-9.79L633.46-9.79L634.45-11.58L634.98-11.21L633.96-9.41Q632.54-6.89 631.24-5.05Q629.94-3.20 628.65-2.00Q627.36-0.80 626.02-0.21Q624.67 0.37 623.14 0.37L623.14 0.37Q621.95 0.37 621.04 0.01Q620.14-0.35 619.52-1.02Q618.91-1.68 618.59-2.62Q618.28-3.55 618.28-4.71L618.28-4.71Q618.28-5.47 618.42-6.36Q618.55-7.25 618.83-8.20L618.83-8.20Q616.27-3.91 613.77-1.77Q611.27 0.37 608.69 0.37L608.69 0.37Q607.48 0.37 606.63-0.07Q605.78-0.51 605.23-1.30Q604.69-2.09 604.43-3.15Q604.18-4.22 604.18-5.49L604.18-5.49Q604.18-6.86 604.45-8.37Q604.73-9.88 605.23-11.41ZM609.39-0.61L609.39-0.61Q610.45-0.61 611.54-1.16Q612.64-1.72 613.72-2.69Q614.80-3.65 615.82-4.95Q616.84-6.25 617.74-7.72Q618.65-9.20 619.41-10.76Q620.18-12.32 620.73-13.84Q621.29-15.35 621.59-16.73Q621.89-18.11 621.89-19.20L621.89-19.20Q621.89-20.20 621.65-20.87Q621.41-21.54 621.01-21.96Q620.61-22.38 620.09-22.56Q619.57-22.73 619.02-22.73L619.02-22.73Q617.93-22.73 616.59-22.06Q615.25-21.39 613.87-20.01Q612.48-18.63 611.14-16.53Q609.80-14.43 608.69-11.60L608.69-11.60Q607.77-9.24 607.31-7.23Q606.86-5.21 606.86-3.87L606.86-3.87Q606.86-2.34 607.47-1.47Q608.09-0.61 609.39-0.61Z M641.13 0.37L641.13 0.37Q637.60 0.37 635.68-1.47Q633.77-3.32 633.77-6.97L633.77-6.97Q633.77-7.97 633.92-9.08Q634.06-10.20 634.38-11.37L634.38-11.37Q635.08-13.98 636.36-16.21Q637.64-18.44 639.30-20.06Q640.96-21.68 642.87-22.60Q644.79-23.52 646.72-23.52L646.72-23.52Q648.67-23.52 649.79-22.60Q650.92-21.68 650.92-20.02L650.92-20.02Q650.92-19.08 650.55-18.18Q650.18-17.29 649.47-16.48Q648.77-15.68 647.78-14.99Q646.80-14.30 645.57-13.79L645.57-13.79Q644.04-13.14 642.21-12.82Q640.37-12.50 638.03-12.50L638.03-12.50Q637.46-10.92 637.14-9.21Q636.82-7.50 636.82-5.72L636.82-5.72Q636.82-3.01 637.96-1.81Q639.10-0.61 641.56-0.61L641.56-0.61Q643.61-0.61 645.47-1.40Q647.32-2.19 648.91-3.48Q650.49-4.77 651.80-6.42Q653.11-8.07 654.08-9.79L654.08-9.79L655.10-11.58L655.63-11.21L654.61-9.41Q653.40-7.29 651.96-5.49Q650.53-3.69 648.84-2.39Q647.15-1.09 645.22-0.36Q643.30 0.37 641.13 0.37ZM647.27-22.73L647.27-22.73Q646.04-22.73 644.76-22.01Q643.48-21.29 642.29-20.01Q641.09-18.73 640.06-16.99Q639.02-15.25 638.26-13.20L638.26-13.20Q640.41-13.24 641.93-13.58Q643.46-13.93 644.59-14.45L644.59-14.45Q645.49-14.86 646.34-15.52Q647.19-16.17 647.84-17.01Q648.50-17.85 648.90-18.83Q649.30-19.80 649.30-20.86L649.30-20.86Q649.30-21.39 649.14-21.74Q648.98-22.09 648.71-22.31Q648.44-22.54 648.07-22.64Q647.70-22.73 647.27-22.73Z M658.71 0.74L658.71-30.90L660.53-30.90L660.53 0.74L658.71 0.74Z M700.92-23.85L700.92-23.85Q701.56-25.04 702.51-26.14Q703.46-27.25 704.59-28.20L704.59-28.20Q702.87-28.36 701.16-28.66Q699.45-28.96 697.81-29.26Q696.17-29.55 694.61-29.77Q693.05-29.98 691.62-29.98L691.62-29.98Q689.80-29.98 688.56-29.61Q687.32-29.24 686.57-28.63Q685.82-28.03 685.49-27.28Q685.16-26.52 685.16-25.74L685.16-25.74Q685.16-25 685.43-24.33Q685.70-23.65 686.23-23.13Q686.76-22.62 687.54-22.30Q688.32-21.99 689.36-21.99L689.36-21.99Q689.94-21.99 690.61-22.09Q691.27-22.19 691.94-22.37Q692.62-22.56 693.26-22.81Q693.91-23.07 694.43-23.38L694.43-23.38L694.82-22.91Q694.18-22.54 693.48-22.26Q692.77-21.97 692.06-21.77Q691.35-21.56 690.63-21.46Q689.92-21.35 689.28-21.35L689.28-21.35Q688.11-21.35 687.20-21.69Q686.29-22.03 685.65-22.63Q685.02-23.22 684.69-24.02Q684.36-24.82 684.36-25.74L684.36-25.74Q684.36-26.97 684.94-28.02Q685.53-29.06 686.67-29.82Q687.81-30.59 689.52-31.02Q691.23-31.45 693.46-31.45L693.46-31.45Q695.12-31.45 696.79-31.23Q698.46-31.02 700.16-30.75Q701.86-30.49 703.59-30.25Q705.33-30.02 707.15-29.96L707.15-29.96Q708.71-30.84 710.36-31.36Q712.01-31.88 713.67-31.88L713.67-31.88Q714.51-31.88 714.81-31.72Q715.12-31.56 715.12-31.13L715.12-31.13Q715.12-30.49 714.51-29.93Q713.91-29.38 712.83-28.96Q711.76-28.55 710.31-28.32Q708.87-28.09 707.17-28.09L707.17-28.09Q706.89-28.09 706.61-28.09Q706.33-28.09 706.05-28.11L706.05-28.11Q705.51-27.56 705.14-26.99L705.14-26.99Q704.96-26.74 704.79-26.42Q704.63-26.09 704.40-25.59Q704.18-25.08 703.89-24.35Q703.59-23.61 703.19-22.52Q702.79-21.43 702.24-19.93Q701.68-18.44 700.96-16.43L700.96-16.43L706.66-16.43L706.66-15.64L700.68-15.64Q699.16-11.35 697.42-8.24Q695.68-5.14 693.75-3.13Q691.82-1.13 689.73-0.19Q687.64 0.76 685.41 0.76L685.41 0.76Q683.96 0.76 682.72 0.39Q681.48 0.02 680.58-0.71Q679.67-1.45 679.14-2.52Q678.61-3.59 678.61-5L678.61-5Q678.61-5.94 678.84-6.80Q679.06-7.66 679.46-8.31Q679.86-8.96 680.40-9.37Q680.94-9.77 681.56-9.77L681.56-9.77Q681.97-9.77 682.27-9.56Q682.56-9.36 682.56-8.81L682.56-8.81Q682.56-8.36 682.33-8.10Q682.11-7.83 681.78-7.65Q681.45-7.46 681.04-7.28Q680.64-7.09 680.31-6.79Q679.98-6.48 679.76-6.00Q679.53-5.51 679.53-4.71L679.53-4.71Q679.53-3.59 679.94-2.71Q680.35-1.84 681.11-1.22Q681.88-0.61 682.98-0.27Q684.08 0.06 685.47 0.06L685.47 0.06Q686.50 0.06 687.42-0.16Q688.34-0.37 689.20-0.91Q690.06-1.45 690.88-2.35Q691.70-3.26 692.55-4.66Q693.40-6.05 694.31-7.99Q695.21-9.92 696.25-12.50L696.25-12.50Q696.60-13.38 696.90-14.16Q697.21-14.94 697.48-15.64L697.48-15.64L692.21-15.64L692.21-16.43L697.77-16.43Q698.55-18.38 699.05-19.63Q699.55-20.88 699.89-21.68Q700.23-22.48 700.46-22.96Q700.68-23.44 700.92-23.85ZM713.57-31.33L713.57-31.33Q712.34-31.33 711.07-30.96Q709.80-30.59 708.63-29.96L708.63-29.96Q709.75-29.98 710.79-30.10Q711.84-30.21 712.65-30.37Q713.46-30.53 713.96-30.71Q714.45-30.90 714.45-31.09L714.45-31.09Q714.45-31.33 713.57-31.33Z M725.16-21.76L725.16-21.76Q725.16-22.07 724.76-22.39Q724.36-22.71 723.59-22.71L723.59-22.71Q722.81-22.71 721.89-22.24Q720.98-21.76 719.80-20.55Q718.63-19.34 717.18-17.25Q715.72-15.16 713.89-11.91L713.89-11.91L712.91-10.20L709.22 0L706.31 0L714.75-23.14L717.64-23.14L714.22-13.77Q715.82-16.52 717.15-18.39Q718.48-20.25 719.61-21.40Q720.74-22.54 721.74-23.03Q722.73-23.52 723.69-23.52L723.69-23.52Q724.98-23.52 725.71-22.75Q726.45-21.99 726.45-20.76L726.45-20.76Q726.45-20.25 726.32-19.79Q726.19-19.34 725.95-19.00Q725.70-18.67 725.35-18.48Q725-18.28 724.57-18.28L724.57-18.28Q724.26-18.28 723.96-18.38Q723.65-18.48 723.42-18.68Q723.18-18.89 723.04-19.18Q722.89-19.47 722.89-19.86L722.89-19.86Q722.89-20.18 723.00-20.50Q723.11-20.82 723.30-21.06Q723.50-21.31 723.77-21.46Q724.04-21.62 724.38-21.62L724.38-21.62Q724.59-21.62 724.79-21.58L724.79-21.58Q724.82-21.54 724.89-21.51Q724.96-21.48 725-21.48L725-21.48Q725.16-21.48 725.16-21.76Z"/></g>
</svg>
</g><g opacity="1" transform="rotate(60 266.0912 241.2487)">
<svg width="39.0754" height="52.3194" x="266.0912" y="241.2487" version="1.1" preserveAspectRatio="none" viewBox="-13.77558135986328 -22.76799774169922 67.21858215332031 90.0009994506836">
  <g transform="matrix(1 0 0 1 0 0)" class="icon3"><path d="M17.91,25.109c0.283,0.123,7.021,2.999,15.371,2.999c7.943,0,14.506-2.576,19.512-7.651l0.65-0.659l-0.823-0.423  c-0.229-0.117-5.684-2.867-13.618-2.867c-7.168,0-13.919,2.219-20.088,6.595c8.212-8.743,18.012-17.524,29.383-25.016L47.548-3.05  C40.8,1.396,34.603,6.293,28.956,11.367c9.133-18.272-1.117-33.224-1.225-33.377l-0.529-0.758l-0.562,0.737  c-11.69,15.25,0.082,34.991,0.202,35.189l0.054,0.087c-5.546,5.146-10.53,10.437-14.95,15.595  C19.167,11.631,9.774-2.088,9.671-2.234L9.137-2.993L8.574-2.256c-11.11,14.498-1.022,33.042,0.104,35.007  C3.066,39.642-1.504,46.155-5.018,51.598c6.801-16.952-2.392-30.384-2.494-30.528l-0.533-0.76l-0.563,0.737  c-11.688,15.251,0.088,34.995,0.208,35.191l0.238,0.39c-3.653,6.044-5.522,9.893-5.583,10.021l1.227,0.584  c0.096-0.2,4.775-9.824,13.931-22.7l0.115,0.05c0.28,0.122,7.016,2.999,15.37,2.999c7.94,0,14.503-2.576,19.506-7.648l0.65-0.662  l-0.825-0.422c-0.229-0.117-5.678-2.865-13.618-2.865c-6.939,0-13.488,2.086-19.497,6.191c3.978-5.434,8.709-11.352,14.185-17.329  L17.91,25.109z M28.047,10.12l-0.688-30.125C29.452-16.239,34.861-4.187,28.047,10.12z M26.028-18.666l0.653,28.558  C24.223,4.627,19.75-7.83,26.028-18.666z M21.163,24.823l28.381-3.296c-4.399,3.457-9.85,5.221-16.263,5.221  C28.317,26.748,23.864,25.662,21.163,24.823z M50.703,20.027L20.78,23.503c5.644-3.725,11.754-5.635,18.222-5.635  C44.404,17.868,48.671,19.231,50.703,20.027z M9.987,29.894L9.297-0.227C11.398,3.538,16.812,15.572,9.987,29.894z M7.967,1.104  l0.654,28.564C6.162,24.404,1.683,11.94,7.967,1.104z M-7.194,53.202l-0.69-30.132C-5.787,26.828-0.365,38.869-7.194,53.202z   M-9.214,24.411l0.654,28.555C-11.021,47.698-15.492,35.243-9.214,24.411z M4.789,44.297l28.368-3.296  c-4.4,3.455-9.849,5.216-16.258,5.216C11.938,46.217,7.491,45.136,4.789,44.297z M22.616,37.342c5.409,0,9.676,1.363,11.706,2.159  L4.385,42.979C10.029,39.252,16.146,37.342,22.616,37.342z"></path></g>
</svg>
</g><g opacity="1" transform="rotate(0 283.2051 268.4487)">
<svg width="177.6482" height="1.6" x="283.2051" y="268.4487" version="1.1" preserveAspectRatio="none" viewBox="0 0 177.6482 1.6">
  <defs><rect x="0" y="0" width="177.6482" height="1.6" rx="0px" ry="0px" id="id-R9TavoXY1676915550488"></rect></defs><use class="icon3 shapeStroke-str" style="stroke-width:0;" xlink:href="#id-R9TavoXY1676915550488"></use>
</svg>
</g><g opacity="1" transform="rotate(0 85.9629 193.4487)">
<svg width="334.4843" height="50" x="85.9629" y="193.4487" version="1.1" preserveAspectRatio="none" viewBox="1.8 -30.8 208.71999999999997 31.2">
  <g transform="matrix(1 0 0 1 0 0)" class="companyName"><path id="id-D6z1nYkh7" d="M26.32-23.08L26.32-23.08Q26.32-20.96 25.64-19.28Q24.96-17.60 23.50-16.44Q22.04-15.28 19.70-14.64Q17.36-14 14-14L14-14L10.40-14L10.40-6.28Q10.40-4.80 10.58-3.86Q10.76-2.92 11.34-2.40Q11.92-1.88 13.02-1.70Q14.12-1.52 15.92-1.52L15.92-1.52L15.92 0L1.80 0L1.80-1.52Q3.20-1.56 4.06-1.76Q4.92-1.96 5.40-2.44Q5.88-2.92 6.04-3.80Q6.20-4.68 6.20-6.08L6.20-6.08L6.20-24.72Q6.20-26.12 6.06-26.98Q5.92-27.84 5.50-28.34Q5.08-28.84 4.28-29.02Q3.48-29.20 2.20-29.28L2.20-29.28L2.20-30.80L14.76-30.80Q20.28-30.80 23.30-28.76Q26.32-26.72 26.32-23.08ZM10.40-28.24L10.40-16L13.24-16Q17.24-16 19.18-17.54Q21.12-19.08 21.12-22.60L21.12-22.60Q21.12-26 19.58-27.46Q18.04-28.92 14.76-28.92L14.76-28.92L11.08-28.92Q10.40-28.92 10.40-28.24L10.40-28.24Z M39.88-23.24L39.88-7.56Q39.88-5.56 40.04-4.40Q40.20-3.24 40.66-2.60Q41.12-1.96 41.98-1.76Q42.84-1.56 44.24-1.52L44.24-1.52L44.24 0L31.28 0L31.28-1.52Q32.68-1.56 33.54-1.78Q34.40-2 34.88-2.60Q35.36-3.20 35.52-4.30Q35.68-5.40 35.68-7.28L35.68-7.28L35.68-23.52Q35.68-25.20 35.54-26.30Q35.40-27.40 34.98-28.04Q34.56-28.68 33.76-28.94Q32.96-29.20 31.68-29.28L31.68-29.28L31.68-30.80L43.84-30.80L43.84-29.28Q42.56-29.24 41.78-28.96Q41-28.68 40.58-28.02Q40.16-27.36 40.02-26.20Q39.88-25.04 39.88-23.24L39.88-23.24Z M58.48-11.40L58.48-6.36Q58.48-4.84 58.64-3.88Q58.80-2.92 59.28-2.40Q59.76-1.88 60.60-1.70Q61.44-1.52 62.84-1.52L62.84-1.52L62.84 0L49.88 0L49.88-1.52Q51.28-1.52 52.14-1.70Q53-1.88 53.48-2.38Q53.96-2.88 54.12-3.78Q54.28-4.68 54.28-6.08L54.28-6.08L54.28-24.72Q54.28-26.24 54.10-27.14Q53.92-28.04 53.46-28.52Q53-29 52.24-29.14Q51.48-29.28 50.28-29.28L50.28-29.28L50.28-30.80L62.44-30.80L62.44-29.28Q61.24-29.28 60.48-29.12Q59.72-28.96 59.26-28.44Q58.80-27.92 58.64-26.98Q58.48-26.04 58.48-24.44L58.48-24.44L58.48-14.56L68.48-26.60Q69.28-27.60 69.28-28.16L69.28-28.16Q69.28-29.28 67-29.28L67-29.28L67-30.80L76.64-30.80L76.64-29.32Q75.84-29.32 75.24-29.22Q74.64-29.12 74.06-28.80Q73.48-28.48 72.84-27.88Q72.20-27.28 71.36-26.32L71.36-26.32L63.84-17.64L75.52-3.60Q76.52-2.44 77.40-1.98Q78.28-1.52 79.76-1.52L79.76-1.52L79.76 0L67.48 0L67.48-1.52Q69.04-1.52 69.72-1.78Q70.40-2.04 70.40-2.60L70.40-2.60Q70.40-2.92 70.08-3.52Q69.76-4.12 69.04-5L69.04-5L61.24-14.60L58.48-11.40Z M102.40-6.84L100.76-11.16L90.08-11.16Q89.40-9.52 88.92-8.26Q88.44-7 88.14-6.08Q87.84-5.16 87.72-4.52Q87.60-3.88 87.60-3.48L87.60-3.48Q87.60-2.36 88.32-1.94Q89.04-1.52 90.72-1.52L90.72-1.52L90.72 0L81 0L81-1.52Q81.92-1.64 82.58-1.84Q83.24-2.04 83.74-2.40Q84.24-2.76 84.62-3.34Q85-3.92 85.36-4.76L85.36-4.76L95.76-30.80L97.48-30.80L106.56-8.24Q107.48-6 108.16-4.66Q108.84-3.32 109.48-2.64Q110.12-1.96 110.86-1.76Q111.60-1.56 112.64-1.56L112.64-1.56L112.64 0L99.60 0L99.60-1.56Q101.72-1.56 102.52-1.96Q103.32-2.36 103.32-3.28L103.32-3.28Q103.32-3.68 103.28-4.02Q103.24-4.36 103.14-4.76Q103.04-5.16 102.86-5.66Q102.68-6.16 102.40-6.84L102.40-6.84ZM95.56-24.96L90.88-13.16L100-13.16L95.56-24.96Z M123.88-12.16L115.88-25.84Q115.28-26.88 114.76-27.54Q114.24-28.20 113.70-28.60Q113.16-29 112.56-29.14Q111.96-29.28 111.12-29.28L111.12-29.28L111.12-30.80L123.72-30.80L123.72-29.28Q121.72-29.28 120.90-28.98Q120.08-28.68 120.08-27.92L120.08-27.92Q120.08-27.08 121-25.52L121-25.52L127.20-14.92L127.36-14.92L131.88-22.52Q133.16-24.68 133.70-25.92Q134.24-27.16 134.24-27.92L134.24-27.92Q134.24-28.68 133.66-28.98Q133.08-29.28 131.64-29.28L131.64-29.28L131.64-30.80L140.80-30.80L140.80-29.28Q139.96-29.28 139.30-29.04Q138.64-28.80 137.92-28.08Q137.20-27.36 136.34-26.08Q135.48-24.80 134.24-22.72L134.24-22.72L128.08-12.32L128.08-7.56Q128.08-5.60 128.22-4.42Q128.36-3.24 128.82-2.60Q129.28-1.96 130.14-1.74Q131-1.52 132.44-1.52L132.44-1.52L132.44 0L119.48 0L119.48-1.52Q120.92-1.52 121.78-1.74Q122.64-1.96 123.10-2.58Q123.56-3.20 123.72-4.32Q123.88-5.44 123.88-7.28L123.88-7.28L123.88-12.16Z M171.52-20.48L171.52-12.40Q171.52-9.24 170.90-6.84Q170.28-4.44 168.90-2.84Q167.52-1.24 165.32-0.42Q163.12 0.40 160 0.40L160 0.40Q157.04 0.40 154.84-0.18Q152.64-0.76 151.16-2.10Q149.68-3.44 148.96-5.60Q148.24-7.76 148.24-10.92L148.24-10.92L148.24-21.48Q148.24-24.44 148.10-26.04Q147.96-27.64 147.28-28.40L147.28-28.40Q146.80-28.92 145.98-29.10Q145.16-29.28 143.80-29.28L143.80-29.28L143.80-30.80L157.44-30.80L157.44-29.28Q156.08-29.28 155.24-29.12Q154.40-28.96 153.92-28.32L153.92-28.32Q153.36-27.60 153.20-26.02Q153.04-24.44 153.04-21.48L153.04-21.48L153.04-10.60Q153.04-8.56 153.46-6.98Q153.88-5.40 154.84-4.30Q155.80-3.20 157.34-2.64Q158.88-2.08 161.12-2.08L161.12-2.08Q165.12-2.08 167.12-4.30Q169.12-6.52 169.12-10.84L169.12-10.84L169.12-20.48Q169.12-24.04 168.84-25.88Q168.56-27.72 167.80-28.48L167.80-28.48Q167.24-29 166.40-29.14Q165.56-29.28 164.32-29.28L164.32-29.28L164.32-30.80L175.92-30.80L175.92-29.28Q174.64-29.28 173.82-29.08Q173-28.88 172.52-28.20L172.52-28.20Q171.92-27.36 171.72-25.58Q171.52-23.80 171.52-20.48L171.52-20.48Z M210.12-30.80L210.52-23.16L208.88-23.16Q208.76-24.88 208.32-26.04Q207.88-27.20 207.06-27.86Q206.24-28.52 205-28.80Q203.76-29.08 202.04-29.08L202.04-29.08Q200.56-29.08 199.66-29.02Q198.76-28.96 198.28-28.80Q197.80-28.64 197.66-28.42Q197.52-28.20 197.52-27.84L197.52-27.84L197.52-6.44Q197.52-5.16 197.70-4.24Q197.88-3.32 198.42-2.74Q198.96-2.16 199.98-1.86Q201-1.56 202.68-1.52L202.68-1.52L202.68 0L187.56 0L187.56-1.52Q189.24-1.56 190.28-1.86Q191.32-2.16 191.86-2.74Q192.40-3.32 192.58-4.24Q192.76-5.16 192.76-6.44L192.76-6.44L192.76-27.84Q192.76-28.20 192.62-28.42Q192.48-28.64 192.06-28.80Q191.64-28.96 190.88-29.02Q190.12-29.08 188.84-29.08L188.84-29.08Q187.28-29.08 185.94-28.96Q184.60-28.84 183.62-28.26Q182.64-27.68 182.04-26.48Q181.44-25.28 181.40-23.16L181.40-23.16L179.92-23.16L179.92-30.80L210.12-30.80Z"/></g>
</svg>
</g><g opacity="1" transform="rotate(0 45.5568 268.4487)">
<svg width="177.6483" height="1.6" x="45.5568" y="268.4487" version="1.1" preserveAspectRatio="none" viewBox="0 0 177.6483 1.6">
  <defs><rect x="0" y="0" width="177.6483" height="1.6" rx="0px" ry="0px" id="id-YLqQhLpe-1676915550488"></rect></defs><use class="icon3 shapeStroke-str" style="stroke-width:0;" xlink:href="#id-YLqQhLpe-1676915550488"></use>
</svg>
</g></svg></svg>