<svg version="1.1" preserveAspectRatio="none" xmlns="http://www.w3.org/2000/svg" width="500" height="500" viewBox="0 0 500 500"><rect width="100%" height="100%" fill="#0C0C0C" fill-opacity="1"/><svg viewBox="128.4885 292.6228 448.1379 113" width="333" height="83.96745733846657" x="83.5px" y="208.0163px" xmlns="http://www.w3.org/2000/svg" xmlns:xlink="http://www.w3.org/1999/xlink" preserveAspectRatio="none"><defs></defs><style>.companyName {fill:#EFEFEF;fill-opacity:1;}.icon1 {fill:#EFEFEF;fill-opacity:1;}.icon3-str {stroke:#AAAAAA;stroke-opacity:1;}</style><g opacity="1" transform="rotate(0 128.4885 384.6228)">
<svg width="448.1379" height="21" x="128.4885" y="384.6228" version="1.1" preserveAspectRatio="none" viewBox="1.92 -30.28 817.1600000000001 38.28">
  <g transform="matrix(1 0 0 1 0 0)" class="icon1"><path id="id-6izo4zJp30" d="M16.72 0.32Q12.52 0.32 9.14-1.54Q5.76-3.40 3.84-6.66Q1.92-9.92 1.92-14L1.92-14Q1.92-18.08 3.84-21.34Q5.76-24.60 9.16-26.46Q12.56-28.32 16.76-28.32L16.76-28.32Q20.04-28.32 22.76-27.22Q25.48-26.12 27.40-23.96L27.40-23.96L24.80-21.44Q21.64-24.76 16.92-24.76L16.92-24.76Q13.80-24.76 11.28-23.36Q8.76-21.96 7.34-19.50Q5.92-17.04 5.92-14L5.92-14Q5.92-10.96 7.34-8.50Q8.76-6.04 11.28-4.64Q13.80-3.24 16.92-3.24L16.92-3.24Q21.60-3.24 24.80-6.60L24.80-6.60L27.40-4.08Q25.48-1.92 22.74-0.80Q20 0.32 16.72 0.32L16.72 0.32Z M44.76 0.24Q41.60 0.24 39.08-1.16Q36.56-2.56 35.14-5.02Q33.72-7.48 33.72-10.60L33.72-10.60Q33.72-13.72 35.14-16.18Q36.56-18.64 39.08-20.02Q41.60-21.40 44.76-21.40L44.76-21.40Q47.92-21.40 50.42-20.02Q52.92-18.64 54.34-16.18Q55.76-13.72 55.76-10.60L55.76-10.60Q55.76-7.48 54.34-5.02Q52.92-2.56 50.42-1.16Q47.92 0.24 44.76 0.24L44.76 0.24ZM44.76-3.12Q46.80-3.12 48.42-4.06Q50.04-5 50.96-6.70Q51.88-8.40 51.88-10.60L51.88-10.60Q51.88-12.80 50.96-14.50Q50.04-16.20 48.42-17.12Q46.80-18.04 44.76-18.04L44.76-18.04Q42.72-18.04 41.10-17.12Q39.48-16.20 38.54-14.50Q37.60-12.80 37.60-10.60L37.60-10.60Q37.60-8.40 38.54-6.70Q39.48-5 41.10-4.06Q42.72-3.12 44.76-3.12L44.76-3.12Z M91.60-21.40Q95.60-21.40 97.94-19.08Q100.28-16.76 100.28-12.20L100.28-12.20L100.28 0L96.44 0L96.44-11.76Q96.44-14.84 95.02-16.40Q93.60-17.96 90.96-17.96L90.96-17.96Q88.04-17.96 86.32-16.14Q84.60-14.32 84.60-10.92L84.60-10.92L84.60 0L80.76 0L80.76-11.76Q80.76-14.84 79.34-16.40Q77.92-17.96 75.28-17.96L75.28-17.96Q72.36-17.96 70.64-16.14Q68.92-14.32 68.92-10.92L68.92-10.92L68.92 0L65.08 0L65.08-21.20L68.76-21.20L68.76-18.04Q69.92-19.68 71.80-20.54Q73.68-21.40 76.08-21.40L76.08-21.40Q78.56-21.40 80.48-20.40Q82.40-19.40 83.44-17.48L83.44-17.48Q84.64-19.32 86.78-20.36Q88.92-21.40 91.60-21.40L91.60-21.40Z M137.88-21.40Q141.88-21.40 144.22-19.08Q146.56-16.76 146.56-12.20L146.56-12.20L146.56 0L142.72 0L142.72-11.76Q142.72-14.84 141.30-16.40Q139.88-17.96 137.24-17.96L137.24-17.96Q134.32-17.96 132.60-16.14Q130.88-14.32 130.88-10.92L130.88-10.92L130.88 0L127.04 0L127.04-11.76Q127.04-14.84 125.62-16.40Q124.20-17.96 121.56-17.96L121.56-17.96Q118.64-17.96 116.92-16.14Q115.20-14.32 115.20-10.92L115.20-10.92L115.20 0L111.36 0L111.36-21.20L115.04-21.20L115.04-18.04Q116.20-19.68 118.08-20.54Q119.96-21.40 122.36-21.40L122.36-21.40Q124.84-21.40 126.76-20.40Q128.68-19.40 129.72-17.48L129.72-17.48Q130.92-19.32 133.06-20.36Q135.20-21.40 137.88-21.40L137.88-21.40Z M173.56-21.20L177.40-21.20L177.40 0L173.76 0L173.76-3.20Q172.60-1.56 170.70-0.66Q168.80 0.24 166.56 0.24L166.56 0.24Q162.32 0.24 159.88-2.10Q157.44-4.44 157.44-9L157.44-9L157.44-21.20L161.28-21.20L161.28-9.44Q161.28-6.36 162.76-4.78Q164.24-3.20 167-3.20L167-3.20Q170.04-3.20 171.80-5.04Q173.56-6.88 173.56-10.24L173.56-10.24L173.56-21.20Z M200.04-21.40Q204.08-21.40 206.46-19.06Q208.84-16.72 208.84-12.20L208.84-12.20L208.84 0L205 0L205-11.76Q205-14.84 203.52-16.40Q202.04-17.96 199.28-17.96L199.28-17.96Q196.16-17.96 194.36-16.14Q192.56-14.32 192.56-10.92L192.56-10.92L192.56 0L188.72 0L188.72-21.20L192.40-21.20L192.40-18Q193.56-19.64 195.54-20.52Q197.52-21.40 200.04-21.40L200.04-21.40Z M219.96 0L219.96-21.20L223.80-21.20L223.80 0L219.96 0ZM221.88-25.28Q220.76-25.28 220.02-26Q219.28-26.72 219.28-27.76L219.28-27.76Q219.28-28.80 220.02-29.54Q220.76-30.28 221.88-30.28L221.88-30.28Q223.00-30.28 223.74-29.58Q224.48-28.88 224.48-27.84L224.48-27.84Q224.48-26.76 223.74-26.02Q223.00-25.28 221.88-25.28L221.88-25.28Z M245.84-4L247.04-1.24Q246.20-0.52 244.96-0.14Q243.72 0.24 242.40 0.24L242.40 0.24Q239.20 0.24 237.44-1.48Q235.68-3.20 235.68-6.40L235.68-6.40L235.68-18.04L232.08-18.04L232.08-21.20L235.68-21.20L235.68-25.84L239.52-25.84L239.52-21.20L245.60-21.20L245.60-18.04L239.52-18.04L239.52-6.56Q239.52-4.84 240.38-3.92Q241.24-3 242.84-3L242.84-3Q244.60-3 245.84-4L245.84-4Z M270.28-21.20L274.04-21.20L263.76 2.12Q262.40 5.36 260.58 6.68Q258.76 8 256.20 8L256.20 8Q254.64 8 253.18 7.50Q251.72 7 250.76 6.04L250.76 6.04L252.40 3.16Q254.04 4.72 256.20 4.72L256.20 4.72Q257.60 4.72 258.54 3.98Q259.48 3.24 260.24 1.44L260.24 1.44L260.92-0.04L251.56-21.20L255.56-21.20L262.96-4.24L270.28-21.20Z M296.96 7.76L296.96-29.68L300.52-29.68L300.52 7.76L296.96 7.76Z M332.32-5.04L332.32-14.16L336.16-14.16L336.16-3.24Q334.08-1.52 331.32-0.60Q328.56 0.32 325.56 0.32L325.56 0.32Q321.32 0.32 317.92-1.54Q314.52-3.40 312.58-6.66Q310.64-9.92 310.64-14L310.64-14Q310.64-18.08 312.58-21.36Q314.52-24.64 317.94-26.48Q321.36-28.32 325.64-28.32L325.64-28.32Q329-28.32 331.74-27.22Q334.48-26.12 336.40-24L336.40-24L333.92-21.52Q330.56-24.76 325.80-24.76L325.80-24.76Q322.60-24.76 320.06-23.38Q317.52-22 316.08-19.54Q314.64-17.08 314.64-14L314.64-14Q314.64-10.96 316.08-8.50Q317.52-6.04 320.06-4.64Q322.60-3.24 325.76-3.24L325.76-3.24Q329.52-3.24 332.32-5.04L332.32-5.04Z M354.96-21.40Q359.36-21.40 361.70-19.24Q364.04-17.08 364.04-12.80L364.04-12.80L364.04 0L360.40 0L360.40-2.80Q359.44-1.32 357.66-0.54Q355.88 0.24 353.44 0.24L353.44 0.24Q349.88 0.24 347.74-1.48Q345.60-3.20 345.60-6L345.60-6Q345.60-8.80 347.64-10.50Q349.68-12.20 354.12-12.20L354.12-12.20L360.20-12.20L360.20-12.96Q360.20-15.44 358.76-16.76Q357.32-18.08 354.52-18.08L354.52-18.08Q352.64-18.08 350.84-17.46Q349.04-16.84 347.80-15.80L347.80-15.80L346.20-18.68Q347.84-20 350.12-20.70Q352.40-21.40 354.96-21.40L354.96-21.40ZM354.08-2.72Q356.28-2.72 357.88-3.70Q359.48-4.68 360.20-6.48L360.20-6.48L360.20-9.44L354.28-9.44Q349.40-9.44 349.40-6.16L349.40-6.16Q349.40-4.56 350.64-3.64Q351.88-2.72 354.08-2.72L354.08-2.72Z M401.68-21.40Q405.68-21.40 408.02-19.08Q410.36-16.76 410.36-12.20L410.36-12.20L410.36 0L406.52 0L406.52-11.76Q406.52-14.84 405.10-16.40Q403.68-17.96 401.04-17.96L401.04-17.96Q398.12-17.96 396.40-16.14Q394.68-14.32 394.68-10.92L394.68-10.92L394.68 0L390.84 0L390.84-11.76Q390.84-14.84 389.42-16.40Q388-17.96 385.36-17.96L385.36-17.96Q382.44-17.96 380.72-16.14Q379-14.32 379-10.92L379-10.92L379 0L375.16 0L375.16-21.20L378.84-21.20L378.84-18.04Q380-19.68 381.88-20.54Q383.76-21.40 386.16-21.40L386.16-21.40Q388.64-21.40 390.56-20.40Q392.48-19.40 393.52-17.48L393.52-17.48Q394.72-19.32 396.86-20.36Q399-21.40 401.68-21.40L401.68-21.40Z M421.44 0L421.44-21.20L425.28-21.20L425.28 0L421.44 0ZM423.36-25.28Q422.24-25.28 421.50-26Q420.76-26.72 420.76-27.76L420.76-27.76Q420.76-28.80 421.50-29.54Q422.24-30.28 423.36-30.28L423.36-30.28Q424.48-30.28 425.22-29.58Q425.96-28.88 425.96-27.84L425.96-27.84Q425.96-26.76 425.22-26.02Q424.48-25.28 423.36-25.28L423.36-25.28Z M447.92-21.40Q451.96-21.40 454.34-19.06Q456.72-16.72 456.72-12.20L456.72-12.20L456.72 0L452.88 0L452.88-11.76Q452.88-14.84 451.40-16.40Q449.92-17.96 447.16-17.96L447.16-17.96Q444.04-17.96 442.24-16.14Q440.44-14.32 440.44-10.92L440.44-10.92L440.44 0L436.60 0L436.60-21.20L440.28-21.20L440.28-18Q441.44-19.64 443.42-20.52Q445.40-21.40 447.92-21.40L447.92-21.40Z M484.60-21.20L488.24-21.20L488.24-2.88Q488.24 2.68 485.48 5.34Q482.72 8 477.24 8L477.24 8Q474.24 8 471.52 7.18Q468.80 6.36 467.12 4.84L467.12 4.84L468.96 1.88Q470.44 3.16 472.62 3.90Q474.80 4.64 477.12 4.64L477.12 4.64Q480.84 4.64 482.62 2.88Q484.40 1.12 484.40-2.48L484.40-2.48L484.40-4.16Q483.04-2.52 481.06-1.70Q479.08-0.88 476.76-0.88L476.76-0.88Q473.72-0.88 471.26-2.18Q468.80-3.48 467.40-5.82Q466-8.16 466-11.16L466-11.16Q466-14.16 467.40-16.50Q468.80-18.84 471.26-20.12Q473.72-21.40 476.76-21.40L476.76-21.40Q479.16-21.40 481.22-20.52Q483.28-19.64 484.60-17.92L484.60-17.92L484.60-21.20ZM477.20-4.24Q479.28-4.24 480.94-5.12Q482.60-6 483.54-7.58Q484.48-9.16 484.48-11.16L484.48-11.16Q484.48-14.24 482.44-16.14Q480.40-18.04 477.20-18.04L477.20-18.04Q473.96-18.04 471.92-16.14Q469.88-14.24 469.88-11.16L469.88-11.16Q469.88-9.16 470.82-7.58Q471.76-6 473.42-5.12Q475.08-4.24 477.20-4.24L477.20-4.24Z M522.04-21.40Q526.44-21.40 528.78-19.24Q531.12-17.08 531.12-12.80L531.12-12.80L531.12 0L527.48 0L527.48-2.80Q526.52-1.32 524.74-0.54Q522.96 0.24 520.52 0.24L520.52 0.24Q516.96 0.24 514.82-1.48Q512.68-3.20 512.68-6L512.68-6Q512.68-8.80 514.72-10.50Q516.76-12.20 521.20-12.20L521.20-12.20L527.28-12.20L527.28-12.96Q527.28-15.44 525.84-16.76Q524.40-18.08 521.60-18.08L521.60-18.08Q519.72-18.08 517.92-17.46Q516.12-16.84 514.88-15.80L514.88-15.80L513.28-18.68Q514.92-20 517.20-20.70Q519.48-21.40 522.04-21.40L522.04-21.40ZM521.16-2.72Q523.36-2.72 524.96-3.70Q526.56-4.68 527.28-6.48L527.28-6.48L527.28-9.44L521.36-9.44Q516.48-9.44 516.48-6.16L516.48-6.16Q516.48-4.56 517.72-3.64Q518.96-2.72 521.16-2.72L521.16-2.72Z M553.56-21.40Q557.60-21.40 559.98-19.06Q562.36-16.72 562.36-12.20L562.36-12.20L562.36 0L558.52 0L558.52-11.76Q558.52-14.84 557.04-16.40Q555.56-17.96 552.80-17.96L552.80-17.96Q549.68-17.96 547.88-16.14Q546.08-14.32 546.08-10.92L546.08-10.92L546.08 0L542.24 0L542.24-21.20L545.92-21.20L545.92-18Q547.08-19.64 549.06-20.52Q551.04-21.40 553.56-21.40L553.56-21.40Z M589.76-29.68L593.60-29.68L593.60 0L589.92 0L589.92-3.36Q588.64-1.60 586.68-0.68Q584.72 0.24 582.36 0.24L582.36 0.24Q579.28 0.24 576.84-1.12Q574.40-2.48 573.02-4.94Q571.64-7.40 571.64-10.60L571.64-10.60Q571.64-13.80 573.02-16.24Q574.40-18.68 576.84-20.04Q579.28-21.40 582.36-21.40L582.36-21.40Q584.64-21.40 586.56-20.54Q588.48-19.68 589.76-18L589.76-18L589.76-29.68ZM582.68-3.12Q584.68-3.12 586.32-4.06Q587.96-5 588.88-6.70Q589.80-8.40 589.80-10.60L589.80-10.60Q589.80-12.80 588.88-14.50Q587.96-16.20 586.32-17.12Q584.68-18.04 582.68-18.04L582.68-18.04Q580.64-18.04 579.02-17.12Q577.40-16.20 576.46-14.50Q575.52-12.80 575.52-10.60L575.52-10.60Q575.52-8.40 576.46-6.70Q577.40-5 579.02-4.06Q580.64-3.12 582.68-3.12L582.68-3.12Z M628.88 0.24Q625.64 0.24 623.10-1.16Q620.56-2.56 619.12-5.02Q617.68-7.48 617.68-10.60L617.68-10.60Q617.68-13.72 619.12-16.18Q620.56-18.64 623.10-20.02Q625.64-21.40 628.88-21.40L628.88-21.40Q631.76-21.40 634.02-20.24Q636.28-19.08 637.52-16.88L637.52-16.88L634.60-15Q633.60-16.52 632.12-17.28Q630.64-18.04 628.84-18.04L628.84-18.04Q626.76-18.04 625.10-17.12Q623.44-16.20 622.50-14.50Q621.56-12.80 621.56-10.60L621.56-10.60Q621.56-8.36 622.50-6.66Q623.44-4.96 625.10-4.04Q626.76-3.12 628.84-3.12L628.84-3.12Q630.64-3.12 632.12-3.88Q633.60-4.64 634.60-6.16L634.60-6.16L637.52-4.32Q636.28-2.12 634.02-0.94Q631.76 0.24 628.88 0.24L628.88 0.24Z M655.24 0.24Q652.08 0.24 649.56-1.16Q647.04-2.56 645.62-5.02Q644.20-7.48 644.20-10.60L644.20-10.60Q644.20-13.72 645.62-16.18Q647.04-18.64 649.56-20.02Q652.08-21.40 655.24-21.40L655.24-21.40Q658.40-21.40 660.90-20.02Q663.40-18.64 664.82-16.18Q666.24-13.72 666.24-10.60L666.24-10.60Q666.24-7.48 664.82-5.02Q663.40-2.56 660.90-1.16Q658.40 0.24 655.24 0.24L655.24 0.24ZM655.24-3.12Q657.28-3.12 658.90-4.06Q660.52-5 661.44-6.70Q662.36-8.40 662.36-10.60L662.36-10.60Q662.36-12.80 661.44-14.50Q660.52-16.20 658.90-17.12Q657.28-18.04 655.24-18.04L655.24-18.04Q653.20-18.04 651.58-17.12Q649.96-16.20 649.02-14.50Q648.08-12.80 648.08-10.60L648.08-10.60Q648.08-8.40 649.02-6.70Q649.96-5 651.58-4.06Q653.20-3.12 655.24-3.12L655.24-3.12Z M691.72-29.68L695.56-29.68L695.56 0L691.88 0L691.88-3.36Q690.60-1.60 688.64-0.68Q686.68 0.24 684.32 0.24L684.32 0.24Q681.24 0.24 678.80-1.12Q676.36-2.48 674.98-4.94Q673.60-7.40 673.60-10.60L673.60-10.60Q673.60-13.80 674.98-16.24Q676.36-18.68 678.80-20.04Q681.24-21.40 684.32-21.40L684.32-21.40Q686.60-21.40 688.52-20.54Q690.44-19.68 691.72-18L691.72-18L691.72-29.68ZM684.64-3.12Q686.64-3.12 688.28-4.06Q689.92-5 690.84-6.70Q691.76-8.40 691.76-10.60L691.76-10.60Q691.76-12.80 690.84-14.50Q689.92-16.20 688.28-17.12Q686.64-18.04 684.64-18.04L684.64-18.04Q682.60-18.04 680.98-17.12Q679.36-16.20 678.42-14.50Q677.48-12.80 677.48-10.60L677.48-10.60Q677.48-8.40 678.42-6.70Q679.36-5 680.98-4.06Q682.60-3.12 684.64-3.12L684.64-3.12Z M726.00-10.48Q726.00-10.04 725.92-9.32L725.92-9.32L708.72-9.32Q709.08-6.52 711.18-4.82Q713.28-3.12 716.40-3.12L716.40-3.12Q720.20-3.12 722.52-5.68L722.52-5.68L724.64-3.20Q723.20-1.52 721.06-0.64Q718.92 0.24 716.28 0.24L716.28 0.24Q712.92 0.24 710.32-1.14Q707.72-2.52 706.30-5Q704.88-7.48 704.88-10.60L704.88-10.60Q704.88-13.68 706.26-16.16Q707.64-18.64 710.06-20.02Q712.48-21.40 715.52-21.40L715.52-21.40Q718.56-21.40 720.94-20.02Q723.32-18.64 724.66-16.16Q726.00-13.68 726.00-10.48L726.00-10.48ZM715.52-18.16Q712.76-18.16 710.90-16.48Q709.04-14.80 708.72-12.08L708.72-12.08L722.32-12.08Q722.00-14.76 720.14-16.46Q718.28-18.16 715.52-18.16L715.52-18.16Z M735.88 7.76L735.88-29.68L739.44-29.68L739.44 7.76L735.88 7.76Z M786.36-24.52L770.60-24.52L770.60-14.76L784.64-14.76L784.64-11.32L770.60-11.32L770.60 0L766.60 0L766.60-28L786.36-28L786.36-24.52Z M819.08 0L814.72 0L808.68-8.60Q807.56-8.52 806.92-8.52L806.92-8.52L800-8.52L800 0L796 0L796-28L806.92-28Q812.36-28 815.48-25.40Q818.60-22.80 818.60-18.24L818.60-18.24Q818.60-15 817-12.72Q815.40-10.44 812.44-9.40L812.44-9.40L819.08 0ZM806.80-11.92Q810.60-11.92 812.60-13.56Q814.60-15.20 814.60-18.24L814.60-18.24Q814.60-21.28 812.60-22.90Q810.60-24.52 806.80-24.52L806.80-24.52L800-24.52L800-11.92L806.80-11.92Z"/></g>
</svg>
</g><g opacity="1" transform="rotate(0 175.9905 292.6228)">
<svg width="353.1339" height="70" x="175.9905" y="292.6228" version="1.1" preserveAspectRatio="none" viewBox="1.2402 -30.6445 161.8848 32.0898">
  <g transform="matrix(1 0 0 1 0 0)" class="companyName"><path id="id-D6z1nYkh7" d="M10.39-27.36L10.39-27.36Q11.99-27.44 12.68-27.44L12.68-27.44Q19.80-27.44 19.80-20.23L19.80-20.23Q19.80-17.13 18.42-15.34Q17.03-13.55 14.28-13.55L14.28-13.55Q12.21-13.55 10.27-14.28L10.27-14.28Q10.27-20.31 10.39-27.36ZM5.76-2.71L5.76-2.71Q6.00-7.60 6.00-15L6.00-15Q6.00-21.29 5.80-25.88L5.80-25.88Q5.76-26.60 1.45-27.03L1.45-27.03Q1.11-28.32 1.52-29.55L1.52-29.55Q3.59-29.47 5.98-29.45Q8.36-29.43 11.46-29.47Q14.55-29.51 16.00-29.51L16.00-29.51Q21.41-29.51 24.24-26.97Q27.07-24.43 27.07-20.20L27.07-20.20Q27.07-15.92 23.94-13.50Q20.80-11.07 15.80-11.07L15.80-11.07Q14.39-11.07 13.28-11.33L13.28-11.33Q13.28-5.80 13.40-2.68L13.40-2.68Q13.40-2.56 13.68-2.36Q13.96-2.17 14.52-1.99Q15.08-1.82 16.34-1.65Q17.60-1.48 17.79-1.45L17.79-1.45Q18.13-0.35 17.68 0.96L17.68 0.96Q10.47 0.80 8.93 0.80L8.93 0.80Q7.79 0.80 1.48 0.96L1.48 0.96Q1.00-0.39 1.48-1.56L1.48-1.56Q5.72-1.99 5.76-2.71ZM19.00-20.23L19.00-20.23Q19.00-26.29 13.36-26.60L13.36-26.60Q13.28-22.29 13.28-14.77L13.28-14.77Q14.00-14.43 14.84-14.36L14.84-14.36Q16.88-14.55 17.94-16.11Q19.00-17.68 19.00-20.23ZM6.56-2.68L6.56-2.68Q6.52-1.23 2.03-0.80L2.03-0.80Q1.88-0.49 2.03 0.12L2.03 0.12Q5.35 0 8.93 0L8.93 0Q13.09 0 16.91 0.12L16.91 0.12Q17.07-0.20 16.91-0.80L16.91-0.80Q10.43-1.19 10.39-2.68L10.39-2.68Q10.27-8.20 10.27-12.97L10.27-12.97Q12.71-11.88 15.80-11.88L15.80-11.88Q19.77-11.88 21.92-14.20Q24.08-16.52 24.08-20.20L24.08-20.20Q24.08-24.04 21.64-26.38Q19.20-28.71 14.59-28.71L14.59-28.71Q13.16-28.71 10.59-28.65Q8.01-28.59 5.97-28.59Q3.93-28.59 2.07-28.71L2.07-28.71Q1.91-28.36 2.07-27.79L2.07-27.79Q2.95-27.71 3.52-27.64Q4.08-27.56 4.90-27.36Q5.72-27.17 6.14-26.81Q6.56-26.45 6.60-25.92L6.60-25.92Q6.80-21.33 6.80-15L6.80-15Q6.80-8.81 6.56-2.68Z M34.94-27.44L34.94-27.44Q39.36-27.44 39.36-24.24L39.36-24.24Q39.36-21.04 34.94-21.04L34.94-21.04Q34.28-21.04 33.70-21.29Q33.13-21.54 32.70-21.98Q32.27-22.42 32.01-23.01Q31.76-23.59 31.76-24.24L31.76-24.24Q31.76-24.88 32.01-25.47Q32.27-26.05 32.70-26.49Q33.13-26.93 33.70-27.19Q34.28-27.44 34.94-27.44ZM33.14-25.92L33.14-25.92Q32.56-25.23 32.56-24.24L32.56-24.24Q32.56-23.73 32.72-23.29Q32.89-22.85 33.18-22.53Q33.48-22.21 33.86-22.02Q34.24-21.84 34.67-21.84L34.67-21.84Q35.08-21.84 35.47-22.02Q35.86-22.21 36.15-22.53Q36.45-22.85 36.62-23.29Q36.80-23.73 36.80-24.24L36.80-24.24Q36.80-24.75 36.62-25.19Q36.45-25.63 36.15-25.95Q35.86-26.27 35.47-26.46Q35.08-26.64 34.67-26.64L34.67-26.64Q34.26-26.64 33.87-26.46Q33.48-26.29 33.14-25.92ZM41.04-0.90L41.04-0.90Q36.39-1.33 36.35-2.77L36.35-2.77Q36.15-8.63 36.19-17.17L36.19-17.17Q36.04-17.48 35.51-17.68L35.51-17.68Q32.79-16.41 29.86-16.07L29.86-16.07Q29.75-15.61 29.86-15.16L29.86-15.16Q32.07-15.04 33.22-14.36L33.22-14.36Q33.40-7.07 33.18-2.77L33.18-2.77Q33.14-1.33 29.86-0.90L29.86-0.90Q29.67-0.41 29.86 0.06L29.86 0.06Q35.47-0.06 41.04 0.06L41.04 0.06Q41.23-0.41 41.04-0.90ZM41.76-1.62L41.76-1.62Q42.07-0.41 41.76 0.74L41.76 0.74Q35.47 0.55 29.16 0.74L29.16 0.74Q28.83-0.41 29.16-1.62L29.16-1.62Q32.34-1.93 32.38-2.81L32.38-2.81Q32.64-8.28 32.42-13.89L32.42-13.89Q31.11-14.28 29.16-14.39L29.16-14.39Q28.71-15.57 29.16-16.88L29.16-16.88Q32.11-17.03 35.80-18.63L35.80-18.63Q37.91-18.48 38.95-17.36L38.95-17.36Q38.87-7.75 39.10-2.81L39.10-2.81Q39.16-1.93 41.76-1.62Z M55.59-17.32L55.59-17.32Q55.35-16.80 55.59-16.41L55.59-16.41Q56.19-16.33 56.71-16.10Q57.23-15.88 57.44-15.46Q57.66-15.04 57.07-14.51L57.07-14.51L53.11-10.76L51.54-10.76Q51.50-16.56 51.50-29.16L51.50-29.16Q51.31-29.51 50.82-29.69L50.82-29.69Q48.22-28.44 44.79-28.09L44.79-28.09Q44.67-27.60 44.79-27.17L44.79-27.17Q47.42-27.03 48.55-26.37L48.55-26.37Q48.55-23.93 48.61-19.02Q48.67-14.12 48.67-10.21Q48.67-6.29 48.50-2.68L48.50-2.68Q48.46-1.23 45.18-0.80L45.18-0.80Q44.94-0.31 45.18 0.12L45.18 0.12Q47.75 0 50.14 0L50.14 0Q52.46 0 55.02 0.12L55.02 0.12Q55.27-0.31 55.02-0.80L55.02-0.80Q51.66-1.23 51.66-2.68L51.66-2.68Q51.54-4.84 51.54-9.51L51.54-9.51L53.07-9.51L58.38-2.68Q59.55-1.19 57.11-0.92L57.11-0.92Q56.88-0.45 57.11 0L57.11 0L61.58 0Q63.79 0 66.54 0.12L66.54 0.12Q66.78-0.31 66.54-0.80L66.54-0.80Q64.06-1.07 63.07-1.76L63.07-1.76Q62.50-2.13 62.07-2.68L62.07-2.68L55.43-11.04L58.87-14.51Q60.35-16.04 63.79-16.41L63.79-16.41Q63.95-16.88 63.79-17.32L63.79-17.32Q59.43-17.07 55.59-17.32ZM55.23-18.13L55.23-18.13Q60.51-17.93 64.34-18.16L64.34-18.16Q64.82-16.95 64.39-15.64L64.39-15.64Q60.74-15.27 59.43-13.96L59.43-13.96L57.58-12.07L64.67-3.16Q65.31-2.36 65.81-2.04Q66.31-1.72 67.34-1.52L67.34-1.52Q67.79-0.23 67.27 0.84L67.27 0.84Q63.26 0.61 56.82 0.84L56.82 0.84Q56.23-0.39 56.66-1.52L56.66-1.52Q57.83-1.76 57.38-2.68L57.38-2.68L54.30-6.60Q54.30-4.08 54.43-2.68L54.43-2.68Q54.51-1.76 55.43-1.52L55.43-1.52Q55.82-0.49 55.35 0.84L55.35 0.84Q50.02 0.72 44.63 0.84L44.63 0.84Q43.83-0.35 44.55-1.52L44.55-1.52Q47.66-1.91 47.71-2.71L47.71-2.71Q47.79-4.65 47.79-11.33L47.79-11.33Q47.79-12.97 47.77-16.24Q47.75-19.51 47.75-20.96L47.75-20.96L47.75-25.88Q46.46-26.29 44.18-26.41L44.18-26.41Q43.75-27.56 44.18-28.89L44.18-28.89Q46.91-29.12 51.11-30.64L51.11-30.64Q53.22-30.49 54.26-29.36L54.26-29.36L54.26-13.01L56.50-15.12Q56.78-15.39 56.46-15.53L56.46-15.53Q56.31-15.57 55.18-15.76L55.18-15.76Q54.59-16.88 55.23-18.13Z M73.32-14.20L73.32-14.20Q74.24-14.04 74.78-13.49Q75.31-12.93 75.31-12.07L75.31-12.07Q75.31-11.04 74.63-10.36Q73.95-9.69 72.83-9.69L72.83-9.69Q71.68-9.69 70.74-10.51Q69.80-11.33 69.80-12.83L69.80-12.83Q69.80-15.39 72.24-16.97Q74.67-18.55 78.59-18.55L78.59-18.55Q82.32-18.55 83.84-17.06Q85.35-15.57 85.35-12.03L85.35-12.03L85.35-5.20L86.60-5.23Q88.20-5.12 88.83-3.71L88.83-3.71L88.20-2.64Q87.60-1.72 87.20-1.22Q86.80-0.72 86.05-0.10Q85.31 0.53 84.32 0.80Q83.32 1.07 81.99 1.07L81.99 1.07Q80.35 1.07 79.51-0.16L79.51-0.16Q77.40 1.37 74.00 1.37L74.00 1.37Q72.52 1.37 71.47 0.91Q70.43 0.45 69.95-0.31Q69.47-1.07 69.28-1.74Q69.08-2.40 69.08-3.09L69.08-3.09Q69.08-5.96 71.02-7.38Q72.95-8.81 78.83-10.31L78.83-10.31L78.83-12.44Q78.83-14.00 78.17-14.73Q77.52-15.45 76.48-15.45L76.48-15.45Q74.28-15.45 73.32-14.20ZM79.63-8.48L79.63-8.48L79.63-4.39Q77.75-1.91 75.80-1.91L75.80-1.91Q74.67-1.91 73.96-2.46Q73.24-3.01 73.24-4.00L73.24-4.00Q73.24-5.61 74.56-6.64Q75.88-7.68 79.63-8.48ZM78.83-4.65L78.83-4.65L78.83-7.03Q76.00-6.00 76.00-4.00L76.00-4.00Q76.00-3.16 76.60-2.83L76.60-2.83Q77.64-3.20 78.83-4.65ZM72.83-11.41L72.83-11.41Q72.15-11.41 71.88-12.40L71.88-12.40Q71.48-14.00 72.83-15.20L72.83-15.20Q74.16-16.37 76.84-16.37L76.84-16.37Q78.11-16.37 78.87-15.38Q79.63-14.39 79.63-12.44L79.63-12.44L79.63-9.73Q73.87-8.24 71.88-6.92Q69.88-5.61 69.88-3.09L69.88-3.09Q69.88-1.76 70.78-0.60Q71.68 0.57 74.00 0.57L74.00 0.57Q74.92 0.57 75.73 0.27Q76.54-0.02 77.41-0.67Q78.28-1.33 78.48-1.50Q78.67-1.68 79.13-2.12Q79.59-2.56 79.63-2.60L79.63-2.60Q79.88 0.27 81.99 0.27L81.99 0.27Q82.52 0.27 83.20 0Q83.89-0.27 84.58-1.07Q85.27-1.88 85.46-2.14Q85.64-2.40 86.02-2.98Q86.39-3.55 86.56-3.77L86.56-3.77Q86.31-4.32 85.59-4.39L85.59-4.39Q84.51-2.75 83.40-2.79L83.40-2.79Q82.60-2.83 82.60-3.93L82.60-3.93L82.60-12.03Q82.60-15.16 81.38-16.46Q80.16-17.75 77.19-17.75L77.19-17.75Q74.51-17.75 72.55-16.38Q70.59-15 70.59-12.83L70.59-12.83Q70.59-11.72 71.27-11.10Q71.95-10.49 72.83-10.49L72.83-10.49Q73.11-10.88 72.83-11.41Z M108.13-2.75L108.13-2.75Q108.16-2.03 112.48-1.60L112.48-1.60Q112.75-0.45 112.40 0.88L112.40 0.88Q107.03 0.80 104.32 0.80L104.32 0.80Q101.64 0.80 96.27 0.88L96.27 0.88Q95.64-0.27 96.27-1.60L96.27-1.60Q100.53-2.03 100.57-2.71L100.57-2.71Q100.76-8.13 100.80-12.40L100.80-12.40L93.52-25.08Q92.56-26.68 89.00-27.03L89.00-27.03Q88.85-27.64 88.85-28.20L88.85-28.20Q88.85-28.81 89.08-29.51L89.08-29.51Q93.20-29.36 98.79-29.36L98.79-29.36Q102.83-29.36 104.77-29.43L104.77-29.43Q104.96-28.77 104.96-28.28L104.96-28.28Q104.96-27.71 104.77-26.99L104.77-26.99Q102.68-26.84 101.88-26.64Q101.07-26.45 101.07-26.04L101.07-26.04Q101.07-25.92 105.84-17.36L105.84-17.36Q111.15-26.19 111.15-26.29L111.15-26.29Q111.15-26.48 110.92-26.64Q110.68-26.80 110.28-26.89Q109.88-26.99 109.54-27.03Q109.20-27.07 108.76-27.12Q108.32-27.17 108.24-27.17L108.24-27.17Q107.91-28.20 108.36-29.51L108.36-29.51Q111.95-29.36 113.71-29.36L113.71-29.36Q115.35-29.36 118.48-29.51L118.48-29.51Q118.93-28.16 118.48-27.03L118.48-27.03Q115.47-26.76 114.51-25.23L114.51-25.23L107.91-14.65Q107.91-6.72 108.13-2.75ZM101.37-2.68L101.37-2.68Q101.31-1.23 96.84-0.80L96.84-0.80Q96.64-0.31 96.84 0.16L96.84 0.16Q105.47 0 111.64 0.12L111.64 0.12Q111.80-0.27 111.64-0.84L111.64-0.84Q105.16-1.23 105.12-2.68L105.12-2.68Q104.92-8.28 104.92-11.37L104.92-11.37L113.85-25.64Q115-27.52 117.91-27.79L117.91-27.79Q118.09-28.13 117.91-28.71L117.91-28.71Q115.72-28.59 113.48-28.59L113.48-28.59Q111.45-28.59 108.93-28.71L108.93-28.71Q108.75-28.40 108.93-27.79L108.93-27.79Q111.80-27.48 111.99-26.52L111.99-26.52Q112.07-26.15 111.76-25.64L111.76-25.64L104.69-13.96L98.28-25.39Q97.60-26.68 98.70-27.10Q99.80-27.52 104.00-27.79L104.00-27.79Q104.16-28.36 104.00-28.71L104.00-28.71Q98.24-28.44 89.63-28.71L89.63-28.71Q89.47-28.36 89.63-27.79L89.63-27.79Q93.09-27.48 94.24-25.39L94.24-25.39L101.60-12.56Q101.56-7.97 101.37-2.68Z M135.31-4.73L135.31-4.73Q135.47-9.61 135.31-14.51L135.31-14.51Q135.31-15.20 132.36-15.68L132.36-15.68Q131.91-16.88 132.36-18.05L132.36-18.05L140.80-18.05Q141.35-17.83 141.59-17.58Q141.84-17.32 142.03-16.84L142.03-16.84Q142.03-16.48 141.93-15.72Q141.84-14.96 141.84-14.51L141.84-14.51Q141.64-8.09 141.84-3.32L141.84-3.32Q143.24-2.87 144.80-2.79L144.80-2.79Q145.23-1.64 144.80-0.31L144.80-0.31Q142.25-0.16 138.48 1.45L138.48 1.45Q136.35 1.29 135.31 0.16L135.31 0.16L135.31-0.35Q132.64 1.37 128.96 1.37L128.96 1.37Q126.31 1.37 125.20-0.08Q124.08-1.52 124.04-4.61L124.04-4.61Q124.08-9.51 124.04-14.51L124.04-14.51Q124.04-15.20 121.07-15.68L121.07-15.68Q120.64-16.88 121.07-18.05L121.07-18.05L129.55-18.05Q130.12-17.83 130.36-17.58Q130.61-17.32 130.80-16.84L130.80-16.84Q130.80-16.48 130.70-15.72Q130.61-14.96 130.61-14.51L130.61-14.51Q130.47-9.96 130.61-5.23L130.61-5.23Q130.68-3.01 131.41-2.64L131.41-2.64Q132.83-3.01 135.31-4.73ZM136.11-14.51L136.11-14.51Q136.23-9.43 136.11-4.32L136.11-4.32Q132.48-1.72 130.51-1.72L130.51-1.72Q127.83-1.72 127.83-5.23L127.83-5.23Q127.71-9.96 127.83-14.51L127.83-14.51Q127.83-15.04 127.94-15.78Q128.05-16.52 128.05-16.72L128.05-16.72Q127.83-17.17 127.48-17.32L127.48-17.32Q124.59-17.13 121.72-17.32L121.72-17.32Q121.56-16.88 121.72-16.41L121.72-16.41Q124.80-15.92 124.84-14.51L124.84-14.51Q124.88-9.55 124.84-4.61L124.84-4.61Q124.80-1.95 125.76-0.69Q126.72 0.57 128.96 0.57L128.96 0.57Q131.91 0.57 136.11-3.09L136.11-3.09L136.11-0.23Q136.27 0.08 136.80 0.27L136.80 0.27Q139.59-0.76 144.04-1.11L144.04-1.11Q144.20-1.60 144.04-2.03L144.04-2.03Q140.68-2.17 139.08-2.83L139.08-2.83Q138.93-9.80 139.08-14.51L139.08-14.51Q139.08-15.04 139.18-15.78Q139.28-16.52 139.28-16.72L139.28-16.72Q139.08-17.17 138.71-17.32L138.71-17.32Q135.88-17.17 132.99-17.32L132.99-17.32Q132.83-16.88 132.99-16.41L132.99-16.41Q136.07-15.92 136.11-14.51Z M154.38-4.96L154.38-15.39L162.05-15.39Q162.32-16.15 162.05-16.80L162.05-16.80L154.38-16.80L154.38-21.07Q153.89-21.29 153.40-21.07L153.40-21.07Q152.68-19.73 151.80-18.72Q150.92-17.71 150.32-17.31Q149.73-16.91 148.61-16.29L148.61-16.29Q148.48-15.88 148.61-15.39L148.61-15.39L151.00-15.39L151.00-5.16Q151.00 0.57 155.72 0.57L155.72 0.57Q157.73 0.57 159.43-0.48Q161.13-1.52 161.97-3.05L161.97-3.05Q161.80-3.48 161.33-3.52L161.33-3.52Q159.49-1.88 157.77-1.88L157.77-1.88Q154.38-1.88 154.38-4.96L154.38-4.96ZM161.09-4.36L161.09-4.36Q162.32-4.20 162.85-3.01L162.85-3.01Q161.84-1.15 159.90 0.11Q157.97 1.37 155.72 1.37L155.72 1.37Q150.21 1.37 150.21-5.16L150.21-5.16L150.21-14.61L147.81-14.61Q147.52-15.64 147.81-16.76L147.81-16.76Q149.00-17.44 149.63-17.88Q150.25-18.32 151.19-19.32Q152.13-20.31 152.85-21.72L152.85-21.72Q154.69-22.48 157.13-21.64L157.13-21.64L157.13-17.60L162.81-17.60Q163.44-16.15 162.81-14.61L162.81-14.61L157.13-14.61L157.13-4.96Q157.13-3.09 158.48-2.75L158.48-2.75Q159.65-3.01 161.09-4.36Z"/></g>
</svg>
</g></svg></svg>