<svg version="1.1" preserveAspectRatio="none" xmlns="http://www.w3.org/2000/svg" width="500" height="500" viewBox="0 0 500 500"><rect width="100%" height="100%" fill="#2089EF" fill-opacity="1"/><svg viewBox="115.3224 335.4388 468.9233 284.6471" width="333" height="202.13856786387032" x="83.5px" y="148.9307px" xmlns="http://www.w3.org/2000/svg" xmlns:xlink="http://www.w3.org/1999/xlink" preserveAspectRatio="none"><defs></defs><style>.companyName {fill:#D9F18A;fill-opacity:1;}.icon1 {fill:#FFA2E8;fill-opacity:1;}.icon2 {fill:#FFDEAC;fill-opacity:1;}.icon3 {fill:#89EFCA;fill-opacity:1;}.icon3-str {stroke:#89EFCA;stroke-opacity:1;}.text {fill:#D9F18A;fill-opacity:1;}</style><g opacity="1" transform="rotate(0 271.2188 335.4388)">
<svg width="157.1305" height="115.4471" x="271.2188" y="335.4388" version="1.1" preserveAspectRatio="none" viewBox="7.4029998779296875 19.700000762939453 82.47899627685547 60.598995208740234">
  <g transform="matrix(1 0 0 1 0 0)" class="icon1"><path d="M88.85,47.507L62.074,20.732c-1.376-1.376-3.607-1.376-4.984,0L30.314,47.507c-0.661,0.661-1.032,1.558-1.032,2.492  c0,0.934,0.372,1.831,1.032,2.492l11.771,11.772l4.984-4.984L37.79,50l10.853-10.853L59.495,50L37.703,71.791L15.911,50  l21.792-21.792l4.453,4.453l4.984-4.983l-6.945-6.945c-1.376-1.376-3.607-1.376-4.983,0L8.436,47.507  C7.775,48.168,7.403,49.065,7.403,50c0,0.934,0.372,1.831,1.032,2.492l26.776,26.776c0.66,0.66,1.557,1.031,2.491,1.031  s1.831-0.371,2.492-1.031l8.447-8.447l8.447,8.447c0.661,0.66,1.558,1.031,2.492,1.031s1.831-0.371,2.492-1.031L88.85,52.491  c0.661-0.661,1.032-1.558,1.032-2.492C89.882,49.065,89.511,48.168,88.85,47.507z M59.582,71.791l-5.956-5.955l13.345-13.345  c0.661-0.661,1.032-1.558,1.032-2.492c0-0.935-0.371-1.831-1.032-2.492L53.626,34.164l5.956-5.956L81.374,50L59.582,71.791z"></path></g>
</svg>
</g><g opacity="1" transform="rotate(0 115.3224 592.8859)">
<svg width="468.9233" height="27.2" x="115.3224" y="592.8859" version="1.1" preserveAspectRatio="none" viewBox="1.68 -32.32 745.0000000000001 43.2">
  <g transform="matrix(1 0 0 1 0 0)" class="text"><path id="id-6izo4zJp30" d="M15.32-28.52Q20.60-28.52 24.08-25.80Q27.56-23.08 28.68-18.40L28.68-18.40L22.76-18.40Q21.84-20.68 19.90-22Q17.96-23.32 15.24-23.32L15.24-23.32Q13-23.32 11.20-22.20Q9.40-21.08 8.40-19Q7.40-16.92 7.40-14.12L7.40-14.12Q7.40-11.36 8.40-9.28Q9.40-7.20 11.20-6.08Q13-4.96 15.24-4.96L15.24-4.96Q17.96-4.96 19.90-6.28Q21.84-7.60 22.76-9.88L22.76-9.88L28.68-9.88Q27.56-5.20 24.08-2.48Q20.60 0.24 15.32 0.24L15.32 0.24Q11.28 0.24 8.18-1.58Q5.08-3.40 3.38-6.68Q1.68-9.96 1.68-14.12L1.68-14.12Q1.68-18.32 3.38-21.60Q5.08-24.88 8.16-26.70Q11.24-28.52 15.32-28.52L15.32-28.52Z M45.16-22.44Q48.40-22.44 50.98-21.08Q53.56-19.72 55.04-17.14Q56.52-14.56 56.52-11.08L56.52-11.08Q56.52-7.60 55.04-5.04Q53.56-2.48 50.98-1.10Q48.40 0.28 45.16 0.28L45.16 0.28Q41.92 0.28 39.34-1.10Q36.76-2.48 35.28-5.04Q33.80-7.60 33.80-11.08L33.80-11.08Q33.80-14.56 35.28-17.14Q36.76-19.72 39.34-21.08Q41.92-22.44 45.16-22.44L45.16-22.44ZM45.16-17.56Q42.80-17.56 41.16-15.90Q39.52-14.24 39.52-11.08L39.52-11.08Q39.52-7.92 41.16-6.26Q42.80-4.60 45.16-4.60L45.16-4.60Q47.52-4.60 49.16-6.26Q50.80-7.92 50.80-11.08L50.80-11.08Q50.80-14.24 49.16-15.90Q47.52-17.56 45.16-17.56L45.16-17.56Z M90.72-22.48Q94.76-22.48 97.10-19.98Q99.44-17.48 99.44-12.88L99.44-12.88L99.44 0L93.84 0L93.84-12.24Q93.84-14.80 92.54-16.18Q91.24-17.56 88.96-17.56L88.96-17.56Q86.60-17.56 85.20-16.08Q83.80-14.60 83.80-11.76L83.80-11.76L83.80 0L78.20 0L78.20-12.24Q78.20-14.80 76.90-16.18Q75.60-17.56 73.32-17.56L73.32-17.56Q70.96-17.56 69.56-16.08Q68.16-14.60 68.16-11.76L68.16-11.76L68.16 0L62.52 0L62.52-22.16L68.16-22.16L68.16-17.96Q69.04-20.12 70.94-21.30Q72.84-22.48 75.36-22.48L75.36-22.48Q78.04-22.48 80.02-21.20Q82-19.92 83-17.52L83-17.52Q84.04-19.80 86.10-21.14Q88.16-22.48 90.72-22.48L90.72-22.48Z M134.60-22.48Q138.64-22.48 140.98-19.98Q143.32-17.48 143.32-12.88L143.32-12.88L143.32 0L137.72 0L137.72-12.24Q137.72-14.80 136.42-16.18Q135.12-17.56 132.84-17.56L132.84-17.56Q130.48-17.56 129.08-16.08Q127.68-14.60 127.68-11.76L127.68-11.76L127.68 0L122.08 0L122.08-12.24Q122.08-14.80 120.78-16.18Q119.48-17.56 117.20-17.56L117.20-17.56Q114.84-17.56 113.44-16.08Q112.04-14.60 112.04-11.76L112.04-11.76L112.04 0L106.40 0L106.40-22.16L112.04-22.16L112.04-17.96Q112.92-20.12 114.82-21.30Q116.72-22.48 119.24-22.48L119.24-22.48Q121.92-22.48 123.90-21.20Q125.88-19.92 126.88-17.52L126.88-17.52Q127.92-19.80 129.98-21.14Q132.04-22.48 134.60-22.48L134.60-22.48Z M165.84-22.16L171.48-22.16L171.48 0L165.84 0L165.84-4.48Q164.96-2.24 162.94-0.98Q160.92 0.28 158.28 0.28L158.28 0.28Q154.44 0.28 152.16-2.24Q149.88-4.76 149.88-9.28L149.88-9.28L149.88-22.16L155.48-22.16L155.48-9.92Q155.48-7.28 156.84-5.82Q158.20-4.36 160.52-4.36L160.52-4.36Q162.96-4.36 164.40-5.92Q165.84-7.48 165.84-10.40L165.84-10.40L165.84-22.16Z M191.80-22.48Q195.64-22.48 197.92-19.96Q200.20-17.44 200.20-12.88L200.20-12.88L200.20 0L194.60 0L194.60-12.24Q194.60-14.88 193.24-16.34Q191.88-17.80 189.52-17.80L189.52-17.80Q187.12-17.80 185.68-16.24Q184.24-14.68 184.24-11.76L184.24-11.76L184.24 0L178.60 0L178.60-22.16L184.24-22.16L184.24-17.72Q185.12-19.96 187.14-21.22Q189.16-22.48 191.80-22.48L191.80-22.48Z M206.52-28.52Q206.52-29.88 207.48-30.74Q208.44-31.60 210-31.60L210-31.60Q211.56-31.60 212.52-30.74Q213.48-29.88 213.48-28.52L213.48-28.52Q213.48-27.20 212.52-26.34Q211.56-25.48 210-25.48L210-25.48Q208.44-25.48 207.48-26.34Q206.52-27.20 206.52-28.52L206.52-28.52ZM207.16-22.16L212.80-22.16L212.80 0L207.16 0L207.16-22.16Z M229.56-4.84L231.76-4.84L231.76 0L228.80 0Q225.08 0 223.10-1.80Q221.12-3.60 221.12-7.80L221.12-7.80L221.12-17.40L218.04-17.40L218.04-22.16L221.12-22.16L221.12-27.64L226.76-27.64L226.76-22.16L231.72-22.16L231.72-17.40L226.76-17.40L226.76-7.72Q226.76-6.12 227.40-5.48Q228.04-4.84 229.56-4.84L229.56-4.84Z M235.32-22.16L241.60-22.16L247.64-7.12L253.24-22.16L259.44-22.16L245.88 10.56L239.64 10.56L244.64-0.64L235.32-22.16Z M279.72-32.32L279.72 4.84L274.08 4.84L274.08-32.32L279.72-32.32Z M299.20-28.52Q304.36-28.52 307.76-25.98Q311.16-23.44 312.12-19.12L312.12-19.12L306.20-19.12Q305.36-21.04 303.54-22.18Q301.72-23.32 299.24-23.32L299.24-23.32Q296.80-23.32 294.92-22.20Q293.04-21.08 292-19Q290.96-16.92 290.96-14.12L290.96-14.12Q290.96-9.68 293.34-7.20Q295.72-4.72 299.84-4.72L299.84-4.72Q302.88-4.72 305.06-6.52Q307.24-8.32 307.88-11.52L307.88-11.52L298.32-11.52L298.32-15.56L312.60-15.56L312.60-10.12Q312-7.32 310.26-4.96Q308.52-2.60 305.70-1.18Q302.88 0.24 299.24 0.24L299.24 0.24Q295.08 0.24 291.90-1.58Q288.72-3.40 286.98-6.66Q285.24-9.92 285.24-14.12L285.24-14.12Q285.24-18.32 286.98-21.58Q288.72-24.84 291.88-26.68Q295.04-28.52 299.20-28.52L299.20-28.52Z M327.52-22.44Q330.32-22.44 332.32-21.12Q334.32-19.80 335.16-17.56L335.16-17.56L335.16-22.16L340.76-22.16L340.76 0L335.16 0L335.16-4.64Q334.32-2.40 332.32-1.06Q330.32 0.28 327.52 0.28L327.52 0.28Q324.72 0.28 322.48-1.08Q320.24-2.44 318.98-5.02Q317.72-7.60 317.72-11.08L317.72-11.08Q317.72-14.56 318.98-17.14Q320.24-19.72 322.48-21.08Q324.72-22.44 327.52-22.44L327.52-22.44ZM329.28-17.52Q326.64-17.52 325.04-15.80Q323.44-14.08 323.44-11.08L323.44-11.08Q323.44-8.08 325.04-6.38Q326.64-4.68 329.28-4.68L329.28-4.68Q331.84-4.68 333.50-6.42Q335.16-8.16 335.16-11.08L335.16-11.08Q335.16-14.04 333.50-15.78Q331.84-17.52 329.28-17.52L329.28-17.52Z M376.08-22.48Q380.12-22.48 382.46-19.98Q384.80-17.48 384.80-12.88L384.80-12.88L384.80 0L379.20 0L379.20-12.24Q379.20-14.80 377.90-16.18Q376.60-17.56 374.32-17.56L374.32-17.56Q371.96-17.56 370.56-16.08Q369.16-14.60 369.16-11.76L369.16-11.76L369.16 0L363.56 0L363.56-12.24Q363.56-14.80 362.26-16.18Q360.96-17.56 358.68-17.56L358.68-17.56Q356.32-17.56 354.92-16.08Q353.52-14.60 353.52-11.76L353.52-11.76L353.52 0L347.88 0L347.88-22.16L353.52-22.16L353.52-17.96Q354.40-20.12 356.30-21.30Q358.20-22.48 360.72-22.48L360.72-22.48Q363.40-22.48 365.38-21.20Q367.36-19.92 368.36-17.52L368.36-17.52Q369.40-19.80 371.46-21.14Q373.52-22.48 376.08-22.48L376.08-22.48Z M391.12-28.52Q391.12-29.88 392.08-30.74Q393.04-31.60 394.60-31.60L394.60-31.60Q396.16-31.60 397.12-30.74Q398.08-29.88 398.08-28.52L398.08-28.52Q398.08-27.20 397.12-26.34Q396.16-25.48 394.60-25.48L394.60-25.48Q393.04-25.48 392.08-26.34Q391.12-27.20 391.12-28.52L391.12-28.52ZM391.76-22.16L397.40-22.16L397.40 0L391.76 0L391.76-22.16Z M417.72-22.48Q421.56-22.48 423.84-19.96Q426.12-17.44 426.12-12.88L426.12-12.88L426.12 0L420.52 0L420.52-12.24Q420.52-14.88 419.16-16.34Q417.80-17.80 415.44-17.80L415.44-17.80Q413.04-17.80 411.60-16.24Q410.16-14.68 410.16-11.76L410.16-11.76L410.16 0L404.52 0L404.52-22.16L410.16-22.16L410.16-17.72Q411.04-19.96 413.06-21.22Q415.08-22.48 417.72-22.48L417.72-22.48Z M441.76-22.44Q444.56-22.44 446.56-21.12Q448.56-19.80 449.40-17.56L449.40-17.56L449.40-22.16L455-22.16L455 0.08Q455 3.16 453.78 5.62Q452.56 8.08 450.14 9.48Q447.72 10.88 444.28 10.88L444.28 10.88Q439.48 10.88 436.52 8.60Q433.56 6.32 432.92 2.40L432.92 2.40L438.48 2.40Q438.96 4.08 440.34 5.02Q441.72 5.96 443.88 5.96L443.88 5.96Q446.36 5.96 447.88 4.50Q449.40 3.04 449.40 0.08L449.40 0.08L449.40-4.64Q448.56-2.40 446.56-1.06Q444.56 0.28 441.76 0.28L441.76 0.28Q438.96 0.28 436.72-1.08Q434.48-2.44 433.22-5.02Q431.96-7.60 431.96-11.08L431.96-11.08Q431.96-14.56 433.22-17.14Q434.48-19.72 436.72-21.08Q438.96-22.44 441.76-22.44L441.76-22.44ZM443.52-17.52Q440.88-17.52 439.28-15.80Q437.68-14.08 437.68-11.08L437.68-11.08Q437.68-8.08 439.28-6.38Q440.88-4.68 443.52-4.68L443.52-4.68Q446.08-4.68 447.74-6.42Q449.40-8.16 449.40-11.08L449.40-11.08Q449.40-14.04 447.74-15.78Q446.08-17.52 443.52-17.52L443.52-17.52Z M481.52-22.44Q484.32-22.44 486.32-21.12Q488.32-19.80 489.16-17.56L489.16-17.56L489.16-22.16L494.76-22.16L494.76 0L489.16 0L489.16-4.64Q488.32-2.40 486.32-1.06Q484.32 0.28 481.52 0.28L481.52 0.28Q478.72 0.28 476.48-1.08Q474.24-2.44 472.98-5.02Q471.72-7.60 471.72-11.08L471.72-11.08Q471.72-14.56 472.98-17.14Q474.24-19.72 476.48-21.08Q478.72-22.44 481.52-22.44L481.52-22.44ZM483.28-17.52Q480.64-17.52 479.04-15.80Q477.44-14.08 477.44-11.08L477.44-11.08Q477.44-8.08 479.04-6.38Q480.64-4.68 483.28-4.68L483.28-4.68Q485.84-4.68 487.50-6.42Q489.16-8.16 489.16-11.08L489.16-11.08Q489.16-14.04 487.50-15.78Q485.84-17.52 483.28-17.52L483.28-17.52Z M515.08-22.48Q518.92-22.48 521.20-19.96Q523.48-17.44 523.48-12.88L523.48-12.88L523.48 0L517.88 0L517.88-12.24Q517.88-14.88 516.52-16.34Q515.16-17.80 512.80-17.80L512.80-17.80Q510.40-17.80 508.96-16.24Q507.52-14.68 507.52-11.76L507.52-11.76L507.52 0L501.88 0L501.88-22.16L507.52-22.16L507.52-17.72Q508.40-19.96 510.42-21.22Q512.44-22.48 515.08-22.48L515.08-22.48Z M539.12-22.44Q541.92-22.44 543.90-21.12Q545.88-19.80 546.76-17.56L546.76-17.56L546.76-29.60L552.36-29.60L552.36 0L546.76 0L546.76-4.64Q545.88-2.40 543.90-1.06Q541.92 0.28 539.12 0.28L539.12 0.28Q536.32 0.28 534.08-1.08Q531.84-2.44 530.58-5.02Q529.32-7.60 529.32-11.08L529.32-11.08Q529.32-14.56 530.58-17.14Q531.84-19.72 534.08-21.08Q536.32-22.44 539.12-22.44L539.12-22.44ZM540.88-17.52Q538.24-17.52 536.64-15.80Q535.04-14.08 535.04-11.08L535.04-11.08Q535.04-8.08 536.64-6.38Q538.24-4.68 540.88-4.68L540.88-4.68Q543.44-4.68 545.10-6.42Q546.76-8.16 546.76-11.08L546.76-11.08Q546.76-14.04 545.10-15.78Q543.44-17.52 540.88-17.52L540.88-17.52Z M580.16-22.44Q584.44-22.44 587.30-20.12Q590.16-17.80 590.88-13.80L590.88-13.80L584.92-13.80Q584.56-15.56 583.28-16.58Q582.00-17.60 580.04-17.60L580.04-17.60Q577.80-17.60 576.30-15.94Q574.80-14.28 574.80-11.08L574.80-11.08Q574.80-7.88 576.30-6.22Q577.80-4.56 580.04-4.56L580.04-4.56Q582.00-4.56 583.28-5.58Q584.56-6.60 584.92-8.36L584.92-8.36L590.88-8.36Q590.16-4.36 587.30-2.04Q584.44 0.28 580.16 0.28L580.16 0.28Q576.92 0.28 574.40-1.10Q571.88-2.48 570.48-5.04Q569.08-7.60 569.08-11.08L569.08-11.08Q569.08-14.56 570.48-17.14Q571.88-19.72 574.40-21.08Q576.92-22.44 580.16-22.44L580.16-22.44Z M607.12-22.44Q610.36-22.44 612.94-21.08Q615.52-19.72 617-17.14Q618.48-14.56 618.48-11.08L618.48-11.08Q618.48-7.60 617-5.04Q615.52-2.48 612.94-1.10Q610.36 0.28 607.12 0.28L607.12 0.28Q603.88 0.28 601.30-1.10Q598.72-2.48 597.24-5.04Q595.76-7.60 595.76-11.08L595.76-11.08Q595.76-14.56 597.24-17.14Q598.72-19.72 601.30-21.08Q603.88-22.44 607.12-22.44L607.12-22.44ZM607.12-17.56Q604.76-17.56 603.12-15.90Q601.48-14.24 601.48-11.08L601.48-11.08Q601.48-7.92 603.12-6.26Q604.76-4.60 607.12-4.60L607.12-4.60Q609.48-4.60 611.12-6.26Q612.76-7.92 612.76-11.08L612.76-11.08Q612.76-14.24 611.12-15.90Q609.48-17.56 607.12-17.56L607.12-17.56Z M633.16-22.44Q635.96-22.44 637.94-21.12Q639.92-19.80 640.80-17.56L640.80-17.56L640.80-29.60L646.40-29.60L646.40 0L640.80 0L640.80-4.64Q639.92-2.40 637.94-1.06Q635.96 0.28 633.16 0.28L633.16 0.28Q630.36 0.28 628.12-1.08Q625.88-2.44 624.62-5.02Q623.36-7.60 623.36-11.08L623.36-11.08Q623.36-14.56 624.62-17.14Q625.88-19.72 628.12-21.08Q630.36-22.44 633.16-22.44L633.16-22.44ZM634.92-17.52Q632.28-17.52 630.68-15.80Q629.08-14.08 629.08-11.08L629.08-11.08Q629.08-8.08 630.68-6.38Q632.28-4.68 634.92-4.68L634.92-4.68Q637.48-4.68 639.14-6.42Q640.80-8.16 640.80-11.08L640.80-11.08Q640.80-14.04 639.14-15.78Q637.48-17.52 634.92-17.52L634.92-17.52Z M674.36-11.92Q674.36-11.08 674.16-10L674.16-10L657.92-10Q658.04-7.04 659.52-5.64Q661-4.24 663.20-4.24L663.20-4.24Q665.16-4.24 666.46-5.20Q667.76-6.16 668.12-7.80L668.12-7.80L674.08-7.80Q673.64-5.48 672.20-3.64Q670.76-1.80 668.50-0.76Q666.24 0.28 663.48 0.28L663.48 0.28Q660.24 0.28 657.72-1.10Q655.20-2.48 653.80-5.04Q652.40-7.60 652.40-11.08L652.40-11.08Q652.40-14.56 653.80-17.14Q655.20-19.72 657.72-21.08Q660.24-22.44 663.48-22.44L663.48-22.44Q666.76-22.44 669.22-21.08Q671.68-19.72 673.02-17.34Q674.36-14.96 674.36-11.92L674.36-11.92ZM668.68-12.48Q668.80-15.20 667.26-16.60Q665.72-18 663.48-18L663.48-18Q661.20-18 659.64-16.60Q658.08-15.20 657.92-12.48L657.92-12.48L668.68-12.48Z M685.28-32.32L685.28 4.84L679.64 4.84L679.64-32.32L685.28-32.32Z M702.40-28.24L719.92-28.24L719.92-23.76L708.04-23.76L708.04-16.20L717.56-16.20L717.56-11.88L708.04-11.88L708.04 0L702.40 0L702.40-28.24Z M746.68 0L740.44 0L733.84-11L731.36-11L731.36 0L725.72 0L725.72-28.24L736.48-28.24Q741.40-28.24 743.98-25.84Q746.56-23.44 746.56-19.52L746.56-19.52Q746.56-16.32 744.78-14.16Q743.00-12 739.64-11.28L739.64-11.28L746.68 0ZM731.36-23.48L731.36-14.88L736.00-14.88Q740.84-14.88 740.84-19.16L740.84-19.16Q740.84-21.20 739.66-22.34Q738.48-23.48 736.00-23.48L736.00-23.48L731.36-23.48Z"/></g>
</svg>
</g><g opacity="1" transform="rotate(0 153.3708 490.8859)">
<svg width="392.8264" height="80" x="153.3708" y="490.8859" version="1.1" preserveAspectRatio="none" viewBox="2 -33.16 164.2 33.44">
  <g transform="matrix(1 0 0 1 0 0)" class="companyName"><path id="id-D6z1nYkh7" d="M14.40-9L10.88-9L10.88 0L2 0L2-28.32L14.40-28.32Q19.60-28.32 22.38-25.68Q25.16-23.04 25.16-18.60L25.16-18.60Q25.16-15.92 23.92-13.74Q22.68-11.56 20.26-10.28Q17.84-9 14.40-9L14.40-9ZM13.40-16Q16.16-16 16.16-18.60L16.16-18.60Q16.16-21.20 13.40-21.20L13.40-21.20L10.88-21.20L10.88-16L13.40-16Z M27.32-28.72Q27.32-30.64 28.72-31.90Q30.12-33.16 32.44-33.16L32.44-33.16Q34.72-33.16 36.12-31.90Q37.52-30.64 37.52-28.72L37.52-28.72Q37.52-26.84 36.12-25.60Q34.72-24.36 32.44-24.36L32.44-24.36Q30.12-24.36 28.72-25.60Q27.32-26.84 27.32-28.72L27.32-28.72ZM27.96-22.56L36.84-22.56L36.84 0L27.96 0L27.96-22.56Z M65.88 0L55.28 0L49.72-9L49.72 0L40.84 0L40.84-29.60L49.72-29.60L49.72-14.12L55.36-22.56L65.68-22.56L57.24-11.20L65.88 0Z M76-22.84Q78.20-22.84 79.80-21.94Q81.40-21.04 82.24-19.48L82.24-19.48L82.24-22.56L91.08-22.56L91.08 0L82.24 0L82.24-3.08Q81.40-1.52 79.80-0.62Q78.20 0.28 76 0.28L76 0.28Q73.36 0.28 71.24-1.10Q69.12-2.48 67.90-5.10Q66.68-7.72 66.68-11.28L66.68-11.28Q66.68-14.84 67.90-17.46Q69.12-20.08 71.24-21.46Q73.36-22.84 76-22.84L76-22.84ZM78.96-15.08Q77.52-15.08 76.60-14.08Q75.68-13.08 75.68-11.28L75.68-11.28Q75.68-9.48 76.60-8.48Q77.52-7.48 78.96-7.48L78.96-7.48Q80.40-7.48 81.32-8.48Q82.24-9.48 82.24-11.28L82.24-11.28Q82.24-13.08 81.32-14.08Q80.40-15.08 78.96-15.08L78.96-15.08Z M112.28-28.32L122.28-28.32L112.12-8.60L112.12 0L103.24 0L103.24-8.60L93.08-28.32L103.24-28.32L107.76-18.28L112.28-28.32Z M139.28-22.56L148.16-22.56L148.16 0L139.28 0L139.28-3.44Q138.24-1.84 136.50-0.84Q134.76 0.16 132.36 0.16L132.36 0.16Q128.48 0.16 126.30-2.44Q124.12-5.04 124.12-9.48L124.12-9.48L124.12-22.56L132.96-22.56L132.96-10.60Q132.96-9 133.82-8.06Q134.68-7.12 136.12-7.12L136.12-7.12Q137.60-7.12 138.44-8.06Q139.28-9 139.28-10.60L139.28-10.60L139.28-22.56Z M164.08-7.56L166.20-7.56L166.20 0L162.84 0Q153.56 0 153.56-9.24L153.56-9.24L153.56-15.16L150.76-15.16L150.76-22.56L153.56-22.56L153.56-28L162.44-28L162.44-22.56L166.12-22.56L166.12-15.16L162.44-15.16L162.44-9.08Q162.44-8.28 162.82-7.92Q163.20-7.56 164.08-7.56L164.08-7.56Z"/></g>
</svg>
</g></svg></svg>