<svg version="1.1" preserveAspectRatio="none" xmlns="http://www.w3.org/2000/svg" width="500" height="500" viewBox="0 0 500 500"><rect width="100%" height="100%" fill="#FFFFFF" fill-opacity="1"/><svg viewBox="27.5497 149.9152 457.7562 213.2" width="333" height="155.0947862639545" x="83.5px" y="172.4526px" xmlns="http://www.w3.org/2000/svg" xmlns:xlink="http://www.w3.org/1999/xlink" preserveAspectRatio="none"><defs></defs><style>.icon1 {fill:#0C0C0C;fill-opacity:1;}.icon2 {fill:#DFDFDF;fill-opacity:1;}.icon3 {fill:#929292;fill-opacity:1;}.icon3-str {stroke:#929292;stroke-opacity:1;}</style><g opacity="1" transform="rotate(0 27.5497 343.9152)">
<svg width="457.7562" height="19.2" x="27.5497" y="343.9152" version="1.1" preserveAspectRatio="none" viewBox="1.9141 -35.0391 992.7734 41.6406">
  <g transform="matrix(1 0 0 1 0 0)" class="icon3"><path id="id-6izo4zJp30" d="M1.91-14.88L1.91-14.88Q1.91-22.11 5.49-26.31Q9.06-30.51 14.80-30.51L14.80-30.51Q18.40-30.51 20.94-28.54Q23.48-26.56 24.73-23.75L24.73-23.75L21.48-22.66Q18.87-27.27 14.73-27.27L14.73-27.27Q10.63-27.27 8.22-23.89Q5.82-20.51 5.82-14.88L5.82-14.88Q5.82-9.18 8.26-5.88Q10.70-2.58 14.73-2.58L14.73-2.58Q17.30-2.58 19.24-4.04Q21.17-5.51 22.11-7.66L22.11-7.66L25.51-6.56Q24.92-5.23 24.04-4.06Q23.16-2.89 21.88-1.76Q20.59-0.63 18.77 0.04Q16.95 0.70 14.80 0.70L14.80 0.70Q9.14 0.70 5.53-3.44Q1.91-7.58 1.91-14.88Z M38.44-14.88L38.44-14.88Q38.44-21.91 41.86-26.21Q45.27-30.51 50.98-30.51L50.98-30.51Q56.72-30.51 60.10-26.21Q63.48-21.91 63.48-14.84L63.48-14.84Q63.48-7.73 60.06-3.52Q56.64 0.70 50.98 0.70L50.98 0.70Q45.27 0.70 41.86-3.54Q38.44-7.77 38.44-14.88ZM42.34-14.88L42.34-14.88Q42.34-9.22 44.67-5.90Q46.99-2.58 50.98-2.58L50.98-2.58Q54.92-2.58 57.25-5.84Q59.57-9.10 59.57-14.84L59.57-14.84Q59.57-20.51 57.30-23.89Q55.04-27.27 50.98-27.27L50.98-27.27Q46.99-27.27 44.67-23.91Q42.34-20.55 42.34-14.88Z M83.01 0L79.22 0L79.22-29.80L84.02-29.80L90.12-14.53Q90.74-12.89 91.72-10.10Q92.70-7.30 92.85-6.91L92.85-6.91L93.01-6.91Q93.20-7.50 95.86-14.53L95.86-14.53L101.88-29.80L106.76-29.80L106.76 0L102.97 0L102.97-15.70Q102.97-19.45 103.40-24.77L103.40-24.77L103.24-24.77L101.52-20L94.53-2.03L91.45-2.03L84.45-20L82.66-24.80L82.50-24.80Q83.01-18.71 83.01-15.70L83.01-15.70L83.01 0Z M128.20 0L124.41 0L124.41-29.80L129.22-29.80L135.31-14.53Q135.94-12.89 136.91-10.10Q137.89-7.30 138.05-6.91L138.05-6.91L138.20-6.91Q138.40-7.50 141.05-14.53L141.05-14.53L147.07-29.80L151.95-29.80L151.95 0L148.16 0L148.16-15.70Q148.16-19.45 148.59-24.77L148.59-24.77L148.44-24.77L146.72-20L139.73-2.03L136.64-2.03L129.65-20L127.85-24.80L127.70-24.80Q128.20-18.71 128.20-15.70L128.20-15.70L128.20 0Z M169.49-10.90L169.49-10.90L169.49-29.80L173.32-29.80L173.32-10.98Q173.32-6.72 175.21-4.65Q177.11-2.58 180.20-2.58L180.20-2.58Q183.36-2.58 185.23-4.73Q187.11-6.88 187.11-10.98L187.11-10.98L187.11-29.80L190.94-29.80L190.94-10.90Q190.94-5.39 188.18-2.34Q185.43 0.70 180.20 0.70L180.20 0.70Q175.12 0.70 172.30-2.29Q169.49-5.27 169.49-10.90Z M212.30 0L208.52 0L208.52-29.80L212.70-29.80L223.01-11.68L226.48-5.51L226.72-5.51Q226.21-9.14 226.21-13.98L226.21-13.98L226.21-29.80L230-29.80L230 0L225.82 0L215.51-18.09L212.03-24.26L211.88-24.26Q212.30-20.20 212.30-15.78L212.30-15.78L212.30 0Z M251.52 0L247.73 0L247.73-29.80L251.52-29.80L251.52 0Z M274.73-26.56L265.82-26.56L265.82-29.80L287.42-29.80L287.42-26.56L278.52-26.56L278.52 0L274.73 0L274.73-26.56Z M309.18-12.19L298.67-29.80L303.13-29.80L308.09-20.82Q309.69-17.85 310.98-15.43L310.98-15.43L311.09-15.43Q311.60-16.37 312.60-18.22Q313.59-20.08 314.02-20.82L314.02-20.82L318.95-29.80L323.40-29.80L312.97-12.19L312.97 0L309.18 0L309.18-12.19Z M360.51 6.60L356.84 6.60L356.84-35.04L360.51-35.04L360.51 6.60Z M376.17-14.88L376.17-14.88Q376.17-21.76 379.71-26.13Q383.24-30.51 389.30-30.51L389.30-30.51Q391.41-30.51 393.22-29.84Q395.04-29.18 396.27-28.11Q397.50-27.03 398.26-26.00Q399.02-24.96 399.53-23.91L399.53-23.91L396.29-22.81Q393.52-27.27 389.30-27.27L389.30-27.27Q384.92-27.27 382.50-23.87Q380.08-20.47 380.08-14.88L380.08-14.88Q380.08-9.14 382.58-5.86Q385.08-2.58 389.14-2.58L389.14-2.58Q392.77-2.58 394.77-4.86Q396.76-7.15 396.84-10.39L396.84-10.39Q396.84-10.74 396.86-11.70Q396.88-12.66 396.88-13.05L396.88-13.05L388.83-13.05L388.83-16.29L400.55-16.29L400.55 0L397.85 0L397.54-3.91Q395.12 0.70 389.02 0.70L389.02 0.70Q383.36 0.70 379.77-3.50Q376.17-7.70 376.17-14.88Z M424.14-20.47L420.94-11.21L431.37-11.21L428.20-20.47Q427.97-21.17 427.29-23.24Q426.60-25.31 426.29-26.25L426.29-26.25L426.05-26.25Q425.78-25.39 425.10-23.36Q424.41-21.33 424.14-20.47L424.14-20.47ZM417.03 0L412.93 0L423.95-29.80L428.40-29.80L439.38 0L435.27 0L432.46-8.16L419.88-8.16L417.03 0Z M456.88 0L453.09 0L453.09-29.80L457.89-29.80L463.98-14.53Q464.61-12.89 465.59-10.10Q466.56-7.30 466.72-6.91L466.72-6.91L466.88-6.91Q467.07-7.50 469.73-14.53L469.73-14.53L475.74-29.80L480.63-29.80L480.63 0L476.84 0L476.84-15.70Q476.84-19.45 477.27-24.77L477.27-24.77L477.11-24.77L475.39-20L468.40-2.03L465.31-2.03L458.32-20L456.52-24.80L456.37-24.80Q456.88-18.71 456.88-15.70L456.88-15.70L456.88 0Z M502.07 0L498.28 0L498.28-29.80L502.07-29.80L502.07 0Z M523.55 0L519.77 0L519.77-29.80L523.95-29.80L534.26-11.68L537.73-5.51L537.97-5.51Q537.46-9.14 537.46-13.98L537.46-13.98L537.46-29.80L541.25-29.80L541.25 0L537.07 0L526.76-18.09L523.28-24.26L523.13-24.26Q523.55-20.20 523.55-15.78L523.55-15.78L523.55 0Z M557.03-14.88L557.03-14.88Q557.03-21.76 560.57-26.13Q564.10-30.51 570.16-30.51L570.16-30.51Q572.27-30.51 574.08-29.84Q575.90-29.18 577.13-28.11Q578.36-27.03 579.12-26.00Q579.88-24.96 580.39-23.91L580.39-23.91L577.15-22.81Q574.38-27.27 570.16-27.27L570.16-27.27Q565.78-27.27 563.36-23.87Q560.94-20.47 560.94-14.88L560.94-14.88Q560.94-9.14 563.44-5.86Q565.94-2.58 570-2.58L570-2.58Q573.63-2.58 575.63-4.86Q577.62-7.15 577.70-10.39L577.70-10.39Q577.70-10.74 577.71-11.70Q577.73-12.66 577.73-13.05L577.73-13.05L569.69-13.05L569.69-16.29L581.41-16.29L581.41 0L578.71 0L578.40-3.91Q575.98 0.70 569.88 0.70L569.88 0.70Q564.22 0.70 560.63-3.50Q557.03-7.70 557.03-14.88Z M624.77-20.47L621.56-11.21L631.99-11.21L628.83-20.47Q628.59-21.17 627.91-23.24Q627.23-25.31 626.91-26.25L626.91-26.25L626.68-26.25Q626.41-25.39 625.72-23.36Q625.04-21.33 624.77-20.47L624.77-20.47ZM617.66 0L613.55 0L624.57-29.80L629.02-29.80L640 0L635.90 0L633.09-8.16L620.51-8.16L617.66 0Z M657.50 0L653.71 0L653.71-29.80L657.89-29.80L668.20-11.68L671.68-5.51L671.91-5.51Q671.41-9.14 671.41-13.98L671.41-13.98L671.41-29.80L675.20-29.80L675.20 0L671.02 0L660.70-18.09L657.23-24.26L657.07-24.26Q657.50-20.20 657.50-15.78L657.50-15.78L657.50 0Z M701.17 0L692.93 0L692.93-29.80L701.25-29.80Q707.77-29.80 711.46-25.98Q715.16-22.15 715.16-14.88L715.16-14.88Q715.16-8.09 711.64-4.04Q708.13 0 701.17 0L701.17 0ZM696.72-26.56L696.72-3.20L700.66-3.20Q705.63-3.20 708.44-6.00Q711.25-8.79 711.25-14.88L711.25-14.88Q711.25-26.56 700.74-26.56L700.74-26.56L696.72-26.56Z M748.59-14.88L748.59-14.88Q748.59-22.11 752.17-26.31Q755.74-30.51 761.48-30.51L761.48-30.51Q765.08-30.51 767.62-28.54Q770.16-26.56 771.41-23.75L771.41-23.75L768.16-22.66Q765.55-27.27 761.41-27.27L761.41-27.27Q757.30-27.27 754.90-23.89Q752.50-20.51 752.50-14.88L752.50-14.88Q752.50-9.18 754.94-5.88Q757.38-2.58 761.41-2.58L761.41-2.58Q763.98-2.58 765.92-4.04Q767.85-5.51 768.79-7.66L768.79-7.66L772.19-6.56Q771.60-5.23 770.72-4.06Q769.84-2.89 768.55-1.76Q767.27-0.63 765.45 0.04Q763.63 0.70 761.48 0.70L761.48 0.70Q755.82 0.70 752.21-3.44Q748.59-7.58 748.59-14.88Z M785.12-14.88L785.12-14.88Q785.12-21.91 788.54-26.21Q791.95-30.51 797.66-30.51L797.66-30.51Q803.40-30.51 806.78-26.21Q810.16-21.91 810.16-14.84L810.16-14.84Q810.16-7.73 806.74-3.52Q803.32 0.70 797.66 0.70L797.66 0.70Q791.95 0.70 788.54-3.54Q785.12-7.77 785.12-14.88ZM789.02-14.88L789.02-14.88Q789.02-9.22 791.35-5.90Q793.67-2.58 797.66-2.58L797.66-2.58Q801.60-2.58 803.93-5.84Q806.25-9.10 806.25-14.84L806.25-14.84Q806.25-20.51 803.98-23.89Q801.72-27.27 797.66-27.27L797.66-27.27Q793.67-27.27 791.35-23.91Q789.02-20.55 789.02-14.88Z M834.14 0L825.90 0L825.90-29.80L834.22-29.80Q840.74-29.80 844.43-25.98Q848.13-22.15 848.13-14.88L848.13-14.88Q848.13-8.09 844.61-4.04Q841.09 0 834.14 0L834.14 0ZM829.69-26.56L829.69-3.20L833.63-3.20Q838.59-3.20 841.41-6.00Q844.22-8.79 844.22-14.88L844.22-14.88Q844.22-26.56 833.71-26.56L833.71-26.56L829.69-26.56Z M883.05 0L863.75 0L863.75-29.80L882.70-29.80L882.70-26.56L867.54-26.56L867.54-16.99L881.21-16.99L881.21-13.83L867.54-13.83L867.54-3.24L883.05-3.24L883.05 0Z M901.91 6.60L898.24 6.60L898.24-35.04L901.91-35.04L901.91 6.60Z M943.09 0L939.30 0L939.30-29.80L957.70-29.80L957.70-26.56L943.09-26.56L943.09-16.60L956.17-16.60L956.17-13.40L943.09-13.40L943.09 0Z M975.86-26.56L975.86-15.78L983.28-15.78Q986.13-15.78 987.66-17.25Q989.18-18.71 989.18-21.25L989.18-21.25Q989.18-23.63 987.58-25.10Q985.98-26.56 983.05-26.56L983.05-26.56L975.86-26.56ZM975.86 0L972.07 0L972.07-29.80L983.83-29.80Q988.28-29.80 990.68-27.42Q993.09-25.04 993.09-21.52L993.09-21.52Q993.09-18.40 991.58-16.45Q990.08-14.49 988.20-13.95L988.20-13.95Q989.77-13.05 990.47-11.84Q991.17-10.63 991.64-8.36L991.64-8.36Q992.07-6.52 992.32-5.53Q992.58-4.53 993.18-3.03Q993.79-1.52 994.69 0L994.69 0L990.43 0Q988.83-2.85 987.66-8.09L987.66-8.09Q987.15-10.23 986.19-11.39Q985.23-12.54 983.13-12.54L983.13-12.54L975.86-12.54L975.86 0Z"/></g>
</svg>
</g><g opacity="1" transform="rotate(0 227.8535 149.9152)">
<svg width="57.1487" height="84" x="227.8535" y="149.9152" version="1.1" preserveAspectRatio="none" viewBox="13259.69140625 5395.4404296875 33478.9921875 49208.9921875">
  <g transform="matrix(-1 0 0 1 59998.375 0)" class="icon1"><defs></defs><g><path class="fil0" d="M44750 54476c-2643,-2420 -4749,-5013 -6470,-7713 -3760,4204 -7837,5291 -11739,4882 -3918,-410 -7630,-2332 -10663,-4100 -191,-110 -256,-355 -145,-545 28,-49 66,-90 108,-121 1838,-1488 3840,-2620 5866,-3428 3251,-1297 6567,-1760 9375,-1525 2195,184 4092,798 5427,1779 -165,-314 -326,-630 -483,-946 -493,-994 -946,-1998 -1367,-3007 -38,17 -80,29 -124,33 -7102,753 -11792,-1700 -15029,-5397 -3208,-3663 -4962,-8533 -6229,-12692 -64,-211 55,-433 266,-497 47,-14 94,-19 141,-16l0 -1c1917,127 3771,453 5533,936 1427,392 2792,886 4079,1462 -365,-725 -658,-1477 -891,-2247 -1138,-3768 -803,-7936 -346,-11419 28,-218 229,-372 447,-344 55,7 106,25 151,52 2086,1120 3905,2527 5433,4081 909,924 1715,1900 2415,2900 491,-2239 1560,-4204 2885,-5961 1459,-1934 3232,-3617 4878,-5141 161,-149 413,-139 563,22 34,36 59,77 77,121l1 -1c891,2199 1392,4450 1573,6628 291,3484 -235,6791 -1282,9411 -1065,2666 -2679,4635 -4537,5388 -345,140 -697,238 -1056,292 -118,521 -292,1003 -525,1438 -222,415 -496,786 -823,1108 -10,10 -21,20 -32,29 1234,3472 2605,6970 4395,10338 33,-635 128,-1284 275,-1943 -49,-45 -87,-102 -109,-169 -7,-22 -13,-45 -16,-68 -213,-211 -391,-455 -537,-726 -618,-1154 -610,-2804 -38,-4567 557,-1716 1651,-3556 3219,-5151 975,-991 2135,-1889 3465,-2604 45,-27 96,-45 151,-52 218,-28 418,125 447,344 291,2217 504,4873 -224,7281 -733,2427 -2403,4581 -5858,5760 -219,967 -325,1907 -278,2807 123,220 248,439 375,658 2244,3866 5121,7530 9082,10754 121,99 173,233 161,394 -8,117 -63,279 -153,449 -74,140 -181,303 -309,461 -314,386 -766,734 -1260,699 -105,-7 -198,-55 -265,-127zm-27393 -7749c3479,-580 6709,-976 9902,-1131 3356,-163 6666,-60 10173,375 -129,-273 -294,-531 -491,-774 -1123,-1385 -3277,-2251 -5924,-2474 -2698,-227 -5886,220 -9016,1468 -1587,633 -3159,1473 -4644,2536zm20105 -250c-3512,-441 -6823,-546 -10180,-383 -3290,160 -6629,579 -10250,1195 2812,1595 6139,3202 9590,3563 3592,376 7346,-603 10840,-4375zm5353 -19969c-466,926 -973,1878 -1487,2842 -1435,2691 -2918,5473 -3686,8094 2823,-1109 4219,-2972 4848,-5053 574,-1901 522,-3998 325,-5882zm-5659 10821c780,-2678 2281,-5492 3733,-8214 514,-963 1021,-1915 1489,-2847 -893,572 -1693,1232 -2393,1944 -1478,1502 -2507,3231 -3028,4838 -506,1560 -532,2987 -18,3945 64,119 136,231 218,335zm-22766 -15290c2906,3292 5797,5907 8940,8306 3125,2385 6497,4557 10378,6968 -856,-2337 -1568,-4694 -2221,-7035 -3637,-1248 -5997,-3191 -7494,-5487 -1546,-769 -3218,-1419 -4984,-1904 -1476,-405 -3021,-696 -4618,-847zm19602 16037c-4127,-2557 -7683,-4829 -10965,-7334 -2996,-2287 -5766,-4769 -8537,-7841 1206,3727 2866,7822 5616,10962 3064,3499 7509,5825 14247,5138 -123,-308 -243,-616 -361,-925zm4523 -31220c-570,1988 -1337,3807 -2111,5642 -1291,3061 -2600,6167 -3017,10157 358,1384 481,2701 358,3870 209,-47 416,-112 619,-194 1654,-670 3112,-2477 4096,-4941 1003,-2511 1506,-5690 1226,-9052 -150,-1802 -526,-3654 -1171,-5480zm-5482 14625c530,-3527 1729,-6370 2913,-9176 752,-1783 1497,-3551 2056,-5466 -1372,1292 -2781,2704 -3973,4284 -1407,1866 -2509,3968 -2879,6389 -2,16 -6,32 -10,48 815,1305 1450,2633 1894,3921zm-9713 -10560c1763,2940 3450,5838 4867,8768 1545,3196 2766,6426 3407,9782l15 5c20,-50 50,-97 91,-137 270,-266 496,-572 679,-914 842,-1572 807,-3894 -13,-6420 -835,-2574 -2481,-5340 -4845,-7743 -1216,-1237 -2621,-2376 -4202,-3342zm7726 18348c-646,-3201 -1825,-6296 -3308,-9363 -1447,-2993 -3186,-5965 -5001,-8986 -379,3199 -566,6871 434,10182 325,1077 778,2117 1393,3093 68,55 115,129 136,211 1315,1989 3328,3694 6346,4864zm4865 11369c264,592 541,1182 832,1768 1997,4026 4652,7891 8439,11385 157,-50 331,-214 475,-390 90,-111 166,-228 222,-333l3 -6c-3947,-3254 -6826,-6937 -9078,-10816 -309,-533 -606,-1069 -893,-1608z"></path></g></g>
</svg>
</g><g opacity="1" transform="rotate(0 81.6911 259.9152)">
<svg width="349.4734" height="60" x="81.6911" y="259.9152" version="1.1" preserveAspectRatio="none" viewBox="4.5703 -28.1641 168.18439999999998 28.8672">
  <g transform="matrix(1 0 0 1 0 0)" class="icon1"><path id="id-D6z1nYkh7" d="M6.37 0L4.57 0L4.57-28.16L15-28.16Q18.87-28.16 21.19-26.00Q23.52-23.83 23.52-20.20L23.52-20.20Q23.52-16.48 21.11-14.34Q18.71-12.19 14.96-12.19L14.96-12.19L6.37-12.19L6.37 0ZM6.37-26.60L6.37-13.67L14.57-13.67Q17.85-13.67 19.75-15.35Q21.64-17.03 21.64-20.20L21.64-20.20Q21.64-23.28 19.77-24.94Q17.89-26.60 14.49-26.60L14.49-26.60L6.37-26.60Z M34.88 0L33.08 0L33.08-28.16L34.88-28.16L34.88 0Z M48.98 0L47.18 0L47.18-28.16L48.98-28.16L48.98-11.60L49.02-11.60L63.43-28.16L65.85-28.16L55.27-16.09L66.67 0L64.33 0L54.06-14.73L48.98-8.95L48.98 0Z M80.81-21.95L76.44-10.39L88.58-10.39L84.25-21.95Q83.00-25.35 82.61-26.48L82.61-26.48L82.45-26.48Q82.30-26.05 80.81-21.95L80.81-21.95ZM72.57 0L70.54 0L81.36-28.16L83.66-28.16L94.52 0L92.45 0L89.13-8.91L75.89-8.91L72.57 0Z M105.93-11.60L95.77-28.16L98.00-28.16L104.17-17.77Q104.52-17.19 105.42-15.63Q106.32-14.06 106.75-13.32L106.75-13.32L106.82-13.32Q107.84-15.04 109.44-17.77L109.44-17.77L115.57-28.16L117.80-28.16L107.72-11.60L107.72 0L105.93 0L105.93-11.60Z M125.38-9.80L125.38-9.80L125.38-28.16L127.17-28.16L127.17-9.96Q127.17-5.51 129.28-3.18Q131.39-0.86 135.02-0.86L135.02-0.86Q138.73-0.86 140.84-3.22Q142.95-5.59 142.95-9.96L142.95-9.96L142.95-28.16L144.79-28.16L144.79-9.80Q144.79-4.80 142.29-2.05Q139.79 0.70 135.02 0.70L135.02 0.70Q130.41 0.70 127.89-2.01Q125.38-4.73 125.38-9.80Z M162.05-26.60L153.15-26.60L153.15-28.16L172.75-28.16L172.75-26.60L163.89-26.60L163.89 0L162.05 0L162.05-26.60Z"/></g>
</svg>
</g></svg></svg>