<svg version="1.1" preserveAspectRatio="none" xmlns="http://www.w3.org/2000/svg" width="500" height="500" viewBox="0 0 500 500"><rect width="100%" height="100%" fill="#121212" fill-opacity="1"/><svg viewBox="783.7107 668.6721 398.097 109.6" width="333" height="91.67815884068456" x="83.5px" y="204.1609px" xmlns="http://www.w3.org/2000/svg" xmlns:xlink="http://www.w3.org/1999/xlink" preserveAspectRatio="none"><defs></defs><style>.a6izo4zJpcolor {fill:#F5F5F5;fill-opacity:1;}.companyName {fill:#F5F5F5;fill-opacity:1;}.icon3 {fill:#00DCFB;fill-opacity:1;}.icon3-str {stroke:#00DCFB;stroke-opacity:1;}.shapeStroke-str {stroke:#F5F5F5;stroke-opacity:1;}</style><g opacity="1" transform="rotate(0 783.7107 738.6721)">
<svg width="398.097" height="6" x="783.7107" y="738.6721" version="1.1" preserveAspectRatio="none" viewBox="0 0 398.097 6">
  <defs><rect x="0" y="0" width="398.097" height="6" rx="4%" ry="4%" id="id-UPl23ini1676915598099"></rect></defs><use class="companyName shapeStroke-str" style="stroke-width:0;" xlink:href="#id-UPl23ini1676915598099"></use>
</svg>
</g><g opacity="1" transform="rotate(0 783.7107 756.6721)">
<svg width="396.6745" height="21.6" x="783.7107" y="756.6721" version="1.1" preserveAspectRatio="none" viewBox="2.56 -34.24 775.72 42.24">
  <g transform="matrix(1 0 0 1 0 0)" class="a6izo4zJpcolor"><path id="id-6izo4zJp30" d="M12.40-2.56L12.40-2.56Q14.12-2.56 15.34-3.14Q16.56-3.72 17.34-4.70Q18.12-5.68 18.50-6.94Q18.88-8.20 18.88-9.60L18.88-9.60L18.88-10.08L22.24-10.08L22.24-9.60Q22.24-7.48 21.60-5.62Q20.96-3.76 19.72-2.38Q18.48-1 16.64-0.22Q14.80 0.56 12.40 0.56L12.40 0.56Q7.76 0.56 5.16-2.36Q2.56-5.28 2.56-10.88L2.56-10.88L2.56-17.12Q2.56-22.56 5.16-25.56Q7.76-28.56 12.40-28.56L12.40-28.56Q14.80-28.56 16.64-27.78Q18.48-27 19.72-25.62Q20.96-24.24 21.60-22.38Q22.24-20.52 22.24-18.40L22.24-18.40L22.24-17.92L18.88-17.92L18.88-18.40Q18.84-19.76 18.46-21.04Q18.08-22.32 17.30-23.30Q16.52-24.28 15.32-24.86Q14.12-25.44 12.40-25.44L12.40-25.44Q9.16-25.44 7.54-23.08Q5.92-20.72 5.92-16.88L5.92-16.88L5.92-11.12Q5.92-7 7.54-4.78Q9.16-2.56 12.40-2.56Z M48.28-10.16L48.28-9.68Q48.28-7.20 47.46-5.30Q46.64-3.40 45.28-2.10Q43.92-0.80 42.10-0.12Q40.28 0.56 38.32 0.56L38.32 0.56Q36.32 0.56 34.52-0.12Q32.72-0.80 31.36-2.10Q30-3.40 29.18-5.30Q28.36-7.20 28.36-9.68L28.36-9.68L28.36-10.16Q28.36-12.60 29.18-14.50Q30-16.40 31.38-17.72Q32.76-19.04 34.56-19.72Q36.36-20.40 38.32-20.40L38.32-20.40Q40.28-20.40 42.08-19.72Q43.88-19.04 45.26-17.72Q46.64-16.40 47.46-14.50Q48.28-12.60 48.28-10.16L48.28-10.16ZM38.32-2.40L38.32-2.40Q39.76-2.40 40.98-2.90Q42.20-3.40 43.12-4.36Q44.04-5.32 44.56-6.66Q45.08-8 45.08-9.68L45.08-9.68L45.08-10.16Q45.08-11.76 44.56-13.10Q44.04-14.44 43.12-15.40Q42.20-16.36 40.96-16.90Q39.72-17.44 38.32-17.44L38.32-17.44Q36.92-17.44 35.68-16.90Q34.44-16.36 33.52-15.40Q32.60-14.44 32.08-13.10Q31.56-11.76 31.56-10.16L31.56-10.16L31.56-9.68Q31.56-8 32.08-6.66Q32.60-5.32 33.52-4.36Q34.44-3.40 35.66-2.90Q36.88-2.40 38.32-2.40Z M74.72-15.28L74.72 0L71.60 0L71.60-14.24Q71.60-15.64 70.96-16.54Q70.32-17.44 68.92-17.44L68.92-17.44Q67.60-17.44 66.78-16.46Q65.96-15.48 65.96-13.44L65.96-13.44L65.96 0L62.84 0L62.84-14.40Q62.84-15.72 62.12-16.58Q61.40-17.44 60.20-17.44L60.20-17.44Q58.76-17.44 57.98-16.40Q57.20-15.36 57.20-13.68L57.20-13.68L57.20 0L54.08 0L54.08-19.84L57.20-19.84L57.20-17.68L57.68-17.68Q58.20-19.08 59.20-19.74Q60.20-20.40 61.56-20.40L61.56-20.40Q63-20.40 63.94-19.64Q64.88-18.88 65.24-17.68L65.24-17.68L65.72-17.68Q67.08-20.40 70.04-20.40L70.04-20.40Q72.28-20.40 73.50-18.98Q74.72-17.56 74.72-15.28L74.72-15.28Z M100.80-15.28L100.80 0L97.68 0L97.68-14.24Q97.68-15.64 97.04-16.54Q96.40-17.44 95-17.44L95-17.44Q93.68-17.44 92.86-16.46Q92.04-15.48 92.04-13.44L92.04-13.44L92.04 0L88.92 0L88.92-14.40Q88.92-15.72 88.20-16.58Q87.48-17.44 86.28-17.44L86.28-17.44Q84.84-17.44 84.06-16.40Q83.28-15.36 83.28-13.68L83.28-13.68L83.28 0L80.16 0L80.16-19.84L83.28-19.84L83.28-17.68L83.76-17.68Q84.28-19.08 85.28-19.74Q86.28-20.40 87.64-20.40L87.64-20.40Q89.08-20.40 90.02-19.64Q90.96-18.88 91.32-17.68L91.32-17.68L91.80-17.68Q93.16-20.40 96.12-20.40L96.12-20.40Q98.36-20.40 99.58-18.98Q100.80-17.56 100.80-15.28L100.80-15.28Z M121.96-9.52L121.96-19.84L125.08-19.84L125.08 0L121.96 0L121.96-3.60L121.48-3.60Q120.52-1.68 118.96-0.56Q117.40 0.56 115 0.56L115 0.56Q113.36 0.56 111.98 0.02Q110.60-0.52 109.62-1.60Q108.64-2.68 108.10-4.28Q107.56-5.88 107.56-8L107.56-8L107.56-19.84L110.68-19.84L110.68-8.40Q110.68-5.28 111.96-3.84Q113.24-2.40 115.88-2.40L115.88-2.40Q118.72-2.40 120.34-4.34Q121.96-6.28 121.96-9.52L121.96-9.52Z M137.00-10.32L137.00 0L133.88 0L133.88-19.84L137.00-19.84L137.00-16.48L137.48-16.48Q139.32-20.40 143.88-20.40L143.88-20.40Q147.32-20.40 149.36-18.26Q151.40-16.12 151.40-11.84L151.40-11.84L151.40 0L148.28 0L148.28-11.20Q148.28-14.32 146.88-15.88Q145.48-17.44 143.08-17.44L143.08-17.44Q140.24-17.44 138.62-15.50Q137.00-13.56 137.00-10.32L137.00-10.32Z M166.12-25.76L166.12-25.76Q166.12-26.92 166.94-27.74Q167.76-28.56 168.92-28.56L168.92-28.56Q170.08-28.56 170.90-27.74Q171.72-26.92 171.72-25.76L171.72-25.76Q171.72-24.60 170.90-23.78Q170.08-22.96 168.92-22.96L168.92-22.96Q167.76-22.96 166.94-23.78Q166.12-24.60 166.12-25.76ZM160.44 0L160.44-2.88L167.40-2.88L167.40-16.96L161.16-16.96L161.16-19.84L170.52-19.84L170.52-2.88L177.00-2.88L177.00 0L160.44 0Z M185.36-16.96L185.36-19.84L191.60-19.84L191.60-28L194.72-28L194.72-19.84L202.40-19.84L202.40-16.96L194.72-16.96L194.72-4.08Q194.72-2.88 195.80-2.88L195.80-2.88L201.44-2.88L201.44 0L194.68 0Q193.32 0 192.46-0.88Q191.60-1.76 191.60-3.12L191.60-3.12L191.60-16.96L185.36-16.96Z M226.52 3.92L226.52-3.60L226.04-3.60Q225.08-1.68 223.52-0.56Q221.96 0.56 219.56 0.56L219.56 0.56Q217.92 0.56 216.54 0.02Q215.16-0.52 214.18-1.60Q213.20-2.68 212.66-4.28Q212.12-5.88 212.12-8L212.12-8L212.12-19.84L215.24-19.84L215.24-8.40Q215.24-5.28 216.52-3.84Q217.80-2.40 220.44-2.40L220.44-2.40Q223.28-2.40 224.90-4.34Q226.52-6.28 226.52-9.52L226.52-9.52L226.52-19.84L229.64-19.84L229.64 4.88Q229.64 6.24 228.78 7.12Q227.92 8 226.56 8L226.56 8L215.24 8L215.24 5.12L225.44 5.12Q226.52 5.12 226.52 3.92L226.52 3.92Z M274.48-34.24L274.48 6.24L271.60 6.24L271.60-34.24L274.48-34.24Z M296.44-10.32L296.44-13.44L308.92-13.44L308.92 0L305.80 0L305.80-3.36L305.32-3.36Q304.64-1.60 302.92-0.52Q301.20 0.56 298.92 0.56L298.92 0.56Q294.40 0.56 291.82-2.36Q289.24-5.28 289.24-10.88L289.24-10.88L289.24-17.12Q289.24-22.56 291.84-25.56Q294.44-28.56 299.08-28.56L299.08-28.56Q301.48-28.56 303.32-27.78Q305.16-27 306.40-25.62Q307.64-24.24 308.28-22.38Q308.92-20.52 308.92-18.40L308.92-18.40L308.92-17.92L305.56-17.92L305.56-18.40Q305.56-19.76 305.18-21.04Q304.80-22.32 304.02-23.30Q303.24-24.28 302.02-24.86Q300.80-25.44 299.08-25.44L299.08-25.44Q295.84-25.44 294.22-23.08Q292.60-20.72 292.60-16.88L292.60-16.88L292.60-11.12Q292.60-7 294.22-4.78Q295.84-2.56 299.16-2.56L299.16-2.56Q302.16-2.56 303.86-4.48Q305.56-6.40 305.56-9.84L305.56-9.84L305.56-10.32L296.44-10.32Z M330.84-3.12L330.84-3.36L330.36-3.36Q329.40-1.36 327.70-0.40Q326.00 0.56 324.12 0.56L324.12 0.56Q322.16 0.56 320.48-0.10Q318.80-0.76 317.54-2.06Q316.28-3.36 315.56-5.24Q314.84-7.12 314.84-9.60L314.84-9.60L314.84-10.24Q314.84-12.68 315.56-14.56Q316.28-16.44 317.54-17.74Q318.80-19.04 320.48-19.72Q322.16-20.40 324.04-20.40L324.04-20.40Q326.08-20.40 327.74-19.50Q329.40-18.60 330.36-16.72L330.36-16.72L330.84-16.72L330.84-19.84L333.96-19.84L333.96-4.08Q333.96-2.88 335.04-2.88L335.04-2.88L336.04-2.88L336.04 0L333.92 0Q332.56 0 331.70-0.88Q330.84-1.76 330.84-3.12L330.84-3.12ZM324.44-2.40L324.44-2.40Q325.84-2.40 327.02-2.92Q328.20-3.44 329.04-4.40Q329.88-5.36 330.36-6.70Q330.84-8.04 330.84-9.68L330.84-9.68L330.84-10.16Q330.84-11.76 330.36-13.10Q329.88-14.44 329.02-15.40Q328.16-16.36 326.98-16.90Q325.80-17.44 324.44-17.44L324.44-17.44Q323.04-17.44 321.88-16.92Q320.72-16.40 319.86-15.46Q319.00-14.52 318.52-13.18Q318.04-11.84 318.04-10.24L318.04-10.24L318.04-9.60Q318.04-6.20 319.82-4.30Q321.60-2.40 324.44-2.40Z M361.60-15.28L361.60 0L358.48 0L358.48-14.24Q358.48-15.64 357.84-16.54Q357.20-17.44 355.80-17.44L355.80-17.44Q354.48-17.44 353.66-16.46Q352.84-15.48 352.84-13.44L352.84-13.44L352.84 0L349.72 0L349.72-14.40Q349.72-15.72 349.00-16.58Q348.28-17.44 347.08-17.44L347.08-17.44Q345.64-17.44 344.86-16.40Q344.08-15.36 344.08-13.68L344.08-13.68L344.08 0L340.96 0L340.96-19.84L344.08-19.84L344.08-17.68L344.56-17.68Q345.08-19.08 346.08-19.74Q347.08-20.40 348.44-20.40L348.44-20.40Q349.88-20.40 350.82-19.64Q351.76-18.88 352.12-17.68L352.12-17.68L352.60-17.68Q353.96-20.40 356.92-20.40L356.92-20.40Q359.16-20.40 360.38-18.98Q361.60-17.56 361.60-15.28L361.60-15.28Z M374.76-25.76L374.76-25.76Q374.76-26.92 375.58-27.74Q376.40-28.56 377.56-28.56L377.56-28.56Q378.72-28.56 379.54-27.74Q380.36-26.92 380.36-25.76L380.36-25.76Q380.36-24.60 379.54-23.78Q378.72-22.96 377.56-22.96L377.56-22.96Q376.40-22.96 375.58-23.78Q374.76-24.60 374.76-25.76ZM369.08 0L369.08-2.88L376.04-2.88L376.04-16.96L369.80-16.96L369.80-19.84L379.16-19.84L379.16-2.88L385.64-2.88L385.64 0L369.08 0Z M397.80-10.32L397.80 0L394.68 0L394.68-19.84L397.80-19.84L397.80-16.48L398.28-16.48Q400.12-20.40 404.68-20.40L404.68-20.40Q408.12-20.40 410.16-18.26Q412.20-16.12 412.20-11.84L412.20-11.84L412.20 0L409.08 0L409.08-11.20Q409.08-14.32 407.68-15.88Q406.28-17.44 403.88-17.44L403.88-17.44Q401.04-17.44 399.42-15.50Q397.80-13.56 397.80-10.32L397.80-10.32Z M435.84 3.92L435.84-3.04L435.36-3.04Q434.40-1.24 432.74-0.34Q431.08 0.56 429.12 0.56L429.12 0.56Q427.12 0.56 425.36-0.12Q423.60-0.80 422.26-2.08Q420.92-3.36 420.14-5.26Q419.36-7.16 419.36-9.60L419.36-9.60L419.36-10.24Q419.36-12.64 420.16-14.54Q420.96-16.44 422.28-17.74Q423.60-19.04 425.36-19.72Q427.12-20.40 429.04-20.40L429.04-20.40Q431.20-20.40 432.82-19.46Q434.44-18.52 435.36-16.72L435.36-16.72L435.84-16.72L435.84-19.84L438.96-19.84L438.96 4.88Q438.96 6.24 438.10 7.12Q437.24 8 435.88 8L435.88 8L422.96 8L422.96 5.12L434.76 5.12Q435.84 5.12 435.84 3.92L435.84 3.92ZM429.20-2.40L429.20-2.40Q430.60-2.40 431.80-2.92Q433.00-3.44 433.90-4.40Q434.80-5.36 435.32-6.70Q435.84-8.04 435.84-9.68L435.84-9.68L435.84-10.16Q435.84-11.76 435.32-13.10Q434.80-14.44 433.90-15.40Q433.00-16.36 431.78-16.90Q430.56-17.44 429.20-17.44L429.20-17.44Q427.80-17.44 426.58-16.92Q425.36-16.40 424.46-15.44Q423.56-14.48 423.06-13.16Q422.56-11.84 422.56-10.24L422.56-10.24L422.56-9.60Q422.56-7.92 423.06-6.60Q423.56-5.28 424.46-4.34Q425.36-3.40 426.56-2.90Q427.76-2.40 429.20-2.40Z M487.32-3.12L487.32-3.36L486.84-3.36Q485.88-1.36 484.18-0.40Q482.48 0.56 480.60 0.56L480.60 0.56Q478.64 0.56 476.96-0.10Q475.28-0.76 474.02-2.06Q472.76-3.36 472.04-5.24Q471.32-7.12 471.32-9.60L471.32-9.60L471.32-10.24Q471.32-12.68 472.04-14.56Q472.76-16.44 474.02-17.74Q475.28-19.04 476.96-19.72Q478.64-20.40 480.52-20.40L480.52-20.40Q482.56-20.40 484.22-19.50Q485.88-18.60 486.84-16.72L486.84-16.72L487.32-16.72L487.32-19.84L490.44-19.84L490.44-4.08Q490.44-2.88 491.52-2.88L491.52-2.88L492.52-2.88L492.52 0L490.40 0Q489.04 0 488.18-0.88Q487.32-1.76 487.32-3.12L487.32-3.12ZM480.92-2.40L480.92-2.40Q482.32-2.40 483.50-2.92Q484.68-3.44 485.52-4.40Q486.36-5.36 486.84-6.70Q487.32-8.04 487.32-9.68L487.32-9.68L487.32-10.16Q487.32-11.76 486.84-13.10Q486.36-14.44 485.50-15.40Q484.64-16.36 483.46-16.90Q482.28-17.44 480.92-17.44L480.92-17.44Q479.52-17.44 478.36-16.92Q477.20-16.40 476.34-15.46Q475.48-14.52 475.00-13.18Q474.52-11.84 474.52-10.24L474.52-10.24L474.52-9.60Q474.52-6.20 476.30-4.30Q478.08-2.40 480.92-2.40Z M502.12-10.32L502.12 0L499.00 0L499.00-19.84L502.12-19.84L502.12-16.48L502.60-16.48Q504.44-20.40 509.00-20.40L509.00-20.40Q512.44-20.40 514.48-18.26Q516.52-16.12 516.52-11.84L516.52-11.84L516.52 0L513.40 0L513.40-11.20Q513.40-14.32 512.00-15.88Q510.60-17.44 508.20-17.44L508.20-17.44Q505.36-17.44 503.74-15.50Q502.12-13.56 502.12-10.32L502.12-10.32Z M540.44 0L540.44-3.04L539.96-3.04Q539.48-2.12 538.74-1.44Q538.00-0.76 537.14-0.32Q536.28 0.12 535.32 0.34Q534.36 0.56 533.48 0.56L533.48 0.56Q531.48 0.56 529.76-0.12Q528.04-0.80 526.74-2.08Q525.44-3.36 524.70-5.26Q523.96-7.16 523.96-9.60L523.96-9.60L523.96-10.24Q523.96-12.64 524.72-14.54Q525.48-16.44 526.76-17.74Q528.04-19.04 529.76-19.72Q531.48-20.40 533.40-20.40L533.40-20.40Q535.44-20.40 537.22-19.50Q539.00-18.60 539.96-16.72L539.96-16.72L540.44-16.72L540.44-28L543.56-28L543.56 0L540.44 0ZM533.80-2.40L533.80-2.40Q535.20-2.40 536.40-2.92Q537.60-3.44 538.50-4.40Q539.40-5.36 539.92-6.70Q540.44-8.04 540.44-9.68L540.44-9.68L540.44-10.16Q540.44-11.76 539.92-13.10Q539.40-14.44 538.50-15.40Q537.60-16.36 536.38-16.90Q535.16-17.44 533.80-17.44L533.80-17.44Q532.40-17.44 531.18-16.92Q529.96-16.40 529.06-15.44Q528.16-14.48 527.66-13.16Q527.16-11.84 527.16-10.24L527.16-10.24L527.16-9.60Q527.16-7.92 527.66-6.60Q528.16-5.28 529.06-4.34Q529.96-3.40 531.16-2.90Q532.36-2.40 533.80-2.40Z M592.68-7.76L595.80-7.04Q595.48-5.40 594.70-4Q593.92-2.60 592.72-1.58Q591.52-0.56 589.92 0Q588.32 0.56 586.36 0.56L586.36 0.56Q584.28 0.56 582.42-0.12Q580.56-0.80 579.16-2.10Q577.76-3.40 576.94-5.28Q576.12-7.16 576.12-9.60L576.12-9.60L576.12-10.08Q576.12-12.48 576.94-14.40Q577.76-16.32 579.16-17.64Q580.56-18.96 582.42-19.68Q584.28-20.40 586.36-20.40L586.36-20.40Q588.24-20.40 589.84-19.84Q591.44-19.28 592.66-18.26Q593.88-17.24 594.66-15.84Q595.44-14.44 595.72-12.80L595.72-12.80L592.60-12.08Q592.48-13.12 592.02-14.10Q591.56-15.08 590.78-15.82Q590.00-16.56 588.88-17Q587.76-17.44 586.28-17.44L586.28-17.44Q584.84-17.44 583.58-16.90Q582.32-16.36 581.36-15.38Q580.40-14.40 579.86-13.04Q579.32-11.68 579.32-10.08L579.32-10.08L579.32-9.60Q579.32-7.92 579.86-6.58Q580.40-5.24 581.36-4.32Q582.32-3.40 583.60-2.90Q584.88-2.40 586.36-2.40L586.36-2.40Q587.84-2.40 588.94-2.86Q590.04-3.32 590.82-4.06Q591.60-4.80 592.06-5.76Q592.52-6.72 592.68-7.76L592.68-7.76Z M622.04-10.16L622.04-9.68Q622.04-7.20 621.22-5.30Q620.40-3.40 619.04-2.10Q617.68-0.80 615.86-0.12Q614.04 0.56 612.08 0.56L612.08 0.56Q610.08 0.56 608.28-0.12Q606.48-0.80 605.12-2.10Q603.76-3.40 602.94-5.30Q602.12-7.20 602.12-9.68L602.12-9.68L602.12-10.16Q602.12-12.60 602.94-14.50Q603.76-16.40 605.14-17.72Q606.52-19.04 608.32-19.72Q610.12-20.40 612.08-20.40L612.08-20.40Q614.04-20.40 615.84-19.72Q617.64-19.04 619.02-17.72Q620.40-16.40 621.22-14.50Q622.04-12.60 622.04-10.16L622.04-10.16ZM612.08-2.40L612.08-2.40Q613.52-2.40 614.74-2.90Q615.96-3.40 616.88-4.36Q617.80-5.32 618.32-6.66Q618.84-8 618.84-9.68L618.84-9.68L618.84-10.16Q618.84-11.76 618.32-13.10Q617.80-14.44 616.88-15.40Q615.96-16.36 614.72-16.90Q613.48-17.44 612.08-17.44L612.08-17.44Q610.68-17.44 609.44-16.90Q608.20-16.36 607.28-15.40Q606.36-14.44 605.84-13.10Q605.32-11.76 605.32-10.16L605.32-10.16L605.32-9.68Q605.32-8 605.84-6.66Q606.36-5.32 607.28-4.36Q608.20-3.40 609.42-2.90Q610.64-2.40 612.08-2.40Z M644.76 0L644.76-3.04L644.28-3.04Q643.80-2.12 643.06-1.44Q642.32-0.76 641.46-0.32Q640.60 0.12 639.64 0.34Q638.68 0.56 637.80 0.56L637.80 0.56Q635.80 0.56 634.08-0.12Q632.36-0.80 631.06-2.08Q629.76-3.36 629.02-5.26Q628.28-7.16 628.28-9.60L628.28-9.60L628.28-10.24Q628.28-12.64 629.04-14.54Q629.80-16.44 631.08-17.74Q632.36-19.04 634.08-19.72Q635.80-20.40 637.72-20.40L637.72-20.40Q639.76-20.40 641.54-19.50Q643.32-18.60 644.28-16.72L644.28-16.72L644.76-16.72L644.76-28L647.88-28L647.88 0L644.76 0ZM638.12-2.40L638.12-2.40Q639.52-2.40 640.72-2.92Q641.92-3.44 642.82-4.40Q643.72-5.36 644.24-6.70Q644.76-8.04 644.76-9.68L644.76-9.68L644.76-10.16Q644.76-11.76 644.24-13.10Q643.72-14.44 642.82-15.40Q641.92-16.36 640.70-16.90Q639.48-17.44 638.12-17.44L638.12-17.44Q636.72-17.44 635.50-16.92Q634.28-16.40 633.38-15.44Q632.48-14.48 631.98-13.16Q631.48-11.84 631.48-10.24L631.48-10.24L631.48-9.60Q631.48-7.92 631.98-6.60Q632.48-5.28 633.38-4.34Q634.28-3.40 635.48-2.90Q636.68-2.40 638.12-2.40Z M673.76-8.96L657.76-8.96Q657.88-6 659.60-4.20Q661.32-2.40 664.40-2.40L664.40-2.40Q665.80-2.40 666.84-2.72Q667.88-3.04 668.62-3.60Q669.36-4.16 669.82-4.90Q670.28-5.64 670.56-6.48L670.56-6.48L673.52-5.68Q672.68-2.92 670.42-1.18Q668.16 0.56 664.32 0.56L664.32 0.56Q662.20 0.56 660.42-0.18Q658.64-0.92 657.36-2.28Q656.08-3.64 655.36-5.52Q654.64-7.40 654.64-9.68L654.64-9.68L654.64-10.64Q654.64-12.72 655.38-14.52Q656.12-16.32 657.44-17.62Q658.76-18.92 660.54-19.66Q662.32-20.40 664.40-20.40L664.40-20.40Q666.84-20.40 668.62-19.50Q670.40-18.60 671.54-17.28Q672.68-15.96 673.22-14.40Q673.76-12.84 673.76-11.52L673.76-11.52L673.76-8.96ZM664.40-17.44L664.40-17.44Q663.08-17.44 661.94-17.02Q660.80-16.60 659.94-15.84Q659.08-15.08 658.54-14.06Q658.00-13.04 657.84-11.84L657.84-11.84L670.64-11.84Q670.56-13.12 670.02-14.16Q669.48-15.20 668.62-15.92Q667.76-16.64 666.66-17.04Q665.56-17.44 664.40-17.44Z M691.76-34.24L691.76 6.24L688.88 6.24L688.88-34.24L691.76-34.24Z M734.04 0L734.04-28L751.24-28L751.24-24.88L737.40-24.88L737.40-15.60L751.00-15.60L751.00-12.48L737.40-12.48L737.40 0L734.04 0Z M777.32-10.08L777.32 0L773.96 0L773.96-9.36Q773.96-10.40 773.48-10.96Q773.00-11.52 771.80-11.52L771.80-11.52L763.08-11.52L763.08 0L759.72 0L759.72-28L769.72-28Q771.88-28 773.48-27.38Q775.08-26.76 776.14-25.72Q777.20-24.68 777.74-23.30Q778.28-21.92 778.28-20.40L778.28-20.40L778.28-19.20Q778.28-17.64 777.42-16.08Q776.56-14.52 774.76-13.68L774.76-13.68L774.76-13.20Q775.96-13 776.64-12.24Q777.32-11.48 777.32-10.08L777.32-10.08ZM763.08-24.88L763.08-14.64L769.32-14.64Q772.16-14.64 773.54-15.86Q774.92-17.08 774.92-19.44L774.92-19.44L774.92-20.16Q774.92-22.28 773.54-23.58Q772.16-24.88 769.32-24.88L769.32-24.88L763.08-24.88Z"/></g>
</svg>
</g><g opacity="1" transform="rotate(0 783.7107 668.6721)">
<svg width="398.097" height="60" x="783.7107" y="668.6721" version="1.1" preserveAspectRatio="none" viewBox="2.8 -28.6 189.76 28.6">
  <g transform="matrix(1 0 0 1 0 0)" class="companyName"><path id="id-D6z1nYkh7" d="M9.20 0L2.80 0L2.80-28.60L26.76-28.60Q31.20-28.60 33.66-26.36Q36.12-24.12 36.12-19.56L36.12-19.56Q36.12-15 33.66-12.76Q31.20-10.52 26.76-10.52L26.76-10.52L9.20-10.52L9.20 0ZM26-23.40L26-23.40L9.20-23.40L9.20-15.76L26-15.72Q27.76-15.72 28.70-16.60Q29.64-17.48 29.64-19.56L29.64-19.56Q29.64-21.68 28.70-22.54Q27.76-23.40 26-23.40Z M45.32 0L39.52 0L39.52-20.60L45.32-20.60L45.32 0ZM45.36-24L39.48-24L39.48-28.52L45.36-28.52L45.36-24Z M55.52 0L49.72 0L49.72-28.60L55.52-28.60L55.52-20.60L69.36-20.60Q72.88-20.60 74.74-18.94Q76.60-17.28 76.60-14.20L76.60-14.20Q76.60-9.16 71.80-8.20L71.80-8.20L76.68 0L70.16 0L65.44-7.96L55.52-7.96L55.52 0ZM69.08-16.04L69.08-16.04L55.52-16.04L55.52-12.52L69.08-12.52Q69.88-12.52 70.34-13Q70.80-13.48 70.80-14.32L70.80-14.32Q70.80-16.04 69.08-16.04Z M106.92 0L85.76 0Q82.52 0 80.80-1.64Q79.08-3.28 79.08-6.32L79.08-6.32Q79.08-9.32 80.80-10.96Q82.52-12.60 85.76-12.60L85.76-12.60L101.12-12.60L101.12-13.56Q101.12-16 98.72-16L98.72-16L81.76-16L81.76-20.60L100.24-20.60Q103.88-20.60 105.40-18.94Q106.92-17.28 106.92-14.28L106.92-14.28L106.92 0ZM86.80-4.60L86.80-4.60L101.12-4.60L101.12-8L86.80-8Q86.04-8 85.62-7.54Q85.20-7.08 85.20-6.32L85.20-6.32Q85.20-5.56 85.62-5.08Q86.04-4.60 86.80-4.60Z M130.72 0L124.28 0L124.28-10.20L109.12-28.60L117.04-28.60L127.48-15.64L137.88-28.60L145.80-28.60L130.72-10.24L130.72 0Z M162.16 0L150.96 0Q147.44 0 145.82-1.76Q144.20-3.52 144.20-6.32L144.20-6.32L144.20-20.60L150.00-20.60L150.00-7Q150.00-4.60 152.40-4.60L152.40-4.60L160.72-4.60Q163.12-4.60 163.12-7L163.12-7L163.12-20.60L168.92-20.60L168.92-6.32Q168.92-3.52 167.30-1.76Q165.68 0 162.16 0L162.16 0Z M192.56 0L183.84 0Q180.36 0 178.72-1.74Q177.08-3.48 177.08-6.32L177.08-6.32L177.08-16L171.12-16L171.12-20.60L177.08-20.60L177.08-26.92L182.88-26.92L182.88-20.60L191.44-20.60L191.44-16L182.88-16L182.88-7.04Q182.88-4.60 185.28-4.60L185.28-4.60L192.56-4.60L192.56 0Z"/></g>
</svg>
</g><g opacity="1" transform="rotate(0 783.7107 738.6721)">
<svg width="87.5814" height="6" x="783.7107" y="738.6721" version="1.1" preserveAspectRatio="none" viewBox="0 0 87.5814 6">
  <defs><rect x="0" y="0" width="87.5814" height="6" rx="0px" ry="0px" id="id-o0jQam8yd1676915598099"></rect></defs><use class="icon3 shapeStroke-str" style="stroke-width:0;" xlink:href="#id-o0jQam8yd1676915598099"></use>
</svg>
</g></svg></svg>