<svg version="1.1" preserveAspectRatio="none" xmlns="http://www.w3.org/2000/svg" width="500" height="500" viewBox="0 0 500 500"><rect width="100%" height="100%" fill="#1A244D" fill-opacity="1"/><svg viewBox="1538.3736 1273.0904 593.89 188" width="333" height="105.41346040512553" x="83.5px" y="197.2933px" xmlns="http://www.w3.org/2000/svg" xmlns:xlink="http://www.w3.org/1999/xlink" preserveAspectRatio="none"><defs></defs><style>.background {fill:#1A244D;fill-opacity:1;}.icon1 {fill:#FFCC57;fill-opacity:1;}.icon1-str {stroke:#FFCC57;stroke-opacity:1;}.icon2 {fill:#3EA0C0;fill-opacity:1;}.icon3 {fill:#0AF9FF;fill-opacity:0.95;}.icon3-str {stroke:#0AF9FF;stroke-opacity:0.95;}</style><g opacity="1" transform="rotate(0 1674.3734 1273.0904)">
<svg width="457.8902" height="140" x="1674.3734" y="1273.0904" version="1.1" preserveAspectRatio="none" viewBox="0 0 457.8902 140">
  <defs><rect x="0" y="0" width="457.8902" height="140" rx="0px" ry="0px" id="id-B7crM0kCi1676915485203"></rect></defs><use class="icon1 icon3-str" style="stroke-width:0;" xlink:href="#id-B7crM0kCi1676915485203"></use>
</svg>
</g><g opacity="1" transform="rotate(0 1597.3396 1437.0904)">
<svg width="475.9579" height="24" x="1597.3396" y="1437.0904" version="1.1" preserveAspectRatio="none" viewBox="1.92 -30.28 759.1600000000001 38.28">
  <g transform="matrix(1 0 0 1 0 0)" class="icon1"><path id="id-6izo4zJp30" d="M16.72 0.32Q12.52 0.32 9.14-1.54Q5.76-3.40 3.84-6.66Q1.92-9.92 1.92-14L1.92-14Q1.92-18.08 3.84-21.34Q5.76-24.60 9.16-26.46Q12.56-28.32 16.76-28.32L16.76-28.32Q20.04-28.32 22.76-27.22Q25.48-26.12 27.40-23.96L27.40-23.96L24.80-21.44Q21.64-24.76 16.92-24.76L16.92-24.76Q13.80-24.76 11.28-23.36Q8.76-21.96 7.34-19.50Q5.92-17.04 5.92-14L5.92-14Q5.92-10.96 7.34-8.50Q8.76-6.04 11.28-4.64Q13.80-3.24 16.92-3.24L16.92-3.24Q21.60-3.24 24.80-6.60L24.80-6.60L27.40-4.08Q25.48-1.92 22.74-0.80Q20 0.32 16.72 0.32L16.72 0.32Z M42.76 0.24Q39.60 0.24 37.08-1.16Q34.56-2.56 33.14-5.02Q31.72-7.48 31.72-10.60L31.72-10.60Q31.72-13.72 33.14-16.18Q34.56-18.64 37.08-20.02Q39.60-21.40 42.76-21.40L42.76-21.40Q45.92-21.40 48.42-20.02Q50.92-18.64 52.34-16.18Q53.76-13.72 53.76-10.60L53.76-10.60Q53.76-7.48 52.34-5.02Q50.92-2.56 48.42-1.16Q45.92 0.24 42.76 0.24L42.76 0.24ZM42.76-3.12Q44.80-3.12 46.42-4.06Q48.04-5 48.96-6.70Q49.88-8.40 49.88-10.60L49.88-10.60Q49.88-12.80 48.96-14.50Q48.04-16.20 46.42-17.12Q44.80-18.04 42.76-18.04L42.76-18.04Q40.72-18.04 39.10-17.12Q37.48-16.20 36.54-14.50Q35.60-12.80 35.60-10.60L35.60-10.60Q35.60-8.40 36.54-6.70Q37.48-5 39.10-4.06Q40.72-3.12 42.76-3.12L42.76-3.12Z M87.60-21.40Q91.60-21.40 93.94-19.08Q96.28-16.76 96.28-12.20L96.28-12.20L96.28 0L92.44 0L92.44-11.76Q92.44-14.84 91.02-16.40Q89.60-17.96 86.96-17.96L86.96-17.96Q84.04-17.96 82.32-16.14Q80.60-14.32 80.60-10.92L80.60-10.92L80.60 0L76.76 0L76.76-11.76Q76.76-14.84 75.34-16.40Q73.92-17.96 71.28-17.96L71.28-17.96Q68.36-17.96 66.64-16.14Q64.92-14.32 64.92-10.92L64.92-10.92L64.92 0L61.08 0L61.08-21.20L64.76-21.20L64.76-18.04Q65.92-19.68 67.80-20.54Q69.68-21.40 72.08-21.40L72.08-21.40Q74.56-21.40 76.48-20.40Q78.40-19.40 79.44-17.48L79.44-17.48Q80.64-19.32 82.78-20.36Q84.92-21.40 87.60-21.40L87.60-21.40Z M131.88-21.40Q135.88-21.40 138.22-19.08Q140.56-16.76 140.56-12.20L140.56-12.20L140.56 0L136.72 0L136.72-11.76Q136.72-14.84 135.30-16.40Q133.88-17.96 131.24-17.96L131.24-17.96Q128.32-17.96 126.60-16.14Q124.88-14.32 124.88-10.92L124.88-10.92L124.88 0L121.04 0L121.04-11.76Q121.04-14.84 119.62-16.40Q118.20-17.96 115.56-17.96L115.56-17.96Q112.64-17.96 110.92-16.14Q109.20-14.32 109.20-10.92L109.20-10.92L109.20 0L105.36 0L105.36-21.20L109.04-21.20L109.04-18.04Q110.20-19.68 112.08-20.54Q113.96-21.40 116.36-21.40L116.36-21.40Q118.84-21.40 120.76-20.40Q122.68-19.40 123.72-17.48L123.72-17.48Q124.92-19.32 127.06-20.36Q129.20-21.40 131.88-21.40L131.88-21.40Z M165.56-21.20L169.40-21.20L169.40 0L165.76 0L165.76-3.20Q164.60-1.56 162.70-0.66Q160.80 0.24 158.56 0.24L158.56 0.24Q154.32 0.24 151.88-2.10Q149.44-4.44 149.44-9L149.44-9L149.44-21.20L153.28-21.20L153.28-9.44Q153.28-6.36 154.76-4.78Q156.24-3.20 159-3.20L159-3.20Q162.04-3.20 163.80-5.04Q165.56-6.88 165.56-10.24L165.56-10.24L165.56-21.20Z M190.04-21.40Q194.08-21.40 196.46-19.06Q198.84-16.72 198.84-12.20L198.84-12.20L198.84 0L195 0L195-11.76Q195-14.84 193.52-16.40Q192.04-17.96 189.28-17.96L189.28-17.96Q186.16-17.96 184.36-16.14Q182.56-14.32 182.56-10.92L182.56-10.92L182.56 0L178.72 0L178.72-21.20L182.40-21.20L182.40-18Q183.56-19.64 185.54-20.52Q187.52-21.40 190.04-21.40L190.04-21.40Z M207.96 0L207.96-21.20L211.80-21.20L211.80 0L207.96 0ZM209.88-25.28Q208.76-25.28 208.02-26Q207.28-26.72 207.28-27.76L207.28-27.76Q207.28-28.80 208.02-29.54Q208.76-30.28 209.88-30.28L209.88-30.28Q211.00-30.28 211.74-29.58Q212.48-28.88 212.48-27.84L212.48-27.84Q212.48-26.76 211.74-26.02Q211.00-25.28 209.88-25.28L209.88-25.28Z M231.84-4L233.04-1.24Q232.20-0.52 230.96-0.14Q229.72 0.24 228.40 0.24L228.40 0.24Q225.20 0.24 223.44-1.48Q221.68-3.20 221.68-6.40L221.68-6.40L221.68-18.04L218.08-18.04L218.08-21.20L221.68-21.20L221.68-25.84L225.52-25.84L225.52-21.20L231.60-21.20L231.60-18.04L225.52-18.04L225.52-6.56Q225.52-4.84 226.38-3.92Q227.24-3 228.84-3L228.84-3Q230.60-3 231.84-4L231.84-4Z M254.28-21.20L258.04-21.20L247.76 2.12Q246.40 5.36 244.58 6.68Q242.76 8 240.20 8L240.20 8Q238.64 8 237.18 7.50Q235.72 7 234.76 6.04L234.76 6.04L236.40 3.16Q238.04 4.72 240.20 4.72L240.20 4.72Q241.60 4.72 242.54 3.98Q243.48 3.24 244.24 1.44L244.24 1.44L244.92-0.04L235.56-21.20L239.56-21.20L246.96-4.24L254.28-21.20Z M276.96 7.76L276.96-29.68L280.52-29.68L280.52 7.76L276.96 7.76Z M310.32-5.04L310.32-14.16L314.16-14.16L314.16-3.24Q312.08-1.52 309.32-0.60Q306.56 0.32 303.56 0.32L303.56 0.32Q299.32 0.32 295.92-1.54Q292.52-3.40 290.58-6.66Q288.64-9.92 288.64-14L288.64-14Q288.64-18.08 290.58-21.36Q292.52-24.64 295.94-26.48Q299.36-28.32 303.64-28.32L303.64-28.32Q307-28.32 309.74-27.22Q312.48-26.12 314.40-24L314.40-24L311.92-21.52Q308.56-24.76 303.80-24.76L303.80-24.76Q300.60-24.76 298.06-23.38Q295.52-22 294.08-19.54Q292.64-17.08 292.64-14L292.64-14Q292.64-10.96 294.08-8.50Q295.52-6.04 298.06-4.64Q300.60-3.24 303.76-3.24L303.76-3.24Q307.52-3.24 310.32-5.04L310.32-5.04Z M330.96-21.40Q335.36-21.40 337.70-19.24Q340.04-17.08 340.04-12.80L340.04-12.80L340.04 0L336.40 0L336.40-2.80Q335.44-1.32 333.66-0.54Q331.88 0.24 329.44 0.24L329.44 0.24Q325.88 0.24 323.74-1.48Q321.60-3.20 321.60-6L321.60-6Q321.60-8.80 323.64-10.50Q325.68-12.20 330.12-12.20L330.12-12.20L336.20-12.20L336.20-12.96Q336.20-15.44 334.76-16.76Q333.32-18.08 330.52-18.08L330.52-18.08Q328.64-18.08 326.84-17.46Q325.04-16.84 323.80-15.80L323.80-15.80L322.20-18.68Q323.84-20 326.12-20.70Q328.40-21.40 330.96-21.40L330.96-21.40ZM330.08-2.72Q332.28-2.72 333.88-3.70Q335.48-4.68 336.20-6.48L336.20-6.48L336.20-9.44L330.28-9.44Q325.40-9.44 325.40-6.16L325.40-6.16Q325.40-4.56 326.64-3.64Q327.88-2.72 330.08-2.72L330.08-2.72Z M375.68-21.40Q379.68-21.40 382.02-19.08Q384.36-16.76 384.36-12.20L384.36-12.20L384.36 0L380.52 0L380.52-11.76Q380.52-14.84 379.10-16.40Q377.68-17.96 375.04-17.96L375.04-17.96Q372.12-17.96 370.40-16.14Q368.68-14.32 368.68-10.92L368.68-10.92L368.68 0L364.84 0L364.84-11.76Q364.84-14.84 363.42-16.40Q362-17.96 359.36-17.96L359.36-17.96Q356.44-17.96 354.72-16.14Q353-14.32 353-10.92L353-10.92L353 0L349.16 0L349.16-21.20L352.84-21.20L352.84-18.04Q354-19.68 355.88-20.54Q357.76-21.40 360.16-21.40L360.16-21.40Q362.64-21.40 364.56-20.40Q366.48-19.40 367.52-17.48L367.52-17.48Q368.72-19.32 370.86-20.36Q373-21.40 375.68-21.40L375.68-21.40Z M393.44 0L393.44-21.20L397.28-21.20L397.28 0L393.44 0ZM395.36-25.28Q394.24-25.28 393.50-26Q392.76-26.72 392.76-27.76L392.76-27.76Q392.76-28.80 393.50-29.54Q394.24-30.28 395.36-30.28L395.36-30.28Q396.48-30.28 397.22-29.58Q397.96-28.88 397.96-27.84L397.96-27.84Q397.96-26.76 397.22-26.02Q396.48-25.28 395.36-25.28L395.36-25.28Z M417.92-21.40Q421.96-21.40 424.34-19.06Q426.72-16.72 426.72-12.20L426.72-12.20L426.72 0L422.88 0L422.88-11.76Q422.88-14.84 421.40-16.40Q419.92-17.96 417.16-17.96L417.16-17.96Q414.04-17.96 412.24-16.14Q410.44-14.32 410.44-10.92L410.44-10.92L410.44 0L406.60 0L406.60-21.20L410.28-21.20L410.28-18Q411.44-19.64 413.42-20.52Q415.40-21.40 417.92-21.40L417.92-21.40Z M452.60-21.20L456.24-21.20L456.24-2.88Q456.24 2.68 453.48 5.34Q450.72 8 445.24 8L445.24 8Q442.24 8 439.52 7.18Q436.80 6.36 435.12 4.84L435.12 4.84L436.96 1.88Q438.44 3.16 440.62 3.90Q442.80 4.64 445.12 4.64L445.12 4.64Q448.84 4.64 450.62 2.88Q452.40 1.12 452.40-2.48L452.40-2.48L452.40-4.16Q451.04-2.52 449.06-1.70Q447.08-0.88 444.76-0.88L444.76-0.88Q441.72-0.88 439.26-2.18Q436.80-3.48 435.40-5.82Q434-8.16 434-11.16L434-11.16Q434-14.16 435.40-16.50Q436.80-18.84 439.26-20.12Q441.72-21.40 444.76-21.40L444.76-21.40Q447.16-21.40 449.22-20.52Q451.28-19.64 452.60-17.92L452.60-17.92L452.60-21.20ZM445.20-4.24Q447.28-4.24 448.94-5.12Q450.60-6 451.54-7.58Q452.48-9.16 452.48-11.16L452.48-11.16Q452.48-14.24 450.44-16.14Q448.40-18.04 445.20-18.04L445.20-18.04Q441.96-18.04 439.92-16.14Q437.88-14.24 437.88-11.16L437.88-11.16Q437.88-9.16 438.82-7.58Q439.76-6 441.42-5.12Q443.08-4.24 445.20-4.24L445.20-4.24Z M486.04-21.40Q490.44-21.40 492.78-19.24Q495.12-17.08 495.12-12.80L495.12-12.80L495.12 0L491.48 0L491.48-2.80Q490.52-1.32 488.74-0.54Q486.96 0.24 484.52 0.24L484.52 0.24Q480.96 0.24 478.82-1.48Q476.68-3.20 476.68-6L476.68-6Q476.68-8.80 478.72-10.50Q480.76-12.20 485.20-12.20L485.20-12.20L491.28-12.20L491.28-12.96Q491.28-15.44 489.84-16.76Q488.40-18.08 485.60-18.08L485.60-18.08Q483.72-18.08 481.92-17.46Q480.12-16.84 478.88-15.80L478.88-15.80L477.28-18.68Q478.92-20 481.20-20.70Q483.48-21.40 486.04-21.40L486.04-21.40ZM485.16-2.72Q487.36-2.72 488.96-3.70Q490.56-4.68 491.28-6.48L491.28-6.48L491.28-9.44L485.36-9.44Q480.48-9.44 480.48-6.16L480.48-6.16Q480.48-4.56 481.72-3.64Q482.96-2.72 485.16-2.72L485.16-2.72Z M515.56-21.40Q519.60-21.40 521.98-19.06Q524.36-16.72 524.36-12.20L524.36-12.20L524.36 0L520.52 0L520.52-11.76Q520.52-14.84 519.04-16.40Q517.56-17.96 514.80-17.96L514.80-17.96Q511.68-17.96 509.88-16.14Q508.08-14.32 508.08-10.92L508.08-10.92L508.08 0L504.24 0L504.24-21.20L507.92-21.20L507.92-18Q509.08-19.64 511.06-20.52Q513.04-21.40 515.56-21.40L515.56-21.40Z M549.76-29.68L553.60-29.68L553.60 0L549.92 0L549.92-3.36Q548.64-1.60 546.68-0.68Q544.72 0.24 542.36 0.24L542.36 0.24Q539.28 0.24 536.84-1.12Q534.40-2.48 533.02-4.94Q531.64-7.40 531.64-10.60L531.64-10.60Q531.64-13.80 533.02-16.24Q534.40-18.68 536.84-20.04Q539.28-21.40 542.36-21.40L542.36-21.40Q544.64-21.40 546.56-20.54Q548.48-19.68 549.76-18L549.76-18L549.76-29.68ZM542.68-3.12Q544.68-3.12 546.32-4.06Q547.96-5 548.88-6.70Q549.80-8.40 549.80-10.60L549.80-10.60Q549.80-12.80 548.88-14.50Q547.96-16.20 546.32-17.12Q544.68-18.04 542.68-18.04L542.68-18.04Q540.64-18.04 539.02-17.12Q537.40-16.20 536.46-14.50Q535.52-12.80 535.52-10.60L535.52-10.60Q535.52-8.40 536.46-6.70Q537.40-5 539.02-4.06Q540.64-3.12 542.68-3.12L542.68-3.12Z M584.88 0.24Q581.64 0.24 579.10-1.16Q576.56-2.56 575.12-5.02Q573.68-7.48 573.68-10.60L573.68-10.60Q573.68-13.72 575.12-16.18Q576.56-18.64 579.10-20.02Q581.64-21.40 584.88-21.40L584.88-21.40Q587.76-21.40 590.02-20.24Q592.28-19.08 593.52-16.88L593.52-16.88L590.60-15Q589.60-16.52 588.12-17.28Q586.64-18.04 584.84-18.04L584.84-18.04Q582.76-18.04 581.10-17.12Q579.44-16.20 578.50-14.50Q577.56-12.80 577.56-10.60L577.56-10.60Q577.56-8.36 578.50-6.66Q579.44-4.96 581.10-4.04Q582.76-3.12 584.84-3.12L584.84-3.12Q586.64-3.12 588.12-3.88Q589.60-4.64 590.60-6.16L590.60-6.16L593.52-4.32Q592.28-2.12 590.02-0.94Q587.76 0.24 584.88 0.24L584.88 0.24Z M609.24 0.24Q606.08 0.24 603.56-1.16Q601.04-2.56 599.62-5.02Q598.20-7.48 598.20-10.60L598.20-10.60Q598.20-13.72 599.62-16.18Q601.04-18.64 603.56-20.02Q606.08-21.40 609.24-21.40L609.24-21.40Q612.40-21.40 614.90-20.02Q617.40-18.64 618.82-16.18Q620.24-13.72 620.24-10.60L620.24-10.60Q620.24-7.48 618.82-5.02Q617.40-2.56 614.90-1.16Q612.40 0.24 609.24 0.24L609.24 0.24ZM609.24-3.12Q611.28-3.12 612.90-4.06Q614.52-5 615.44-6.70Q616.36-8.40 616.36-10.60L616.36-10.60Q616.36-12.80 615.44-14.50Q614.52-16.20 612.90-17.12Q611.28-18.04 609.24-18.04L609.24-18.04Q607.20-18.04 605.58-17.12Q603.96-16.20 603.02-14.50Q602.08-12.80 602.08-10.60L602.08-10.60Q602.08-8.40 603.02-6.70Q603.96-5 605.58-4.06Q607.20-3.12 609.24-3.12L609.24-3.12Z M643.72-29.68L647.56-29.68L647.56 0L643.88 0L643.88-3.36Q642.60-1.60 640.64-0.68Q638.68 0.24 636.32 0.24L636.32 0.24Q633.24 0.24 630.80-1.12Q628.36-2.48 626.98-4.94Q625.60-7.40 625.60-10.60L625.60-10.60Q625.60-13.80 626.98-16.24Q628.36-18.68 630.80-20.04Q633.24-21.40 636.32-21.40L636.32-21.40Q638.60-21.40 640.52-20.54Q642.44-19.68 643.72-18L643.72-18L643.72-29.68ZM636.64-3.12Q638.64-3.12 640.28-4.06Q641.92-5 642.84-6.70Q643.76-8.40 643.76-10.60L643.76-10.60Q643.76-12.80 642.84-14.50Q641.92-16.20 640.28-17.12Q638.64-18.04 636.64-18.04L636.64-18.04Q634.60-18.04 632.98-17.12Q631.36-16.20 630.42-14.50Q629.48-12.80 629.48-10.60L629.48-10.60Q629.48-8.40 630.42-6.70Q631.36-5 632.98-4.06Q634.60-3.12 636.64-3.12L636.64-3.12Z M676.00-10.48Q676.00-10.04 675.92-9.32L675.92-9.32L658.72-9.32Q659.08-6.52 661.18-4.82Q663.28-3.12 666.40-3.12L666.40-3.12Q670.20-3.12 672.52-5.68L672.52-5.68L674.64-3.20Q673.20-1.52 671.06-0.64Q668.92 0.24 666.28 0.24L666.28 0.24Q662.92 0.24 660.32-1.14Q657.72-2.52 656.30-5Q654.88-7.48 654.88-10.60L654.88-10.60Q654.88-13.68 656.26-16.16Q657.64-18.64 660.06-20.02Q662.48-21.40 665.52-21.40L665.52-21.40Q668.56-21.40 670.94-20.02Q673.32-18.64 674.66-16.16Q676.00-13.68 676.00-10.48L676.00-10.48ZM665.52-18.16Q662.76-18.16 660.90-16.48Q659.04-14.80 658.72-12.08L658.72-12.08L672.32-12.08Q672.00-14.76 670.14-16.46Q668.28-18.16 665.52-18.16L665.52-18.16Z M683.88 7.76L683.88-29.68L687.44-29.68L687.44 7.76L683.88 7.76Z M730.36-24.52L714.60-24.52L714.60-14.76L728.64-14.76L728.64-11.32L714.60-11.32L714.60 0L710.60 0L710.60-28L730.36-28L730.36-24.52Z M761.08 0L756.72 0L750.68-8.60Q749.56-8.52 748.92-8.52L748.92-8.52L742-8.52L742 0L738 0L738-28L748.92-28Q754.36-28 757.48-25.40Q760.60-22.80 760.60-18.24L760.60-18.24Q760.60-15 759-12.72Q757.40-10.44 754.44-9.40L754.44-9.40L761.08 0ZM748.80-11.92Q752.60-11.92 754.60-13.56Q756.60-15.20 756.60-18.24L756.60-18.24Q756.60-21.28 754.60-22.90Q752.60-24.52 748.80-24.52L748.80-24.52L742-24.52L742-11.92L748.80-11.92Z"/></g>
</svg>
</g><g opacity="1" transform="rotate(0 1704.3734 1303.0904)">
<svg width="397.8902" height="80" x="1704.3734" y="1303.0904" version="1.1" preserveAspectRatio="none" viewBox="3.32 -31.48 158.16 31.8">
  <g transform="matrix(1 0 0 1 0 0)" class="background"><path id="id-D6z1nYkh7" d="M15.44-28Q19.16-28 21.90-26.76Q24.64-25.52 26.12-23.24Q27.60-20.96 27.60-17.84L27.60-17.84Q27.60-14.76 26.12-12.46Q24.64-10.16 21.90-8.94Q19.16-7.72 15.44-7.72L15.44-7.72L9.80-7.72L9.80 0L3.32 0L3.32-28L15.44-28ZM15.08-13Q18-13 19.52-14.26Q21.04-15.52 21.04-17.84L21.04-17.84Q21.04-20.20 19.52-21.46Q18-22.72 15.08-22.72L15.08-22.72L9.80-22.72L9.80-13L15.08-13Z M31.76 0L31.76-21.52L38-21.52L38 0L31.76 0ZM34.88-24.52Q33.16-24.52 32.08-25.52Q31.00-26.52 31.00-28L31.00-28Q31.00-29.48 32.08-30.48Q33.16-31.48 34.88-31.48L34.88-31.48Q36.60-31.48 37.68-30.52Q38.76-29.56 38.76-28.12L38.76-28.12Q38.76-26.56 37.68-25.54Q36.60-24.52 34.88-24.52L34.88-24.52Z M59.84 0L53.04-8.44L50.04-5.48L50.04 0L43.80 0L43.80-29.68L50.04-29.68L50.04-12.88L59.16-21.52L66.60-21.52L57.64-12.40L67.40 0L59.84 0Z M78.48-21.84Q83.48-21.84 86.16-19.46Q88.84-17.08 88.84-12.28L88.84-12.28L88.84 0L83 0L83-2.68Q81.24 0.32 76.44 0.32L76.44 0.32Q73.96 0.32 72.14-0.52Q70.32-1.36 69.36-2.84Q68.40-4.32 68.40-6.20L68.40-6.20Q68.40-9.20 70.66-10.92Q72.92-12.64 77.64-12.64L77.64-12.64L82.60-12.64Q82.60-14.68 81.36-15.78Q80.12-16.88 77.64-16.88L77.64-16.88Q75.92-16.88 74.26-16.34Q72.60-15.80 71.44-14.88L71.44-14.88L69.20-19.24Q70.96-20.48 73.42-21.16Q75.88-21.84 78.48-21.84L78.48-21.84ZM78-3.88Q79.60-3.88 80.84-4.62Q82.08-5.36 82.60-6.80L82.60-6.80L82.60-9L78.32-9Q74.48-9 74.48-6.48L74.48-6.48Q74.48-5.28 75.42-4.58Q76.36-3.88 78-3.88L78-3.88Z M119.24-28L108.36-9.92L108.36 0L101.88 0L101.88-10L91.04-28L97.92-28L105.40-15.56L112.88-28L119.24-28Z M135.56-21.52L141.80-21.52L141.80 0L135.88 0L135.88-2.56Q134.64-1.16 132.92-0.42Q131.20 0.32 129.20 0.32L129.20 0.32Q124.96 0.32 122.48-2.12Q120.00-4.56 120.00-9.36L120.00-9.36L120.00-21.52L126.24-21.52L126.24-10.28Q126.24-5.08 130.60-5.08L130.60-5.08Q132.84-5.08 134.20-6.54Q135.56-8 135.56-10.88L135.56-10.88L135.56-21.52Z M159.80-5.44L161.48-1.04Q160.56-0.36 159.22-0.02Q157.88 0.32 156.40 0.32L156.40 0.32Q152.56 0.32 150.46-1.64Q148.36-3.60 148.36-7.40L148.36-7.40L148.36-16.24L145.04-16.24L145.04-21.04L148.36-21.04L148.36-26.28L154.60-26.28L154.60-21.04L159.96-21.04L159.96-16.24L154.60-16.24L154.60-7.48Q154.60-6.12 155.30-5.38Q156.00-4.64 157.28-4.64L157.28-4.64Q158.76-4.64 159.80-5.44L159.80-5.44Z"/></g>
</svg>
</g><g opacity="1" transform="rotate(0 1538.3736 1273.0904)">
<svg width="139.9998" height="140" x="1538.3736" y="1273.0904" version="1.1" preserveAspectRatio="none" viewBox="0 0 139.9998 140">
  <defs><rect x="2.7999959999999997" y="2.7999959999999997" width="134.399808" height="134.400008" rx="0px" ry="0px" id="id-tBXipXk0b1676915485204"></rect></defs><use class="background icon1-str" style="stroke-width:5.599991999999999;" xlink:href="#id-tBXipXk0b1676915485204"></use>
</svg>
</g><g opacity="1" transform="rotate(0 1558.3736 1293.0902)">
<svg width="99.9998" height="100.0004" x="1558.3736" y="1293.0902" version="1.1" preserveAspectRatio="none" viewBox="20 19.999515533447266 159.9993896484375 160.00048828125">
  <g transform="matrix(1 0 0 1 0 0)" ><g><path d="M97.648 102.445l64.498 43.182C147.743 167.089 123.516 180 97.648 180 55.052 180 20 144.991 20 102.446a77.496 77.496 0 0 1 13.443-43.615l64.205 43.614z" data-color="1" class="icon1"></path><path d="M99.17 103.358l34.399 23.03A41.46 41.46 0 0 1 99.17 144.72c-22.718 0-41.413-18.672-41.413-41.362a41.33 41.33 0 0 1 7.169-23.261c.001-.001 34.244 23.261 34.244 23.261z" data-color="2" class="icon2"></path><path d="M67.246 73.958c13.335-18.469 39.015-23.163 58.036-10.327s24.242 38.384 12.062 57.633l29.329 19.793c24.025-35.513 14.676-83.753-20.88-107.748S61.939 18.652 37.917 54.165l29.329 19.793z" data-color="3" class="icon3"></path></g></g>
</svg>
</g></svg></svg>