<svg version="1.1" preserveAspectRatio="none" xmlns="http://www.w3.org/2000/svg" width="500" height="500" viewBox="0 0 500 500"><rect width="100%" height="100%" fill="#FFFFFF" fill-opacity="1"/><svg viewBox="149.8726 290.8322 457.6595 183.5999" width="333" height="133.5900744986174" x="83.5px" y="183.205px" xmlns="http://www.w3.org/2000/svg" xmlns:xlink="http://www.w3.org/1999/xlink" preserveAspectRatio="none"><defs></defs><style>.companyName {fill:#282828;fill-opacity:1;}.icon2 {fill:#E56642;fill-opacity:1;}.icon3 {fill:#FD8D6E;fill-opacity:1;}.icon3-str {stroke:#FD8D6E;stroke-opacity:1;}.shapeStroke-str {stroke:#282828;stroke-opacity:1;}.text {fill:#282828;fill-opacity:1;}</style><g opacity="1" transform="rotate(0 149.8726 452.8321)">
<svg width="457.6595" height="21.6" x="149.8726" y="452.8321" version="1.1" preserveAspectRatio="none" viewBox="1.76 -30.88 824.64 38.92">
  <g transform="matrix(1 0 0 1 0 0)" class="text"><path id="id-6izo4zJp30" d="M16.72 0.40Q12.48 0.40 9.06-1.46Q5.64-3.32 3.70-6.60Q1.76-9.88 1.76-14L1.76-14Q1.76-18.12 3.72-21.40Q5.68-24.68 9.10-26.54Q12.52-28.40 16.76-28.40L16.76-28.40Q20.20-28.40 23.04-27.20Q25.88-26 27.84-23.72L27.84-23.72L24.48-20.56Q21.44-23.84 17-23.84L17-23.84Q14.12-23.84 11.84-22.58Q9.56-21.32 8.28-19.08Q7-16.84 7-14L7-14Q7-11.16 8.28-8.92Q9.56-6.68 11.84-5.42Q14.12-4.16 17-4.16L17-4.16Q21.44-4.16 24.48-7.48L24.48-7.48L27.84-4.28Q25.88-2 23.02-0.80Q20.16 0.40 16.72 0.40L16.72 0.40Z M45.16 0.28Q41.92 0.28 39.32-1.12Q36.72-2.52 35.26-5.02Q33.80-7.52 33.80-10.68L33.80-10.68Q33.80-13.84 35.26-16.32Q36.72-18.80 39.32-20.20Q41.92-21.60 45.16-21.60L45.16-21.60Q48.44-21.60 51.04-20.20Q53.64-18.80 55.10-16.32Q56.56-13.84 56.56-10.68L56.56-10.68Q56.56-7.52 55.10-5.02Q53.64-2.52 51.04-1.12Q48.44 0.28 45.16 0.28L45.16 0.28ZM45.16-4Q47.92-4 49.72-5.84Q51.52-7.68 51.52-10.68L51.52-10.68Q51.52-13.68 49.72-15.52Q47.92-17.36 45.16-17.36L45.16-17.36Q42.40-17.36 40.62-15.52Q38.84-13.68 38.84-10.68L38.84-10.68Q38.84-7.68 40.62-5.84Q42.40-4 45.16-4L45.16-4Z M92.32-21.60Q96.36-21.60 98.72-19.26Q101.08-16.92 101.08-12.24L101.08-12.24L101.08 0L96.08 0L96.08-11.60Q96.08-14.40 94.84-15.82Q93.60-17.24 91.28-17.24L91.28-17.24Q88.76-17.24 87.24-15.58Q85.72-13.92 85.72-10.84L85.72-10.84L85.72 0L80.72 0L80.72-11.60Q80.72-14.40 79.48-15.82Q78.24-17.24 75.92-17.24L75.92-17.24Q73.36-17.24 71.86-15.60Q70.36-13.96 70.36-10.84L70.36-10.84L70.36 0L65.36 0L65.36-21.36L70.12-21.36L70.12-18.64Q71.32-20.08 73.12-20.84Q74.92-21.60 77.12-21.60L77.12-21.60Q79.52-21.60 81.38-20.70Q83.24-19.80 84.32-18.04L84.32-18.04Q85.64-19.72 87.72-20.66Q89.80-21.60 92.32-21.60L92.32-21.60Z M138.44-21.60Q142.48-21.60 144.84-19.26Q147.20-16.92 147.20-12.24L147.20-12.24L147.20 0L142.20 0L142.20-11.60Q142.20-14.40 140.96-15.82Q139.72-17.24 137.40-17.24L137.40-17.24Q134.88-17.24 133.36-15.58Q131.84-13.92 131.84-10.84L131.84-10.84L131.84 0L126.84 0L126.84-11.60Q126.84-14.40 125.60-15.82Q124.36-17.24 122.04-17.24L122.04-17.24Q119.48-17.24 117.98-15.60Q116.48-13.96 116.48-10.84L116.48-10.84L116.48 0L111.48 0L111.48-21.36L116.24-21.36L116.24-18.64Q117.44-20.08 119.24-20.84Q121.04-21.60 123.24-21.60L123.24-21.60Q125.64-21.60 127.50-20.70Q129.36-19.80 130.44-18.04L130.44-18.04Q131.76-19.72 133.84-20.66Q135.92-21.60 138.44-21.60L138.44-21.60Z M173.28-21.36L178.28-21.36L178.28 0L173.52 0L173.52-2.72Q172.32-1.28 170.52-0.50Q168.72 0.28 166.64 0.28L166.64 0.28Q162.36 0.28 159.90-2.10Q157.44-4.48 157.44-9.16L157.44-9.16L157.44-21.36L162.44-21.36L162.44-9.84Q162.44-6.96 163.74-5.54Q165.04-4.12 167.44-4.12L167.44-4.12Q170.12-4.12 171.70-5.78Q173.28-7.44 173.28-10.56L173.28-10.56L173.28-21.36Z M200.96-21.60Q205-21.60 207.44-19.24Q209.88-16.88 209.88-12.24L209.88-12.24L209.88 0L204.88 0L204.88-11.60Q204.88-14.40 203.56-15.82Q202.24-17.24 199.80-17.24L199.80-17.24Q197.04-17.24 195.44-15.58Q193.84-13.92 193.84-10.80L193.84-10.80L193.84 0L188.84 0L188.84-21.36L193.60-21.36L193.60-18.60Q194.84-20.08 196.72-20.84Q198.60-21.60 200.96-21.60L200.96-21.60Z M220.24 0L220.24-21.36L225.24-21.36L225.24 0L220.24 0ZM222.76-24.88Q221.40-24.88 220.48-25.74Q219.56-26.60 219.56-27.88L219.56-27.88Q219.56-29.16 220.48-30.02Q221.40-30.88 222.76-30.88L222.76-30.88Q224.12-30.88 225.04-30.06Q225.96-29.24 225.96-28L225.96-28Q225.96-26.68 225.06-25.78Q224.16-24.88 222.76-24.88L222.76-24.88Z M247.24-4.72L248.64-1.16Q247.76-0.44 246.50-0.08Q245.24 0.28 243.84 0.28L243.84 0.28Q240.32 0.28 238.40-1.56Q236.48-3.40 236.48-6.92L236.48-6.92L236.48-17.20L232.96-17.20L232.96-21.20L236.48-21.20L236.48-26.08L241.48-26.08L241.48-21.20L247.20-21.20L247.20-17.20L241.48-17.20L241.48-7.04Q241.48-5.48 242.24-4.66Q243-3.84 244.44-3.84L244.44-3.84Q246.12-3.84 247.24-4.72L247.24-4.72Z M271.56-21.36L276.36-21.36L266.36 1.72Q264.96 5.20 262.96 6.62Q260.96 8.04 258.12 8.04L258.12 8.04Q256.52 8.04 254.96 7.52Q253.40 7 252.40 6.08L252.40 6.08L254.40 2.40Q255.12 3.08 256.10 3.48Q257.08 3.88 258.08 3.88L258.08 3.88Q259.40 3.88 260.26 3.20Q261.12 2.52 261.84 0.92L261.84 0.92L262.20 0.08L252.88-21.36L258.08-21.36L264.80-5.56L271.56-21.36Z M299 7.76L299-29.68L303.60-29.68L303.60 7.76L299 7.76Z M334.24-5.60L334.24-14.32L339.16-14.32L339.16-3.16Q337-1.44 334.12-0.52Q331.24 0.40 328.20 0.40L328.20 0.40Q323.92 0.40 320.48-1.46Q317.04-3.32 315.08-6.60Q313.12-9.88 313.12-14L313.12-14Q313.12-18.12 315.08-21.40Q317.04-24.68 320.50-26.54Q323.96-28.40 328.28-28.40L328.28-28.40Q331.80-28.40 334.68-27.24Q337.56-26.08 339.52-23.84L339.52-23.84L336.24-20.64Q333.04-23.84 328.52-23.84L328.52-23.84Q325.56-23.84 323.26-22.60Q320.96-21.36 319.66-19.12Q318.36-16.88 318.36-14L318.36-14Q318.36-11.20 319.66-8.96Q320.96-6.72 323.26-5.44Q325.56-4.16 328.48-4.16L328.48-4.16Q331.76-4.16 334.24-5.60L334.24-5.60Z M357.68-21.60Q362.40-21.60 364.90-19.34Q367.40-17.08 367.40-12.52L367.40-12.52L367.40 0L362.68 0L362.68-2.60Q361.76-1.20 360.06-0.46Q358.36 0.28 355.96 0.28L355.96 0.28Q353.56 0.28 351.76-0.54Q349.96-1.36 348.98-2.82Q348-4.28 348-6.12L348-6.12Q348-9 350.14-10.74Q352.28-12.48 356.88-12.48L356.88-12.48L362.40-12.48L362.40-12.80Q362.40-15.04 361.06-16.24Q359.72-17.44 357.08-17.44L357.08-17.44Q355.28-17.44 353.54-16.88Q351.80-16.32 350.60-15.32L350.60-15.32L348.64-18.96Q350.32-20.24 352.68-20.92Q355.04-21.60 357.68-21.60L357.68-21.60ZM357-3.36Q358.88-3.36 360.34-4.22Q361.80-5.08 362.40-6.68L362.40-6.68L362.40-9.16L357.24-9.16Q352.92-9.16 352.92-6.32L352.92-6.32Q352.92-4.96 354-4.16Q355.08-3.36 357-3.36L357-3.36Z M404.76-21.60Q408.80-21.60 411.16-19.26Q413.52-16.92 413.52-12.24L413.52-12.24L413.52 0L408.52 0L408.52-11.60Q408.52-14.40 407.28-15.82Q406.04-17.24 403.72-17.24L403.72-17.24Q401.20-17.24 399.68-15.58Q398.16-13.92 398.16-10.84L398.16-10.84L398.16 0L393.16 0L393.16-11.60Q393.16-14.40 391.92-15.82Q390.68-17.24 388.36-17.24L388.36-17.24Q385.80-17.24 384.30-15.60Q382.80-13.96 382.80-10.84L382.80-10.84L382.80 0L377.80 0L377.80-21.36L382.56-21.36L382.56-18.64Q383.76-20.08 385.56-20.84Q387.36-21.60 389.56-21.60L389.56-21.60Q391.96-21.60 393.82-20.70Q395.68-19.80 396.76-18.04L396.76-18.04Q398.08-19.72 400.16-20.66Q402.24-21.60 404.76-21.60L404.76-21.60Z M423.92 0L423.92-21.36L428.92-21.36L428.92 0L423.92 0ZM426.44-24.88Q425.08-24.88 424.16-25.74Q423.24-26.60 423.24-27.88L423.24-27.88Q423.24-29.16 424.16-30.02Q425.08-30.88 426.44-30.88L426.44-30.88Q427.80-30.88 428.72-30.06Q429.64-29.24 429.64-28L429.64-28Q429.64-26.68 428.74-25.78Q427.84-24.88 426.44-24.88L426.44-24.88Z M451.60-21.60Q455.64-21.60 458.08-19.24Q460.52-16.88 460.52-12.24L460.52-12.24L460.52 0L455.52 0L455.52-11.60Q455.52-14.40 454.20-15.82Q452.88-17.24 450.44-17.24L450.44-17.24Q447.68-17.24 446.08-15.58Q444.48-13.92 444.48-10.80L444.48-10.80L444.48 0L439.48 0L439.48-21.36L444.24-21.36L444.24-18.60Q445.48-20.08 447.36-20.84Q449.24-21.60 451.60-21.60L451.60-21.60Z M487.52-21.36L492.28-21.36L492.28-3.24Q492.28 8.04 480.76 8.04L480.76 8.04Q477.68 8.04 474.92 7.26Q472.16 6.48 470.36 5L470.36 5L472.60 1.24Q474.00 2.40 476.14 3.10Q478.28 3.80 480.48 3.80L480.48 3.80Q484.00 3.80 485.64 2.20Q487.28 0.60 487.28-2.68L487.28-2.68L487.28-3.80Q486.00-2.40 484.16-1.68Q482.32-0.96 480.12-0.96L480.12-0.96Q477.08-0.96 474.62-2.26Q472.16-3.56 470.74-5.92Q469.32-8.28 469.32-11.32L469.32-11.32Q469.32-14.36 470.74-16.70Q472.16-19.04 474.62-20.32Q477.08-21.60 480.12-21.60L480.12-21.60Q482.44-21.60 484.34-20.84Q486.24-20.08 487.52-18.52L487.52-18.52L487.52-21.36ZM480.88-5.20Q483.72-5.20 485.54-6.90Q487.36-8.60 487.36-11.32L487.36-11.32Q487.36-14 485.54-15.68Q483.72-17.36 480.88-17.36L480.88-17.36Q478.00-17.36 476.18-15.68Q474.36-14 474.36-11.32L474.36-11.32Q474.36-8.60 476.18-6.90Q478.00-5.20 480.88-5.20L480.88-5.20Z M526.04-21.60Q530.76-21.60 533.26-19.34Q535.76-17.08 535.76-12.52L535.76-12.52L535.76 0L531.04 0L531.04-2.60Q530.12-1.20 528.42-0.46Q526.72 0.28 524.32 0.28L524.32 0.28Q521.92 0.28 520.12-0.54Q518.32-1.36 517.34-2.82Q516.36-4.28 516.36-6.12L516.36-6.12Q516.36-9 518.50-10.74Q520.64-12.48 525.24-12.48L525.24-12.48L530.76-12.48L530.76-12.80Q530.76-15.04 529.42-16.24Q528.08-17.44 525.44-17.44L525.44-17.44Q523.64-17.44 521.90-16.88Q520.16-16.32 518.96-15.32L518.96-15.32L517.00-18.96Q518.68-20.24 521.04-20.92Q523.40-21.60 526.04-21.60L526.04-21.60ZM525.36-3.36Q527.24-3.36 528.70-4.22Q530.16-5.08 530.76-6.68L530.76-6.68L530.76-9.16L525.60-9.16Q521.28-9.16 521.28-6.32L521.28-6.32Q521.28-4.96 522.36-4.16Q523.44-3.36 525.36-3.36L525.36-3.36Z M558.28-21.60Q562.32-21.60 564.76-19.24Q567.20-16.88 567.20-12.24L567.20-12.24L567.20 0L562.20 0L562.20-11.60Q562.20-14.40 560.88-15.82Q559.56-17.24 557.12-17.24L557.12-17.24Q554.36-17.24 552.76-15.58Q551.16-13.92 551.16-10.80L551.16-10.80L551.16 0L546.16 0L546.16-21.36L550.92-21.36L550.92-18.60Q552.16-20.08 554.04-20.84Q555.92-21.60 558.28-21.60L558.28-21.60Z M593.68-29.68L598.68-29.68L598.68 0L593.88 0L593.88-2.76Q592.64-1.24 590.82-0.48Q589.00 0.28 586.80 0.28L586.80 0.28Q583.72 0.28 581.26-1.08Q578.80-2.44 577.40-4.94Q576.00-7.44 576.00-10.68L576.00-10.68Q576.00-13.92 577.40-16.40Q578.80-18.88 581.26-20.24Q583.72-21.60 586.80-21.60L586.80-21.60Q588.92-21.60 590.68-20.88Q592.44-20.16 593.68-18.72L593.68-18.72L593.68-29.68ZM587.40-4Q589.20-4 590.64-4.82Q592.08-5.64 592.92-7.16Q593.76-8.68 593.76-10.68L593.76-10.68Q593.76-12.68 592.92-14.20Q592.08-15.72 590.64-16.54Q589.20-17.36 587.40-17.36L587.40-17.36Q585.60-17.36 584.16-16.54Q582.72-15.72 581.88-14.20Q581.04-12.68 581.04-10.68L581.04-10.68Q581.04-8.68 581.88-7.16Q582.72-5.64 584.16-4.82Q585.60-4 587.40-4L587.40-4Z M634.08 0.28Q630.76 0.28 628.12-1.12Q625.48-2.52 624.00-5.02Q622.52-7.52 622.52-10.68L622.52-10.68Q622.52-13.84 624.00-16.32Q625.48-18.80 628.10-20.20Q630.72-21.60 634.08-21.60L634.08-21.60Q637.24-21.60 639.62-20.32Q642.00-19.04 643.20-16.64L643.20-16.64L639.36-14.40Q638.44-15.88 637.06-16.62Q635.68-17.36 634.04-17.36L634.04-17.36Q631.24-17.36 629.40-15.54Q627.56-13.72 627.56-10.68L627.56-10.68Q627.56-7.64 629.38-5.82Q631.20-4 634.04-4L634.04-4Q635.68-4 637.06-4.74Q638.44-5.48 639.36-6.96L639.36-6.96L643.20-4.72Q641.96-2.32 639.58-1.02Q637.20 0.28 634.08 0.28L634.08 0.28Z M660.80 0.28Q657.56 0.28 654.96-1.12Q652.36-2.52 650.90-5.02Q649.44-7.52 649.44-10.68L649.44-10.68Q649.44-13.84 650.90-16.32Q652.36-18.80 654.96-20.20Q657.56-21.60 660.80-21.60L660.80-21.60Q664.08-21.60 666.68-20.20Q669.28-18.80 670.74-16.32Q672.20-13.84 672.20-10.68L672.20-10.68Q672.20-7.52 670.74-5.02Q669.28-2.52 666.68-1.12Q664.08 0.28 660.80 0.28L660.80 0.28ZM660.80-4Q663.56-4 665.36-5.84Q667.16-7.68 667.16-10.68L667.16-10.68Q667.16-13.68 665.36-15.52Q663.56-17.36 660.80-17.36L660.80-17.36Q658.04-17.36 656.26-15.52Q654.48-13.68 654.48-10.68L654.48-10.68Q654.48-7.68 656.26-5.84Q658.04-4 660.80-4L660.80-4Z M696.92-29.68L701.92-29.68L701.92 0L697.12 0L697.12-2.76Q695.88-1.24 694.06-0.48Q692.24 0.28 690.04 0.28L690.04 0.28Q686.96 0.28 684.50-1.08Q682.04-2.44 680.64-4.94Q679.24-7.44 679.24-10.68L679.24-10.68Q679.24-13.92 680.64-16.40Q682.04-18.88 684.50-20.24Q686.96-21.60 690.04-21.60L690.04-21.60Q692.16-21.60 693.92-20.88Q695.68-20.16 696.92-18.72L696.92-18.72L696.92-29.68ZM690.64-4Q692.44-4 693.88-4.82Q695.32-5.64 696.16-7.16Q697.00-8.68 697.00-10.68L697.00-10.68Q697.00-12.68 696.16-14.20Q695.32-15.72 693.88-16.54Q692.44-17.36 690.64-17.36L690.64-17.36Q688.84-17.36 687.40-16.54Q685.96-15.72 685.12-14.20Q684.28-12.68 684.28-10.68L684.28-10.68Q684.28-8.68 685.12-7.16Q685.96-5.64 687.40-4.82Q688.84-4 690.64-4L690.64-4Z M732.56-10.56Q732.56-10.04 732.48-9.08L732.48-9.08L715.72-9.08Q716.16-6.72 718.02-5.34Q719.88-3.96 722.64-3.96L722.64-3.96Q726.16-3.96 728.44-6.28L728.44-6.28L731.12-3.20Q729.68-1.48 727.48-0.60Q725.28 0.28 722.52 0.28L722.52 0.28Q719.00 0.28 716.32-1.12Q713.64-2.52 712.18-5.02Q710.72-7.52 710.72-10.68L710.72-10.68Q710.72-13.80 712.14-16.30Q713.56-18.80 716.08-20.20Q718.60-21.60 721.76-21.60L721.76-21.60Q724.88-21.60 727.34-20.22Q729.80-18.84 731.18-16.34Q732.56-13.84 732.56-10.56L732.56-10.56ZM721.76-17.60Q719.36-17.60 717.70-16.18Q716.04-14.76 715.68-12.40L715.68-12.40L727.80-12.40Q727.48-14.72 725.84-16.16Q724.20-17.60 721.76-17.60L721.76-17.60Z M741.84 7.76L741.84-29.68L746.44-29.68L746.44 7.76L741.84 7.76Z M793.44-23.64L778.20-23.64L778.20-15.12L791.72-15.12L791.72-10.72L778.20-10.72L778.20 0L773.00 0L773.00-28L793.44-28L793.44-23.64Z M826.40 0L820.80 0L815.08-8.20Q814.72-8.16 814.00-8.16L814.00-8.16L807.68-8.16L807.68 0L802.48 0L802.48-28L814.00-28Q817.64-28 820.34-26.80Q823.04-25.60 824.48-23.36Q825.92-21.12 825.92-18.04L825.92-18.04Q825.92-14.88 824.38-12.60Q822.84-10.32 819.96-9.20L819.96-9.20L826.40 0ZM820.68-18.04Q820.68-20.72 818.92-22.16Q817.16-23.60 813.76-23.60L813.76-23.60L807.68-23.60L807.68-12.44L813.76-12.44Q817.16-12.44 818.92-13.90Q820.68-15.36 820.68-18.04L820.68-18.04Z"/></g>
</svg>
</g><g opacity="1" transform="rotate(0 363.7024 290.8322)">
<svg width="30" height="29.9999" x="363.7024" y="290.8322" version="1.1" preserveAspectRatio="none" viewBox="20 20 807 807">
  <g transform="matrix(1 0 0 1 0 0)" class="icon3"><defs></defs><g><polygon class="fil0" points="423,304 707,20 827,140 543,423 827,707 707,827 423,543 140,827 20,707 304,423 20,140 140,20 "></polygon></g></g>
</svg>
</g><g opacity="1" transform="rotate(0 182.4512 302.8322)">
<svg width="171.2512" height="6" x="182.4512" y="302.8322" version="1.1" preserveAspectRatio="none" viewBox="0 0 171.2512 6">
  <defs><rect x="0" y="0" width="171.2512" height="6" rx="0px" ry="0px" id="id-sr1BtIxl1676915520305"></rect></defs><use class="icon3 shapeStroke-str" style="stroke-width:0;" xlink:href="#id-sr1BtIxl1676915520305"></use>
</svg>
</g><g opacity="1" transform="rotate(0 403.7024 302.8322)">
<svg width="171.2512" height="6" x="403.7024" y="302.8322" version="1.1" preserveAspectRatio="none" viewBox="0 0 171.2512 6">
  <defs><rect x="0" y="0" width="171.2512" height="6" rx="0px" ry="0px" id="id-R9TavoXY1676915520305"></rect></defs><use class="icon3 shapeStroke-str" style="stroke-width:0;" xlink:href="#id-R9TavoXY1676915520305"></use>
</svg>
</g><g opacity="1" transform="rotate(0 182.4512 340.8321)">
<svg width="392.5023" height="90" x="182.4512" y="340.8321" version="1.1" preserveAspectRatio="none" viewBox="2.12 -28.04 123.71999999999998 28.36">
  <g transform="matrix(1 0 0 1 0 0)" class="companyName"><path id="id-D6z1nYkh7" d="M10.12-28.04Q12.24-28.04 13.86-27Q15.48-25.96 16.38-24.08Q17.28-22.20 17.28-19.80L17.28-19.80Q17.28-16.20 15.38-14Q13.48-11.80 10.36-11.80L10.36-11.80L6.96-11.80Q6.76-11.80 6.76-11.60L6.76-11.60L6.76-0.48Q6.76-0.28 6.62-0.14Q6.48 0 6.28 0L6.28 0L2.60 0Q2.40 0 2.26-0.14Q2.12-0.28 2.12-0.48L2.12-0.48L2.12-27.56Q2.12-27.76 2.26-27.90Q2.40-28.04 2.60-28.04L2.60-28.04L10.12-28.04ZM9.36-15.44Q10.84-15.44 11.74-16.58Q12.64-17.72 12.64-19.68L12.64-19.68Q12.64-21.68 11.74-22.86Q10.84-24.04 9.36-24.04L9.36-24.04L6.96-24.04Q6.76-24.04 6.76-23.84L6.76-23.84L6.76-15.64Q6.76-15.44 6.96-15.44L6.96-15.44L9.36-15.44Z M22.12 0Q21.92 0 21.78-0.14Q21.64-0.28 21.64-0.48L21.64-0.48L21.64-27.52Q21.64-27.72 21.78-27.86Q21.92-28 22.12-28L22.12-28L25.80-28Q26-28 26.14-27.86Q26.28-27.72 26.28-27.52L26.28-27.52L26.28-0.48Q26.28-0.28 26.14-0.14Q26 0 25.80 0L25.80 0L22.12 0Z M32.28 0Q32.08 0 31.94-0.14Q31.80-0.28 31.80-0.48L31.80-0.48L31.80-27.52Q31.80-27.72 31.94-27.86Q32.08-28 32.28-28L32.28-28L35.96-28Q36.16-28 36.30-27.86Q36.44-27.72 36.44-27.52L36.44-27.52L36.44-16.48Q36.44-16.32 36.52-16.30Q36.60-16.28 36.68-16.40L36.68-16.40L42.68-27.64Q42.88-28 43.28-28L43.28-28L47.24-28Q47.52-28 47.60-27.84Q47.68-27.68 47.56-27.44L47.56-27.44L41.56-16.20Q41.52-16.04 41.52-15.96L41.52-15.96L48-0.56Q48.04-0.48 48.04-0.32L48.04-0.32Q48.04 0 47.64 0L47.64 0L43.68 0Q43.24 0 43.12-0.36L43.12-0.36L38.40-11.92Q38.36-12.04 38.28-12.02Q38.20-12 38.12-11.92L38.12-11.92L36.52-9.24Q36.44-9.08 36.44-9L36.44-9L36.44-0.48Q36.44-0.28 36.30-0.14Q36.16 0 35.96 0L35.96 0L32.28 0Z M64.52 0Q64.04 0 64-0.44L64-0.44L63.24-4.64Q63.24-4.84 63.00-4.84L63.00-4.84L57.20-4.84Q56.96-4.84 56.96-4.68L56.96-4.68L56.16-0.44Q56.12 0 55.64 0L55.64 0L51.96 0Q51.44 0 51.56-0.52L51.56-0.52L57.44-27.56Q57.52-28 57.96-28L57.96-28L62.24-28Q62.68-28 62.76-27.56L62.76-27.56L68.68-0.52L68.68-0.36Q68.68 0 68.24 0L68.24 0L64.52 0ZM57.76-8.68Q57.72-8.48 57.96-8.48L57.96-8.48L62.32-8.48Q62.56-8.48 62.52-8.68L62.52-8.68L60.32-20.76Q60.28-20.88 60.20-20.88Q60.12-20.88 60.08-20.76L60.08-20.76L57.76-8.68Z M76.36-0.04Q76.16-0.04 76.02-0.18Q75.88-0.32 75.88-0.52L75.88-0.52L75.88-11.44L75.84-11.68L70.28-27.44Q70.24-27.52 70.24-27.64L70.24-27.64Q70.24-28 70.68-28L70.68-28L74.52-28Q74.96-28 75.08-27.60L75.08-27.60L78.08-17.32Q78.12-17.20 78.20-17.20Q78.28-17.20 78.32-17.32L78.32-17.32L81.32-27.60Q81.44-28 81.88-28L81.88-28L85.72-28Q85.96-28 86.08-27.86Q86.20-27.72 86.12-27.44L86.12-27.44L80.56-11.68L80.52-11.44L80.52-0.52Q80.52-0.32 80.38-0.18Q80.24-0.04 80.04-0.04L80.04-0.04L76.36-0.04Z M98.08 0.32Q94.64 0.32 92.58-1.90Q90.52-4.12 90.52-7.76L90.52-7.76L90.52-27.52Q90.52-27.72 90.66-27.86Q90.80-28 91.00-28L91.00-28L94.68-28Q94.88-28 95.02-27.86Q95.16-27.72 95.16-27.52L95.16-27.52L95.16-7.28Q95.16-5.68 95.96-4.68Q96.76-3.68 98.08-3.68L98.08-3.68Q99.40-3.68 100.20-4.68Q101.00-5.68 101.00-7.28L101.00-7.28L101.00-27.52Q101.00-27.72 101.14-27.86Q101.28-28 101.48-28L101.48-28L105.16-28Q105.36-28 105.50-27.86Q105.64-27.72 105.64-27.52L105.64-27.52L105.64-7.76Q105.64-4.12 103.56-1.90Q101.48 0.32 98.08 0.32L98.08 0.32Z M125.36-28Q125.56-28 125.70-27.86Q125.84-27.72 125.84-27.52L125.84-27.52L125.84-24.48Q125.84-24.28 125.70-24.14Q125.56-24 125.36-24L125.36-24L120.28-24Q120.08-24 120.08-23.80L120.08-23.80L120.08-0.48Q120.08-0.28 119.94-0.14Q119.80 0 119.60 0L119.60 0L115.92 0Q115.72 0 115.58-0.14Q115.44-0.28 115.44-0.48L115.44-0.48L115.44-23.80Q115.44-24 115.24-24L115.24-24L110.44-24Q110.24-24 110.10-24.14Q109.96-24.28 109.96-24.48L109.96-24.48L109.96-27.52Q109.96-27.72 110.10-27.86Q110.24-28 110.44-28L110.44-28L125.36-28Z"/></g>
</svg>
</g></svg></svg>