<svg version="1.1" preserveAspectRatio="none" xmlns="http://www.w3.org/2000/svg" width="500" height="500" viewBox="0 0 500 500"><rect width="100%" height="100%" fill="#212D94" fill-opacity="1"/><svg viewBox="0.4768 273.7124 579.7972 242" width="333" height="138.98997787502253" x="83.5px" y="180.505px" xmlns="http://www.w3.org/2000/svg" xmlns:xlink="http://www.w3.org/1999/xlink" preserveAspectRatio="none"><defs></defs><style>.a60p5ZquTEfillColor {fill:#F1F1F1;fill-opacity:0;}.ahs7pIl34ofillColor {fill:#0A0A0A;fill-opacity:0.1;}.background {fill:#212D94;fill-opacity:1;}.companyName {fill:#F1F1F1;fill-opacity:1;}.icon3-str {stroke:#0A0A0A;stroke-opacity:1;}.shapeStroke-str {stroke:#0A0A0A;stroke-opacity:1;}.text-str {stroke:#F1F1F1;stroke-opacity:1;}</style><g opacity="1" transform="rotate(0 0.4768 273.7124)">
<svg width="289.8986" height="242" x="0.4768" y="273.7124" version="1.1" preserveAspectRatio="none" viewBox="0 0 289.8986 242">
  <defs><rect x="15.125" y="15.125" width="259.6486" height="211.75" rx="0px" ry="0px" id="id-60p5ZquTE1676915614041"></rect></defs><use class="a60p5ZquTEfillColor text-str" style="stroke-width:30.25;" xlink:href="#id-60p5ZquTE1676915614041"></use>
</svg>
</g><g opacity="1" transform="rotate(0 290.3754 273.7124)">
<svg width="289.8986" height="242" x="290.3754" y="273.7124" version="1.1" preserveAspectRatio="none" viewBox="0 0 289.8986 242">
  <defs><rect x="15.125" y="15.125" width="259.6486" height="211.75" rx="0px" ry="0px" id="id-hs7pIl34o1676915614041"></rect></defs><use class="ahs7pIl34ofillColor icon3-str" style="stroke-width:30.25;" xlink:href="#id-hs7pIl34o1676915614041"></use>
</svg>
</g><g opacity="1" transform="rotate(0 10.4768 283.7124)">
<svg width="559.7972" height="222" x="10.4768" y="283.7124" version="1.1" preserveAspectRatio="none" viewBox="0 0 559.7972 222">
  <defs><rect x="0" y="0" width="559.7972" height="222" rx="0px" ry="0px" id="id-BO9lbzKc31676915614042"></rect></defs><use class="background shapeStroke-str" style="stroke-width:0;" xlink:href="#id-BO9lbzKc31676915614042"></use>
</svg>
</g><g opacity="1" transform="rotate(0 50.4768 435.7124)">
<svg width="479.7972" height="20" x="50.4768" y="435.7124" version="1.1" preserveAspectRatio="none" viewBox="1.56 -31.48 949 39.56">
  <g transform="matrix(1 0 0 1 0 0)" class="companyName"><path id="id-6izo4zJp30" d="M16.72 0.48Q12.44 0.48 8.98-1.38Q5.52-3.24 3.54-6.54Q1.56-9.84 1.56-14L1.56-14Q1.56-18.16 3.54-21.46Q5.52-24.76 8.98-26.62Q12.44-28.48 16.76-28.48L16.76-28.48Q20.40-28.48 23.34-27.20Q26.28-25.92 28.28-23.52L28.28-23.52L24.12-19.68Q21.28-22.96 17.08-22.96L17.08-22.96Q14.48-22.96 12.44-21.82Q10.40-20.68 9.26-18.64Q8.12-16.60 8.12-14L8.12-14Q8.12-11.40 9.26-9.36Q10.40-7.32 12.44-6.18Q14.48-5.04 17.08-5.04L17.08-5.04Q21.28-5.04 24.12-8.36L24.12-8.36L28.28-4.52Q26.28-2.08 23.32-0.80Q20.36 0.48 16.72 0.48L16.72 0.48Z M49.68 0.32Q46.28 0.32 43.58-1.10Q40.88-2.52 39.36-5.04Q37.84-7.56 37.84-10.76L37.84-10.76Q37.84-13.96 39.36-16.48Q40.88-19 43.58-20.42Q46.28-21.84 49.68-21.84L49.68-21.84Q53.08-21.84 55.76-20.42Q58.44-19 59.96-16.48Q61.48-13.96 61.48-10.76L61.48-10.76Q61.48-7.56 59.96-5.04Q58.44-2.52 55.76-1.10Q53.08 0.32 49.68 0.32L49.68 0.32ZM49.68-4.80Q52.08-4.80 53.62-6.42Q55.16-8.04 55.16-10.76L55.16-10.76Q55.16-13.48 53.62-15.10Q52.08-16.72 49.68-16.72L49.68-16.72Q47.28-16.72 45.72-15.10Q44.16-13.48 44.16-10.76L44.16-10.76Q44.16-8.04 45.72-6.42Q47.28-4.80 49.68-4.80L49.68-4.80Z M101.20-21.84Q105.24-21.84 107.62-19.46Q110-17.08 110-12.32L110-12.32L110 0L103.76 0L103.76-11.36Q103.76-13.92 102.70-15.18Q101.64-16.44 99.68-16.44L99.68-16.44Q97.48-16.44 96.20-15.02Q94.92-13.60 94.92-10.80L94.92-10.80L94.92 0L88.68 0L88.68-11.36Q88.68-16.44 84.60-16.44L84.60-16.44Q82.44-16.44 81.16-15.02Q79.88-13.60 79.88-10.80L79.88-10.80L79.88 0L73.64 0L73.64-21.52L79.60-21.52L79.60-19.04Q80.80-20.40 82.54-21.12Q84.28-21.84 86.36-21.84L86.36-21.84Q88.64-21.84 90.48-20.94Q92.32-20.04 93.44-18.32L93.44-18.32Q94.76-20 96.78-20.92Q98.80-21.84 101.20-21.84L101.20-21.84Z M151.16-21.84Q155.20-21.84 157.58-19.46Q159.96-17.08 159.96-12.32L159.96-12.32L159.96 0L153.72 0L153.72-11.36Q153.72-13.92 152.66-15.18Q151.60-16.44 149.64-16.44L149.64-16.44Q147.44-16.44 146.16-15.02Q144.88-13.60 144.88-10.80L144.88-10.80L144.88 0L138.64 0L138.64-11.36Q138.64-16.44 134.56-16.44L134.56-16.44Q132.40-16.44 131.12-15.02Q129.84-13.60 129.84-10.80L129.84-10.80L129.84 0L123.60 0L123.60-21.52L129.56-21.52L129.56-19.04Q130.76-20.40 132.50-21.12Q134.24-21.84 136.32-21.84L136.32-21.84Q138.60-21.84 140.44-20.94Q142.28-20.04 143.40-18.32L143.40-18.32Q144.72-20 146.74-20.92Q148.76-21.84 151.16-21.84L151.16-21.84Z M189-21.52L195.24-21.52L195.24 0L189.32 0L189.32-2.56Q188.08-1.16 186.36-0.42Q184.64 0.32 182.64 0.32L182.64 0.32Q178.40 0.32 175.92-2.12Q173.44-4.56 173.44-9.36L173.44-9.36L173.44-21.52L179.68-21.52L179.68-10.28Q179.68-5.08 184.04-5.08L184.04-5.08Q186.28-5.08 187.64-6.54Q189-8 189-10.88L189-10.88L189-21.52Z M222.12-21.84Q226.12-21.84 228.58-19.44Q231.04-17.04 231.04-12.32L231.04-12.32L231.04 0L224.80 0L224.80-11.36Q224.80-13.92 223.68-15.18Q222.56-16.44 220.44-16.44L220.44-16.44Q218.08-16.44 216.68-14.98Q215.28-13.52 215.28-10.64L215.28-10.64L215.28 0L209.04 0L209.04-21.52L215-21.52L215-19Q216.24-20.36 218.08-21.10Q219.92-21.84 222.12-21.84L222.12-21.84Z M244.68 0L244.68-21.52L250.92-21.52L250.92 0L244.68 0ZM247.80-24.52Q246.08-24.52 245-25.52Q243.92-26.52 243.92-28L243.92-28Q243.92-29.48 245-30.48Q246.08-31.48 247.80-31.48L247.80-31.48Q249.52-31.48 250.60-30.52Q251.68-29.56 251.68-28.12L251.68-28.12Q251.68-26.56 250.60-25.54Q249.52-24.52 247.80-24.52L247.80-24.52Z M276.92-5.44L278.60-1.04Q277.68-0.36 276.34-0.02Q275.00 0.32 273.52 0.32L273.52 0.32Q269.68 0.32 267.58-1.64Q265.48-3.60 265.48-7.40L265.48-7.40L265.48-16.24L262.16-16.24L262.16-21.04L265.48-21.04L265.48-26.28L271.72-26.28L271.72-21.04L277.08-21.04L277.08-16.24L271.72-16.24L271.72-7.48Q271.72-6.12 272.42-5.38Q273.12-4.64 274.40-4.64L274.40-4.64Q275.88-4.64 276.92-5.44L276.92-5.44Z M305.08-21.52L311.08-21.52L301.36 1.32Q299.88 5.04 297.70 6.56Q295.52 8.08 292.44 8.08L292.44 8.08Q290.76 8.08 289.12 7.56Q287.48 7.04 286.44 6.12L286.44 6.12L288.72 1.68Q289.44 2.32 290.38 2.68Q291.32 3.04 292.24 3.04L292.24 3.04Q293.52 3.04 294.32 2.42Q295.12 1.80 295.76 0.36L295.76 0.36L295.84 0.16L286.52-21.52L292.96-21.52L299.00-6.92L305.08-21.52Z M341.40 7.76L341.40-29.68L347.12-29.68L347.12 7.76L341.40 7.76Z M380.68-6.24L380.68-14.44L386.60-14.44L386.60-3.08Q384.32-1.36 381.32-0.44Q378.32 0.48 375.28 0.48L375.28 0.48Q370.92 0.48 367.44-1.38Q363.96-3.24 361.98-6.54Q360.00-9.84 360.00-14L360.00-14Q360.00-18.16 361.98-21.46Q363.96-24.76 367.48-26.62Q371.00-28.48 375.40-28.48L375.40-28.48Q379.08-28.48 382.08-27.24Q385.08-26 387.12-23.64L387.12-23.64L382.96-19.80Q379.96-22.96 375.72-22.96L375.72-22.96Q373.04-22.96 370.96-21.84Q368.88-20.72 367.72-18.68Q366.56-16.64 366.56-14L366.56-14Q366.56-11.40 367.72-9.36Q368.88-7.32 370.94-6.18Q373.00-5.04 375.64-5.04L375.64-5.04Q378.44-5.04 380.68-6.24L380.68-6.24Z M408.84-21.84Q413.84-21.84 416.52-19.46Q419.20-17.08 419.20-12.28L419.20-12.28L419.20 0L413.36 0L413.36-2.68Q411.60 0.32 406.80 0.32L406.80 0.32Q404.32 0.32 402.50-0.52Q400.68-1.36 399.72-2.84Q398.76-4.32 398.76-6.20L398.76-6.20Q398.76-9.20 401.02-10.92Q403.28-12.64 408.00-12.64L408.00-12.64L412.96-12.64Q412.96-14.68 411.72-15.78Q410.48-16.88 408.00-16.88L408.00-16.88Q406.28-16.88 404.62-16.34Q402.96-15.80 401.80-14.88L401.80-14.88L399.56-19.24Q401.32-20.48 403.78-21.16Q406.24-21.84 408.84-21.84L408.84-21.84ZM408.36-3.88Q409.96-3.88 411.20-4.62Q412.44-5.36 412.96-6.80L412.96-6.80L412.96-9L408.68-9Q404.84-9 404.84-6.48L404.84-6.48Q404.84-5.28 405.78-4.58Q406.72-3.88 408.36-3.88L408.36-3.88Z M460.40-21.84Q464.44-21.84 466.82-19.46Q469.20-17.08 469.20-12.32L469.20-12.32L469.20 0L462.96 0L462.96-11.36Q462.96-13.92 461.90-15.18Q460.84-16.44 458.88-16.44L458.88-16.44Q456.68-16.44 455.40-15.02Q454.12-13.60 454.12-10.80L454.12-10.80L454.12 0L447.88 0L447.88-11.36Q447.88-16.44 443.80-16.44L443.80-16.44Q441.64-16.44 440.36-15.02Q439.08-13.60 439.08-10.80L439.08-10.80L439.08 0L432.84 0L432.84-21.52L438.80-21.52L438.80-19.04Q440.00-20.40 441.74-21.12Q443.48-21.84 445.56-21.84L445.56-21.84Q447.84-21.84 449.68-20.94Q451.52-20.04 452.64-18.32L452.64-18.32Q453.96-20 455.98-20.92Q458.00-21.84 460.40-21.84L460.40-21.84Z M482.80 0L482.80-21.52L489.04-21.52L489.04 0L482.80 0ZM485.92-24.52Q484.20-24.52 483.12-25.52Q482.04-26.52 482.04-28L482.04-28Q482.04-29.48 483.12-30.48Q484.20-31.48 485.92-31.48L485.92-31.48Q487.64-31.48 488.72-30.52Q489.80-29.56 489.80-28.12L489.80-28.12Q489.80-26.56 488.72-25.54Q487.64-24.52 485.92-24.52L485.92-24.52Z M515.92-21.84Q519.92-21.84 522.38-19.44Q524.84-17.04 524.84-12.32L524.84-12.32L524.84 0L518.60 0L518.60-11.36Q518.60-13.92 517.48-15.18Q516.36-16.44 514.24-16.44L514.24-16.44Q511.88-16.44 510.48-14.98Q509.08-13.52 509.08-10.64L509.08-10.64L509.08 0L502.84 0L502.84-21.52L508.80-21.52L508.80-19Q510.04-20.36 511.88-21.10Q513.72-21.84 515.92-21.84L515.92-21.84Z M555-21.52L560.92-21.52L560.92-3.60Q560.92 2.32 557.84 5.20Q554.76 8.08 548.84 8.08L548.84 8.08Q545.72 8.08 542.92 7.32Q540.12 6.56 538.28 5.12L538.28 5.12L540.76 0.64Q542.12 1.76 544.20 2.42Q546.28 3.08 548.36 3.08L548.36 3.08Q551.60 3.08 553.14 1.62Q554.68 0.16 554.68-2.80L554.68-2.80L554.68-3.72Q552.24-1.04 547.88-1.04L547.88-1.04Q544.92-1.04 542.46-2.34Q540-3.64 538.56-6Q537.12-8.36 537.12-11.44L537.12-11.44Q537.12-14.52 538.56-16.88Q540-19.24 542.46-20.54Q544.92-21.84 547.88-21.84L547.88-21.84Q552.56-21.84 555-18.76L555-18.76L555-21.52ZM549.12-6.16Q551.60-6.16 553.18-7.62Q554.76-9.08 554.76-11.44L554.76-11.44Q554.76-13.80 553.18-15.26Q551.60-16.72 549.12-16.72L549.12-16.72Q546.64-16.72 545.04-15.26Q543.44-13.80 543.44-11.44L543.44-11.44Q543.44-9.08 545.04-7.62Q546.64-6.16 549.12-6.16L549.12-6.16Z M602.72-21.84Q607.72-21.84 610.40-19.46Q613.08-17.08 613.08-12.28L613.08-12.28L613.08 0L607.24 0L607.24-2.68Q605.48 0.32 600.68 0.32L600.68 0.32Q598.20 0.32 596.38-0.52Q594.56-1.36 593.60-2.84Q592.64-4.32 592.64-6.20L592.64-6.20Q592.64-9.20 594.90-10.92Q597.16-12.64 601.88-12.64L601.88-12.64L606.84-12.64Q606.84-14.68 605.60-15.78Q604.36-16.88 601.88-16.88L601.88-16.88Q600.16-16.88 598.50-16.34Q596.84-15.80 595.68-14.88L595.68-14.88L593.44-19.24Q595.20-20.48 597.66-21.16Q600.12-21.84 602.72-21.84L602.72-21.84ZM602.24-3.88Q603.84-3.88 605.08-4.62Q606.32-5.36 606.84-6.80L606.84-6.80L606.84-9L602.56-9Q598.72-9 598.72-6.48L598.72-6.48Q598.72-5.28 599.66-4.58Q600.60-3.88 602.24-3.88L602.24-3.88Z M639.80-21.84Q643.80-21.84 646.26-19.44Q648.72-17.04 648.72-12.32L648.72-12.32L648.72 0L642.48 0L642.48-11.36Q642.48-13.92 641.36-15.18Q640.24-16.44 638.12-16.44L638.12-16.44Q635.76-16.44 634.36-14.98Q632.96-13.52 632.96-10.64L632.96-10.64L632.96 0L626.72 0L626.72-21.52L632.68-21.52L632.68-19Q633.92-20.36 635.76-21.10Q637.60-21.84 639.80-21.84L639.80-21.84Z M678.28-29.68L684.52-29.68L684.52 0L678.56 0L678.56-2.48Q676.24 0.32 671.84 0.32L671.84 0.32Q668.80 0.32 666.34-1.04Q663.88-2.40 662.48-4.92Q661.08-7.44 661.08-10.76L661.08-10.76Q661.08-14.08 662.48-16.60Q663.88-19.12 666.34-20.48Q668.80-21.84 671.84-21.84L671.84-21.84Q675.96-21.84 678.28-19.24L678.28-19.24L678.28-29.68ZM672.92-4.80Q675.28-4.80 676.84-6.42Q678.40-8.04 678.40-10.76L678.40-10.76Q678.40-13.48 676.84-15.10Q675.28-16.72 672.92-16.72L672.92-16.72Q670.52-16.72 668.96-15.10Q667.40-13.48 667.40-10.76L667.40-10.76Q667.40-8.04 668.96-6.42Q670.52-4.80 672.92-4.80L672.92-4.80Z M728 0.32Q724.56 0.32 721.82-1.10Q719.08-2.52 717.54-5.04Q716-7.56 716-10.76L716-10.76Q716-13.96 717.54-16.48Q719.08-19 721.82-20.42Q724.56-21.84 728-21.84L728-21.84Q731.40-21.84 733.94-20.42Q736.48-19 737.64-16.36L737.64-16.36L732.80-13.76Q731.12-16.72 727.96-16.72L727.96-16.72Q725.52-16.72 723.92-15.12Q722.32-13.52 722.32-10.76L722.32-10.76Q722.32-8 723.92-6.40Q725.52-4.80 727.96-4.80L727.96-4.80Q731.16-4.80 732.80-7.76L732.80-7.76L737.64-5.12Q736.48-2.56 733.94-1.12Q731.40 0.32 728 0.32L728 0.32Z M759.20 0.32Q755.80 0.32 753.10-1.10Q750.40-2.52 748.88-5.04Q747.36-7.56 747.36-10.76L747.36-10.76Q747.36-13.96 748.88-16.48Q750.40-19 753.10-20.42Q755.80-21.84 759.20-21.84L759.20-21.84Q762.60-21.84 765.28-20.42Q767.96-19 769.48-16.48Q771-13.96 771-10.76L771-10.76Q771-7.56 769.48-5.04Q767.96-2.52 765.28-1.10Q762.60 0.32 759.20 0.32L759.20 0.32ZM759.20-4.80Q761.60-4.80 763.14-6.42Q764.68-8.04 764.68-10.76L764.68-10.76Q764.68-13.48 763.14-15.10Q761.60-16.72 759.20-16.72L759.20-16.72Q756.80-16.72 755.24-15.10Q753.68-13.48 753.68-10.76L753.68-10.76Q753.68-8.04 755.24-6.42Q756.80-4.80 759.20-4.80L759.20-4.80Z M798.84-29.68L805.08-29.68L805.08 0L799.12 0L799.12-2.48Q796.80 0.32 792.40 0.32L792.40 0.32Q789.36 0.32 786.90-1.04Q784.44-2.40 783.04-4.92Q781.64-7.44 781.64-10.76L781.64-10.76Q781.64-14.08 783.04-16.60Q784.44-19.12 786.90-20.48Q789.36-21.84 792.40-21.84L792.40-21.84Q796.52-21.84 798.84-19.24L798.84-19.24L798.84-29.68ZM793.48-4.80Q795.84-4.80 797.40-6.42Q798.96-8.04 798.96-10.76L798.96-10.76Q798.96-13.48 797.40-15.10Q795.84-16.72 793.48-16.72L793.48-16.72Q791.08-16.72 789.52-15.10Q787.96-13.48 787.96-10.76L787.96-10.76Q787.96-8.04 789.52-6.42Q791.08-4.80 793.48-4.80L793.48-4.80Z M839.92-10.68Q839.92-10.56 839.80-9L839.80-9L823.52-9Q823.96-7 825.60-5.84Q827.24-4.68 829.68-4.68L829.68-4.68Q831.36-4.68 832.66-5.18Q833.96-5.68 835.08-6.76L835.08-6.76L838.40-3.16Q835.36 0.32 829.52 0.32L829.52 0.32Q825.88 0.32 823.08-1.10Q820.28-2.52 818.76-5.04Q817.24-7.56 817.24-10.76L817.24-10.76Q817.24-13.92 818.74-16.46Q820.24-19 822.86-20.42Q825.48-21.84 828.72-21.84L828.72-21.84Q831.88-21.84 834.44-20.48Q837-19.12 838.46-16.58Q839.92-14.04 839.92-10.68L839.92-10.68ZM828.76-17.12Q826.64-17.12 825.20-15.92Q823.76-14.72 823.44-12.64L823.44-12.64L834.04-12.64Q833.72-14.68 832.28-15.90Q830.84-17.12 828.76-17.12L828.76-17.12Z M852.52 7.76L852.52-29.68L858.24-29.68L858.24 7.76L852.52 7.76Z M913.36-22.80L898.68-22.80L898.68-15.40L911.64-15.40L911.64-10.20L898.68-10.20L898.68 0L892.20 0L892.20-28L913.36-28L913.36-22.80Z M950.56 0L943.60 0L938.20-7.80L937.88-7.80L932.24-7.80L932.24 0L925.76 0L925.76-28L937.88-28Q941.60-28 944.34-26.76Q947.08-25.52 948.56-23.24Q950.04-20.96 950.04-17.84L950.04-17.84Q950.04-14.72 948.54-12.46Q947.04-10.20 944.28-9L944.28-9L950.56 0ZM943.48-17.84Q943.48-20.20 941.96-21.46Q940.44-22.72 937.52-22.72L937.52-22.72L932.24-22.72L932.24-12.96L937.52-12.96Q940.44-12.96 941.96-14.24Q943.48-15.52 943.48-17.84L943.48-17.84Z"/></g>
</svg>
</g><g opacity="1" transform="rotate(0 104.3094 333.7124)">
<svg width="372.132" height="80" x="104.3094" y="333.7124" version="1.1" preserveAspectRatio="none" viewBox="4 -31.2 148.48000000000002 31.919999999999998">
  <g transform="matrix(1 0 0 1 0 0)" class="companyName"><path id="id-D6z1nYkh7" d="M12.24-29.12Q17.20-29.12 20-26.64Q22.80-24.16 22.80-19.76L22.80-19.76Q22.80-17.24 21.80-15.06Q20.80-12.88 18.58-11.50Q16.36-10.12 12.88-10.12L12.88-10.12L8.68-10.12L8.68 0L4 0L4-29.12L12.24-29.12ZM12.88-14.60Q14.80-14.60 15.98-15.42Q17.16-16.24 17.66-17.42Q18.16-18.60 18.16-19.68L18.16-19.68Q18.16-21.52 16.98-23.08Q15.80-24.64 13-24.64L13-24.64L8.68-24.64L8.68-14.60L12.88-14.60Z M29.52-16.92L34-16.92L34 0L29.52 0L29.52-16.92ZM29.32-22.96Q29.32-23.96 30.12-24.66Q30.92-25.36 31.92-25.36L31.92-25.36Q32.88-25.36 33.66-24.66Q34.44-23.96 34.44-22.96L34.44-22.96Q34.44-21.96 33.66-21.28Q32.88-20.60 31.92-20.60L31.92-20.60Q30.92-20.60 30.12-21.28Q29.32-21.96 29.32-22.96L29.32-22.96Z M53.36 0L48.60-7.68L46.64-6.16L46.64 0L42.16 0L42.16-31.20L46.64-31.20L46.64-10.80L55.12-17.32L57.84-14.92L51.68-10.12L58.56 0L53.36 0Z M78.16-16.92L82.28-16.92L82.28 0L77.80 0L77.80-2.44Q76.88-1.36 75.32-0.46Q73.76 0.44 71.68 0.44L71.68 0.44Q69.24 0.44 67.32-0.58Q65.40-1.60 64.28-3.60Q63.16-5.60 63.16-8.44L63.16-8.44Q63.16-11.20 64.32-13.30Q65.48-15.40 67.42-16.54Q69.36-17.68 71.68-17.68L71.68-17.68Q75.80-17.68 77.84-14.64L77.84-14.64L78.16-16.92ZM72.92-3.24Q74.76-3.24 76.02-4.18Q77.28-5.12 77.80-6.84L77.80-6.84L77.80-10.52Q77.32-12.08 75.94-13.04Q74.56-14 72.76-14L72.76-14Q70.64-14 69.16-12.50Q67.68-11 67.68-8.68L67.68-8.68Q67.68-7.16 68.40-5.92Q69.12-4.68 70.32-3.96Q71.52-3.24 72.92-3.24L72.92-3.24Z M108.92-29.12L114.64-29.12L103.72-9.44L103.72 0L99.08 0L99.08-9.44L88.32-29.12L94.04-29.12L101.56-14.76L108.92-29.12Z M129.28-16.92L133.76-16.92L133.76 0L129.72 0L129.44-3.04Q128.56-1.32 126.84-0.30Q125.12 0.72 122.92 0.72L122.92 0.72Q120.60 0.72 119.06-0.70Q117.52-2.12 117.48-4.36L117.48-4.36L117.48-16.92L121.96-16.92L121.96-5.96Q122.08-3.16 124.72-3.12L124.72-3.12Q126.68-3.12 127.98-4.92Q129.28-6.72 129.28-9.44L129.28-9.44L129.28-16.92Z M143.60-24.36L148.08-24.36L148.08-16.92L152.48-16.92L152.48-13.40L148.08-13.40L148.08 0L143.60 0L143.60-13.40L140.68-13.40L140.68-16.92L143.60-16.92L143.60-24.36Z"/></g>
</svg>
</g></svg></svg>