<svg version="1.1" preserveAspectRatio="none" xmlns="http://www.w3.org/2000/svg" width="500" height="500" viewBox="0 0 500 500"><rect width="100%" height="100%" fill="#0C0C0C" fill-opacity="1"/><svg viewBox="-30.9343 148.3233 442.1581 95" width="333" height="71.54680644773894" x="83.5px" y="214.2266px" xmlns="http://www.w3.org/2000/svg" xmlns:xlink="http://www.w3.org/1999/xlink" preserveAspectRatio="none"><defs></defs><style>.background-floo {flood-color:#0C0C0C;flood-opacity:1;}.companyName {fill:#3A3AC6;fill-opacity:1;}.icon1 {fill:#F1F1F1;fill-opacity:1;}.icon3-str {stroke:#F1F1F1;stroke-opacity:1;}</style><defs>
      <filter
        x="-30.9343"
        y="199.3151"
        width="442.1581"
        height="44.0082"
        id="gMiGyJc9Q"
        filterUnits="userSpaceOnUse"
        primitiveUnits="userSpaceOnUse"
        color-interpolation-filters="sRGB">
        
    <feGaussianBlur in="SourceGraphic" stdDeviation="0"/>
    <feOffset dx="-1.0041204080946162" dy="-2.0082408161892324" result="w1yCyThUEDr"/>
    <feFlood flood-color="#0C0C0C" flood-opacity="1" in="w1yCyThUEDr" />
    <feComposite  in2="w1yCyThUEDr" operator="in" result="lkaYkNyW-MA"/><feMerge result="Xbf7yLppekU"><feMergeNode in="lkaYkNyW-MA" /><feMergeNode in="SourceGraphic" /></feMerge>
      </filter></defs><g opacity="1" transform="rotate(0 1.6666 148.3233)">
<svg width="377.9604" height="60" x="1.6666" y="148.3233" version="1.1" preserveAspectRatio="none" viewBox="2 -28.32 180.16 28.6">
  <g transform="matrix(1 0 0 1 0 0)" class="companyName"><path id="id-D6z1nYkh7" d="M14.40-9L10.88-9L10.88 0L2 0L2-28.32L14.40-28.32Q19.60-28.32 22.38-25.68Q25.16-23.04 25.16-18.60L25.16-18.60Q25.16-15.92 23.92-13.74Q22.68-11.56 20.26-10.28Q17.84-9 14.40-9L14.40-9ZM13.40-16Q16.16-16 16.16-18.60L16.16-18.60Q16.16-21.20 13.40-21.20L13.40-21.20L10.88-21.20L10.88-16L13.40-16Z M27.96-28.32L36.84-28.32L36.84 0L27.96 0L27.96-28.32Z M68.64-28.32L58.16-14.56L68.64 0L57.96 0L49.72-12.28L49.72 0L40.84 0L40.84-28.32L49.72-28.32L49.72-16.36L58.04-28.32L68.64-28.32Z M90.60 0L89.20-4.28L79.76-4.28L78.36 0L69.04 0L79.40-28.32L89.64-28.32L99.96 0L90.60 0ZM81.92-10.96L87.04-10.96L84.48-18.84L81.92-10.96Z M119.16-28.32L129.16-28.32L119-8.60L119 0L110.12 0L110.12-8.60L99.96-28.32L110.12-28.32L114.64-18.28L119.16-28.32Z M131-28.32L139.84-28.32L139.84-12.36Q139.84-10.40 140.70-9.26Q141.56-8.12 143.48-8.12L143.48-8.12Q145.40-8.12 146.32-9.26Q147.24-10.40 147.24-12.36L147.24-12.36L147.24-28.32L156.08-28.32L156.08-12.36Q156.08-8.32 154.40-5.46Q152.72-2.60 149.80-1.16Q146.88 0.28 143.28 0.28L143.28 0.28Q139.68 0.28 136.90-1.16Q134.12-2.60 132.56-5.44Q131-8.28 131-12.36L131-12.36L131-28.32Z M158.32-28.32L182.16-28.32L182.16-21.28L174.64-21.28L174.64 0L165.76 0L165.76-21.28L158.32-21.28L158.32-28.32Z"/></g>
</svg>
</g><g filter="url(#gMiGyJc9Q)"><g opacity="1" transform="rotate(0 -29.9302 201.3233)">
<svg width="441.154" height="42" x="-29.9302" y="201.3233" version="1.1" preserveAspectRatio="none" viewBox="3.2031 -32.9102 471.62109999999996 44.9024">
  <g transform="matrix(1 0 0 1 0 0)" class="icon1"><path id="id-6izo4zJp30" d="M22.62-11.39L22.62-11.39Q23.09-11.39 23.09-10.63Q23.09-9.88 22.75-8.05L22.75-8.05Q22.50-6.82 19.94-4.53L19.94-4.53Q16.86-1.80 13.16-0.63L13.16-0.63Q10.94 0.08 8.82 0.08Q6.70 0.08 4.95-1.71Q3.20-3.50 3.20-5.95Q3.20-8.40 4.19-11.03Q5.18-13.65 6.85-16.04Q8.52-18.44 10.79-20.64Q13.07-22.85 15.53-24.47Q17.99-26.09 20.68-27.05Q23.38-28.01 25.80-28.01L25.80-28.01Q27.71-28.01 29.06-26.62L29.06-26.62Q29.77-25.88 29.77-24.76Q29.77-23.63 28.67-21.92Q27.58-20.21 26.08-18.81Q24.59-17.40 23.00-16.43Q21.41-15.45 20.45-15.45Q19.49-15.45 18.81-16.04Q18.13-16.64 18.13-17.11Q18.13-17.58 18.33-18.14Q18.54-18.71 18.85-18.71L18.85-18.71Q18.77-18.61 18.77-18.52L18.77-18.52Q18.77-18.28 19.44-18.28Q20.12-18.28 21.70-19.47Q23.28-20.66 24.56-22.15Q25.84-23.63 25.84-24.38L25.84-24.38Q25.84-24.88 25.16-24.88L25.16-24.88Q23.32-24.88 20.09-23.17Q16.86-21.46 13.91-18.77Q10.96-16.07 8.78-12.37Q6.60-8.67 6.60-5.72L6.60-5.72Q6.60-4.49 7.26-3.75Q7.91-3.01 9.27-3.01Q10.63-3.01 12.48-3.79Q14.34-4.57 16.01-5.70Q17.68-6.84 19.16-8.03Q20.64-9.22 21.53-10.12Q22.42-11.02 22.44-11.20Q22.46-11.39 22.62-11.39Z M37.21-14.88Q37.79-14.88 38.41-14.36Q39.02-13.83 39.02-12.74Q39.02-11.66 38.26-9.93Q37.50-8.20 36.17-6.42Q34.84-4.63 33.25-3.06Q31.66-1.48 29.81-0.48Q27.97 0.53 26.46 0.53Q24.96 0.53 24.05-0.42Q23.14-1.37 23.14-3.06Q23.14-4.75 23.97-6.80Q24.80-8.85 26.11-10.42Q27.42-11.99 28.95-13.24L28.95-13.24Q32.13-15.80 34.53-15.80L34.53-15.80Q35.61-15.80 36.15-15.27L36.15-15.27Q36.35-15.10 36.35-14.96L36.35-14.96L36.35-14.84Q36.62-14.88 37.21-14.88ZM35.23-12.29L35.23-12.29L35.10-12.29Q34.41-12.29 34.41-13.28L34.41-13.28Q32.99-12.81 31.43-11.64Q29.86-10.47 28.63-8.87L28.63-8.87Q26.13-5.66 26.09-3.46L26.09-3.46Q26.09-2.36 26.89-2.36Q27.70-2.36 29.28-3.42Q30.86-4.47 32.41-6.43Q33.96-8.38 34.74-9.81Q35.51-11.25 35.51-11.77Q35.51-12.29 35.23-12.29Z M38.59 0.12L38.59 0.12L37.64 0.08L37.29 0.08Q37.09 0.02 36.87-0.16Q36.64-0.33 36.52-0.41Q36.41-0.49 36.41-0.69Q36.41-0.90 36.56-1.41L36.56-1.41Q40.37-9.79 43.93-14.80L43.93-14.80Q44.32-15.35 45.19-15.63Q46.05-15.92 46.88-15.92L46.88-15.92Q47.36-15.92 47.36-15.16L47.36-15.16Q47.36-14.94 47.21-14.58Q47.05-14.22 46.43-13.40Q45.80-12.58 44.94-11.52Q44.08-10.47 43.96-10.31L43.96-10.31Q46.64-13.09 48.80-14.44Q50.96-15.80 51.92-15.80Q52.89-15.80 53.41-15.24Q53.93-14.69 53.93-14.05Q53.93-13.42 53.84-13.00Q53.75-12.58 53.52-12.12Q53.28-11.66 53.12-11.34Q52.95-11.02 52.56-10.50Q52.17-9.98 52.02-9.79Q51.88-9.59 51.42-9.04Q50.96-8.50 50.92-8.44L50.92-8.44Q51.46-8.98 52.44-10.06Q53.42-11.13 54.09-11.86Q54.77-12.58 55.78-13.49Q56.80-14.39 57.68-14.96L57.68-14.96Q59.79-16.29 61.95-16.29L61.95-16.29Q62.70-16.29 63.20-15.82Q63.71-15.35 63.71-14.70Q63.71-14.04 62.13-11.57Q60.55-9.10 58.97-6.61Q57.40-4.12 57.40-3.48L57.40-3.48Q57.40-2.58 57.73-2.41Q58.07-2.25 58.54-2.29Q59.00-2.32 59.85-2.89Q60.70-3.46 61.37-4.06L61.37-4.06Q62.44-5.04 63.36-5.96L63.36-5.96Q63.55-6.13 63.79-6.13L63.79-6.13Q64.16-6.13 64.24-5.57Q64.32-5 64.32-4.39Q64.32-3.79 64.20-3.55L64.20-3.55Q63.63-2.46 61.70-0.88Q59.77 0.70 57.99 0.70L57.99 0.70Q57.77 0.70 57.68 0.68L57.68 0.68Q55.66 0.49 54.89-0.42Q54.12-1.33 54.12-2.58Q54.12-3.83 54.97-5.61Q55.82-7.38 56.84-8.83Q57.85-10.27 58.70-11.44Q59.55-12.60 59.55-12.70Q59.55-12.79 59.39-12.79L59.39-12.79Q58.79-12.79 56.70-10.84L56.70-10.84Q53.13-7.50 50.53-4.39L50.53-4.39Q49.84-3.57 47.29-0.23L47.29-0.23Q46.99 0.16 46.36 0.16Q45.72 0.16 45.04-0.09Q44.36-0.33 44.36-0.72L44.36-0.72Q44.36-0.92 47.46-6.20Q50.57-11.48 50.57-11.96Q50.57-12.44 49.99-12.44Q49.41-12.44 47.62-10.72L47.62-10.72Q42.68-6.00 39.96-1.33L39.96-1.33Q39.79-1.05 39.28-0.47Q38.77 0.12 38.59 0.12Z M62.93 0.12L62.93 0.12L61.97 0.08L61.62 0.08Q61.43 0.02 61.20-0.16Q60.98-0.33 60.86-0.41Q60.74-0.49 60.74-0.69Q60.74-0.90 60.90-1.41L60.90-1.41Q64.71-9.79 68.26-14.80L68.26-14.80Q68.65-15.35 69.52-15.63Q70.39-15.92 71.21-15.92L71.21-15.92Q71.70-15.92 71.70-15.16L71.70-15.16Q71.70-14.94 71.54-14.58Q71.39-14.22 70.76-13.40Q70.14-12.58 69.28-11.52Q68.42-10.47 68.30-10.31L68.30-10.31Q70.98-13.09 73.13-14.44Q75.29-15.80 76.26-15.80Q77.23-15.80 77.74-15.24Q78.26-14.69 78.26-14.05Q78.26-13.42 78.17-13.00Q78.09-12.58 77.85-12.12Q77.62-11.66 77.45-11.34Q77.29-11.02 76.89-10.50Q76.50-9.98 76.36-9.79Q76.21-9.59 75.75-9.04Q75.29-8.50 75.25-8.44L75.25-8.44Q75.80-8.98 76.78-10.06Q77.75-11.13 78.43-11.86Q79.10-12.58 80.12-13.49Q81.13-14.39 82.01-14.96L82.01-14.96Q84.12-16.29 86.29-16.29L86.29-16.29Q87.03-16.29 87.54-15.82Q88.05-15.35 88.05-14.70Q88.05-14.04 86.46-11.57Q84.88-9.10 83.31-6.61Q81.74-4.12 81.74-3.48L81.74-3.48Q81.74-2.58 82.07-2.41Q82.40-2.25 82.87-2.29Q83.34-2.32 84.19-2.89Q85.04-3.46 85.70-4.06L85.70-4.06Q86.78-5.04 87.70-5.96L87.70-5.96Q87.89-6.13 88.13-6.13L88.13-6.13Q88.50-6.13 88.57-5.57Q88.65-5 88.65-4.39Q88.65-3.79 88.54-3.55L88.54-3.55Q87.97-2.46 86.04-0.88Q84.10 0.70 82.32 0.70L82.32 0.70Q82.11 0.70 82.01 0.68L82.01 0.68Q80 0.49 79.23-0.42Q78.46-1.33 78.46-2.58Q78.46-3.83 79.31-5.61Q80.16-7.38 81.17-8.83Q82.19-10.27 83.04-11.44Q83.89-12.60 83.89-12.70Q83.89-12.79 83.73-12.79L83.73-12.79Q83.13-12.79 81.04-10.84L81.04-10.84Q77.46-7.50 74.86-4.39L74.86-4.39Q74.18-3.57 71.62-0.23L71.62-0.23Q71.33 0.16 70.69 0.16Q70.06 0.16 69.38-0.09Q68.69-0.33 68.69-0.72L68.69-0.72Q68.69-0.92 71.80-6.20Q74.90-11.48 74.90-11.96Q74.90-12.44 74.33-12.44Q73.75-12.44 71.95-10.72L71.95-10.72Q67.01-6.00 64.30-1.33L64.30-1.33Q64.12-1.05 63.61-0.47Q63.11 0.12 62.93 0.12Z M103.81-6.13L103.81-6.13Q104.18-6.13 104.26-5.57Q104.34-5 104.34-4.39Q104.34-3.79 104.22-3.55L104.22-3.55Q103.65-2.46 101.74-0.89Q99.82 0.68 98.11 0.68L98.11 0.68Q97.05 0.68 96.15 0.05Q95.25-0.59 95.25-2.17Q95.25-3.75 96.09-5.27L96.09-5.27Q91.25 0.80 88.50 0.80L88.50 0.80Q87.40 0.80 86.73 0.02Q86.05-0.76 86.05-1.59Q86.05-2.42 86.29-3.31Q86.52-4.20 86.79-4.90Q87.05-5.61 87.57-6.64Q88.09-7.68 88.34-8.14Q88.59-8.61 89.15-9.56Q89.71-10.51 90.62-12.11Q91.52-13.71 92.12-14.48Q92.71-15.25 93.28-15.26Q93.85-15.27 94.28-14.80Q94.71-14.34 94.71-14.04Q94.71-13.75 93.40-11.41L93.40-11.41Q89.53-4.41 89.53-3.26L89.53-3.26Q89.53-2.97 89.75-2.97L89.75-2.97Q90.68-2.97 94.41-7.03Q98.14-11.09 98.73-12.24Q99.32-13.38 99.87-14.16Q100.43-14.94 100.70-15.12L100.70-15.12Q101.54-15.66 102.87-15.70L102.87-15.70Q103.09-15.70 103.20-15.68Q103.32-15.66 103.48-15.35Q103.63-15.04 103.63-14.86L103.63-14.86Q103.46-14.32 102.08-11.95Q100.70-9.59 100.55-9.28L100.55-9.28Q98.24-4.51 98.24-3.07L98.24-3.07Q98.24-2.25 98.87-2.25L98.87-2.25Q100-2.40 101.60-4.06L101.60-4.06Q102.19-4.67 102.76-5.29Q103.34-5.92 103.48-6.03Q103.61-6.13 103.81-6.13Z M113.28-3.01L113.28-3.01Q113.28-2.15 114.45-2.15L114.45-2.15Q115.08-2.15 116.03-2.77Q116.97-3.40 117.73-4.14L117.73-4.14Q119.77-6.15 120.04-6.15L120.04-6.15Q120.55-6.15 120.55-4.69Q120.55-3.22 119.63-2.68L119.63-2.68Q116.84-0.16 115.31 0.39L115.31 0.39Q114.45 0.68 113.42 0.66Q112.38 0.64 111.37-0.23Q110.35-1.11 110.35-2.37Q110.35-3.63 111.02-5.23Q111.68-6.84 112.37-7.98Q113.07-9.12 114.08-10.63Q115.10-12.15 115.16-12.52L115.16-12.52L115.12-12.56Q114.47-12.50 111.92-10.02Q109.38-7.54 107.71-5.70Q106.05-3.87 103.75-0.80L103.75-0.80Q103.11 0.04 102.70 0.04Q102.29 0.04 101.59-0.22Q100.90-0.49 100.74-0.61Q100.59-0.72 100.59-0.96Q100.59-1.19 100.72-1.53Q100.86-1.88 100.99-2.10Q101.11-2.32 101.41-2.79Q101.70-3.26 102.57-4.78Q103.44-6.29 105.23-9.30Q107.03-12.30 107.38-12.93L107.38-12.93Q108.13-14.22 108.59-14.80L108.59-14.80Q109.47-15.92 111.56-15.92L111.56-15.92Q112.03-15.92 112.03-15.33L112.03-15.33Q112.03-14.41 110.33-11.88L110.33-11.88L109.51-10.64Q112.89-14.39 115.21-15.39L115.21-15.39Q116.35-15.88 117.26-15.88Q118.16-15.88 118.70-15.39Q119.24-14.90 119.24-14.31Q119.24-13.71 118.83-12.88Q118.42-12.05 118.00-11.40Q117.58-10.74 116.89-9.75Q116.21-8.75 116.15-8.66Q116.09-8.57 115.85-8.19Q115.61-7.81 115.49-7.64Q115.37-7.46 115.10-7.02Q114.82-6.58 114.66-6.29Q114.49-6.00 114.25-5.57Q114.00-5.14 113.86-4.82Q113.71-4.51 113.55-4.14L113.55-4.14Q113.28-3.46 113.28-3.01Z M131.43-21.45L131.43-21.45Q131.43-20.33 130.39-19.21Q129.36-18.09 128.23-18.09Q127.11-18.09 127.11-19.26Q127.11-20.43 128.10-21.49Q129.08-22.56 130.27-22.56L130.27-22.56Q130.80-22.56 131.11-22.27Q131.43-21.97 131.43-21.45ZM128.26-4.39L128.26-4.39Q128.26-3.81 128.14-3.55L128.14-3.55Q127.19-1.60 125.10-0.40Q123.01 0.80 121.46 0.80Q119.92 0.80 118.81-0.23Q117.70-1.27 117.70-2.34Q117.70-3.42 118.77-5.47Q119.84-7.52 120.92-9.26Q121.99-11.00 121.99-11.14Q121.99-11.29 121.59-11.72Q121.19-12.15 121.19-12.35Q121.19-12.56 122.00-13.43Q122.81-14.30 123.97-15.15Q125.14-16.00 125.75-16.00Q126.37-16.00 126.86-15.45Q127.34-14.90 127.34-14.45Q127.34-14.00 122.70-6.00L122.70-6.00Q122.64-5.88 122.37-5.48Q122.11-5.08 121.96-4.81Q121.82-4.55 121.62-4.18L121.62-4.18Q121.23-3.40 121.23-2.87L121.23-2.87Q121.23-2.21 122.13-2.21Q123.03-2.21 123.99-2.82Q124.96-3.44 125.66-4.18L125.66-4.18Q127.50-6.15 127.75-6.15L127.75-6.15Q128.26-6.15 128.26-4.39Z M139.34-25.04L140.25-25.16L141.05-24.96Q141.23-24.96 141.37-24.79Q141.50-24.61 141.50-24.45Q141.50-24.30 141.09-23.61Q140.68-22.93 140.13-22.06Q139.57-21.19 139.53-21.11L139.53-21.11Q141.05-21.23 141.69-21.23Q142.32-21.23 142.56-21.14Q142.79-21.05 143.10-20.65Q143.40-20.25 143.65-20.05Q143.91-19.84 143.91-19.43Q143.91-19.02 143.41-18.74Q142.91-18.46 142.34-18.40L142.34-18.40Q137.81-17.95 137.34-17.93L137.34-17.93Q135.76-15.51 132.92-10.38Q130.08-5.25 129.90-3.96L129.90-3.96Q129.82-3.38 129.82-3.01L129.82-3.01Q129.82-2.25 130.63-2.25Q131.43-2.25 132.40-2.86Q133.38-3.48 134.20-4.20L134.20-4.20Q136.39-6.15 136.54-6.15L136.54-6.15Q137.05-6.15 137.05-4.39L137.05-4.39Q137.05-3.44 136.17-2.68L136.17-2.68Q134.20-0.98 132.85-0.12Q131.50 0.74 130.16 0.74L130.16 0.74Q129.86 0.74 129.61 0.68L129.61 0.68Q128.05 0.39 127.31-0.46Q126.58-1.31 126.59-2.75Q126.60-4.20 127.45-6.26Q128.30-8.32 129.59-10.64L129.59-10.64Q131.70-14.43 133.81-17.75L133.81-17.75L133.07-17.66Q130.80-17.40 130.43-17.40L130.43-17.40L130.25-17.40Q129.69-17.40 129.16-17.63Q128.63-17.85 128.63-18.18Q128.63-18.52 128.92-18.83Q129.20-19.14 129.26-19.32L129.26-19.32Q129.39-19.75 130.28-20.27Q131.17-20.80 131.62-20.83Q132.07-20.86 132.49-20.88Q132.91-20.90 133.43-20.92Q133.95-20.94 134.22-20.96L134.22-20.96L135.98-21.04Q137.62-23.50 138.23-24.20Q138.85-24.90 138.95-24.97Q139.04-25.04 139.34-25.04L139.34-25.04Z M141.33 6.48L141.33 6.48Q141.23 6.58 140.73 7.47Q140.23 8.36 139.67 9.27Q139.10 10.18 138.27 11.00Q137.44 11.82 136.88 11.88Q136.33 11.95 136.17 11.95L136.17 11.95Q134.38 11.95 134.38 10.14L134.38 10.14Q134.38 8.01 136.58 5.16L136.58 5.16Q137.42 4.08 138.69 2.84Q139.96 1.60 140.08 1.44Q140.20 1.27 143.01-4.04L143.01-4.04Q141.13-1.99 139.53-0.71Q137.93 0.57 136.45 0.72L136.45 0.72L136.31 0.72Q135.55 0.72 134.80 0.22Q134.06-0.27 134.06-1.52L134.06-1.52Q134.06-3.38 135.06-5.12L135.06-5.12Q135.41-5.72 136.28-7.17Q137.15-8.61 137.89-9.96L137.89-9.96Q138.59-11.04 139.34-12.46Q140.08-13.89 140.47-14.50Q140.86-15.12 141.21-15.12Q141.56-15.12 142.12-14.68Q142.68-14.24 142.68-13.63Q142.68-13.03 140.12-8.38Q137.56-3.73 137.56-3.09L137.56-3.09Q137.56-2.93 137.71-2.93L137.71-2.93Q138.24-2.93 140.05-4.42Q141.86-5.92 144.04-8.26L144.04-8.26Q146.48-10.86 147.87-13.01L147.87-13.01Q148.05-13.28 148.15-13.43Q148.26-13.57 148.43-13.82Q148.59-14.06 148.70-14.20Q148.81-14.34 148.96-14.52Q149.10-14.71 149.22-14.80Q149.34-14.90 149.47-15L149.47-15Q149.69-15.20 149.95-15.20Q150.21-15.20 150.75-15.08Q151.29-14.96 151.40-14.82Q151.50-14.69 151.62-14.57L151.62-14.57Q151.82-14.36 151.82-14.17Q151.82-13.98 151.66-13.68Q151.50-13.38 149.84-10.59L149.84-10.59Q144.96-2.34 143.13 1.45L143.13 1.45Q146.09-1.05 151.48-5.96L151.48-5.96Q151.70-6.13 151.91-6.13L151.91-6.13Q152.52-6.13 152.52-4.28L152.52-4.28Q152.52-3.73 152.32-3.55L152.32-3.55Q146.48 0.94 141.33 6.48Z M178.98-32.91L180.06-32.85L180.90-32.87Q181.31-32.87 181.31-32.56L181.31-32.56Q181.31-32.48 180.04-30.22Q178.77-27.97 171.91-15.15Q165.06-2.32 162.01 3.77L162.01 3.77Q161.80 4.24 161.48 4.38L161.48 4.38Q160.61 4.79 160.21 4.79L160.21 4.79L159.73 4.94Q159.61 4.94 159.29 4.82Q158.96 4.71 158.94 4.60Q158.91 4.49 158.91 4.11Q158.91 3.73 158.93 3.67L158.93 3.67Q159.32 1.93 168.41-14.95Q177.50-31.84 178.50-32.71L178.50-32.71Q178.67-32.91 178.98-32.91L178.98-32.91Z M206.41-24.28L206.41-24.28Q206.41-23.28 205.14-21.88Q203.87-20.47 202.00-19.20Q200.14-17.93 198.30-17.19L198.30-17.19Q198.71-17.32 199.14-17.32L199.14-17.32Q200.59-17.32 201.05-16.80L201.05-16.80Q201.17-16.68 201.17-16.52Q201.17-16.37 200.64-15.76L200.64-15.76Q195.16-9.41 190.57-3.16L190.57-3.16Q192.44-4.63 193.89-5.96L193.89-5.96Q194.69-6.68 195.84-6.68L195.84-6.68Q196.68-6.68 196.88-6.46Q197.07-6.25 197.07-6.10Q197.07-5.96 196.82-5.76L196.82-5.76Q193.55-2.91 186.17 2.56L186.17 2.56Q184.90 3.98 179.77 9.36L179.77 9.36Q178.85 10.29 177.73 10.29L177.73 10.29Q175.57 10.29 175.57 9.08L175.57 9.08Q175.57 8.55 176.41 7.40L176.41 7.40Q177.62 5.63 182.32 2.03L182.32 2.03Q183.36 0.88 185.90-1.88L185.90-1.88Q190.70-7.11 191.70-8.59L191.70-8.59Q189.04-6.07 187.68-5.04Q186.31-4.00 185.15-3.24Q183.98-2.48 183.01-2.01L183.01-2.01Q178.28 0.25 176.27-1.99L176.27-1.99Q175.25-3.11 175.25-5.26Q175.25-7.42 176.45-10.02Q177.64-12.62 179.63-15.15Q181.62-17.68 184.36-20.08Q187.09-22.48 190.04-24.30Q192.99-26.11 196.25-27.22Q199.51-28.32 202.40-28.32L202.40-28.32Q203.40-28.32 204.28-27.99Q205.16-27.66 205.53-27.29L205.53-27.29Q206.41-26.41 206.41-24.28ZM195.12-20.20L195.12-20.20L195.02-19.80Q195.02-19.47 195.47-19.47L195.47-19.47Q196.66-19.47 198.73-20.63Q200.80-21.78 202.07-22.99Q203.34-24.20 203.34-25L203.34-25Q203.34-25.68 202.13-25.68L202.13-25.68Q199.98-25.68 197.29-24.63Q194.61-23.57 192.05-21.89Q189.49-20.21 187.01-18.04Q184.53-15.86 182.69-13.68Q180.84-11.50 179.71-9.41Q178.57-7.32 178.57-5.84L178.57-5.84Q178.57-5.25 178.92-4.80Q179.26-4.36 179.92-4.36L179.92-4.36Q181.97-4.36 186.53-7.50Q191.09-10.64 197.01-16.07L197.01-16.07Q197.09-16.15 197.29-16.37L197.29-16.37Q197.71-16.89 198.16-17.13L198.16-17.13Q196.56-16.48 195.55-16.48Q194.53-16.48 193.87-16.93Q193.20-17.38 193.20-18.15Q193.20-18.93 193.89-19.61Q194.57-20.29 194.84-20.29Q195.12-20.29 195.12-20.20Z M214.51-14.84L214.51-14.84Q216.00-14.84 216.00-13.83L216.00-13.83Q216.00-13.28 215.74-13.03Q215.49-12.77 214.66-11.34Q213.83-9.90 212.82-7.67Q211.82-5.43 211.52-3.85L211.52-3.85Q211.46-3.65 211.46-3.30L211.46-3.30Q211.46-2.23 212.05-2.23Q212.64-2.23 213.44-2.78Q214.24-3.34 214.86-3.97Q215.49-4.61 216.08-5.27Q216.68-5.94 216.80-6.04Q216.91-6.13 217.15-6.13L217.15-6.13Q217.52-6.13 217.60-5.57Q217.68-5 217.68-4.39Q217.68-3.79 217.56-3.55L217.56-3.55Q216.99-2.44 215.07-0.88Q213.14 0.68 211.57 0.68Q210 0.68 209.26-0.27Q208.52-1.23 208.52-2.39Q208.52-3.55 208.91-4.43L208.91-4.43Q207.29-2.32 205.19-0.86Q203.09 0.61 201.76 0.61Q200.43 0.61 199.59-0.20L199.59-0.20Q198.52-1.19 198.52-2.96Q198.52-4.73 199.31-6.51Q200.10-8.30 201.39-9.78Q202.68-11.25 204.22-12.46L204.22-12.46Q207.46-15 210.20-15L210.20-15Q211.25-15 211.91-14.65Q212.58-14.30 212.75-13.77L212.75-13.77Q213.22-14.47 213.54-14.66Q213.87-14.84 214.51-14.84ZM211.91-12.68L211.91-12.68Q208.57-12.68 205-8.96L205-8.96Q203.73-7.64 202.67-5.78Q201.60-3.93 201.60-3.24Q201.60-2.56 201.99-2.56L201.99-2.56Q202.54-2.56 205.04-4.72Q207.54-6.88 208.36-7.89L208.36-7.89Q209.26-9.02 211.91-12.68Z M215.90 0.12L215.90 0.12L214.94 0.08L214.59 0.08Q214.39 0.02 214.17-0.16Q213.95-0.33 213.83-0.41Q213.71-0.49 213.71-0.69Q213.71-0.90 213.87-1.41L213.87-1.41Q217.68-9.79 221.23-14.80L221.23-14.80Q221.62-15.35 222.49-15.63Q223.36-15.92 224.18-15.92L224.18-15.92Q224.67-15.92 224.67-15.16L224.67-15.16Q224.67-14.94 224.51-14.58Q224.36-14.22 223.73-13.40Q223.11-12.58 222.25-11.52Q221.39-10.47 221.27-10.31L221.27-10.31Q223.95-13.09 226.10-14.44Q228.26-15.80 229.23-15.80Q230.20-15.80 230.71-15.24Q231.23-14.69 231.23-14.05Q231.23-13.42 231.14-13.00Q231.05-12.58 230.82-12.12Q230.59-11.66 230.42-11.34Q230.25-11.02 229.86-10.50Q229.47-9.98 229.33-9.79Q229.18-9.59 228.72-9.04Q228.26-8.50 228.22-8.44L228.22-8.44Q228.77-8.98 229.75-10.06Q230.72-11.13 231.40-11.86Q232.07-12.58 233.09-13.49Q234.10-14.39 234.98-14.96L234.98-14.96Q237.09-16.29 239.26-16.29L239.26-16.29Q240-16.29 240.51-15.82Q241.02-15.35 241.02-14.70Q241.02-14.04 239.43-11.57Q237.85-9.10 236.28-6.61Q234.71-4.12 234.71-3.48L234.71-3.48Q234.71-2.58 235.04-2.41Q235.37-2.25 235.84-2.29Q236.31-2.32 237.16-2.89Q238.01-3.46 238.67-4.06L238.67-4.06Q239.75-5.04 240.66-5.96L240.66-5.96Q240.86-6.13 241.09-6.13L241.09-6.13Q241.46-6.13 241.54-5.57Q241.62-5 241.62-4.39Q241.62-3.79 241.50-3.55L241.50-3.55Q240.94-2.46 239.00-0.88Q237.07 0.70 235.29 0.70L235.29 0.70Q235.08 0.70 234.98 0.68L234.98 0.68Q232.97 0.49 232.20-0.42Q231.43-1.33 231.43-2.58Q231.43-3.83 232.28-5.61Q233.13-7.38 234.14-8.83Q235.16-10.27 236.01-11.44Q236.86-12.60 236.86-12.70Q236.86-12.79 236.70-12.79L236.70-12.79Q236.09-12.79 234.00-10.84L234.00-10.84Q230.43-7.50 227.83-4.39L227.83-4.39Q227.15-3.57 224.59-0.23L224.59-0.23Q224.30 0.16 223.66 0.16Q223.03 0.16 222.34-0.09Q221.66-0.33 221.66-0.72L221.66-0.72Q221.66-0.92 224.77-6.20Q227.87-11.48 227.87-11.96Q227.87-12.44 227.29-12.44Q226.72-12.44 224.92-10.72L224.92-10.72Q219.98-6.00 217.27-1.33L217.27-1.33Q217.09-1.05 216.58-0.47Q216.07 0.12 215.90 0.12Z M252.95-21.45L252.95-21.45Q252.95-20.33 251.91-19.21Q250.88-18.09 249.76-18.09Q248.63-18.09 248.63-19.26Q248.63-20.43 249.62-21.49Q250.61-22.56 251.80-22.56L251.80-22.56Q252.32-22.56 252.64-22.27Q252.95-21.97 252.95-21.45ZM249.79-4.39L249.79-4.39Q249.79-3.81 249.67-3.55L249.67-3.55Q248.71-1.60 246.62-0.40Q244.53 0.80 242.99 0.80Q241.45 0.80 240.33-0.23Q239.22-1.27 239.22-2.34Q239.22-3.42 240.29-5.47Q241.37-7.52 242.44-9.26Q243.52-11.00 243.52-11.14Q243.52-11.29 243.12-11.72Q242.71-12.15 242.71-12.35Q242.71-12.56 243.53-13.43Q244.34-14.30 245.50-15.15Q246.66-16.00 247.28-16.00Q247.89-16.00 248.38-15.45Q248.87-14.90 248.87-14.45Q248.87-14.00 244.22-6.00L244.22-6.00Q244.16-5.88 243.90-5.48Q243.63-5.08 243.49-4.81Q243.34-4.55 243.14-4.18L243.14-4.18Q242.75-3.40 242.75-2.87L242.75-2.87Q242.75-2.21 243.65-2.21Q244.55-2.21 245.52-2.82Q246.48-3.44 247.19-4.18L247.19-4.18Q249.02-6.15 249.28-6.15L249.28-6.15Q249.79-6.15 249.79-4.39Z M258.54-3.01L258.54-3.01Q258.54-2.15 259.71-2.15L259.71-2.15Q260.33-2.15 261.28-2.77Q262.23-3.40 262.99-4.14L262.99-4.14Q265.02-6.15 265.29-6.15L265.29-6.15Q265.80-6.15 265.80-4.69Q265.80-3.22 264.88-2.68L264.88-2.68Q262.09-0.16 260.57 0.39L260.57 0.39Q259.71 0.68 258.67 0.66Q257.64 0.64 256.62-0.23Q255.61-1.11 255.61-2.37Q255.61-3.63 256.27-5.23Q256.93-6.84 257.63-7.98Q258.32-9.12 259.34-10.63Q260.35-12.15 260.41-12.52L260.41-12.52L260.37-12.56Q259.73-12.50 257.18-10.02Q254.63-7.54 252.97-5.70Q251.31-3.87 249.00-0.80L249.00-0.80Q248.36 0.04 247.95 0.04Q247.54 0.04 246.85-0.22Q246.15-0.49 246.00-0.61Q245.84-0.72 245.84-0.96Q245.84-1.19 245.98-1.53Q246.11-1.88 246.24-2.10Q246.37-2.32 246.66-2.79Q246.95-3.26 247.82-4.78Q248.69-6.29 250.49-9.30Q252.29-12.30 252.64-12.93L252.64-12.93Q253.38-14.22 253.85-14.80L253.85-14.80Q254.73-15.92 256.82-15.92L256.82-15.92Q257.29-15.92 257.29-15.33L257.29-15.33Q257.29-14.41 255.59-11.88L255.59-11.88L254.77-10.64Q258.14-14.39 260.47-15.39L260.47-15.39Q261.60-15.88 262.51-15.88Q263.42-15.88 263.96-15.39Q264.49-14.90 264.49-14.31Q264.49-13.71 264.08-12.88Q263.67-12.05 263.25-11.40Q262.83-10.74 262.15-9.75Q261.46-8.75 261.41-8.66Q261.35-8.57 261.10-8.19Q260.86-7.81 260.74-7.64Q260.63-7.46 260.35-7.02Q260.08-6.58 259.91-6.29Q259.75-6.00 259.50-5.57Q259.26-5.14 259.11-4.82Q258.96-4.51 258.81-4.14L258.81-4.14Q258.54-3.46 258.54-3.01Z M270.05-12.98Q271.93-14.28 273.75-14.98Q275.57-15.68 276.89-15.68Q278.22-15.68 278.59-14.92L278.59-14.92Q279.36-15.80 280.49-15.86L280.49-15.86Q280.82-15.88 281.31-15.88Q281.80-15.88 281.91-15.75Q282.03-15.63 282.13-15.27Q282.23-14.92 282.25-14.88Q282.27-14.84 282.27-14.76Q282.27-14.67 282.17-14.54Q282.07-14.41 281.94-14.30Q281.82-14.18 281.80-14.16L281.80-14.16Q277.48-7.97 272.97-0.04L272.97-0.04Q277.62-4.16 281.29-5.96L281.29-5.96Q281.52-6.07 281.74-6.07L281.74-6.07Q282.05-6.07 282.15-5.67Q282.25-5.27 282.25-4.53Q282.25-3.79 282.16-3.61Q282.07-3.44 281.25-2.91Q280.43-2.38 279.12-1.54Q277.81-0.70 276.35 0.31L276.35 0.31Q272.83 2.75 270.57 5.45L270.57 5.45Q267.64 8.98 266.37 11.15L266.37 11.15Q265.90 11.99 264.79 11.99L264.79 11.99Q262.58 11.99 262.58 9.90L262.58 9.90Q262.58 7.77 264.67 5.55L264.67 5.55Q266.23 3.89 267.54 2.83Q268.85 1.78 268.96 1.64L268.96 1.64Q270.41-0.53 272.89-4.51L272.89-4.51Q270.78-2.30 268.80-1.00Q266.82 0.31 265.84 0.31L265.84 0.31Q262.85 0.31 262.85-2.25L262.85-2.25Q262.85-4.28 263.89-6.35Q264.92-8.42 266.54-10.05Q268.16-11.68 270.05-12.98ZM277.48-13.48L277.48-13.48Q275.21-12.99 273.22-11.87Q271.23-10.74 269.94-9.46Q268.65-8.18 267.71-6.84L267.71-6.84Q265.96-4.32 265.96-2.93L265.96-2.93Q265.96-2.60 266.12-2.60Q266.29-2.60 266.87-2.95Q267.44-3.30 268.50-4.15Q269.55-5 270.84-6.17L270.84-6.17Q273.83-8.93 277.48-13.48Z M303.91-14.84L303.91-14.84Q305.39-14.84 305.39-13.83L305.39-13.83Q305.39-13.28 305.14-13.03Q304.88-12.77 304.05-11.34Q303.22-9.90 302.22-7.67Q301.21-5.43 300.92-3.85L300.92-3.85Q300.86-3.65 300.86-3.30L300.86-3.30Q300.86-2.23 301.45-2.23Q302.03-2.23 302.83-2.78Q303.63-3.34 304.26-3.97Q304.88-4.61 305.48-5.27Q306.07-5.94 306.19-6.04Q306.31-6.13 306.54-6.13L306.54-6.13Q306.91-6.13 306.99-5.57Q307.07-5 307.07-4.39Q307.07-3.79 306.95-3.55L306.95-3.55Q306.39-2.44 304.46-0.88Q302.54 0.68 300.97 0.68Q299.39 0.68 298.65-0.27Q297.91-1.23 297.91-2.39Q297.91-3.55 298.30-4.43L298.30-4.43Q296.68-2.32 294.58-0.86Q292.48 0.61 291.15 0.61Q289.82 0.61 288.98-0.20L288.98-0.20Q287.91-1.19 287.91-2.96Q287.91-4.73 288.70-6.51Q289.49-8.30 290.78-9.78Q292.07-11.25 293.61-12.46L293.61-12.46Q296.86-15 299.59-15L299.59-15Q300.64-15 301.31-14.65Q301.97-14.30 302.15-13.77L302.15-13.77Q302.62-14.47 302.94-14.66Q303.26-14.84 303.91-14.84ZM301.31-12.68L301.31-12.68Q297.97-12.68 294.39-8.96L294.39-8.96Q293.13-7.64 292.06-5.78Q291.00-3.93 291.00-3.24Q291.00-2.56 291.39-2.56L291.39-2.56Q291.93-2.56 294.43-4.72Q296.93-6.88 297.75-7.89L297.75-7.89Q298.65-9.02 301.31-12.68Z M315.49-3.01L315.49-3.01Q315.49-2.15 316.66-2.15L316.66-2.15Q317.29-2.15 318.23-2.77Q319.18-3.40 319.94-4.14L319.94-4.14Q321.97-6.15 322.25-6.15L322.25-6.15Q322.75-6.15 322.75-4.69Q322.75-3.22 321.84-2.68L321.84-2.68Q319.04-0.16 317.52 0.39L317.52 0.39Q316.66 0.68 315.63 0.66Q314.59 0.64 313.57-0.23Q312.56-1.11 312.56-2.37Q312.56-3.63 313.22-5.23Q313.89-6.84 314.58-7.98Q315.27-9.12 316.29-10.63Q317.30-12.15 317.36-12.52L317.36-12.52L317.32-12.56Q316.68-12.50 314.13-10.02Q311.58-7.54 309.92-5.70Q308.26-3.87 305.96-0.80L305.96-0.80Q305.31 0.04 304.90 0.04Q304.49 0.04 303.80-0.22Q303.11-0.49 302.95-0.61Q302.79-0.72 302.79-0.96Q302.79-1.19 302.93-1.53Q303.07-1.88 303.19-2.10Q303.32-2.32 303.61-2.79Q303.91-3.26 304.78-4.78Q305.64-6.29 307.44-9.30Q309.24-12.30 309.59-12.93L309.59-12.93Q310.33-14.22 310.80-14.80L310.80-14.80Q311.68-15.92 313.77-15.92L313.77-15.92Q314.24-15.92 314.24-15.33L314.24-15.33Q314.24-14.41 312.54-11.88L312.54-11.88L311.72-10.64Q315.10-14.39 317.42-15.39L317.42-15.39Q318.55-15.88 319.46-15.88Q320.37-15.88 320.91-15.39Q321.45-14.90 321.45-14.31Q321.45-13.71 321.04-12.88Q320.63-12.05 320.21-11.40Q319.79-10.74 319.10-9.75Q318.42-8.75 318.36-8.66Q318.30-8.57 318.06-8.19Q317.81-7.81 317.70-7.64Q317.58-7.46 317.30-7.02Q317.03-6.58 316.87-6.29Q316.70-6.00 316.46-5.57Q316.21-5.14 316.06-4.82Q315.92-4.51 315.76-4.14L315.76-4.14Q315.49-3.46 315.49-3.01Z M345.45-29.28Q345.82-29.28 346.04-29.04Q346.25-28.81 346.25-28.56Q346.25-28.32 345.87-27.67Q345.49-27.01 344.12-24.81Q342.75-22.62 341.99-21.37L341.99-21.37Q337.56-14.16 335.04-9.18Q332.52-4.20 332.52-3.16L332.52-3.16L332.52-3.01Q332.52-2.21 333.11-2.21Q333.69-2.21 334.52-2.75Q335.35-3.30 335.98-3.93Q336.60-4.55 337.24-5.22Q337.87-5.90 338.01-6.02Q338.14-6.13 338.36-6.13L338.36-6.13Q338.69-6.13 338.79-5.71Q338.89-5.29 338.89-4.54Q338.89-3.79 338.77-3.55L338.77-3.55Q338.20-2.46 336.28-0.89Q334.36 0.68 332.64 0.68L332.64 0.68Q329.71 0.68 329.71-1.80L329.71-1.80Q329.71-3.34 330.88-5.84L330.88-5.84Q329.30-3.79 327.66-2.34L327.66-2.34Q324.61 0.31 322.36 0.31L322.36 0.31Q321.11 0.31 320.52-0.57Q319.92-1.45 319.92-3.10Q319.92-4.75 321.21-7.05Q322.50-9.36 324.42-11.20Q326.35-13.05 328.69-14.29Q331.04-15.53 333.01-15.53L333.01-15.53Q333.63-15.53 334.47-14.77L334.47-14.77Q335.04-15.66 336.56-18.36L336.56-18.36Q341.35-26.43 342.89-28.20L342.89-28.20Q343.71-29.28 345.45-29.28L345.45-29.28ZM333.28-12.93L333.28-12.93Q330.47-12.30 328.05-10.31Q325.63-8.32 324.41-6.14Q323.20-3.96 323.20-3.32Q323.20-2.68 323.48-2.68L323.48-2.68Q324.65-2.68 329.28-7.91L329.28-7.91Q331.58-10.49 333.28-12.93Z M367.09-11.39L367.09-11.39Q367.56-11.39 367.56-10.63Q367.56-9.88 367.23-8.05L367.23-8.05Q366.97-6.82 364.41-4.53L364.41-4.53Q361.33-1.80 357.64-0.63L357.64-0.63Q355.41 0.08 353.29 0.08Q351.17 0.08 349.42-1.71Q347.68-3.50 347.68-5.95Q347.68-8.40 348.66-11.03Q349.65-13.65 351.32-16.04Q352.99-18.44 355.26-20.64Q357.54-22.85 360-24.47Q362.46-26.09 365.16-27.05Q367.85-28.01 370.27-28.01L370.27-28.01Q372.19-28.01 373.54-26.62L373.54-26.62Q374.24-25.88 374.24-24.76Q374.24-23.63 373.14-21.92Q372.05-20.21 370.56-18.81Q369.06-17.40 367.47-16.43Q365.88-15.45 364.92-15.45Q363.96-15.45 363.28-16.04Q362.60-16.64 362.60-17.11Q362.60-17.58 362.80-18.14Q363.01-18.71 363.32-18.71L363.32-18.71Q363.24-18.61 363.24-18.52L363.24-18.52Q363.24-18.28 363.92-18.28Q364.59-18.28 366.17-19.47Q367.75-20.66 369.03-22.15Q370.31-23.63 370.31-24.38L370.31-24.38Q370.31-24.88 369.63-24.88L369.63-24.88Q367.79-24.88 364.56-23.17Q361.33-21.46 358.38-18.77Q355.43-16.07 353.25-12.37Q351.07-8.67 351.07-5.72L351.07-5.72Q351.07-4.49 351.73-3.75Q352.38-3.01 353.74-3.01Q355.10-3.01 356.95-3.79Q358.81-4.57 360.48-5.70Q362.15-6.84 363.63-8.03Q365.12-9.22 366.01-10.12Q366.89-11.02 366.91-11.20Q366.93-11.39 367.09-11.39Z M381.68-14.88Q382.27-14.88 382.88-14.36Q383.50-13.83 383.50-12.74Q383.50-11.66 382.73-9.93Q381.97-8.20 380.64-6.42Q379.32-4.63 377.72-3.06Q376.13-1.48 374.29-0.48Q372.44 0.53 370.94 0.53Q369.43 0.53 368.53-0.42Q367.62-1.37 367.62-3.06Q367.62-4.75 368.45-6.80Q369.28-8.85 370.59-10.42Q371.89-11.99 373.42-13.24L373.42-13.24Q376.60-15.80 379.00-15.80L379.00-15.80Q380.08-15.80 380.63-15.27L380.63-15.27Q380.82-15.10 380.82-14.96L380.82-14.96L380.82-14.84Q381.09-14.88 381.68-14.88ZM379.71-12.29L379.71-12.29L379.57-12.29Q378.89-12.29 378.89-13.28L378.89-13.28Q377.46-12.81 375.90-11.64Q374.34-10.47 373.11-8.87L373.11-8.87Q370.61-5.66 370.57-3.46L370.57-3.46Q370.57-2.36 371.37-2.36Q372.17-2.36 373.75-3.42Q375.33-4.47 376.88-6.43Q378.44-8.38 379.21-9.81Q379.98-11.25 379.98-11.77Q379.98-12.29 379.71-12.29Z M407.60-29.28Q407.97-29.28 408.18-29.04Q408.40-28.81 408.40-28.56Q408.40-28.32 408.02-27.67Q407.64-27.01 406.27-24.81Q404.90-22.62 404.14-21.37L404.14-21.37Q399.71-14.16 397.19-9.18Q394.67-4.20 394.67-3.16L394.67-3.16L394.67-3.01Q394.67-2.21 395.25-2.21Q395.84-2.21 396.67-2.75Q397.50-3.30 398.13-3.93Q398.75-4.55 399.38-5.22Q400.02-5.90 400.16-6.02Q400.29-6.13 400.51-6.13L400.51-6.13Q400.84-6.13 400.94-5.71Q401.04-5.29 401.04-4.54Q401.04-3.79 400.92-3.55L400.92-3.55Q400.35-2.46 398.43-0.89Q396.50 0.68 394.79 0.68L394.79 0.68Q391.86 0.68 391.86-1.80L391.86-1.80Q391.86-3.34 393.03-5.84L393.03-5.84Q391.45-3.79 389.80-2.34L389.80-2.34Q386.76 0.31 384.51 0.31L384.51 0.31Q383.26 0.31 382.67-0.57Q382.07-1.45 382.07-3.10Q382.07-4.75 383.36-7.05Q384.65-9.36 386.57-11.20Q388.50-13.05 390.84-14.29Q393.18-15.53 395.16-15.53L395.16-15.53Q395.78-15.53 396.62-14.77L396.62-14.77Q397.19-15.66 398.71-18.36L398.71-18.36Q403.50-26.43 405.04-28.20L405.04-28.20Q405.86-29.28 407.60-29.28L407.60-29.28ZM395.43-12.93L395.43-12.93Q392.62-12.30 390.20-10.31Q387.77-8.32 386.56-6.14Q385.35-3.96 385.35-3.32Q385.35-2.68 385.63-2.68L385.63-2.68Q386.80-2.68 391.43-7.91L391.43-7.91Q393.73-10.49 395.43-12.93Z M412.97-14.61L412.97-14.61Q412.97-13.32 411.92-12.34Q410.88-11.37 409.55-11.37L409.55-11.37Q409.12-11.37 408.98-11.57Q408.85-11.78 408.85-12.11Q408.85-12.44 408.93-12.75L408.93-12.75Q408.22-12.52 407.36-12.03Q406.50-11.54 405.25-10.59Q404.00-9.63 404.00-9.16L404.00-9.16Q404.00-9.00 404.46-9.00Q404.92-9.00 405.88-9.33Q406.84-9.65 407.22-9.65Q407.60-9.65 407.71-9.61L407.71-9.61Q407.97-9.47 408.26-9.01Q408.55-8.55 408.55-8.29Q408.55-8.03 408.05-7.60Q407.54-7.17 406.89-6.94Q406.25-6.72 406.04-6.60L406.04-6.60Q401.91-4.30 401.91-3.44L401.91-3.44Q401.91-1.91 404.51-1.91L404.51-1.91Q406.17-1.91 407.85-2.97L407.85-2.97Q409.28-3.87 410.42-4.79Q411.56-5.72 411.87-5.94Q412.17-6.15 412.32-6.15L412.32-6.15Q412.83-6.15 412.83-5.02Q412.83-3.89 412.70-3.53Q412.56-3.16 411.91-2.64L411.91-2.64Q407.73 0.76 404.00 0.76L404.00 0.76Q402.01 0.76 400.82 0.21L400.82 0.21Q398.63-0.78 398.63-2.83L398.63-2.83Q398.63-5.53 402.36-6.91L402.36-6.91Q401.62-7.25 401.41-7.76Q401.19-8.28 401.19-9.42Q401.19-10.57 402.26-11.85Q403.32-13.13 404.86-13.95L404.86-13.95Q408.30-15.80 411.00-15.80L411.00-15.80Q411.64-15.80 412.30-15.49Q412.97-15.18 412.97-14.61Z M431.89-32.91L432.97-32.85L433.81-32.87Q434.22-32.87 434.22-32.56L434.22-32.56Q434.22-32.48 432.95-30.22Q431.68-27.97 424.82-15.15Q417.97-2.32 414.92 3.77L414.92 3.77Q414.71 4.24 414.39 4.38L414.39 4.38Q413.52 4.79 413.13 4.79L413.13 4.79L412.64 4.94Q412.52 4.94 412.20 4.82Q411.88 4.71 411.85 4.60Q411.82 4.49 411.82 4.11Q411.82 3.73 411.84 3.67L411.84 3.67Q412.23 1.93 421.32-14.95Q430.41-31.84 431.41-32.71L431.41-32.71Q431.58-32.91 431.89-32.91L431.89-32.91Z M442.81-10.92L441.89-10.68Q441.35-10.68 441.35-11.37L441.35-11.37Q441.35-11.88 441.81-12.48Q442.27-13.09 442.36-13.28Q442.46-13.48 442.88-13.89Q443.30-14.30 443.62-14.38Q443.95-14.45 444.94-14.55L444.94-14.55Q447.99-14.84 451.58-14.88L451.58-14.88Q455.49-20.80 457.95-23.67L457.95-23.67Q454.30-23.01 448.98-23.01L448.98-23.01Q441.78-23.01 441.78-26.23L441.78-26.23Q441.78-27.15 442.71-27.83Q443.63-28.52 445.05-28.52Q446.46-28.52 446.46-28.18L446.46-28.18Q446.46-28.01 446.03-28.01Q445.59-28.01 445.21-27.69Q444.82-27.36 444.82-27.07L444.82-27.07Q444.82-26.62 446.74-26.41Q448.65-26.19 452.65-26.19Q456.64-26.19 461.31-26.91L461.31-26.91Q462.85-28.18 464.21-28.83Q465.57-29.47 466.97-29.47Q468.38-29.47 468.81-28.85Q469.24-28.22 469.25-27.91Q469.26-27.60 468.79-27.09Q468.32-26.58 467.48-26.05L467.48-26.05Q465.51-24.84 462.30-24.61L462.30-24.61Q458.89-20.29 455.25-14.84L455.25-14.84Q456.76-14.79 458.07-14.62Q459.38-14.45 459.38-13.59L459.38-13.59Q459.38-13.24 458.26-12.25L458.26-12.25Q458.14-12.11 457.97-11.84L457.97-11.84Q457.66-11.37 457.35-11.37Q457.05-11.37 456.66-11.45L456.66-11.45Q455.14-11.50 454.38-11.50L454.38-11.50L453.11-11.48Q446.23-0.78 446.01-0.36Q445.78 0.06 445.52 0.27Q445.25 0.49 444.86 0.49Q444.47 0.49 443.77 0.36Q443.07 0.23 442.71 0.05Q442.36-0.14 442.36-0.42Q442.36-0.70 442.54-1.23L442.54-1.23Q443.01-2.54 449.10-11.33L449.10-11.33Q445.14-11.13 442.81-10.92L442.81-10.92ZM465.94-28.01L466.70-28.32Q466.39-28.22 465.94-28.01L465.94-28.01Z M465.96-11.88L465.14-10.64Q469.75-15.88 472.99-15.88L472.99-15.88Q473.79-15.88 474.31-15.40Q474.82-14.92 474.82-14.16Q474.82-13.40 473.74-11.61Q472.66-9.82 471.74-8.59L471.74-8.59Q471.25-7.97 470.63-7.97Q470.02-7.97 469.68-8.42Q469.34-8.87 469.34-9.47L469.34-9.47Q469.34-10.82 470.78-12.52L470.78-12.52L470.74-12.56Q470.10-12.50 467.55-10.02Q465-7.54 463.21-5.58Q461.43-3.61 459.34-0.80L459.34-0.80Q458.73 0.04 458.31 0.04Q457.89 0.04 457.20-0.22Q456.50-0.49 456.36-0.61Q456.21-0.72 456.21-1.00Q456.21-1.27 456.37-1.63Q456.52-1.99 456.94-2.66Q457.36-3.32 458.21-4.80Q459.06-6.29 460.86-9.30Q462.66-12.30 463.01-12.93L463.01-12.93Q463.75-14.22 464.22-14.80L464.22-14.80Q465.10-15.92 467.19-15.92L467.19-15.92Q467.66-15.92 467.66-15.33L467.66-15.33Q467.66-14.41 465.96-11.88L465.96-11.88Z"/></g>
</svg>
</g></g></svg></svg>