<svg version="1.1" preserveAspectRatio="none" xmlns="http://www.w3.org/2000/svg" width="500" height="500" viewBox="0 0 500 500"><rect width="100%" height="100%" fill="#14051E" fill-opacity="1"/><svg viewBox="29.686 288.3391 458.0044 312.849" width="333" height="227.4622623712785" x="83.5px" y="136.2689px" xmlns="http://www.w3.org/2000/svg" xmlns:xlink="http://www.w3.org/1999/xlink" preserveAspectRatio="none"><defs></defs><style>.companyName {fill:#E93232;fill-opacity:1;}.icon1 {fill:#907DB3;fill-opacity:1;}.icon2 {fill:#D6C7F4;fill-opacity:1;}.icon3 {fill:#6A588A;fill-opacity:1;}.icon3-str {stroke:#6A588A;stroke-opacity:1;}.text {fill:#907DB3;fill-opacity:1;}</style><g opacity="1" transform="rotate(0 29.686 573.1881)">
<svg width="458.0044" height="28" x="29.686" y="573.1881" version="1.1" preserveAspectRatio="none" viewBox="2.4 -25.44 568.5200000000001 34.760000000000005">
  <g transform="matrix(1 0 0 1 0 0)" class="text"><path id="id-6izo4zJp30" d="M19.44-5.40L19.44-5.40Q19.32-4.92 18.86-4.24Q18.40-3.56 17.72-2.86Q17.04-2.16 16.26-1.60Q15.48-1.04 14.76-0.80L14.76-0.80Q12.68 0.12 10.08 0.12L10.08 0.12Q9.24 0.12 8.62 0.08Q8 0.04 7.40-0.16Q6.80-0.36 6.20-0.80Q5.60-1.24 4.84-2.08L4.84-2.08Q4-2.96 3.52-3.82Q3.04-4.68 2.80-5.48Q2.56-6.28 2.48-7.02Q2.40-7.76 2.40-8.36L2.40-8.36Q2.40-9.68 2.72-11.48Q3.04-13.28 4.44-15.88L4.44-15.88Q4.96-16.84 5.24-17.40Q5.52-17.96 5.56-18.16L5.56-18.16L8.04-19.68Q9.32-20.44 10.48-20.90Q11.64-21.36 13.04-21.36L13.04-21.36Q13.44-21.36 14.24-21.36Q15.04-21.36 15.82-21.18Q16.60-21 17.20-20.54Q17.80-20.08 17.80-19.20L17.80-19.20Q17.80-17.72 16.04-17.48L16.04-17.48Q16.08-17.48 15.80-17.52Q15.52-17.56 15.04-17.60Q14.56-17.64 13.96-17.68Q13.36-17.72 12.76-17.72L12.76-17.72Q11.72-17.72 10.66-17.14Q9.60-16.56 8.08-15.16L8.08-15.16Q7.28-13.48 6.90-12.54Q6.52-11.60 6.52-11.28L6.52-11.28Q6.08-10.48 6.08-8.92L6.08-8.92Q6.08-6.04 7.12-4.78Q8.16-3.52 9.96-3.52L9.96-3.52Q11.12-3.52 13.56-4.16L13.56-4.16Q15.04-5.04 16.12-6.96L16.12-6.96Q16.80-7.64 17.52-7.64L17.52-7.64Q18.28-7.64 18.88-7.04Q19.48-6.44 19.48-5.68L19.48-5.68Q19.48-5.60 19.46-5.54Q19.44-5.48 19.44-5.40Z M34.84-1L34.84-1Q34.32-0.64 33.16-0.30Q32 0.04 30.76 0.28L30.76 0.28L29.12-0.04Q28.76-0.16 27.94-0.60Q27.12-1.04 26.28-1.94Q25.44-2.84 24.80-4.26Q24.16-5.68 24.16-7.72L24.16-7.72Q24.16-8.44 24.50-9.42Q24.84-10.40 25.52-11.26Q26.20-12.12 27.22-12.72Q28.24-13.32 29.60-13.32L29.60-13.32Q32.32-13.32 34.52-11.56L34.52-11.56Q36.44-8.92 36.44-5.72L36.44-5.72Q36.44-3.36 34.84-1ZM32.88-6.68L32.88-6.68Q32.68-8.24 31.90-9.14Q31.12-10.04 29.92-10.04L29.92-10.04Q29.12-10.04 28.42-9.26Q27.72-8.48 27.72-7L27.72-7Q27.72-6.40 27.88-5.74Q28.04-5.08 28.40-4.54Q28.76-4 29.32-3.66Q29.88-3.32 30.68-3.32L30.68-3.32Q31.96-3.32 32.44-4.10Q32.92-4.88 32.92-6.04L32.92-6.04Q32.92-6.20 32.90-6.34Q32.88-6.48 32.88-6.68Z M64.72-2.52L64.72-2.28Q64.72-1.76 64.14-1.42Q63.56-1.08 62.88-1.08L62.88-1.08Q62.08-1.08 61.70-1.60Q61.32-2.12 61.16-2.94Q61-3.76 60.98-4.76Q60.96-5.76 60.92-6.68L60.92-6.68Q60.84-6.96 60.72-7.48Q60.60-8 60.52-8.80L60.52-8.80Q59.44-10 57.92-10L57.92-10Q57.36-10 56.80-9.90Q56.24-9.80 55.76-9.46Q55.28-9.12 54.88-8.44Q54.48-7.76 54.24-6.60L54.24-6.60Q54.28-6.40 54.28-5.88L54.28-5.88Q54.28-5.44 54.22-4.82Q54.16-4.20 54.08-3.40L54.08-3.40L54.08-3.20Q54.08-3.04 54.08-2.42Q54.08-1.80 53.92-1.14Q53.76-0.48 53.34 0.04Q52.92 0.56 52.12 0.56L52.12 0.56Q51.40 0.56 50.84 0.14Q50.28-0.28 50.28-0.88L50.28-0.88Q50.28-0.96 50.34-1.48Q50.40-2 50.50-2.66Q50.60-3.32 50.66-3.98Q50.72-4.64 50.72-5.04L50.72-5.04Q50.72-5.72 50.60-6.40L50.60-6.40L50.60-6.92Q50.60-8.96 49.80-10.76L49.80-10.76Q49.20-11.24 47.92-11.40L47.92-11.40Q47.68-11.32 47.32-11.16Q46.96-11 46.60-10.50Q46.24-10 45.96-9.08Q45.68-8.16 45.56-6.60L45.56-6.60L45.44-4.96Q45.68-3.76 45.68-2.88L45.68-2.88Q45.68-1.84 45.34-1.22Q45-0.60 43.84-0.60L43.84-0.60Q43.24-0.60 42.86-0.74Q42.48-0.88 42.26-1.38Q42.04-1.88 41.96-2.86Q41.88-3.84 41.88-5.48L41.88-5.48Q41.88-6.80 42.04-8.06Q42.20-9.32 42.52-11.32L42.52-11.32Q42.40-12 42.18-12.58Q41.96-13.16 41.96-13.48L41.96-13.48Q41.96-14.16 42.56-14.68Q43.16-15.20 43.96-15.20L43.96-15.20Q44.56-15.20 45.04-14.84L45.04-14.84L45.72-13.96Q46.20-14.36 46.56-14.58Q46.92-14.80 47.20-14.92Q47.48-15.04 47.76-15.06Q48.04-15.08 48.40-15.08L48.40-15.08Q48.92-15.08 49.22-15.08Q49.52-15.08 49.84-14.96Q50.16-14.84 50.58-14.58Q51-14.32 51.76-13.80L51.76-13.80Q52.24-13.48 53.04-11.72L53.04-11.72L53.28-12Q53.60-12.28 54.16-12.56Q54.72-12.84 55.38-13.06Q56.04-13.28 56.74-13.42Q57.44-13.56 58-13.56L58-13.56Q59.32-13.56 60.28-13.30Q61.24-13.04 61.92-12.54Q62.60-12.04 63.12-11.26Q63.64-10.48 64.12-9.48L64.12-9.48L64.12-9.20Q64.12-8.88 64.20-8.04Q64.28-7.20 64.36-6.36Q64.44-5.52 64.52-4.90Q64.60-4.28 64.60-4.36L64.60-4.36Q64.60-4.32 64.62-4.10Q64.64-3.88 64.66-3.58Q64.68-3.28 64.70-2.98Q64.72-2.68 64.72-2.52L64.72-2.52Z M93.88-2.52L93.88-2.28Q93.88-1.76 93.30-1.42Q92.72-1.08 92.04-1.08L92.04-1.08Q91.24-1.08 90.86-1.60Q90.48-2.12 90.32-2.94Q90.16-3.76 90.14-4.76Q90.12-5.76 90.08-6.68L90.08-6.68Q90-6.96 89.88-7.48Q89.76-8 89.68-8.80L89.68-8.80Q88.60-10 87.08-10L87.08-10Q86.52-10 85.96-9.90Q85.40-9.80 84.92-9.46Q84.44-9.12 84.04-8.44Q83.64-7.76 83.40-6.60L83.40-6.60Q83.44-6.40 83.44-5.88L83.44-5.88Q83.44-5.44 83.38-4.82Q83.32-4.20 83.24-3.40L83.24-3.40L83.24-3.20Q83.24-3.04 83.24-2.42Q83.24-1.80 83.08-1.14Q82.92-0.48 82.50 0.04Q82.08 0.56 81.28 0.56L81.28 0.56Q80.56 0.56 80 0.14Q79.44-0.28 79.44-0.88L79.44-0.88Q79.44-0.96 79.50-1.48Q79.56-2 79.66-2.66Q79.76-3.32 79.82-3.98Q79.88-4.64 79.88-5.04L79.88-5.04Q79.88-5.72 79.76-6.40L79.76-6.40L79.76-6.92Q79.76-8.96 78.96-10.76L78.96-10.76Q78.36-11.24 77.08-11.40L77.08-11.40Q76.84-11.32 76.48-11.16Q76.12-11 75.76-10.50Q75.40-10 75.12-9.08Q74.84-8.16 74.72-6.60L74.72-6.60L74.60-4.96Q74.84-3.76 74.84-2.88L74.84-2.88Q74.84-1.84 74.50-1.22Q74.16-0.60 73-0.60L73-0.60Q72.40-0.60 72.02-0.74Q71.64-0.88 71.42-1.38Q71.20-1.88 71.12-2.86Q71.04-3.84 71.04-5.48L71.04-5.48Q71.04-6.80 71.20-8.06Q71.36-9.32 71.68-11.32L71.68-11.32Q71.56-12 71.34-12.58Q71.12-13.16 71.12-13.48L71.12-13.48Q71.12-14.16 71.72-14.68Q72.32-15.20 73.12-15.20L73.12-15.20Q73.72-15.20 74.20-14.84L74.20-14.84L74.88-13.96Q75.36-14.36 75.72-14.58Q76.08-14.80 76.36-14.92Q76.64-15.04 76.92-15.06Q77.20-15.08 77.56-15.08L77.56-15.08Q78.08-15.08 78.38-15.08Q78.68-15.08 79-14.96Q79.32-14.84 79.74-14.58Q80.16-14.32 80.92-13.80L80.92-13.80Q81.40-13.48 82.20-11.72L82.20-11.72L82.44-12Q82.76-12.28 83.32-12.56Q83.88-12.84 84.54-13.06Q85.20-13.28 85.90-13.42Q86.60-13.56 87.16-13.56L87.16-13.56Q88.48-13.56 89.44-13.30Q90.40-13.04 91.08-12.54Q91.76-12.04 92.28-11.26Q92.80-10.48 93.28-9.48L93.28-9.48L93.28-9.20Q93.28-8.88 93.36-8.04Q93.44-7.20 93.52-6.36Q93.60-5.52 93.68-4.90Q93.76-4.28 93.76-4.36L93.76-4.36Q93.76-4.32 93.78-4.10Q93.80-3.88 93.82-3.58Q93.84-3.28 93.86-2.98Q93.88-2.68 93.88-2.52L93.88-2.52Z M113.44-14.36L113.44-14.36Q113.52-13.88 113.52-13.40Q113.52-12.92 113.52-12.48L113.52-12.48Q113.52-10.64 113.12-9.16L113.12-9.16Q112.96-8.16 112.88-7.10Q112.80-6.04 112.72-4.88L112.72-4.88Q112.72-4.80 112.82-4.02Q112.92-3.24 112.92-1.72L112.92-1.72Q112.92-1.04 112.38-0.70Q111.84-0.36 111.12-0.36L111.12-0.36Q110.24-0.36 109.88-0.74Q109.52-1.12 109.44-2.56L109.44-2.56Q108.76-1.92 108.12-1.58Q107.48-1.24 106.90-1.08Q106.32-0.92 105.82-0.88Q105.32-0.84 104.88-0.84L104.88-0.84Q102.60-0.84 101.44-2.20Q100.28-3.56 100.28-5.96L100.28-5.96Q100.28-6.24 100.28-6.54Q100.28-6.84 100.32-7.24L100.32-7.24Q100.28-7.32 100.28-7.60L100.28-7.60Q100.28-8.04 100.30-8.50Q100.32-8.96 100.44-9.64Q100.56-10.32 100.82-11.34Q101.08-12.36 101.56-13.96L101.56-13.96Q102.08-14.60 102.96-14.60L102.96-14.60Q103.64-14.60 104.14-14.24Q104.64-13.88 104.64-13.12L104.64-13.12Q104.64-12.92 104.52-12.32Q104.40-11.72 104.24-11Q104.08-10.28 103.96-9.56Q103.84-8.84 103.84-8.44L103.84-8.44L103.84-8.24Q103.76-7.80 103.72-7.38Q103.68-6.96 103.68-6.60L103.68-6.60Q103.68-5.56 103.98-4.88Q104.28-4.20 105.28-4.20L105.28-4.20Q106-4.20 106.64-4.54Q107.28-4.88 107.82-5.38Q108.36-5.88 108.76-6.46Q109.16-7.04 109.36-7.56L109.36-7.56Q109.56-9.04 110.08-11.44L110.08-11.44L110.08-11.84Q110.08-12.52 110.14-13.16Q110.20-13.80 110.38-14.30Q110.56-14.80 110.92-15.10Q111.28-15.40 111.92-15.40L111.92-15.40Q113.12-15.40 113.44-14.36Z M132.40-4.44L132.40-4.44L132.40-4.12Q132.40-3.88 132.42-3.26Q132.44-2.64 132.30-2Q132.16-1.36 131.76-0.86Q131.36-0.36 130.56-0.36L130.56-0.36Q129-0.36 128.72-1.60L128.72-1.60Q128.76-1.84 128.76-2.14Q128.76-2.44 128.76-2.80L128.76-2.80Q128.76-2.96 128.76-3.98Q128.76-5 128.70-6.20Q128.64-7.40 128.44-8.46Q128.24-9.52 127.84-9.80L127.84-9.80Q126.92-10.44 126.20-10.44L126.20-10.44Q125.24-10.44 124.58-9.86Q123.92-9.28 123.48-7.60L123.48-7.60Q123.44-7.04 123.40-6.34Q123.36-5.64 123.28-4.76L123.28-4.76Q123.28-4.08 123.32-3.26Q123.36-2.44 123.44-1.40L123.44-1.40Q123.44-0.64 122.84-0.14Q122.24 0.36 121.48 0.36L121.48 0.36Q120.88 0.36 120.52 0.04Q120.16-0.28 119.98-0.80Q119.80-1.32 119.74-1.92Q119.68-2.52 119.68-3.12L119.68-3.12Q119.68-3.56 119.72-4.02Q119.76-4.48 119.84-4.96L119.84-4.96L120.16-8.80L120.48-10.72Q120.40-11.20 120.16-11.76Q119.92-12.32 119.92-12.64L119.92-12.64Q119.92-13.32 120.46-13.88Q121-14.44 121.80-14.44L121.80-14.44Q122.36-14.44 122.64-14.22Q122.92-14 123.56-13.16L123.56-13.16Q124.36-13.52 124.84-13.62Q125.32-13.72 125.96-13.72L125.96-13.72Q128.04-13.72 129.62-12.74Q131.20-11.76 131.60-9.48L131.60-9.48Q131.72-8.64 131.82-8.08Q131.92-7.52 132-7Q132.08-6.48 132.16-5.90Q132.24-5.32 132.40-4.44Z M144.76-18.84L144.76-18.84Q144.84-18.52 144.84-18.24L144.84-18.24Q144.84-16.96 144.08-16.08L144.08-16.08Q142.88-15.60 141.68-15.60L141.68-15.60Q140.92-16.08 140.42-16.70Q139.92-17.32 139.92-17.92L139.92-17.92Q139.92-18.44 141.12-20.48L141.12-20.48Q141.64-20.40 142.22-20.36Q142.80-20.32 143.30-20.16Q143.80-20 144.18-19.70Q144.56-19.40 144.76-18.84ZM143.48-12.16L143.48-12.16L143.48-11.64Q143.48-11.44 143.48-11.20Q143.48-10.96 143.40-10.76L143.40-10.76L143.08-8.96L143.08-8.60Q143.08-8.36 143.04-7.96Q143-7.56 142.94-7.16Q142.88-6.76 142.84-6.40Q142.80-6.04 142.80-5.80L142.80-5.80Q142.80-5.60 142.82-5.48Q142.84-5.36 142.84-5.16L142.84-5.16Q142.84-4.80 142.76-4.38Q142.68-3.96 142.68-3.44L142.68-3.44Q142.68-2.96 142.80-2.44L142.80-2.44Q142.36-0.64 140.96-0.64L140.96-0.64Q139-0.64 139-4.32L139-4.32Q139-5.56 139.12-6.78Q139.24-8 139.40-9.04Q139.56-10.08 139.74-10.86Q139.92-11.64 140.04-12.08L140.04-12.08Q140.64-12.96 141.72-12.96L141.72-12.96Q142.76-12.96 143.48-12.16Z M160.56-15.08L160.56-15.08Q161.00-14.72 161.00-13.76L161.00-13.76Q161.00-12 159.68-12L159.68-12L159.52-12Q158.92-11.96 158.12-11.90Q157.32-11.84 156.32-11.72L156.32-11.72Q156.24-11.08 156.16-10.02Q156.08-8.96 156.08-7.48L156.08-7.48Q156.08-7.36 156.10-7.24Q156.12-7.12 156.12-6.96L156.12-6.96L156.12-5.12Q156.12-4.48 156.34-4.10Q156.56-3.72 156.88-3.56L156.88-3.56L158.00-3.20Q159.32-2.76 159.32-1.60L159.32-1.60Q159.32-0.92 158.78-0.40Q158.24 0.12 157.40 0.12L157.40 0.12Q157.16 0.12 156.58-0.02Q156.00-0.16 155.38-0.40Q154.76-0.64 154.22-1Q153.68-1.36 153.48-1.80L153.48-1.80Q153.04-2.72 152.76-3.74Q152.48-4.76 152.48-5.88L152.48-5.88Q152.48-7.12 152.52-7.64Q152.56-8.16 152.60-8.56Q152.64-8.96 152.68-9.52Q152.72-10.08 152.72-11.36L152.72-11.36Q151.96-11.28 150.48-10.88L150.48-10.88Q149.60-10.88 148.98-11.34Q148.36-11.80 148.36-12.56L148.36-12.56Q148.36-13.12 148.70-13.60Q149.04-14.08 150.12-14.44L150.12-14.44Q150.48-14.56 150.78-14.60Q151.08-14.64 151.38-14.68Q151.68-14.72 152.04-14.74Q152.40-14.76 152.92-14.84L152.92-14.84Q152.96-15.84 153.06-17.10Q153.16-18.36 153.42-19.44Q153.68-20.52 154.18-21.26Q154.68-22 155.52-22L155.52-22Q156.96-22 157.28-20.68L157.28-20.68Q157.28-20.64 157.18-20.14Q157.08-19.64 156.96-19.04Q156.84-18.44 156.74-17.88Q156.64-17.32 156.64-17.16L156.64-17.16L156.52-15.20Q156.80-15.24 157.04-15.26Q157.28-15.28 157.56-15.28L157.56-15.28L157.92-15.28Q158.20-15.28 158.44-15.30Q158.68-15.32 158.88-15.32L158.88-15.32Q160.08-15.32 160.56-15.08Z M178.76-11.76L178.76-11.76Q178.72-10.88 178.68-10.52Q178.64-10.16 178.46-9.74Q178.28-9.32 177.88-8.52Q177.48-7.72 176.76-5.96L176.76-5.96Q176.44-4.08 175.16-2.24L175.16-2.24Q174.52-0.28 173.72 0.56L173.72 0.56Q173.60 0.92 173.16 1.68Q172.72 2.44 172.22 3.30Q171.72 4.16 171.26 4.98Q170.80 5.80 170.60 6.24L170.60 6.24Q170.52 6.44 170.24 6.94Q169.96 7.44 169.58 7.96Q169.20 8.48 168.70 8.90Q168.20 9.32 167.72 9.32L167.72 9.32Q167.00 9.32 166.38 8.86Q165.76 8.40 165.76 7.76L165.76 7.76Q165.76 7.44 166.04 6.94Q166.32 6.44 166.72 5.86Q167.12 5.28 167.56 4.66Q168.00 4.04 168.32 3.52L168.32 3.52Q168.44 3.20 168.76 2.56Q169.08 1.92 169.46 1.22Q169.84 0.52 170.18-0.14Q170.52-0.80 170.64-1.16L170.64-1.16Q170.52-1.24 170.20-1.58Q169.88-1.92 169.50-2.30Q169.12-2.68 168.72-3.04Q168.32-3.40 168.00-3.56L168.00-3.56Q167.56-4.20 167.24-4.56Q166.92-4.92 166.66-5.16Q166.40-5.40 166.12-5.64Q165.84-5.88 165.50-6.32Q165.16-6.76 164.66-7.48Q164.16-8.20 163.48-9.40L163.48-9.40Q163.44-9.52 163.44-9.76L163.44-9.76Q163.44-10.56 164.02-11.20Q164.60-11.84 165.24-11.84L165.24-11.84Q165.68-11.84 166.24-11.42Q166.80-11 167.52-9.92L167.52-9.92Q168.28-8.72 168.70-8.16Q169.12-7.60 169.42-7.26Q169.72-6.92 170.06-6.62Q170.40-6.32 171.04-5.64L171.04-5.64Q171.52-5.40 172.32-4.48L172.32-4.48L173.76-8.36Q174.20-9.40 174.66-10.50Q175.12-11.60 175.28-12.60L175.28-12.60Q176.16-13.20 177.04-13.20L177.04-13.20Q178.52-13.20 178.76-11.76Z M207.28-12.24L207.28-12.24Q207.28-11.96 207.32-10.92Q207.36-9.88 207.36-8.08L207.36-8.08Q207.36-7.40 207.32-6.92Q207.28-6.44 207.20-6.20L207.20-6.20Q207.28-5.88 207.28-5.52Q207.28-5.16 207.28-4.80L207.28-4.80Q207.28-4 207.18-3.14Q207.08-2.28 207.04-1.48L207.04-1.48Q207.16-0.68 207.16 0.16L207.16 0.16Q207.16 0.84 207.08 1.56Q207 2.28 206.84 3.08L206.84 3.08Q206.64 3.92 205.20 3.92L205.20 3.92Q204.40 3.92 204.02 3.52Q203.64 3.12 203.46 2.50Q203.28 1.88 203.28 1.06Q203.28 0.24 203.28-0.60L203.28-0.60Q203.28-1.88 203.44-3.58Q203.60-5.28 203.60-6.80L203.60-6.80Q203.60-8.28 203.36-9.60L203.36-9.60Q203.40-9.76 203.46-10.50Q203.52-11.24 203.56-12.08Q203.60-12.92 203.64-13.66Q203.68-14.40 203.72-14.56L203.72-14.56Q203.60-15.16 203.60-17.08L203.60-17.08Q203.60-19.96 203.68-21.64Q203.76-23.32 203.96-24.16Q204.16-25 204.52-25.22Q204.88-25.44 205.48-25.44L205.48-25.44Q206.64-25.44 206.98-24.82Q207.32-24.20 207.32-22.56L207.32-22.56Q207.32-22.12 207.32-21.58Q207.32-21.04 207.24-20.40L207.24-20.40Q207.24-20.24 207.28-18.48Q207.32-16.72 207.32-14.24L207.32-14.24Q207.32-13.68 207.30-13.18Q207.28-12.68 207.28-12.24Z M233.76-0.92L233.76-0.92Q233.64-0.68 233.64-0.16L233.64-0.16Q233.64 0.16 233.68 0.64Q233.72 1.12 233.72 1.44L233.72 1.44Q233.72 2.20 233.24 2.52Q232.76 2.84 232.08 2.84L232.08 2.84Q231.08 2.84 230.24 2.12L230.24 2.12Q230.24 2 230.26 1.84Q230.28 1.68 230.28 1.48L230.28 1.48Q230.28 0.80 230.20 0.12Q230.12-0.56 230.12-0.52L230.12-0.52L230.20-2.04Q227.96-0.32 226.32-0.20L226.32-0.20Q225.48-0.12 224.86-0.08Q224.24-0.04 223.80 0L223.80 0Q223.32 0.04 222.96 0.08L222.96 0.08L223 0.08Q221.68 0.08 220.34-0.50Q219-1.08 217.92-2.10Q216.84-3.12 216.16-4.50Q215.48-5.88 215.48-7.44L215.48-7.44Q215.48-8.20 215.66-9.42Q215.84-10.64 216.14-11.92Q216.44-13.20 216.78-14.36Q217.12-15.52 217.48-16.16L217.48-16.16Q218.08-17.28 219.60-18.68L219.60-18.68Q220.60-19.24 221.86-19.90Q223.12-20.56 224.72-21.28L224.72-21.28L228.96-22Q231.48-21.72 232.72-21.08Q233.96-20.44 233.96-19L233.96-19Q233.96-17.52 232.40-17.52L232.40-17.52Q231.80-17.52 231.08-17.78Q230.36-18.04 229.52-18.08L229.52-18.08Q229-18.12 228.52-18.12Q228.04-18.12 227.52-18.12L227.52-18.12Q225.08-17.64 223.76-16.80L223.76-16.80Q222.88-16.64 222.04-15.86Q221.20-15.08 220.56-13.88Q219.92-12.68 219.52-11.16Q219.12-9.64 219.12-8.04L219.12-8.04Q219.12-6.36 219.76-5.28Q220.40-4.20 222.36-3.60L222.36-3.60Q222.64-3.48 223.20-3.48L223.20-3.48Q224.64-3.48 225.42-3.64Q226.20-3.80 226.82-4.16Q227.44-4.52 228.10-5.08Q228.76-5.64 229.96-6.44L229.96-6.44L229.96-7.04Q229.84-7.52 229-7.78Q228.16-8.04 227.20-8.12L227.20-8.12Q226.08-8.24 224.64-8.24L224.64-8.24Q223.68-9.12 223.68-10.08L223.68-10.08Q223.68-11.36 225-11.72L225-11.72L224.96-11.72Q224.96-11.80 225.66-11.64Q226.36-11.48 227.64-11.48L227.64-11.48Q228-11.48 228.24-11.56L228.24-11.56Q228.76-11.52 229.46-11.36Q230.16-11.20 230.88-10.96Q231.60-10.72 232.18-10.46Q232.76-10.20 233.04-10L233.04-10Q233.76-9.44 233.76-7.28L233.76-7.28Q233.76-6.32 233.52-5.56L233.52-5.56Q233.60-5.24 233.64-4.50Q233.68-3.76 233.72-2.96Q233.76-2.16 233.76-1.54Q233.76-0.92 233.76-0.92Z M255.04-4.72L255.04-4.72Q255.76-4.24 255.76-3.56L255.76-3.56Q255.76-3.20 255.56-2.82Q255.36-2.44 255.04-2.14Q254.72-1.84 254.36-1.64Q254-1.44 253.64-1.44L253.64-1.44Q253.32-1.56 252.88-1.86Q252.44-2.16 252-2.54Q251.56-2.92 251.18-3.40Q250.80-3.88 250.60-4.36L250.60-4.36L250.32-3.68Q249.56-2.24 247.92-0.96L247.92-0.96Q245.92-0.60 245.60-0.60L245.60-0.60Q244.84-0.60 243.76-0.84L243.76-0.84L241.56-2.40Q240.12-3.76 240.12-6.12L240.12-6.12Q240.12-6.96 240.38-7.98Q240.64-9 241.14-10.04Q241.64-11.08 242.36-12.08Q243.08-13.08 244.04-13.88L244.04-13.88Q245.20-14.32 246.28-14.62Q247.36-14.92 247.92-15L247.92-15Q248.68-15.84 249.72-15.84L249.72-15.84Q250.32-15.84 250.78-15.26Q251.24-14.68 251.58-13.80Q251.92-12.92 252.12-11.86Q252.32-10.80 252.40-9.84L252.40-9.84L252.92-7.72Q253.16-6.72 253.70-6Q254.24-5.28 255.04-4.72ZM248.96-9.16L248.96-9.16Q248.88-9.20 248.36-11.68L248.36-11.68Q248.16-11.68 247.76-11.68Q247.36-11.68 246.82-11.46Q246.28-11.24 245.66-10.70Q245.04-10.16 244.48-9.08L244.48-9.08Q243.64-7.52 243.64-5.96L243.64-5.96Q244.32-4.64 245.76-3.88L245.76-3.88Q246.20-4 246.50-4.16Q246.80-4.32 247.04-4.60Q247.28-4.88 247.50-5.30Q247.72-5.72 248-6.36L248-6.36Q248.52-7.28 248.74-7.98Q248.96-8.68 248.96-9.16Z M282.56-2.52L282.56-2.28Q282.56-1.76 281.98-1.42Q281.40-1.08 280.72-1.08L280.72-1.08Q279.92-1.08 279.54-1.60Q279.16-2.12 279-2.94Q278.84-3.76 278.82-4.76Q278.80-5.76 278.76-6.68L278.76-6.68Q278.68-6.96 278.56-7.48Q278.44-8 278.36-8.80L278.36-8.80Q277.28-10 275.76-10L275.76-10Q275.20-10 274.64-9.90Q274.08-9.80 273.60-9.46Q273.12-9.12 272.72-8.44Q272.32-7.76 272.08-6.60L272.08-6.60Q272.12-6.40 272.12-5.88L272.12-5.88Q272.12-5.44 272.06-4.82Q272-4.20 271.92-3.40L271.92-3.40L271.92-3.20Q271.92-3.04 271.92-2.42Q271.92-1.80 271.76-1.14Q271.60-0.48 271.18 0.04Q270.76 0.56 269.96 0.56L269.96 0.56Q269.24 0.56 268.68 0.14Q268.12-0.28 268.12-0.88L268.12-0.88Q268.12-0.96 268.18-1.48Q268.24-2 268.34-2.66Q268.44-3.32 268.50-3.98Q268.56-4.64 268.56-5.04L268.56-5.04Q268.56-5.72 268.44-6.40L268.44-6.40L268.44-6.92Q268.44-8.96 267.64-10.76L267.64-10.76Q267.04-11.24 265.76-11.40L265.76-11.40Q265.52-11.32 265.16-11.16Q264.80-11 264.44-10.50Q264.08-10 263.80-9.08Q263.52-8.16 263.40-6.60L263.40-6.60L263.28-4.96Q263.52-3.76 263.52-2.88L263.52-2.88Q263.52-1.84 263.18-1.22Q262.84-0.60 261.68-0.60L261.68-0.60Q261.08-0.60 260.70-0.74Q260.32-0.88 260.10-1.38Q259.88-1.88 259.80-2.86Q259.72-3.84 259.72-5.48L259.72-5.48Q259.72-6.80 259.88-8.06Q260.04-9.32 260.36-11.32L260.36-11.32Q260.24-12 260.02-12.58Q259.80-13.16 259.80-13.48L259.80-13.48Q259.80-14.16 260.40-14.68Q261-15.20 261.80-15.20L261.80-15.20Q262.40-15.20 262.88-14.84L262.88-14.84L263.56-13.96Q264.04-14.36 264.40-14.58Q264.76-14.80 265.04-14.92Q265.32-15.04 265.60-15.06Q265.88-15.08 266.24-15.08L266.24-15.08Q266.76-15.08 267.06-15.08Q267.36-15.08 267.68-14.96Q268-14.84 268.42-14.58Q268.84-14.32 269.60-13.80L269.60-13.80Q270.08-13.48 270.88-11.72L270.88-11.72L271.12-12Q271.44-12.28 272-12.56Q272.56-12.84 273.22-13.06Q273.88-13.28 274.58-13.42Q275.28-13.56 275.84-13.56L275.84-13.56Q277.16-13.56 278.12-13.30Q279.08-13.04 279.76-12.54Q280.44-12.04 280.96-11.26Q281.48-10.48 281.96-9.48L281.96-9.48L281.96-9.20Q281.96-8.88 282.04-8.04Q282.12-7.20 282.20-6.36Q282.28-5.52 282.36-4.90Q282.44-4.28 282.44-4.36L282.44-4.36Q282.44-4.32 282.46-4.10Q282.48-3.88 282.50-3.58Q282.52-3.28 282.54-2.98Q282.56-2.68 282.56-2.52L282.56-2.52Z M294.92-18.84L294.92-18.84Q295.00-18.52 295.00-18.24L295.00-18.24Q295.00-16.96 294.24-16.08L294.24-16.08Q293.04-15.60 291.84-15.60L291.84-15.60Q291.08-16.08 290.58-16.70Q290.08-17.32 290.08-17.92L290.08-17.92Q290.08-18.44 291.28-20.48L291.28-20.48Q291.80-20.40 292.38-20.36Q292.96-20.32 293.46-20.16Q293.96-20 294.34-19.70Q294.72-19.40 294.92-18.84ZM293.64-12.16L293.64-12.16L293.64-11.64Q293.64-11.44 293.64-11.20Q293.64-10.96 293.56-10.76L293.56-10.76L293.24-8.96L293.24-8.60Q293.24-8.36 293.20-7.96Q293.16-7.56 293.10-7.16Q293.04-6.76 293.00-6.40Q292.96-6.04 292.96-5.80L292.96-5.80Q292.96-5.60 292.98-5.48Q293.00-5.36 293.00-5.16L293.00-5.16Q293.00-4.80 292.92-4.38Q292.84-3.96 292.84-3.44L292.84-3.44Q292.84-2.96 292.96-2.44L292.96-2.44Q292.52-0.64 291.12-0.64L291.12-0.64Q289.16-0.64 289.16-4.32L289.16-4.32Q289.16-5.56 289.28-6.78Q289.40-8 289.56-9.04Q289.72-10.08 289.90-10.86Q290.08-11.64 290.20-12.08L290.20-12.08Q290.80-12.96 291.88-12.96L291.88-12.96Q292.92-12.96 293.64-12.16Z M313.88-4.44L313.88-4.44L313.88-4.12Q313.88-3.88 313.90-3.26Q313.92-2.64 313.78-2Q313.64-1.36 313.24-0.86Q312.84-0.36 312.04-0.36L312.04-0.36Q310.48-0.36 310.20-1.60L310.20-1.60Q310.24-1.84 310.24-2.14Q310.24-2.44 310.24-2.80L310.24-2.80Q310.24-2.96 310.24-3.98Q310.24-5 310.18-6.20Q310.12-7.40 309.92-8.46Q309.72-9.52 309.32-9.80L309.32-9.80Q308.40-10.44 307.68-10.44L307.68-10.44Q306.72-10.44 306.06-9.86Q305.40-9.28 304.96-7.60L304.96-7.60Q304.92-7.04 304.88-6.34Q304.84-5.64 304.76-4.76L304.76-4.76Q304.76-4.08 304.80-3.26Q304.84-2.44 304.92-1.40L304.92-1.40Q304.92-0.64 304.32-0.14Q303.72 0.36 302.96 0.36L302.96 0.36Q302.36 0.36 302.00 0.04Q301.64-0.28 301.46-0.80Q301.28-1.32 301.22-1.92Q301.16-2.52 301.16-3.12L301.16-3.12Q301.16-3.56 301.20-4.02Q301.24-4.48 301.32-4.96L301.32-4.96L301.64-8.80L301.96-10.72Q301.88-11.20 301.64-11.76Q301.40-12.32 301.40-12.64L301.40-12.64Q301.40-13.32 301.94-13.88Q302.48-14.44 303.28-14.44L303.28-14.44Q303.84-14.44 304.12-14.22Q304.40-14 305.04-13.16L305.04-13.16Q305.84-13.52 306.32-13.62Q306.80-13.72 307.44-13.72L307.44-13.72Q309.52-13.72 311.10-12.74Q312.68-11.76 313.08-9.48L313.08-9.48Q313.20-8.64 313.30-8.08Q313.40-7.52 313.48-7Q313.56-6.48 313.64-5.90Q313.72-5.32 313.88-4.44Z M334.04-13.28L334.04-13.28Q334.16-12.72 334.16-11.88L334.16-11.88Q334.16-11.20 334.08-10.30Q334.00-9.40 333.84-8.32L333.84-8.32Q333.88-8.20 333.88-8.04Q333.88-7.88 333.88-7.68L333.88-7.68Q333.88-7.24 333.82-6.66Q333.76-6.08 333.68-5.32L333.68-5.32Q333.72-5.12 333.72-4.92Q333.72-4.72 333.72-4.44L333.72-4.44Q333.72-3.52 333.60-2.16Q333.48-0.80 333.28 1.08L333.28 1.08Q332.72 5.72 329.48 7.84L329.48 7.84Q328.32 8.28 327.18 8.50Q326.04 8.72 324.88 8.72L324.88 8.72Q323.36 8.72 320.12 7.40L320.12 7.40L318.12 5.72Q317.52 5.24 317.30 4.96Q317.08 4.68 317.08 4.28L317.08 4.28Q317.08 3.44 317.56 2.82Q318.04 2.20 318.84 2.20L318.84 2.20Q319.36 2.20 320.00 2.52L320.00 2.52L322.00 4.20Q323.44 5.16 325.24 5.20L325.24 5.20Q325.44 5.24 325.76 5.14Q326.08 5.04 326.52 4.92L326.52 4.92L327.84 4.56Q329.28 3.64 329.72 1.16L329.72 1.16Q329.76 0.80 329.80 0.28L329.80 0.28Q329.88-0.68 330.04-2.44L330.04-2.44Q329.88-2.36 329.32-2.14Q328.76-1.92 327.94-1.66Q327.12-1.40 326.06-1.20Q325.00-1 323.84-1L323.84-1Q323.64-1 323.42-1.10Q323.20-1.20 322.84-1.44Q322.48-1.68 321.98-2.08Q321.48-2.48 320.76-3.12L320.76-3.12L319.80-4.92Q319.44-5.60 319.30-6.30Q319.16-7 319.16-7.68L319.16-7.68Q319.16-8.80 320.02-9.94Q320.88-11.08 322.18-12Q323.48-12.92 325.00-13.50Q326.52-14.08 327.80-14.08L327.80-14.08Q328.40-14.08 328.98-14Q329.56-13.92 330.76-13.56L330.76-13.56L330.96-14.04Q331.48-14.40 332.24-14.40L332.24-14.40Q333.76-14.40 334.04-13.28ZM330.24-9.44L330.24-9.92Q329.84-10.20 329.34-10.32Q328.84-10.44 328.36-10.56L328.36-10.56Q327.84-10.48 327.16-10.34Q326.48-10.20 325.64-10L325.64-10Q323.00-8.48 323.00-7.24L323.00-7.24Q323.00-6.56 323.48-5.90Q323.96-5.24 324.84-4.56L324.84-4.56Q325.44-4.60 326.12-4.70Q326.80-4.80 327.48-5.04Q328.16-5.28 328.80-5.74Q329.44-6.20 330.04-7L330.04-7Q330.12-7.68 330.18-8.28Q330.24-8.88 330.24-9.44L330.24-9.44Z M371.12-4.72L371.12-4.72Q371.84-4.24 371.84-3.56L371.84-3.56Q371.84-3.20 371.64-2.82Q371.44-2.44 371.12-2.14Q370.80-1.84 370.44-1.64Q370.08-1.44 369.72-1.44L369.72-1.44Q369.40-1.56 368.96-1.86Q368.52-2.16 368.08-2.54Q367.64-2.92 367.26-3.40Q366.88-3.88 366.68-4.36L366.68-4.36L366.40-3.68Q365.64-2.24 364.00-0.96L364.00-0.96Q362.00-0.60 361.68-0.60L361.68-0.60Q360.92-0.60 359.84-0.84L359.84-0.84L357.64-2.40Q356.20-3.76 356.20-6.12L356.20-6.12Q356.20-6.96 356.46-7.98Q356.72-9 357.22-10.04Q357.72-11.08 358.44-12.08Q359.16-13.08 360.12-13.88L360.12-13.88Q361.28-14.32 362.36-14.62Q363.44-14.92 364.00-15L364.00-15Q364.76-15.84 365.80-15.84L365.80-15.84Q366.40-15.84 366.86-15.26Q367.32-14.68 367.66-13.80Q368.00-12.92 368.20-11.86Q368.40-10.80 368.48-9.84L368.48-9.84L369.00-7.72Q369.24-6.72 369.78-6Q370.32-5.28 371.12-4.72ZM365.04-9.16L365.04-9.16Q364.96-9.20 364.44-11.68L364.44-11.68Q364.24-11.68 363.84-11.68Q363.44-11.68 362.90-11.46Q362.36-11.24 361.74-10.70Q361.12-10.16 360.56-9.08L360.56-9.08Q359.72-7.52 359.72-5.96L359.72-5.96Q360.40-4.64 361.84-3.88L361.84-3.88Q362.28-4 362.58-4.16Q362.88-4.32 363.12-4.60Q363.36-4.88 363.58-5.30Q363.80-5.72 364.08-6.36L364.08-6.36Q364.60-7.28 364.82-7.98Q365.04-8.68 365.04-9.16Z M388.44-4.44L388.44-4.44L388.44-4.12Q388.44-3.88 388.46-3.26Q388.48-2.64 388.34-2Q388.20-1.36 387.80-0.86Q387.40-0.36 386.60-0.36L386.60-0.36Q385.04-0.36 384.76-1.60L384.76-1.60Q384.80-1.84 384.80-2.14Q384.80-2.44 384.80-2.80L384.80-2.80Q384.80-2.96 384.80-3.98Q384.80-5 384.74-6.20Q384.68-7.40 384.48-8.46Q384.28-9.52 383.88-9.80L383.88-9.80Q382.96-10.44 382.24-10.44L382.24-10.44Q381.28-10.44 380.62-9.86Q379.96-9.28 379.52-7.60L379.52-7.60Q379.48-7.04 379.44-6.34Q379.40-5.64 379.32-4.76L379.32-4.76Q379.32-4.08 379.36-3.26Q379.40-2.44 379.48-1.40L379.48-1.40Q379.48-0.64 378.88-0.14Q378.28 0.36 377.52 0.36L377.52 0.36Q376.92 0.36 376.56 0.04Q376.20-0.28 376.02-0.80Q375.84-1.32 375.78-1.92Q375.72-2.52 375.72-3.12L375.72-3.12Q375.72-3.56 375.76-4.02Q375.80-4.48 375.88-4.96L375.88-4.96L376.20-8.80L376.52-10.72Q376.44-11.20 376.20-11.76Q375.96-12.32 375.96-12.64L375.96-12.64Q375.96-13.32 376.50-13.88Q377.04-14.44 377.84-14.44L377.84-14.44Q378.40-14.44 378.68-14.22Q378.96-14 379.60-13.16L379.60-13.16Q380.40-13.52 380.88-13.62Q381.36-13.72 382.00-13.72L382.00-13.72Q384.08-13.72 385.66-12.74Q387.24-11.76 387.64-9.48L387.64-9.48Q387.76-8.64 387.86-8.08Q387.96-7.52 388.04-7Q388.12-6.48 388.20-5.90Q388.28-5.32 388.44-4.44Z M407.52-19.56L407.52-19.56Q407.40-19.20 407.40-18.16L407.40-18.16Q407.40-17.56 407.42-16.64Q407.44-15.72 407.44-15.12L407.44-15.12Q407.44-14.56 407.44-14.12Q407.44-13.68 407.36-13.40L407.36-13.40Q407.40-13.24 407.40-13.04Q407.40-12.84 407.40-12.60L407.40-12.60Q407.40-12.04 407.32-11.18Q407.24-10.32 407.24-10L407.24-10Q407.24-9.92 407.26-9.86Q407.28-9.80 407.28-9.72L407.28-9.72Q406.92-7.56 406.82-5.82Q406.72-4.08 406.54-2.84Q406.36-1.60 405.94-0.94Q405.52-0.28 404.52-0.28L404.52-0.28Q403.68-0.28 403.04-0.68L403.04-0.68L403.04-0.96Q401.84-0.44 399.84-0.44L399.84-0.44Q398.52-0.44 397.42-0.92Q396.32-1.40 395.52-2.26Q394.72-3.12 394.28-4.28Q393.84-5.44 393.84-6.80L393.84-6.80Q393.84-7.56 394.02-8.30Q394.20-9.04 394.48-9.70Q394.76-10.36 395.10-10.90Q395.44-11.44 395.76-11.80L395.76-11.80Q396.56-12.68 398.08-13.40Q399.60-14.12 401.32-14.12L401.32-14.12Q402.48-14.12 403.68-13.68L403.68-13.68Q403.68-14.28 403.74-15.12Q403.80-15.96 403.88-17.08L403.88-17.08L403.72-19.80Q403.72-20 403.70-20.14Q403.68-20.28 403.68-20.44L403.68-20.44Q403.68-21.76 404.02-22.44Q404.36-23.12 405.40-23.12L405.40-23.12Q406.04-23.12 406.42-22.96Q406.80-22.80 407.02-22.42Q407.24-22.04 407.32-21.34Q407.40-20.64 407.52-19.56ZM403.40-10L403.40-10Q402.60-10.56 401.44-10.56L401.44-10.56Q400.60-10.56 400.02-10.44Q399.44-10.32 399.04-10.02Q398.64-9.72 398.36-9.22Q398.08-8.72 397.80-8L397.80-8Q397.56-7.32 397.56-6.72L397.56-6.72Q397.56-5.44 398.46-4.72Q399.36-4 400.64-4L400.64-4Q401.76-4 402.80-4.80L402.80-4.80Q403.16-6.44 403.30-7.10Q403.44-7.76 403.44-8.24L403.44-8.24Q403.44-8.68 403.40-9.06Q403.36-9.44 403.36-9.72L403.36-9.72Q403.36-9.80 403.38-9.86Q403.40-9.92 403.40-10Z M443.04-3.84L443.04-3.84Q442.28-2.24 440.56-1.30Q438.84-0.36 436.72-0.36L436.72-0.36Q436.44-0.36 435.80-0.44Q435.16-0.52 434.38-0.76Q433.60-1 432.78-1.42Q431.96-1.84 431.28-2.54Q430.60-3.24 430.16-4.24Q429.72-5.24 429.72-6.60L429.72-6.60Q429.68-8.40 430.22-9.88Q430.76-11.36 431.96-12.88L431.96-12.88L433.24-14.52Q435.48-16.04 438.28-16.04L438.28-16.04Q439.80-16.04 440.70-15.48Q441.60-14.92 441.60-13.88L441.60-13.88Q441.60-13.08 441.02-12.58Q440.44-12.08 439.52-12.08L439.52-12.08Q439.48-12.08 439.22-12.14Q438.96-12.20 438.64-12.28Q438.32-12.36 438.00-12.42Q437.68-12.48 437.48-12.48L437.48-12.48Q436.56-12.48 435.38-11.52Q434.20-10.56 433.52-8.48L433.52-8.48Q433.24-7.60 433.24-7.04L433.24-7.04Q433.24-5.92 433.86-5.28Q434.48-4.64 435.24-4.30Q436.00-3.96 436.64-3.86Q437.28-3.76 437.32-3.76L437.32-3.76Q437.88-3.76 438.44-4.08Q439.00-4.40 439.46-4.80Q439.92-5.20 440.20-5.50Q440.48-5.80 440.44-5.80L440.44-5.80Q440.84-6.16 441.36-6.16L441.36-6.16Q442.00-6.16 442.54-5.50Q443.08-4.84 443.08-4.16L443.08-4.16Q443.08-3.96 443.04-3.84Z M457.56-1L457.56-1Q457.04-0.64 455.88-0.30Q454.72 0.04 453.48 0.28L453.48 0.28L451.84-0.04Q451.48-0.16 450.66-0.60Q449.84-1.04 449-1.94Q448.16-2.84 447.52-4.26Q446.88-5.68 446.88-7.72L446.88-7.72Q446.88-8.44 447.22-9.42Q447.56-10.40 448.24-11.26Q448.92-12.12 449.94-12.72Q450.96-13.32 452.32-13.32L452.32-13.32Q455.04-13.32 457.24-11.56L457.24-11.56Q459.16-8.92 459.16-5.72L459.16-5.72Q459.16-3.36 457.56-1ZM455.60-6.68L455.60-6.68Q455.40-8.24 454.62-9.14Q453.84-10.04 452.64-10.04L452.64-10.04Q451.84-10.04 451.14-9.26Q450.44-8.48 450.44-7L450.44-7Q450.44-6.40 450.60-5.74Q450.76-5.08 451.12-4.54Q451.48-4 452.04-3.66Q452.60-3.32 453.40-3.32L453.40-3.32Q454.68-3.32 455.16-4.10Q455.64-4.88 455.64-6.04L455.64-6.04Q455.64-6.20 455.62-6.34Q455.60-6.48 455.60-6.68Z M477.36-19.56L477.36-19.56Q477.24-19.20 477.24-18.16L477.24-18.16Q477.24-17.56 477.26-16.64Q477.28-15.72 477.28-15.12L477.28-15.12Q477.28-14.56 477.28-14.12Q477.28-13.68 477.20-13.40L477.20-13.40Q477.24-13.24 477.24-13.04Q477.24-12.84 477.24-12.60L477.24-12.60Q477.24-12.04 477.16-11.18Q477.08-10.32 477.08-10L477.08-10Q477.08-9.92 477.10-9.86Q477.12-9.80 477.12-9.72L477.12-9.72Q476.76-7.56 476.66-5.82Q476.56-4.08 476.38-2.84Q476.20-1.60 475.78-0.94Q475.36-0.28 474.36-0.28L474.36-0.28Q473.52-0.28 472.88-0.68L472.88-0.68L472.88-0.96Q471.68-0.44 469.68-0.44L469.68-0.44Q468.36-0.44 467.26-0.92Q466.16-1.40 465.36-2.26Q464.56-3.12 464.12-4.28Q463.68-5.44 463.68-6.80L463.68-6.80Q463.68-7.56 463.86-8.30Q464.04-9.04 464.32-9.70Q464.60-10.36 464.94-10.90Q465.28-11.44 465.60-11.80L465.60-11.80Q466.40-12.68 467.92-13.40Q469.44-14.12 471.16-14.12L471.16-14.12Q472.32-14.12 473.52-13.68L473.52-13.68Q473.52-14.28 473.58-15.12Q473.64-15.96 473.72-17.08L473.72-17.08L473.56-19.80Q473.56-20 473.54-20.14Q473.52-20.28 473.52-20.44L473.52-20.44Q473.52-21.76 473.86-22.44Q474.20-23.12 475.24-23.12L475.24-23.12Q475.88-23.12 476.26-22.96Q476.64-22.80 476.86-22.42Q477.08-22.04 477.16-21.34Q477.24-20.64 477.36-19.56ZM473.24-10L473.24-10Q472.44-10.56 471.28-10.56L471.28-10.56Q470.44-10.56 469.86-10.44Q469.28-10.32 468.88-10.02Q468.48-9.72 468.20-9.22Q467.92-8.72 467.64-8L467.64-8Q467.40-7.32 467.40-6.72L467.40-6.72Q467.40-5.44 468.30-4.72Q469.20-4 470.48-4L470.48-4Q471.60-4 472.64-4.80L472.64-4.80Q473-6.44 473.14-7.10Q473.28-7.76 473.28-8.24L473.28-8.24Q473.28-8.68 473.24-9.06Q473.20-9.44 473.20-9.72L473.20-9.72Q473.20-9.80 473.22-9.86Q473.24-9.92 473.24-10Z M497.16-1.60L497.16-1.60Q495.88-0.32 494.28 0.58Q492.68 1.48 491.04 1.48L491.04 1.48Q489.56 1.48 487.24 1L487.24 1Q486.44 0.48 485.64-0.26Q484.84-1 484.20-1.90Q483.56-2.80 483.16-3.86Q482.76-4.92 482.76-6.04L482.76-6.04Q482.76-6.36 482.80-6.90Q482.84-7.44 482.90-7.98Q482.96-8.52 483-8.92Q483.04-9.32 483.04-9.32L483.04-9.32Q483.84-10.60 484.74-11.86Q485.64-13.12 487.28-14.08L487.28-14.08Q489.88-14.64 491.04-14.64L491.04-14.64Q491.64-14.64 492.08-14.58Q492.52-14.52 492.94-14.34Q493.36-14.16 493.78-13.80Q494.20-13.44 494.76-12.88L494.76-12.88Q495.40-12.20 495.78-11.96Q496.16-11.72 496.16-11.52L496.16-11.52Q496.16-7.84 493.88-6.52L493.88-6.52Q492.88-6.16 491.28-5.74Q489.68-5.32 486.92-4.96L486.92-4.96Q487.48-3.44 488.40-2.68Q489.32-1.92 490.48-1.92L490.48-1.92Q492.20-1.92 494.80-3.96L494.80-3.96Q495.20-4.32 495.80-4.32L495.80-4.32Q496.44-4.32 496.94-3.84Q497.44-3.36 497.44-2.64L497.44-2.64Q497.44-2.12 497.16-1.60ZM492.64-10.16L492.64-10.16Q491.88-11.40 490.84-11.40L490.84-11.40Q490.40-11.40 489.88-11.28Q489.36-11.16 488.82-10.94Q488.28-10.72 487.82-10.40Q487.36-10.08 487.08-9.64L487.08-9.64L486.68-8.44Q488.04-8.56 489.08-8.64Q490.12-8.72 490.88-8.88Q491.64-9.04 492.08-9.32Q492.52-9.60 492.64-10.16Z M509.40-12.24L509.40-12.24Q509.40-11.96 509.44-10.92Q509.48-9.88 509.48-8.08L509.48-8.08Q509.48-7.40 509.44-6.92Q509.40-6.44 509.32-6.20L509.32-6.20Q509.40-5.88 509.40-5.52Q509.40-5.16 509.40-4.80L509.40-4.80Q509.40-4 509.30-3.14Q509.20-2.28 509.16-1.48L509.16-1.48Q509.28-0.68 509.28 0.16L509.28 0.16Q509.28 0.84 509.20 1.56Q509.12 2.28 508.96 3.08L508.96 3.08Q508.76 3.92 507.32 3.92L507.32 3.92Q506.52 3.92 506.14 3.52Q505.76 3.12 505.58 2.50Q505.40 1.88 505.40 1.06Q505.40 0.24 505.40-0.60L505.40-0.60Q505.40-1.88 505.56-3.58Q505.72-5.28 505.72-6.80L505.72-6.80Q505.72-8.28 505.48-9.60L505.48-9.60Q505.52-9.76 505.58-10.50Q505.64-11.24 505.68-12.08Q505.72-12.92 505.76-13.66Q505.80-14.40 505.84-14.56L505.84-14.56Q505.72-15.16 505.72-17.08L505.72-17.08Q505.72-19.96 505.80-21.64Q505.88-23.32 506.08-24.16Q506.28-25 506.64-25.22Q507-25.44 507.60-25.44L507.60-25.44Q508.76-25.44 509.10-24.82Q509.44-24.20 509.44-22.56L509.44-22.56Q509.44-22.12 509.44-21.58Q509.44-21.04 509.36-20.40L509.36-20.40Q509.36-20.24 509.40-18.48Q509.44-16.72 509.44-14.24L509.44-14.24Q509.44-13.68 509.42-13.18Q509.40-12.68 509.40-12.24Z M550.60-19L550.60-19Q550.72-18.68 550.72-18.28L550.72-18.28Q550.72-17.56 550.34-16.82Q549.96-16.08 549.32-16.08L549.32-16.08Q549.20-16.08 548.76-16.20Q548.32-16.32 547.78-16.48Q547.24-16.64 546.70-16.76Q546.16-16.88 545.84-16.88L545.84-16.88L545.52-16.88Q544.24-17.20 543.06-17.32Q541.88-17.44 540.80-17.44L540.80-17.44Q540.48-17.44 540.32-17.18Q540.16-16.92 540.08-16.56Q540-16.20 540-15.80Q540-15.40 540-15.16L540-15.16L540-14.84Q540-14.60 539.98-14.12Q539.96-13.64 539.92-13.16Q539.88-12.68 539.86-12.30Q539.84-11.92 539.84-11.80L539.84-11.80L542.80-11.88Q542.84-11.88 543.30-11.92Q543.76-11.96 544.40-12.02Q545.04-12.08 545.70-12.12Q546.36-12.16 546.76-12.16L546.76-12.16Q547.60-12.16 548-11.62Q548.40-11.08 548.40-10.36L548.40-10.36Q548.40-9.64 548.14-9.28Q547.88-8.92 547.28-8.76Q546.68-8.60 545.66-8.52Q544.64-8.44 543.12-8.28L543.12-8.28L542.36-8.28Q541.88-8.28 541.28-8.28Q540.68-8.28 539.92-8.24L539.92-8.24L540-4.28Q539.96-3.96 539.96-3.68Q539.96-3.40 539.96-3.08L539.96-3.08Q539.96-1.44 540.36-0.52L540.36-0.52Q540.24 1.36 538.64 1.36L538.64 1.36Q537.80 1.36 537.34 0.78Q536.88 0.20 536.66-0.46Q536.44-1.12 536.40-1.64Q536.36-2.16 536.36-2L536.36-2Q536.20-2.84 536.12-3.68Q536.04-4.52 536.04-5.36L536.04-5.36Q536.04-5.96 536.06-6.64Q536.08-7.32 536.08-8.12L536.08-8.12Q536.08-9.08 536.08-10.16Q536.08-11.24 536-12.48L536-12.48Q536.12-18.32 537.36-20.68L537.36-20.68Q537.60-21 539.20-21L539.20-21Q542.28-21 542.28-20.96L542.28-20.96L542.40-20.96Q542.96-20.96 545.52-20.40L545.52-20.40Q549.08-20.36 550.60-19Z M570.92-1.44L570.92-1.44Q570.92-0.72 570.28-0.10Q569.64 0.52 569 0.52L569 0.52Q568.68 0.52 568.48 0.32L568.48 0.32Q568.44 0.32 568.12-0.08Q567.80-0.48 567.36-1.08Q566.92-1.68 566.40-2.36Q565.88-3.04 565.44-3.64Q565-4.24 564.74-4.62Q564.48-5 564.52-4.96L564.52-4.96Q564.44-5.20 564.12-5.72Q563.80-6.24 563.42-6.82Q563.04-7.40 562.72-7.90Q562.40-8.40 562.36-8.52L562.36-8.52Q562.28-8.52 561.92-8.46Q561.56-8.40 561.12-8.34Q560.68-8.28 560.22-8.22Q559.76-8.16 559.52-8.16L559.52-8.16L559.32-8.16Q559.20-6.92 559.12-6.12Q559.04-5.32 559.04-4.92L559.04-4.92L559.04-3.68Q559.04-1.52 558.68 1L558.68 1Q558.20 1.72 557.28 1.72L557.28 1.72Q556.48 1.72 555.90 1.30Q555.32 0.88 555.32-0.16L555.32-0.16Q555.32-0.48 555.34-0.94Q555.36-1.40 555.38-1.88Q555.40-2.36 555.42-2.74Q555.44-3.12 555.44-3.24L555.44-3.24L555.44-3.44L555.72-9.48Q555.76-10 555.74-10.76Q555.72-11.52 555.80-12.52L555.80-12.52L556.12-14.92Q556.36-16.16 556.36-17.04L556.36-17.04Q556.36-17.32 556.34-17.58Q556.32-17.84 556.28-18.12L556.28-18.12Q556.28-18.12 556.40-19.52L556.40-19.52Q556.44-20.48 556.76-21.08Q557.08-21.68 558.28-21.68L558.28-21.68Q559.12-21.68 559.96-21.40L559.96-21.40Q560.76-21.48 561.38-21.48Q562-21.48 562.44-21.48L562.44-21.48Q562.84-21.48 563.16-21.46Q563.48-21.44 563.80-21.38Q564.12-21.32 564.52-21.22Q564.92-21.12 565.48-20.96L565.48-20.96L567.24-19.76Q568.72-18.60 569.22-17.44Q569.72-16.28 569.72-15L569.72-15Q569.72-14.12 569.66-13.50Q569.60-12.88 569.24-12.28Q568.88-11.68 568.12-11.04Q567.36-10.40 565.96-9.44L565.96-9.44Q566.88-8.28 568.04-6L568.04-6Q568.76-5.44 570.92-1.44ZM566-14.20L566-14.20Q566.04-14.36 566.04-14.64L566.04-14.64Q566.04-15.04 565.96-15.46Q565.88-15.88 565.60-16.30Q565.32-16.72 564.78-17.14Q564.24-17.56 563.28-17.96L563.28-17.96Q562.44-18.28 561.88-18.28L561.88-18.28Q561.72-18.24 561.44-18.20L561.44-18.20Q561.20-18.12 560.84-18.06Q560.48-18 560.04-17.92L560.04-17.92Q560.08-17.68 560.08-17.46Q560.08-17.24 560.02-16.64Q559.96-16.04 559.84-14.92Q559.72-13.80 559.56-11.80L559.56-11.80Q559.72-11.76 559.88-11.76Q560.04-11.76 560.20-11.76L560.20-11.76Q560.96-11.76 561.90-11.98Q562.84-12.20 563.68-12.54Q564.52-12.88 565.16-13.32Q565.80-13.76 566-14.20Z"/></g>
</svg>
</g><g opacity="1" transform="rotate(0 82.6347 481.1881)">
<svg width="352.107" height="70" x="82.6347" y="481.1881" version="1.1" preserveAspectRatio="none" viewBox="2.28 -32.84 167.20000000000002 33.24000000000001">
  <g transform="matrix(1 0 0 1 0 0)" class="companyName"><path id="id-D6z1nYkh7" d="M15.76-28Q19.64-28 22.52-26.72Q25.40-25.44 26.96-23.04Q28.52-20.64 28.52-17.44L28.52-17.44Q28.52-14.24 26.96-11.84Q25.40-9.44 22.52-8.16Q19.64-6.88 15.76-6.88L15.76-6.88L11.72-6.88L11.72 0L2.28 0L2.28-28L15.76-28ZM15.16-14.16Q17.08-14.16 18.04-15.02Q19-15.88 19-17.44L19-17.44Q19-19 18.04-19.86Q17.08-20.72 15.16-20.72L15.16-20.72L11.72-20.72L11.72-14.16L15.16-14.16Z M31.72 0L31.72-21.88L40.76-21.88L40.76 0L31.72 0ZM36.24-23.64Q33.80-23.64 32.30-24.94Q30.80-26.24 30.80-28.24L30.80-28.24Q30.80-30.24 32.30-31.54Q33.80-32.84 36.24-32.84L36.24-32.84Q38.72-32.84 40.20-31.60Q41.68-30.36 41.68-28.40L41.68-28.40Q41.68-26.32 40.20-24.98Q38.72-23.64 36.24-23.64L36.24-23.64Z M60.56 0L55.24-6.72L53.80-5.16L53.80 0L44.76 0L44.76-29.68L53.80-29.68L53.80-15.52L60.08-21.88L70.76-21.88L61.72-12.40L71.48 0L60.56 0Z M82.68-22.28Q88.44-22.28 91.48-19.70Q94.52-17.12 94.52-11.76L94.52-11.76L94.52 0L86.12 0L86.12-2.88Q84.56 0.40 79.92 0.40L79.92 0.40Q77.32 0.40 75.50-0.50Q73.68-1.40 72.74-2.94Q71.80-4.48 71.80-6.40L71.80-6.40Q71.80-9.64 74.28-11.32Q76.76-13 81.80-13L81.80-13L85.44-13Q85-15.56 81.32-15.56L81.32-15.56Q79.84-15.56 78.32-15.10Q76.80-14.64 75.72-13.84L75.72-13.84L72.84-19.80Q74.72-20.96 77.38-21.62Q80.04-22.28 82.68-22.28L82.68-22.28ZM82.64-5.04Q83.60-5.04 84.36-5.56Q85.12-6.08 85.48-7.12L85.48-7.12L85.48-8.64L83.24-8.64Q80.48-8.64 80.48-6.80L80.48-6.80Q80.48-6.04 81.06-5.54Q81.64-5.04 82.64-5.04L82.64-5.04Z M125.92-28L115.36-10.16L115.36 0L105.92 0L105.92-10.28L95.36-28L105.32-28L111.04-18.32L116.80-28L125.92-28Z M140.32-21.88L149.36-21.88L149.36 0L140.76 0L140.76-2.08Q139.56-0.84 137.96-0.22Q136.36 0.40 134.56 0.40L134.56 0.40Q130.40 0.40 127.88-2.14Q125.36-4.68 125.36-9.80L125.36-9.80L125.36-21.88L134.40-21.88L134.40-11.36Q134.40-9.12 135.12-8.16Q135.84-7.20 137.24-7.20L137.24-7.20Q138.56-7.20 139.44-8.26Q140.32-9.32 140.32-11.60L140.32-11.60L140.32-21.88Z M167.32-7.04L169.48-0.76Q167.44 0.40 163.92 0.40L163.92 0.40Q159.32 0.40 156.84-1.82Q154.36-4.04 154.36-8.48L154.36-8.48L154.36-14.08L151.36-14.08L151.36-20.68L154.36-20.68L154.36-26.80L163.40-26.80L163.40-20.68L167.88-20.68L167.88-14.08L163.40-14.08L163.40-8.56Q163.40-7.56 163.92-7Q164.44-6.44 165.28-6.44L165.28-6.44Q166.44-6.44 167.32-7.04L167.32-7.04Z"/></g>
</svg>
</g><g opacity="1" transform="rotate(0 170.6614 288.3391)">
<svg width="176.0536" height="162.849" x="170.6614" y="288.3391" version="1.1" preserveAspectRatio="none" viewBox="20.00005340576172 26.000213623046875 159.99996948242188 147.9994659423828">
  <g transform="matrix(1 0 0 1 0 0)" ><g><path d="M110.975 28.222c4.636 1.748 12.928 7.547 12.731 25.327-.375 34.286-5.513 49.314-24.389 68.179-7.124 7.117-27.293 15.55-44.685 11.688-48.753-10.825-38.97-61.406-13.728-65.408 19.864-3.15 27.328-8.618 35.099-18.358 15.591-19.541 17.387-28.058 34.972-21.428z" data-color="1" class="icon1"></path><path d="M167.316 43.806c-5.493-1.836-28.181-2.607-45.193 9.15-32.805 22.692-49.475 42.686-64.472 72.366-5.189 10.269-11.247 24.278-2.286 36.857 4.527 6.356 18.843 10.344 23.539 10.893 54.321 6.354 76.899-21.376 68.162-39.216l-2.241-4.577c-8.595-15.343-.774-28.207 5.005-34.823 18.997-21.749 46.628-40.907 17.486-50.65z" data-color="2" class="icon2"></path><path d="M57.651 125.322a123.772 123.772 0 0 0-3.659 7.93c.225.051.42.113.642.164 17.392 3.862 37.561-4.568 44.685-11.688 18.877-18.866 24.014-33.89 24.389-68.179.007-.548-.019-1.048-.029-1.574-.518.33-1.046.635-1.555.986-32.807 22.687-49.476 42.681-64.473 72.361z" data-color="3" class="icon3"></path></g></g>
</svg>
</g></svg></svg>