<svg version="1.1" preserveAspectRatio="none" xmlns="http://www.w3.org/2000/svg" width="500" height="500" viewBox="0 0 500 500"><rect width="100%" height="100%" fill="#FFFFFF" fill-opacity="1"/><svg viewBox="36.8154 288.9476 440.9118 106.4" width="333" height="80.35892892864287" x="83.5px" y="209.8205px" xmlns="http://www.w3.org/2000/svg" xmlns:xlink="http://www.w3.org/1999/xlink" preserveAspectRatio="none"><defs></defs><style>.companyName {fill:#121212;fill-opacity:1;}.icon3-str {stroke:#5F5F5F;stroke-opacity:1;}.text {fill:#121212;fill-opacity:1;}</style><g opacity="1" transform="rotate(0 36.8154 372.9476)">
<svg width="440.9118" height="22.4" x="36.8154" y="372.9476" version="1.1" preserveAspectRatio="none" viewBox="2.08 -29.68 740.88 37.64">
  <g transform="matrix(1 0 0 1 0 0)" class="text"><path id="id-6izo4zJp30" d="M16.72 0.24Q12.56 0.24 9.22-1.60Q5.88-3.44 3.98-6.70Q2.08-9.96 2.08-14L2.08-14Q2.08-18.04 3.98-21.30Q5.88-24.56 9.24-26.40Q12.60-28.24 16.76-28.24L16.76-28.24Q19.88-28.24 22.52-27.20Q25.16-26.16 27-24.16L27-24.16L25.12-22.28Q21.84-25.60 16.84-25.60L16.84-25.60Q13.52-25.60 10.80-24.08Q8.08-22.56 6.54-19.92Q5-17.28 5-14L5-14Q5-10.72 6.54-8.08Q8.08-5.44 10.80-3.92Q13.52-2.40 16.84-2.40L16.84-2.40Q21.88-2.40 25.12-5.76L25.12-5.76L27-3.88Q25.16-1.88 22.50-0.82Q19.84 0.24 16.72 0.24L16.72 0.24Z M42 0.20Q38.96 0.20 36.52-1.18Q34.08-2.56 32.68-5Q31.28-7.44 31.28-10.52L31.28-10.52Q31.28-13.60 32.68-16.04Q34.08-18.48 36.52-19.84Q38.96-21.20 42-21.20L42-21.20Q45.04-21.20 47.48-19.84Q49.92-18.48 51.30-16.04Q52.68-13.60 52.68-10.52L52.68-10.52Q52.68-7.44 51.30-5Q49.92-2.56 47.48-1.18Q45.04 0.20 42 0.20L42 0.20ZM42-2.32Q44.24-2.32 46.02-3.34Q47.80-4.36 48.80-6.24Q49.80-8.12 49.80-10.52L49.80-10.52Q49.80-12.92 48.80-14.80Q47.80-16.68 46.02-17.70Q44.24-18.72 42-18.72L42-18.72Q39.76-18.72 37.98-17.70Q36.20-16.68 35.18-14.80Q34.16-12.92 34.16-10.52L34.16-10.52Q34.16-8.12 35.18-6.24Q36.20-4.36 37.98-3.34Q39.76-2.32 42-2.32L42-2.32Z M86.32-21.20Q90.28-21.20 92.54-18.92Q94.80-16.64 94.80-12.20L94.80-12.20L94.80 0L91.96 0L91.96-11.92Q91.96-15.20 90.38-16.92Q88.80-18.64 85.92-18.64L85.92-18.64Q82.64-18.64 80.76-16.62Q78.88-14.60 78.88-11.04L78.88-11.04L78.88 0L76.04 0L76.04-11.92Q76.04-15.20 74.46-16.92Q72.88-18.64 69.96-18.64L69.96-18.64Q66.72-18.64 64.82-16.62Q62.92-14.60 62.92-11.04L62.92-11.04L62.92 0L60.08 0L60.08-21.04L62.80-21.04L62.80-17.20Q63.92-19.12 65.92-20.16Q67.92-21.20 70.52-21.20L70.52-21.20Q73.16-21.20 75.10-20.08Q77.04-18.96 78-16.76L78-16.76Q79.16-18.84 81.34-20.02Q83.52-21.20 86.32-21.20L86.32-21.20Z M130.36-21.20Q134.32-21.20 136.58-18.92Q138.84-16.64 138.84-12.20L138.84-12.20L138.84 0L136 0L136-11.92Q136-15.20 134.42-16.92Q132.84-18.64 129.96-18.64L129.96-18.64Q126.68-18.64 124.80-16.62Q122.92-14.60 122.92-11.04L122.92-11.04L122.92 0L120.08 0L120.08-11.92Q120.08-15.20 118.50-16.92Q116.92-18.64 114-18.64L114-18.64Q110.76-18.64 108.86-16.62Q106.96-14.60 106.96-11.04L106.96-11.04L106.96 0L104.12 0L104.12-21.04L106.84-21.04L106.84-17.20Q107.96-19.12 109.96-20.16Q111.96-21.20 114.56-21.20L114.56-21.20Q117.20-21.20 119.14-20.08Q121.08-18.96 122.04-16.76L122.04-16.76Q123.20-18.84 125.38-20.02Q127.56-21.20 130.36-21.20L130.36-21.20Z M164.28-21.04L167.12-21.04L167.12 0L164.40 0L164.40-3.84Q163.28-1.92 161.32-0.86Q159.36 0.20 156.84 0.20L156.84 0.20Q152.72 0.20 150.34-2.10Q147.96-4.40 147.96-8.84L147.96-8.84L147.96-21.04L150.80-21.04L150.80-9.12Q150.80-5.80 152.44-4.08Q154.08-2.36 157.12-2.36L157.12-2.36Q160.44-2.36 162.36-4.38Q164.28-6.40 164.28-10L164.28-10L164.28-21.04Z M187.40-21.20Q191.36-21.20 193.70-18.90Q196.04-16.60 196.04-12.20L196.04-12.20L196.04 0L193.20 0L193.20-11.92Q193.20-15.20 191.56-16.92Q189.92-18.64 186.88-18.64L186.88-18.64Q183.48-18.64 181.50-16.62Q179.52-14.60 179.52-11.04L179.52-11.04L179.52 0L176.68 0L176.68-21.04L179.40-21.04L179.40-17.16Q180.56-19.08 182.62-20.14Q184.68-21.20 187.40-21.20L187.40-21.20Z M205.36 0L205.36-21.04L208.20-21.04L208.20 0L205.36 0ZM206.80-25.64Q205.92-25.64 205.32-26.24Q204.72-26.84 204.72-27.68L204.72-27.68Q204.72-28.48 205.32-29.08Q205.92-29.68 206.80-29.68L206.80-29.68Q207.68-29.68 208.28-29.10Q208.88-28.52 208.88-27.72L208.88-27.72Q208.88-26.84 208.28-26.24Q207.68-25.64 206.80-25.64L206.80-25.64Z M227.80-3.32L228.80-1.28Q228-0.56 226.82-0.18Q225.64 0.20 224.36 0.20L224.36 0.20Q221.40 0.20 219.80-1.40Q218.20-3 218.20-5.92L218.20-5.92L218.20-18.64L214.44-18.64L214.44-21.04L218.20-21.04L218.20-25.64L221.04-25.64L221.04-21.04L227.44-21.04L227.44-18.64L221.04-18.64L221.04-6.08Q221.04-4.20 221.98-3.22Q222.92-2.24 224.68-2.24L224.68-2.24Q225.56-2.24 226.38-2.52Q227.20-2.80 227.80-3.32L227.80-3.32Z M250.04-21.04L252.84-21.04L242.32 2.52Q241.04 5.48 239.36 6.72Q237.68 7.96 235.32 7.96L235.32 7.96Q233.80 7.96 232.48 7.48Q231.16 7 230.20 6.04L230.20 6.04L231.52 3.92Q233.12 5.52 235.36 5.52L235.36 5.52Q236.80 5.52 237.82 4.72Q238.84 3.92 239.72 2L239.72 2L240.64-0.04L231.24-21.04L234.20-21.04L242.12-3.16L250.04-21.04Z M271.12 7.76L271.12-29.68L273.76-29.68L273.76 7.76L271.12 7.76Z M304.24-4.56L304.24-14L307.08-14L307.08-3.32Q305.12-1.60 302.44-0.68Q299.76 0.24 296.80 0.24L296.80 0.24Q292.60 0.24 289.24-1.60Q285.88-3.44 283.96-6.70Q282.04-9.96 282.04-14L282.04-14Q282.04-18.04 283.96-21.30Q285.88-24.56 289.24-26.40Q292.60-28.24 296.84-28.24L296.84-28.24Q300.04-28.24 302.72-27.22Q305.40-26.20 307.24-24.20L307.24-24.20L305.40-22.32Q302.08-25.60 296.96-25.60L296.96-25.60Q293.56-25.60 290.82-24.10Q288.08-22.60 286.52-19.94Q284.96-17.28 284.96-14L284.96-14Q284.96-10.72 286.52-8.08Q288.08-5.44 290.80-3.92Q293.52-2.40 296.92-2.40L296.92-2.40Q301.24-2.40 304.24-4.56L304.24-4.56Z M323.80-21.20Q327.92-21.20 330.12-19.14Q332.32-17.08 332.32-13.04L332.32-13.04L332.32 0L329.60 0L329.60-3.28Q328.64-1.64 326.78-0.72Q324.92 0.20 322.36 0.20L322.36 0.20Q318.84 0.20 316.76-1.48Q314.68-3.16 314.68-5.92L314.68-5.92Q314.68-8.60 316.62-10.24Q318.56-11.88 322.80-11.88L322.80-11.88L329.48-11.88L329.48-13.16Q329.48-15.88 327.96-17.30Q326.44-18.72 323.52-18.72L323.52-18.72Q321.52-18.72 319.68-18.06Q317.84-17.40 316.52-16.24L316.52-16.24L315.24-18.36Q316.84-19.72 319.08-20.46Q321.32-21.20 323.80-21.20L323.80-21.20ZM322.80-2.04Q325.20-2.04 326.92-3.14Q328.64-4.24 329.48-6.32L329.48-6.32L329.48-9.76L322.88-9.76Q317.48-9.76 317.48-6L317.48-6Q317.48-4.16 318.88-3.10Q320.28-2.04 322.80-2.04L322.80-2.04Z M367.88-21.20Q371.84-21.20 374.10-18.92Q376.36-16.64 376.36-12.20L376.36-12.20L376.36 0L373.52 0L373.52-11.92Q373.52-15.20 371.94-16.92Q370.36-18.64 367.48-18.64L367.48-18.64Q364.20-18.64 362.32-16.62Q360.44-14.60 360.44-11.04L360.44-11.04L360.44 0L357.60 0L357.60-11.92Q357.60-15.20 356.02-16.92Q354.44-18.64 351.52-18.64L351.52-18.64Q348.28-18.64 346.38-16.62Q344.48-14.60 344.48-11.04L344.48-11.04L344.48 0L341.64 0L341.64-21.04L344.36-21.04L344.36-17.20Q345.48-19.12 347.48-20.16Q349.48-21.20 352.08-21.20L352.08-21.20Q354.72-21.20 356.66-20.08Q358.60-18.96 359.56-16.76L359.56-16.76Q360.72-18.84 362.90-20.02Q365.08-21.20 367.88-21.20L367.88-21.20Z M385.68 0L385.68-21.04L388.52-21.04L388.52 0L385.68 0ZM387.12-25.64Q386.24-25.64 385.64-26.24Q385.04-26.84 385.04-27.68L385.04-27.68Q385.04-28.48 385.64-29.08Q386.24-29.68 387.12-29.68L387.12-29.68Q388.00-29.68 388.60-29.10Q389.20-28.52 389.20-27.72L389.20-27.72Q389.20-26.84 388.60-26.24Q388.00-25.64 387.12-25.64L387.12-25.64Z M408.76-21.20Q412.72-21.20 415.06-18.90Q417.40-16.60 417.40-12.20L417.40-12.20L417.40 0L414.56 0L414.56-11.92Q414.56-15.20 412.92-16.92Q411.28-18.64 408.24-18.64L408.24-18.64Q404.84-18.64 402.86-16.62Q400.88-14.60 400.88-11.04L400.88-11.04L400.88 0L398.04 0L398.04-21.04L400.76-21.04L400.76-17.16Q401.92-19.08 403.98-20.14Q406.04-21.20 408.76-21.20L408.76-21.20Z M443.56-21.04L446.28-21.04L446.28-2.56Q446.28 2.80 443.66 5.38Q441.04 7.96 435.76 7.96L435.76 7.96Q432.84 7.96 430.22 7.10Q427.60 6.24 425.96 4.72L425.96 4.72L427.40 2.56Q428.92 3.92 431.10 4.68Q433.28 5.44 435.68 5.44L435.68 5.44Q439.68 5.44 441.56 3.58Q443.44 1.72 443.44-2.20L443.44-2.20L443.44-4.88Q442.12-2.88 439.98-1.84Q437.84-0.80 435.24-0.80L435.24-0.80Q432.28-0.80 429.86-2.10Q427.44-3.40 426.06-5.74Q424.68-8.08 424.68-11.04L424.68-11.04Q424.68-14 426.06-16.32Q427.44-18.64 429.84-19.92Q432.24-21.20 435.24-21.20L435.24-21.20Q437.92-21.20 440.08-20.12Q442.24-19.04 443.56-17L443.56-17L443.56-21.04ZM435.52-3.32Q437.80-3.32 439.64-4.30Q441.48-5.28 442.50-7.04Q443.52-8.80 443.52-11.04L443.52-11.04Q443.52-13.28 442.50-15.02Q441.48-16.76 439.66-17.74Q437.84-18.72 435.52-18.72L435.52-18.72Q433.24-18.72 431.42-17.76Q429.60-16.80 428.58-15.04Q427.56-13.28 427.56-11.04L427.56-11.04Q427.56-8.80 428.58-7.04Q429.60-5.28 431.42-4.30Q433.24-3.32 435.52-3.32L435.52-3.32Z M475.28-21.20Q479.40-21.20 481.60-19.14Q483.80-17.08 483.80-13.04L483.80-13.04L483.80 0L481.08 0L481.08-3.28Q480.12-1.64 478.26-0.72Q476.40 0.20 473.84 0.20L473.84 0.20Q470.32 0.20 468.24-1.48Q466.16-3.16 466.16-5.92L466.16-5.92Q466.16-8.60 468.10-10.24Q470.04-11.88 474.28-11.88L474.28-11.88L480.96-11.88L480.96-13.16Q480.96-15.88 479.44-17.30Q477.92-18.72 475.00-18.72L475.00-18.72Q473.00-18.72 471.16-18.06Q469.32-17.40 468.00-16.24L468.00-16.24L466.72-18.36Q468.32-19.72 470.56-20.46Q472.80-21.20 475.28-21.20L475.28-21.20ZM474.28-2.04Q476.68-2.04 478.40-3.14Q480.12-4.24 480.96-6.32L480.96-6.32L480.96-9.76L474.36-9.76Q468.96-9.76 468.96-6L468.96-6Q468.96-4.16 470.36-3.10Q471.76-2.04 474.28-2.04L474.28-2.04Z M503.84-21.20Q507.80-21.20 510.14-18.90Q512.48-16.60 512.48-12.20L512.48-12.20L512.48 0L509.64 0L509.64-11.92Q509.64-15.20 508.00-16.92Q506.36-18.64 503.32-18.64L503.32-18.64Q499.92-18.64 497.94-16.62Q495.96-14.60 495.96-11.04L495.96-11.04L495.96 0L493.12 0L493.12-21.04L495.84-21.04L495.84-17.16Q497.00-19.08 499.06-20.14Q501.12-21.20 503.84-21.20L503.84-21.20Z M538.24-29.68L541.08-29.68L541.08 0L538.36 0L538.36-4.16Q537.08-2.04 534.98-0.92Q532.88 0.20 530.24 0.20L530.24 0.20Q527.28 0.20 524.88-1.16Q522.48-2.52 521.12-4.96Q519.76-7.40 519.76-10.52L519.76-10.52Q519.76-13.64 521.12-16.08Q522.48-18.52 524.88-19.86Q527.28-21.20 530.24-21.20L530.24-21.20Q532.80-21.20 534.86-20.14Q536.92-19.08 538.24-17.04L538.24-17.04L538.24-29.68ZM530.48-2.32Q532.68-2.32 534.46-3.34Q536.24-4.36 537.26-6.24Q538.28-8.12 538.28-10.52L538.28-10.52Q538.28-12.92 537.26-14.80Q536.24-16.68 534.46-17.70Q532.68-18.72 530.48-18.72L530.48-18.72Q528.24-18.72 526.46-17.70Q524.68-16.68 523.66-14.80Q522.64-12.92 522.64-10.52L522.64-10.52Q522.64-8.12 523.66-6.24Q524.68-4.36 526.46-3.34Q528.24-2.32 530.48-2.32L530.48-2.32Z M571.40 0.20Q568.28 0.20 565.82-1.16Q563.36-2.52 561.96-4.98Q560.56-7.44 560.56-10.52L560.56-10.52Q560.56-13.60 561.96-16.04Q563.36-18.48 565.82-19.84Q568.28-21.20 571.40-21.20L571.40-21.20Q574.12-21.20 576.26-20.14Q578.40-19.08 579.64-17.04L579.64-17.04L577.52-15.60Q576.48-17.16 574.88-17.94Q573.28-18.72 571.40-18.72L571.40-18.72Q569.12-18.72 567.30-17.70Q565.48-16.68 564.46-14.80Q563.44-12.92 563.44-10.52L563.44-10.52Q563.44-8.08 564.46-6.22Q565.48-4.36 567.30-3.34Q569.12-2.32 571.40-2.32L571.40-2.32Q573.28-2.32 574.88-3.08Q576.48-3.84 577.52-5.40L577.52-5.40L579.64-3.96Q578.40-1.92 576.24-0.86Q574.08 0.20 571.40 0.20L571.40 0.20Z M595.04 0.20Q592.00 0.20 589.56-1.18Q587.12-2.56 585.72-5Q584.32-7.44 584.32-10.52L584.32-10.52Q584.32-13.60 585.72-16.04Q587.12-18.48 589.56-19.84Q592.00-21.20 595.04-21.20L595.04-21.20Q598.08-21.20 600.52-19.84Q602.96-18.48 604.34-16.04Q605.72-13.60 605.72-10.52L605.72-10.52Q605.72-7.44 604.34-5Q602.96-2.56 600.52-1.18Q598.08 0.20 595.04 0.20L595.04 0.20ZM595.04-2.32Q597.28-2.32 599.06-3.34Q600.84-4.36 601.84-6.24Q602.84-8.12 602.84-10.52L602.84-10.52Q602.84-12.92 601.84-14.80Q600.84-16.68 599.06-17.70Q597.28-18.72 595.04-18.72L595.04-18.72Q592.80-18.72 591.02-17.70Q589.24-16.68 588.22-14.80Q587.20-12.92 587.20-10.52L587.20-10.52Q587.20-8.12 588.22-6.24Q589.24-4.36 591.02-3.34Q592.80-2.32 595.04-2.32L595.04-2.32Z M629.48-29.68L632.32-29.68L632.32 0L629.60 0L629.60-4.16Q628.32-2.04 626.22-0.92Q624.12 0.20 621.48 0.20L621.48 0.20Q618.52 0.20 616.12-1.16Q613.72-2.52 612.36-4.96Q611.00-7.40 611.00-10.52L611.00-10.52Q611.00-13.64 612.36-16.08Q613.72-18.52 616.12-19.86Q618.52-21.20 621.48-21.20L621.48-21.20Q624.04-21.20 626.10-20.14Q628.16-19.08 629.48-17.04L629.48-17.04L629.48-29.68ZM621.72-2.32Q623.92-2.32 625.70-3.34Q627.48-4.36 628.50-6.24Q629.52-8.12 629.52-10.52L629.52-10.52Q629.52-12.92 628.50-14.80Q627.48-16.68 625.70-17.70Q623.92-18.72 621.72-18.72L621.72-18.72Q619.48-18.72 617.70-17.70Q615.92-16.68 614.90-14.80Q613.88-12.92 613.88-10.52L613.88-10.52Q613.88-8.12 614.90-6.24Q615.92-4.36 617.70-3.34Q619.48-2.32 621.72-2.32L621.72-2.32Z M660.20-10.52L660.16-9.64L642.56-9.64Q642.80-6.36 645.08-4.34Q647.36-2.32 650.84-2.32L650.84-2.32Q652.80-2.32 654.44-3.02Q656.08-3.72 657.28-5.08L657.28-5.08L658.88-3.24Q657.48-1.56 655.38-0.68Q653.28 0.20 650.76 0.20L650.76 0.20Q647.52 0.20 645.02-1.18Q642.52-2.56 641.12-5Q639.72-7.44 639.72-10.52L639.72-10.52Q639.72-13.60 641.06-16.04Q642.40-18.48 644.74-19.84Q647.08-21.20 650.00-21.20L650.00-21.20Q652.92-21.20 655.24-19.84Q657.56-18.48 658.88-16.06Q660.20-13.64 660.20-10.52L660.20-10.52ZM650.00-18.76Q646.96-18.76 644.90-16.82Q642.84-14.88 642.56-11.76L642.56-11.76L657.48-11.76Q657.20-14.88 655.14-16.82Q653.08-18.76 650.00-18.76L650.00-18.76Z M668.20 7.76L668.20-29.68L670.84-29.68L670.84 7.76L668.20 7.76Z M712.88-25.44L696.64-25.44L696.64-14.44L711.12-14.44L711.12-11.88L696.64-11.88L696.64 0L693.68 0L693.68-28L712.88-28L712.88-25.44Z M742.96 0L739.72 0L733.32-9Q732.24-8.88 731.08-8.88L731.08-8.88L723.56-8.88L723.56 0L720.60 0L720.60-28L731.08-28Q736.44-28 739.48-25.44Q742.52-22.88 742.52-18.40L742.52-18.40Q742.52-15.12 740.86-12.86Q739.20-10.60 736.12-9.60L736.12-9.60L742.96 0ZM731.00-11.40Q735.16-11.40 737.36-13.24Q739.56-15.08 739.56-18.40L739.56-18.40Q739.56-21.80 737.36-23.62Q735.16-25.44 731.00-25.44L731.00-25.44L723.56-25.44L723.56-11.40L731.00-11.40Z"/></g>
</svg>
</g><g opacity="1" transform="rotate(0 75.7578 288.9476)">
<svg width="363.0271" height="70" x="75.7578" y="288.9476" version="1.1" preserveAspectRatio="none" viewBox="1.6 -27.24 143.52 27.68">
  <g transform="matrix(1 0 0 1 0 0)" class="companyName"><path id="id-D6z1nYkh7" d="M9.60-21.60L9.60-21.60L9.60-8.56Q12.88-8.56 14.08-9.98Q15.28-11.40 15.28-14.96Q15.28-18.52 14.08-20.06Q12.88-21.60 9.60-21.60ZM9.60-0.80L11.60-0.80L11.60 0L1.60 0L1.60-0.80L3.60-0.80L3.60-21.60L1.60-21.60L1.60-22.40L9.56-22.40Q21.32-22.96 21.32-14.84L21.32-14.84Q21.32-11.24 18.36-9.36Q15.40-7.48 9.60-7.76L9.60-7.76L9.60-0.80Z M32.12-18.40L32.12-0.80L34.12-0.80L34.12 0L24.12 0L24.12-0.80L26.12-0.80L26.12-17.60L24.52-17.60L24.52-18.40L32.12-18.40ZM32.48-23.70Q32.48-22.24 31.46-21.22Q30.44-20.20 28.98-20.20Q27.52-20.20 26.48-21.22Q25.44-22.24 25.44-23.70Q25.44-25.16 26.48-26.20Q27.52-27.24 28.98-27.24Q30.44-27.24 31.46-26.20Q32.48-25.16 32.48-23.70Z M59.64-0.80L59.64-0.80L59.64 0Q54.20 0 52.10-0.78Q50-1.56 47.96-4.68L47.96-4.68L45.44-8.56L44.92-8.08L44.92-0.80L46.92-0.80L46.92 0L36.92 0L36.92-0.80L38.92-0.80L38.92-26L36.92-26L36.92-26.80L44.92-26.80L44.92-9.28L53.28-17.60L50.04-17.60L50.04-18.40L57.64-18.40L57.64-17.60L54.48-17.60L49.68-12.84L54.48-5.64Q57.72-0.80 59.64-0.80Z M81.04-0.80Q80.64-0.40 79.52-0.10Q78.40 0.20 76.92 0.20L76.92 0.20Q73.64 0.20 72.80-1.76L72.80-1.76Q70.80 0.32 66.68 0.32L66.68 0.32Q64.48 0.32 63.06-0.70Q61.64-1.72 61.64-3.72L61.64-3.72Q61.64-6.40 63.72-7.86Q65.80-9.32 71-9.92L71-9.92L72.60-10.12L72.60-12.08Q72.60-15.56 72.08-16.76Q71.56-17.96 70.02-17.96Q68.48-17.96 68.04-17.54Q67.60-17.12 67.72-16.58Q67.84-16.04 68.12-15.16Q68.40-14.28 68.40-13.76L68.40-13.76Q68.40-12.52 67.54-11.66Q66.68-10.80 65.46-10.80Q64.24-10.80 63.36-11.66Q62.48-12.52 62.48-13.76L62.48-13.76Q62.48-15.80 64.58-17.26Q66.68-18.72 70.86-18.72Q75.04-18.72 76.82-17.08Q78.60-15.44 78.60-11.28L78.60-11.28L78.60-4.08Q78.60-1.96 79.12-1.42Q79.64-0.88 81.04-1.20L81.04-1.20L81.04-0.80ZM67.20-4.52Q67.40-3 68.32-2.18Q69.24-1.36 70.46-1.36Q71.68-1.36 72.60-2.56L72.60-2.56L72.60-9.36L71.16-9.16Q69.32-8.92 68.18-7.76Q67.04-6.60 67.20-4.52L67.20-4.52Z M99.08-0.80L99.08 0L89.88 0L89.88-0.80L91.48-0.80L91.48-9.24L84.32-21.60L82.24-21.60L82.24-22.40L93.44-22.40L93.44-21.60L91.48-21.60L97.08-11.52L102.28-21.60L99.08-21.60L99.08-22.40L106.08-22.40L106.08-21.60L103.28-21.60L97.48-10.32L97.48-0.80L99.08-0.80Z M129.88 0L121.88 0L121.88-2.12Q121.12-1.04 119.50-0.30Q117.88 0.44 116 0.44L116 0.44Q108.88 0.44 108.88-7.28L108.88-7.28L108.88-17.60L106.88-17.60L106.88-18.40L114.88-18.40L114.88-6.40Q114.88-3.56 115.72-2.36Q116.56-1.16 118.24-1.16L118.24-1.16Q120.48-1.16 121.88-3.56L121.88-3.56L121.88-17.60L119.88-17.60L119.88-18.40L127.88-18.40L127.88-0.80L129.88-0.80L129.88 0Z M144.68-17.60L140.04-17.60L140.04-7.84Q140.04-4.40 140.32-3.66Q140.60-2.92 140.92-2.40L140.92-2.40Q141.52-1.36 143.02-1.36Q144.52-1.36 145.12-1.76L145.12-1.76L145.12-0.96Q143.20 0.40 140.92 0.40L140.92 0.40Q137.56 0.40 135.80-1.20Q134.04-2.80 134.04-6.92L134.04-6.92L134.04-17.60L131.08-17.60L131.08-18.40L134.04-18.40Q135.96-18.72 137.44-20.26Q138.92-21.80 139.48-24.52L139.48-24.52L140.04-24.52L140.04-18.40L144.68-18.40L144.68-17.60Z"/></g>
</svg>
</g></svg></svg>