<svg version="1.1" preserveAspectRatio="none" xmlns="http://www.w3.org/2000/svg" width="500" height="500" viewBox="0 0 500 500"><rect width="100%" height="100%" fill="#F3F3F3" fill-opacity="1"/><svg viewBox="252.0902 453.2481 512.3172 244.8227" width="333" height="159.13180174313885" x="83.5px" y="170.4341px" xmlns="http://www.w3.org/2000/svg" xmlns:xlink="http://www.w3.org/1999/xlink" preserveAspectRatio="none"><defs></defs><style>.companyName {fill:#333258;fill-opacity:1;}.icon1 {fill:#333258;fill-opacity:1;}.icon2 {fill:#F36958;fill-opacity:1;}.icon3 {fill:#8C94CC;fill-opacity:1;}.icon3-str {stroke:#8C94CC;stroke-opacity:1;}.text {fill:#333258;fill-opacity:1;}</style><g opacity="1" transform="rotate(0 252.0902 674.0708)">
<svg width="512.3172" height="24" x="252.0902" y="674.0708" version="1.1" preserveAspectRatio="none" viewBox="1.92 -30.28 817.1600000000001 38.28">
  <g transform="matrix(1 0 0 1 0 0)" class="text"><path id="id-6izo4zJp30" d="M16.72 0.32Q12.52 0.32 9.14-1.54Q5.76-3.40 3.84-6.66Q1.92-9.92 1.92-14L1.92-14Q1.92-18.08 3.84-21.34Q5.76-24.60 9.16-26.46Q12.56-28.32 16.76-28.32L16.76-28.32Q20.04-28.32 22.76-27.22Q25.48-26.12 27.40-23.96L27.40-23.96L24.80-21.44Q21.64-24.76 16.92-24.76L16.92-24.76Q13.80-24.76 11.28-23.36Q8.76-21.96 7.34-19.50Q5.92-17.04 5.92-14L5.92-14Q5.92-10.96 7.34-8.50Q8.76-6.04 11.28-4.64Q13.80-3.24 16.92-3.24L16.92-3.24Q21.60-3.24 24.80-6.60L24.80-6.60L27.40-4.08Q25.48-1.92 22.74-0.80Q20 0.32 16.72 0.32L16.72 0.32Z M44.76 0.24Q41.60 0.24 39.08-1.16Q36.56-2.56 35.14-5.02Q33.72-7.48 33.72-10.60L33.72-10.60Q33.72-13.72 35.14-16.18Q36.56-18.64 39.08-20.02Q41.60-21.40 44.76-21.40L44.76-21.40Q47.92-21.40 50.42-20.02Q52.92-18.64 54.34-16.18Q55.76-13.72 55.76-10.60L55.76-10.60Q55.76-7.48 54.34-5.02Q52.92-2.56 50.42-1.16Q47.92 0.24 44.76 0.24L44.76 0.24ZM44.76-3.12Q46.80-3.12 48.42-4.06Q50.04-5 50.96-6.70Q51.88-8.40 51.88-10.60L51.88-10.60Q51.88-12.80 50.96-14.50Q50.04-16.20 48.42-17.12Q46.80-18.04 44.76-18.04L44.76-18.04Q42.72-18.04 41.10-17.12Q39.48-16.20 38.54-14.50Q37.60-12.80 37.60-10.60L37.60-10.60Q37.60-8.40 38.54-6.70Q39.48-5 41.10-4.06Q42.72-3.12 44.76-3.12L44.76-3.12Z M91.60-21.40Q95.60-21.40 97.94-19.08Q100.28-16.76 100.28-12.20L100.28-12.20L100.28 0L96.44 0L96.44-11.76Q96.44-14.84 95.02-16.40Q93.60-17.96 90.96-17.96L90.96-17.96Q88.04-17.96 86.32-16.14Q84.60-14.32 84.60-10.92L84.60-10.92L84.60 0L80.76 0L80.76-11.76Q80.76-14.84 79.34-16.40Q77.92-17.96 75.28-17.96L75.28-17.96Q72.36-17.96 70.64-16.14Q68.92-14.32 68.92-10.92L68.92-10.92L68.92 0L65.08 0L65.08-21.20L68.76-21.20L68.76-18.04Q69.92-19.68 71.80-20.54Q73.68-21.40 76.08-21.40L76.08-21.40Q78.56-21.40 80.48-20.40Q82.40-19.40 83.44-17.48L83.44-17.48Q84.64-19.32 86.78-20.36Q88.92-21.40 91.60-21.40L91.60-21.40Z M137.88-21.40Q141.88-21.40 144.22-19.08Q146.56-16.76 146.56-12.20L146.56-12.20L146.56 0L142.72 0L142.72-11.76Q142.72-14.84 141.30-16.40Q139.88-17.96 137.24-17.96L137.24-17.96Q134.32-17.96 132.60-16.14Q130.88-14.32 130.88-10.92L130.88-10.92L130.88 0L127.04 0L127.04-11.76Q127.04-14.84 125.62-16.40Q124.20-17.96 121.56-17.96L121.56-17.96Q118.64-17.96 116.92-16.14Q115.20-14.32 115.20-10.92L115.20-10.92L115.20 0L111.36 0L111.36-21.20L115.04-21.20L115.04-18.04Q116.20-19.68 118.08-20.54Q119.96-21.40 122.36-21.40L122.36-21.40Q124.84-21.40 126.76-20.40Q128.68-19.40 129.72-17.48L129.72-17.48Q130.92-19.32 133.06-20.36Q135.20-21.40 137.88-21.40L137.88-21.40Z M173.56-21.20L177.40-21.20L177.40 0L173.76 0L173.76-3.20Q172.60-1.56 170.70-0.66Q168.80 0.24 166.56 0.24L166.56 0.24Q162.32 0.24 159.88-2.10Q157.44-4.44 157.44-9L157.44-9L157.44-21.20L161.28-21.20L161.28-9.44Q161.28-6.36 162.76-4.78Q164.24-3.20 167-3.20L167-3.20Q170.04-3.20 171.80-5.04Q173.56-6.88 173.56-10.24L173.56-10.24L173.56-21.20Z M200.04-21.40Q204.08-21.40 206.46-19.06Q208.84-16.72 208.84-12.20L208.84-12.20L208.84 0L205 0L205-11.76Q205-14.84 203.52-16.40Q202.04-17.96 199.28-17.96L199.28-17.96Q196.16-17.96 194.36-16.14Q192.56-14.32 192.56-10.92L192.56-10.92L192.56 0L188.72 0L188.72-21.20L192.40-21.20L192.40-18Q193.56-19.64 195.54-20.52Q197.52-21.40 200.04-21.40L200.04-21.40Z M219.96 0L219.96-21.20L223.80-21.20L223.80 0L219.96 0ZM221.88-25.28Q220.76-25.28 220.02-26Q219.28-26.72 219.28-27.76L219.28-27.76Q219.28-28.80 220.02-29.54Q220.76-30.28 221.88-30.28L221.88-30.28Q223.00-30.28 223.74-29.58Q224.48-28.88 224.48-27.84L224.48-27.84Q224.48-26.76 223.74-26.02Q223.00-25.28 221.88-25.28L221.88-25.28Z M245.84-4L247.04-1.24Q246.20-0.52 244.96-0.14Q243.72 0.24 242.40 0.24L242.40 0.24Q239.20 0.24 237.44-1.48Q235.68-3.20 235.68-6.40L235.68-6.40L235.68-18.04L232.08-18.04L232.08-21.20L235.68-21.20L235.68-25.84L239.52-25.84L239.52-21.20L245.60-21.20L245.60-18.04L239.52-18.04L239.52-6.56Q239.52-4.84 240.38-3.92Q241.24-3 242.84-3L242.84-3Q244.60-3 245.84-4L245.84-4Z M270.28-21.20L274.04-21.20L263.76 2.12Q262.40 5.36 260.58 6.68Q258.76 8 256.20 8L256.20 8Q254.64 8 253.18 7.50Q251.72 7 250.76 6.04L250.76 6.04L252.40 3.16Q254.04 4.72 256.20 4.72L256.20 4.72Q257.60 4.72 258.54 3.98Q259.48 3.24 260.24 1.44L260.24 1.44L260.92-0.04L251.56-21.20L255.56-21.20L262.96-4.24L270.28-21.20Z M296.96 7.76L296.96-29.68L300.52-29.68L300.52 7.76L296.96 7.76Z M332.32-5.04L332.32-14.16L336.16-14.16L336.16-3.24Q334.08-1.52 331.32-0.60Q328.56 0.32 325.56 0.32L325.56 0.32Q321.32 0.32 317.92-1.54Q314.52-3.40 312.58-6.66Q310.64-9.92 310.64-14L310.64-14Q310.64-18.08 312.58-21.36Q314.52-24.64 317.94-26.48Q321.36-28.32 325.64-28.32L325.64-28.32Q329-28.32 331.74-27.22Q334.48-26.12 336.40-24L336.40-24L333.92-21.52Q330.56-24.76 325.80-24.76L325.80-24.76Q322.60-24.76 320.06-23.38Q317.52-22 316.08-19.54Q314.64-17.08 314.64-14L314.64-14Q314.64-10.96 316.08-8.50Q317.52-6.04 320.06-4.64Q322.60-3.24 325.76-3.24L325.76-3.24Q329.52-3.24 332.32-5.04L332.32-5.04Z M354.96-21.40Q359.36-21.40 361.70-19.24Q364.04-17.08 364.04-12.80L364.04-12.80L364.04 0L360.40 0L360.40-2.80Q359.44-1.32 357.66-0.54Q355.88 0.24 353.44 0.24L353.44 0.24Q349.88 0.24 347.74-1.48Q345.60-3.20 345.60-6L345.60-6Q345.60-8.80 347.64-10.50Q349.68-12.20 354.12-12.20L354.12-12.20L360.20-12.20L360.20-12.96Q360.20-15.44 358.76-16.76Q357.32-18.08 354.52-18.08L354.52-18.08Q352.64-18.08 350.84-17.46Q349.04-16.84 347.80-15.80L347.80-15.80L346.20-18.68Q347.84-20 350.12-20.70Q352.40-21.40 354.96-21.40L354.96-21.40ZM354.08-2.72Q356.28-2.72 357.88-3.70Q359.48-4.68 360.20-6.48L360.20-6.48L360.20-9.44L354.28-9.44Q349.40-9.44 349.40-6.16L349.40-6.16Q349.40-4.56 350.64-3.64Q351.88-2.72 354.08-2.72L354.08-2.72Z M401.68-21.40Q405.68-21.40 408.02-19.08Q410.36-16.76 410.36-12.20L410.36-12.20L410.36 0L406.52 0L406.52-11.76Q406.52-14.84 405.10-16.40Q403.68-17.96 401.04-17.96L401.04-17.96Q398.12-17.96 396.40-16.14Q394.68-14.32 394.68-10.92L394.68-10.92L394.68 0L390.84 0L390.84-11.76Q390.84-14.84 389.42-16.40Q388-17.96 385.36-17.96L385.36-17.96Q382.44-17.96 380.72-16.14Q379-14.32 379-10.92L379-10.92L379 0L375.16 0L375.16-21.20L378.84-21.20L378.84-18.04Q380-19.68 381.88-20.54Q383.76-21.40 386.16-21.40L386.16-21.40Q388.64-21.40 390.56-20.40Q392.48-19.40 393.52-17.48L393.52-17.48Q394.72-19.32 396.86-20.36Q399-21.40 401.68-21.40L401.68-21.40Z M421.44 0L421.44-21.20L425.28-21.20L425.28 0L421.44 0ZM423.36-25.28Q422.24-25.28 421.50-26Q420.76-26.72 420.76-27.76L420.76-27.76Q420.76-28.80 421.50-29.54Q422.24-30.28 423.36-30.28L423.36-30.28Q424.48-30.28 425.22-29.58Q425.96-28.88 425.96-27.84L425.96-27.84Q425.96-26.76 425.22-26.02Q424.48-25.28 423.36-25.28L423.36-25.28Z M447.92-21.40Q451.96-21.40 454.34-19.06Q456.72-16.72 456.72-12.20L456.72-12.20L456.72 0L452.88 0L452.88-11.76Q452.88-14.84 451.40-16.40Q449.92-17.96 447.16-17.96L447.16-17.96Q444.04-17.96 442.24-16.14Q440.44-14.32 440.44-10.92L440.44-10.92L440.44 0L436.60 0L436.60-21.20L440.28-21.20L440.28-18Q441.44-19.64 443.42-20.52Q445.40-21.40 447.92-21.40L447.92-21.40Z M484.60-21.20L488.24-21.20L488.24-2.88Q488.24 2.68 485.48 5.34Q482.72 8 477.24 8L477.24 8Q474.24 8 471.52 7.18Q468.80 6.36 467.12 4.84L467.12 4.84L468.96 1.88Q470.44 3.16 472.62 3.90Q474.80 4.64 477.12 4.64L477.12 4.64Q480.84 4.64 482.62 2.88Q484.40 1.12 484.40-2.48L484.40-2.48L484.40-4.16Q483.04-2.52 481.06-1.70Q479.08-0.88 476.76-0.88L476.76-0.88Q473.72-0.88 471.26-2.18Q468.80-3.48 467.40-5.82Q466-8.16 466-11.16L466-11.16Q466-14.16 467.40-16.50Q468.80-18.84 471.26-20.12Q473.72-21.40 476.76-21.40L476.76-21.40Q479.16-21.40 481.22-20.52Q483.28-19.64 484.60-17.92L484.60-17.92L484.60-21.20ZM477.20-4.24Q479.28-4.24 480.94-5.12Q482.60-6 483.54-7.58Q484.48-9.16 484.48-11.16L484.48-11.16Q484.48-14.24 482.44-16.14Q480.40-18.04 477.20-18.04L477.20-18.04Q473.96-18.04 471.92-16.14Q469.88-14.24 469.88-11.16L469.88-11.16Q469.88-9.16 470.82-7.58Q471.76-6 473.42-5.12Q475.08-4.24 477.20-4.24L477.20-4.24Z M522.04-21.40Q526.44-21.40 528.78-19.24Q531.12-17.08 531.12-12.80L531.12-12.80L531.12 0L527.48 0L527.48-2.80Q526.52-1.32 524.74-0.54Q522.96 0.24 520.52 0.24L520.52 0.24Q516.96 0.24 514.82-1.48Q512.68-3.20 512.68-6L512.68-6Q512.68-8.80 514.72-10.50Q516.76-12.20 521.20-12.20L521.20-12.20L527.28-12.20L527.28-12.96Q527.28-15.44 525.84-16.76Q524.40-18.08 521.60-18.08L521.60-18.08Q519.72-18.08 517.92-17.46Q516.12-16.84 514.88-15.80L514.88-15.80L513.28-18.68Q514.92-20 517.20-20.70Q519.48-21.40 522.04-21.40L522.04-21.40ZM521.16-2.72Q523.36-2.72 524.96-3.70Q526.56-4.68 527.28-6.48L527.28-6.48L527.28-9.44L521.36-9.44Q516.48-9.44 516.48-6.16L516.48-6.16Q516.48-4.56 517.72-3.64Q518.96-2.72 521.16-2.72L521.16-2.72Z M553.56-21.40Q557.60-21.40 559.98-19.06Q562.36-16.72 562.36-12.20L562.36-12.20L562.36 0L558.52 0L558.52-11.76Q558.52-14.84 557.04-16.40Q555.56-17.96 552.80-17.96L552.80-17.96Q549.68-17.96 547.88-16.14Q546.08-14.32 546.08-10.92L546.08-10.92L546.08 0L542.24 0L542.24-21.20L545.92-21.20L545.92-18Q547.08-19.64 549.06-20.52Q551.04-21.40 553.56-21.40L553.56-21.40Z M589.76-29.68L593.60-29.68L593.60 0L589.92 0L589.92-3.36Q588.64-1.60 586.68-0.68Q584.72 0.24 582.36 0.24L582.36 0.24Q579.28 0.24 576.84-1.12Q574.40-2.48 573.02-4.94Q571.64-7.40 571.64-10.60L571.64-10.60Q571.64-13.80 573.02-16.24Q574.40-18.68 576.84-20.04Q579.28-21.40 582.36-21.40L582.36-21.40Q584.64-21.40 586.56-20.54Q588.48-19.68 589.76-18L589.76-18L589.76-29.68ZM582.68-3.12Q584.68-3.12 586.32-4.06Q587.96-5 588.88-6.70Q589.80-8.40 589.80-10.60L589.80-10.60Q589.80-12.80 588.88-14.50Q587.96-16.20 586.32-17.12Q584.68-18.04 582.68-18.04L582.68-18.04Q580.64-18.04 579.02-17.12Q577.40-16.20 576.46-14.50Q575.52-12.80 575.52-10.60L575.52-10.60Q575.52-8.40 576.46-6.70Q577.40-5 579.02-4.06Q580.64-3.12 582.68-3.12L582.68-3.12Z M628.88 0.24Q625.64 0.24 623.10-1.16Q620.56-2.56 619.12-5.02Q617.68-7.48 617.68-10.60L617.68-10.60Q617.68-13.72 619.12-16.18Q620.56-18.64 623.10-20.02Q625.64-21.40 628.88-21.40L628.88-21.40Q631.76-21.40 634.02-20.24Q636.28-19.08 637.52-16.88L637.52-16.88L634.60-15Q633.60-16.52 632.12-17.28Q630.64-18.04 628.84-18.04L628.84-18.04Q626.76-18.04 625.10-17.12Q623.44-16.20 622.50-14.50Q621.56-12.80 621.56-10.60L621.56-10.60Q621.56-8.36 622.50-6.66Q623.44-4.96 625.10-4.04Q626.76-3.12 628.84-3.12L628.84-3.12Q630.64-3.12 632.12-3.88Q633.60-4.64 634.60-6.16L634.60-6.16L637.52-4.32Q636.28-2.12 634.02-0.94Q631.76 0.24 628.88 0.24L628.88 0.24Z M655.24 0.24Q652.08 0.24 649.56-1.16Q647.04-2.56 645.62-5.02Q644.20-7.48 644.20-10.60L644.20-10.60Q644.20-13.72 645.62-16.18Q647.04-18.64 649.56-20.02Q652.08-21.40 655.24-21.40L655.24-21.40Q658.40-21.40 660.90-20.02Q663.40-18.64 664.82-16.18Q666.24-13.72 666.24-10.60L666.24-10.60Q666.24-7.48 664.82-5.02Q663.40-2.56 660.90-1.16Q658.40 0.24 655.24 0.24L655.24 0.24ZM655.24-3.12Q657.28-3.12 658.90-4.06Q660.52-5 661.44-6.70Q662.36-8.40 662.36-10.60L662.36-10.60Q662.36-12.80 661.44-14.50Q660.52-16.20 658.90-17.12Q657.28-18.04 655.24-18.04L655.24-18.04Q653.20-18.04 651.58-17.12Q649.96-16.20 649.02-14.50Q648.08-12.80 648.08-10.60L648.08-10.60Q648.08-8.40 649.02-6.70Q649.96-5 651.58-4.06Q653.20-3.12 655.24-3.12L655.24-3.12Z M691.72-29.68L695.56-29.68L695.56 0L691.88 0L691.88-3.36Q690.60-1.60 688.64-0.68Q686.68 0.24 684.32 0.24L684.32 0.24Q681.24 0.24 678.80-1.12Q676.36-2.48 674.98-4.94Q673.60-7.40 673.60-10.60L673.60-10.60Q673.60-13.80 674.98-16.24Q676.36-18.68 678.80-20.04Q681.24-21.40 684.32-21.40L684.32-21.40Q686.60-21.40 688.52-20.54Q690.44-19.68 691.72-18L691.72-18L691.72-29.68ZM684.64-3.12Q686.64-3.12 688.28-4.06Q689.92-5 690.84-6.70Q691.76-8.40 691.76-10.60L691.76-10.60Q691.76-12.80 690.84-14.50Q689.92-16.20 688.28-17.12Q686.64-18.04 684.64-18.04L684.64-18.04Q682.60-18.04 680.98-17.12Q679.36-16.20 678.42-14.50Q677.48-12.80 677.48-10.60L677.48-10.60Q677.48-8.40 678.42-6.70Q679.36-5 680.98-4.06Q682.60-3.12 684.64-3.12L684.64-3.12Z M726.00-10.48Q726.00-10.04 725.92-9.32L725.92-9.32L708.72-9.32Q709.08-6.52 711.18-4.82Q713.28-3.12 716.40-3.12L716.40-3.12Q720.20-3.12 722.52-5.68L722.52-5.68L724.64-3.20Q723.20-1.52 721.06-0.64Q718.92 0.24 716.28 0.24L716.28 0.24Q712.92 0.24 710.32-1.14Q707.72-2.52 706.30-5Q704.88-7.48 704.88-10.60L704.88-10.60Q704.88-13.68 706.26-16.16Q707.64-18.64 710.06-20.02Q712.48-21.40 715.52-21.40L715.52-21.40Q718.56-21.40 720.94-20.02Q723.32-18.64 724.66-16.16Q726.00-13.68 726.00-10.48L726.00-10.48ZM715.52-18.16Q712.76-18.16 710.90-16.48Q709.04-14.80 708.72-12.08L708.72-12.08L722.32-12.08Q722.00-14.76 720.14-16.46Q718.28-18.16 715.52-18.16L715.52-18.16Z M735.88 7.76L735.88-29.68L739.44-29.68L739.44 7.76L735.88 7.76Z M786.36-24.52L770.60-24.52L770.60-14.76L784.64-14.76L784.64-11.32L770.60-11.32L770.60 0L766.60 0L766.60-28L786.36-28L786.36-24.52Z M819.08 0L814.72 0L808.68-8.60Q807.56-8.52 806.92-8.52L806.92-8.52L800-8.52L800 0L796 0L796-28L806.92-28Q812.36-28 815.48-25.40Q818.60-22.80 818.60-18.24L818.60-18.24Q818.60-15 817-12.72Q815.40-10.44 812.44-9.40L812.44-9.40L819.08 0ZM806.80-11.92Q810.60-11.92 812.60-13.56Q814.60-15.20 814.60-18.24L814.60-18.24Q814.60-21.28 812.60-22.90Q810.60-24.52 806.80-24.52L806.80-24.52L800-24.52L800-11.92L806.80-11.92Z"/></g>
</svg>
</g><g opacity="1" transform="rotate(0 311.1921 572.0708)">
<svg width="394.1134" height="80" x="311.1921" y="572.0708" version="1.1" preserveAspectRatio="none" viewBox="4 -31.24 155.28 31.52">
  <g transform="matrix(1 0 0 1 0 0)" class="companyName"><path id="id-D6z1nYkh7" d="M6.40-1.20Q6.40-0.68 6.08-0.34Q5.76 0 5.20 0L5.20 0Q4.68 0 4.34-0.34Q4-0.68 4-1.20L4-1.20L4-30.04Q4-30.60 4.34-30.92Q4.68-31.24 5.20-31.24L5.20-31.24L13.20-31.24Q16.08-31.24 18.36-29.96Q20.64-28.68 21.92-26.40Q23.20-24.12 23.20-21.24L23.20-21.24Q23.20-18.32 21.92-16.04Q20.64-13.76 18.36-12.48Q16.08-11.20 13.20-11.20L13.20-11.20L6.40-11.20L6.40-1.20ZM13.20-13.60Q15.40-13.60 17.12-14.58Q18.84-15.56 19.82-17.30Q20.80-19.04 20.80-21.24L20.80-21.24Q20.80-23.44 19.82-25.16Q18.84-26.88 17.12-27.86Q15.40-28.84 13.20-28.84L13.20-28.84L6.40-28.84L6.40-13.60L13.20-13.60Z M30.60-20.68Q30.60-21.24 30.94-21.56Q31.28-21.88 31.80-21.88L31.80-21.88Q32.36-21.88 32.68-21.56Q33-21.24 33-20.68L33-20.68L33-1.20Q33-0.68 32.68-0.34Q32.36 0 31.80 0L31.80 0Q31.28 0 30.94-0.34Q30.60-0.68 30.60-1.20L30.60-1.20L30.60-20.68ZM31.80-30.20Q32.56-30.20 33.10-29.72Q33.64-29.24 33.64-28.36L33.64-28.36Q33.64-27.56 33.10-27.02Q32.56-26.48 31.76-26.48L31.76-26.48Q30.96-26.48 30.44-27.02Q29.92-27.56 29.92-28.36L29.92-28.36Q29.92-29.24 30.48-29.72Q31.04-30.20 31.80-30.20L31.80-30.20Z M59.52-1.76Q59.80-1.44 59.80-1.04L59.80-1.04Q59.80-0.60 59.36-0.20L59.36-0.20Q58.96 0.12 58.64 0.12L58.64 0.12Q58.16 0.12 57.80-0.36L57.80-0.36L49.12-10.96L45.40-7.56L45.40-1.20Q45.40-0.68 45.08-0.34Q44.76 0 44.20 0L44.20 0Q43.68 0 43.34-0.34Q43-0.68 43-1.20L43-1.20L43-30.04Q43-30.60 43.34-30.92Q43.68-31.24 44.20-31.24L44.20-31.24Q44.76-31.24 45.08-30.92Q45.40-30.60 45.40-30.04L45.40-30.04L45.40-10.48L57.80-21.76Q58.20-22.08 58.56-22.08L58.56-22.08Q58.96-22.08 59.32-21.68L59.32-21.68Q59.68-21.32 59.68-20.92L59.68-20.92Q59.68-20.52 59.28-20.16L59.28-20.16L50.80-12.44L59.52-1.76Z M75.96-22.12Q79.08-22.12 81.64-20.66Q84.20-19.20 85.66-16.64Q87.12-14.08 87.12-10.92L87.12-10.92L87.12-1.20Q87.12-0.68 86.80-0.34Q86.48 0 85.92 0L85.92 0Q85.40 0 85.06-0.34Q84.72-0.68 84.72-1.20L84.72-1.20L84.72-4.32Q83.40-2.20 81.10-0.98Q78.80 0.24 75.96 0.24L75.96 0.24Q72.80 0.24 70.24-1.22Q67.68-2.68 66.22-5.24Q64.76-7.80 64.76-10.92L64.76-10.92Q64.76-14.08 66.22-16.64Q67.68-19.20 70.24-20.66Q72.80-22.12 75.96-22.12L75.96-22.12ZM75.96-2Q78.44-2 80.44-3.16Q82.44-4.32 83.58-6.36Q84.72-8.40 84.72-10.92L84.72-10.92Q84.72-13.44 83.58-15.48Q82.44-17.52 80.44-18.70Q78.44-19.88 75.96-19.88L75.96-19.88Q73.48-19.88 71.48-18.70Q69.48-17.52 68.32-15.48Q67.16-13.44 67.16-10.92L67.16-10.92Q67.16-8.40 68.32-6.36Q69.48-4.32 71.48-3.16Q73.48-2 75.96-2L75.96-2Z M115.56-31.24Q116.04-31.24 116.34-30.92Q116.64-30.60 116.64-30.12L116.64-30.12Q116.64-29.68 116.44-29.36L116.44-29.36L105.40-11.68L105.40-1.20Q105.40-0.68 105.06-0.34Q104.72 0 104.20 0L104.20 0Q103.68 0 103.34-0.34Q103-0.68 103-1.20L103-1.20L103-11.68L91.96-29.36Q91.72-29.80 91.72-30.12L91.72-30.12Q91.72-30.60 92.04-30.92Q92.36-31.24 92.88-31.24L92.88-31.24Q93.40-31.24 93.84-30.76L93.84-30.76L104.20-13.88L114.40-30.48Q114.68-30.92 114.94-31.08Q115.20-31.24 115.56-31.24L115.56-31.24Z M137.76-21.88Q138.32-21.88 138.64-21.56Q138.96-21.24 138.96-20.68L138.96-20.68L138.96-1.20Q138.96-0.68 138.64-0.34Q138.32 0 137.76 0L137.76 0Q137.24 0 136.90-0.34Q136.56-0.68 136.56-1.20L136.56-1.20L136.56-3.28Q135.20-1.60 133.24-0.66Q131.28 0.28 128.96 0.28L128.96 0.28Q126.04 0.28 123.74-0.92Q121.44-2.12 120.14-4.42Q118.84-6.72 118.84-9.92L118.84-9.92L118.84-20.68Q118.84-21.20 119.18-21.54Q119.52-21.88 120.04-21.88L120.04-21.88Q120.56-21.88 120.90-21.54Q121.24-21.20 121.24-20.68L121.24-20.68L121.24-9.92Q121.24-6.12 123.38-4.12Q125.52-2.12 128.96-2.12L128.96-2.12Q131.08-2.12 132.82-2.94Q134.56-3.76 135.56-5.22Q136.56-6.68 136.56-8.44L136.56-8.44L136.56-20.68Q136.56-21.24 136.90-21.56Q137.24-21.88 137.76-21.88L137.76-21.88Z M158.04-2.44Q158.60-2.44 158.94-2.10Q159.28-1.76 159.28-1.20L159.28-1.20Q159.28-0.68 158.94-0.34Q158.60 0 158.04 0L158.04 0L157.12 0Q154.92 0 153.20-1Q151.48-2 150.52-3.74Q149.56-5.48 149.56-7.68L149.56-7.68L149.56-18.92L146.44-18.92Q145.96-18.92 145.66-19.22Q145.36-19.52 145.36-20L145.36-20Q145.36-20.48 145.66-20.78Q145.96-21.08 146.44-21.08L146.44-21.08L149.56-21.08L149.56-27.60Q149.56-28.16 149.90-28.50Q150.24-28.84 150.76-28.84L150.76-28.84Q151.32-28.84 151.66-28.50Q152-28.16 152-27.60L152-27.60L152-21.08L157.28-21.08Q157.76-21.08 158.06-20.78Q158.36-20.48 158.36-20L158.36-20Q158.36-19.52 158.06-19.22Q157.76-18.92 157.28-18.92L157.28-18.92L152-18.92L152-7.68Q152-5.36 153.44-3.90Q154.88-2.44 157.16-2.44L157.16-2.44L158.04-2.44Z"/></g>
</svg>
</g><g opacity="1" transform="rotate(0 468.8375 453.2481)">
<svg width="78.8226" height="78.8227" x="468.8375" y="453.2481" version="1.1" preserveAspectRatio="none" viewBox="23.5 23.5 153 153">
  <g transform="matrix(1 0 0 1 0 0)" ><g><path d="m29.934 140.158-6.434-6.434c42.152-42.152 110.737-42.152 152.888 0l-6.434 6.434c-38.604-38.604-101.416-38.604-140.02 0z" data-color="1" class="icon1"></path><path d="m41.998 152.222-6.434-6.434c35.499-35.499 93.26-35.499 128.759 0l-6.434 6.434c-31.951-31.952-83.939-31.951-115.891 0z" data-color="1" class="icon1"></path><path d="m54.063 164.286-6.434-6.434c28.847-28.847 75.784-28.847 104.631 0l-6.434 6.434c-25.3-25.299-66.464-25.299-91.763 0z" data-color="1" class="icon1"></path><path d="m66.127 176.35-6.434-6.434c22.195-22.195 58.308-22.195 80.503 0l-6.434 6.434c-18.648-18.647-48.988-18.646-67.635 0z" data-color="1" class="icon1"></path><path d="m59.842 170.066 6.434 6.434c42.152-42.152 42.152-110.737 0-152.888l-6.434 6.434c38.604 38.604 38.604 101.416 0 140.02z" data-color="2" class="icon2"></path><path d="m47.778 158.002 6.434 6.434c35.499-35.499 35.499-93.26 0-128.759l-6.434 6.434c31.952 31.951 31.951 83.939 0 115.891z" data-color="2" class="icon2"></path><path d="m35.714 145.937 6.434 6.434c28.847-28.847 28.847-75.784 0-104.631l-6.434 6.434c25.299 25.3 25.299 66.464 0 91.763z" data-color="2" class="icon2"></path><path d="m23.65 133.873 6.434 6.434c22.195-22.195 22.195-58.308 0-80.503l-6.434 6.434c18.647 18.648 18.646 48.988 0 67.635z" data-color="2" class="icon2"></path><g opacity=".66"><path d="m59.842 170.066 6.434 6.434c42.152-42.152 42.152-110.737 0-152.888l-6.434 6.434c38.604 38.604 38.604 101.416 0 140.02z" data-color="1" class="icon1"></path><path d="m47.778 158.002 6.434 6.434c35.499-35.499 35.499-93.26 0-128.759l-6.434 6.434c31.952 31.951 31.951 83.939 0 115.891z" data-color="1" class="icon1"></path><path d="m35.714 145.937 6.434 6.434c28.847-28.847 28.847-75.784 0-104.631l-6.434 6.434c25.299 25.3 25.299 66.464 0 91.763z" data-color="1" class="icon1"></path><path d="m23.65 133.873 6.434 6.434c22.195-22.195 22.195-58.308 0-80.503l-6.434 6.434c18.647 18.648 18.646 48.988 0 67.635z" data-color="1" class="icon1"></path></g><path d="m170.066 59.842 6.434 6.434c-42.152 42.152-110.737 42.152-152.888 0l6.434-6.434c38.604 38.604 101.416 38.604 140.02 0z" data-color="2" class="icon2"></path><path d="m158.002 47.778 6.434 6.434c-35.499 35.499-93.26 35.499-128.759 0l6.434-6.434c31.951 31.952 83.939 31.951 115.891 0z" data-color="2" class="icon2"></path><path d="m145.937 35.714 6.434 6.434c-28.847 28.847-75.784 28.847-104.631 0l6.434-6.434c25.3 25.299 66.464 25.299 91.763 0z" data-color="2" class="icon2"></path><path d="m133.873 23.65 6.434 6.434c-22.195 22.195-58.308 22.195-80.503 0l6.434-6.434c18.648 18.647 48.988 18.646 67.635 0z" data-color="2" class="icon2"></path><g opacity=".33"><path d="m170.066 59.842 6.434 6.434c-42.152 42.152-110.737 42.152-152.888 0l6.434-6.434c38.604 38.604 101.416 38.604 140.02 0z" data-color="1" class="icon1"></path><path d="m158.002 47.778 6.434 6.434c-35.499 35.499-93.26 35.499-128.759 0l6.434-6.434c31.951 31.952 83.939 31.951 115.891 0z" data-color="1" class="icon1"></path><path d="m145.937 35.714 6.434 6.434c-28.847 28.847-75.784 28.847-104.631 0l6.434-6.434c25.3 25.299 66.464 25.299 91.763 0z" data-color="1" class="icon1"></path><path d="m133.873 23.65 6.434 6.434c-22.195 22.195-58.308 22.195-80.503 0l6.434-6.434c18.648 18.647 48.988 18.646 67.635 0z" data-color="1" class="icon1"></path></g><path d="m140.158 29.934-6.434-6.434c-42.152 42.152-42.152 110.737 0 152.888l6.434-6.434c-38.604-38.604-38.604-101.416 0-140.02z" data-color="2" class="icon2"></path><path d="m152.222 41.998-6.434-6.434c-35.499 35.499-35.499 93.26 0 128.759l6.434-6.434c-31.952-31.951-31.951-83.939 0-115.891z" data-color="2" class="icon2"></path><path d="m164.286 54.063-6.434-6.434c-28.847 28.847-28.847 75.784 0 104.631l6.434-6.434c-25.299-25.3-25.299-66.464 0-91.763z" data-color="2" class="icon2"></path><path d="m176.35 66.127-6.434-6.434c-22.195 22.195-22.195 58.308 0 80.503l6.434-6.434c-18.647-18.648-18.646-48.988 0-67.635z" data-color="2" class="icon2"></path><path d="M139.926 109.733a108.473 108.473 0 0 0-38.022-7.599c.061 3.049.253 6.096.57 9.132a99.189 99.189 0 0 1 37.451 8.352 98.451 98.451 0 0 1 30.028 20.54l6.434-6.434c-10.73-10.732-23.176-18.724-36.461-23.991z" data-color="1" class="icon1"></path><path d="M103.609 119.251c.558 3.1 1.247 6.18 2.077 9.231a81.838 81.838 0 0 1 34.24 10.172 81.728 81.728 0 0 1 17.964 13.568l6.434-6.434a90.608 90.608 0 0 0-24.398-17.396 91.107 91.107 0 0 0-36.317-9.141z" data-color="1" class="icon1"></path><path d="M108.284 136.703a107.446 107.446 0 0 0 4.084 9.799 64.49 64.49 0 0 1 27.558 12.579 65.398 65.398 0 0 1 5.9 5.204l6.434-6.434a73.99 73.99 0 0 0-12.334-9.927c-9.706-6.236-20.557-9.973-31.642-11.221z" data-color="1" class="icon1"></path><path d="M131.059 173.866a48.24 48.24 0 0 1 2.584 2.371l6.283-6.283v-.294a56.558 56.558 0 0 0-22.405-13.611 107.731 107.731 0 0 0 13.538 17.817z" data-color="1" class="icon1"></path></g></g>
</svg>
</g></svg></svg>