<svg version="1.1" preserveAspectRatio="none" xmlns="http://www.w3.org/2000/svg" width="500" height="500" viewBox="0 0 500 500"><rect width="100%" height="100%" fill="#141414" fill-opacity="1"/><svg viewBox="243.5116 374.8292 411.8479 133.6" width="333" height="108.02240341640687" x="83.5px" y="195.9888px" xmlns="http://www.w3.org/2000/svg" xmlns:xlink="http://www.w3.org/1999/xlink" preserveAspectRatio="none"><defs></defs><style>.companyName {fill:#C9EF73;fill-opacity:1;}.icon1 {fill:#C9EF73;fill-opacity:1;}.icon3-str {stroke:#F5F5F5;stroke-opacity:1;}</style><g opacity="1" transform="rotate(0 243.5116 486.8292)">
<svg width="411.8479" height="21.6" x="243.5116" y="486.8292" version="1.1" preserveAspectRatio="none" viewBox="2.08 -29.68 717.68 37.64">
  <g transform="matrix(1 0 0 1 0 0)" class="icon1"><path id="id-6izo4zJp30" d="M16.72 0.24Q12.56 0.24 9.22-1.60Q5.88-3.44 3.98-6.70Q2.08-9.96 2.08-14L2.08-14Q2.08-18.04 3.98-21.30Q5.88-24.56 9.24-26.40Q12.60-28.24 16.76-28.24L16.76-28.24Q19.88-28.24 22.52-27.20Q25.16-26.16 27-24.16L27-24.16L25.12-22.28Q21.84-25.60 16.84-25.60L16.84-25.60Q13.52-25.60 10.80-24.08Q8.08-22.56 6.54-19.92Q5-17.28 5-14L5-14Q5-10.72 6.54-8.08Q8.08-5.44 10.80-3.92Q13.52-2.40 16.84-2.40L16.84-2.40Q21.88-2.40 25.12-5.76L25.12-5.76L27-3.88Q25.16-1.88 22.50-0.82Q19.84 0.24 16.72 0.24L16.72 0.24Z M41.20 0.20Q38.16 0.20 35.72-1.18Q33.28-2.56 31.88-5Q30.48-7.44 30.48-10.52L30.48-10.52Q30.48-13.60 31.88-16.04Q33.28-18.48 35.72-19.84Q38.16-21.20 41.20-21.20L41.20-21.20Q44.24-21.20 46.68-19.84Q49.12-18.48 50.50-16.04Q51.88-13.60 51.88-10.52L51.88-10.52Q51.88-7.44 50.50-5Q49.12-2.56 46.68-1.18Q44.24 0.20 41.20 0.20L41.20 0.20ZM41.20-2.32Q43.44-2.32 45.22-3.34Q47-4.36 48-6.24Q49-8.12 49-10.52L49-10.52Q49-12.92 48-14.80Q47-16.68 45.22-17.70Q43.44-18.72 41.20-18.72L41.20-18.72Q38.96-18.72 37.18-17.70Q35.40-16.68 34.38-14.80Q33.36-12.92 33.36-10.52L33.36-10.52Q33.36-8.12 34.38-6.24Q35.40-4.36 37.18-3.34Q38.96-2.32 41.20-2.32L41.20-2.32Z M84.72-21.20Q88.68-21.20 90.94-18.92Q93.20-16.64 93.20-12.20L93.20-12.20L93.20 0L90.36 0L90.36-11.92Q90.36-15.20 88.78-16.92Q87.20-18.64 84.32-18.64L84.32-18.64Q81.04-18.64 79.16-16.62Q77.28-14.60 77.28-11.04L77.28-11.04L77.28 0L74.44 0L74.44-11.92Q74.44-15.20 72.86-16.92Q71.28-18.64 68.36-18.64L68.36-18.64Q65.12-18.64 63.22-16.62Q61.32-14.60 61.32-11.04L61.32-11.04L61.32 0L58.48 0L58.48-21.04L61.20-21.04L61.20-17.20Q62.32-19.12 64.32-20.16Q66.32-21.20 68.92-21.20L68.92-21.20Q71.56-21.20 73.50-20.08Q75.44-18.96 76.40-16.76L76.40-16.76Q77.56-18.84 79.74-20.02Q81.92-21.20 84.72-21.20L84.72-21.20Z M127.96-21.20Q131.92-21.20 134.18-18.92Q136.44-16.64 136.44-12.20L136.44-12.20L136.44 0L133.60 0L133.60-11.92Q133.60-15.20 132.02-16.92Q130.44-18.64 127.56-18.64L127.56-18.64Q124.28-18.64 122.40-16.62Q120.52-14.60 120.52-11.04L120.52-11.04L120.52 0L117.68 0L117.68-11.92Q117.68-15.20 116.10-16.92Q114.52-18.64 111.60-18.64L111.60-18.64Q108.36-18.64 106.46-16.62Q104.56-14.60 104.56-11.04L104.56-11.04L104.56 0L101.72 0L101.72-21.04L104.44-21.04L104.44-17.20Q105.56-19.12 107.56-20.16Q109.56-21.20 112.16-21.20L112.16-21.20Q114.80-21.20 116.74-20.08Q118.68-18.96 119.64-16.76L119.64-16.76Q120.80-18.84 122.98-20.02Q125.16-21.20 127.96-21.20L127.96-21.20Z M161.08-21.04L163.92-21.04L163.92 0L161.20 0L161.20-3.84Q160.08-1.92 158.12-0.86Q156.16 0.20 153.64 0.20L153.64 0.20Q149.52 0.20 147.14-2.10Q144.76-4.40 144.76-8.84L144.76-8.84L144.76-21.04L147.60-21.04L147.60-9.12Q147.60-5.80 149.24-4.08Q150.88-2.36 153.92-2.36L153.92-2.36Q157.24-2.36 159.16-4.38Q161.08-6.40 161.08-10L161.08-10L161.08-21.04Z M183.40-21.20Q187.36-21.20 189.70-18.90Q192.04-16.60 192.04-12.20L192.04-12.20L192.04 0L189.20 0L189.20-11.92Q189.20-15.20 187.56-16.92Q185.92-18.64 182.88-18.64L182.88-18.64Q179.48-18.64 177.50-16.62Q175.52-14.60 175.52-11.04L175.52-11.04L175.52 0L172.68 0L172.68-21.04L175.40-21.04L175.40-17.16Q176.56-19.08 178.62-20.14Q180.68-21.20 183.40-21.20L183.40-21.20Z M200.56 0L200.56-21.04L203.40-21.04L203.40 0L200.56 0ZM202.00-25.64Q201.12-25.64 200.52-26.24Q199.92-26.84 199.92-27.68L199.92-27.68Q199.92-28.48 200.52-29.08Q201.12-29.68 202.00-29.68L202.00-29.68Q202.88-29.68 203.48-29.10Q204.08-28.52 204.08-27.72L204.08-27.72Q204.08-26.84 203.48-26.24Q202.88-25.64 202.00-25.64L202.00-25.64Z M222.20-3.32L223.20-1.28Q222.40-0.56 221.22-0.18Q220.04 0.20 218.76 0.20L218.76 0.20Q215.80 0.20 214.20-1.40Q212.60-3 212.60-5.92L212.60-5.92L212.60-18.64L208.84-18.64L208.84-21.04L212.60-21.04L212.60-25.64L215.44-25.64L215.44-21.04L221.84-21.04L221.84-18.64L215.44-18.64L215.44-6.08Q215.44-4.20 216.38-3.22Q217.32-2.24 219.08-2.24L219.08-2.24Q219.96-2.24 220.78-2.52Q221.60-2.80 222.20-3.32L222.20-3.32Z M243.64-21.04L246.44-21.04L235.92 2.52Q234.64 5.48 232.96 6.72Q231.28 7.96 228.92 7.96L228.92 7.96Q227.40 7.96 226.08 7.48Q224.76 7 223.80 6.04L223.80 6.04L225.12 3.92Q226.72 5.52 228.96 5.52L228.96 5.52Q230.40 5.52 231.42 4.72Q232.44 3.92 233.32 2L233.32 2L234.24-0.04L224.84-21.04L227.80-21.04L235.72-3.16L243.64-21.04Z M263.12 7.76L263.12-29.68L265.76-29.68L265.76 7.76L263.12 7.76Z M295.44-4.56L295.44-14L298.28-14L298.28-3.32Q296.32-1.60 293.64-0.68Q290.96 0.24 288.00 0.24L288.00 0.24Q283.80 0.24 280.44-1.60Q277.08-3.44 275.16-6.70Q273.24-9.96 273.24-14L273.24-14Q273.24-18.04 275.16-21.30Q277.08-24.56 280.44-26.40Q283.80-28.24 288.04-28.24L288.04-28.24Q291.24-28.24 293.92-27.22Q296.60-26.20 298.44-24.20L298.44-24.20L296.60-22.32Q293.28-25.60 288.16-25.60L288.16-25.60Q284.76-25.60 282.02-24.10Q279.28-22.60 277.72-19.94Q276.16-17.28 276.16-14L276.16-14Q276.16-10.72 277.72-8.08Q279.28-5.44 282.00-3.92Q284.72-2.40 288.12-2.40L288.12-2.40Q292.44-2.40 295.44-4.56L295.44-4.56Z M314.20-21.20Q318.32-21.20 320.52-19.14Q322.72-17.08 322.72-13.04L322.72-13.04L322.72 0L320.00 0L320.00-3.28Q319.04-1.64 317.18-0.72Q315.32 0.20 312.76 0.20L312.76 0.20Q309.24 0.20 307.16-1.48Q305.08-3.16 305.08-5.92L305.08-5.92Q305.08-8.60 307.02-10.24Q308.96-11.88 313.20-11.88L313.20-11.88L319.88-11.88L319.88-13.16Q319.88-15.88 318.36-17.30Q316.84-18.72 313.92-18.72L313.92-18.72Q311.92-18.72 310.08-18.06Q308.24-17.40 306.92-16.24L306.92-16.24L305.64-18.36Q307.24-19.72 309.48-20.46Q311.72-21.20 314.20-21.20L314.20-21.20ZM313.20-2.04Q315.60-2.04 317.32-3.14Q319.04-4.24 319.88-6.32L319.88-6.32L319.88-9.76L313.28-9.76Q307.88-9.76 307.88-6L307.88-6Q307.88-4.16 309.28-3.10Q310.68-2.04 313.20-2.04L313.20-2.04Z M357.48-21.20Q361.44-21.20 363.70-18.92Q365.96-16.64 365.96-12.20L365.96-12.20L365.96 0L363.12 0L363.12-11.92Q363.12-15.20 361.54-16.92Q359.96-18.64 357.08-18.64L357.08-18.64Q353.80-18.64 351.92-16.62Q350.04-14.60 350.04-11.04L350.04-11.04L350.04 0L347.20 0L347.20-11.92Q347.20-15.20 345.62-16.92Q344.04-18.64 341.12-18.64L341.12-18.64Q337.88-18.64 335.98-16.62Q334.08-14.60 334.08-11.04L334.08-11.04L334.08 0L331.24 0L331.24-21.04L333.96-21.04L333.96-17.20Q335.08-19.12 337.08-20.16Q339.08-21.20 341.68-21.20L341.68-21.20Q344.32-21.20 346.26-20.08Q348.20-18.96 349.16-16.76L349.16-16.76Q350.32-18.84 352.50-20.02Q354.68-21.20 357.48-21.20L357.48-21.20Z M374.48 0L374.48-21.04L377.32-21.04L377.32 0L374.48 0ZM375.92-25.64Q375.04-25.64 374.44-26.24Q373.84-26.84 373.84-27.68L373.84-27.68Q373.84-28.48 374.44-29.08Q375.04-29.68 375.92-29.68L375.92-29.68Q376.80-29.68 377.40-29.10Q378.00-28.52 378.00-27.72L378.00-27.72Q378.00-26.84 377.40-26.24Q376.80-25.64 375.92-25.64L375.92-25.64Z M396.76-21.20Q400.72-21.20 403.06-18.90Q405.40-16.60 405.40-12.20L405.40-12.20L405.40 0L402.56 0L402.56-11.92Q402.56-15.20 400.92-16.92Q399.28-18.64 396.24-18.64L396.24-18.64Q392.84-18.64 390.86-16.62Q388.88-14.60 388.88-11.04L388.88-11.04L388.88 0L386.04 0L386.04-21.04L388.76-21.04L388.76-17.16Q389.92-19.08 391.98-20.14Q394.04-21.20 396.76-21.20L396.76-21.20Z M430.76-21.04L433.48-21.04L433.48-2.56Q433.48 2.80 430.86 5.38Q428.24 7.96 422.96 7.96L422.96 7.96Q420.04 7.96 417.42 7.10Q414.80 6.24 413.16 4.72L413.16 4.72L414.60 2.56Q416.12 3.92 418.30 4.68Q420.48 5.44 422.88 5.44L422.88 5.44Q426.88 5.44 428.76 3.58Q430.64 1.72 430.64-2.20L430.64-2.20L430.64-4.88Q429.32-2.88 427.18-1.84Q425.04-0.80 422.44-0.80L422.44-0.80Q419.48-0.80 417.06-2.10Q414.64-3.40 413.26-5.74Q411.88-8.08 411.88-11.04L411.88-11.04Q411.88-14 413.26-16.32Q414.64-18.64 417.04-19.92Q419.44-21.20 422.44-21.20L422.44-21.20Q425.12-21.20 427.28-20.12Q429.44-19.04 430.76-17L430.76-17L430.76-21.04ZM422.72-3.32Q425.00-3.32 426.84-4.30Q428.68-5.28 429.70-7.04Q430.72-8.80 430.72-11.04L430.72-11.04Q430.72-13.28 429.70-15.02Q428.68-16.76 426.86-17.74Q425.04-18.72 422.72-18.72L422.72-18.72Q420.44-18.72 418.62-17.76Q416.80-16.80 415.78-15.04Q414.76-13.28 414.76-11.04L414.76-11.04Q414.76-8.80 415.78-7.04Q416.80-5.28 418.62-4.30Q420.44-3.32 422.72-3.32L422.72-3.32Z M460.88-21.20Q465.00-21.20 467.20-19.14Q469.40-17.08 469.40-13.04L469.40-13.04L469.40 0L466.68 0L466.68-3.28Q465.72-1.64 463.86-0.72Q462.00 0.20 459.44 0.20L459.44 0.20Q455.92 0.20 453.84-1.48Q451.76-3.16 451.76-5.92L451.76-5.92Q451.76-8.60 453.70-10.24Q455.64-11.88 459.88-11.88L459.88-11.88L466.56-11.88L466.56-13.16Q466.56-15.88 465.04-17.30Q463.52-18.72 460.60-18.72L460.60-18.72Q458.60-18.72 456.76-18.06Q454.92-17.40 453.60-16.24L453.60-16.24L452.32-18.36Q453.92-19.72 456.16-20.46Q458.40-21.20 460.88-21.20L460.88-21.20ZM459.88-2.04Q462.28-2.04 464.00-3.14Q465.72-4.24 466.56-6.32L466.56-6.32L466.56-9.76L459.96-9.76Q454.56-9.76 454.56-6L454.56-6Q454.56-4.16 455.96-3.10Q457.36-2.04 459.88-2.04L459.88-2.04Z M488.64-21.20Q492.60-21.20 494.94-18.90Q497.28-16.60 497.28-12.20L497.28-12.20L497.28 0L494.44 0L494.44-11.92Q494.44-15.20 492.80-16.92Q491.16-18.64 488.12-18.64L488.12-18.64Q484.72-18.64 482.74-16.62Q480.76-14.60 480.76-11.04L480.76-11.04L480.76 0L477.92 0L477.92-21.04L480.64-21.04L480.64-17.16Q481.80-19.08 483.86-20.14Q485.92-21.20 488.64-21.20L488.64-21.20Z M522.24-29.68L525.08-29.68L525.08 0L522.36 0L522.36-4.16Q521.08-2.04 518.98-0.92Q516.88 0.20 514.24 0.20L514.24 0.20Q511.28 0.20 508.88-1.16Q506.48-2.52 505.12-4.96Q503.76-7.40 503.76-10.52L503.76-10.52Q503.76-13.64 505.12-16.08Q506.48-18.52 508.88-19.86Q511.28-21.20 514.24-21.20L514.24-21.20Q516.80-21.20 518.86-20.14Q520.92-19.08 522.24-17.04L522.24-17.04L522.24-29.68ZM514.48-2.32Q516.68-2.32 518.46-3.34Q520.24-4.36 521.26-6.24Q522.28-8.12 522.28-10.52L522.28-10.52Q522.28-12.92 521.26-14.80Q520.24-16.68 518.46-17.70Q516.68-18.72 514.48-18.72L514.48-18.72Q512.24-18.72 510.46-17.70Q508.68-16.68 507.66-14.80Q506.64-12.92 506.64-10.52L506.64-10.52Q506.64-8.12 507.66-6.24Q508.68-4.36 510.46-3.34Q512.24-2.32 514.48-2.32L514.48-2.32Z M553.80 0.20Q550.68 0.20 548.22-1.16Q545.76-2.52 544.36-4.98Q542.96-7.44 542.96-10.52L542.96-10.52Q542.96-13.60 544.36-16.04Q545.76-18.48 548.22-19.84Q550.68-21.20 553.80-21.20L553.80-21.20Q556.52-21.20 558.66-20.14Q560.80-19.08 562.04-17.04L562.04-17.04L559.92-15.60Q558.88-17.16 557.28-17.94Q555.68-18.72 553.80-18.72L553.80-18.72Q551.52-18.72 549.70-17.70Q547.88-16.68 546.86-14.80Q545.84-12.92 545.84-10.52L545.84-10.52Q545.84-8.08 546.86-6.22Q547.88-4.36 549.70-3.34Q551.52-2.32 553.80-2.32L553.80-2.32Q555.68-2.32 557.28-3.08Q558.88-3.84 559.92-5.40L559.92-5.40L562.04-3.96Q560.80-1.92 558.64-0.86Q556.48 0.20 553.80 0.20L553.80 0.20Z M576.64 0.20Q573.60 0.20 571.16-1.18Q568.72-2.56 567.32-5Q565.92-7.44 565.92-10.52L565.92-10.52Q565.92-13.60 567.32-16.04Q568.72-18.48 571.16-19.84Q573.60-21.20 576.64-21.20L576.64-21.20Q579.68-21.20 582.12-19.84Q584.56-18.48 585.94-16.04Q587.32-13.60 587.32-10.52L587.32-10.52Q587.32-7.44 585.94-5Q584.56-2.56 582.12-1.18Q579.68 0.20 576.64 0.20L576.64 0.20ZM576.64-2.32Q578.88-2.32 580.66-3.34Q582.44-4.36 583.44-6.24Q584.44-8.12 584.44-10.52L584.44-10.52Q584.44-12.92 583.44-14.80Q582.44-16.68 580.66-17.70Q578.88-18.72 576.64-18.72L576.64-18.72Q574.40-18.72 572.62-17.70Q570.84-16.68 569.82-14.80Q568.80-12.92 568.80-10.52L568.80-10.52Q568.80-8.12 569.82-6.24Q570.84-4.36 572.62-3.34Q574.40-2.32 576.64-2.32L576.64-2.32Z M610.28-29.68L613.12-29.68L613.12 0L610.40 0L610.40-4.16Q609.12-2.04 607.02-0.92Q604.92 0.20 602.28 0.20L602.28 0.20Q599.32 0.20 596.92-1.16Q594.52-2.52 593.16-4.96Q591.80-7.40 591.80-10.52L591.80-10.52Q591.80-13.64 593.16-16.08Q594.52-18.52 596.92-19.86Q599.32-21.20 602.28-21.20L602.28-21.20Q604.84-21.20 606.90-20.14Q608.96-19.08 610.28-17.04L610.28-17.04L610.28-29.68ZM602.52-2.32Q604.72-2.32 606.50-3.34Q608.28-4.36 609.30-6.24Q610.32-8.12 610.32-10.52L610.32-10.52Q610.32-12.92 609.30-14.80Q608.28-16.68 606.50-17.70Q604.72-18.72 602.52-18.72L602.52-18.72Q600.28-18.72 598.50-17.70Q596.72-16.68 595.70-14.80Q594.68-12.92 594.68-10.52L594.68-10.52Q594.68-8.12 595.70-6.24Q596.72-4.36 598.50-3.34Q600.28-2.32 602.52-2.32L602.52-2.32Z M640.20-10.52L640.16-9.64L622.56-9.64Q622.80-6.36 625.08-4.34Q627.36-2.32 630.84-2.32L630.84-2.32Q632.80-2.32 634.44-3.02Q636.08-3.72 637.28-5.08L637.28-5.08L638.88-3.24Q637.48-1.56 635.38-0.68Q633.28 0.20 630.76 0.20L630.76 0.20Q627.52 0.20 625.02-1.18Q622.52-2.56 621.12-5Q619.72-7.44 619.72-10.52L619.72-10.52Q619.72-13.60 621.06-16.04Q622.40-18.48 624.74-19.84Q627.08-21.20 630-21.20L630-21.20Q632.92-21.20 635.24-19.84Q637.56-18.48 638.88-16.06Q640.20-13.64 640.20-10.52L640.20-10.52ZM630-18.76Q626.96-18.76 624.90-16.82Q622.84-14.88 622.56-11.76L622.56-11.76L637.48-11.76Q637.20-14.88 635.14-16.82Q633.08-18.76 630-18.76L630-18.76Z M647.40 7.76L647.40-29.68L650.04-29.68L650.04 7.76L647.40 7.76Z M690.48-25.44L674.24-25.44L674.24-14.44L688.72-14.44L688.72-11.88L674.24-11.88L674.24 0L671.28 0L671.28-28L690.48-28L690.48-25.44Z M719.76 0L716.52 0L710.12-9Q709.04-8.88 707.88-8.88L707.88-8.88L700.36-8.88L700.36 0L697.40 0L697.40-28L707.88-28Q713.24-28 716.28-25.44Q719.32-22.88 719.32-18.40L719.32-18.40Q719.32-15.12 717.66-12.86Q716.00-10.60 712.92-9.60L712.92-9.60L719.76 0ZM707.80-11.40Q711.96-11.40 714.16-13.24Q716.36-15.08 716.36-18.40L716.36-18.40Q716.36-21.80 714.16-23.62Q711.96-25.44 707.80-25.44L707.80-25.44L700.36-25.44L700.36-11.40L707.80-11.40Z"/></g>
</svg>
</g><g opacity="1" transform="rotate(0 252.8909 374.8292)">
<svg width="393.0892" height="90" x="252.8909" y="374.8292" version="1.1" preserveAspectRatio="none" viewBox="1.36 -31.32 139.23999999999998 31.880000000000003">
  <g transform="matrix(1 0 0 1 0 0)" class="companyName"><path id="id-D6z1nYkh7" d="M12.84-11.44L10.72-11.44L10.72-4.48Q10.72-2.88 11.06-2.14Q11.40-1.40 12.26-1.16Q13.12-0.92 15-0.88L15-0.88L15 0Q10.08-0.12 7.68-0.12L7.68-0.12Q5.68-0.12 2.64-0.04L2.64-0.04L1.36 0L1.36-0.80Q2.68-0.88 3.30-1.12Q3.92-1.36 4.14-2.04Q4.36-2.72 4.36-4.24L4.36-4.24L4.36-24.08Q4.36-25.60 4.14-26.28Q3.92-26.96 3.30-27.20Q2.68-27.44 1.36-27.52L1.36-27.52L1.36-28.32Q3.40-28.20 7.44-28.20L7.44-28.20L11.88-28.24Q12.68-28.28 13.72-28.28L13.72-28.28Q19.12-28.28 21.96-26.14Q24.80-24 24.80-20.40L24.80-20.40Q24.80-18.20 23.68-16.18Q22.56-14.16 19.90-12.80Q17.24-11.44 12.84-11.44L12.84-11.44ZM13.20-27.52Q12.12-27.52 11.62-27.24Q11.12-26.96 10.92-26.24Q10.72-25.52 10.72-24.08L10.72-24.08L10.72-12.24L12.44-12.24Q15.68-12.24 16.92-14.32Q18.16-16.40 18.16-19.96L18.16-19.96Q18.16-23.84 17.02-25.68Q15.88-27.52 13.20-27.52L13.20-27.52Z M31.80-31Q33.48-31 34.46-30.18Q35.44-29.36 35.44-27.92L35.44-27.92Q35.44-26.48 34.46-25.66Q33.48-24.84 31.80-24.84L31.80-24.84Q30.12-24.84 29.14-25.66Q28.16-26.48 28.16-27.92L28.16-27.92Q28.16-29.36 29.14-30.18Q30.12-31 31.80-31L31.80-31ZM34.92-21.12L34.92-3.72Q34.92-2.08 35.50-1.46Q36.08-0.84 37.48-0.84L37.48-0.84L37.48 0Q33.48-0.16 32.16-0.16L32.16-0.16Q30.92-0.16 26.60 0L26.60 0L26.60-0.84Q28.04-0.84 28.60-1.46Q29.16-2.08 29.16-3.72L29.16-3.72L29.16-16.32Q29.16-18.16 28.60-19Q28.04-19.84 26.60-19.84L26.60-19.84L26.60-20.68Q27.88-20.56 29.08-20.56L29.08-20.56Q32.64-20.56 34.92-21.12L34.92-21.12Z M59.52-2.92Q60.16-1.96 60.56-1.50Q60.96-1.04 61.60-0.84L61.60-0.84L61.60 0Q58.40-0.16 57.40-0.16L57.40-0.16Q56.08-0.16 52.24 0L52.24 0L52.24-0.84Q52.80-0.84 53.12-1.04Q53.44-1.24 53.44-1.60L53.44-1.60Q53.44-1.80 53.24-2.20L53.24-2.20L49.28-9.36Q48.88-10.04 48.44-10.28Q48-10.52 47.32-10.60L47.32-10.60L47.32-3.72Q47.32-2.08 47.84-1.46Q48.36-0.84 49.72-0.84L49.72-0.84L49.72 0Q45.72-0.16 44.52-0.16L44.52-0.16Q43.16-0.16 39 0L39 0L39-0.84Q40.40-0.84 40.98-1.46Q41.56-2.08 41.56-3.72L41.56-3.72L41.56-26.52Q41.56-28.36 40.98-29.20Q40.40-30.04 39-30.04L39-30.04L39-30.88Q40.28-30.76 41.48-30.76L41.48-30.76Q44.96-30.76 47.32-31.32L47.32-31.32L47.32-11.36Q48.12-11.44 48.70-11.68Q49.28-11.92 49.72-12.40L49.72-12.40L52.76-15.36Q54.08-16.68 54.08-17.80L54.08-17.80Q54.08-18.72 53.24-19.26Q52.40-19.80 51-19.88L51-19.88L51-20.68Q53.20-20.56 55.68-20.56L55.68-20.56Q59-20.56 60.36-20.68L60.36-20.68L60.36-19.88Q58-19.36 55.36-16.80L55.36-16.80L52.80-14.16L59.52-2.92Z M67.72 0.28Q65.16 0.28 63.90-1.04Q62.64-2.36 62.64-4.52L62.64-4.52Q62.64-6.32 63.58-7.50Q64.52-8.68 65.86-9.32Q67.20-9.96 69.28-10.68L69.28-10.68Q71.48-11.44 72.50-12.06Q73.52-12.68 73.52-13.76L73.52-13.76L73.52-16.88Q73.52-18.56 72.74-19.50Q71.96-20.44 70.32-20.44L70.32-20.44Q68.40-20.44 67.40-19.48L67.40-19.48Q68.52-19.08 69.14-18.28Q69.76-17.48 69.76-16.40L69.76-16.40Q69.76-15.04 68.84-14.24Q67.92-13.44 66.60-13.44L66.60-13.44Q65.20-13.44 64.44-14.32Q63.68-15.20 63.68-16.52L63.68-16.52Q63.68-17.64 64.22-18.42Q64.76-19.20 65.88-19.88L65.88-19.88Q66.96-20.52 68.54-20.88Q70.12-21.24 72-21.24L72-21.24Q73.96-21.24 75.40-20.84Q76.84-20.44 77.80-19.48L77.80-19.48Q78.68-18.60 78.98-17.32Q79.28-16.04 79.28-13.84L79.28-13.84L79.28-2.96Q79.28-2 79.46-1.60Q79.64-1.20 80.16-1.20L80.16-1.20Q80.76-1.20 81.60-1.88L81.60-1.88L82-1.20Q80.20 0.28 77.60 0.28L77.60 0.28Q75.40 0.28 74.52-0.60Q73.64-1.48 73.60-2.96L73.60-2.96Q71.60 0.28 67.72 0.28L67.72 0.28ZM70.80-2.28Q72.36-2.28 73.52-3.92L73.52-3.92L73.52-12.12Q73.04-11.32 71.48-10.36L71.48-10.36Q69.92-9.36 69.12-8.36Q68.32-7.36 68.32-5.48L68.32-5.48Q68.32-3.84 69-3.06Q69.68-2.28 70.80-2.28L70.80-2.28Z M101.40-28.24Q103.24-28.24 104.44-28.36L104.44-28.36L104.44-27.56Q102.60-26.80 100.60-22.92L100.60-22.92L95.88-13.56L95.88-4.24Q95.88-2.72 96.10-2.04Q96.32-1.36 96.92-1.12Q97.52-0.88 98.88-0.80L98.88-0.80L98.88 0Q96.72-0.12 92.72-0.12L92.72-0.12Q88.44-0.12 86.52 0L86.52 0L86.52-0.80Q87.84-0.88 88.46-1.12Q89.08-1.36 89.30-2.04Q89.52-2.72 89.52-4.24L89.52-4.24L89.52-11L81.80-25.28Q80.56-27.52 79.48-27.52L79.48-27.52L79.48-28.36Q81.24-28.16 84.20-28.16L84.20-28.16Q87.92-28.16 91.72-28.36L91.72-28.36L91.72-27.52Q90.32-27.52 89.50-27.26Q88.68-27 88.68-26.32L88.68-26.32Q88.68-25.96 88.96-25.44L88.96-25.44L95.04-13.72L98.16-19.96Q99.72-23.12 99.72-24.92L99.72-24.92Q99.72-26.28 98.86-26.88Q98-27.48 96.40-27.56L96.40-27.56L96.40-28.36Q99.12-28.24 101.40-28.24L101.40-28.24Z M123-21.12L123-4.36Q123-2.52 123.58-1.68Q124.16-0.84 125.56-0.84L125.56-0.84L125.56 0Q124.32-0.12 123.08-0.12L123.08-0.12Q119.60-0.12 117.24 0.44L117.24 0.44L117.24-3.16Q115.40 0.56 110.80 0.56L110.80 0.56Q107.80 0.56 106.44-1L106.44-1Q105.80-1.76 105.50-2.98Q105.20-4.20 105.20-6.20L105.20-6.20L105.20-16.32Q105.20-18.16 104.62-19Q104.04-19.84 102.64-19.84L102.64-19.84L102.64-20.68Q103.88-20.56 105.12-20.56L105.12-20.56Q108.60-20.56 110.96-21.12L110.96-21.12L110.96-4.56Q110.96-2.88 111.46-2.04Q111.96-1.20 113.36-1.20L113.36-1.20Q114.96-1.20 116.10-2.54Q117.24-3.88 117.24-5.84L117.24-5.84L117.24-16.32Q117.24-18.16 116.66-19Q116.08-19.84 114.68-19.84L114.68-19.84L114.68-20.68Q115.96-20.56 117.16-20.56L117.16-20.56Q120.64-20.56 123-21.12L123-21.12Z M135.44-27.24L135.44-20.68L140.16-20.68L140.16-19.88L135.44-19.88L135.44-3.72Q135.44-2.52 135.86-2.02Q136.28-1.52 137.20-1.52L137.20-1.52Q138.92-1.52 139.92-3.92L139.92-3.92L140.60-3.56Q139.08 0.56 135.12 0.56L135.12 0.56Q132.48 0.56 131.12-0.80L131.12-0.80Q130.28-1.64 129.98-2.90Q129.68-4.16 129.68-6.36L129.68-6.36L129.68-19.88L126.32-19.88L126.32-20.68L129.68-20.68L129.68-25.96Q133-25.96 135.44-27.24L135.44-27.24Z"/></g>
</svg>
</g></svg></svg>