<svg version="1.1" preserveAspectRatio="none" xmlns="http://www.w3.org/2000/svg" width="500" height="500" viewBox="0 0 500 500"><rect width="100%" height="100%" fill="#2254D3" fill-opacity="1"/><svg viewBox="482.847 319.7383 474.0714 148" width="333" height="103.95902389386916" x="83.5px" y="198.0205px" xmlns="http://www.w3.org/2000/svg" xmlns:xlink="http://www.w3.org/1999/xlink" preserveAspectRatio="none"><defs></defs><style>.companyName {fill:#E9E9E9;fill-opacity:1;}.icon3-str {stroke:#7B7B7B;stroke-opacity:1;}.shape {fill:#FF6A22;fill-opacity:1;}.shapeStroke-str {stroke:#E9E9E9;stroke-opacity:1;}.text {fill:#E9E9E9;fill-opacity:1;}</style><g opacity="1" transform="rotate(0 503.847 439.7383)">
<svg width="453.0714" height="28" x="503.847" y="439.7383" version="1.1" preserveAspectRatio="none" viewBox="2.36 -31 653.72 40.4">
  <g transform="matrix(1 0 0 1 0 0)" class="text"><path id="id-6izo4zJp30" d="M25.40-2.16Q24-1.24 21.86-0.46Q19.72 0.32 17.20 0.32L17.20 0.32Q12.76 0.32 9.38-1.64Q6-3.60 4.18-6.92Q2.36-10.24 2.36-14.24L2.36-14.24Q2.36-18.52 4.20-21.94Q6.04-25.36 9.30-27.30Q12.56-29.24 16.68-29.24L16.68-29.24Q19.12-29.24 21.24-28.60Q23.36-27.96 25.04-26.92L25.04-26.92L23.48-23.28Q20.16-25.52 16.80-25.52L16.80-25.52Q14-25.52 11.62-24.04Q9.24-22.56 7.82-20.02Q6.40-17.48 6.40-14.44L6.40-14.44Q6.40-11.32 7.70-8.80Q9-6.28 11.42-4.86Q13.84-3.44 17-3.44L17-3.44Q20.88-3.44 23.76-5.64L23.76-5.64L25.40-2.16Z M30.76-8.44Q30.76-10.88 31.94-12.90Q33.12-14.92 35.22-16.08Q37.32-17.24 39.96-17.24L39.96-17.24Q42.60-17.24 44.66-16.08Q46.72-14.92 47.86-12.92Q49-10.92 49-8.44L49-8.44Q49-5.96 47.86-3.94Q46.72-1.92 44.64-0.76Q42.56 0.40 39.88 0.40L39.88 0.40Q37.28 0.40 35.20-0.70Q33.12-1.80 31.94-3.80Q30.76-5.80 30.76-8.44L30.76-8.44ZM34.52-8.40Q34.52-6.84 35.22-5.52Q35.92-4.20 37.14-3.44Q38.36-2.68 39.84-2.68L39.84-2.68Q42.16-2.68 43.68-4.32Q45.20-5.96 45.20-8.40L45.20-8.40Q45.20-10.84 43.68-12.50Q42.16-14.16 39.84-14.16L39.84-14.16Q38.32-14.16 37.12-13.38Q35.92-12.60 35.22-11.28Q34.52-9.96 34.52-8.40L34.52-8.40Z M76.44-17.24Q78.84-17.24 80.26-15.88Q81.68-14.52 81.76-12.28L81.76-12.28L81.76 0L78.04 0L78.04-10.92Q77.92-13.84 75.40-14L75.40-14Q73.96-14 72.82-13.14Q71.68-12.28 71.04-10.88Q70.40-9.48 70.36-7.88L70.36-7.88L70.36 0L66.60 0L66.60-10.92Q66.48-13.84 63.88-14L63.88-14Q62.48-14 61.34-13.14Q60.20-12.28 59.56-10.86Q58.92-9.44 58.92-7.84L58.92-7.84L58.92 0L55.20 0L55.20-16.56L58.56-16.56L58.84-13.44Q59.80-15.24 61.46-16.24Q63.12-17.24 65.24-17.24L65.24-17.24Q67.24-17.24 68.60-16.30Q69.96-15.36 70.36-13.72L70.36-13.72Q71.40-15.36 73-16.30Q74.60-17.24 76.44-17.24L76.44-17.24Z M110.64-17.24Q113.04-17.24 114.46-15.88Q115.88-14.52 115.96-12.28L115.96-12.28L115.96 0L112.24 0L112.24-10.92Q112.12-13.84 109.60-14L109.60-14Q108.16-14 107.02-13.14Q105.88-12.28 105.24-10.88Q104.60-9.48 104.56-7.88L104.56-7.88L104.56 0L100.80 0L100.80-10.92Q100.68-13.84 98.08-14L98.08-14Q96.68-14 95.54-13.14Q94.40-12.28 93.76-10.86Q93.12-9.44 93.12-7.84L93.12-7.84L93.12 0L89.40 0L89.40-16.56L92.76-16.56L93.04-13.44Q94.00-15.24 95.66-16.24Q97.32-17.24 99.44-17.24L99.44-17.24Q101.44-17.24 102.80-16.30Q104.16-15.36 104.56-13.72L104.56-13.72Q105.60-15.36 107.20-16.30Q108.80-17.24 110.64-17.24L110.64-17.24Z M135.28-16.56L139-16.56L139 0L135.64 0L135.40-3.16Q134.56-1.48 132.80-0.42Q131.04 0.64 128.88 0.64L128.88 0.64Q126.60 0.64 125.14-0.74Q123.68-2.12 123.60-4.32L123.60-4.32L123.60-16.56L127.32-16.56L127.32-5.64Q127.40-4.24 128.14-3.42Q128.88-2.60 130.36-2.56L130.36-2.56Q131.72-2.56 132.84-3.38Q133.96-4.20 134.62-5.64Q135.28-7.08 135.28-8.84L135.28-8.84L135.28-16.56Z M156.96-17.20Q159.28-17.20 160.80-15.82Q162.32-14.44 162.36-12.24L162.36-12.24L162.36 0L158.60 0L158.60-10.96Q158.52-12.36 157.76-13.16Q157-13.96 155.48-14L155.48-14Q153.28-14 151.84-12.24Q150.40-10.48 150.40-7.76L150.40-7.76L150.40 0L146.68 0L146.68-16.56L150.04-16.56L150.28-13.36Q151.16-15.16 152.92-16.18Q154.68-17.20 156.96-17.20L156.96-17.20Z M170-16.56L173.72-16.56L173.72 0L170 0L170-16.56ZM169.72-22.52Q169.72-23.40 170.40-24Q171.08-24.60 171.96-24.60L171.96-24.60Q172.84-24.60 173.50-24Q174.16-23.40 174.16-22.52L174.16-22.52Q174.16-21.64 173.50-21.04Q172.84-20.44 171.96-20.44L171.96-20.44Q171.08-20.44 170.40-21.04Q169.72-21.64 169.72-22.52L169.72-22.52Z M183.00-23.84L186.76-23.84L186.76-16.52L191.28-16.52L191.28-13.56L186.76-13.56L186.76 0L183.00 0L183.00-13.56L179.96-13.56L179.96-16.52L183.00-16.52L183.00-23.84Z M209.32-16.56L212.76-16.56L202.08 7.96L198.40 7.96L202.20-0.56L194.52-16.56L198.72-16.56L204.08-4.76L209.32-16.56Z M232.24-28.36L235.64-28.36L235.64 9.40L232.24 9.40L232.24-28.36Z M267.56-2.48Q266.24-1.44 263.42-0.56Q260.60 0.32 258.20 0.32L258.20 0.32Q253.68 0.32 250.24-1.54Q246.80-3.40 244.94-6.64Q243.08-9.88 243.08-13.92L243.08-13.92Q243.08-18.64 245.08-22.10Q247.08-25.56 250.48-27.40Q253.88-29.24 257.92-29.24L257.92-29.24Q260.36-29.24 262.52-28.66Q264.68-28.08 266.40-27.12L266.40-27.12L265.12-23.56Q263.84-24.28 261.90-24.82Q259.96-25.36 258.40-25.36L258.40-25.36Q255.04-25.36 252.46-24Q249.88-22.64 248.48-20.12Q247.08-17.60 247.08-14.24L247.08-14.24Q247.08-11.12 248.48-8.68Q249.88-6.24 252.44-4.90Q255.00-3.56 258.28-3.56L258.28-3.56Q259.80-3.56 261.24-3.86Q262.68-4.16 263.64-4.72L263.64-4.72L263.64-10.44L257.88-10.44L257.88-14.16L267.56-14.16L267.56-2.48Z M288.80-16.56L292.24-16.56L292.24 0L288.52 0L288.52-2.72Q287.64-1.56 285.96-0.58Q284.28 0.40 282.16 0.40L282.16 0.40Q279.80 0.40 277.90-0.62Q276.00-1.64 274.90-3.60Q273.80-5.56 273.80-8.28L273.80-8.28Q273.80-11 274.94-13.02Q276.08-15.04 278.02-16.14Q279.96-17.24 282.32-17.24L282.32-17.24Q284.44-17.24 286.00-16.32Q287.56-15.40 288.52-13.92L288.52-13.92L288.80-16.56ZM283.16-2.68Q285.20-2.68 286.66-3.82Q288.12-4.96 288.52-6.92L288.52-6.92L288.52-10.20Q288.04-11.96 286.52-13.06Q285.00-14.16 283.04-14.16L283.04-14.16Q281.56-14.16 280.30-13.44Q279.04-12.72 278.30-11.42Q277.56-10.12 277.56-8.48L277.56-8.48Q277.56-6.88 278.32-5.56Q279.08-4.24 280.36-3.46Q281.64-2.68 283.16-2.68L283.16-2.68Z M321.16-17.24Q323.56-17.24 324.98-15.88Q326.40-14.52 326.48-12.28L326.48-12.28L326.48 0L322.76 0L322.76-10.92Q322.64-13.84 320.12-14L320.12-14Q318.68-14 317.54-13.14Q316.40-12.28 315.76-10.88Q315.12-9.48 315.08-7.88L315.08-7.88L315.08 0L311.32 0L311.32-10.92Q311.20-13.84 308.60-14L308.60-14Q307.20-14 306.06-13.14Q304.92-12.28 304.28-10.86Q303.64-9.44 303.64-7.84L303.64-7.84L303.64 0L299.92 0L299.92-16.56L303.28-16.56L303.56-13.44Q304.52-15.24 306.18-16.24Q307.84-17.24 309.96-17.24L309.96-17.24Q311.96-17.24 313.32-16.30Q314.68-15.36 315.08-13.72L315.08-13.72Q316.12-15.36 317.72-16.30Q319.32-17.24 321.16-17.24L321.16-17.24Z M334.12-16.56L337.84-16.56L337.84 0L334.12 0L334.12-16.56ZM333.84-22.52Q333.84-23.40 334.52-24Q335.20-24.60 336.08-24.60L336.08-24.60Q336.96-24.60 337.62-24Q338.28-23.40 338.28-22.52L338.28-22.52Q338.28-21.64 337.62-21.04Q336.96-20.44 336.08-20.44L336.08-20.44Q335.20-20.44 334.52-21.04Q333.84-21.64 333.84-22.52L333.84-22.52Z M355.80-17.20Q358.12-17.20 359.64-15.82Q361.16-14.44 361.20-12.24L361.20-12.24L361.20 0L357.44 0L357.44-10.96Q357.36-12.36 356.60-13.16Q355.84-13.96 354.32-14L354.32-14Q352.12-14 350.68-12.24Q349.24-10.48 349.24-7.76L349.24-7.76L349.24 0L345.52 0L345.52-16.56L348.88-16.56L349.12-13.36Q350.00-15.16 351.76-16.18Q353.52-17.20 355.80-17.20L355.80-17.20Z M382.92-16.56L386.32-16.56L386.32 0.12Q386.32 2.40 385.16 4.24Q384.00 6.08 381.86 7.16Q379.72 8.24 376.84 8.24L376.84 8.24Q374.32 8.24 372.50 7.40Q370.68 6.56 368.84 4.92L368.84 4.92L371.04 2.36Q372.40 3.64 373.76 4.30Q375.12 4.96 376.76 4.96L376.76 4.96Q379.52 4.96 381.02 3.64Q382.52 2.32 382.56 0.08L382.56 0.08L382.60-3.04Q381.68-1.48 379.90-0.54Q378.12 0.40 375.80 0.40L375.80 0.40Q373.52 0.40 371.60-0.76Q369.68-1.92 368.54-3.92Q367.40-5.92 367.40-8.36L367.40-8.36Q367.40-10.88 368.58-12.90Q369.76-14.92 371.76-16.08Q373.76-17.24 376.04-17.24L376.04-17.24Q378.16-17.24 379.96-16.40Q381.76-15.56 382.64-14.24L382.64-14.24L382.92-16.56ZM376.88-2.68Q379.00-2.68 380.56-3.84Q382.12-5 382.60-6.88L382.60-6.88L382.60-10.16Q382.04-11.96 380.48-13.06Q378.92-14.16 376.88-14.16L376.88-14.16Q374.44-14.16 372.80-12.56Q371.16-10.96 371.16-8.48L371.16-8.48Q371.16-6.88 371.92-5.56Q372.68-4.24 374.00-3.46Q375.32-2.68 376.88-2.68L376.88-2.68Z M421.40-16.56L424.84-16.56L424.84 0L421.12 0L421.12-2.72Q420.24-1.56 418.56-0.58Q416.88 0.40 414.76 0.40L414.76 0.40Q412.40 0.40 410.50-0.62Q408.60-1.64 407.50-3.60Q406.40-5.56 406.40-8.28L406.40-8.28Q406.40-11 407.54-13.02Q408.68-15.04 410.62-16.14Q412.56-17.24 414.92-17.24L414.92-17.24Q417.04-17.24 418.60-16.32Q420.16-15.40 421.12-13.92L421.12-13.92L421.40-16.56ZM415.76-2.68Q417.80-2.68 419.26-3.82Q420.72-4.96 421.12-6.92L421.12-6.92L421.12-10.20Q420.64-11.96 419.12-13.06Q417.60-14.16 415.64-14.16L415.64-14.16Q414.16-14.16 412.90-13.44Q411.64-12.72 410.90-11.42Q410.16-10.12 410.16-8.48L410.16-8.48Q410.16-6.88 410.92-5.56Q411.68-4.24 412.96-3.46Q414.24-2.68 415.76-2.68L415.76-2.68Z M442.80-17.20Q445.12-17.20 446.64-15.82Q448.16-14.44 448.20-12.24L448.20-12.24L448.20 0L444.44 0L444.44-10.96Q444.36-12.36 443.60-13.16Q442.84-13.96 441.32-14L441.32-14Q439.12-14 437.68-12.24Q436.24-10.48 436.24-7.76L436.24-7.76L436.24 0L432.52 0L432.52-16.56L435.88-16.56L436.12-13.36Q437.00-15.16 438.76-16.18Q440.52-17.20 442.80-17.20L442.80-17.20Z M469.40-31L473.12-31L473.12 0L469.36 0L469.36-2.60Q468.16-1.20 466.42-0.40Q464.68 0.40 462.60 0.40L462.60 0.40Q460.28 0.40 458.40-0.72Q456.52-1.84 455.46-3.86Q454.40-5.88 454.40-8.52L454.40-8.52Q454.40-11.20 455.52-13.18Q456.64-15.16 458.60-16.20Q460.56-17.24 463.04-17.24L463.04-17.24Q464.92-17.24 466.66-16.46Q468.40-15.68 469.40-14.32L469.40-14.32L469.40-31ZM463.76-2.80Q465.92-2.80 467.42-3.96Q468.92-5.12 469.36-7.08L469.36-7.08L469.36-10.20Q468.88-12 467.32-13.14Q465.76-14.28 463.76-14.28L463.76-14.28Q462.24-14.28 460.96-13.54Q459.68-12.80 458.92-11.50Q458.16-10.20 458.16-8.56L458.16-8.56Q458.16-6.96 458.92-5.64Q459.68-4.32 460.96-3.56Q462.24-2.80 463.76-2.80L463.76-2.80Z M508.04-1.56Q506.92-0.64 505.38-0.12Q503.84 0.40 502.24 0.40L502.24 0.40Q499.56 0.40 497.50-0.68Q495.44-1.76 494.30-3.74Q493.16-5.72 493.16-8.32L493.16-8.32Q493.16-10.88 494.36-12.86Q495.56-14.84 497.56-15.92Q499.56-17 501.88-17L501.88-17Q505.68-17 508.16-14.92L508.16-14.92L506.28-12.48Q505.48-13.08 504.44-13.50Q503.40-13.92 502.20-13.92L502.20-13.92Q500.72-13.92 499.50-13.18Q498.28-12.44 497.58-11.16Q496.88-9.88 496.88-8.32L496.88-8.32Q496.88-6.76 497.62-5.48Q498.36-4.20 499.64-3.44Q500.92-2.68 502.56-2.68L502.56-2.68Q504.60-2.68 506.12-3.88L506.12-3.88L508.04-1.56Z M512.60-8.44Q512.60-10.88 513.78-12.90Q514.96-14.92 517.06-16.08Q519.16-17.24 521.80-17.24L521.80-17.24Q524.44-17.24 526.50-16.08Q528.56-14.92 529.70-12.92Q530.84-10.92 530.84-8.44L530.84-8.44Q530.84-5.96 529.70-3.94Q528.56-1.92 526.48-0.76Q524.40 0.40 521.72 0.40L521.72 0.40Q519.12 0.40 517.04-0.70Q514.96-1.80 513.78-3.80Q512.60-5.80 512.60-8.44L512.60-8.44ZM516.36-8.40Q516.36-6.84 517.06-5.52Q517.76-4.20 518.98-3.44Q520.20-2.68 521.68-2.68L521.68-2.68Q524.00-2.68 525.52-4.32Q527.04-5.96 527.04-8.40L527.04-8.40Q527.04-10.84 525.52-12.50Q524.00-14.16 521.68-14.16L521.68-14.16Q520.16-14.16 518.96-13.38Q517.76-12.60 517.06-11.28Q516.36-9.96 516.36-8.40L516.36-8.40Z M550.60-31L554.32-31L554.32 0L550.56 0L550.56-2.60Q549.36-1.20 547.62-0.40Q545.88 0.40 543.80 0.40L543.80 0.40Q541.48 0.40 539.60-0.72Q537.72-1.84 536.66-3.86Q535.60-5.88 535.60-8.52L535.60-8.52Q535.60-11.20 536.72-13.18Q537.84-15.16 539.80-16.20Q541.76-17.24 544.24-17.24L544.24-17.24Q546.12-17.24 547.86-16.46Q549.60-15.68 550.60-14.32L550.60-14.32L550.60-31ZM544.96-2.80Q547.12-2.80 548.62-3.96Q550.12-5.12 550.56-7.08L550.56-7.08L550.56-10.20Q550.08-12 548.52-13.14Q546.96-14.28 544.96-14.28L544.96-14.28Q543.44-14.28 542.16-13.54Q540.88-12.80 540.12-11.50Q539.36-10.20 539.36-8.56L539.36-8.56Q539.36-6.96 540.12-5.64Q540.88-4.32 542.16-3.56Q543.44-2.80 544.96-2.80L544.96-2.80Z M569.72-2.80Q571.80-2.80 573.76-4.24L573.76-4.24L575.48-1.48Q574.16-0.60 572.62-0.10Q571.08 0.40 569.64 0.40L569.64 0.40Q566.88 0.40 564.82-0.74Q562.76-1.88 561.64-3.88Q560.52-5.88 560.52-8.40L560.52-8.40Q560.52-10.84 561.74-12.86Q562.96-14.88 565.08-16.06Q567.20-17.24 569.72-17.24L569.72-17.24Q572.96-17.24 575.14-15.34Q577.32-13.44 578.12-10.04L578.12-10.04L565.00-5.44Q565.72-4.20 566.94-3.50Q568.16-2.80 569.72-2.80L569.72-2.80ZM569.44-14.28Q567.16-14.28 565.68-12.68Q564.20-11.08 564.20-8.60L564.20-8.60Q564.20-8 564.24-7.68L564.24-7.68L573.88-11.24Q573.28-12.60 572.18-13.44Q571.08-14.28 569.44-14.28L569.44-14.28Z M584.40-28.36L587.80-28.36L587.80 9.40L584.40 9.40L584.40-28.36Z M610.88-28.92L628.04-28.92L628.04-25.20L614.76-25.20L614.76-16L626.40-16L626.40-12.28L614.76-12.28L614.76 0L610.88 0L610.88-28.92Z M656.08 0L651.56 0L644.76-10.68Q644.44-10.64 643.80-10.64L643.80-10.64L639.52-10.64L639.52 0L635.64 0L635.64-28.92L643.36-28.92Q646.32-28.92 648.64-27.88Q650.96-26.84 652.28-24.82Q653.60-22.80 653.60-19.96L653.60-19.96Q653.60-17.28 652.42-15.04Q651.24-12.80 648.80-11.64L648.80-11.64L656.08 0ZM643.72-14.40Q646.84-14.40 648.22-16.04Q649.60-17.68 649.60-19.80L649.60-19.80Q649.60-21.08 649.02-22.32Q648.44-23.56 647.18-24.38Q645.92-25.20 644-25.20L644-25.20L639.52-25.20L639.52-14.40L643.72-14.40Z"/></g>
</svg>
</g><g opacity="1" transform="rotate(0 503.847 319.7383)">
<svg width="374.2283" height="100" x="503.847" y="319.7383" version="1.1" preserveAspectRatio="none" viewBox="2.76 -30 145.20000000000002 38.8">
  <g transform="matrix(1 0 0 1 0 0)" class="companyName"><path id="id-D6z1nYkh7" d="M17.48-10.40L17.48-10.40Q17.48-13.76 16.22-15.44Q14.96-17.12 12.68-17.12L12.68-17.12Q10.56-17.12 9.26-15.38Q7.96-13.64 7.96-10.60L7.96-10.60L7.96-10.20Q7.96-7.08 9.26-5.38Q10.56-3.68 12.68-3.68Q14.80-3.68 16.14-5.42Q17.48-7.16 17.48-10.40ZM22.48-10.40L22.48-10.40Q22.48-5.24 20.18-2.42Q17.88 0.40 14.16 0.40L14.16 0.40Q10.32 0.40 8.04-2.52L8.04-2.52L7.96-2.52L7.96 8.80L2.76 8.80L2.76-20.80L7.64-20.80L7.72-17.88L7.80-17.88Q10.20-21.20 14.16-21.20L14.16-21.20Q18.04-21.20 20.26-18.44Q22.48-15.68 22.48-10.40Z M33.48-25.20L28-25.20L28-30L33.48-30L33.48-25.20ZM33.48 0L28 0L28-20.80L33.48-20.80L33.48 0Z M53.80 0L45.68-9.20L45.60-9.20L45.60 0L40.40 0L40.40-30L45.60-30L45.60-12.68L45.68-12.68L53.60-20.80L59.80-20.80L49.92-10.92L60 0L53.80 0Z M71.72-21.20L71.72-21.20Q76.48-21.20 78.56-19.34Q80.64-17.48 80.64-13.32L80.64-13.32L80.64-5.60Q80.64-2.76 81.24 0L81.24 0L76.32 0Q76.08-1.32 75.96-3.08L75.96-3.08L75.88-3.08Q74.76-1.44 72.86-0.52Q70.96 0.40 68.72 0.40L68.72 0.40Q65.80 0.40 64.06-1.22Q62.32-2.84 62.32-5.72L62.32-5.72Q62.32-9.20 65.26-11.30Q68.20-13.40 73.72-13.40L73.72-13.40L75.44-13.40L75.44-13.52Q75.44-15.64 74.60-16.48Q73.76-17.32 71.60-17.32L71.60-17.32Q67.68-17.32 64.20-15.52L64.20-15.52L63.44-19.40Q67.24-21.20 71.72-21.20ZM67.20-6.12L67.20-6.12Q67.20-4.84 67.96-4.12Q68.72-3.40 70.04-3.40L70.04-3.40Q72.32-3.40 73.88-4.88Q75.44-6.36 75.44-8.60L75.44-8.60L75.44-9.96L73.72-9.96Q70.56-9.96 68.88-8.90Q67.20-7.84 67.20-6.12Z M89.28-20.80L93.84-5.48L93.92-5.48L99.12-20.80L104.64-20.80L93.04 8.80L87.52 8.80L91.28 0L83.56-20.80L89.28-20.80Z M108.36-20.80L113.48-20.80L113.48-8.40Q113.48-5.72 114.22-4.74Q114.96-3.76 116.76-3.76L116.76-3.76Q118.52-3.76 119.98-5.54Q121.44-7.32 121.44-9.72L121.44-9.72L121.44-20.80L126.64-20.80L126.64 0L121.76 0L121.64-2.92L121.56-2.92Q120.36-1.36 118.60-0.48Q116.84 0.40 114.96 0.40L114.96 0.40Q111.56 0.40 109.96-1.54Q108.36-3.48 108.36-7.88L108.36-7.88L108.36-20.80Z M140.80-27.60L140.80-20L147.96-20L147.96-16.12L140.80-16.12L140.80-7.60Q140.80-5.24 141.40-4.42Q142-3.60 143.56-3.60L143.56-3.60Q145.48-3.60 147.16-4.28L147.16-4.28L147.84-0.40Q145.36 0.40 142.48 0.40L142.48 0.40Q138.80 0.40 137.14-1.24Q135.48-2.88 135.48-6.68L135.48-6.68L135.48-16.12L131.16-16.12L131.16-20L135.48-20L135.48-27.60L140.80-27.60Z"/></g>
</svg>
</g><g opacity="1" transform="rotate(0 482.847 319.7383)">
<svg width="3" height="148" x="482.847" y="319.7383" version="1.1" preserveAspectRatio="none" viewBox="0 0 3 148">
  <defs><rect x="0" y="0" width="3" height="148" rx="0px" ry="0px" id="id-tBXipXk0b1676915606812"></rect></defs><use class="shape shapeStroke-str" style="stroke-width:0;" xlink:href="#id-tBXipXk0b1676915606812"></use>
</svg>
</g></svg></svg>
